<?xml version="1.0" encoding="UTF-8"?>
<!DOCTYPE svg PUBLIC "-//W3C//DTD SVG 1.1//EN" "http://www.w3.org/Graphics/SVG/1.1/DTD/svg11.dtd">
<!-- Creator: CorelDRAW 2021 (64-Bit) -->
<svg xmlns="http://www.w3.org/2000/svg" xml:space="preserve" width="0.394752in" height="0.394752in" version="1.1" style="shape-rendering:geometricPrecision; text-rendering:geometricPrecision; image-rendering:optimizeQuality; fill-rule:evenodd; clip-rule:evenodd"
viewBox="0 0 2.4 2.4"
 xmlns:xlink="http://www.w3.org/1999/xlink"
 xmlns:xodm="http://www.corel.com/coreldraw/odm/2003">
 <defs>
  <style type="text/css">
   <![CDATA[
    .str0 {stroke:black;stroke-width:0.04;stroke-linecap:round;stroke-linejoin:round;stroke-miterlimit:2.61313}
    .fil73 {fill:#1C3FAA}
    .fil3 {fill:black;fill-rule:nonzero}
    .fil23 {fill:url(#id0)}
    .fil7 {fill:url(#id1)}
    .fil15 {fill:url(#id2)}
    .fil64 {fill:url(#id3)}
    .fil70 {fill:url(#id4)}
    .fil5 {fill:url(#id5)}
    .fil13 {fill:url(#id6)}
    .fil34 {fill:url(#id7)}
    .fil28 {fill:url(#id8)}
    .fil72 {fill:url(#id9)}
    .fil18 {fill:url(#id10)}
    .fil30 {fill:url(#id11)}
    .fil16 {fill:url(#id12)}
    .fil6 {fill:url(#id13)}
    .fil19 {fill:url(#id14)}
    .fil12 {fill:url(#id15)}
    .fil8 {fill:url(#id16)}
    .fil32 {fill:url(#id17)}
    .fil14 {fill:url(#id18)}
    .fil4 {fill:url(#id19)}
    .fil68 {fill:url(#id20)}
    .fil62 {fill:url(#id21)}
    .fil33 {fill:url(#id22)}
    .fil195 {fill:url(#id23)}
    .fil22 {fill:url(#id24)}
    .fil9 {fill:url(#id25)}
    .fil10 {fill:url(#id26)}
    .fil21 {fill:url(#id27)}
    .fil24 {fill:url(#id28)}
    .fil66 {fill:url(#id29)}
    .fil60 {fill:url(#id30)}
    .fil145 {fill:url(#id31)}
    .fil196 {fill:url(#id32)}
    .fil181 {fill:url(#id33)}
    .fil54 {fill:url(#id34)}
    .fil109 {fill:url(#id35)}
    .fil166 {fill:url(#id36)}
    .fil178 {fill:url(#id37)}
    .fil79 {fill:url(#id38)}
    .fil91 {fill:url(#id39)}
    .fil103 {fill:url(#id40)}
    .fil171 {fill:url(#id41)}
    .fil107 {fill:url(#id42)}
    .fil163 {fill:url(#id43)}
    .fil56 {fill:url(#id44)}
    .fil53 {fill:url(#id45)}
    .fil77 {fill:url(#id46)}
    .fil75 {fill:url(#id47)}
    .fil132 {fill:url(#id48)}
    .fil190 {fill:url(#id49)}
    .fil150 {fill:url(#id50)}
    .fil180 {fill:url(#id51)}
    .fil153 {fill:url(#id52)}
    .fil11 {fill:url(#id53)}
    .fil110 {fill:url(#id54)}
    .fil119 {fill:url(#id55)}
    .fil174 {fill:url(#id56)}
    .fil164 {fill:url(#id57)}
    .fil176 {fill:url(#id58)}
    .fil152 {fill:url(#id59)}
    .fil121 {fill:url(#id60)}
    .fil162 {fill:url(#id61)}
    .fil141 {fill:url(#id62)}
    .fil94 {fill:url(#id63)}
    .fil44 {fill:url(#id64)}
    .fil184 {fill:url(#id65)}
    .fil198 {fill:url(#id66)}
    .fil183 {fill:url(#id67)}
    .fil97 {fill:url(#id68)}
    .fil47 {fill:url(#id69)}
    .fil133 {fill:url(#id70)}
    .fil86 {fill:url(#id71)}
    .fil125 {fill:url(#id72)}
    .fil92 {fill:url(#id73)}
    .fil52 {fill:url(#id74)}
    .fil63 {fill:url(#id75)}
    .fil69 {fill:url(#id76)}
    .fil93 {fill:url(#id77)}
    .fil148 {fill:url(#id78)}
    .fil156 {fill:url(#id79)}
    .fil124 {fill:url(#id80)}
    .fil17 {fill:url(#id81)}
    .fil83 {fill:url(#id82)}
    .fil155 {fill:url(#id83)}
    .fil87 {fill:url(#id84)}
    .fil130 {fill:url(#id85)}
    .fil43 {fill:url(#id86)}
    .fil45 {fill:url(#id87)}
    .fil105 {fill:url(#id88)}
    .fil40 {fill:url(#id89)}
    .fil149 {fill:url(#id90)}
    .fil113 {fill:url(#id91)}
    .fil78 {fill:url(#id92)}
    .fil76 {fill:url(#id93)}
    .fil126 {fill:url(#id94)}
    .fil173 {fill:url(#id95)}
    .fil147 {fill:url(#id96)}
    .fil48 {fill:url(#id97)}
    .fil151 {fill:url(#id98)}
    .fil188 {fill:url(#id99)}
    .fil38 {fill:url(#id100)}
    .fil142 {fill:url(#id101)}
    .fil100 {fill:url(#id102)}
    .fil131 {fill:url(#id103)}
    .fil154 {fill:url(#id104)}
    .fil67 {fill:url(#id105)}
    .fil61 {fill:url(#id106)}
    .fil98 {fill:url(#id107)}
    .fil99 {fill:url(#id108)}
    .fil136 {fill:url(#id109)}
    .fil194 {fill:url(#id110)}
    .fil197 {fill:url(#id111)}
    .fil140 {fill:url(#id112)}
    .fil135 {fill:url(#id113)}
    .fil191 {fill:url(#id114)}
    .fil84 {fill:url(#id115)}
    .fil26 {fill:url(#id116)}
    .fil127 {fill:url(#id117)}
    .fil106 {fill:url(#id118)}
    .fil122 {fill:url(#id119)}
    .fil82 {fill:url(#id120)}
    .fil31 {fill:url(#id121)}
    .fil35 {fill:url(#id122)}
    .fil101 {fill:url(#id123)}
    .fil111 {fill:url(#id124)}
    .fil58 {fill:url(#id125)}
    .fil112 {fill:url(#id126)}
    .fil55 {fill:url(#id127)}
    .fil115 {fill:url(#id128)}
    .fil108 {fill:url(#id129)}
    .fil65 {fill:url(#id130)}
    .fil71 {fill:url(#id131)}
    .fil36 {fill:url(#id132)}
    .fil81 {fill:url(#id133)}
    .fil88 {fill:url(#id134)}
    .fil95 {fill:url(#id135)}
    .fil27 {fill:url(#id136)}
    .fil0 {fill:url(#id137)}
    .fil175 {fill:url(#id138)}
    .fil80 {fill:url(#id139)}
    .fil170 {fill:url(#id140)}
    .fil168 {fill:url(#id141)}
    .fil187 {fill:url(#id142)}
    .fil159 {fill:url(#id143)}
    .fil59 {fill:url(#id144)}
    .fil158 {fill:url(#id145)}
    .fil37 {fill:url(#id146)}
    .fil193 {fill:url(#id147)}
    .fil192 {fill:url(#id148)}
    .fil185 {fill:url(#id149)}
    .fil129 {fill:url(#id150)}
    .fil120 {fill:url(#id151)}
    .fil114 {fill:url(#id152)}
    .fil117 {fill:url(#id153)}
    .fil49 {fill:url(#id154)}
    .fil161 {fill:url(#id155)}
    .fil39 {fill:url(#id156)}
    .fil134 {fill:url(#id157)}
    .fil160 {fill:url(#id158)}
    .fil186 {fill:url(#id159)}
    .fil102 {fill:url(#id160)}
    .fil41 {fill:url(#id161)}
    .fil85 {fill:url(#id162)}
    .fil90 {fill:url(#id163)}
    .fil42 {fill:url(#id164)}
    .fil146 {fill:url(#id165)}
    .fil144 {fill:url(#id166)}
    .fil1 {fill:url(#id167)}
    .fil143 {fill:url(#id168)}
    .fil57 {fill:url(#id169)}
    .fil29 {fill:url(#id170)}
    .fil177 {fill:url(#id171)}
    .fil138 {fill:url(#id172)}
    .fil137 {fill:url(#id173)}
    .fil20 {fill:url(#id174)}
    .fil2 {fill:url(#id175)}
    .fil118 {fill:url(#id176)}
    .fil104 {fill:url(#id177)}
    .fil51 {fill:url(#id178)}
    .fil25 {fill:url(#id179)}
    .fil46 {fill:url(#id180)}
    .fil182 {fill:url(#id181)}
    .fil96 {fill:url(#id182)}
    .fil165 {fill:url(#id183)}
    .fil179 {fill:url(#id184)}
    .fil89 {fill:url(#id185)}
    .fil139 {fill:url(#id186)}
    .fil116 {fill:url(#id187)}
    .fil169 {fill:url(#id188)}
    .fil128 {fill:url(#id189)}
    .fil50 {fill:url(#id190)}
    .fil189 {fill:url(#id191)}
    .fil123 {fill:url(#id192)}
    .fil167 {fill:url(#id193)}
    .fil157 {fill:url(#id194)}
    .fil172 {fill:url(#id195)}
    .fil74 {fill:url(#id196);fill-rule:nonzero}
   ]]>
  </style>
  <linearGradient id="id0" gradientUnits="userSpaceOnUse" x1="1.22" y1="0.78" x2="2.11" y2="0.78">
   <stop offset="0" style="stop-opacity:1; stop-color:#DB9125"/>
   <stop offset="0.0509804" style="stop-opacity:1; stop-color:#EDC44E"/>
   <stop offset="0.2" style="stop-opacity:1; stop-color:#FFF778"/>
   <stop offset="0.27451" style="stop-opacity:1; stop-color:#ECC94F"/>
   <stop offset="0.341176" style="stop-opacity:1; stop-color:#D99A26"/>
   <stop offset="0.372549" style="stop-opacity:1; stop-color:#C08622"/>
   <stop offset="0.470588" style="stop-opacity:1; stop-color:#A7711E"/>
   <stop offset="0.615686" style="stop-opacity:1; stop-color:#CE9F43"/>
   <stop offset="0.678431" style="stop-opacity:1; stop-color:#F6CE69"/>
   <stop offset="0.803922" style="stop-opacity:1; stop-color:#E8B448"/>
   <stop offset="0.870588" style="stop-opacity:1; stop-color:#D99A26"/>
   <stop offset="1" style="stop-opacity:1; stop-color:#F6CE69"/>
  </linearGradient>
  <linearGradient id="id1" gradientUnits="userSpaceOnUse" xlink:href="#id0" x1="0.67" y1="0.9" x2="1.78" y2="0.9">
  </linearGradient>
  <linearGradient id="id2" gradientUnits="userSpaceOnUse" xlink:href="#id0" x1="0.42" y1="1.2" x2="2.1" y2="1.2">
  </linearGradient>
  <linearGradient id="id3" gradientUnits="userSpaceOnUse" xlink:href="#id0" x1="1.08" y1="1.11" x2="1.32" y2="1.11">
  </linearGradient>
  <linearGradient id="id4" gradientUnits="userSpaceOnUse" xlink:href="#id0" x1="1.08" y1="1.29" x2="1.32" y2="1.29">
  </linearGradient>
  <linearGradient id="id5" gradientUnits="userSpaceOnUse" xlink:href="#id0" x1="0.62" y1="0.85" x2="1.01" y2="0.85">
  </linearGradient>
  <linearGradient id="id6" gradientUnits="userSpaceOnUse" xlink:href="#id0" x1="0.62" y1="1.55" x2="1.01" y2="1.55">
  </linearGradient>
  <linearGradient id="id7" gradientUnits="userSpaceOnUse" xlink:href="#id0" x1="0.49" y1="1.56" x2="1.07" y2="1.56">
  </linearGradient>
  <linearGradient id="id8" gradientUnits="userSpaceOnUse" xlink:href="#id0" x1="1.22" y1="1.62" x2="1.93" y2="1.62">
  </linearGradient>
  <linearGradient id="id9" gradientUnits="userSpaceOnUse" xlink:href="#id0" x1="0.27" y1="1.2" x2="2.13" y2="1.2">
  </linearGradient>
  <linearGradient id="id10" gradientUnits="userSpaceOnUse" xlink:href="#id0" x1="0.49" y1="0.84" x2="1.07" y2="0.84">
  </linearGradient>
  <linearGradient id="id11" gradientUnits="userSpaceOnUse" xlink:href="#id0" x1="1.25" y1="1.58" x2="1.92" y2="1.58">
  </linearGradient>
  <linearGradient id="id12" gradientUnits="userSpaceOnUse" xlink:href="#id0" x1="0.57" y1="0.85" x2="1.01" y2="0.85">
  </linearGradient>
  <linearGradient id="id13" gradientUnits="userSpaceOnUse" xlink:href="#id0" x1="0.35" y1="1.2" x2="2" y2="1.2">
  </linearGradient>
  <linearGradient id="id14" gradientUnits="userSpaceOnUse" xlink:href="#id0" x1="0.53" y1="0.84" x2="1.04" y2="0.84">
  </linearGradient>
  <linearGradient id="id15" gradientUnits="userSpaceOnUse" xlink:href="#id0" x1="0.46" y1="1.2" x2="2.11" y2="1.2">
  </linearGradient>
  <linearGradient id="id16" gradientUnits="userSpaceOnUse" xlink:href="#id0" x1="0.67" y1="1.5" x2="1.78" y2="1.5">
  </linearGradient>
  <linearGradient id="id17" gradientUnits="userSpaceOnUse" xlink:href="#id0" x1="0.57" y1="1.55" x2="1.01" y2="1.55">
  </linearGradient>
  <linearGradient id="id18" gradientUnits="userSpaceOnUse" xlink:href="#id0" x1="1.29" y1="1.51" x2="2.12" y2="1.51">
  </linearGradient>
  <linearGradient id="id19" gradientUnits="userSpaceOnUse" xlink:href="#id0" x1="1.29" y1="0.89" x2="2.12" y2="0.89">
  </linearGradient>
  <linearGradient id="id20" gradientUnits="userSpaceOnUse" xlink:href="#id0" x1="1.13" y1="1.31" x2="1.32" y2="1.31">
  </linearGradient>
  <linearGradient id="id21" gradientUnits="userSpaceOnUse" xlink:href="#id0" x1="1.13" y1="1.09" x2="1.32" y2="1.09">
  </linearGradient>
  <linearGradient id="id22" gradientUnits="userSpaceOnUse" xlink:href="#id0" x1="0.53" y1="1.55" x2="1.04" y2="1.55">
  </linearGradient>
  <linearGradient id="id23" gradientUnits="userSpaceOnUse" xlink:href="#id0" x1="1.36" y1="0.47" x2="1.35" y2="-0.42">
  </linearGradient>
  <linearGradient id="id24" gradientUnits="userSpaceOnUse" xlink:href="#id0" x1="1.25" y1="0.82" x2="2.12" y2="0.82">
  </linearGradient>
  <linearGradient id="id25" gradientUnits="userSpaceOnUse" xlink:href="#id0" x1="0.73" y1="1.5" x2="1.74" y2="1.5">
  </linearGradient>
  <linearGradient id="id26" gradientUnits="userSpaceOnUse" xlink:href="#id0" x1="0.73" y1="0.9" x2="1.74" y2="0.9">
  </linearGradient>
  <linearGradient id="id27" gradientUnits="userSpaceOnUse" xlink:href="#id0" x1="1.28" y1="0.85" x2="2.12" y2="0.85">
  </linearGradient>
  <linearGradient id="id28" gradientUnits="userSpaceOnUse" xlink:href="#id0" x1="1.28" y1="1.55" x2="1.92" y2="1.55">
  </linearGradient>
  <linearGradient id="id29" gradientUnits="userSpaceOnUse" xlink:href="#id0" x1="1.18" y1="1.33" x2="1.32" y2="1.33">
  </linearGradient>
  <linearGradient id="id30" gradientUnits="userSpaceOnUse" xlink:href="#id0" x1="1.18" y1="1.07" x2="1.32" y2="1.07">
  </linearGradient>
  <linearGradient id="id31" gradientUnits="userSpaceOnUse" xlink:href="#id0" x1="1.43" y1="1.92" x2="1.88" y2="2.68">
  </linearGradient>
  <linearGradient id="id32" gradientUnits="userSpaceOnUse" xlink:href="#id0" x1="1.3" y1="0.46" x2="1.32" y2="-0.42">
  </linearGradient>
  <linearGradient id="id33" gradientUnits="userSpaceOnUse" xlink:href="#id0" x1="1.81" y1="0.76" x2="2.4" y2="0.09">
  </linearGradient>
  <linearGradient id="id34" gradientUnits="userSpaceOnUse" xlink:href="#id0" x1="1.77" y1="1.3" x2="2.53" y2="1.47">
  </linearGradient>
  <linearGradient id="id35" gradientUnits="userSpaceOnUse" xlink:href="#id0" x1="0.45" y1="1.19" x2="-0.42" y2="1.39">
  </linearGradient>
  <linearGradient id="id36" gradientUnits="userSpaceOnUse" xlink:href="#id0" x1="1.94" y1="1.3" x2="2.82" y2="1.32">
  </linearGradient>
  <linearGradient id="id37" gradientUnits="userSpaceOnUse" xlink:href="#id0" x1="1.86" y1="0.85" x2="2.58" y2="0.34">
  </linearGradient>
  <linearGradient id="id38" gradientUnits="userSpaceOnUse" xlink:href="#id0" x1="1.21" y1="0.45" x2="1.01" y2="-0.42">
  </linearGradient>
  <linearGradient id="id39" gradientUnits="userSpaceOnUse" xlink:href="#id0" x1="0.76" y1="0.59" x2="0.09" y2="0">
  </linearGradient>
  <linearGradient id="id40" gradientUnits="userSpaceOnUse" xlink:href="#id0" x1="0.49" y1="0.96" x2="-0.4" y2="0.88">
  </linearGradient>
  <linearGradient id="id41" gradientUnits="userSpaceOnUse" xlink:href="#id0" x1="1.95" y1="1.13" x2="2.79" y2="0.84">
  </linearGradient>
  <linearGradient id="id42" gradientUnits="userSpaceOnUse" xlink:href="#id0" x1="0.45" y1="1.12" x2="-0.43" y2="1.22">
  </linearGradient>
  <linearGradient id="id43" gradientUnits="userSpaceOnUse" xlink:href="#id0" x1="1.91" y1="1.44" x2="2.8" y2="1.52">
  </linearGradient>
  <linearGradient id="id44" gradientUnits="userSpaceOnUse" xlink:href="#id0" x1="1.8" y1="1.19" x2="2.55" y2="1.36">
  </linearGradient>
  <linearGradient id="id45" gradientUnits="userSpaceOnUse" xlink:href="#id0" x1="1.79" y1="1.23" x2="2.54" y2="1.4">
  </linearGradient>
  <linearGradient id="id46" gradientUnits="userSpaceOnUse" xlink:href="#id0" x1="1.38" y1="1.16" x2="2.25" y2="1.31">
  </linearGradient>
  <linearGradient id="id47" gradientUnits="userSpaceOnUse" xlink:href="#id0" x1="1.38" y1="1.21" x2="2.25" y2="1.06">
  </linearGradient>
  <linearGradient id="id48" gradientUnits="userSpaceOnUse" xlink:href="#id0" x1="0.95" y1="1.91" x2="0.75" y2="2.76">
  </linearGradient>
  <linearGradient id="id49" gradientUnits="userSpaceOnUse" xlink:href="#id0" x1="1.53" y1="0.52" x2="1.81" y2="-0.31">
  </linearGradient>
  <linearGradient id="id50" gradientUnits="userSpaceOnUse" xlink:href="#id0" x1="1.62" y1="1.82" x2="2.2" y2="2.49">
  </linearGradient>
  <linearGradient id="id51" gradientUnits="userSpaceOnUse" xlink:href="#id0" x1="1.82" y1="0.78" x2="2.49" y2="0.2">
  </linearGradient>
  <linearGradient id="id52" gradientUnits="userSpaceOnUse" xlink:href="#id0" x1="1.7" y1="1.76" x2="2.43" y2="2.28">
  </linearGradient>
  <linearGradient id="id53" gradientUnits="userSpaceOnUse" xlink:href="#id0" x1="1.81" y1="1.28" x2="2.15" y2="1.39">
  </linearGradient>
  <linearGradient id="id54" gradientUnits="userSpaceOnUse" xlink:href="#id0" x1="0.45" y1="1.26" x2="-0.41" y2="1.42">
  </linearGradient>
  <linearGradient id="id55" gradientUnits="userSpaceOnUse" xlink:href="#id0" x1="0.55" y1="1.57" x2="-0.11" y2="2.17">
  </linearGradient>
  <linearGradient id="id56" gradientUnits="userSpaceOnUse" xlink:href="#id0" x1="1.92" y1="0.99" x2="2.73" y2="0.65">
  </linearGradient>
  <linearGradient id="id57" gradientUnits="userSpaceOnUse" xlink:href="#id0" x1="1.93" y1="1.38" x2="2.8" y2="1.49">
  </linearGradient>
  <linearGradient id="id58" gradientUnits="userSpaceOnUse" xlink:href="#id0" x1="1.89" y1="0.92" x2="2.67" y2="0.49">
  </linearGradient>
  <linearGradient id="id59" gradientUnits="userSpaceOnUse" xlink:href="#id0" x1="1.68" y1="1.77" x2="2.33" y2="2.37">
  </linearGradient>
  <linearGradient id="id60" gradientUnits="userSpaceOnUse" xlink:href="#id0" x1="0.59" y1="1.64" x2="0" y2="2.31">
  </linearGradient>
  <linearGradient id="id61" gradientUnits="userSpaceOnUse" xlink:href="#id0" x1="1.91" y1="1.45" x2="2.76" y2="1.65">
  </linearGradient>
  <linearGradient id="id62" gradientUnits="userSpaceOnUse" xlink:href="#id0" x1="1.27" y1="1.95" x2="1.56" y2="2.79">
  </linearGradient>
  <linearGradient id="id63" gradientUnits="userSpaceOnUse" xlink:href="#id0" x1="0.66" y1="0.68" x2="-0.05" y2="0.15">
  </linearGradient>
  <linearGradient id="id64" gradientUnits="userSpaceOnUse" xlink:href="#id0" x1="0.43" y1="1.16" x2="1.73" y2="1.01">
  </linearGradient>
  <linearGradient id="id65" gradientUnits="userSpaceOnUse" xlink:href="#id0" x1="1.72" y1="0.66" x2="2.25" y2="-0.05">
  </linearGradient>
  <linearGradient id="id66" gradientUnits="userSpaceOnUse" xlink:href="#id0" x1="1.22" y1="0.45" x2="1.15" y2="-0.43">
  </linearGradient>
  <linearGradient id="id67" gradientUnits="userSpaceOnUse" xlink:href="#id0" x1="1.76" y1="0.7" x2="2.28" y2="-0.03">
  </linearGradient>
  <linearGradient id="id68" gradientUnits="userSpaceOnUse" xlink:href="#id0" x1="0.6" y1="0.75" x2="-0.22" y2="0.4">
  </linearGradient>
  <linearGradient id="id69" gradientUnits="userSpaceOnUse" xlink:href="#id0" x1="1.58" y1="0.91" x2="1.82" y2="1.41">
  </linearGradient>
  <linearGradient id="id70" gradientUnits="userSpaceOnUse" xlink:href="#id0" x1="0.96" y1="1.91" x2="0.88" y2="2.8">
  </linearGradient>
  <linearGradient id="id71" gradientUnits="userSpaceOnUse" xlink:href="#id0" x1="0.92" y1="0.51" x2="0.49" y2="-0.27">
  </linearGradient>
  <linearGradient id="id72" gradientUnits="userSpaceOnUse" xlink:href="#id0" x1="0.69" y1="1.75" x2="0.26" y2="2.53">
  </linearGradient>
  <linearGradient id="id73" gradientUnits="userSpaceOnUse" xlink:href="#id0" x1="0.72" y1="0.63" x2="0.07" y2="0.03">
  </linearGradient>
  <linearGradient id="id74" gradientUnits="userSpaceOnUse" xlink:href="#id0" x1="1.78" y1="1.27" x2="2.54" y2="1.44">
  </linearGradient>
  <linearGradient id="id75" gradientUnits="userSpaceOnUse" xlink:href="#id0" x1="1.03" y1="1.24" x2="1.71" y2="0.89">
  </linearGradient>
  <linearGradient id="id76" gradientUnits="userSpaceOnUse" xlink:href="#id0" x1="1.03" y1="1.01" x2="1.71" y2="1.36">
  </linearGradient>
  <linearGradient id="id77" gradientUnits="userSpaceOnUse" xlink:href="#id0" x1="0.7" y1="0.64" x2="-0.03" y2="0.12">
  </linearGradient>
  <linearGradient id="id78" gradientUnits="userSpaceOnUse" xlink:href="#id0" x1="1.55" y1="1.86" x2="2.06" y2="2.58">
  </linearGradient>
  <linearGradient id="id79" gradientUnits="userSpaceOnUse" xlink:href="#id0" x1="1.79" y1="1.66" x2="2.55" y2="2.11">
  </linearGradient>
  <linearGradient id="id80" gradientUnits="userSpaceOnUse" xlink:href="#id0" x1="0.68" y1="1.74" x2="0.15" y2="2.44">
  </linearGradient>
  <linearGradient id="id81" gradientUnits="userSpaceOnUse" xlink:href="#id0" x1="0.91" y1="0.62" x2="1.61" y2="0.62">
  </linearGradient>
  <linearGradient id="id82" gradientUnits="userSpaceOnUse" xlink:href="#id0" x1="1.05" y1="0.46" x2="0.68" y2="-0.35">
  </linearGradient>
  <linearGradient id="id83" gradientUnits="userSpaceOnUse" xlink:href="#id0" x1="1.75" y1="1.71" x2="2.53" y2="2.14">
  </linearGradient>
  <linearGradient id="id84" gradientUnits="userSpaceOnUse" xlink:href="#id0" x1="0.9" y1="0.51" x2="0.37" y2="-0.2">
  </linearGradient>
  <linearGradient id="id85" gradientUnits="userSpaceOnUse" xlink:href="#id0" x1="0.87" y1="1.88" x2="0.59" y2="2.71">
  </linearGradient>
  <linearGradient id="id86" gradientUnits="userSpaceOnUse" xlink:href="#id0" x1="1.62" y1="1.13" x2="3.14" y2="1.1">
  </linearGradient>
  <linearGradient id="id87" gradientUnits="userSpaceOnUse" xlink:href="#id0" x1="0.44" y1="1.24" x2="1.74" y2="1.09">
  </linearGradient>
  <linearGradient id="id88" gradientUnits="userSpaceOnUse" xlink:href="#id0" x1="0.47" y1="1.04" x2="-0.42" y2="1.05">
  </linearGradient>
  <linearGradient id="id89" gradientUnits="userSpaceOnUse" xlink:href="#id0" x1="0.86" y1="1.82" x2="1.72" y2="1.84">
  </linearGradient>
  <linearGradient id="id90" gradientUnits="userSpaceOnUse" xlink:href="#id0" x1="1.57" y1="1.85" x2="2.17" y2="2.51">
  </linearGradient>
  <linearGradient id="id91" gradientUnits="userSpaceOnUse" xlink:href="#id0" x1="0.46" y1="1.35" x2="-0.35" y2="1.72">
  </linearGradient>
  <linearGradient id="id92" gradientUnits="userSpaceOnUse" xlink:href="#id0" x1="1.37" y1="1.21" x2="2.24" y2="1.36">
  </linearGradient>
  <linearGradient id="id93" gradientUnits="userSpaceOnUse" xlink:href="#id0" x1="1.37" y1="1.16" x2="2.24" y2="1.01">
  </linearGradient>
  <linearGradient id="id94" gradientUnits="userSpaceOnUse" xlink:href="#id0" x1="0.74" y1="1.79" x2="0.29" y2="2.55">
  </linearGradient>
  <linearGradient id="id95" gradientUnits="userSpaceOnUse" xlink:href="#id0" x1="1.94" y1="1.05" x2="2.75" y2="0.68">
  </linearGradient>
  <linearGradient id="id96" gradientUnits="userSpaceOnUse" xlink:href="#id0" x1="1.5" y1="1.89" x2="2.03" y2="2.6">
  </linearGradient>
  <linearGradient id="id97" gradientUnits="userSpaceOnUse" xlink:href="#id0" x1="0.45" y1="1.31" x2="1.75" y2="1.16">
  </linearGradient>
  <linearGradient id="id98" gradientUnits="userSpaceOnUse" xlink:href="#id0" x1="1.64" y1="1.81" x2="2.31" y2="2.4">
  </linearGradient>
  <linearGradient id="id99" gradientUnits="userSpaceOnUse" xlink:href="#id0" x1="1.59" y1="0.56" x2="1.97" y2="-0.24">
  </linearGradient>
  <linearGradient id="id100" gradientUnits="userSpaceOnUse" xlink:href="#id0" x1="0.86" y1="1.87" x2="1.72" y2="1.89">
  </linearGradient>
  <linearGradient id="id101" gradientUnits="userSpaceOnUse" xlink:href="#id0" x1="1.33" y1="1.94" x2="1.59" y2="2.78">
  </linearGradient>
  <linearGradient id="id102" gradientUnits="userSpaceOnUse" xlink:href="#id0" x1="0.52" y1="0.87" x2="-0.31" y2="0.59">
  </linearGradient>
  <linearGradient id="id103" gradientUnits="userSpaceOnUse" xlink:href="#id0" x1="0.89" y1="1.88" x2="0.71" y2="2.76">
  </linearGradient>
  <linearGradient id="id104" gradientUnits="userSpaceOnUse" xlink:href="#id0" x1="1.74" y1="1.72" x2="2.44" y2="2.25">
  </linearGradient>
  <linearGradient id="id105" gradientUnits="userSpaceOnUse" xlink:href="#id0" x1="1.05" y1="1.05" x2="1.74" y2="1.4">
  </linearGradient>
  <linearGradient id="id106" gradientUnits="userSpaceOnUse" xlink:href="#id0" x1="1.05" y1="1.2" x2="1.74" y2="0.85">
  </linearGradient>
  <linearGradient id="id107" gradientUnits="userSpaceOnUse" xlink:href="#id0" x1="0.56" y1="0.81" x2="-0.24" y2="0.43">
  </linearGradient>
  <linearGradient id="id108" gradientUnits="userSpaceOnUse" xlink:href="#id0" x1="0.55" y1="0.82" x2="-0.3" y2="0.55">
  </linearGradient>
  <linearGradient id="id109" gradientUnits="userSpaceOnUse" xlink:href="#id0" x1="1.1" y1="1.94" x2="1.08" y2="2.82">
  </linearGradient>
  <linearGradient id="id110" gradientUnits="userSpaceOnUse" xlink:href="#id0" x1="1.38" y1="0.47" x2="1.49" y2="-0.4">
  </linearGradient>
  <linearGradient id="id111" gradientUnits="userSpaceOnUse" xlink:href="#id0" x1="1.28" y1="0.45" x2="1.18" y2="-0.43">
  </linearGradient>
  <linearGradient id="id112" gradientUnits="userSpaceOnUse" xlink:href="#id0" x1="1.26" y1="1.95" x2="1.42" y2="2.81">
  </linearGradient>
  <linearGradient id="id113" gradientUnits="userSpaceOnUse" xlink:href="#id0" x1="1.04" y1="1.93" x2="1.05" y2="2.82">
  </linearGradient>
  <linearGradient id="id114" gradientUnits="userSpaceOnUse" xlink:href="#id0" x1="1.51" y1="0.52" x2="1.69" y2="-0.36">
  </linearGradient>
  <linearGradient id="id115" gradientUnits="userSpaceOnUse" xlink:href="#id0" x1="0.99" y1="0.48" x2="0.65" y2="-0.33">
  </linearGradient>
  <linearGradient id="id116" gradientUnits="userSpaceOnUse" xlink:href="#id0" x1="0.86" y1="1.77" x2="1.72" y2="1.79">
  </linearGradient>
  <linearGradient id="id117" gradientUnits="userSpaceOnUse" xlink:href="#id0" x1="0.75" y1="1.8" x2="0.4" y2="2.62">
  </linearGradient>
  <linearGradient id="id118" gradientUnits="userSpaceOnUse" xlink:href="#id0" x1="0.46" y1="1.1" x2="-0.42" y2="1.08">
  </linearGradient>
  <linearGradient id="id119" gradientUnits="userSpaceOnUse" xlink:href="#id0" x1="0.63" y1="1.68" x2="0.03" y2="2.33">
  </linearGradient>
  <linearGradient id="id120" gradientUnits="userSpaceOnUse" xlink:href="#id0" x1="1.07" y1="0.46" x2="0.81" y2="-0.38">
  </linearGradient>
  <linearGradient id="id121" gradientUnits="userSpaceOnUse" xlink:href="#id0" x1="0.86" y1="1.77" x2="1.72" y2="1.79">
  </linearGradient>
  <linearGradient id="id122" gradientUnits="userSpaceOnUse" xlink:href="#id0" x1="0.9" y1="0.52" x2="1.61" y2="0.52">
  </linearGradient>
  <linearGradient id="id123" gradientUnits="userSpaceOnUse" xlink:href="#id0" x1="0.52" y1="0.89" x2="-0.36" y2="0.71">
  </linearGradient>
  <linearGradient id="id124" gradientUnits="userSpaceOnUse" xlink:href="#id0" x1="0.45" y1="1.27" x2="-0.39" y2="1.56">
  </linearGradient>
  <linearGradient id="id125" gradientUnits="userSpaceOnUse" xlink:href="#id0" x1="1.78" y1="1.26" x2="2.54" y2="1.43">
  </linearGradient>
  <linearGradient id="id126" gradientUnits="userSpaceOnUse" xlink:href="#id0" x1="0.46" y1="1.33" x2="-0.38" y2="1.59">
  </linearGradient>
  <linearGradient id="id127" gradientUnits="userSpaceOnUse" xlink:href="#id0" x1="1.78" y1="1.29" x2="2.53" y2="1.46">
  </linearGradient>
  <linearGradient id="id128" gradientUnits="userSpaceOnUse" xlink:href="#id0" x1="0.48" y1="1.43" x2="-0.28" y2="1.88">
  </linearGradient>
  <linearGradient id="id129" gradientUnits="userSpaceOnUse" xlink:href="#id0" x1="0.45" y1="1.18" x2="-0.43" y2="1.25">
  </linearGradient>
  <linearGradient id="id130" gradientUnits="userSpaceOnUse" xlink:href="#id0" x1="1" y1="1.28" x2="1.68" y2="0.93">
  </linearGradient>
  <linearGradient id="id131" gradientUnits="userSpaceOnUse" xlink:href="#id0" x1="1" y1="0.97" x2="1.68" y2="1.32">
  </linearGradient>
  <linearGradient id="id132" gradientUnits="userSpaceOnUse" xlink:href="#id0" x1="0.9" y1="0.56" x2="1.61" y2="0.55">
  </linearGradient>
  <linearGradient id="id133" gradientUnits="userSpaceOnUse" xlink:href="#id0" x1="1.13" y1="0.45" x2="0.84" y2="-0.39">
  </linearGradient>
  <linearGradient id="id134" gradientUnits="userSpaceOnUse" xlink:href="#id0" x1="0.85" y1="0.54" x2="0.34" y2="-0.18">
  </linearGradient>
  <linearGradient id="id135" gradientUnits="userSpaceOnUse" xlink:href="#id0" x1="0.65" y1="0.69" x2="-0.13" y2="0.26">
  </linearGradient>
  <linearGradient id="id136" gradientUnits="userSpaceOnUse" xlink:href="#id0" x1="1.82" y1="1.24" x2="2.16" y2="1.36">
  </linearGradient>
  <linearGradient id="id137" gradientUnits="userSpaceOnUse" xlink:href="#id0" x1="0.45" y1="0.45" x2="2.22" y2="2.22">
  </linearGradient>
  <linearGradient id="id138" gradientUnits="userSpaceOnUse" xlink:href="#id0" x1="1.92" y1="0.97" x2="2.68" y2="0.52">
  </linearGradient>
  <linearGradient id="id139" gradientUnits="userSpaceOnUse" xlink:href="#id0" x1="1.14" y1="0.45" x2="0.98" y2="-0.41">
  </linearGradient>
  <linearGradient id="id140" gradientUnits="userSpaceOnUse" xlink:href="#id0" x1="1.95" y1="1.14" x2="2.81" y2="0.98">
  </linearGradient>
  <linearGradient id="id141" gradientUnits="userSpaceOnUse" xlink:href="#id0" x1="1.95" y1="1.22" x2="2.83" y2="1.15">
  </linearGradient>
  <linearGradient id="id142" gradientUnits="userSpaceOnUse" xlink:href="#id0" x1="1.65" y1="0.6" x2="2" y2="-0.22">
  </linearGradient>
  <linearGradient id="id143" gradientUnits="userSpaceOnUse" xlink:href="#id0" x1="1.85" y1="1.58" x2="2.7" y2="1.85">
  </linearGradient>
  <linearGradient id="id144" gradientUnits="userSpaceOnUse" xlink:href="#id0" x1="1.79" y1="1.25" x2="2.54" y2="1.41">
  </linearGradient>
  <linearGradient id="id145" gradientUnits="userSpaceOnUse" xlink:href="#id0" x1="1.84" y1="1.59" x2="2.64" y2="1.97">
  </linearGradient>
  <linearGradient id="id146" gradientUnits="userSpaceOnUse" xlink:href="#id0" x1="0.91" y1="0.58" x2="1.61" y2="0.57">
  </linearGradient>
  <linearGradient id="id147" gradientUnits="userSpaceOnUse" xlink:href="#id0" x1="1.44" y1="0.49" x2="1.52" y2="-0.4">
  </linearGradient>
  <linearGradient id="id148" gradientUnits="userSpaceOnUse" xlink:href="#id0" x1="1.45" y1="0.49" x2="1.65" y2="-0.36">
  </linearGradient>
  <linearGradient id="id149" gradientUnits="userSpaceOnUse" xlink:href="#id0" x1="1.71" y1="0.65" x2="2.14" y2="-0.13">
  </linearGradient>
  <linearGradient id="id150" gradientUnits="userSpaceOnUse" xlink:href="#id0" x1="0.82" y1="1.85" x2="0.55" y2="2.7">
  </linearGradient>
  <linearGradient id="id151" gradientUnits="userSpaceOnUse" xlink:href="#id0" x1="0.58" y1="1.62" x2="-0.09" y2="2.2">
  </linearGradient>
  <linearGradient id="id152" gradientUnits="userSpaceOnUse" xlink:href="#id0" x1="0.48" y1="1.41" x2="-0.33" y2="1.75">
  </linearGradient>
  <linearGradient id="id153" gradientUnits="userSpaceOnUse" xlink:href="#id0" x1="0.51" y1="1.5" x2="-0.2" y2="2.03">
  </linearGradient>
  <linearGradient id="id154" gradientUnits="userSpaceOnUse" xlink:href="#id0" x1="0.85" y1="0.68" x2="1.26" y2="0.52">
  </linearGradient>
  <linearGradient id="id155" gradientUnits="userSpaceOnUse" xlink:href="#id0" x1="1.88" y1="1.51" x2="2.76" y2="1.69">
  </linearGradient>
  <linearGradient id="id156" gradientUnits="userSpaceOnUse" xlink:href="#id0" x1="0.86" y1="1.84" x2="1.72" y2="1.86">
  </linearGradient>
  <linearGradient id="id157" gradientUnits="userSpaceOnUse" xlink:href="#id0" x1="1.02" y1="1.93" x2="0.91" y2="2.8">
  </linearGradient>
  <linearGradient id="id158" gradientUnits="userSpaceOnUse" xlink:href="#id0" x1="1.88" y1="1.53" x2="2.71" y2="1.81">
  </linearGradient>
  <linearGradient id="id159" gradientUnits="userSpaceOnUse" xlink:href="#id0" x1="1.66" y1="0.61" x2="2.11" y2="-0.15">
  </linearGradient>
  <linearGradient id="id160" gradientUnits="userSpaceOnUse" xlink:href="#id0" x1="0.49" y1="0.95" x2="-0.36" y2="0.75">
  </linearGradient>
  <linearGradient id="id161" gradientUnits="userSpaceOnUse" xlink:href="#id0" x1="0.83" y1="0.64" x2="1.24" y2="0.47">
  </linearGradient>
  <linearGradient id="id162" gradientUnits="userSpaceOnUse" xlink:href="#id0" x1="0.97" y1="0.48" x2="0.52" y2="-0.28">
  </linearGradient>
  <linearGradient id="id163" gradientUnits="userSpaceOnUse" xlink:href="#id0" x1="0.78" y1="0.58" x2="0.2" y2="-0.09">
  </linearGradient>
  <linearGradient id="id164" gradientUnits="userSpaceOnUse" xlink:href="#id0" x1="1.62" y1="1.21" x2="3.14" y2="1.17">
  </linearGradient>
  <linearGradient id="id165" gradientUnits="userSpaceOnUse" xlink:href="#id0" x1="1.48" y1="1.89" x2="1.91" y2="2.67">
  </linearGradient>
  <linearGradient id="id166" gradientUnits="userSpaceOnUse" xlink:href="#id0" x1="1.41" y1="1.92" x2="1.75" y2="2.73">
  </linearGradient>
  <linearGradient id="id167" gradientUnits="userSpaceOnUse" xlink:href="#id0" x1="2.06" y1="0.36" x2="0.38" y2="2">
  </linearGradient>
  <linearGradient id="id168" gradientUnits="userSpaceOnUse" xlink:href="#id0" x1="1.35" y1="1.94" x2="1.72" y2="2.75">
  </linearGradient>
  <linearGradient id="id169" gradientUnits="userSpaceOnUse" xlink:href="#id0" x1="1.78" y1="1.27" x2="2.53" y2="1.44">
  </linearGradient>
  <linearGradient id="id170" gradientUnits="userSpaceOnUse" xlink:href="#id0" x1="1.83" y1="1.21" x2="2.18" y2="1.32">
  </linearGradient>
  <linearGradient id="id171" gradientUnits="userSpaceOnUse" xlink:href="#id0" x1="1.89" y1="0.9" x2="2.6" y2="0.37">
  </linearGradient>
  <linearGradient id="id172" gradientUnits="userSpaceOnUse" xlink:href="#id0" x1="1.18" y1="1.95" x2="1.25" y2="2.83">
  </linearGradient>
  <linearGradient id="id173" gradientUnits="userSpaceOnUse" xlink:href="#id0" x1="1.12" y1="1.95" x2="1.22" y2="2.83">
  </linearGradient>
  <linearGradient id="id174" gradientUnits="userSpaceOnUse" xlink:href="#id0" x1="0.91" y1="0.62" x2="1.61" y2="0.62">
  </linearGradient>
  <linearGradient id="id175" gradientUnits="userSpaceOnUse" xlink:href="#id0" x1="0.34" y1="0.34" x2="2.1" y2="2.1">
  </linearGradient>
  <linearGradient id="id176" gradientUnits="userSpaceOnUse" xlink:href="#id0" x1="0.54" y1="1.55" x2="-0.18" y2="2.06">
  </linearGradient>
  <linearGradient id="id177" gradientUnits="userSpaceOnUse" xlink:href="#id0" x1="0.47" y1="1.02" x2="-0.4" y2="0.91">
  </linearGradient>
  <linearGradient id="id178" gradientUnits="userSpaceOnUse" xlink:href="#id0" x1="0.79" y1="1.81" x2="2.05" y2="1.9">
  </linearGradient>
  <linearGradient id="id179" gradientUnits="userSpaceOnUse" xlink:href="#id0" x1="1.84" y1="1.17" x2="2.19" y2="1.29">
  </linearGradient>
  <linearGradient id="id180" gradientUnits="userSpaceOnUse" xlink:href="#id0" x1="1.39" y1="1.26" x2="2.26" y2="1.12">
  </linearGradient>
  <linearGradient id="id181" gradientUnits="userSpaceOnUse" xlink:href="#id0" x1="1.77" y1="0.72" x2="2.37" y2="0.07">
  </linearGradient>
  <linearGradient id="id182" gradientUnits="userSpaceOnUse" xlink:href="#id0" x1="0.61" y1="0.74" x2="-0.15" y2="0.29">
  </linearGradient>
  <linearGradient id="id183" gradientUnits="userSpaceOnUse" xlink:href="#id0" x1="1.93" y1="1.36" x2="2.82" y2="1.35">
  </linearGradient>
  <linearGradient id="id184" gradientUnits="userSpaceOnUse" xlink:href="#id0" x1="1.85" y1="0.83" x2="2.51" y2="0.23">
  </linearGradient>
  <linearGradient id="id185" gradientUnits="userSpaceOnUse" xlink:href="#id0" x1="0.83" y1="0.55" x2="0.23" y2="-0.11">
  </linearGradient>
  <linearGradient id="id186" gradientUnits="userSpaceOnUse" xlink:href="#id0" x1="1.19" y1="1.95" x2="1.39" y2="2.82">
  </linearGradient>
  <linearGradient id="id187" gradientUnits="userSpaceOnUse" xlink:href="#id0" x1="0.51" y1="1.48" x2="-0.27" y2="1.91">
  </linearGradient>
  <linearGradient id="id188" gradientUnits="userSpaceOnUse" xlink:href="#id0" x1="1.95" y1="1.21" x2="2.82" y2="1.01">
  </linearGradient>
  <linearGradient id="id189" gradientUnits="userSpaceOnUse" xlink:href="#id0" x1="0.81" y1="1.84" x2="0.43" y2="2.64">
  </linearGradient>
  <linearGradient id="id190" gradientUnits="userSpaceOnUse" xlink:href="#id0" x1="0.79" y1="1.86" x2="2.04" y2="1.95">
  </linearGradient>
  <linearGradient id="id191" gradientUnits="userSpaceOnUse" xlink:href="#id0" x1="1.58" y1="0.55" x2="1.85" y2="-0.3">
  </linearGradient>
  <linearGradient id="id192" gradientUnits="userSpaceOnUse" xlink:href="#id0" x1="0.64" y1="1.7" x2="0.12" y2="2.43">
  </linearGradient>
  <linearGradient id="id193" gradientUnits="userSpaceOnUse" xlink:href="#id0" x1="1.95" y1="1.28" x2="2.83" y2="1.18">
  </linearGradient>
  <linearGradient id="id194" gradientUnits="userSpaceOnUse" xlink:href="#id0" x1="1.8" y1="1.65" x2="2.62" y2="2">
  </linearGradient>
  <linearGradient id="id195" gradientUnits="userSpaceOnUse" xlink:href="#id0" x1="1.94" y1="1.07" x2="2.78" y2="0.81">
  </linearGradient>
  <linearGradient id="id196" gradientUnits="userSpaceOnUse" xlink:href="#id0" x1="0.49" y1="1.2" x2="1.91" y2="1.2">
  </linearGradient>
 </defs>
 <g id="Layer_x0020_1">
  <metadata id="CorelCorpID_0Corel-Layer"/>
  <g id="_2216056809072">
   <path class="fil0" d="M-0 1.2c0,0.66 0.54,1.2 1.2,1.2 0.66,0 1.2,-0.54 1.2,-1.2 0,-0.66 -0.54,-1.2 -1.2,-1.2 -0.66,0 -1.2,0.54 -1.2,1.2z"/>
   <path class="fil1" d="M0.02 1.19c-0.01,0.65 0.52,1.19 1.17,1.2 0.65,0.01 1.19,-0.52 1.2,-1.17 0.01,-0.65 -0.52,-1.19 -1.17,-1.2 -0,-0 -0.01,-0 -0.01,-0 -0.65,0 -1.18,0.52 -1.18,1.17z"/>
   <path class="fil2" d="M0.09 1.19c-0.01,0.61 0.48,1.11 1.09,1.12 0.61,0.01 1.11,-0.48 1.12,-1.09 0.01,-0.61 -0.48,-1.11 -1.09,-1.12 -0,-0 -0.01,-0 -0.01,-0 -0.61,0 -1.1,0.49 -1.11,1.09z"/>
   <path class="fil3" d="M2.29 1.2c0,0.6 -0.49,1.09 -1.09,1.09 -0.6,0 -1.09,-0.49 -1.09,-1.09 0,-0.6 0.49,-1.09 1.09,-1.09 0.6,0 1.09,0.49 1.09,1.09z"/>
   <path class="fil4" d="M1.84 1.19l0.28 0 0 -0.01 -0.28 0 -0.03 -0.03c-0.03,-0.28 -0.24,-0.51 -0.52,-0.55l-0 0.01c0.28,0.04 0.49,0.26 0.51,0.54l0 0 0.04 0.04z"/>
   <path class="fil5" d="M0.62 1.02l-0 0 0.04 0.05 0.29 0 0 -0.01 -0.29 0 -0.03 -0.04c0.06,-0.18 0.2,-0.32 0.38,-0.38l-0 -0.01c-0.18,0.06 -0.33,0.21 -0.38,0.39z"/>
   <path class="fil6" d="M0.35 1.2c0,0.47 0.38,0.85 0.85,0.85 0.35,0 0.67,-0.22 0.79,-0.56l0 -0.01 -0.05 0 -0 0c-0.12,0.31 -0.42,0.52 -0.75,0.52 -0.44,0 -0.8,-0.36 -0.8,-0.8 0,-0.44 0.36,-0.8 0.8,-0.8 0.34,0 0.64,0.21 0.75,0.53l0 0 0.05 0 -0 -0.01c-0.12,-0.34 -0.44,-0.57 -0.8,-0.57 -0.47,0 -0.85,0.38 -0.85,0.85zm0.01 0c0,-0.46 0.37,-0.84 0.84,-0.84 0.35,0 0.67,0.22 0.79,0.56l-0.03 0c-0.12,-0.32 -0.42,-0.53 -0.76,-0.53 -0.45,0 -0.81,0.36 -0.81,0.81 0,0.45 0.36,0.81 0.81,0.81 0.33,0 0.64,-0.21 0.76,-0.52l0.03 0c-0.12,0.33 -0.44,0.54 -0.78,0.54 -0.46,0 -0.84,-0.37 -0.84,-0.84z"/>
   <path class="fil7" d="M1.71 1.19l0.06 0 -0 -0.01c-0.01,-0.31 -0.26,-0.56 -0.58,-0.56 -0.23,0 -0.44,0.14 -0.53,0.35l-0 0 0.04 0.06 0.24 -0 0 -0.01 -0.24 0 -0.03 -0.05c0.09,-0.21 0.29,-0.34 0.52,-0.34 0.31,0 0.55,0.24 0.57,0.54l-0.05 0 -0.07 -0.07 0 -0.13 -0.01 0 0 0.14 0.07 0.07z"/>
   <path class="fil8" d="M1.63 1.21l0 0.01 0.14 0c-0.01,0.3 -0.26,0.54 -0.57,0.54 -0.23,0 -0.43,-0.13 -0.52,-0.34l0.03 -0.05 0.24 0 0 -0.01 -0.24 0 -0.04 0.06 0 0c0.09,0.21 0.3,0.35 0.53,0.35 0.31,0 0.57,-0.24 0.58,-0.56l0 -0.01 -0.15 0z"/>
   <path class="fil9" d="M1.2 1.73c-0.19,0 -0.37,-0.1 -0.46,-0.27l0.03 -0.05 0.18 0 0 -0.01 -0.19 0 -0.04 0.06 0 0c0.1,0.17 0.28,0.27 0.47,0.27 0.28,0 0.51,-0.21 0.54,-0.49l-0.01 -0c-0.03,0.27 -0.26,0.48 -0.53,0.48z"/>
   <path class="fil10" d="M0.73 0.93l-0 0 0.04 0.06 0.19 0 0 -0.01 -0.18 0 -0.03 -0.05c0.09,-0.16 0.27,-0.27 0.46,-0.27 0.27,0 0.5,0.21 0.53,0.48l0.01 -0c-0.03,-0.28 -0.26,-0.49 -0.54,-0.49 -0.19,0 -0.38,0.11 -0.47,0.27z"/>
   <polygon class="fil11" points="2.08,1.38 2.11,1.38 2.11,1.37 2.08,1.37 "/>
   <path class="fil12" d="M0.46 1.2c0,0.41 0.33,0.74 0.74,0.74 0.33,0 0.63,-0.22 0.72,-0.54l0.01 -0.01 -0.01 -0.01 -0.01 0.01 -0 0c-0.09,0.32 -0.38,0.54 -0.71,0.54 -0.41,0 -0.73,-0.33 -0.73,-0.73 0,-0.41 0.33,-0.73 0.73,-0.73 0.33,0 0.62,0.22 0.71,0.54l0 0 0.04 0.03 0.16 0 0 -0.01 -0.16 0 -0.03 -0.03c-0.09,-0.32 -0.38,-0.54 -0.72,-0.54 -0.41,0 -0.74,0.33 -0.74,0.74z"/>
   <path class="fil13" d="M0.66 1.33l-0.04 0.05 0 0c0.06,0.18 0.2,0.33 0.38,0.39l0 -0.01c-0.18,-0.06 -0.32,-0.2 -0.38,-0.38l0.03 -0.04 0.29 0 0 -0.01 -0.29 0z"/>
   <path class="fil14" d="M1.84 1.21l-0.04 0.04 -0 0c-0.02,0.28 -0.23,0.5 -0.51,0.54l0 0.01c0.28,-0.04 0.49,-0.27 0.52,-0.55l0.03 -0.03 0.28 -0 0 -0.01 -0.28 0z"/>
   <path class="fil15" d="M0.42 1.2c0,0.43 0.35,0.78 0.78,0.78 0.34,0 0.64,-0.22 0.74,-0.54l0.03 -0.02 0.12 0 0 -0.01 -0.13 0 -0.04 0.03 -0 0c-0.1,0.32 -0.4,0.53 -0.73,0.53 -0.42,0 -0.77,-0.34 -0.77,-0.77 0,-0.42 0.34,-0.77 0.77,-0.77 0.34,0 0.63,0.21 0.73,0.53l0 0 0.04 0.03 0.13 -0 0 -0.01 -0.12 0 -0.03 -0.02c-0.1,-0.32 -0.4,-0.54 -0.74,-0.54 -0.43,0 -0.78,0.35 -0.78,0.78z"/>
   <path class="fil16" d="M1 0.59c-0.22,0.07 -0.38,0.25 -0.43,0.47l-0 0 0.04 0.05 0.34 0 0 -0.01 -0.33 0 -0.03 -0.04c0.05,-0.21 0.21,-0.39 0.42,-0.46l-0 0.15 0.01 0 0 -0.16 -0.01 0z"/>
   <polygon class="fil17" points="1.15,0.5 1.09,0.5 1.09,0.75 1.1,0.75 1.1,0.51 1.15,0.51 "/>
   <path class="fil18" d="M1.07 0.75l0 -0.25 -0.01 0c-0.31,0.06 -0.54,0.32 -0.57,0.64l-0 0 0.04 0.04 0.42 0 0 -0.01 -0.41 0 -0.03 -0.04c0.03,-0.31 0.25,-0.56 0.56,-0.62l0 0.23 0.01 0z"/>
   <path class="fil19" d="M0.57 1.15l0.38 0 0 -0.01 -0.38 0 -0.03 -0.04c0.04,-0.26 0.23,-0.47 0.49,-0.54l0 0.19 0.01 0 0 -0.2 -0.01 0c-0.26,0.07 -0.46,0.29 -0.5,0.56l-0 0 0.04 0.05z"/>
   <polygon class="fil20" points="1.2,0.49 1.2,0.49 1.2,0.75 1.2,0.75 "/>
   <path class="fil21" d="M2.12 1.15l0 -0.01 -0.25 -0 -0.03 -0.03c-0.04,-0.28 -0.27,-0.51 -0.55,-0.55l-0.01 -0 0 0.19 0.01 0 0 -0.17c0.28,0.04 0.5,0.26 0.54,0.54l0 0 0.04 0.03 0.25 0z"/>
   <path class="fil22" d="M2.12 1.11l0 -0.01 -0.22 0 -0.03 -0.03c-0.06,-0.3 -0.31,-0.52 -0.61,-0.55l-0.01 -0 0 0.22 0.01 0 0 -0.21c0.29,0.03 0.54,0.25 0.59,0.54l0 0 0.04 0.03 0.22 -0z"/>
   <path class="fil23" d="M2.11 1.07l0 -0.01 -0.19 -0 -0.03 -0.03c-0.07,-0.31 -0.35,-0.53 -0.66,-0.55l-0.01 -0 0 0.26 0.01 0 -0 -0.25c0.31,0.01 0.58,0.24 0.65,0.54l0 0 0.04 0.03 0.19 0z"/>
   <path class="fil24" d="M1.92 1.26l0 -0.01 -0.06 0 -0.04 0.03 -0 0c-0.04,0.28 -0.26,0.5 -0.54,0.54l0 -0.18 -0.01 0 0 0.19 0.01 -0c0.28,-0.04 0.51,-0.26 0.55,-0.55l0.03 -0.03 0.05 0z"/>
   <polygon class="fil25" points="2.12,1.26 2.12,1.25 2.08,1.25 2.08,1.26 "/>
   <polygon class="fil26" points="1.2,1.91 1.2,1.91 1.2,1.65 1.2,1.65 "/>
   <polygon class="fil27" points="2.08,1.34 2.11,1.34 2.11,1.33 2.08,1.33 "/>
   <path class="fil28" d="M1.88 1.36l-0 0c-0.07,0.3 -0.34,0.52 -0.65,0.54l0 -0.25 -0.01 0 0 0.26 0.01 -0c0.32,-0.01 0.59,-0.24 0.66,-0.55l0.03 -0.03 -0.01 -0.01 -0.04 0.03z"/>
   <polygon class="fil29" points="2.12,1.3 2.12,1.29 2.08,1.29 2.08,1.3 "/>
   <path class="fil30" d="M1.92 1.3l0 -0.01 -0.03 0 -0.04 0.03 -0 0c-0.06,0.29 -0.3,0.51 -0.59,0.54l0 -0.22 -0.01 0 0 0.23 0.01 -0c0.3,-0.03 0.55,-0.25 0.61,-0.55l0.03 -0.03 0.02 0z"/>
   <polygon class="fil31" points="1.09,1.9 1.15,1.9 1.15,1.89 1.1,1.89 1.1,1.65 1.09,1.65 "/>
   <path class="fil32" d="M0.61 1.29l-0.04 0.05 0 0c0.05,0.22 0.21,0.4 0.43,0.47l0.01 0 0 -0.17 -0.01 0 0 0.15c-0.21,-0.07 -0.37,-0.24 -0.42,-0.46l0.03 -0.04 0.33 0 0 -0.01 -0.34 0z"/>
   <path class="fil33" d="M0.95 1.25l-0.38 0 -0.04 0.05 0 0c0.04,0.27 0.24,0.49 0.5,0.55l0.01 0 0 -0.21 -0.01 0 0 0.2c-0.26,-0.07 -0.45,-0.28 -0.49,-0.54l0.03 -0.04 0.38 0 0 -0.01z"/>
   <path class="fil34" d="M0.53 1.21l-0.04 0.04 0 0c0.03,0.31 0.26,0.58 0.57,0.64l0.01 0 0 -0.25 -0.01 0 0 0.24c-0.3,-0.06 -0.53,-0.32 -0.56,-0.62l0.03 -0.04 0.41 -0 0 -0.01 -0.42 0z"/>
   <polygon class="fil35" points="1.09,0.53 1.15,0.53 1.15,0.52 1.09,0.52 "/>
   <polygon class="fil36" points="1.09,0.56 1.15,0.56 1.15,0.55 1.09,0.55 "/>
   <polygon class="fil37" points="1.15,0.58 1.15,0.57 1.09,0.57 1.09,0.58 "/>
   <polygon class="fil38" points="1.15,1.88 1.15,1.87 1.09,1.87 1.09,1.88 "/>
   <polygon class="fil39" points="1.15,1.85 1.15,1.84 1.09,1.84 1.09,1.85 "/>
   <polygon class="fil40" points="1.15,1.83 1.15,1.82 1.09,1.82 1.09,1.83 "/>
   <path class="fil41" d="M1.12 0.53l0.05 0c0.01,0 0.01,-0 0.01,-0.01l0 -0.02c0,-0.01 -0,-0.01 -0.01,-0.01l-0.05 0c-0.01,0 -0.01,0 -0.01,0.01l0 0.02c0,0.01 0,0.01 0.01,0.01z"/>
   <path class="fil42" d="M1.97 1.19l0 0.02c0,0.01 0.01,0.01 0.01,0.01l0.08 0c0.01,0 0.01,-0.01 0.01,-0.01l0 -0.02c0,-0.01 -0.01,-0.01 -0.01,-0.01l-0.08 0c-0.01,0 -0.01,0.01 -0.01,0.01z"/>
   <path class="fil43" d="M2.06 1.1l-0.08 0c-0.01,0 -0.01,0.01 -0.01,0.01l0 0.02c0,0.01 0.01,0.01 0.01,0.01l0.08 0c0.01,0 0.01,-0.01 0.01,-0.01l0 -0.02c0,-0.01 -0.01,-0.01 -0.01,-0.01z"/>
   <path class="fil44" d="M0.75 1.15l0.08 0c0.01,0 0.01,-0.01 0.01,-0.01l0 -0.02c0,-0.01 -0.01,-0.01 -0.01,-0.01l-0.08 0c-0.01,0 -0.01,0.01 -0.01,0.01l0 0.02c0,0.01 0.01,0.01 0.01,0.01z"/>
   <path class="fil45" d="M0.75 1.22l0.08 0c0.01,0 0.01,-0.01 0.01,-0.01l0 -0.02c0,-0.01 -0.01,-0.01 -0.01,-0.01l-0.08 0c-0.01,0 -0.01,0.01 -0.01,0.01l0 0.02c0,0.01 0.01,0.01 0.01,0.01z"/>
   <path class="fil46" d="M1.6 1.21l0 0.02c0,0.01 0.01,0.01 0.01,0.01l0.07 0c0.01,0 0.01,-0.01 0.01,-0.01l0 -0.02c0,-0.01 -0.01,-0.01 -0.01,-0.01l-0.07 0c-0.01,0 -0.01,0.01 -0.01,0.01z"/>
   <path class="fil47" d="M1.65 0.99l-0.02 0c-0.01,0 -0.01,0.01 -0.01,0.01l0 0.08c0,0.01 0.01,0.01 0.01,0.01l0.02 0c0.01,0 0.01,-0.01 0.01,-0.01l0 -0.08c0,-0.01 -0.01,-0.01 -0.01,-0.01z"/>
   <path class="fil48" d="M0.82 1.25l-0.08 0c-0.01,0 -0.01,0.01 -0.01,0.01l0 0.02c0,0.01 0.01,0.01 0.01,0.01l0.08 0c0.01,0 0.01,-0.01 0.01,-0.01l0 -0.02c0,-0.01 -0.01,-0.01 -0.01,-0.01z"/>
   <path class="fil49" d="M1.18 0.57l0 -0.02c0,-0.01 -0,-0.01 -0.01,-0.01l-0.05 0c-0.01,0 -0.01,0 -0.01,0.01l0 0.02c0,0.01 0,0.01 0.01,0.01l0.05 0c0.01,0 0.01,-0 0.01,-0.01z"/>
   <path class="fil50" d="M1.12 1.91l0.05 0c0.01,0 0.01,-0 0.01,-0.01l0 -0.02c0,-0.01 -0,-0.01 -0.01,-0.01l-0.05 0c-0.01,0 -0.01,0 -0.01,0.01l0 0.02c0,0.01 0,0.01 0.01,0.01z"/>
   <path class="fil51" d="M1.12 1.85l0.05 0c0.01,0 0.01,-0 0.01,-0.01l0 -0.02c0,-0.01 -0,-0.01 -0.01,-0.01l-0.05 0c-0.01,0 -0.01,0 -0.01,0.01l0 0.02c0,0.01 0,0.01 0.01,0.01z"/>
   <path class="fil52" d="M1.92 1.39l0.16 0 0 -0.15 -0.16 0 0 0.15zm0.01 -0.14l0.14 0 0 0.14 -0.14 0 0 -0.14z"/>
   <polygon class="fil53" points="1.92,1.28 1.93,1.29 1.97,1.25 1.96,1.24 "/>
   <polygon class="fil54" points="2.03,1.38 2.04,1.39 2.08,1.35 2.07,1.34 "/>
   <polygon class="fil55" points="1.99,1.38 2,1.39 2.08,1.31 2.07,1.3 "/>
   <polygon class="fil56" points="2.12,1.26 2.11,1.26 2.11,1.26 "/>
   <polygon class="fil57" points="1.95,1.38 1.95,1.39 2.08,1.26 2.07,1.26 "/>
   <polygon class="fil58" points="1.92,1.37 1.93,1.37 2.05,1.25 2.05,1.24 "/>
   <polygon class="fil59" points="1.92,1.32 1.93,1.33 2.01,1.25 2,1.24 "/>
   <g>
    <g>
     <g>
      <polygon class="fil60" points="1.18,1.03 1.19,1.03 1.19,1.09 1.32,1.09 1.32,1.1 1.18,1.1 "/>
      <path class="fil61" d="M1.22 1.08l0.05 0c0,0 0.01,0 0.01,0.01l0 0.01c0,0 -0,0.01 -0.01,0.01l-0.05 0c-0,0 -0.01,-0 -0.01,-0.01l0 -0.01c0,-0 0,-0.01 0.01,-0.01z"/>
     </g>
     <g>
      <polygon class="fil62" points="1.13,1.03 1.14,1.03 1.14,1.1 1.17,1.13 1.32,1.13 1.32,1.14 1.16,1.14 1.13,1.11 "/>
      <path class="fil63" d="M1.2 1.12l0.05 0c0,0 0.01,0 0.01,0.01l0 0.01c0,0 -0,0.01 -0.01,0.01l-0.05 0c-0,0 -0.01,-0 -0.01,-0.01l0 -0.01c0,-0 0,-0.01 0.01,-0.01z"/>
     </g>
     <g>
      <polygon class="fil64" points="1.32,1.18 1.13,1.18 1.08,1.14 1.08,1.03 1.09,1.03 1.09,1.14 1.13,1.17 1.32,1.17 "/>
      <path class="fil65" d="M1.23 1.19l-0.05 0c-0,0 -0.01,-0 -0.01,-0.01l0 -0.01c0,-0 0,-0.01 0.01,-0.01l0.05 0c0,0 0.01,0 0.01,0.01l0 0.01c0,0 -0,0.01 -0.01,0.01z"/>
     </g>
    </g>
    <g>
     <g>
      <polygon class="fil66" points="1.18,1.37 1.19,1.37 1.19,1.31 1.32,1.31 1.32,1.3 1.18,1.3 "/>
      <path class="fil67" d="M1.22 1.32l0.05 0c0,0 0.01,-0 0.01,-0.01l0 -0.01c0,-0 -0,-0.01 -0.01,-0.01l-0.05 0c-0,0 -0.01,0 -0.01,0.01l0 0.01c0,0 0,0.01 0.01,0.01z"/>
     </g>
     <g>
      <polygon class="fil68" points="1.13,1.37 1.14,1.37 1.14,1.3 1.17,1.27 1.32,1.27 1.32,1.26 1.16,1.26 1.13,1.29 "/>
      <path class="fil69" d="M1.2 1.28l0.05 0c0,0 0.01,-0 0.01,-0.01l0 -0.01c0,-0 -0,-0.01 -0.01,-0.01l-0.05 0c-0,0 -0.01,0 -0.01,0.01l0 0.01c0,0 0,0.01 0.01,0.01z"/>
     </g>
     <g>
      <polygon class="fil70" points="1.32,1.22 1.13,1.22 1.08,1.26 1.08,1.37 1.09,1.37 1.09,1.26 1.13,1.23 1.32,1.23 "/>
      <path class="fil71" d="M1.23 1.21l-0.05 0c-0,0 -0.01,0 -0.01,0.01l0 0.01c0,0 0,0.01 0.01,0.01l0.05 0c0,0 0.01,-0 0.01,-0.01l0 -0.01c0,-0 -0,-0.01 -0.01,-0.01z"/>
     </g>
    </g>
   </g>
   <path class="fil72" d="M0.27 1.2c0,0.51 0.42,0.93 0.93,0.93 0.51,0 0.93,-0.42 0.93,-0.93 0,-0.51 -0.42,-0.93 -0.93,-0.93 -0.51,0 -0.93,0.42 -0.93,0.93zm0.01 0c0,-0.5 0.41,-0.92 0.92,-0.92 0.5,0 0.92,0.41 0.92,0.92 0,0.5 -0.41,0.92 -0.92,0.92 -0.5,0 -0.92,-0.41 -0.92,-0.92z"/>
   <path class="fil73" d="M1.2 0.26c-0.03,0 -0.07,0 -0.1,0.01 -0.01,0 -0.02,0.01 -0.02,0.03 0,0.01 0.01,0.02 0.02,0.02 0,0 0,0 0,-0 0.03,-0 0.06,-0.01 0.1,-0.01 0.01,0 0.02,-0.01 0.02,-0.02 0,-0.01 -0.01,-0.02 -0.02,-0.02 0,0 -0,0 -0,0zm0.07 0.03c-0,0.01 0.01,0.03 0.02,0.03 0.03,0 0.06,0.01 0.1,0.02 0,0 0,0 0,0 0.01,0 0.02,-0.01 0.03,-0.02 0,-0.01 -0.01,-0.03 -0.02,-0.03 -0.03,-0.01 -0.07,-0.01 -0.1,-0.02 -0,-0 -0,-0 -0,-0 -0.01,0 -0.02,0.01 -0.02,0.02zm-0.28 -0c-0.03,0.01 -0.07,0.02 -0.1,0.03 -0.01,0 -0.02,0.02 -0.02,0.03 0,0.01 0.01,0.02 0.02,0.02 0,0 0.01,-0 0.01,-0 0.03,-0.01 0.06,-0.02 0.09,-0.03 0.01,-0 0.02,-0.02 0.02,-0.03 -0,-0.01 -0.01,-0.02 -0.02,-0.02 -0,0 -0,0 -0.01,0zm0.47 0.04c-0,0.01 0,0.03 0.02,0.03 0.03,0.01 0.06,0.02 0.09,0.04 0,0 0.01,0 0.01,0 0.01,0 0.02,-0 0.02,-0.01 0.01,-0.01 0,-0.03 -0.01,-0.03 -0.03,-0.01 -0.06,-0.03 -0.09,-0.04 -0,-0 -0.01,-0 -0.01,-0 -0.01,0 -0.02,0.01 -0.02,0.02zm-0.66 0.02c-0.03,0.01 -0.06,0.03 -0.09,0.05 -0.01,0.01 -0.02,0.02 -0.01,0.03 0,0.01 0.01,0.01 0.02,0.01 0,0 0.01,-0 0.01,-0 0.03,-0.02 0.06,-0.03 0.09,-0.05 0.01,-0.01 0.02,-0.02 0.01,-0.03 -0,-0.01 -0.01,-0.01 -0.02,-0.01 -0,0 -0.01,0 -0.01,0zm0.85 0.05c-0.01,0.01 -0,0.03 0.01,0.03 0.03,0.02 0.05,0.03 0.08,0.05 0,0 0.01,0 0.01,0 0.01,0 0.02,-0 0.02,-0.01 0.01,-0.01 0.01,-0.03 -0,-0.03 -0.03,-0.02 -0.06,-0.04 -0.08,-0.06 -0,-0 -0.01,-0 -0.01,-0 -0.01,0 -0.02,0 -0.02,0.01zm-1.02 0.05c-0.03,0.02 -0.05,0.04 -0.08,0.07 -0.01,0.01 -0.01,0.02 -0,0.03 0,0 0.01,0.01 0.02,0.01 0.01,0 0.01,-0 0.02,-0.01 0.02,-0.02 0.05,-0.04 0.07,-0.06 0.01,-0.01 0.01,-0.02 0,-0.03 -0,-0.01 -0.01,-0.01 -0.02,-0.01 -0.01,0 -0.01,0 -0.01,0.01zm1.18 0.06c-0.01,0.01 -0.01,0.03 0,0.03 0.02,0.02 0.05,0.05 0.07,0.07 0,0.01 0.01,0.01 0.02,0.01 0.01,0 0.01,-0 0.02,-0.01 0.01,-0.01 0.01,-0.02 0,-0.03 -0.02,-0.03 -0.05,-0.05 -0.07,-0.07 -0,-0 -0.01,-0.01 -0.02,-0.01 -0.01,0 -0.01,0 -0.02,0.01zm-1.33 0.08c-0.02,0.03 -0.04,0.05 -0.06,0.08 -0.01,0.01 -0,0.03 0.01,0.03 0,0 0.01,0 0.01,0 0.01,0 0.02,-0 0.02,-0.01 0.02,-0.03 0.04,-0.05 0.06,-0.08 0.01,-0.01 0.01,-0.03 -0,-0.03 -0,-0 -0.01,-0.01 -0.02,-0.01 -0.01,0 -0.01,0 -0.02,0.01zm1.46 0.07c-0.01,0.01 -0.01,0.02 -0.01,0.03 0.02,0.03 0.03,0.05 0.05,0.08 0,0.01 0.01,0.01 0.02,0.01 0,0 0.01,-0 0.01,-0 0.01,-0.01 0.02,-0.02 0.01,-0.03 -0.02,-0.03 -0.03,-0.06 -0.05,-0.09 -0,-0.01 -0.01,-0.01 -0.02,-0.01 -0,0 -0.01,0 -0.01,0zm-1.58 0.1c-0.02,0.03 -0.03,0.06 -0.04,0.09 -0.01,0.01 0,0.03 0.01,0.03 0,0 0.01,0 0.01,0 0.01,0 0.02,-0.01 0.02,-0.02 0.01,-0.03 0.03,-0.06 0.04,-0.09 0.01,-0.01 0,-0.03 -0.01,-0.03 -0,-0 -0.01,-0 -0.01,-0 -0.01,0 -0.02,0 -0.02,0.01zm1.68 0.08c-0.01,0.01 -0.02,0.02 -0.01,0.03 0.01,0.03 0.02,0.06 0.03,0.09 0,0.01 0.01,0.02 0.02,0.02 0,0 0.01,-0 0.01,-0 0.01,-0 0.02,-0.02 0.02,-0.03 -0.01,-0.03 -0.02,-0.07 -0.03,-0.1 -0,-0.01 -0.01,-0.02 -0.02,-0.02 -0,0 -0.01,0 -0.01,0zm-1.75 0.11c-0.01,0.03 -0.02,0.07 -0.02,0.1 -0,0.01 0.01,0.03 0.02,0.03 0,0 0,0 0,0 0.01,0 0.02,-0.01 0.03,-0.02 0.01,-0.03 0.01,-0.06 0.02,-0.09 0,-0.01 -0,-0.03 -0.02,-0.03 -0,-0 -0,-0 -0.01,-0 -0.01,0 -0.02,0.01 -0.02,0.02zm-0.03 0.2c-0,0.03 -0,0.07 -0,0.1 0,0.01 0.01,0.02 0.02,0.02 0,0 0,0 0,0 0.01,-0 0.02,-0.01 0.02,-0.03 -0,-0.03 -0,-0.06 0,-0.1 0,-0.01 -0.01,-0.02 -0.02,-0.03 -0,-0 -0,-0 -0,-0 -0.01,0 -0.02,0.01 -0.02,0.02zm0.03 0.18c-0.01,0 -0.02,0.01 -0.02,0.03 0.01,0.03 0.01,0.07 0.02,0.1 0,0.01 0.01,0.02 0.02,0.02 0,0 0.01,-0 0.01,-0 0.01,-0 0.02,-0.02 0.02,-0.03 -0.01,-0.03 -0.02,-0.06 -0.02,-0.09 -0,-0.01 -0.01,-0.02 -0.02,-0.02 -0,0 -0,0 -0,0zm1.77 0.12c-0.01,0.03 -0.02,0.06 -0.03,0.09 -0.01,0.01 0,0.03 0.01,0.03 0,0 0.01,0 0.01,0 0.01,0 0.02,-0.01 0.02,-0.02 0.01,-0.03 0.02,-0.06 0.03,-0.1 0,-0.01 -0,-0.03 -0.02,-0.03 -0,-0 -0,-0 -0.01,-0 -0.01,0 -0.02,0.01 -0.02,0.02zm-1.72 0.08c-0.01,0.01 -0.02,0.02 -0.01,0.03 0.01,0.03 0.03,0.06 0.04,0.09 0,0.01 0.01,0.01 0.02,0.01 0,0 0.01,-0 0.01,-0 0.01,-0.01 0.02,-0.02 0.01,-0.03 -0.02,-0.03 -0.03,-0.06 -0.04,-0.09 -0,-0.01 -0.01,-0.02 -0.02,-0.02 -0,0 -0.01,0 -0.01,0zm1.65 0.1c-0.02,0.03 -0.03,0.06 -0.05,0.08 -0.01,0.01 -0,0.03 0.01,0.03 0,0 0.01,0 0.01,0 0.01,0 0.02,-0 0.02,-0.01 0.02,-0.03 0.04,-0.06 0.05,-0.09 0.01,-0.01 0,-0.03 -0.01,-0.03 -0,-0 -0.01,-0 -0.01,-0 -0.01,0 -0.02,0 -0.02,0.01zm-1.56 0.08c-0.01,0.01 -0.01,0.02 -0.01,0.03 0.02,0.03 0.04,0.06 0.06,0.08 0,0.01 0.01,0.01 0.02,0.01 0.01,0 0.01,-0 0.02,-0.01 0.01,-0.01 0.01,-0.02 0,-0.03 -0.02,-0.02 -0.04,-0.05 -0.06,-0.08 -0,-0.01 -0.01,-0.01 -0.02,-0.01 -0,0 -0.01,0 -0.01,0zm1.45 0.08c-0.02,0.02 -0.04,0.05 -0.07,0.07 -0.01,0.01 -0.01,0.02 -0,0.03 0,0 0.01,0.01 0.02,0.01 0.01,0 0.01,-0 0.02,-0.01 0.02,-0.02 0.05,-0.05 0.07,-0.07 0.01,-0.01 0.01,-0.03 -0,-0.03 -0,-0 -0.01,-0.01 -0.02,-0.01 -0.01,0 -0.01,0 -0.02,0.01zm-1.33 0.07c-0.01,0.01 -0.01,0.03 0,0.03 0.02,0.02 0.05,0.05 0.08,0.07 0,0 0.01,0 0.01,0 0.01,0 0.02,-0 0.02,-0.01 0.01,-0.01 0.01,-0.03 -0,-0.03 -0.03,-0.02 -0.05,-0.04 -0.07,-0.06 -0,-0 -0.01,-0.01 -0.02,-0.01 -0.01,0 -0.01,0 -0.02,0.01zm1.19 0.06c-0.03,0.02 -0.05,0.04 -0.08,0.05 -0.01,0.01 -0.02,0.02 -0.01,0.03 0,0.01 0.01,0.01 0.02,0.01 0,0 0.01,-0 0.01,-0 0.03,-0.02 0.06,-0.04 0.08,-0.06 0.01,-0.01 0.01,-0.02 0,-0.03 -0,-0.01 -0.01,-0.01 -0.02,-0.01 -0.01,0 -0.01,0 -0.01,0zm-1.03 0.06c-0.01,0.01 -0,0.03 0.01,0.03 0.03,0.02 0.06,0.03 0.09,0.05 0,0 0.01,0 0.01,0 0.01,0 0.02,-0 0.02,-0.01 0.01,-0.01 0,-0.03 -0.01,-0.03 -0.03,-0.01 -0.06,-0.03 -0.09,-0.05 -0,-0 -0.01,-0 -0.01,-0 -0.01,0 -0.02,0 -0.02,0.01zm0.87 0.04c-0.03,0.01 -0.06,0.03 -0.09,0.04 -0.01,0 -0.02,0.02 -0.02,0.03 0,0.01 0.01,0.02 0.02,0.02 0,0 0.01,-0 0.01,-0 0.03,-0.01 0.06,-0.02 0.09,-0.04 0.01,-0.01 0.02,-0.02 0.01,-0.03 -0,-0.01 -0.01,-0.01 -0.02,-0.01 -0,0 -0.01,0 -0.01,0zm-0.69 0.05c-0,0.01 0,0.03 0.02,0.03 0.03,0.01 0.07,0.02 0.1,0.03 0,0 0,0 0,0 0.01,0 0.02,-0.01 0.03,-0.02 0,-0.01 -0.01,-0.03 -0.02,-0.03 -0.03,-0.01 -0.06,-0.02 -0.09,-0.03 -0,-0 -0.01,-0 -0.01,-0 -0.01,0 -0.02,0.01 -0.02,0.02zm0.51 0.01c-0.03,0.01 -0.06,0.01 -0.1,0.02 -0.01,0 -0.02,0.01 -0.02,0.03 0,0.01 0.01,0.02 0.02,0.02 0,0 0,0 0,-0 0.03,-0 0.07,-0.01 0.1,-0.02 0.01,-0 0.02,-0.02 0.02,-0.03 -0,-0.01 -0.01,-0.02 -0.02,-0.02 -0,0 -0,0 -0.01,0zm-0.32 0.04c-0,0.01 0.01,0.03 0.02,0.03 0.02,0 0.03,0 0.05,0 0.02,0 0.03,0 0.05,0 0.01,0 0.02,-0.01 0.02,-0.02 0,-0.01 -0.01,-0.02 -0.02,-0.02 -0.03,-0 -0.06,-0 -0.1,-0.01 -0,-0 -0,-0 -0,-0 -0.01,0 -0.02,0.01 -0.02,0.02z"/>
   <g>
    <path class="fil73 str0" d="M1.14 1.89c-0.34,-0.03 -0.6,-0.3 -0.63,-0.63l0.15 0c0.03,0.25 0.23,0.45 0.48,0.48l0 0.15zm-0.63 -0.75c0.03,-0.34 0.3,-0.6 0.63,-0.63l0 0.15c-0.25,0.03 -0.45,0.23 -0.48,0.48l-0.15 0zm0.75 -0.63c0.34,0.03 0.6,0.3 0.63,0.63l-0.15 0c-0.03,-0.25 -0.23,-0.45 -0.48,-0.48l0 -0.15zm-0.04 1.09c-0.07,0 -0.14,-0.02 -0.2,-0.05 -0.06,-0.03 -0.1,-0.08 -0.14,-0.14 -0.03,-0.06 -0.05,-0.13 -0.05,-0.21 0,-0.08 0.02,-0.15 0.05,-0.21 0.03,-0.06 0.08,-0.11 0.14,-0.14 0.06,-0.03 0.12,-0.05 0.2,-0.05 0.06,0 0.12,0.01 0.17,0.04 0.05,0.02 0.09,0.06 0.13,0.11l-0.12 0.13c-0.04,-0.06 -0.1,-0.09 -0.16,-0.09 -0.04,0 -0.07,0.01 -0.1,0.03 -0.03,0.02 -0.05,0.04 -0.07,0.08 -0.02,0.03 -0.02,0.07 -0.02,0.12 0,0.04 0.01,0.08 0.02,0.12 0.02,0.03 0.04,0.06 0.07,0.08 0.03,0.02 0.06,0.03 0.1,0.03 0.06,0 0.12,-0.03 0.16,-0.09l0.12 0.13c-0.03,0.05 -0.08,0.08 -0.13,0.11 -0.05,0.02 -0.11,0.04 -0.17,0.04zm0.68 -0.34c-0.03,0.34 -0.3,0.6 -0.63,0.63l0 -0.15c0.25,-0.03 0.45,-0.23 0.48,-0.48l0.15 0z"/>
    <path class="fil74" d="M1.26 0.49c0.17,0.01 0.33,0.09 0.44,0.21 0.12,0.12 0.19,0.27 0.21,0.45 0,0.01 -0.01,0.02 -0.02,0.02 -0,0 -0,0 -0,0l0 0 -0.15 0c-0.01,0 -0.02,-0.01 -0.02,-0.02 -0.01,-0.12 -0.07,-0.23 -0.15,-0.31 -0.08,-0.08 -0.19,-0.14 -0.31,-0.15 -0.01,-0 -0.02,-0.01 -0.02,-0.02l-0 0 0 -0.15c0,-0.01 0.01,-0.02 0.02,-0.02 0,0 0,0 0,0zm0.41 0.24c-0.1,-0.1 -0.24,-0.17 -0.4,-0.19l0 0.11c0.12,0.02 0.23,0.07 0.32,0.16 0.08,0.08 0.14,0.19 0.16,0.32l0.11 0c-0.02,-0.15 -0.09,-0.29 -0.19,-0.4zm-0.6 0.58c0.01,0.01 0.02,0.03 0.03,0.04 0.01,0.01 0.02,0.02 0.03,0.03 0.01,0.01 0.03,0.01 0.04,0.02 0.01,0 0.03,0.01 0.05,0.01 0.03,0 0.05,-0.01 0.08,-0.02 0.02,-0.01 0.05,-0.03 0.07,-0.06 0.01,-0.01 0.02,-0.01 0.03,-0 0,0 0,0 0,0l0.12 0.12c0.01,0.01 0.01,0.02 0,0.03l0 0c-0.02,0.02 -0.04,0.05 -0.06,0.07 -0.02,0.02 -0.05,0.04 -0.07,0.05 -0.03,0.01 -0.06,0.02 -0.09,0.03 -0.03,0.01 -0.06,0.01 -0.1,0.01 -0.04,0 -0.07,-0 -0.11,-0.01 -0.03,-0.01 -0.07,-0.02 -0.1,-0.04 -0.03,-0.02 -0.06,-0.04 -0.08,-0.06 -0.02,-0.03 -0.04,-0.05 -0.06,-0.09 -0.02,-0.03 -0.03,-0.07 -0.04,-0.1 -0.01,-0.04 -0.01,-0.07 -0.01,-0.11 0,-0.04 0,-0.08 0.01,-0.11 0.01,-0.04 0.02,-0.07 0.04,-0.1 0.02,-0.03 0.04,-0.06 0.06,-0.09 0.02,-0.03 0.05,-0.05 0.08,-0.07 0.06,-0.04 0.13,-0.05 0.21,-0.05 0.03,0 0.06,0 0.1,0.01 0.03,0.01 0.06,0.02 0.09,0.03 0.03,0.01 0.05,0.03 0.07,0.05 0.02,0.02 0.04,0.04 0.06,0.07 0.01,0.01 0,0.02 -0,0.03l-0.12 0.12c-0.01,0.01 -0.02,0.01 -0.03,0 -0,-0 -0,-0 -0,-0l-0 0c-0.02,-0.03 -0.04,-0.05 -0.07,-0.06 -0.02,-0.01 -0.05,-0.02 -0.08,-0.02 -0.03,0 -0.06,0.01 -0.09,0.02 -0.01,0.01 -0.02,0.02 -0.03,0.03 -0.01,0.01 -0.02,0.02 -0.03,0.04 -0.01,0.02 -0.01,0.03 -0.02,0.05 -0,0.02 -0.01,0.04 -0.01,0.06 0,0.02 0,0.04 0.01,0.06 0,0.02 0.01,0.03 0.02,0.05zm-0.01 0.07c-0.01,-0.01 -0.02,-0.03 -0.03,-0.05 -0.01,-0.02 -0.02,-0.04 -0.02,-0.06 -0,-0.02 -0.01,-0.04 -0.01,-0.07 0,-0.02 0,-0.04 0.01,-0.07 0,-0.02 0.01,-0.04 0.02,-0.06 0.01,-0.02 0.02,-0.04 0.03,-0.05 0.01,-0.01 0.03,-0.03 0.04,-0.04 0.03,-0.02 0.07,-0.03 0.11,-0.03 0.04,0 0.07,0.01 0.1,0.03 0.02,0.01 0.05,0.03 0.07,0.05l0.09 -0.1c-0.01,-0.02 -0.03,-0.03 -0.04,-0.04 -0.02,-0.02 -0.04,-0.03 -0.07,-0.04 -0.02,-0.01 -0.05,-0.02 -0.08,-0.03 -0.03,-0.01 -0.06,-0.01 -0.09,-0.01 -0.07,0 -0.13,0.02 -0.18,0.05 -0.03,0.02 -0.05,0.04 -0.07,0.06 -0.02,0.02 -0.04,0.05 -0.06,0.08 -0.02,0.03 -0.03,0.06 -0.04,0.09 -0.01,0.03 -0.01,0.07 -0.01,0.1 0,0.04 0,0.07 0.01,0.1 0.01,0.03 0.02,0.06 0.04,0.09 0.02,0.03 0.03,0.05 0.06,0.08 0.02,0.02 0.05,0.04 0.07,0.06 0.03,0.02 0.06,0.03 0.09,0.04 0.03,0.01 0.06,0.01 0.1,0.01 0.03,0 0.06,-0 0.09,-0.01 0.03,-0.01 0.05,-0.01 0.08,-0.03 0.02,-0.01 0.05,-0.03 0.07,-0.04 0.02,-0.01 0.03,-0.03 0.04,-0.04l-0.09 -0.1c-0.02,0.02 -0.04,0.04 -0.07,0.05 -0.03,0.02 -0.06,0.03 -0.1,0.03 -0.02,0 -0.04,-0 -0.06,-0.01 -0.02,-0.01 -0.04,-0.01 -0.05,-0.02 -0.02,-0.01 -0.03,-0.02 -0.04,-0.04zm-0.56 -0.14l0.15 0c0.01,0 0.02,0.01 0.02,0.02 0.01,0.12 0.07,0.23 0.15,0.31 0.08,0.08 0.19,0.14 0.31,0.15 0.01,0 0.02,0.01 0.02,0.02l0 0 0 0.15c0,0.01 -0.01,0.02 -0.02,0.02 -0,0 -0,-0 -0,-0 -0.17,-0.01 -0.33,-0.09 -0.44,-0.21 -0.12,-0.12 -0.19,-0.27 -0.21,-0.45 -0,-0.01 0.01,-0.02 0.02,-0.02 0,-0 0,-0 0,-0l0 -0zm0.14 0.04l-0.11 0c0.02,0.15 0.09,0.29 0.19,0.4 0.1,0.1 0.24,0.17 0.4,0.19l0 -0.11c-0.12,-0.02 -0.23,-0.07 -0.32,-0.16 -0.08,-0.08 -0.14,-0.19 -0.16,-0.32zm0.61 0.43c0.12,-0.01 0.23,-0.07 0.31,-0.15 0.08,-0.08 0.14,-0.19 0.15,-0.31 0,-0.01 0.01,-0.02 0.02,-0.02l0 -0 0.15 0c0.01,0 0.02,0.01 0.02,0.02 0,0 -0,0 -0,0 -0.01,0.17 -0.09,0.33 -0.21,0.44 -0.12,0.12 -0.27,0.19 -0.45,0.21 -0.01,0 -0.02,-0.01 -0.02,-0.02 -0,-0 -0,-0 -0,-0l-0 0 0 -0.15c0,-0.01 0.01,-0.02 0.02,-0.02zm0.34 -0.12c-0.08,0.08 -0.19,0.14 -0.32,0.16l0 0.11c0.15,-0.02 0.29,-0.09 0.4,-0.19 0.1,-0.1 0.17,-0.24 0.19,-0.4l-0.11 0c-0.02,0.12 -0.07,0.23 -0.16,0.32zm-0.43 -1.09l0 0.15c0,0.01 -0.01,0.02 -0.02,0.02 -0.12,0.01 -0.23,0.07 -0.31,0.15 -0.08,0.08 -0.14,0.19 -0.15,0.31 -0,0.01 -0.01,0.02 -0.02,0.02l0 0 -0.15 0c-0.01,0 -0.02,-0.01 -0.02,-0.02 0,-0 0,-0 0,-0 0.01,-0.17 0.09,-0.33 0.21,-0.44 0.12,-0.12 0.27,-0.19 0.45,-0.21 0.01,-0 0.02,0.01 0.02,0.02 0,0 0,0 0,0l0 0zm-0.04 0.14l0 -0.11c-0.15,0.02 -0.29,0.09 -0.4,0.19 -0.1,0.1 -0.17,0.24 -0.19,0.4l0.11 0c0.02,-0.12 0.07,-0.23 0.16,-0.32 0.08,-0.08 0.19,-0.14 0.32,-0.16z"/>
   </g>
   <g>
    <g>
     <path class="fil75" d="M1.59 1.18l0.05 0c0,0 0.01,-0 0.01,-0.01l0 -0.01c0,-0 -0,-0.01 -0.01,-0.01l-0.05 0c-0,0 -0.01,0 -0.01,0.01l0 0.01c0,0 0,0.01 0.01,0.01z"/>
     <path class="fil76" d="M1.63 1.13l0 -0.01c0,-0 -0,-0.01 -0.01,-0.01l-0.05 0c-0,0 -0.01,0 -0.01,0.01l0 0.01c0,0 0,0.01 0.01,0.01l0.05 0c0,0 0.01,-0 0.01,-0.01z"/>
    </g>
    <g>
     <path class="fil77" d="M1.59 1.26l0.05 0c0,0 0.01,0 0.01,0.01l0 0.01c0,0 -0,0.01 -0.01,0.01l-0.05 0c-0,0 -0.01,-0 -0.01,-0.01l0 -0.01c0,-0 0,-0.01 0.01,-0.01z"/>
     <path class="fil78" d="M1.63 1.31l0 0.01c0,0 -0,0.01 -0.01,0.01l-0.05 0c-0,0 -0.01,-0 -0.01,-0.01l0 -0.01c0,-0 0,-0.01 0.01,-0.01l0.05 0c0,0 0.01,0 0.01,0.01z"/>
    </g>
   </g>
   <g>
    <path class="fil79" d="M1.14 0.23l0.02 -0c0.01,-0 0.01,-0.01 0.01,-0.01l-0 -0.07c-0,-0.01 -0.01,-0.01 -0.01,-0.01l-0.02 0c-0.01,0 -0.01,0.01 -0.01,0.01l0 0.07c0,0.01 0.01,0.01 0.01,0.01z"/>
    <path class="fil80" d="M1.09 0.24l0.01 -0c0,-0 0.01,-0.01 0,-0.01l-0.01 -0.07c-0,-0.01 -0,-0.01 -0.01,-0.01l-0.01 0c-0,0 -0.01,0.01 -0,0.01l0.01 0.07c0,0.01 0,0.01 0.01,0.01z"/>
    <path class="fil81" d="M1.04 0.24l0.02 -0c0.01,-0 0.01,-0.01 0.01,-0.01l-0.01 -0.07c-0,-0.01 -0.01,-0.01 -0.01,-0.01l-0.02 0c-0.01,0 -0.01,0.01 -0.01,0.01l0.01 0.07c0,0.01 0.01,0.01 0.01,0.01z"/>
    <path class="fil82" d="M0.99 0.25l0.01 -0c0,-0 0,-0.01 0,-0.01l-0.01 -0.07c-0,-0.01 -0.01,-0.01 -0.01,-0.01l-0.01 0c-0,0 -0,0.01 -0,0.01l0.01 0.07c0,0.01 0.01,0.01 0.01,0.01z"/>
    <path class="fil83" d="M0.94 0.27l0.02 -0c0.01,-0 0.01,-0.01 0.01,-0.01l-0.02 -0.07c-0,-0.01 -0.01,-0.01 -0.01,-0.01l-0.02 0c-0.01,0 -0.01,0.01 -0.01,0.01l0.02 0.07c0,0.01 0.01,0.01 0.01,0.01z"/>
    <path class="fil84" d="M0.9 0.28l0.01 -0c0,-0 0,-0.01 0,-0.01l-0.02 -0.07c-0,-0.01 -0.01,-0.01 -0.01,-0.01l-0.01 0c-0,0 -0,0.01 -0,0.01l0.02 0.07c0,0.01 0.01,0.01 0.01,0.01z"/>
    <path class="fil85" d="M0.85 0.3l0.01 -0.01c0.01,-0 0.01,-0.01 0.01,-0.02l-0.03 -0.07c-0,-0.01 -0.01,-0.01 -0.02,-0.01l-0.01 0.01c-0.01,0 -0.01,0.01 -0.01,0.02l0.03 0.07c0,0.01 0.01,0.01 0.02,0.01z"/>
    <path class="fil86" d="M0.8 0.32l0.01 -0c0,-0 0,-0.01 0,-0.01l-0.03 -0.07c-0,-0.01 -0.01,-0.01 -0.01,-0.01l-0.01 0c-0,0 -0,0.01 -0,0.01l0.03 0.07c0,0.01 0.01,0.01 0.01,0.01z"/>
    <path class="fil87" d="M0.75 0.34l0.01 -0.01c0.01,-0 0.01,-0.01 0.01,-0.02l-0.03 -0.06c-0,-0.01 -0.01,-0.01 -0.02,-0.01l-0.01 0.01c-0.01,0 -0.01,0.01 -0.01,0.02l0.03 0.06c0,0.01 0.01,0.01 0.02,0.01z"/>
    <path class="fil88" d="M0.71 0.36l0.01 -0c0,-0 0,-0.01 -0,-0.01l-0.04 -0.06c-0,-0.01 -0.01,-0.01 -0.01,-0.01l-0.01 0c-0,0 -0,0.01 0,0.01l0.04 0.06c0,0.01 0.01,0.01 0.01,0.01z"/>
    <path class="fil89" d="M0.67 0.39l0.01 -0.01c0.01,-0 0.01,-0.01 0,-0.02l-0.04 -0.06c-0,-0.01 -0.01,-0.01 -0.02,-0l-0.01 0.01c-0.01,0 -0.01,0.01 -0,0.02l0.04 0.06c0,0.01 0.01,0.01 0.02,0z"/>
    <path class="fil90" d="M0.63 0.42l0.01 -0c0,-0 0,-0.01 -0,-0.01l-0.04 -0.06c-0,-0.01 -0.01,-0.01 -0.01,-0.01l-0.01 0c-0,0 -0,0.01 0,0.01l0.04 0.06c0,0.01 0.01,0.01 0.01,0.01z"/>
    <path class="fil91" d="M0.58 0.45l0.01 -0.01c0.01,-0 0.01,-0.01 0,-0.02l-0.05 -0.06c-0,-0.01 -0.01,-0.01 -0.02,-0l-0.01 0.01c-0.01,0 -0.01,0.01 -0,0.02l0.05 0.06c0,0.01 0.01,0.01 0.02,0z"/>
    <path class="fil92" d="M0.55 0.48l0.01 -0.01c0,-0 0,-0.01 -0,-0.01l-0.05 -0.05c-0,-0 -0.01,-0.01 -0.01,-0l-0.01 0.01c-0,0 -0,0.01 0,0.01l0.05 0.05c0,0 0.01,0.01 0.01,0z"/>
    <path class="fil93" d="M0.51 0.52l0.01 -0.01c0,-0 0,-0.01 -0,-0.02l-0.05 -0.05c-0,-0 -0.01,-0 -0.02,0l-0.01 0.01c-0,0 -0,0.01 0,0.02l0.05 0.05c0,0 0.01,0 0.02,0z"/>
    <path class="fil94" d="M0.48 0.56l0.01 -0.01c0,-0 0,-0.01 -0,-0.01l-0.05 -0.05c-0,-0 -0.01,-0.01 -0.01,-0l-0.01 0.01c-0,0 -0,0.01 0,0.01l0.05 0.05c0,0 0.01,0.01 0.01,0z"/>
    <path class="fil95" d="M0.44 0.6l0.01 -0.01c0,-0.01 0,-0.01 -0,-0.02l-0.06 -0.05c-0.01,-0 -0.01,-0 -0.02,0l-0.01 0.01c-0,0.01 -0,0.01 0,0.02l0.06 0.05c0.01,0 0.01,0 0.02,-0z"/>
    <path class="fil96" d="M0.41 0.63l0 -0.01c0,-0 -0,-0.01 -0.01,-0.01l-0.06 -0.04c-0.01,-0 -0.01,-0 -0.01,-0l-0 0.01c-0,0 0,0.01 0.01,0.01l0.06 0.04c0.01,0 0.01,0 0.01,0z"/>
    <path class="fil97" d="M0.38 0.68l0.01 -0.01c0,-0.01 0,-0.01 -0,-0.02l-0.06 -0.04c-0.01,-0 -0.01,-0 -0.02,0l-0.01 0.01c-0,0.01 -0,0.01 0,0.02l0.06 0.04c0.01,0 0.01,0 0.02,-0z"/>
    <path class="fil98" d="M0.36 0.72l0 -0.01c0,-0 -0,-0.01 -0.01,-0.01l-0.06 -0.04c-0.01,-0 -0.01,-0 -0.01,-0l-0 0.01c-0,0 0,0.01 0.01,0.01l0.06 0.04c0.01,0 0.01,0 0.01,0z"/>
    <path class="fil99" d="M0.33 0.77l0.01 -0.01c0,-0.01 0,-0.01 -0.01,-0.02l-0.06 -0.03c-0.01,-0 -0.01,-0 -0.02,0.01l-0.01 0.01c-0,0.01 -0,0.01 0.01,0.02l0.06 0.03c0.01,0 0.01,0 0.02,-0.01z"/>
    <path class="fil100" d="M0.31 0.81l0 -0.01c0,-0 -0,-0.01 -0.01,-0.01l-0.07 -0.03c-0.01,-0 -0.01,-0 -0.01,0l-0 0.01c-0,0 0,0.01 0.01,0.01l0.07 0.03c0.01,0 0.01,0 0.01,-0z"/>
    <path class="fil101" d="M0.29 0.86l0.01 -0.01c0,-0.01 -0,-0.01 -0.01,-0.02l-0.07 -0.03c-0.01,-0 -0.01,0 -0.02,0.01l-0.01 0.01c-0,0.01 0,0.01 0.01,0.02l0.07 0.03c0.01,0 0.01,-0 0.02,-0.01z"/>
    <path class="fil102" d="M0.28 0.9l0 -0.01c0,-0 -0,-0.01 -0.01,-0.01l-0.07 -0.02c-0.01,-0 -0.01,-0 -0.01,0l-0 0.01c-0,0 0,0.01 0.01,0.01l0.07 0.02c0.01,0 0.01,0 0.01,-0z"/>
    <path class="fil103" d="M0.26 0.96l0 -0.02c0,-0.01 -0,-0.01 -0.01,-0.01l-0.07 -0.02c-0.01,-0 -0.01,0 -0.01,0.01l-0 0.02c-0,0.01 0,0.01 0.01,0.01l0.07 0.02c0.01,0 0.01,-0 0.01,-0.01z"/>
    <path class="fil104" d="M0.25 1l0 -0.01c0,-0 -0,-0.01 -0.01,-0.01l-0.07 -0.01c-0.01,-0 -0.01,0 -0.01,0l-0 0.01c-0,0 0,0.01 0.01,0.01l0.07 0.01c0.01,0 0.01,-0 0.01,-0z"/>
    <path class="fil105" d="M0.24 1.06l0 -0.02c0,-0.01 -0,-0.01 -0.01,-0.01l-0.07 -0.01c-0.01,-0 -0.01,0 -0.01,0.01l-0 0.02c-0,0.01 0,0.01 0.01,0.01l0.07 0.01c0.01,0 0.01,-0 0.01,-0.01z"/>
    <path class="fil106" d="M0.24 1.1l0 -0.01c0,-0 -0,-0.01 -0.01,-0.01l-0.07 -0.01c-0.01,-0 -0.01,0 -0.01,0l-0 0.01c-0,0 0,0.01 0.01,0.01l0.07 0.01c0.01,0 0.01,-0 0.01,-0z"/>
    <path class="fil107" d="M0.23 1.16l0 -0.02c0,-0.01 -0,-0.01 -0.01,-0.01l-0.07 -0c-0.01,-0 -0.01,0 -0.01,0.01l-0 0.02c-0,0.01 0,0.01 0.01,0.01l0.07 0c0.01,0 0.01,-0 0.01,-0.01z"/>
    <path class="fil108" d="M0.23 1.2l0 -0.01c0,-0 -0.01,-0.01 -0.01,-0.01l-0.07 0c-0.01,0 -0.01,0 -0.01,0.01l0 0.01c0,0 0.01,0.01 0.01,0.01l0.07 0c0.01,0 0.01,-0 0.01,-0.01z"/>
    <path class="fil109" d="M0.23 1.26l-0 -0.02c-0,-0.01 -0.01,-0.01 -0.01,-0.01l-0.07 0c-0.01,0 -0.01,0.01 -0.01,0.01l0 0.02c0,0.01 0.01,0.01 0.01,0.01l0.07 -0c0.01,-0 0.01,-0.01 0.01,-0.01z"/>
    <path class="fil110" d="M0.24 1.31l-0 -0.01c-0,-0 -0.01,-0.01 -0.01,-0l-0.07 0.01c-0.01,0 -0.01,0 -0.01,0.01l0 0.01c0,0 0.01,0.01 0.01,0l0.07 -0.01c0.01,-0 0.01,-0 0.01,-0.01z"/>
    <path class="fil111" d="M0.24 1.36l-0 -0.02c-0,-0.01 -0.01,-0.01 -0.01,-0.01l-0.07 0.01c-0.01,0 -0.01,0.01 -0.01,0.01l0 0.02c0,0.01 0.01,0.01 0.01,0.01l0.07 -0.01c0.01,-0 0.01,-0.01 0.01,-0.01z"/>
    <path class="fil112" d="M0.25 1.41l-0 -0.01c-0,-0 -0.01,-0 -0.01,-0l-0.07 0.01c-0.01,0 -0.01,0.01 -0.01,0.01l0 0.01c0,0 0.01,0 0.01,0l0.07 -0.01c0.01,-0 0.01,-0.01 0.01,-0.01z"/>
    <path class="fil113" d="M0.27 1.46l-0 -0.02c-0,-0.01 -0.01,-0.01 -0.01,-0.01l-0.07 0.02c-0.01,0 -0.01,0.01 -0.01,0.01l0 0.02c0,0.01 0.01,0.01 0.01,0.01l0.07 -0.02c0.01,-0 0.01,-0.01 0.01,-0.01z"/>
    <path class="fil114" d="M0.28 1.5l-0 -0.01c-0,-0 -0.01,-0 -0.01,-0l-0.07 0.02c-0.01,0 -0.01,0.01 -0.01,0.01l0 0.01c0,0 0.01,0 0.01,0l0.07 -0.02c0.01,-0 0.01,-0.01 0.01,-0.01z"/>
    <path class="fil115" d="M0.3 1.55l-0.01 -0.01c-0,-0.01 -0.01,-0.01 -0.02,-0.01l-0.07 0.03c-0.01,0 -0.01,0.01 -0.01,0.02l0.01 0.01c0,0.01 0.01,0.01 0.02,0.01l0.07 -0.03c0.01,-0 0.01,-0.01 0.01,-0.02z"/>
    <path class="fil116" d="M0.32 1.6l-0 -0.01c-0,-0 -0.01,-0 -0.01,-0l-0.07 0.03c-0.01,0 -0.01,0.01 -0.01,0.01l0 0.01c0,0 0.01,0 0.01,0l0.07 -0.03c0.01,-0 0.01,-0.01 0.01,-0.01z"/>
    <path class="fil117" d="M0.34 1.65l-0.01 -0.01c-0,-0.01 -0.01,-0.01 -0.02,-0.01l-0.06 0.03c-0.01,0 -0.01,0.01 -0.01,0.02l0.01 0.01c0,0.01 0.01,0.01 0.02,0.01l0.06 -0.03c0.01,-0 0.01,-0.01 0.01,-0.02z"/>
    <path class="fil118" d="M0.36 1.69l-0 -0.01c-0,-0 -0.01,-0 -0.01,0l-0.06 0.04c-0.01,0 -0.01,0.01 -0.01,0.01l0 0.01c0,0 0.01,0 0.01,-0l0.06 -0.04c0.01,-0 0.01,-0.01 0.01,-0.01z"/>
    <path class="fil119" d="M0.39 1.73l-0.01 -0.01c-0,-0.01 -0.01,-0.01 -0.02,-0l-0.06 0.04c-0.01,0 -0.01,0.01 -0,0.02l0.01 0.01c0,0.01 0.01,0.01 0.02,0l0.06 -0.04c0.01,-0 0.01,-0.01 0,-0.02z"/>
    <path class="fil120" d="M0.42 1.77l-0 -0.01c-0,-0 -0.01,-0 -0.01,0l-0.06 0.04c-0.01,0 -0.01,0.01 -0.01,0.01l0 0.01c0,0 0.01,0 0.01,-0l0.06 -0.04c0.01,-0 0.01,-0.01 0.01,-0.01z"/>
    <path class="fil121" d="M0.45 1.82l-0.01 -0.01c-0,-0.01 -0.01,-0.01 -0.02,-0l-0.06 0.05c-0.01,0 -0.01,0.01 -0,0.02l0.01 0.01c0,0.01 0.01,0.01 0.02,0l0.06 -0.05c0.01,-0 0.01,-0.01 0,-0.02z"/>
    <path class="fil122" d="M0.48 1.85l-0.01 -0.01c-0,-0 -0.01,-0 -0.01,0l-0.05 0.05c-0,0 -0.01,0.01 -0,0.01l0.01 0.01c0,0 0.01,0 0.01,-0l0.05 -0.05c0,-0 0.01,-0.01 0,-0.01z"/>
    <path class="fil123" d="M0.52 1.89l-0.01 -0.01c-0,-0 -0.01,-0 -0.02,0l-0.05 0.05c-0,0 -0,0.01 -0,0.02l0.01 0.01c0,0 0.01,0 0.02,-0l0.05 -0.05c0,-0 0,-0.01 0,-0.02z"/>
    <path class="fil124" d="M0.56 1.92l-0.01 -0.01c-0,-0 -0.01,-0 -0.01,0l-0.05 0.05c-0,0 -0.01,0.01 -0,0.01l0.01 0.01c0,0 0.01,0 0.01,-0l0.05 -0.05c0,-0 0.01,-0.01 0,-0.01z"/>
    <path class="fil125" d="M0.6 1.96l-0.01 -0.01c-0.01,-0 -0.01,-0 -0.02,0l-0.05 0.06c-0,0.01 -0,0.01 0,0.02l0.01 0.01c0.01,0 0.01,0 0.02,-0l0.05 -0.06c0,-0.01 0,-0.01 -0,-0.02z"/>
    <path class="fil126" d="M0.63 1.99l-0.01 -0c-0,-0 -0.01,0 -0.01,0.01l-0.04 0.06c-0,0.01 -0,0.01 -0,0.01l0.01 0c0,0 0.01,-0 0.01,-0.01l0.04 -0.06c0,-0.01 0,-0.01 0,-0.01z"/>
    <path class="fil127" d="M0.68 2.02l-0.01 -0.01c-0.01,-0 -0.01,-0 -0.02,0l-0.04 0.06c-0,0.01 -0,0.01 0,0.02l0.01 0.01c0.01,0 0.01,0 0.02,-0l0.04 -0.06c0,-0.01 0,-0.01 -0,-0.02z"/>
    <path class="fil128" d="M0.72 2.04l-0.01 -0c-0,-0 -0.01,0 -0.01,0.01l-0.04 0.06c-0,0.01 -0,0.01 -0,0.01l0.01 0c0,0 0.01,-0 0.01,-0.01l0.04 -0.06c0,-0.01 0,-0.01 0,-0.01z"/>
    <path class="fil129" d="M0.77 2.07l-0.01 -0.01c-0.01,-0 -0.01,-0 -0.02,0.01l-0.03 0.06c-0,0.01 -0,0.01 0.01,0.02l0.01 0.01c0.01,0 0.01,0 0.02,-0.01l0.03 -0.06c0,-0.01 0,-0.01 -0.01,-0.02z"/>
    <path class="fil130" d="M0.81 2.09l-0.01 -0c-0,-0 -0.01,0 -0.01,0.01l-0.03 0.07c-0,0.01 -0,0.01 0,0.01l0.01 0c0,0 0.01,-0 0.01,-0.01l0.03 -0.07c0,-0.01 0,-0.01 -0,-0.01z"/>
    <path class="fil131" d="M0.86 2.11l-0.01 -0.01c-0.01,-0 -0.01,0 -0.02,0.01l-0.03 0.07c-0,0.01 0,0.01 0.01,0.02l0.01 0.01c0.01,0 0.01,-0 0.02,-0.01l0.03 -0.07c0,-0.01 -0,-0.01 -0.01,-0.02z"/>
    <path class="fil132" d="M0.9 2.12l-0.01 -0c-0,-0 -0.01,0 -0.01,0.01l-0.02 0.07c-0,0.01 -0,0.01 0,0.01l0.01 0c0,0 0.01,-0 0.01,-0.01l0.02 -0.07c0,-0.01 0,-0.01 -0,-0.01z"/>
    <path class="fil133" d="M0.96 2.14l-0.02 -0c-0.01,-0 -0.01,0 -0.01,0.01l-0.02 0.07c-0,0.01 0,0.01 0.01,0.01l0.02 0c0.01,0 0.01,-0 0.01,-0.01l0.02 -0.07c0,-0.01 -0,-0.01 -0.01,-0.01z"/>
    <path class="fil134" d="M1 2.15l-0.01 -0c-0,-0 -0.01,0 -0.01,0.01l-0.01 0.07c-0,0.01 0,0.01 0,0.01l0.01 0c0,0 0.01,-0 0.01,-0.01l0.01 -0.07c0,-0.01 -0,-0.01 -0,-0.01z"/>
    <path class="fil135" d="M1.06 2.16l-0.02 -0c-0.01,-0 -0.01,0 -0.01,0.01l-0.01 0.07c-0,0.01 0,0.01 0.01,0.01l0.02 0c0.01,0 0.01,-0 0.01,-0.01l0.01 -0.07c0,-0.01 -0,-0.01 -0.01,-0.01z"/>
    <path class="fil136" d="M1.1 2.16l-0.01 -0c-0,-0 -0.01,0 -0.01,0.01l-0.01 0.07c-0,0.01 0,0.01 0,0.01l0.01 0c0,0 0.01,-0 0.01,-0.01l0.01 -0.07c0,-0.01 -0,-0.01 -0,-0.01z"/>
    <path class="fil137" d="M1.16 2.17l-0.02 -0c-0.01,-0 -0.01,0 -0.01,0.01l-0 0.07c-0,0.01 0,0.01 0.01,0.01l0.02 0c0.01,0 0.01,-0 0.01,-0.01l0 -0.07c0,-0.01 -0,-0.01 -0.01,-0.01z"/>
    <path class="fil138" d="M1.2 2.17l-0.01 0c-0,0 -0.01,0.01 -0.01,0.01l0 0.07c0,0.01 0,0.01 0.01,0.01l0.01 0c0,0 0.01,-0.01 0.01,-0.01l0 -0.07c0,-0.01 -0,-0.01 -0.01,-0.01z"/>
    <path class="fil139" d="M1.26 2.17l-0.02 0c-0.01,0 -0.01,0.01 -0.01,0.01l0 0.07c0,0.01 0.01,0.01 0.01,0.01l0.02 -0c0.01,-0 0.01,-0.01 0.01,-0.01l-0 -0.07c-0,-0.01 -0.01,-0.01 -0.01,-0.01z"/>
    <path class="fil140" d="M1.31 2.16l-0.01 0c-0,0 -0.01,0.01 -0,0.01l0.01 0.07c0,0.01 0,0.01 0.01,0.01l0.01 -0c0,-0 0.01,-0.01 0,-0.01l-0.01 -0.07c-0,-0.01 -0,-0.01 -0.01,-0.01z"/>
    <path class="fil141" d="M1.36 2.15l-0.02 0c-0.01,0 -0.01,0.01 -0.01,0.01l0.01 0.07c0,0.01 0.01,0.01 0.01,0.01l0.02 -0c0.01,-0 0.01,-0.01 0.01,-0.01l-0.01 -0.07c-0,-0.01 -0.01,-0.01 -0.01,-0.01z"/>
    <path class="fil142" d="M1.41 2.15l-0.01 0c-0,0 -0,0.01 -0,0.01l0.01 0.07c0,0.01 0.01,0.01 0.01,0.01l0.01 -0c0,-0 0,-0.01 0,-0.01l-0.01 -0.07c-0,-0.01 -0.01,-0.01 -0.01,-0.01z"/>
    <path class="fil143" d="M1.46 2.13l-0.02 0c-0.01,0 -0.01,0.01 -0.01,0.01l0.02 0.07c0,0.01 0.01,0.01 0.01,0.01l0.02 -0c0.01,-0 0.01,-0.01 0.01,-0.01l-0.02 -0.07c-0,-0.01 -0.01,-0.01 -0.01,-0.01z"/>
    <path class="fil144" d="M1.5 2.12l-0.01 0c-0,0 -0,0.01 -0,0.01l0.02 0.07c0,0.01 0.01,0.01 0.01,0.01l0.01 -0c0,-0 0,-0.01 0,-0.01l-0.02 -0.07c-0,-0.01 -0.01,-0.01 -0.01,-0.01z"/>
    <path class="fil145" d="M1.55 2.1l-0.01 0.01c-0.01,0 -0.01,0.01 -0.01,0.02l0.03 0.07c0,0.01 0.01,0.01 0.02,0.01l0.01 -0.01c0.01,-0 0.01,-0.01 0.01,-0.02l-0.03 -0.07c-0,-0.01 -0.01,-0.01 -0.02,-0.01z"/>
    <path class="fil146" d="M1.6 2.08l-0.01 0c-0,0 -0,0.01 -0,0.01l0.03 0.07c0,0.01 0.01,0.01 0.01,0.01l0.01 -0c0,-0 0,-0.01 0,-0.01l-0.03 -0.07c-0,-0.01 -0.01,-0.01 -0.01,-0.01z"/>
    <path class="fil147" d="M1.65 2.06l-0.01 0.01c-0.01,0 -0.01,0.01 -0.01,0.02l0.03 0.06c0,0.01 0.01,0.01 0.02,0.01l0.01 -0.01c0.01,-0 0.01,-0.01 0.01,-0.02l-0.03 -0.06c-0,-0.01 -0.01,-0.01 -0.02,-0.01z"/>
    <path class="fil148" d="M1.69 2.04l-0.01 0c-0,0 -0,0.01 0,0.01l0.04 0.06c0,0.01 0.01,0.01 0.01,0.01l0.01 -0c0,-0 0,-0.01 -0,-0.01l-0.04 -0.06c-0,-0.01 -0.01,-0.01 -0.01,-0.01z"/>
    <path class="fil149" d="M1.73 2.01l-0.01 0.01c-0.01,0 -0.01,0.01 -0,0.02l0.04 0.06c0,0.01 0.01,0.01 0.02,0l0.01 -0.01c0.01,-0 0.01,-0.01 0,-0.02l-0.04 -0.06c-0,-0.01 -0.01,-0.01 -0.02,-0z"/>
    <path class="fil150" d="M1.77 1.98l-0.01 0c-0,0 -0,0.01 0,0.01l0.04 0.06c0,0.01 0.01,0.01 0.01,0.01l0.01 -0c0,-0 0,-0.01 -0,-0.01l-0.04 -0.06c-0,-0.01 -0.01,-0.01 -0.01,-0.01z"/>
    <path class="fil151" d="M1.82 1.95l-0.01 0.01c-0.01,0 -0.01,0.01 -0,0.02l0.05 0.06c0,0.01 0.01,0.01 0.02,0l0.01 -0.01c0.01,-0 0.01,-0.01 0,-0.02l-0.05 -0.06c-0,-0.01 -0.01,-0.01 -0.02,-0z"/>
    <path class="fil152" d="M1.85 1.92l-0.01 0.01c-0,0 -0,0.01 0,0.01l0.05 0.05c0,0 0.01,0.01 0.01,0l0.01 -0.01c0,-0 0,-0.01 -0,-0.01l-0.05 -0.05c-0,-0 -0.01,-0.01 -0.01,-0z"/>
    <path class="fil153" d="M1.89 1.88l-0.01 0.01c-0,0 -0,0.01 0,0.02l0.05 0.05c0,0 0.01,0 0.02,0l0.01 -0.01c0,-0 0,-0.01 0,-0.02l-0.05 -0.05c-0,-0 -0.01,-0 -0.02,-0z"/>
    <path class="fil154" d="M1.92 1.84l-0.01 0.01c-0,0 -0,0.01 0,0.01l0.05 0.05c0,0 0.01,0.01 0.01,0l0.01 -0.01c0,-0 0,-0.01 -0,-0.01l-0.05 -0.05c-0,-0 -0.01,-0.01 -0.01,-0z"/>
    <path class="fil155" d="M1.96 1.8l-0.01 0.01c-0,0.01 -0,0.01 0,0.02l0.06 0.05c0.01,0 0.01,0 0.02,-0l0.01 -0.01c0,-0.01 0,-0.01 -0,-0.02l-0.06 -0.05c-0.01,-0 -0.01,-0 -0.02,0z"/>
    <path class="fil156" d="M1.99 1.77l-0 0.01c-0,0 0,0.01 0.01,0.01l0.06 0.04c0.01,0 0.01,0 0.01,0l0 -0.01c0,-0 -0,-0.01 -0.01,-0.01l-0.06 -0.04c-0.01,-0 -0.01,-0 -0.01,-0z"/>
    <path class="fil157" d="M2.02 1.72l-0.01 0.01c-0,0.01 -0,0.01 0,0.02l0.06 0.04c0.01,0 0.01,0 0.02,-0l0.01 -0.01c0,-0.01 0,-0.01 -0,-0.02l-0.06 -0.04c-0.01,-0 -0.01,-0 -0.02,0z"/>
    <path class="fil158" d="M2.04 1.68l-0 0.01c-0,0 0,0.01 0.01,0.01l0.06 0.04c0.01,0 0.01,0 0.01,0l0 -0.01c0,-0 -0,-0.01 -0.01,-0.01l-0.06 -0.04c-0.01,-0 -0.01,-0 -0.01,-0z"/>
    <path class="fil159" d="M2.07 1.63l-0.01 0.01c-0,0.01 -0,0.01 0.01,0.02l0.06 0.03c0.01,0 0.01,0 0.02,-0.01l0.01 -0.01c0,-0.01 0,-0.01 -0.01,-0.02l-0.06 -0.03c-0.01,-0 -0.01,-0 -0.02,0.01z"/>
    <path class="fil160" d="M2.09 1.59l-0 0.01c-0,0 0,0.01 0.01,0.01l0.07 0.03c0.01,0 0.01,0 0.01,-0l0 -0.01c0,-0 -0,-0.01 -0.01,-0.01l-0.07 -0.03c-0.01,-0 -0.01,-0 -0.01,0z"/>
    <path class="fil161" d="M2.11 1.54l-0.01 0.01c-0,0.01 0,0.01 0.01,0.02l0.07 0.03c0.01,0 0.01,-0 0.02,-0.01l0.01 -0.01c0,-0.01 -0,-0.01 -0.01,-0.02l-0.07 -0.03c-0.01,-0 -0.01,0 -0.02,0.01z"/>
    <path class="fil162" d="M2.12 1.5l-0 0.01c-0,0 0,0.01 0.01,0.01l0.07 0.02c0.01,0 0.01,0 0.01,-0l0 -0.01c0,-0 -0,-0.01 -0.01,-0.01l-0.07 -0.02c-0.01,-0 -0.01,-0 -0.01,0z"/>
    <path class="fil163" d="M2.14 1.44l-0 0.02c-0,0.01 0,0.01 0.01,0.01l0.07 0.02c0.01,0 0.01,-0 0.01,-0.01l0 -0.02c0,-0.01 -0,-0.01 -0.01,-0.01l-0.07 -0.02c-0.01,-0 -0.01,0 -0.01,0.01z"/>
    <path class="fil164" d="M2.15 1.4l-0 0.01c-0,0 0,0.01 0.01,0.01l0.07 0.01c0.01,0 0.01,-0 0.01,-0l0 -0.01c0,-0 -0,-0.01 -0.01,-0.01l-0.07 -0.01c-0.01,-0 -0.01,0 -0.01,0z"/>
    <path class="fil165" d="M2.16 1.34l-0 0.02c-0,0.01 0,0.01 0.01,0.01l0.07 0.01c0.01,0 0.01,-0 0.01,-0.01l0 -0.02c0,-0.01 -0,-0.01 -0.01,-0.01l-0.07 -0.01c-0.01,-0 -0.01,0 -0.01,0.01z"/>
    <path class="fil166" d="M2.16 1.3l-0 0.01c-0,0 0,0.01 0.01,0.01l0.07 0.01c0.01,0 0.01,-0 0.01,-0l0 -0.01c0,-0 -0,-0.01 -0.01,-0.01l-0.07 -0.01c-0.01,-0 -0.01,0 -0.01,0z"/>
    <path class="fil167" d="M2.17 1.24l-0 0.02c-0,0.01 0,0.01 0.01,0.01l0.07 0c0.01,0 0.01,-0 0.01,-0.01l0 -0.02c0,-0.01 -0,-0.01 -0.01,-0.01l-0.07 -0c-0.01,-0 -0.01,0 -0.01,0.01z"/>
    <path class="fil168" d="M2.17 1.2l0 0.01c0,0 0.01,0.01 0.01,0.01l0.07 0c0.01,0 0.01,-0 0.01,-0.01l0 -0.01c0,-0 -0.01,-0.01 -0.01,-0.01l-0.07 0c-0.01,0 -0.01,0 -0.01,0.01z"/>
    <path class="fil169" d="M2.17 1.14l0 0.02c0,0.01 0.01,0.01 0.01,0.01l0.07 -0c0.01,-0 0.01,-0.01 0.01,-0.01l-0 -0.02c-0,-0.01 -0.01,-0.01 -0.01,-0.01l-0.07 0c-0.01,0 -0.01,0.01 -0.01,0.01z"/>
    <path class="fil170" d="M2.16 1.09l0 0.01c0,0 0.01,0.01 0.01,0l0.07 -0.01c0.01,-0 0.01,-0 0.01,-0.01l-0 -0.01c-0,-0 -0.01,-0.01 -0.01,-0l-0.07 0.01c-0.01,0 -0.01,0 -0.01,0.01z"/>
    <path class="fil171" d="M2.15 1.04l0 0.02c0,0.01 0.01,0.01 0.01,0.01l0.07 -0.01c0.01,-0 0.01,-0.01 0.01,-0.01l-0 -0.02c-0,-0.01 -0.01,-0.01 -0.01,-0.01l-0.07 0.01c-0.01,0 -0.01,0.01 -0.01,0.01z"/>
    <path class="fil172" d="M2.15 0.99l0 0.01c0,0 0.01,0 0.01,0l0.07 -0.01c0.01,-0 0.01,-0.01 0.01,-0.01l-0 -0.01c-0,-0 -0.01,-0 -0.01,-0l-0.07 0.01c-0.01,0 -0.01,0.01 -0.01,0.01z"/>
    <path class="fil173" d="M2.13 0.94l0 0.02c0,0.01 0.01,0.01 0.01,0.01l0.07 -0.02c0.01,-0 0.01,-0.01 0.01,-0.01l-0 -0.02c-0,-0.01 -0.01,-0.01 -0.01,-0.01l-0.07 0.02c-0.01,0 -0.01,0.01 -0.01,0.01z"/>
    <path class="fil174" d="M2.12 0.9l0 0.01c0,0 0.01,0 0.01,0l0.07 -0.02c0.01,-0 0.01,-0.01 0.01,-0.01l-0 -0.01c-0,-0 -0.01,-0 -0.01,-0l-0.07 0.02c-0.01,0 -0.01,0.01 -0.01,0.01z"/>
    <path class="fil175" d="M2.1 0.85l0.01 0.01c0,0.01 0.01,0.01 0.02,0.01l0.07 -0.03c0.01,-0 0.01,-0.01 0.01,-0.02l-0.01 -0.01c-0,-0.01 -0.01,-0.01 -0.02,-0.01l-0.07 0.03c-0.01,0 -0.01,0.01 -0.01,0.02z"/>
    <path class="fil176" d="M2.08 0.8l0 0.01c0,0 0.01,0 0.01,0l0.07 -0.03c0.01,-0 0.01,-0.01 0.01,-0.01l-0 -0.01c-0,-0 -0.01,-0 -0.01,-0l-0.07 0.03c-0.01,0 -0.01,0.01 -0.01,0.01z"/>
    <path class="fil177" d="M2.06 0.75l0.01 0.01c0,0.01 0.01,0.01 0.02,0.01l0.06 -0.03c0.01,-0 0.01,-0.01 0.01,-0.02l-0.01 -0.01c-0,-0.01 -0.01,-0.01 -0.02,-0.01l-0.06 0.03c-0.01,0 -0.01,0.01 -0.01,0.02z"/>
    <path class="fil178" d="M2.04 0.71l0 0.01c0,0 0.01,0 0.01,-0l0.06 -0.04c0.01,-0 0.01,-0.01 0.01,-0.01l-0 -0.01c-0,-0 -0.01,-0 -0.01,0l-0.06 0.04c-0.01,0 -0.01,0.01 -0.01,0.01z"/>
    <path class="fil179" d="M2.01 0.67l0.01 0.01c0,0.01 0.01,0.01 0.02,0l0.06 -0.04c0.01,-0 0.01,-0.01 0,-0.02l-0.01 -0.01c-0,-0.01 -0.01,-0.01 -0.02,-0l-0.06 0.04c-0.01,0 -0.01,0.01 -0,0.02z"/>
    <path class="fil180" d="M1.98 0.63l0 0.01c0,0 0.01,0 0.01,-0l0.06 -0.04c0.01,-0 0.01,-0.01 0.01,-0.01l-0 -0.01c-0,-0 -0.01,-0 -0.01,0l-0.06 0.04c-0.01,0 -0.01,0.01 -0.01,0.01z"/>
    <path class="fil181" d="M1.95 0.58l0.01 0.01c0,0.01 0.01,0.01 0.02,0l0.06 -0.05c0.01,-0 0.01,-0.01 0,-0.02l-0.01 -0.01c-0,-0.01 -0.01,-0.01 -0.02,-0l-0.06 0.05c-0.01,0 -0.01,0.01 -0,0.02z"/>
    <path class="fil182" d="M1.92 0.55l0.01 0.01c0,0 0.01,0 0.01,-0l0.05 -0.05c0,-0 0.01,-0.01 0,-0.01l-0.01 -0.01c-0,-0 -0.01,-0 -0.01,0l-0.05 0.05c-0,0 -0.01,0.01 -0,0.01z"/>
    <path class="fil183" d="M1.88 0.51l0.01 0.01c0,0 0.01,0 0.02,-0l0.05 -0.05c0,-0 0,-0.01 0,-0.02l-0.01 -0.01c-0,-0 -0.01,-0 -0.02,0l-0.05 0.05c-0,0 -0,0.01 -0,0.02z"/>
    <path class="fil184" d="M1.84 0.48l0.01 0.01c0,0 0.01,0 0.01,-0l0.05 -0.05c0,-0 0.01,-0.01 0,-0.01l-0.01 -0.01c-0,-0 -0.01,-0 -0.01,0l-0.05 0.05c-0,0 -0.01,0.01 -0,0.01z"/>
    <path class="fil185" d="M1.8 0.44l0.01 0.01c0.01,0 0.01,0 0.02,-0l0.05 -0.06c0,-0.01 0,-0.01 -0,-0.02l-0.01 -0.01c-0.01,-0 -0.01,-0 -0.02,0l-0.05 0.06c-0,0.01 -0,0.01 0,0.02z"/>
    <path class="fil186" d="M1.77 0.41l0.01 0c0,0 0.01,-0 0.01,-0.01l0.04 -0.06c0,-0.01 0,-0.01 0,-0.01l-0.01 -0c-0,-0 -0.01,0 -0.01,0.01l-0.04 0.06c-0,0.01 -0,0.01 -0,0.01z"/>
    <path class="fil187" d="M1.72 0.38l0.01 0.01c0.01,0 0.01,0 0.02,-0l0.04 -0.06c0,-0.01 0,-0.01 -0,-0.02l-0.01 -0.01c-0.01,-0 -0.01,-0 -0.02,0l-0.04 0.06c-0,0.01 -0,0.01 0,0.02z"/>
    <path class="fil188" d="M1.68 0.36l0.01 0c0,0 0.01,-0 0.01,-0.01l0.04 -0.06c0,-0.01 0,-0.01 0,-0.01l-0.01 -0c-0,-0 -0.01,0 -0.01,0.01l-0.04 0.06c-0,0.01 -0,0.01 -0,0.01z"/>
    <path class="fil189" d="M1.63 0.33l0.01 0.01c0.01,0 0.01,0 0.02,-0.01l0.03 -0.06c0,-0.01 0,-0.01 -0.01,-0.02l-0.01 -0.01c-0.01,-0 -0.01,-0 -0.02,0.01l-0.03 0.06c-0,0.01 -0,0.01 0.01,0.02z"/>
    <path class="fil190" d="M1.59 0.31l0.01 0c0,0 0.01,-0 0.01,-0.01l0.03 -0.07c0,-0.01 0,-0.01 -0,-0.01l-0.01 -0c-0,-0 -0.01,0 -0.01,0.01l-0.03 0.07c-0,0.01 -0,0.01 0,0.01z"/>
    <path class="fil191" d="M1.54 0.29l0.01 0.01c0.01,0 0.01,-0 0.02,-0.01l0.03 -0.07c0,-0.01 -0,-0.01 -0.01,-0.02l-0.01 -0.01c-0.01,-0 -0.01,0 -0.02,0.01l-0.03 0.07c-0,0.01 0,0.01 0.01,0.02z"/>
    <path class="fil192" d="M1.5 0.28l0.01 0c0,0 0.01,-0 0.01,-0.01l0.02 -0.07c0,-0.01 0,-0.01 -0,-0.01l-0.01 -0c-0,-0 -0.01,0 -0.01,0.01l-0.02 0.07c-0,0.01 -0,0.01 0,0.01z"/>
    <path class="fil193" d="M1.44 0.26l0.02 0c0.01,0 0.01,-0 0.01,-0.01l0.02 -0.07c0,-0.01 -0,-0.01 -0.01,-0.01l-0.02 -0c-0.01,-0 -0.01,0 -0.01,0.01l-0.02 0.07c-0,0.01 0,0.01 0.01,0.01z"/>
    <path class="fil194" d="M1.4 0.25l0.01 0c0,0 0.01,-0 0.01,-0.01l0.01 -0.07c0,-0.01 -0,-0.01 -0,-0.01l-0.01 -0c-0,-0 -0.01,0 -0.01,0.01l-0.01 0.07c-0,0.01 0,0.01 0,0.01z"/>
    <path class="fil195" d="M1.34 0.24l0.02 0c0.01,0 0.01,-0 0.01,-0.01l0.01 -0.07c0,-0.01 -0,-0.01 -0.01,-0.01l-0.02 -0c-0.01,-0 -0.01,0 -0.01,0.01l-0.01 0.07c-0,0.01 0,0.01 0.01,0.01z"/>
    <path class="fil196" d="M1.3 0.24l0.01 0c0,0 0.01,-0 0.01,-0.01l0.01 -0.07c0,-0.01 -0,-0.01 -0,-0.01l-0.01 -0c-0,-0 -0.01,0 -0.01,0.01l-0.01 0.07c-0,0.01 0,0.01 0,0.01z"/>
    <path class="fil197" d="M1.24 0.23l0.02 0c0.01,0 0.01,-0 0.01,-0.01l0 -0.07c0,-0.01 -0,-0.01 -0.01,-0.01l-0.02 -0c-0.01,-0 -0.01,0 -0.01,0.01l-0 0.07c-0,0.01 0,0.01 0.01,0.01z"/>
    <path class="fil198" d="M1.2 0.23l0.01 0c0,0 0.01,-0.01 0.01,-0.01l0 -0.07c0,-0.01 -0,-0.01 -0.01,-0.01l-0.01 0c-0,0 -0.01,0.01 -0.01,0.01l0 0.07c0,0.01 0,0.01 0.01,0.01z"/>
   </g>
  </g>
 </g>
</svg>
