<?xml version="1.0" encoding="UTF-8"?>
<!DOCTYPE svg PUBLIC "-//W3C//DTD SVG 1.1//EN" "http://www.w3.org/Graphics/SVG/1.1/DTD/svg11.dtd">
<!-- Creator: CorelDRAW 2021 (64-Bit) -->
<svg xmlns="http://www.w3.org/2000/svg" xml:space="preserve" width="0.459035in" height="0.459039in" version="1.1" style="shape-rendering:geometricPrecision; text-rendering:geometricPrecision; image-rendering:optimizeQuality; fill-rule:evenodd; clip-rule:evenodd"
viewBox="0 0 2.64 2.64"
 xmlns:xlink="http://www.w3.org/1999/xlink"
 xmlns:xodm="http://www.corel.com/coreldraw/odm/2003">
 <defs>
  <style type="text/css">
   <![CDATA[
    .str0 {stroke:black;stroke-width:0.04;stroke-linecap:round;stroke-linejoin:round;stroke-miterlimit:2.61313}
    .fil0 {fill:#1C3FAA}
    .fil1 {fill:#1C3FAA;fill-rule:nonzero}
   ]]>
  </style>
 </defs>
 <g id="Layer_x0020_1">
  <metadata id="CorelCorpID_0Corel-Layer"/>
  <g id="_2253916655600">
   <path class="fil0" d="M0 1.3c-0.01,0.73 0.58,1.33 1.3,1.34 0.73,0.01 1.33,-0.58 1.34,-1.3 0.01,-0.73 -0.57,-1.33 -1.3,-1.34 -0.01,-0 -0.01,-0 -0.02,-0 -0.72,0 -1.31,0.58 -1.32,1.3zm2.54 0.02c0,0.67 -0.55,1.22 -1.22,1.22 -0.67,0 -1.22,-0.55 -1.22,-1.22 0,-0.67 0.55,-1.22 1.22,-1.22 0.67,0 1.22,0.55 1.22,1.22z"/>
   <path class="fil0" d="M2.03 1.3l0.32 0 0 -0.01 -0.31 0 -0.04 -0.04c-0.03,-0.32 -0.27,-0.57 -0.58,-0.61l-0 0.01c0.31,0.04 0.54,0.29 0.57,0.6l0 0 0.04 0.04z"/>
   <path class="fil0" d="M0.67 1.12l-0 0 0.04 0.06 0.33 0 0 -0.01 -0.32 0 -0.04 -0.05c0.06,-0.2 0.22,-0.36 0.42,-0.43l-0 -0.01c-0.2,0.07 -0.36,0.23 -0.43,0.44z"/>
   <path class="fil0" d="M0.38 1.32c0,0.52 0.42,0.94 0.94,0.94 0.4,0 0.75,-0.25 0.89,-0.62l0 -0.01 -0.05 0 -0 0c-0.13,0.34 -0.47,0.58 -0.84,0.58 -0.49,0 -0.89,-0.4 -0.89,-0.89 0,-0.49 0.4,-0.89 0.89,-0.89 0.37,0 0.71,0.24 0.84,0.59l0 0 0.05 0 -0 -0.01c-0.13,-0.38 -0.49,-0.63 -0.89,-0.63 -0.52,0 -0.94,0.42 -0.94,0.94zm0.01 0c0,-0.51 0.42,-0.93 0.93,-0.93 0.39,0 0.75,0.25 0.88,0.62l-0.03 0c-0.13,-0.35 -0.47,-0.59 -0.85,-0.59 -0.5,0 -0.91,0.41 -0.91,0.91 0,0.5 0.41,0.91 0.91,0.91 0.37,0 0.71,-0.23 0.84,-0.58l0.03 0c-0.14,0.36 -0.49,0.61 -0.87,0.61 -0.51,0 -0.93,-0.42 -0.93,-0.93z"/>
   <path class="fil0" d="M1.89 1.3l0.07 0 -0 -0.01c-0.01,-0.35 -0.29,-0.62 -0.64,-0.62 -0.26,0 -0.49,0.15 -0.59,0.39l-0 0 0.04 0.06 0.27 -0 0 -0.01 -0.27 0 -0.04 -0.05c0.1,-0.23 0.33,-0.38 0.58,-0.38 0.34,0 0.62,0.27 0.63,0.6l-0.06 0 -0.07 -0.07 0 -0.15 -0.01 0 0 0.15 0.08 0.08z"/>
   <path class="fil0" d="M1.8 1.34l0 0.01 0.15 0c-0.01,0.34 -0.29,0.6 -0.63,0.6 -0.25,0 -0.48,-0.15 -0.58,-0.38l0.04 -0.05 0.27 0 0 -0.01 -0.27 0 -0.04 0.06 0 0c0.1,0.24 0.33,0.39 0.59,0.39 0.35,0 0.63,-0.27 0.64,-0.62l0 -0.01 -0.17 0z"/>
   <path class="fil0" d="M1.32 1.91c-0.21,0 -0.41,-0.11 -0.52,-0.3l0.03 -0.06 0.2 0 0 -0.01 -0.21 0 -0.04 0.07 0 0c0.11,0.19 0.31,0.31 0.53,0.31 0.31,0 0.57,-0.23 0.6,-0.54l-0.01 -0c-0.03,0.3 -0.28,0.53 -0.59,0.53z"/>
   <path class="fil0" d="M0.79 1.02l-0 0 0.04 0.07 0.21 0 0 -0.01 -0.2 0 -0.03 -0.06c0.11,-0.18 0.3,-0.3 0.52,-0.3 0.31,0 0.56,0.23 0.59,0.53l0.01 -0c-0.03,-0.31 -0.29,-0.54 -0.6,-0.54 -0.22,0 -0.42,0.12 -0.53,0.31z"/>
   <polygon class="fil0" points="2.3,1.52 2.33,1.52 2.33,1.51 2.3,1.51 "/>
   <path class="fil0" d="M0.49 1.32c0,0.46 0.37,0.83 0.83,0.83 0.37,0 0.7,-0.25 0.8,-0.61l0.01 -0.01 -0.01 -0.01 -0.02 0.01 -0 0c-0.1,0.35 -0.42,0.6 -0.79,0.6 -0.45,0 -0.82,-0.37 -0.82,-0.82 0,-0.45 0.37,-0.82 0.82,-0.82 0.37,0 0.69,0.25 0.79,0.6l0 0 0.04 0.03 0.18 0 0 -0.01 -0.17 0 -0.04 -0.03c-0.1,-0.36 -0.43,-0.6 -0.8,-0.6 -0.46,0 -0.83,0.37 -0.83,0.83z"/>
   <path class="fil0" d="M0.71 1.46l-0.04 0.06 0 0c0.06,0.2 0.22,0.37 0.43,0.44l0 -0.01c-0.2,-0.07 -0.36,-0.23 -0.42,-0.43l0.04 -0.05 0.32 0 0 -0.01 -0.33 0z"/>
   <path class="fil0" d="M2.03 1.34l-0.04 0.04 -0 0c-0.03,0.31 -0.26,0.56 -0.57,0.6l0 0.01c0.31,-0.04 0.55,-0.3 0.58,-0.61l0.04 -0.04 0.31 -0 0 -0.01 -0.32 0z"/>
   <path class="fil0" d="M0.45 1.32c0,0.48 0.39,0.87 0.87,0.87 0.38,0 0.71,-0.24 0.83,-0.6l0.04 -0.03 0.14 0 0 -0.01 -0.14 0 -0.04 0.03 -0 0c-0.11,0.36 -0.44,0.6 -0.82,0.6 -0.47,0 -0.86,-0.38 -0.86,-0.86 0,-0.47 0.38,-0.86 0.86,-0.86 0.37,0 0.7,0.24 0.82,0.6l0 0 0.04 0.03 0.14 -0 0 -0.01 -0.14 0 -0.04 -0.03c-0.12,-0.36 -0.45,-0.6 -0.83,-0.6 -0.48,0 -0.87,0.39 -0.87,0.87z"/>
   <path class="fil0" d="M1.1 0.64c-0.24,0.08 -0.42,0.28 -0.48,0.52l-0 0 0.04 0.06 0.38 0 0 -0.01 -0.37 0 -0.04 -0.05c0.05,-0.24 0.23,-0.43 0.46,-0.51l-0 0.17 0.01 0 0 -0.18 -0.01 0z"/>
   <polygon class="fil0" points="1.26,0.54 1.19,0.54 1.19,0.82 1.2,0.82 1.2,0.55 1.26,0.55 "/>
   <path class="fil0" d="M1.17 0.82l0 -0.27 -0.01 0c-0.34,0.07 -0.61,0.36 -0.63,0.71l-0 0 0.04 0.05 0.47 0 0 -0.01 -0.46 0 -0.04 -0.04c0.03,-0.34 0.28,-0.63 0.62,-0.7l0 0.26 0.01 0z"/>
   <path class="fil0" d="M0.62 1.26l0.42 0 0 -0.01 -0.42 0 -0.04 -0.04c0.04,-0.29 0.26,-0.53 0.54,-0.61l0 0.21 0.01 0 0 -0.23 -0.01 0c-0.29,0.08 -0.51,0.32 -0.56,0.62l-0 0 0.04 0.05z"/>
   <polygon class="fil0" points="1.33,0.53 1.31,0.53 1.31,0.82 1.33,0.82 "/>
   <path class="fil0" d="M2.35 1.26l0 -0.01 -0.28 -0 -0.04 -0.03c-0.05,-0.32 -0.3,-0.57 -0.61,-0.61l-0.01 -0 0 0.21 0.01 0 0 -0.19c0.31,0.04 0.55,0.29 0.6,0.6l0 0 0.04 0.04 0.28 0z"/>
   <path class="fil0" d="M2.34 1.22l0 -0.01 -0.24 0 -0.04 -0.03c-0.06,-0.33 -0.34,-0.58 -0.68,-0.61l-0.01 -0 0 0.25 0.01 0 0 -0.24c0.33,0.03 0.6,0.28 0.66,0.6l0 0 0.04 0.04 0.25 -0z"/>
   <path class="fil0" d="M2.34 1.18l0 -0.01 -0.21 -0 -0.04 -0.03c-0.08,-0.34 -0.39,-0.59 -0.74,-0.61l-0.01 -0 0 0.29 0.01 0 -0 -0.28c0.35,0.02 0.64,0.26 0.72,0.6l0 0 0.04 0.03 0.21 0z"/>
   <path class="fil0" d="M2.13 1.39l0 -0.01 -0.06 0 -0.04 0.04 -0 0c-0.04,0.31 -0.29,0.56 -0.6,0.6l0 -0.2 -0.01 0 0 0.21 0.01 -0c0.32,-0.04 0.57,-0.29 0.61,-0.61l0.04 -0.03 0.06 0z"/>
   <polygon class="fil0" points="2.35,1.39 2.35,1.38 2.3,1.38 2.3,1.39 "/>
   <polygon class="fil0" points="1.31,2.11 1.33,2.11 1.33,1.82 1.31,1.82 "/>
   <polygon class="fil0" points="2.3,1.47 2.34,1.47 2.34,1.46 2.3,1.46 "/>
   <path class="fil0" d="M2.08 1.5l-0 0c-0.08,0.34 -0.38,0.59 -0.72,0.6l0 -0.28 -0.01 0 0 0.29 0.01 -0c0.35,-0.01 0.66,-0.26 0.74,-0.61l0.04 -0.03 -0.01 -0.01 -0.04 0.03z"/>
   <polygon class="fil0" points="2.34,1.43 2.34,1.42 2.3,1.42 2.3,1.43 "/>
   <path class="fil0" d="M2.13 1.43l0 -0.01 -0.03 0 -0.04 0.04 -0 0c-0.06,0.32 -0.33,0.57 -0.66,0.6l0 -0.24 -0.01 0 0 0.25 0.01 -0c0.34,-0.03 0.61,-0.28 0.68,-0.61l0.04 -0.03 0.03 0z"/>
   <polygon class="fil0" points="1.19,2.1 1.26,2.1 1.26,2.09 1.2,2.09 1.2,1.82 1.19,1.82 "/>
   <path class="fil0" d="M0.66 1.42l-0.04 0.06 0 0c0.06,0.25 0.24,0.45 0.48,0.52l0.01 0 0 -0.18 -0.01 0 0 0.17c-0.23,-0.08 -0.41,-0.27 -0.46,-0.51l0.04 -0.05 0.37 0 0 -0.01 -0.38 0z"/>
   <path class="fil0" d="M1.04 1.38l-0.42 0 -0.04 0.05 0 0c0.04,0.3 0.26,0.54 0.56,0.62l0.01 0 0 -0.23 -0.01 0 0 0.22c-0.29,-0.08 -0.5,-0.31 -0.54,-0.61l0.04 -0.04 0.42 0 0 -0.01z"/>
   <path class="fil0" d="M0.58 1.34l-0.04 0.05 0 0c0.03,0.35 0.29,0.64 0.63,0.71l0.01 0 0 -0.28 -0.01 0 0 0.26c-0.34,-0.07 -0.59,-0.35 -0.62,-0.7l0.04 -0.04 0.46 -0 0 -0.01 -0.47 0z"/>
   <polygon class="fil0" points="1.2,0.57 1.26,0.57 1.26,0.56 1.2,0.56 "/>
   <polygon class="fil0" points="1.2,0.6 1.26,0.6 1.26,0.59 1.2,0.59 "/>
   <polygon class="fil0" points="1.26,0.63 1.26,0.62 1.2,0.62 1.2,0.63 "/>
   <polygon class="fil0" points="1.26,2.08 1.26,2.07 1.2,2.07 1.2,2.08 "/>
   <polygon class="fil0" points="1.26,2.04 1.26,2.03 1.2,2.03 1.2,2.04 "/>
   <polygon class="fil0" points="1.26,2.02 1.26,2.01 1.2,2.01 1.2,2.02 "/>
   <path class="fil0" d="M1.23 0.57l0.06 0c0.01,0 0.01,-0 0.01,-0.01l0 -0.02c0,-0.01 -0,-0.01 -0.01,-0.01l-0.06 0c-0.01,0 -0.01,0 -0.01,0.01l0 0.02c0,0.01 0,0.01 0.01,0.01z"/>
   <path class="fil0" d="M2.17 1.31l0 0.02c0,0.01 0.01,0.01 0.01,0.01l0.09 0c0.01,0 0.01,-0.01 0.01,-0.01l0 -0.02c0,-0.01 -0.01,-0.01 -0.01,-0.01l-0.09 0c-0.01,0 -0.01,0.01 -0.01,0.01z"/>
   <path class="fil0" d="M2.27 1.21l-0.09 0c-0.01,0 -0.01,0.01 -0.01,0.01l0 0.02c0,0.01 0.01,0.01 0.01,0.01l0.09 0c0.01,0 0.01,-0.01 0.01,-0.01l0 -0.02c0,-0.01 -0.01,-0.01 -0.01,-0.01z"/>
   <path class="fil0" d="M0.81 1.26l0.09 0c0.01,0 0.01,-0.01 0.01,-0.01l0 -0.02c0,-0.01 -0.01,-0.01 -0.01,-0.01l-0.09 0c-0.01,0 -0.01,0.01 -0.01,0.01l0 0.02c0,0.01 0.01,0.01 0.01,0.01z"/>
   <path class="fil0" d="M0.81 1.34l0.09 0c0.01,0 0.01,-0.01 0.01,-0.01l0 -0.02c0,-0.01 -0.01,-0.01 -0.01,-0.01l-0.09 0c-0.01,0 -0.01,0.01 -0.01,0.01l0 0.02c0,0.01 0.01,0.01 0.01,0.01z"/>
   <path class="fil0" d="M1.77 1.33l0 0.02c0,0.01 0.01,0.01 0.01,0.01l0.08 0c0.01,0 0.01,-0.01 0.01,-0.01l0 -0.02c0,-0.01 -0.01,-0.01 -0.01,-0.01l-0.08 0c-0.01,0 -0.01,0.01 -0.01,0.01z"/>
   <path class="fil0" d="M1.82 1.09l-0.02 0c-0.01,0 -0.01,0.01 -0.01,0.01l0 0.09c0,0.01 0.01,0.01 0.01,0.01l0.02 0c0.01,0 0.01,-0.01 0.01,-0.01l0 -0.09c0,-0.01 -0.01,-0.01 -0.01,-0.01z"/>
   <path class="fil0" d="M0.9 1.38l-0.09 0c-0.01,0 -0.01,0.01 -0.01,0.01l0 0.02c0,0.01 0.01,0.01 0.01,0.01l0.09 0c0.01,0 0.01,-0.01 0.01,-0.01l0 -0.02c0,-0.01 -0.01,-0.01 -0.01,-0.01z"/>
   <path class="fil0" d="M1.3 0.62l0 -0.02c0,-0.01 -0,-0.01 -0.01,-0.01l-0.06 0c-0.01,0 -0.01,0 -0.01,0.01l0 0.02c0,0.01 0,0.01 0.01,0.01l0.06 0c0.01,0 0.01,-0 0.01,-0.01z"/>
   <path class="fil0" d="M1.23 2.11l0.06 0c0.01,0 0.01,-0 0.01,-0.01l0 -0.02c0,-0.01 -0,-0.01 -0.01,-0.01l-0.06 0c-0.01,0 -0.01,0 -0.01,0.01l0 0.02c0,0.01 0,0.01 0.01,0.01z"/>
   <path class="fil0" d="M1.23 2.05l0.06 0c0.01,0 0.01,-0 0.01,-0.01l0 -0.02c0,-0.01 -0,-0.01 -0.01,-0.01l-0.06 0c-0.01,0 -0.01,0 -0.01,0.01l0 0.02c0,0.01 0,0.01 0.01,0.01z"/>
   <path class="fil0" d="M2.12 1.54l0.18 0 0 -0.17 -0.18 0 0 0.17zm0.01 -0.16l0.16 0 0 0.15 -0.16 0 0 -0.15z"/>
   <polygon class="fil0" points="2.12,1.41 2.13,1.42 2.18,1.37 2.17,1.36 "/>
   <polygon class="fil0" points="2.25,1.53 2.26,1.53 2.3,1.49 2.29,1.48 "/>
   <polygon class="fil0" points="2.2,1.53 2.21,1.53 2.3,1.44 2.29,1.43 "/>
   <polygon class="fil0" points="2.35,1.39 2.34,1.39 2.34,1.39 "/>
   <polygon class="fil0" points="2.15,1.53 2.16,1.53 2.3,1.39 2.29,1.38 "/>
   <polygon class="fil0" points="2.12,1.51 2.13,1.51 2.27,1.37 2.27,1.36 "/>
   <polygon class="fil0" points="2.12,1.46 2.13,1.47 2.22,1.37 2.22,1.36 "/>
   <g>
    <g>
     <g>
      <polygon class="fil0" points="1.3,1.13 1.31,1.13 1.31,1.2 1.45,1.2 1.45,1.21 1.3,1.21 "/>
      <path class="fil0" d="M1.34 1.19l0.06 0c0.01,0 0.01,0 0.01,0.01l0 0.01c0,0.01 -0,0.01 -0.01,0.01l-0.06 0c-0.01,0 -0.01,-0 -0.01,-0.01l0 -0.01c0,-0.01 0,-0.01 0.01,-0.01z"/>
     </g>
     <g>
      <polygon class="fil0" points="1.24,1.13 1.25,1.13 1.25,1.21 1.28,1.25 1.45,1.25 1.45,1.26 1.28,1.26 1.24,1.22 "/>
      <path class="fil0" d="M1.32 1.24l0.06 0c0.01,0 0.01,0 0.01,0.01l0 0.01c0,0.01 -0,0.01 -0.01,0.01l-0.06 0c-0.01,0 -0.01,-0 -0.01,-0.01l0 -0.01c0,-0.01 0,-0.01 0.01,-0.01z"/>
     </g>
     <g>
      <polygon class="fil0" points="1.45,1.3 1.24,1.3 1.19,1.26 1.19,1.13 1.2,1.13 1.2,1.25 1.24,1.29 1.45,1.29 "/>
      <path class="fil0" d="M1.35 1.31l-0.06 0c-0.01,0 -0.01,-0 -0.01,-0.01l0 -0.01c0,-0.01 0,-0.01 0.01,-0.01l0.06 0c0.01,0 0.01,0 0.01,0.01l0 0.01c0,0.01 -0,0.01 -0.01,0.01z"/>
     </g>
    </g>
    <g>
     <g>
      <polygon class="fil0" points="1.3,1.51 1.31,1.51 1.31,1.44 1.45,1.44 1.45,1.43 1.3,1.43 "/>
      <path class="fil0" d="M1.34 1.45l0.06 0c0.01,0 0.01,-0 0.01,-0.01l0 -0.01c0,-0.01 -0,-0.01 -0.01,-0.01l-0.06 0c-0.01,0 -0.01,0 -0.01,0.01l0 0.01c0,0.01 0,0.01 0.01,0.01z"/>
     </g>
     <g>
      <polygon class="fil0" points="1.24,1.51 1.25,1.51 1.25,1.43 1.28,1.39 1.45,1.39 1.45,1.38 1.28,1.38 1.24,1.42 "/>
      <path class="fil0" d="M1.32 1.4l0.06 0c0.01,0 0.01,-0 0.01,-0.01l0 -0.01c0,-0.01 -0,-0.01 -0.01,-0.01l-0.06 0c-0.01,0 -0.01,0 -0.01,0.01l0 0.01c0,0.01 0,0.01 0.01,0.01z"/>
     </g>
     <g>
      <polygon class="fil0" points="1.45,1.34 1.24,1.34 1.19,1.38 1.19,1.51 1.2,1.51 1.2,1.39 1.24,1.35 1.45,1.35 "/>
      <path class="fil0" d="M1.35 1.33l-0.06 0c-0.01,0 -0.01,0 -0.01,0.01l0 0.01c0,0.01 0,0.01 0.01,0.01l0.06 0c0.01,0 0.01,-0 0.01,-0.01l0 -0.01c0,-0.01 -0,-0.01 -0.01,-0.01z"/>
     </g>
    </g>
   </g>
   <path class="fil0" d="M0.29 1.32c0,0.57 0.46,1.03 1.03,1.03 0.57,0 1.03,-0.46 1.03,-1.03 0,-0.57 -0.46,-1.03 -1.03,-1.03 -0.57,0 -1.03,0.46 -1.03,1.03zm0.01 0c0,-0.56 0.46,-1.02 1.02,-1.02 0.56,0 1.02,0.46 1.02,1.02 0,0.56 -0.46,1.02 -1.02,1.02 -0.56,0 -1.02,-0.46 -1.02,-1.02z"/>
   <path class="fil0" d="M1.32 0.27c-0.04,0 -0.08,0 -0.11,0.01 -0.01,0 -0.03,0.02 -0.02,0.03 0,0.01 0.01,0.02 0.03,0.02 0,0 0,0 0,-0 0.04,-0 0.07,-0.01 0.11,-0.01 0.02,0 0.03,-0.01 0.03,-0.03 -0,-0.02 -0.01,-0.03 -0.03,-0.03 -0,0 -0,0 -0,0zm0.08 0.03c-0,0.01 0.01,0.03 0.02,0.03 0.04,0 0.07,0.01 0.11,0.02 0,0 0,0 0,0 0.01,0 0.03,-0.01 0.03,-0.02 0,-0.01 -0.01,-0.03 -0.02,-0.03 -0.04,-0.01 -0.07,-0.01 -0.11,-0.02 -0,-0 -0,-0 -0,-0 -0.01,0 -0.03,0.01 -0.03,0.02zm-0.31 -0.01c-0.04,0.01 -0.07,0.02 -0.11,0.03 -0.01,0 -0.02,0.02 -0.02,0.03 0,0.01 0.01,0.02 0.02,0.02 0,0 0.01,-0 0.01,-0 0.03,-0.01 0.07,-0.02 0.1,-0.03 0.01,-0 0.02,-0.02 0.02,-0.03 -0,-0.01 -0.01,-0.02 -0.03,-0.02 -0,0 -0,0 -0.01,0zm0.53 0.05c-0,0.01 0,0.03 0.02,0.03 0.03,0.01 0.07,0.02 0.1,0.04 0,0 0.01,0 0.01,0 0.01,0 0.02,-0.01 0.03,-0.02 0.01,-0.01 0,-0.03 -0.01,-0.04 -0.03,-0.02 -0.07,-0.03 -0.11,-0.04 -0,-0 -0.01,-0 -0.01,-0 -0.01,0 -0.02,0.01 -0.03,0.02zm-0.74 0.03c-0.03,0.02 -0.07,0.03 -0.1,0.05 -0.01,0.01 -0.02,0.02 -0.01,0.04 0,0.01 0.01,0.01 0.02,0.01 0.01,0 0.01,-0 0.02,-0 0.03,-0.02 0.06,-0.04 0.1,-0.05 0.01,-0.01 0.02,-0.02 0.01,-0.04 -0,-0.01 -0.01,-0.02 -0.02,-0.02 -0,0 -0.01,0 -0.01,0zm0.94 0.06c-0.01,0.01 -0,0.03 0.01,0.04 0.03,0.02 0.06,0.04 0.09,0.06 0,0 0.01,0.01 0.01,0.01 0.01,0 0.02,-0 0.02,-0.01 0.01,-0.01 0.01,-0.03 -0.01,-0.04 -0.03,-0.02 -0.06,-0.04 -0.09,-0.06 -0,-0 -0.01,-0 -0.01,-0 -0.01,0 -0.02,0 -0.02,0.01zm-1.14 0.06c-0.03,0.02 -0.06,0.05 -0.09,0.07 -0.01,0.01 -0.01,0.03 -0,0.04 0,0.01 0.01,0.01 0.02,0.01 0.01,0 0.01,-0 0.02,-0.01 0.03,-0.02 0.05,-0.05 0.08,-0.07 0.01,-0.01 0.01,-0.03 0.01,-0.04 -0.01,-0.01 -0.01,-0.01 -0.02,-0.01 -0.01,0 -0.01,0 -0.02,0.01zm1.32 0.07c-0.01,0.01 -0.01,0.03 0,0.04 0.03,0.02 0.05,0.05 0.07,0.08 0.01,0.01 0.01,0.01 0.02,0.01 0.01,0 0.01,-0 0.02,-0.01 0.01,-0.01 0.01,-0.03 0,-0.04 -0.02,-0.03 -0.05,-0.06 -0.08,-0.08 -0.01,-0 -0.01,-0.01 -0.02,-0.01 -0.01,0 -0.01,0 -0.02,0.01zm-1.48 0.08c-0.02,0.03 -0.05,0.06 -0.07,0.09 -0.01,0.01 -0.01,0.03 0.01,0.04 0,0 0.01,0 0.01,0 0.01,0 0.02,-0 0.02,-0.01 0.02,-0.03 0.04,-0.06 0.07,-0.09 0.01,-0.01 0.01,-0.03 -0,-0.04 -0.01,-0 -0.01,-0.01 -0.02,-0.01 -0.01,0 -0.02,0 -0.02,0.01zm1.63 0.08c-0.01,0.01 -0.02,0.03 -0.01,0.04 0.02,0.03 0.04,0.06 0.06,0.09 0,0.01 0.01,0.01 0.02,0.01 0,0 0.01,-0 0.01,-0 0.01,-0.01 0.02,-0.02 0.01,-0.04 -0.02,-0.03 -0.04,-0.07 -0.06,-0.1 -0.01,-0.01 -0.01,-0.01 -0.02,-0.01 -0.01,0 -0.01,0 -0.02,0zm-1.76 0.11c-0.02,0.03 -0.03,0.07 -0.05,0.1 -0.01,0.01 0,0.03 0.02,0.04 0,0 0.01,0 0.01,0 0.01,0 0.02,-0.01 0.03,-0.02 0.01,-0.03 0.03,-0.07 0.05,-0.1 0.01,-0.01 0,-0.03 -0.01,-0.04 -0,-0 -0.01,-0 -0.01,-0 -0.01,0 -0.02,0.01 -0.02,0.01zm1.87 0.08c-0.01,0.01 -0.02,0.02 -0.02,0.04 0.01,0.03 0.03,0.07 0.03,0.1 0,0.01 0.01,0.02 0.02,0.02 0,0 0.01,-0 0.01,-0 0.01,-0 0.02,-0.02 0.02,-0.03 -0.01,-0.04 -0.02,-0.07 -0.04,-0.11 -0,-0.01 -0.01,-0.02 -0.03,-0.02 -0,0 -0.01,0 -0.01,0zm-1.95 0.13c-0.01,0.04 -0.02,0.07 -0.02,0.11 -0,0.01 0.01,0.03 0.02,0.03 0,0 0,0 0,0 0.01,0 0.03,-0.01 0.03,-0.02 0.01,-0.04 0.01,-0.07 0.02,-0.11 0,-0.01 -0,-0.03 -0.02,-0.03 -0,-0 -0,-0 -0.01,-0 -0.01,0 -0.02,0.01 -0.03,0.02zm-0.04 0.22c-0,0.04 -0,0.08 0,0.11 0,0.01 0.01,0.03 0.03,0.03 0,0 0,0 0,0 0.02,-0 0.03,-0.01 0.03,-0.03 -0,-0.04 -0,-0.07 0,-0.11 0,-0.02 -0.01,-0.03 -0.03,-0.03 -0,-0 -0,-0 -0,-0 -0.01,0 -0.03,0.01 -0.03,0.03zm0.03 0.2c-0.01,0 -0.02,0.02 -0.02,0.03 0.01,0.04 0.01,0.07 0.02,0.11 0,0.01 0.01,0.02 0.02,0.02 0,0 0.01,-0 0.01,-0 0.01,-0 0.02,-0.02 0.02,-0.03 -0.01,-0.03 -0.02,-0.07 -0.02,-0.11 -0,-0.01 -0.01,-0.02 -0.03,-0.02 -0,0 -0,0 -0,0zm1.97 0.13c-0.01,0.03 -0.02,0.07 -0.03,0.1 -0.01,0.01 0,0.03 0.02,0.04 0,0 0.01,0 0.01,0 0.01,0 0.02,-0.01 0.03,-0.02 0.01,-0.04 0.03,-0.07 0.04,-0.11 0,-0.01 -0,-0.03 -0.02,-0.03 -0,-0 -0,-0 -0.01,-0 -0.01,0 -0.02,0.01 -0.03,0.02zm-1.92 0.09c-0.01,0.01 -0.02,0.02 -0.02,0.04 0.01,0.04 0.03,0.07 0.05,0.1 0,0.01 0.01,0.01 0.02,0.01 0,0 0.01,-0 0.01,-0 0.01,-0.01 0.02,-0.02 0.01,-0.04 -0.02,-0.03 -0.03,-0.06 -0.05,-0.1 -0,-0.01 -0.01,-0.02 -0.03,-0.02 -0,0 -0.01,0 -0.01,0zm1.84 0.11c-0.02,0.03 -0.04,0.06 -0.06,0.09 -0.01,0.01 -0.01,0.03 0.01,0.04 0,0 0.01,0 0.01,0 0.01,0 0.02,-0 0.02,-0.01 0.02,-0.03 0.04,-0.06 0.06,-0.1 0.01,-0.01 0,-0.03 -0.01,-0.04 -0,-0 -0.01,-0 -0.01,-0 -0.01,0 -0.02,0.01 -0.02,0.01zm-1.74 0.08c-0.01,0.01 -0.02,0.03 -0.01,0.04 0.02,0.03 0.04,0.06 0.07,0.09 0.01,0.01 0.01,0.01 0.02,0.01 0.01,0 0.01,-0 0.02,-0.01 0.01,-0.01 0.01,-0.03 0,-0.04 -0.02,-0.03 -0.05,-0.06 -0.07,-0.09 -0.01,-0.01 -0.01,-0.01 -0.02,-0.01 -0.01,0 -0.01,0 -0.02,0zm1.62 0.09c-0.02,0.03 -0.05,0.05 -0.07,0.08 -0.01,0.01 -0.01,0.03 -0,0.04 0.01,0.01 0.01,0.01 0.02,0.01 0.01,0 0.01,-0 0.02,-0.01 0.03,-0.03 0.05,-0.05 0.08,-0.08 0.01,-0.01 0.01,-0.03 -0,-0.04 -0.01,-0 -0.01,-0.01 -0.02,-0.01 -0.01,0 -0.02,0 -0.02,0.01zm-1.48 0.08c-0.01,0.01 -0.01,0.03 0,0.04 0.03,0.03 0.06,0.05 0.09,0.07 0,0 0.01,0.01 0.01,0.01 0.01,0 0.02,-0 0.02,-0.01 0.01,-0.01 0.01,-0.03 -0.01,-0.04 -0.03,-0.02 -0.06,-0.05 -0.08,-0.07 -0.01,-0.01 -0.01,-0.01 -0.02,-0.01 -0.01,0 -0.01,0 -0.02,0.01zm1.32 0.07c-0.03,0.02 -0.06,0.04 -0.09,0.06 -0.01,0.01 -0.02,0.02 -0.01,0.04 0,0.01 0.01,0.01 0.02,0.01 0.01,0 0.01,-0 0.02,-0 0.03,-0.02 0.06,-0.04 0.09,-0.06 0.01,-0.01 0.01,-0.03 0.01,-0.04 -0.01,-0.01 -0.01,-0.01 -0.02,-0.01 -0.01,0 -0.01,0 -0.02,0.01zm-1.15 0.07c-0.01,0.01 -0,0.03 0.01,0.04 0.03,0.02 0.07,0.04 0.1,0.05 0,0 0.01,0 0.01,0 0.01,0 0.02,-0.01 0.03,-0.02 0.01,-0.01 0,-0.03 -0.01,-0.04 -0.03,-0.02 -0.06,-0.03 -0.1,-0.05 -0,-0 -0.01,-0 -0.01,-0 -0.01,0 -0.02,0 -0.02,0.01zm0.97 0.04c-0.03,0.02 -0.07,0.03 -0.1,0.04 -0.01,0 -0.02,0.02 -0.02,0.03 0,0.01 0.01,0.02 0.02,0.02 0,0 0.01,-0 0.01,-0 0.04,-0.01 0.07,-0.03 0.11,-0.04 0.01,-0.01 0.02,-0.02 0.01,-0.04 -0,-0.01 -0.01,-0.02 -0.02,-0.02 -0,0 -0.01,0 -0.01,0zm-0.77 0.06c-0,0.01 0,0.03 0.02,0.03 0.04,0.01 0.07,0.02 0.11,0.03 0,0 0,0 0,0 0.01,0 0.03,-0.01 0.03,-0.02 0,-0.01 -0.01,-0.03 -0.02,-0.03 -0.04,-0.01 -0.07,-0.02 -0.1,-0.03 -0,-0 -0.01,-0 -0.01,-0 -0.01,0 -0.02,0.01 -0.03,0.02zm0.57 0.01c-0.03,0.01 -0.07,0.01 -0.11,0.02 -0.01,0 -0.03,0.02 -0.02,0.03 0,0.01 0.01,0.02 0.03,0.02 0,0 0,0 0,-0 0.04,-0 0.08,-0.01 0.11,-0.02 0.01,-0 0.02,-0.02 0.02,-0.03 -0,-0.01 -0.01,-0.02 -0.03,-0.02 -0,0 -0,0 -0.01,0zm-0.35 0.04c-0,0.01 0.01,0.03 0.02,0.03 0.02,0 0.04,0 0.06,0 0.02,0 0.04,0 0.06,0 0.02,0 0.03,-0.01 0.03,-0.03 0,-0.02 -0.01,-0.03 -0.03,-0.03 -0.04,-0 -0.07,-0 -0.11,-0.01 -0,-0 -0,-0 -0,-0 -0.01,0 -0.03,0.01 -0.03,0.02z"/>
   <g>
    <path class="fil0 str0" d="M1.26 2.09c-0.38,-0.03 -0.67,-0.33 -0.71,-0.71l0.17 0c0.03,0.28 0.25,0.5 0.53,0.53l0 0.17zm-0.71 -0.83c0.03,-0.38 0.33,-0.67 0.71,-0.71l0 0.17c-0.28,0.03 -0.5,0.25 -0.53,0.53l-0.17 0zm0.83 -0.71c0.38,0.03 0.67,0.33 0.71,0.71l-0.17 0c-0.03,-0.28 -0.25,-0.5 -0.53,-0.53l0 -0.17zm-0.05 1.22c-0.08,0 -0.15,-0.02 -0.22,-0.06 -0.06,-0.04 -0.12,-0.09 -0.15,-0.16 -0.04,-0.07 -0.06,-0.14 -0.06,-0.23 0,-0.09 0.02,-0.16 0.06,-0.23 0.04,-0.07 0.09,-0.12 0.15,-0.16 0.06,-0.04 0.14,-0.06 0.22,-0.06 0.07,0 0.13,0.01 0.19,0.04 0.06,0.03 0.1,0.07 0.14,0.12l-0.14 0.14c-0.05,-0.07 -0.11,-0.1 -0.18,-0.1 -0.04,0 -0.08,0.01 -0.11,0.03 -0.03,0.02 -0.06,0.05 -0.08,0.09 -0.02,0.04 -0.03,0.08 -0.03,0.13 0,0.05 0.01,0.09 0.03,0.13 0.02,0.04 0.04,0.07 0.08,0.09 0.03,0.02 0.07,0.03 0.11,0.03 0.07,0 0.13,-0.03 0.18,-0.1l0.14 0.14c-0.04,0.05 -0.08,0.09 -0.14,0.12 -0.06,0.03 -0.12,0.04 -0.19,0.04zm0.75 -0.38c-0.03,0.38 -0.33,0.67 -0.71,0.71l0 -0.17c0.28,-0.03 0.5,-0.25 0.53,-0.53l0.17 0z"/>
    <path class="fil1" d="M1.39 0.53c0.19,0.02 0.37,0.1 0.5,0.23 0.13,0.13 0.21,0.3 0.23,0.5 0,0.01 -0.01,0.02 -0.02,0.03 -0,0 -0,0 -0,0l0 0 -0.17 0c-0.01,0 -0.02,-0.01 -0.02,-0.02 -0.01,-0.13 -0.08,-0.25 -0.17,-0.34 -0.09,-0.09 -0.21,-0.15 -0.35,-0.17 -0.01,-0 -0.02,-0.01 -0.02,-0.02l-0 0 0 -0.17c0,-0.01 0.01,-0.02 0.02,-0.02 0,0 0,0 0,0zm0.46 0.26c-0.12,-0.12 -0.27,-0.19 -0.44,-0.21l0 0.12c0.14,0.02 0.26,0.08 0.35,0.18 0.09,0.09 0.16,0.22 0.18,0.35l0.12 0c-0.02,-0.17 -0.1,-0.32 -0.21,-0.44zm-0.67 0.65c0.01,0.02 0.02,0.03 0.03,0.04 0.01,0.01 0.02,0.02 0.04,0.03 0.01,0.01 0.03,0.02 0.05,0.02 0.02,0 0.03,0.01 0.05,0.01 0.03,0 0.06,-0.01 0.09,-0.02 0.03,-0.02 0.05,-0.04 0.08,-0.07 0.01,-0.01 0.02,-0.01 0.03,-0 0,0 0,0 0,0l0.14 0.14c0.01,0.01 0.01,0.02 0,0.03l0 0c-0.02,0.03 -0.04,0.05 -0.07,0.07 -0.03,0.02 -0.05,0.04 -0.08,0.05 -0.03,0.01 -0.06,0.03 -0.1,0.03 -0.03,0.01 -0.07,0.01 -0.11,0.01 -0.04,0 -0.08,-0.01 -0.12,-0.02 -0.04,-0.01 -0.08,-0.03 -0.11,-0.05 -0.03,-0.02 -0.06,-0.04 -0.09,-0.07 -0.03,-0.03 -0.05,-0.06 -0.07,-0.1 -0.02,-0.04 -0.03,-0.07 -0.04,-0.11 -0.01,-0.04 -0.01,-0.08 -0.01,-0.13 0,-0.04 0,-0.09 0.01,-0.13 0.01,-0.04 0.02,-0.08 0.04,-0.11 0.02,-0.04 0.04,-0.07 0.07,-0.1 0.03,-0.03 0.06,-0.05 0.09,-0.07 0.07,-0.04 0.15,-0.06 0.23,-0.06 0.04,0 0.07,0 0.11,0.01 0.03,0.01 0.07,0.02 0.1,0.03 0.03,0.01 0.06,0.03 0.08,0.05 0.03,0.02 0.05,0.05 0.07,0.07 0.01,0.01 0.01,0.02 -0,0.03l-0.14 0.14c-0.01,0.01 -0.02,0.01 -0.03,0 -0,-0 -0,-0 -0,-0l-0 0c-0.02,-0.03 -0.05,-0.05 -0.08,-0.07 -0.03,-0.01 -0.06,-0.02 -0.09,-0.02 -0.04,0 -0.07,0.01 -0.1,0.03 -0.01,0.01 -0.03,0.02 -0.04,0.03 -0.01,0.01 -0.02,0.03 -0.03,0.04 -0.01,0.02 -0.01,0.04 -0.02,0.05 -0,0.02 -0.01,0.04 -0.01,0.06 0,0.02 0,0.04 0.01,0.06 0,0.02 0.01,0.04 0.02,0.05zm-0.01 0.08c-0.01,-0.02 -0.03,-0.03 -0.04,-0.06 -0.01,-0.02 -0.02,-0.04 -0.02,-0.07 -0,-0.02 -0.01,-0.05 -0.01,-0.07 0,-0.03 0,-0.05 0.01,-0.07 0,-0.02 0.01,-0.05 0.02,-0.07 0.01,-0.02 0.02,-0.04 0.04,-0.06 0.01,-0.02 0.03,-0.03 0.05,-0.04 0.04,-0.02 0.08,-0.03 0.12,-0.03 0.04,0 0.08,0.01 0.11,0.03 0.03,0.01 0.05,0.03 0.07,0.06l0.11 -0.11c-0.01,-0.02 -0.03,-0.03 -0.05,-0.05 -0.02,-0.02 -0.05,-0.03 -0.07,-0.05 -0.03,-0.01 -0.05,-0.02 -0.08,-0.03 -0.03,-0.01 -0.06,-0.01 -0.1,-0.01 -0.08,0 -0.15,0.02 -0.21,0.05 -0.03,0.02 -0.06,0.04 -0.08,0.06 -0.02,0.02 -0.04,0.05 -0.06,0.09 -0.02,0.03 -0.03,0.07 -0.04,0.1 -0.01,0.04 -0.01,0.08 -0.01,0.12 0,0.04 0,0.08 0.01,0.12 0.01,0.04 0.02,0.07 0.04,0.1 0.02,0.03 0.04,0.06 0.06,0.09 0.02,0.02 0.05,0.05 0.08,0.06 0.03,0.02 0.06,0.03 0.1,0.04 0.03,0.01 0.07,0.01 0.11,0.01 0.03,0 0.07,-0 0.1,-0.01 0.03,-0.01 0.06,-0.02 0.08,-0.03 0.03,-0.01 0.05,-0.03 0.07,-0.05 0.02,-0.01 0.03,-0.03 0.05,-0.05l-0.11 -0.11c-0.02,0.03 -0.05,0.05 -0.07,0.06 -0.03,0.02 -0.07,0.03 -0.11,0.03 -0.02,0 -0.04,-0 -0.07,-0.01 -0.02,-0.01 -0.04,-0.01 -0.06,-0.03 -0.02,-0.01 -0.03,-0.03 -0.05,-0.04zm-0.62 -0.15l0.17 0c0.01,0 0.02,0.01 0.02,0.02 0.01,0.13 0.08,0.25 0.17,0.34 0.09,0.09 0.21,0.15 0.35,0.17 0.01,0 0.02,0.01 0.02,0.02l0 0 0 0.17c0,0.01 -0.01,0.02 -0.02,0.02 -0,0 -0,-0 -0,-0 -0.19,-0.02 -0.37,-0.1 -0.5,-0.23 -0.13,-0.13 -0.21,-0.3 -0.23,-0.5 -0,-0.01 0.01,-0.02 0.02,-0.03 0,-0 0,-0 0,-0l0 -0zm0.15 0.05l-0.12 0c0.02,0.17 0.1,0.32 0.21,0.44 0.12,0.12 0.27,0.19 0.44,0.21l0 -0.12c-0.14,-0.02 -0.26,-0.08 -0.35,-0.18 -0.09,-0.09 -0.16,-0.22 -0.18,-0.35zm0.68 0.48c0.13,-0.01 0.25,-0.08 0.34,-0.17 0.09,-0.09 0.15,-0.21 0.17,-0.35 0,-0.01 0.01,-0.02 0.02,-0.02l0 -0 0.17 0c0.01,0 0.02,0.01 0.02,0.02 0,0 -0,0 -0,0 -0.02,0.19 -0.1,0.37 -0.23,0.5 -0.13,0.13 -0.3,0.21 -0.5,0.23 -0.01,0 -0.02,-0.01 -0.03,-0.02 -0,-0 -0,-0 -0,-0l-0 0 0 -0.17c0,-0.01 0.01,-0.02 0.02,-0.02zm0.38 -0.13c-0.09,0.09 -0.22,0.16 -0.35,0.18l0 0.12c0.17,-0.02 0.32,-0.1 0.44,-0.21 0.12,-0.12 0.19,-0.27 0.21,-0.44l-0.12 0c-0.02,0.14 -0.08,0.26 -0.18,0.35zm-0.48 -1.21l0 0.17c0,0.01 -0.01,0.02 -0.02,0.02 -0.13,0.01 -0.25,0.08 -0.34,0.17 -0.09,0.09 -0.15,0.21 -0.17,0.35 -0,0.01 -0.01,0.02 -0.02,0.02l0 0 -0.17 0c-0.01,0 -0.02,-0.01 -0.02,-0.02 0,-0 0,-0 0,-0 0.02,-0.19 0.1,-0.37 0.23,-0.5 0.13,-0.13 0.3,-0.21 0.5,-0.23 0.01,-0 0.02,0.01 0.03,0.02 0,0 0,0 0,0l0 0zm-0.05 0.15l0 -0.12c-0.17,0.02 -0.32,0.1 -0.44,0.21 -0.12,0.12 -0.19,0.27 -0.21,0.44l0.12 0c0.02,-0.14 0.08,-0.26 0.18,-0.35 0.09,-0.09 0.22,-0.16 0.35,-0.18z"/>
   </g>
   <g>
    <g>
     <path class="fil0" d="M1.75 1.3l0.05 0c0,0 0.01,-0 0.01,-0.01l0 -0.01c0,-0 -0,-0.01 -0.01,-0.01l-0.05 0c-0,0 -0.01,0 -0.01,0.01l0 0.01c0,0 0,0.01 0.01,0.01z"/>
     <path class="fil0" d="M1.8 1.24l0 -0.01c0,-0 -0,-0.01 -0.01,-0.01l-0.05 0c-0,0 -0.01,0 -0.01,0.01l0 0.01c0,0 0,0.01 0.01,0.01l0.05 0c0,0 0.01,-0 0.01,-0.01z"/>
    </g>
    <g>
     <path class="fil0" d="M1.75 1.38l0.05 0c0,0 0.01,0 0.01,0.01l0 0.01c0,0 -0,0.01 -0.01,0.01l-0.05 0c-0,0 -0.01,-0 -0.01,-0.01l0 -0.01c0,-0 0,-0.01 0.01,-0.01z"/>
     <path class="fil0" d="M1.8 1.45l0 0.01c0,0 -0,0.01 -0.01,0.01l-0.05 0c-0,0 -0.01,-0 -0.01,-0.01l0 -0.01c0,-0 0,-0.01 0.01,-0.01l0.05 0c0,0 0.01,0 0.01,0.01z"/>
    </g>
   </g>
   <g>
    <path class="fil0" d="M1.25 0.24l0.02 -0c0.01,-0 0.01,-0.01 0.01,-0.01l-0 -0.08c-0,-0.01 -0.01,-0.01 -0.01,-0.01l-0.02 0c-0.01,0 -0.01,0.01 -0.01,0.01l0 0.08c0,0.01 0.01,0.01 0.01,0.01z"/>
    <path class="fil0" d="M1.2 0.25l0.01 -0c0,-0 0.01,-0.01 0.01,-0.01l-0.01 -0.08c-0,-0.01 -0,-0.01 -0.01,-0.01l-0.01 0c-0,0 -0.01,0.01 -0.01,0.01l0.01 0.08c0,0.01 0,0.01 0.01,0.01z"/>
    <path class="fil0" d="M1.14 0.26l0.02 -0c0.01,-0 0.01,-0.01 0.01,-0.01l-0.01 -0.08c-0,-0.01 -0.01,-0.01 -0.01,-0.01l-0.02 0c-0.01,0 -0.01,0.01 -0.01,0.01l0.01 0.08c0,0.01 0.01,0.01 0.01,0.01z"/>
    <path class="fil0" d="M1.09 0.27l0.01 -0c0,-0 0.01,-0.01 0,-0.01l-0.02 -0.08c-0,-0.01 -0.01,-0.01 -0.01,-0.01l-0.01 0c-0,0 -0.01,0.01 -0,0.01l0.02 0.08c0,0.01 0.01,0.01 0.01,0.01z"/>
    <path class="fil0" d="M1.03 0.28l0.02 -0c0.01,-0 0.01,-0.01 0.01,-0.02l-0.02 -0.08c-0,-0.01 -0.01,-0.01 -0.02,-0.01l-0.02 0c-0.01,0 -0.01,0.01 -0.01,0.02l0.02 0.08c0,0.01 0.01,0.01 0.02,0.01z"/>
    <path class="fil0" d="M0.98 0.29l0.01 -0c0,-0 0,-0.01 0,-0.01l-0.02 -0.08c-0,-0.01 -0.01,-0.01 -0.01,-0.01l-0.01 0c-0,0 -0,0.01 -0,0.01l0.02 0.08c0,0.01 0.01,0.01 0.01,0.01z"/>
    <path class="fil0" d="M0.92 0.32l0.02 -0.01c0.01,-0 0.01,-0.01 0.01,-0.02l-0.03 -0.07c-0,-0.01 -0.01,-0.01 -0.02,-0.01l-0.02 0.01c-0.01,0 -0.01,0.01 -0.01,0.02l0.03 0.07c0,0.01 0.01,0.01 0.02,0.01z"/>
    <path class="fil0" d="M0.88 0.34l0.01 -0c0,-0 0,-0.01 0,-0.01l-0.03 -0.07c-0,-0.01 -0.01,-0.01 -0.01,-0.01l-0.01 0c-0,0 -0,0.01 -0,0.01l0.03 0.07c0,0.01 0.01,0.01 0.01,0.01z"/>
    <path class="fil0" d="M0.82 0.36l0.02 -0.01c0.01,-0 0.01,-0.01 0.01,-0.02l-0.04 -0.07c-0,-0.01 -0.01,-0.01 -0.02,-0.01l-0.02 0.01c-0.01,0 -0.01,0.01 -0.01,0.02l0.04 0.07c0,0.01 0.01,0.01 0.02,0.01z"/>
    <path class="fil0" d="M0.78 0.39l0.01 -0c0,-0 0,-0.01 -0,-0.01l-0.04 -0.07c-0,-0.01 -0.01,-0.01 -0.01,-0.01l-0.01 0c-0,0 -0,0.01 0,0.01l0.04 0.07c0,0.01 0.01,0.01 0.01,0.01z"/>
    <path class="fil0" d="M0.72 0.42l0.01 -0.01c0.01,-0 0.01,-0.01 0,-0.02l-0.04 -0.07c-0,-0.01 -0.01,-0.01 -0.02,-0l-0.01 0.01c-0.01,0 -0.01,0.01 -0,0.02l0.04 0.07c0,0.01 0.01,0.01 0.02,0z"/>
    <path class="fil0" d="M0.68 0.45l0.01 -0.01c0,-0 0,-0.01 -0,-0.01l-0.05 -0.06c-0,-0.01 -0.01,-0.01 -0.01,-0.01l-0.01 0.01c-0,0 -0,0.01 0,0.01l0.05 0.06c0,0.01 0.01,0.01 0.01,0.01z"/>
    <path class="fil0" d="M0.63 0.49l0.01 -0.01c0.01,-0 0.01,-0.01 0,-0.02l-0.05 -0.06c-0,-0.01 -0.01,-0.01 -0.02,-0l-0.01 0.01c-0.01,0 -0.01,0.01 -0,0.02l0.05 0.06c0,0.01 0.01,0.01 0.02,0z"/>
    <path class="fil0" d="M0.59 0.52l0.01 -0.01c0,-0 0,-0.01 -0,-0.01l-0.05 -0.06c-0,-0.01 -0.01,-0.01 -0.01,-0.01l-0.01 0.01c-0,0 -0,0.01 0,0.01l0.05 0.06c0,0.01 0.01,0.01 0.01,0.01z"/>
    <path class="fil0" d="M0.55 0.56l0.01 -0.01c0.01,-0.01 0.01,-0.01 0,-0.02l-0.06 -0.06c-0.01,-0.01 -0.01,-0.01 -0.02,0l-0.01 0.01c-0.01,0.01 -0.01,0.01 0,0.02l0.06 0.06c0.01,0.01 0.01,0.01 0.02,0z"/>
    <path class="fil0" d="M0.51 0.6l0.01 -0.01c0,-0 0,-0.01 -0.01,-0.01l-0.06 -0.05c-0.01,-0 -0.01,-0.01 -0.01,-0l-0.01 0.01c-0,0 -0,0.01 0.01,0.01l0.06 0.05c0.01,0 0.01,0.01 0.01,0z"/>
    <path class="fil0" d="M0.48 0.65l0.01 -0.01c0,-0.01 0,-0.01 -0,-0.02l-0.06 -0.05c-0.01,-0 -0.01,-0 -0.02,0l-0.01 0.01c-0,0.01 -0,0.01 0,0.02l0.06 0.05c0.01,0 0.01,0 0.02,-0z"/>
    <path class="fil0" d="M0.44 0.69l0.01 -0.01c0,-0 -0,-0.01 -0.01,-0.01l-0.06 -0.05c-0.01,-0 -0.01,-0.01 -0.01,-0l-0.01 0.01c-0,0 0,0.01 0.01,0.01l0.06 0.05c0.01,0 0.01,0.01 0.01,0z"/>
    <path class="fil0" d="M0.41 0.74l0.01 -0.01c0,-0.01 0,-0.01 -0,-0.02l-0.07 -0.04c-0.01,-0 -0.01,-0 -0.02,0l-0.01 0.01c-0,0.01 -0,0.01 0,0.02l0.07 0.04c0.01,0 0.01,0 0.02,-0z"/>
    <path class="fil0" d="M0.38 0.78l0 -0.01c0,-0 -0,-0.01 -0.01,-0.01l-0.07 -0.04c-0.01,-0 -0.01,-0 -0.01,-0l-0 0.01c-0,0 0,0.01 0.01,0.01l0.07 0.04c0.01,0 0.01,0 0.01,0z"/>
    <path class="fil0" d="M0.35 0.84l0.01 -0.02c0,-0.01 0,-0.01 -0.01,-0.02l-0.07 -0.04c-0.01,-0 -0.01,-0 -0.02,0.01l-0.01 0.02c-0,0.01 -0,0.01 0.01,0.02l0.07 0.04c0.01,0 0.01,0 0.02,-0.01z"/>
    <path class="fil0" d="M0.33 0.89l0 -0.01c0,-0 -0,-0.01 -0.01,-0.01l-0.07 -0.03c-0.01,-0 -0.01,-0 -0.01,0l-0 0.01c-0,0 0,0.01 0.01,0.01l0.07 0.03c0.01,0 0.01,0 0.01,-0z"/>
    <path class="fil0" d="M0.31 0.94l0.01 -0.02c0,-0.01 -0,-0.01 -0.01,-0.02l-0.07 -0.03c-0.01,-0 -0.01,0 -0.02,0.01l-0.01 0.02c-0,0.01 0,0.01 0.01,0.02l0.07 0.03c0.01,0 0.01,-0 0.02,-0.01z"/>
    <path class="fil0" d="M0.29 0.99l0 -0.01c0,-0 -0,-0.01 -0.01,-0.01l-0.08 -0.02c-0.01,-0 -0.01,-0 -0.01,0l-0 0.01c-0,0 0,0.01 0.01,0.01l0.08 0.02c0.01,0 0.01,0 0.01,-0z"/>
    <path class="fil0" d="M0.28 1.05l0 -0.02c0,-0.01 -0,-0.01 -0.01,-0.02l-0.08 -0.02c-0.01,-0 -0.01,0 -0.02,0.01l-0 0.02c-0,0.01 0,0.01 0.01,0.02l0.08 0.02c0.01,0 0.01,-0 0.02,-0.01z"/>
    <path class="fil0" d="M0.26 1.1l0 -0.01c0,-0 -0,-0.01 -0.01,-0.01l-0.08 -0.02c-0.01,-0 -0.01,0 -0.01,0l-0 0.01c-0,0 0,0.01 0.01,0.01l0.08 0.02c0.01,0 0.01,-0 0.01,-0z"/>
    <path class="fil0" d="M0.25 1.16l0 -0.02c0,-0.01 -0,-0.01 -0.01,-0.01l-0.08 -0.01c-0.01,-0 -0.01,0 -0.01,0.01l-0 0.02c-0,0.01 0,0.01 0.01,0.01l0.08 0.01c0.01,0 0.01,-0 0.01,-0.01z"/>
    <path class="fil0" d="M0.25 1.21l0 -0.01c0,-0 -0.01,-0.01 -0.01,-0.01l-0.08 -0.01c-0.01,-0 -0.01,0 -0.01,0.01l-0 0.01c-0,0 0.01,0.01 0.01,0.01l0.08 0.01c0.01,0 0.01,-0 0.01,-0.01z"/>
    <path class="fil0" d="M0.24 1.27l0 -0.02c0,-0.01 -0.01,-0.01 -0.01,-0.01l-0.08 -0c-0.01,-0 -0.01,0.01 -0.01,0.01l-0 0.02c-0,0.01 0.01,0.01 0.01,0.01l0.08 0c0.01,0 0.01,-0.01 0.01,-0.01z"/>
    <path class="fil0" d="M0.24 1.32l0 -0.01c0,-0 -0.01,-0.01 -0.01,-0.01l-0.08 0c-0.01,0 -0.01,0 -0.01,0.01l0 0.01c0,0 0.01,0.01 0.01,0.01l0.08 0c0.01,0 0.01,-0 0.01,-0.01z"/>
    <path class="fil0" d="M0.24 1.39l-0 -0.02c-0,-0.01 -0.01,-0.01 -0.01,-0.01l-0.08 0c-0.01,0 -0.01,0.01 -0.01,0.01l0 0.02c0,0.01 0.01,0.01 0.01,0.01l0.08 -0c0.01,-0 0.01,-0.01 0.01,-0.01z"/>
    <path class="fil0" d="M0.25 1.44l-0 -0.01c-0,-0 -0.01,-0.01 -0.01,-0.01l-0.08 0.01c-0.01,0 -0.01,0 -0.01,0.01l0 0.01c0,0 0.01,0.01 0.01,0.01l0.08 -0.01c0.01,-0 0.01,-0 0.01,-0.01z"/>
    <path class="fil0" d="M0.26 1.5l-0 -0.02c-0,-0.01 -0.01,-0.01 -0.01,-0.01l-0.08 0.01c-0.01,0 -0.01,0.01 -0.01,0.01l0 0.02c0,0.01 0.01,0.01 0.01,0.01l0.08 -0.01c0.01,-0 0.01,-0.01 0.01,-0.01z"/>
    <path class="fil0" d="M0.27 1.55l-0 -0.01c-0,-0 -0.01,-0.01 -0.01,-0l-0.08 0.02c-0.01,0 -0.01,0.01 -0.01,0.01l0 0.01c0,0 0.01,0.01 0.01,0l0.08 -0.02c0.01,-0 0.01,-0.01 0.01,-0.01z"/>
    <path class="fil0" d="M0.28 1.61l-0 -0.02c-0,-0.01 -0.01,-0.01 -0.02,-0.01l-0.08 0.02c-0.01,0 -0.01,0.01 -0.01,0.02l0 0.02c0,0.01 0.01,0.01 0.02,0.01l0.08 -0.02c0.01,-0 0.01,-0.01 0.01,-0.02z"/>
    <path class="fil0" d="M0.29 1.66l-0 -0.01c-0,-0 -0.01,-0 -0.01,-0l-0.08 0.02c-0.01,0 -0.01,0.01 -0.01,0.01l0 0.01c0,0 0.01,0 0.01,0l0.08 -0.02c0.01,-0 0.01,-0.01 0.01,-0.01z"/>
    <path class="fil0" d="M0.32 1.72l-0.01 -0.02c-0,-0.01 -0.01,-0.01 -0.02,-0.01l-0.07 0.03c-0.01,0 -0.01,0.01 -0.01,0.02l0.01 0.02c0,0.01 0.01,0.01 0.02,0.01l0.07 -0.03c0.01,-0 0.01,-0.01 0.01,-0.02z"/>
    <path class="fil0" d="M0.34 1.76l-0 -0.01c-0,-0 -0.01,-0 -0.01,-0l-0.07 0.03c-0.01,0 -0.01,0.01 -0.01,0.01l0 0.01c0,0 0.01,0 0.01,0l0.07 -0.03c0.01,-0 0.01,-0.01 0.01,-0.01z"/>
    <path class="fil0" d="M0.36 1.82l-0.01 -0.02c-0,-0.01 -0.01,-0.01 -0.02,-0.01l-0.07 0.04c-0.01,0 -0.01,0.01 -0.01,0.02l0.01 0.02c0,0.01 0.01,0.01 0.02,0.01l0.07 -0.04c0.01,-0 0.01,-0.01 0.01,-0.02z"/>
    <path class="fil0" d="M0.39 1.86l-0 -0.01c-0,-0 -0.01,-0 -0.01,0l-0.07 0.04c-0.01,0 -0.01,0.01 -0.01,0.01l0 0.01c0,0 0.01,0 0.01,-0l0.07 -0.04c0.01,-0 0.01,-0.01 0.01,-0.01z"/>
    <path class="fil0" d="M0.42 1.92l-0.01 -0.01c-0,-0.01 -0.01,-0.01 -0.02,-0l-0.07 0.04c-0.01,0 -0.01,0.01 -0,0.02l0.01 0.01c0,0.01 0.01,0.01 0.02,0l0.07 -0.04c0.01,-0 0.01,-0.01 0,-0.02z"/>
    <path class="fil0" d="M0.45 1.96l-0.01 -0.01c-0,-0 -0.01,-0 -0.01,0l-0.06 0.05c-0.01,0 -0.01,0.01 -0.01,0.01l0.01 0.01c0,0 0.01,0 0.01,-0l0.06 -0.05c0.01,-0 0.01,-0.01 0.01,-0.01z"/>
    <path class="fil0" d="M0.49 2.01l-0.01 -0.01c-0,-0.01 -0.01,-0.01 -0.02,-0l-0.06 0.05c-0.01,0 -0.01,0.01 -0,0.02l0.01 0.01c0,0.01 0.01,0.01 0.02,0l0.06 -0.05c0.01,-0 0.01,-0.01 0,-0.02z"/>
    <path class="fil0" d="M0.52 2.05l-0.01 -0.01c-0,-0 -0.01,-0 -0.01,0l-0.06 0.05c-0.01,0 -0.01,0.01 -0.01,0.01l0.01 0.01c0,0 0.01,0 0.01,-0l0.06 -0.05c0.01,-0 0.01,-0.01 0.01,-0.01z"/>
    <path class="fil0" d="M0.56 2.09l-0.01 -0.01c-0.01,-0.01 -0.01,-0.01 -0.02,0l-0.06 0.06c-0.01,0.01 -0.01,0.01 0,0.02l0.01 0.01c0.01,0.01 0.01,0.01 0.02,-0l0.06 -0.06c0.01,-0.01 0.01,-0.01 0,-0.02z"/>
    <path class="fil0" d="M0.6 2.13l-0.01 -0.01c-0,-0 -0.01,-0 -0.01,0.01l-0.05 0.06c-0,0.01 -0.01,0.01 -0,0.01l0.01 0.01c0,0 0.01,0 0.01,-0.01l0.05 -0.06c0,-0.01 0.01,-0.01 0,-0.01z"/>
    <path class="fil0" d="M0.65 2.16l-0.01 -0.01c-0.01,-0 -0.01,-0 -0.02,0l-0.05 0.06c-0,0.01 -0,0.01 0,0.02l0.01 0.01c0.01,0 0.01,0 0.02,-0l0.05 -0.06c0,-0.01 0,-0.01 -0,-0.02z"/>
    <path class="fil0" d="M0.69 2.2l-0.01 -0.01c-0,-0 -0.01,0 -0.01,0.01l-0.05 0.06c-0,0.01 -0.01,0.01 -0,0.01l0.01 0.01c0,0 0.01,-0 0.01,-0.01l0.05 -0.06c0,-0.01 0.01,-0.01 0,-0.01z"/>
    <path class="fil0" d="M0.74 2.23l-0.01 -0.01c-0.01,-0 -0.01,-0 -0.02,0l-0.04 0.07c-0,0.01 -0,0.01 0,0.02l0.01 0.01c0.01,0 0.01,0 0.02,-0l0.04 -0.07c0,-0.01 0,-0.01 -0,-0.02z"/>
    <path class="fil0" d="M0.78 2.26l-0.01 -0c-0,-0 -0.01,0 -0.01,0.01l-0.04 0.07c-0,0.01 -0,0.01 -0,0.01l0.01 0c0,0 0.01,-0 0.01,-0.01l0.04 -0.07c0,-0.01 0,-0.01 0,-0.01z"/>
    <path class="fil0" d="M0.84 2.29l-0.02 -0.01c-0.01,-0 -0.01,-0 -0.02,0.01l-0.04 0.07c-0,0.01 -0,0.01 0.01,0.02l0.02 0.01c0.01,0 0.01,0 0.02,-0.01l0.04 -0.07c0,-0.01 0,-0.01 -0.01,-0.02z"/>
    <path class="fil0" d="M0.89 2.31l-0.01 -0c-0,-0 -0.01,0 -0.01,0.01l-0.03 0.07c-0,0.01 -0,0.01 0,0.01l0.01 0c0,0 0.01,-0 0.01,-0.01l0.03 -0.07c0,-0.01 0,-0.01 -0,-0.01z"/>
    <path class="fil0" d="M0.94 2.33l-0.02 -0.01c-0.01,-0 -0.01,0 -0.02,0.01l-0.03 0.07c-0,0.01 0,0.01 0.01,0.02l0.02 0.01c0.01,0 0.01,-0 0.02,-0.01l0.03 -0.07c0,-0.01 -0,-0.01 -0.01,-0.02z"/>
    <path class="fil0" d="M0.99 2.35l-0.01 -0c-0,-0 -0.01,0 -0.01,0.01l-0.02 0.08c-0,0.01 -0,0.01 0,0.01l0.01 0c0,0 0.01,-0 0.01,-0.01l0.02 -0.08c0,-0.01 0,-0.01 -0,-0.01z"/>
    <path class="fil0" d="M1.05 2.37l-0.02 -0c-0.01,-0 -0.01,0 -0.02,0.01l-0.02 0.08c-0,0.01 0,0.01 0.01,0.02l0.02 0c0.01,0 0.01,-0 0.02,-0.01l0.02 -0.08c0,-0.01 -0,-0.01 -0.01,-0.02z"/>
    <path class="fil0" d="M1.1 2.38l-0.01 -0c-0,-0 -0.01,0 -0.01,0.01l-0.02 0.08c-0,0.01 0,0.01 0,0.01l0.01 0c0,0 0.01,-0 0.01,-0.01l0.02 -0.08c0,-0.01 -0,-0.01 -0,-0.01z"/>
    <path class="fil0" d="M1.16 2.39l-0.02 -0c-0.01,-0 -0.01,0 -0.01,0.01l-0.01 0.08c-0,0.01 0,0.01 0.01,0.01l0.02 0c0.01,0 0.01,-0 0.01,-0.01l0.01 -0.08c0,-0.01 -0,-0.01 -0.01,-0.01z"/>
    <path class="fil0" d="M1.21 2.39l-0.01 -0c-0,-0 -0.01,0.01 -0.01,0.01l-0.01 0.08c-0,0.01 0,0.01 0.01,0.01l0.01 0c0,0 0.01,-0.01 0.01,-0.01l0.01 -0.08c0,-0.01 -0,-0.01 -0.01,-0.01z"/>
    <path class="fil0" d="M1.27 2.4l-0.02 -0c-0.01,-0 -0.01,0.01 -0.01,0.01l-0 0.08c-0,0.01 0.01,0.01 0.01,0.01l0.02 0c0.01,0 0.01,-0.01 0.01,-0.01l0 -0.08c0,-0.01 -0.01,-0.01 -0.01,-0.01z"/>
    <path class="fil0" d="M1.32 2.4l-0.01 0c-0,0 -0.01,0.01 -0.01,0.01l0 0.08c0,0.01 0,0.01 0.01,0.01l0.01 0c0,0 0.01,-0.01 0.01,-0.01l0 -0.08c0,-0.01 -0,-0.01 -0.01,-0.01z"/>
    <path class="fil0" d="M1.39 2.4l-0.02 0c-0.01,0 -0.01,0.01 -0.01,0.01l0 0.08c0,0.01 0.01,0.01 0.01,0.01l0.02 -0c0.01,-0 0.01,-0.01 0.01,-0.01l-0 -0.08c-0,-0.01 -0.01,-0.01 -0.01,-0.01z"/>
    <path class="fil0" d="M1.44 2.39l-0.01 0c-0,0 -0.01,0.01 -0.01,0.01l0.01 0.08c0,0.01 0,0.01 0.01,0.01l0.01 -0c0,-0 0.01,-0.01 0.01,-0.01l-0.01 -0.08c-0,-0.01 -0,-0.01 -0.01,-0.01z"/>
    <path class="fil0" d="M1.5 2.38l-0.02 0c-0.01,0 -0.01,0.01 -0.01,0.01l0.01 0.08c0,0.01 0.01,0.01 0.01,0.01l0.02 -0c0.01,-0 0.01,-0.01 0.01,-0.01l-0.01 -0.08c-0,-0.01 -0.01,-0.01 -0.01,-0.01z"/>
    <path class="fil0" d="M1.55 2.38l-0.01 0c-0,0 -0.01,0.01 -0,0.01l0.02 0.08c0,0.01 0.01,0.01 0.01,0.01l0.01 -0c0,-0 0.01,-0.01 0,-0.01l-0.02 -0.08c-0,-0.01 -0.01,-0.01 -0.01,-0.01z"/>
    <path class="fil0" d="M1.61 2.36l-0.02 0c-0.01,0 -0.01,0.01 -0.01,0.02l0.02 0.08c0,0.01 0.01,0.01 0.02,0.01l0.02 -0c0.01,-0 0.01,-0.01 0.01,-0.02l-0.02 -0.08c-0,-0.01 -0.01,-0.01 -0.02,-0.01z"/>
    <path class="fil0" d="M1.66 2.35l-0.01 0c-0,0 -0,0.01 -0,0.01l0.02 0.08c0,0.01 0.01,0.01 0.01,0.01l0.01 -0c0,-0 0,-0.01 0,-0.01l-0.02 -0.08c-0,-0.01 -0.01,-0.01 -0.01,-0.01z"/>
    <path class="fil0" d="M1.72 2.32l-0.02 0.01c-0.01,0 -0.01,0.01 -0.01,0.02l0.03 0.07c0,0.01 0.01,0.01 0.02,0.01l0.02 -0.01c0.01,-0 0.01,-0.01 0.01,-0.02l-0.03 -0.07c-0,-0.01 -0.01,-0.01 -0.02,-0.01z"/>
    <path class="fil0" d="M1.76 2.3l-0.01 0c-0,0 -0,0.01 -0,0.01l0.03 0.07c0,0.01 0.01,0.01 0.01,0.01l0.01 -0c0,-0 0,-0.01 0,-0.01l-0.03 -0.07c-0,-0.01 -0.01,-0.01 -0.01,-0.01z"/>
    <path class="fil0" d="M1.82 2.28l-0.02 0.01c-0.01,0 -0.01,0.01 -0.01,0.02l0.04 0.07c0,0.01 0.01,0.01 0.02,0.01l0.02 -0.01c0.01,-0 0.01,-0.01 0.01,-0.02l-0.04 -0.07c-0,-0.01 -0.01,-0.01 -0.02,-0.01z"/>
    <path class="fil0" d="M1.86 2.25l-0.01 0c-0,0 -0,0.01 0,0.01l0.04 0.07c0,0.01 0.01,0.01 0.01,0.01l0.01 -0c0,-0 0,-0.01 -0,-0.01l-0.04 -0.07c-0,-0.01 -0.01,-0.01 -0.01,-0.01z"/>
    <path class="fil0" d="M1.92 2.22l-0.01 0.01c-0.01,0 -0.01,0.01 -0,0.02l0.04 0.07c0,0.01 0.01,0.01 0.02,0l0.01 -0.01c0.01,-0 0.01,-0.01 0,-0.02l-0.04 -0.07c-0,-0.01 -0.01,-0.01 -0.02,-0z"/>
    <path class="fil0" d="M1.96 2.19l-0.01 0.01c-0,0 -0,0.01 0,0.01l0.05 0.06c0,0.01 0.01,0.01 0.01,0.01l0.01 -0.01c0,-0 0,-0.01 -0,-0.01l-0.05 -0.06c-0,-0.01 -0.01,-0.01 -0.01,-0.01z"/>
    <path class="fil0" d="M2.01 2.15l-0.01 0.01c-0.01,0 -0.01,0.01 -0,0.02l0.05 0.06c0,0.01 0.01,0.01 0.02,0l0.01 -0.01c0.01,-0 0.01,-0.01 0,-0.02l-0.05 -0.06c-0,-0.01 -0.01,-0.01 -0.02,-0z"/>
    <path class="fil0" d="M2.05 2.12l-0.01 0.01c-0,0 -0,0.01 0,0.01l0.05 0.06c0,0.01 0.01,0.01 0.01,0.01l0.01 -0.01c0,-0 0,-0.01 -0,-0.01l-0.05 -0.06c-0,-0.01 -0.01,-0.01 -0.01,-0.01z"/>
    <path class="fil0" d="M2.09 2.08l-0.01 0.01c-0.01,0.01 -0.01,0.01 0,0.02l0.06 0.06c0.01,0.01 0.01,0.01 0.02,0l0.01 -0.01c0.01,-0.01 0.01,-0.01 0,-0.02l-0.06 -0.06c-0.01,-0.01 -0.01,-0.01 -0.02,0z"/>
    <path class="fil0" d="M2.13 2.04l-0.01 0.01c-0,0 -0,0.01 0.01,0.01l0.06 0.05c0.01,0 0.01,0.01 0.01,0l0.01 -0.01c0,-0 0,-0.01 -0.01,-0.01l-0.06 -0.05c-0.01,-0 -0.01,-0.01 -0.01,-0z"/>
    <path class="fil0" d="M2.16 1.99l-0.01 0.01c-0,0.01 -0,0.01 0,0.02l0.06 0.05c0.01,0 0.01,0 0.02,-0l0.01 -0.01c0,-0.01 0,-0.01 -0,-0.02l-0.06 -0.05c-0.01,-0 -0.01,-0 -0.02,0z"/>
    <path class="fil0" d="M2.2 1.95l-0.01 0.01c-0,0 0,0.01 0.01,0.01l0.06 0.05c0.01,0 0.01,0.01 0.01,0l0.01 -0.01c0,-0 -0,-0.01 -0.01,-0.01l-0.06 -0.05c-0.01,-0 -0.01,-0.01 -0.01,-0z"/>
    <path class="fil0" d="M2.23 1.9l-0.01 0.01c-0,0.01 -0,0.01 0,0.02l0.07 0.04c0.01,0 0.01,0 0.02,-0l0.01 -0.01c0,-0.01 0,-0.01 -0,-0.02l-0.07 -0.04c-0.01,-0 -0.01,-0 -0.02,0z"/>
    <path class="fil0" d="M2.26 1.86l-0 0.01c-0,0 0,0.01 0.01,0.01l0.07 0.04c0.01,0 0.01,0 0.01,0l0 -0.01c0,-0 -0,-0.01 -0.01,-0.01l-0.07 -0.04c-0.01,-0 -0.01,-0 -0.01,-0z"/>
    <path class="fil0" d="M2.29 1.8l-0.01 0.02c-0,0.01 -0,0.01 0.01,0.02l0.07 0.04c0.01,0 0.01,0 0.02,-0.01l0.01 -0.02c0,-0.01 0,-0.01 -0.01,-0.02l-0.07 -0.04c-0.01,-0 -0.01,-0 -0.02,0.01z"/>
    <path class="fil0" d="M2.31 1.76l-0 0.01c-0,0 0,0.01 0.01,0.01l0.07 0.03c0.01,0 0.01,0 0.01,-0l0 -0.01c0,-0 -0,-0.01 -0.01,-0.01l-0.07 -0.03c-0.01,-0 -0.01,-0 -0.01,0z"/>
    <path class="fil0" d="M2.33 1.7l-0.01 0.02c-0,0.01 0,0.01 0.01,0.02l0.07 0.03c0.01,0 0.01,-0 0.02,-0.01l0.01 -0.02c0,-0.01 -0,-0.01 -0.01,-0.02l-0.07 -0.03c-0.01,-0 -0.01,0 -0.02,0.01z"/>
    <path class="fil0" d="M2.35 1.65l-0 0.01c-0,0 0,0.01 0.01,0.01l0.08 0.02c0.01,0 0.01,0 0.01,-0l0 -0.01c0,-0 -0,-0.01 -0.01,-0.01l-0.08 -0.02c-0.01,-0 -0.01,-0 -0.01,0z"/>
    <path class="fil0" d="M2.37 1.59l-0 0.02c-0,0.01 0,0.01 0.01,0.02l0.08 0.02c0.01,0 0.01,-0 0.02,-0.01l0 -0.02c0,-0.01 -0,-0.01 -0.01,-0.02l-0.08 -0.02c-0.01,-0 -0.01,0 -0.02,0.01z"/>
    <path class="fil0" d="M2.38 1.54l-0 0.01c-0,0 0,0.01 0.01,0.01l0.08 0.02c0.01,0 0.01,-0 0.01,-0l0 -0.01c0,-0 -0,-0.01 -0.01,-0.01l-0.08 -0.02c-0.01,-0 -0.01,0 -0.01,0z"/>
    <path class="fil0" d="M2.39 1.48l-0 0.02c-0,0.01 0,0.01 0.01,0.01l0.08 0.01c0.01,0 0.01,-0 0.01,-0.01l0 -0.02c0,-0.01 -0,-0.01 -0.01,-0.01l-0.08 -0.01c-0.01,-0 -0.01,0 -0.01,0.01z"/>
    <path class="fil0" d="M2.39 1.43l-0 0.01c-0,0 0.01,0.01 0.01,0.01l0.08 0.01c0.01,0 0.01,-0 0.01,-0.01l0 -0.01c0,-0 -0.01,-0.01 -0.01,-0.01l-0.08 -0.01c-0.01,-0 -0.01,0 -0.01,0.01z"/>
    <path class="fil0" d="M2.4 1.37l-0 0.02c-0,0.01 0.01,0.01 0.01,0.01l0.08 0c0.01,0 0.01,-0.01 0.01,-0.01l0 -0.02c0,-0.01 -0.01,-0.01 -0.01,-0.01l-0.08 -0c-0.01,-0 -0.01,0.01 -0.01,0.01z"/>
    <path class="fil0" d="M2.4 1.32l0 0.01c0,0 0.01,0.01 0.01,0.01l0.08 0c0.01,0 0.01,-0 0.01,-0.01l0 -0.01c0,-0 -0.01,-0.01 -0.01,-0.01l-0.08 0c-0.01,0 -0.01,0 -0.01,0.01z"/>
    <path class="fil0" d="M2.4 1.25l0 0.02c0,0.01 0.01,0.01 0.01,0.01l0.08 -0c0.01,-0 0.01,-0.01 0.01,-0.01l-0 -0.02c-0,-0.01 -0.01,-0.01 -0.01,-0.01l-0.08 0c-0.01,0 -0.01,0.01 -0.01,0.01z"/>
    <path class="fil0" d="M2.39 1.2l0 0.01c0,0 0.01,0.01 0.01,0.01l0.08 -0.01c0.01,-0 0.01,-0 0.01,-0.01l-0 -0.01c-0,-0 -0.01,-0.01 -0.01,-0.01l-0.08 0.01c-0.01,0 -0.01,0 -0.01,0.01z"/>
    <path class="fil0" d="M2.38 1.14l0 0.02c0,0.01 0.01,0.01 0.01,0.01l0.08 -0.01c0.01,-0 0.01,-0.01 0.01,-0.01l-0 -0.02c-0,-0.01 -0.01,-0.01 -0.01,-0.01l-0.08 0.01c-0.01,0 -0.01,0.01 -0.01,0.01z"/>
    <path class="fil0" d="M2.38 1.09l0 0.01c0,0 0.01,0.01 0.01,0l0.08 -0.02c0.01,-0 0.01,-0.01 0.01,-0.01l-0 -0.01c-0,-0 -0.01,-0.01 -0.01,-0l-0.08 0.02c-0.01,0 -0.01,0.01 -0.01,0.01z"/>
    <path class="fil0" d="M2.36 1.03l0 0.02c0,0.01 0.01,0.01 0.02,0.01l0.08 -0.02c0.01,-0 0.01,-0.01 0.01,-0.02l-0 -0.02c-0,-0.01 -0.01,-0.01 -0.02,-0.01l-0.08 0.02c-0.01,0 -0.01,0.01 -0.01,0.02z"/>
    <path class="fil0" d="M2.35 0.98l0 0.01c0,0 0.01,0 0.01,0l0.08 -0.02c0.01,-0 0.01,-0.01 0.01,-0.01l-0 -0.01c-0,-0 -0.01,-0 -0.01,-0l-0.08 0.02c-0.01,0 -0.01,0.01 -0.01,0.01z"/>
    <path class="fil0" d="M2.32 0.92l0.01 0.02c0,0.01 0.01,0.01 0.02,0.01l0.07 -0.03c0.01,-0 0.01,-0.01 0.01,-0.02l-0.01 -0.02c-0,-0.01 -0.01,-0.01 -0.02,-0.01l-0.07 0.03c-0.01,0 -0.01,0.01 -0.01,0.02z"/>
    <path class="fil0" d="M2.3 0.88l0 0.01c0,0 0.01,0 0.01,0l0.07 -0.03c0.01,-0 0.01,-0.01 0.01,-0.01l-0 -0.01c-0,-0 -0.01,-0 -0.01,-0l-0.07 0.03c-0.01,0 -0.01,0.01 -0.01,0.01z"/>
    <path class="fil0" d="M2.28 0.82l0.01 0.02c0,0.01 0.01,0.01 0.02,0.01l0.07 -0.04c0.01,-0 0.01,-0.01 0.01,-0.02l-0.01 -0.02c-0,-0.01 -0.01,-0.01 -0.02,-0.01l-0.07 0.04c-0.01,0 -0.01,0.01 -0.01,0.02z"/>
    <path class="fil0" d="M2.25 0.78l0 0.01c0,0 0.01,0 0.01,-0l0.07 -0.04c0.01,-0 0.01,-0.01 0.01,-0.01l-0 -0.01c-0,-0 -0.01,-0 -0.01,0l-0.07 0.04c-0.01,0 -0.01,0.01 -0.01,0.01z"/>
    <path class="fil0" d="M2.22 0.72l0.01 0.01c0,0.01 0.01,0.01 0.02,0l0.07 -0.04c0.01,-0 0.01,-0.01 0,-0.02l-0.01 -0.01c-0,-0.01 -0.01,-0.01 -0.02,-0l-0.07 0.04c-0.01,0 -0.01,0.01 -0,0.02z"/>
    <path class="fil0" d="M2.19 0.68l0.01 0.01c0,0 0.01,0 0.01,-0l0.06 -0.05c0.01,-0 0.01,-0.01 0.01,-0.01l-0.01 -0.01c-0,-0 -0.01,-0 -0.01,0l-0.06 0.05c-0.01,0 -0.01,0.01 -0.01,0.01z"/>
    <path class="fil0" d="M2.15 0.63l0.01 0.01c0,0.01 0.01,0.01 0.02,0l0.06 -0.05c0.01,-0 0.01,-0.01 0,-0.02l-0.01 -0.01c-0,-0.01 -0.01,-0.01 -0.02,-0l-0.06 0.05c-0.01,0 -0.01,0.01 -0,0.02z"/>
    <path class="fil0" d="M2.12 0.59l0.01 0.01c0,0 0.01,0 0.01,-0l0.06 -0.05c0.01,-0 0.01,-0.01 0.01,-0.01l-0.01 -0.01c-0,-0 -0.01,-0 -0.01,0l-0.06 0.05c-0.01,0 -0.01,0.01 -0.01,0.01z"/>
    <path class="fil0" d="M2.08 0.55l0.01 0.01c0.01,0.01 0.01,0.01 0.02,-0l0.06 -0.06c0.01,-0.01 0.01,-0.01 0,-0.02l-0.01 -0.01c-0.01,-0.01 -0.01,-0.01 -0.02,0l-0.06 0.06c-0.01,0.01 -0.01,0.01 -0,0.02z"/>
    <path class="fil0" d="M2.04 0.52l0.01 0.01c0,0 0.01,0 0.01,-0.01l0.05 -0.06c0,-0.01 0.01,-0.01 0,-0.01l-0.01 -0.01c-0,-0 -0.01,-0 -0.01,0.01l-0.05 0.06c-0,0.01 -0.01,0.01 -0,0.01z"/>
    <path class="fil0" d="M1.99 0.48l0.01 0.01c0.01,0 0.01,0 0.02,-0l0.05 -0.06c0,-0.01 0,-0.01 -0,-0.02l-0.01 -0.01c-0.01,-0 -0.01,-0 -0.02,0l-0.05 0.06c-0,0.01 -0,0.01 0,0.02z"/>
    <path class="fil0" d="M1.95 0.44l0.01 0.01c0,0 0.01,-0 0.01,-0.01l0.05 -0.06c0,-0.01 0.01,-0.01 0,-0.01l-0.01 -0.01c-0,-0 -0.01,0 -0.01,0.01l-0.05 0.06c-0,0.01 -0.01,0.01 -0,0.01z"/>
    <path class="fil0" d="M1.9 0.41l0.01 0.01c0.01,0 0.01,0 0.02,-0l0.04 -0.07c0,-0.01 0,-0.01 -0,-0.02l-0.01 -0.01c-0.01,-0 -0.01,-0 -0.02,0l-0.04 0.07c-0,0.01 -0,0.01 0,0.02z"/>
    <path class="fil0" d="M1.86 0.38l0.01 0c0,0 0.01,-0 0.01,-0.01l0.04 -0.07c0,-0.01 0,-0.01 0,-0.01l-0.01 -0c-0,-0 -0.01,0 -0.01,0.01l-0.04 0.07c-0,0.01 -0,0.01 -0,0.01z"/>
    <path class="fil0" d="M1.8 0.35l0.02 0.01c0.01,0 0.01,0 0.02,-0.01l0.04 -0.07c0,-0.01 0,-0.01 -0.01,-0.02l-0.02 -0.01c-0.01,-0 -0.01,-0 -0.02,0.01l-0.04 0.07c-0,0.01 -0,0.01 0.01,0.02z"/>
    <path class="fil0" d="M1.76 0.33l0.01 0c0,0 0.01,-0 0.01,-0.01l0.03 -0.07c0,-0.01 0,-0.01 -0,-0.01l-0.01 -0c-0,-0 -0.01,0 -0.01,0.01l-0.03 0.07c-0,0.01 -0,0.01 0,0.01z"/>
    <path class="fil0" d="M1.7 0.31l0.02 0.01c0.01,0 0.01,-0 0.02,-0.01l0.03 -0.07c0,-0.01 -0,-0.01 -0.01,-0.02l-0.02 -0.01c-0.01,-0 -0.01,0 -0.02,0.01l-0.03 0.07c-0,0.01 0,0.01 0.01,0.02z"/>
    <path class="fil0" d="M1.65 0.29l0.01 0c0,0 0.01,-0 0.01,-0.01l0.02 -0.08c0,-0.01 0,-0.01 -0,-0.01l-0.01 -0c-0,-0 -0.01,0 -0.01,0.01l-0.02 0.08c-0,0.01 -0,0.01 0,0.01z"/>
    <path class="fil0" d="M1.59 0.28l0.02 0c0.01,0 0.01,-0 0.02,-0.01l0.02 -0.08c0,-0.01 -0,-0.01 -0.01,-0.02l-0.02 -0c-0.01,-0 -0.01,0 -0.02,0.01l-0.02 0.08c-0,0.01 0,0.01 0.01,0.02z"/>
    <path class="fil0" d="M1.54 0.26l0.01 0c0,0 0.01,-0 0.01,-0.01l0.02 -0.08c0,-0.01 -0,-0.01 -0,-0.01l-0.01 -0c-0,-0 -0.01,0 -0.01,0.01l-0.02 0.08c-0,0.01 0,0.01 0,0.01z"/>
    <path class="fil0" d="M1.48 0.25l0.02 0c0.01,0 0.01,-0 0.01,-0.01l0.01 -0.08c0,-0.01 -0,-0.01 -0.01,-0.01l-0.02 -0c-0.01,-0 -0.01,0 -0.01,0.01l-0.01 0.08c-0,0.01 0,0.01 0.01,0.01z"/>
    <path class="fil0" d="M1.43 0.25l0.01 0c0,0 0.01,-0.01 0.01,-0.01l0.01 -0.08c0,-0.01 -0,-0.01 -0.01,-0.01l-0.01 -0c-0,-0 -0.01,0.01 -0.01,0.01l-0.01 0.08c-0,0.01 0,0.01 0.01,0.01z"/>
    <path class="fil0" d="M1.37 0.24l0.02 0c0.01,0 0.01,-0.01 0.01,-0.01l0 -0.08c0,-0.01 -0.01,-0.01 -0.01,-0.01l-0.02 -0c-0.01,-0 -0.01,0.01 -0.01,0.01l-0 0.08c-0,0.01 0.01,0.01 0.01,0.01z"/>
    <path class="fil0" d="M1.32 0.24l0.01 0c0,0 0.01,-0.01 0.01,-0.01l0 -0.08c0,-0.01 -0,-0.01 -0.01,-0.01l-0.01 0c-0,0 -0.01,0.01 -0.01,0.01l0 0.08c0,0.01 0,0.01 0.01,0.01z"/>
   </g>
  </g>
 </g>
</svg>
