<?xml version="1.0" encoding="UTF-8"?>
<!DOCTYPE svg PUBLIC "-//W3C//DTD SVG 1.1//EN" "http://www.w3.org/Graphics/SVG/1.1/DTD/svg11.dtd">
<!-- Creator: CorelDRAW 2021 (64-Bit) -->
<svg xmlns="http://www.w3.org/2000/svg" xml:space="preserve" width="2.62719in" height="0.470969in" version="1.1" style="shape-rendering:geometricPrecision; text-rendering:geometricPrecision; image-rendering:optimizeQuality; fill-rule:evenodd; clip-rule:evenodd"
viewBox="0 0 86.48 15.5"
 xmlns:xlink="http://www.w3.org/1999/xlink"
 xmlns:xodm="http://www.corel.com/coreldraw/odm/2003">
 <defs>
  <style type="text/css">
   <![CDATA[
    .str0 {stroke:black;stroke-width:0.23;stroke-linecap:round;stroke-linejoin:round;stroke-miterlimit:2.61313}
    .fil1 {fill:#1C3FAA}
    .fil0 {fill:#1C3FAA;fill-rule:nonzero}
   ]]>
  </style>
 </defs>
 <g id="Layer_x0020_1">
  <metadata id="CorelCorpID_0Corel-Layer"/>
  <g id="_2253916613984">
   <path class="fil0" d="M19.47 13.9l0 -0.46 1.5 0 0 1.45c-0.23,0.2 -0.47,0.36 -0.71,0.46 -0.24,0.1 -0.5,0.15 -0.75,0.15 -0.35,0 -0.66,-0.08 -0.95,-0.25 -0.28,-0.16 -0.5,-0.4 -0.64,-0.72 -0.14,-0.31 -0.22,-0.66 -0.22,-1.05 0,-0.38 0.07,-0.74 0.22,-1.07 0.14,-0.33 0.35,-0.58 0.62,-0.74 0.27,-0.16 0.58,-0.24 0.93,-0.24 0.25,0 0.49,0.05 0.69,0.14 0.21,0.09 0.37,0.22 0.49,0.38 0.12,0.16 0.21,0.38 0.27,0.64l-0.42 0.13c-0.05,-0.2 -0.12,-0.36 -0.2,-0.47 -0.08,-0.11 -0.19,-0.21 -0.34,-0.27 -0.15,-0.07 -0.31,-0.1 -0.49,-0.1 -0.21,0 -0.4,0.04 -0.55,0.11 -0.16,0.07 -0.28,0.17 -0.38,0.29 -0.1,0.12 -0.17,0.25 -0.22,0.39 -0.09,0.24 -0.14,0.51 -0.14,0.79 0,0.35 0.05,0.64 0.16,0.88 0.11,0.24 0.27,0.41 0.47,0.53 0.21,0.11 0.43,0.17 0.66,0.17 0.2,0 0.4,-0.04 0.59,-0.13 0.19,-0.09 0.34,-0.18 0.44,-0.28l0 -0.74 -1.04 0z"/>
   <polygon id="_1" class="fil0" points="21.67,15.44 21.67,11.51 24.22,11.51 24.22,11.97 22.14,11.97 22.14,13.18 24.09,13.18 24.09,13.64 22.14,13.64 22.14,14.98 24.3,14.98 24.3,15.44 "/>
   <polygon id="_2" class="fil0" points="25.85,15.44 25.85,11.97 24.68,11.97 24.68,11.51 27.48,11.51 27.48,11.97 26.32,11.97 26.32,15.44 "/>
   <path id="_3" class="fil0" d="M30.15 15.44l0 -1.66 -1.36 -2.26 0.56 0 0.7 1.19c0.13,0.22 0.25,0.44 0.36,0.66 0.11,-0.21 0.24,-0.44 0.39,-0.69l0.68 -1.16 0.55 0 -1.41 2.26 0 1.66 -0.47 0z"/>
   <path id="_4" class="fil0" d="M32.31 13.53c0,-0.65 0.16,-1.16 0.47,-1.53 0.32,-0.37 0.72,-0.55 1.22,-0.55 0.33,0 0.62,0.09 0.88,0.26 0.26,0.17 0.46,0.41 0.6,0.72 0.14,0.31 0.21,0.66 0.21,1.05 0,0.4 -0.07,0.75 -0.22,1.07 -0.14,0.31 -0.35,0.55 -0.61,0.71 -0.27,0.16 -0.55,0.24 -0.86,0.24 -0.33,0 -0.63,-0.09 -0.89,-0.27 -0.26,-0.18 -0.46,-0.42 -0.6,-0.73 -0.13,-0.31 -0.2,-0.63 -0.2,-0.98zm0.48 0.01c0,0.47 0.11,0.84 0.34,1.12 0.23,0.27 0.52,0.41 0.86,0.41 0.35,0 0.64,-0.14 0.87,-0.41 0.23,-0.27 0.34,-0.66 0.34,-1.17 0,-0.32 -0.05,-0.6 -0.15,-0.84 -0.1,-0.24 -0.24,-0.42 -0.43,-0.55 -0.19,-0.13 -0.4,-0.2 -0.63,-0.2 -0.33,0 -0.62,0.13 -0.85,0.38 -0.24,0.25 -0.36,0.67 -0.36,1.26z"/>
   <path id="_5" class="fil0" d="M38.6 11.51l0.47 0 0 2.27c0,0.39 -0.04,0.71 -0.12,0.94 -0.08,0.23 -0.23,0.42 -0.43,0.57 -0.21,0.15 -0.48,0.22 -0.82,0.22 -0.33,0 -0.6,-0.06 -0.81,-0.19 -0.21,-0.13 -0.36,-0.31 -0.45,-0.55 -0.09,-0.24 -0.13,-0.57 -0.13,-0.98l0 -2.27 0.47 0 0 2.27c0,0.34 0.03,0.59 0.09,0.75 0.06,0.16 0.15,0.29 0.29,0.37 0.14,0.09 0.31,0.13 0.51,0.13 0.34,0 0.59,-0.09 0.73,-0.26 0.15,-0.17 0.22,-0.51 0.22,-1l0 -2.27z"/>
   <path id="_6" class="fil0" d="M39.86 15.44l0 -3.93 1.57 0c0.32,0 0.55,0.04 0.72,0.11 0.16,0.07 0.29,0.19 0.39,0.37 0.1,0.18 0.15,0.38 0.15,0.59 0,0.28 -0.08,0.51 -0.24,0.7 -0.16,0.19 -0.41,0.31 -0.75,0.36 0.12,0.07 0.22,0.13 0.28,0.2 0.14,0.14 0.27,0.31 0.39,0.52l0.61 1.07 -0.58 0 -0.47 -0.82c-0.14,-0.24 -0.25,-0.42 -0.34,-0.54 -0.09,-0.13 -0.17,-0.21 -0.24,-0.26 -0.07,-0.05 -0.14,-0.08 -0.21,-0.1 -0.05,-0.01 -0.14,-0.02 -0.26,-0.02l-0.54 0 0 1.74 -0.47 0zm0.47 -2.19l1 0c0.21,0 0.38,-0.02 0.5,-0.07 0.12,-0.05 0.21,-0.13 0.27,-0.24 0.06,-0.11 0.09,-0.22 0.09,-0.35 0,-0.19 -0.06,-0.34 -0.18,-0.46 -0.12,-0.12 -0.31,-0.18 -0.57,-0.18l-1.12 0 0 1.3z"/>
   <path id="_7" class="fil0" d="M47.31 14.06l0.47 0.13c-0.1,0.43 -0.27,0.75 -0.53,0.98 -0.25,0.22 -0.57,0.34 -0.93,0.34 -0.38,0 -0.69,-0.09 -0.93,-0.26 -0.24,-0.17 -0.42,-0.42 -0.54,-0.75 -0.12,-0.33 -0.19,-0.68 -0.19,-1.05 0,-0.41 0.07,-0.76 0.21,-1.07 0.14,-0.3 0.34,-0.54 0.6,-0.69 0.26,-0.16 0.54,-0.24 0.86,-0.24 0.35,0 0.65,0.1 0.89,0.3 0.24,0.2 0.41,0.48 0.5,0.84l-0.46 0.12c-0.08,-0.29 -0.2,-0.49 -0.36,-0.62 -0.16,-0.13 -0.35,-0.2 -0.59,-0.2 -0.27,0 -0.5,0.07 -0.68,0.22 -0.18,0.14 -0.31,0.34 -0.38,0.58 -0.07,0.24 -0.11,0.5 -0.11,0.75 0,0.33 0.04,0.63 0.13,0.87 0.09,0.25 0.22,0.44 0.41,0.56 0.18,0.12 0.38,0.18 0.6,0.18 0.26,0 0.48,-0.08 0.66,-0.25 0.18,-0.17 0.3,-0.42 0.37,-0.75z"/>
   <path id="_8" class="fil0" d="M48.21 13.53c0,-0.65 0.16,-1.16 0.47,-1.53 0.32,-0.37 0.72,-0.55 1.22,-0.55 0.33,0 0.62,0.09 0.88,0.26 0.26,0.17 0.46,0.41 0.6,0.72 0.14,0.31 0.21,0.66 0.21,1.05 0,0.4 -0.07,0.75 -0.22,1.07 -0.14,0.31 -0.35,0.55 -0.61,0.71 -0.27,0.16 -0.55,0.24 -0.86,0.24 -0.33,0 -0.63,-0.09 -0.89,-0.27 -0.26,-0.18 -0.46,-0.42 -0.6,-0.73 -0.13,-0.31 -0.2,-0.63 -0.2,-0.98zm0.48 0.01c0,0.47 0.11,0.84 0.34,1.12 0.23,0.27 0.52,0.41 0.86,0.41 0.35,0 0.64,-0.14 0.87,-0.41 0.23,-0.27 0.34,-0.66 0.34,-1.17 0,-0.32 -0.05,-0.6 -0.15,-0.84 -0.1,-0.24 -0.24,-0.42 -0.43,-0.55 -0.19,-0.13 -0.4,-0.2 -0.63,-0.2 -0.33,0 -0.62,0.13 -0.85,0.38 -0.24,0.25 -0.36,0.67 -0.36,1.26z"/>
   <polygon id="_9" class="fil0" points="52.27,15.44 52.27,11.51 52.74,11.51 52.74,15.44 "/>
   <polygon id="_10" class="fil0" points="53.56,15.44 53.56,11.51 54.04,11.51 55.89,14.59 55.89,11.51 56.34,11.51 56.34,15.44 55.86,15.44 54.01,12.36 54.01,15.44 "/>
   <path id="_11" class="fil0" d="M56.97 14.18l0.44 -0.04c0.02,0.2 0.07,0.36 0.15,0.49 0.08,0.13 0.2,0.23 0.36,0.31 0.16,0.08 0.34,0.12 0.54,0.12 0.18,0 0.34,-0.03 0.47,-0.09 0.14,-0.06 0.24,-0.14 0.3,-0.24 0.07,-0.1 0.1,-0.22 0.1,-0.34 0,-0.12 -0.03,-0.23 -0.1,-0.32 -0.06,-0.09 -0.17,-0.17 -0.32,-0.23 -0.09,-0.04 -0.3,-0.1 -0.63,-0.19 -0.33,-0.09 -0.55,-0.17 -0.68,-0.24 -0.17,-0.1 -0.29,-0.22 -0.38,-0.37 -0.08,-0.15 -0.12,-0.31 -0.12,-0.49 0,-0.2 0.05,-0.38 0.15,-0.56 0.1,-0.17 0.25,-0.3 0.44,-0.39 0.19,-0.09 0.41,-0.13 0.65,-0.13 0.26,0 0.49,0.05 0.69,0.14 0.2,0.09 0.35,0.23 0.46,0.41 0.11,0.18 0.17,0.39 0.17,0.62l-0.45 0.04c-0.02,-0.25 -0.11,-0.44 -0.24,-0.56 -0.14,-0.13 -0.34,-0.19 -0.62,-0.19 -0.28,0 -0.49,0.06 -0.62,0.17 -0.13,0.12 -0.19,0.25 -0.19,0.42 0,0.14 0.05,0.26 0.14,0.35 0.09,0.09 0.33,0.18 0.71,0.28 0.38,0.1 0.64,0.18 0.78,0.25 0.2,0.11 0.36,0.24 0.45,0.4 0.1,0.16 0.15,0.35 0.15,0.56 0,0.21 -0.05,0.4 -0.16,0.59 -0.11,0.18 -0.26,0.33 -0.46,0.43 -0.2,0.1 -0.43,0.15 -0.68,0.15 -0.32,0 -0.59,-0.05 -0.8,-0.16 -0.22,-0.1 -0.39,-0.26 -0.51,-0.47 -0.12,-0.21 -0.19,-0.44 -0.19,-0.7z"/>
   <polygon id="_12" class="fil0" points="61.87,15.44 61.87,11.51 62.34,11.51 62.34,15.44 "/>
   <polygon id="_13" class="fil0" points="63.16,15.44 63.16,11.51 63.64,11.51 65.49,14.59 65.49,11.51 65.94,11.51 65.94,15.44 65.46,15.44 63.6,12.36 63.6,15.44 "/>
   <path id="_14" class="fil0" d="M67.95 13.53c0,-0.65 0.16,-1.16 0.47,-1.53 0.32,-0.37 0.72,-0.55 1.22,-0.55 0.33,0 0.62,0.09 0.88,0.26 0.26,0.17 0.46,0.41 0.6,0.72 0.14,0.31 0.21,0.66 0.21,1.05 0,0.4 -0.07,0.75 -0.22,1.07 -0.14,0.31 -0.35,0.55 -0.61,0.71 -0.27,0.16 -0.55,0.24 -0.86,0.24 -0.33,0 -0.63,-0.09 -0.89,-0.27 -0.26,-0.18 -0.46,-0.42 -0.6,-0.73 -0.14,-0.31 -0.2,-0.63 -0.2,-0.98zm0.48 0.01c0,0.47 0.11,0.84 0.34,1.12 0.23,0.27 0.52,0.41 0.86,0.41 0.35,0 0.64,-0.14 0.87,-0.41 0.23,-0.27 0.34,-0.66 0.34,-1.17 0,-0.32 -0.05,-0.6 -0.15,-0.84 -0.1,-0.24 -0.24,-0.42 -0.43,-0.55 -0.19,-0.13 -0.4,-0.2 -0.63,-0.2 -0.33,0 -0.62,0.13 -0.85,0.38 -0.24,0.25 -0.36,0.67 -0.36,1.26z"/>
   <path id="_15" class="fil0" d="M71.94 15.44l0 -3.93 1.57 0c0.32,0 0.55,0.04 0.72,0.11 0.16,0.07 0.29,0.19 0.39,0.37 0.1,0.18 0.15,0.38 0.15,0.59 0,0.28 -0.08,0.51 -0.24,0.7 -0.16,0.19 -0.41,0.31 -0.75,0.36 0.12,0.07 0.22,0.13 0.28,0.2 0.14,0.14 0.27,0.31 0.39,0.52l0.61 1.07 -0.58 0 -0.47 -0.82c-0.14,-0.24 -0.25,-0.42 -0.34,-0.54 -0.09,-0.13 -0.17,-0.21 -0.24,-0.26 -0.07,-0.05 -0.14,-0.08 -0.21,-0.1 -0.05,-0.01 -0.14,-0.02 -0.26,-0.02l-0.54 0 0 1.74 -0.47 0zm0.47 -2.19l1 0c0.21,0 0.38,-0.02 0.5,-0.07 0.12,-0.05 0.21,-0.13 0.27,-0.24 0.06,-0.11 0.09,-0.22 0.09,-0.35 0,-0.19 -0.06,-0.34 -0.18,-0.46 -0.12,-0.12 -0.31,-0.18 -0.57,-0.18l-1.12 0 0 1.3z"/>
   <path id="_16" class="fil0" d="M75.5 15.44l0 -3.93 1.22 0c0.27,0 0.48,0.02 0.63,0.06 0.2,0.05 0.38,0.15 0.52,0.28 0.19,0.18 0.33,0.4 0.42,0.67 0.09,0.27 0.14,0.58 0.14,0.93 0,0.3 -0.03,0.56 -0.09,0.79 -0.06,0.23 -0.14,0.42 -0.24,0.57 -0.1,0.15 -0.21,0.27 -0.32,0.36 -0.12,0.09 -0.26,0.15 -0.42,0.2 -0.17,0.04 -0.35,0.07 -0.57,0.07l-1.27 0zm0.47 -0.46l0.75 0c0.23,0 0.42,-0.02 0.55,-0.07 0.13,-0.05 0.24,-0.12 0.32,-0.2 0.11,-0.12 0.2,-0.29 0.26,-0.5 0.06,-0.21 0.09,-0.46 0.09,-0.76 0,-0.41 -0.06,-0.73 -0.18,-0.95 -0.12,-0.22 -0.27,-0.37 -0.44,-0.44 -0.13,-0.05 -0.33,-0.08 -0.6,-0.08l-0.74 0 0 3.01z"/>
   <polygon id="_17" class="fil0" points="79.07,15.44 79.07,11.51 81.62,11.51 81.62,11.97 79.54,11.97 79.54,13.18 81.49,13.18 81.49,13.64 79.54,13.64 79.54,14.98 81.71,14.98 81.71,15.44 "/>
   <path id="_18" class="fil0" d="M82.36 15.44l0 -3.93 1.57 0c0.32,0 0.55,0.04 0.72,0.11 0.16,0.07 0.29,0.19 0.39,0.37 0.1,0.18 0.15,0.38 0.15,0.59 0,0.28 -0.08,0.51 -0.24,0.7 -0.16,0.19 -0.41,0.31 -0.75,0.36 0.12,0.07 0.22,0.13 0.28,0.2 0.14,0.14 0.27,0.31 0.39,0.52l0.61 1.07 -0.58 0 -0.47 -0.82c-0.14,-0.24 -0.25,-0.42 -0.34,-0.54 -0.09,-0.13 -0.17,-0.21 -0.24,-0.26 -0.07,-0.05 -0.14,-0.08 -0.21,-0.1 -0.05,-0.01 -0.14,-0.02 -0.26,-0.02l-0.54 0 0 1.74 -0.47 0zm0.47 -2.19l1 0c0.21,0 0.38,-0.02 0.5,-0.07 0.12,-0.05 0.21,-0.13 0.27,-0.24 0.06,-0.11 0.09,-0.22 0.09,-0.35 0,-0.19 -0.06,-0.34 -0.18,-0.46 -0.12,-0.12 -0.31,-0.18 -0.57,-0.18l-1.12 0 0 1.3z"/>
   <polygon id="_19" class="fil0" points="85.99,15.44 85.99,14.89 86.48,14.89 86.48,15.44 "/>
   <g>
    <path class="fil0" d="M21.54 7.98c-0.72,0 -1.37,-0.17 -1.95,-0.51 -0.58,-0.34 -1.03,-0.81 -1.36,-1.42 -0.33,-0.61 -0.49,-1.29 -0.49,-2.06 0,-0.77 0.16,-1.45 0.49,-2.06 0.33,-0.61 0.78,-1.08 1.36,-1.42 0.58,-0.34 1.23,-0.51 1.95,-0.51 0.63,0 1.2,0.12 1.71,0.37 0.51,0.25 0.93,0.61 1.26,1.07l-1.24 1.25c-0.45,-0.6 -0.99,-0.9 -1.63,-0.9 -0.37,0 -0.71,0.09 -1,0.27 -0.29,0.18 -0.52,0.44 -0.68,0.77 -0.16,0.33 -0.24,0.71 -0.24,1.15 0,0.43 0.08,0.81 0.24,1.15 0.16,0.33 0.39,0.59 0.68,0.77 0.29,0.18 0.63,0.27 1,0.27 0.64,0 1.18,-0.3 1.63,-0.9l1.24 1.25c-0.34,0.47 -0.76,0.83 -1.26,1.07 -0.51,0.25 -1.08,0.37 -1.71,0.37z"/>
    <path id="_1_0" class="fil0" d="M28.4 5.79l-1.07 0 0 2.04 -1.95 0 0 -7.67 3.16 0c0.62,0 1.17,0.12 1.63,0.35 0.46,0.23 0.82,0.56 1.07,0.99 0.25,0.43 0.37,0.93 0.37,1.51 0,0.56 -0.12,1.04 -0.35,1.45 -0.23,0.41 -0.57,0.74 -1,0.97l1.49 2.41 -2.09 0 -1.25 -2.04zm1.23 -2.8c0,-0.36 -0.1,-0.64 -0.31,-0.83 -0.2,-0.2 -0.51,-0.3 -0.91,-0.3l-1.09 0 0 2.25 1.09 0c0.4,0 0.7,-0.1 0.91,-0.29 0.2,-0.19 0.31,-0.47 0.31,-0.83z"/>
    <polygon id="_2_1" class="fil0" points="36.29,5.08 36.29,7.83 34.33,7.83 34.33,5.04 31.7,0.15 33.76,0.15 35.4,3.2 37.04,0.15 38.93,0.15 "/>
    <path id="_3_2" class="fil0" d="M42.55 0.15c0.62,0 1.17,0.12 1.63,0.35 0.46,0.23 0.82,0.56 1.07,0.99 0.25,0.43 0.37,0.93 0.37,1.51 0,0.58 -0.13,1.08 -0.37,1.5 -0.25,0.42 -0.61,0.75 -1.07,0.98 -0.46,0.23 -1,0.35 -1.63,0.35l-1.2 0 0 2.01 -1.95 0 0 -7.67 3.16 0zm-0.12 3.96c0.4,0 0.7,-0.1 0.91,-0.29 0.2,-0.19 0.31,-0.47 0.31,-0.83 0,-0.36 -0.1,-0.64 -0.31,-0.83 -0.2,-0.2 -0.51,-0.3 -0.91,-0.3l-1.09 0 0 2.25 1.09 0z"/>
    <polygon id="_4_3" class="fil0" points="47.87,1.87 45.75,1.87 45.75,0.15 51.93,0.15 51.93,1.87 49.82,1.87 49.82,7.83 47.87,7.83 "/>
    <path id="_5_4" class="fil0" d="M55.07 7.98c-0.56,0 -1.1,-0.08 -1.63,-0.23 -0.53,-0.15 -0.95,-0.36 -1.28,-0.61l0.64 -1.6c0.31,0.23 0.67,0.41 1.08,0.55 0.41,0.14 0.81,0.21 1.2,0.21 0.75,0 1.12,-0.21 1.12,-0.62 0,-0.22 -0.11,-0.38 -0.32,-0.49 -0.21,-0.11 -0.56,-0.22 -1.03,-0.33 -0.52,-0.12 -0.95,-0.26 -1.3,-0.4 -0.35,-0.14 -0.65,-0.37 -0.9,-0.69 -0.25,-0.31 -0.37,-0.74 -0.37,-1.27 0,-0.47 0.12,-0.89 0.35,-1.27 0.23,-0.38 0.57,-0.67 1.03,-0.89 0.46,-0.22 1.02,-0.33 1.68,-0.33 0.45,0 0.9,0.06 1.34,0.17 0.44,0.11 0.83,0.28 1.16,0.5l-0.6 1.61c-0.66,-0.39 -1.3,-0.59 -1.91,-0.59 -0.39,0 -0.67,0.06 -0.85,0.19 -0.18,0.13 -0.27,0.29 -0.27,0.5 0,0.2 0.11,0.36 0.32,0.46 0.21,0.1 0.55,0.21 1.02,0.32 0.53,0.12 0.96,0.26 1.31,0.4 0.35,0.14 0.64,0.37 0.9,0.68 0.25,0.31 0.38,0.73 0.38,1.27 0,0.46 -0.12,0.88 -0.35,1.25 -0.23,0.37 -0.58,0.67 -1.04,0.89 -0.46,0.22 -1.02,0.33 -1.68,0.33z"/>
    <polygon id="_6_5" class="fil0" points="64.57,6.15 64.57,7.83 59.03,7.83 59.03,0.15 64.44,0.15 64.44,1.83 60.96,1.83 60.96,3.12 64.03,3.12 64.03,4.75 60.96,4.75 60.96,6.15 "/>
    <polygon id="_7_6" class="fil0" points="72.23,0.15 72.23,7.83 70.62,7.83 67.57,3.74 67.57,7.83 65.66,7.83 65.66,0.15 67.27,0.15 70.31,4.24 70.31,0.15 "/>
    <path id="_8_7" class="fil0" d="M77.05 7.98c-0.72,0 -1.37,-0.17 -1.95,-0.51 -0.58,-0.34 -1.03,-0.81 -1.36,-1.42 -0.33,-0.61 -0.49,-1.29 -0.49,-2.06 0,-0.77 0.16,-1.45 0.49,-2.06 0.33,-0.61 0.78,-1.08 1.36,-1.42 0.58,-0.34 1.22,-0.51 1.95,-0.51 0.63,0 1.2,0.12 1.71,0.37 0.51,0.25 0.93,0.61 1.26,1.07l-1.24 1.25c-0.45,-0.6 -0.99,-0.9 -1.63,-0.9 -0.37,0 -0.71,0.09 -1,0.27 -0.29,0.18 -0.52,0.44 -0.68,0.77 -0.16,0.33 -0.24,0.71 -0.24,1.15 0,0.43 0.08,0.81 0.24,1.15 0.16,0.33 0.39,0.59 0.68,0.77 0.29,0.18 0.63,0.27 1,0.27 0.64,0 1.18,-0.3 1.63,-0.9l1.24 1.25c-0.34,0.47 -0.76,0.83 -1.26,1.07 -0.51,0.25 -1.08,0.37 -1.71,0.37z"/>
    <polygon id="_9_8" class="fil0" points="86.44,6.15 86.44,7.83 80.89,7.83 80.89,0.15 86.31,0.15 86.31,1.83 82.83,1.83 82.83,3.12 85.89,3.12 85.89,4.75 82.83,4.75 82.83,6.15 "/>
   </g>
  </g>
  <g id="_2253916614176">
   <path class="fil1" d="M0 7.66c-0.05,4.17 3.29,7.6 7.46,7.65 4.17,0.05 7.6,-3.29 7.65,-7.46 0.05,-4.17 -3.29,-7.6 -7.46,-7.65 -0.03,-0 -0.06,-0 -0.09,-0 -4.13,0 -7.5,3.32 -7.55,7.46zm14.53 0.09c0,3.85 -3.12,6.97 -6.97,6.97 -3.85,0 -6.97,-3.12 -6.97,-6.97 0,-3.85 3.12,-6.97 6.97,-6.97 3.85,0 6.97,3.12 6.97,6.97z"/>
   <path class="fil1" d="M11.63 7.66l1.81 0 0 -0.06 -1.79 0 -0.22 -0.2c-0.16,-1.8 -1.53,-3.24 -3.32,-3.5l-0.01 0.06c1.77,0.25 3.11,1.67 3.27,3.45l0 0.01 0.26 0.23z"/>
   <path class="fil1" d="M3.84 6.58l-0 0.02 0.25 0.34 1.88 0 0 -0.06 -1.85 0 -0.21 -0.29c0.37,-1.15 1.27,-2.06 2.41,-2.45l-0.02 -0.06c-1.16,0.4 -2.08,1.34 -2.45,2.51z"/>
   <path class="fil1" d="M2.16 7.75c0,2.97 2.42,5.39 5.39,5.39 2.26,0 4.3,-1.43 5.07,-3.55l0.02 -0.04 -0.3 0 -0.01 0.02c-0.75,1.97 -2.67,3.3 -4.78,3.3 -2.82,0 -5.12,-2.3 -5.12,-5.12 0,-2.82 2.3,-5.12 5.12,-5.12 2.15,0 4.08,1.35 4.81,3.37l0.01 0.02 0.29 0 -0.01 -0.04c-0.75,-2.17 -2.8,-3.63 -5.1,-3.63 -2.97,0 -5.39,2.42 -5.39,5.39zm0.06 0c0,-2.94 2.39,-5.33 5.33,-5.33 2.26,0 4.27,1.42 5.02,3.54l-0.16 0c-0.75,-2.03 -2.7,-3.39 -4.86,-3.39 -2.86,0 -5.18,2.32 -5.18,5.18 0,2.86 2.32,5.18 5.18,5.18 2.13,0 4.07,-1.33 4.83,-3.32l0.16 0c-0.77,2.08 -2.78,3.47 -5,3.47 -2.94,0 -5.33,-2.39 -5.33,-5.33z"/>
   <path class="fil1" d="M10.82 7.66l0.41 0 -0 -0.03c-0.07,-1.99 -1.68,-3.55 -3.67,-3.55 -1.48,0 -2.81,0.88 -3.38,2.24l-0.01 0.02 0.24 0.36 1.56 -0 0 -0.06 -1.53 0 -0.2 -0.31c0.57,-1.33 1.87,-2.18 3.32,-2.18 1.95,0 3.53,1.52 3.61,3.46l-0.32 0 -0.43 -0.43 0 -0.84 -0.06 0 0 0.87 0.46 0.46z"/>
   <path class="fil1" d="M10.28 7.84l0 0.06 0.88 0c-0.08,1.94 -1.66,3.46 -3.61,3.46 -1.45,0 -2.75,-0.86 -3.32,-2.18l0.2 -0.31 1.53 0 0 -0.06 -1.56 0 -0.24 0.36 0.01 0.02c0.58,1.36 1.91,2.24 3.38,2.24 2,0 3.61,-1.56 3.67,-3.55l0 -0.03 -0.95 0z"/>
   <path class="fil1" d="M7.56 11.15c-1.21,0 -2.34,-0.65 -2.95,-1.7l0.19 -0.33 1.17 0 0 -0.06 -1.2 0 -0.23 0.39 0.01 0.02c0.62,1.08 1.77,1.75 3.01,1.75 1.78,0 3.26,-1.34 3.44,-3.11l-0.06 -0.01c-0.18,1.74 -1.63,3.05 -3.38,3.05z"/>
   <path class="fil1" d="M4.54 6.04l-0.01 0.02 0.23 0.39 1.2 0 0 -0.06 -1.17 0 -0.19 -0.33c0.61,-1.05 1.73,-1.7 2.95,-1.7 1.75,0 3.21,1.31 3.38,3.05l0.06 -0.01c-0.18,-1.77 -1.66,-3.11 -3.44,-3.11 -1.24,0 -2.4,0.67 -3.01,1.75z"/>
   <polygon class="fil1" points="13.15,8.88 13.34,8.88 13.34,8.82 13.15,8.82 "/>
   <path class="fil1" d="M2.8 7.75c0,2.62 2.13,4.75 4.75,4.75 2.12,0 4,-1.42 4.57,-3.46l0.08 -0.06 -0.04 -0.05 -0.09 0.07 -0 0.01c-0.56,2.02 -2.42,3.43 -4.52,3.43 -2.58,0 -4.69,-2.1 -4.69,-4.69 0,-2.58 2.1,-4.69 4.69,-4.69 2.1,0 3.95,1.41 4.52,3.43l0 0.01 0.25 0.19 1.02 0 0 -0.06 -1 0 -0.21 -0.16c-0.57,-2.04 -2.45,-3.46 -4.57,-3.46 -2.62,0 -4.75,2.13 -4.75,4.75z"/>
   <path class="fil1" d="M4.09 8.57l-0.25 0.34 0 0.02c0.37,1.17 1.29,2.11 2.45,2.51l0.02 -0.06c-1.14,-0.39 -2.04,-1.31 -2.41,-2.45l0.21 -0.29 1.85 0 0 -0.06 -1.88 0z"/>
   <path class="fil1" d="M11.63 7.84l-0.26 0.23 -0 0.01c-0.16,1.78 -1.5,3.2 -3.27,3.45l0.01 0.06c1.79,-0.26 3.15,-1.69 3.32,-3.5l0.22 -0.2 1.79 -0 0 -0.06 -1.81 0z"/>
   <path class="fil1" d="M2.59 7.75c0,2.74 2.23,4.97 4.97,4.97 2.17,0 4.06,-1.38 4.73,-3.44l0.21 -0.15 0.79 0 0 -0.06 -0.81 0 -0.24 0.18 -0 0.01c-0.65,2.04 -2.53,3.41 -4.67,3.41 -2.7,0 -4.9,-2.2 -4.9,-4.9 0,-2.7 2.2,-4.9 4.9,-4.9 2.14,0 4.02,1.37 4.67,3.41l0 0.01 0.24 0.18 0.81 -0 0 -0.06 -0.79 0 -0.21 -0.15c-0.66,-2.06 -2.56,-3.44 -4.73,-3.44 -2.74,0 -4.97,2.23 -4.97,4.97z"/>
   <path class="fil1" d="M6.29 3.84c-1.38,0.44 -2.43,1.59 -2.74,3l-0 0.01 0.25 0.32 2.17 0 0 -0.06 -2.14 0 -0.21 -0.27c0.31,-1.37 1.33,-2.48 2.66,-2.93l-0 0.95 0.06 0 0 -1.03 -0.04 0.01z"/>
   <polygon class="fil1" points="7.23,3.27 6.83,3.27 6.83,4.86 6.89,4.86 6.89,3.33 7.23,3.33 "/>
   <path class="fil1" d="M6.7 4.86l0 -1.57 -0.04 0.01c-1.97,0.39 -3.46,2.06 -3.63,4.06l-0 0.01 0.26 0.28 2.67 0 0 -0.06 -2.65 0 -0.22 -0.24c0.17,-1.96 1.62,-3.59 3.54,-3.99l0 1.49 0.06 0z"/>
   <path class="fil1" d="M3.54 7.42l2.43 0 0 -0.06 -2.4 0 -0.22 -0.25c0.26,-1.68 1.47,-3.03 3.11,-3.47l0 1.23 0.06 0 0 -1.31 -0.04 0.01c-1.69,0.43 -2.94,1.82 -3.2,3.54l-0 0.01 0.26 0.3z"/>
   <polygon class="fil1" points="7.59,3.25 7.52,3.25 7.52,4.86 7.59,4.86 "/>
   <path class="fil1" d="M13.43 7.42l0 -0.06 -1.59 -0 -0.22 -0.19c-0.26,-1.81 -1.7,-3.24 -3.51,-3.48l-0.04 -0 0 1.18 0.06 0 0 -1.11c1.77,0.26 3.17,1.66 3.42,3.44l0 0.01 0.25 0.22 1.61 0z"/>
   <path class="fil1" d="M13.41 7.17l0 -0.06 -1.39 0 -0.22 -0.18c-0.36,-1.89 -1.95,-3.33 -3.87,-3.49l-0.03 -0 0 1.43 0.06 0 0 -1.36c1.88,0.18 3.43,1.59 3.78,3.45l0 0.01 0.25 0.21 1.42 -0z"/>
   <path class="fil1" d="M13.38 6.93l0 -0.06 -1.2 -0 -0.21 -0.17c-0.47,-1.97 -2.2,-3.4 -4.23,-3.48l-0.03 -0 0 1.64 0.06 0 -0 -1.58c1.98,0.09 3.68,1.5 4.14,3.44l0 0.01 0.25 0.2 1.22 0z"/>
   <path class="fil1" d="M12.17 8.15l0 -0.06 -0.35 0 -0.25 0.22 -0 0.01c-0.25,1.77 -1.65,3.18 -3.42,3.44l0 -1.13 -0.06 0 0 1.21 0.04 -0c1.81,-0.25 3.25,-1.68 3.51,-3.48l0.22 -0.19 0.33 0z"/>
   <polygon class="fil1" points="13.43,8.15 13.43,8.08 13.15,8.08 13.15,8.15 "/>
   <polygon class="fil1" points="7.52,12.26 7.59,12.26 7.59,10.62 7.52,10.62 "/>
   <polygon class="fil1" points="13.15,8.63 13.38,8.63 13.38,8.57 13.15,8.57 "/>
   <path class="fil1" d="M11.91 8.77l-0 0.01c-0.46,1.94 -2.16,3.35 -4.14,3.44l0 -1.6 -0.06 0 0 1.67 0.03 -0c2.02,-0.08 3.76,-1.51 4.23,-3.48l0.22 -0.17 -0.04 -0.05 -0.24 0.19z"/>
   <polygon class="fil1" points="13.41,8.39 13.41,8.33 13.15,8.33 13.15,8.39 "/>
   <path class="fil1" d="M12.17 8.39l0 -0.06 -0.18 0 -0.25 0.21 -0 0.01c-0.35,1.86 -1.9,3.27 -3.78,3.44l0 -1.37 -0.06 0 0 1.44 0.03 -0c1.92,-0.16 3.51,-1.6 3.87,-3.49l0.22 -0.18 0.15 0z"/>
   <polygon class="fil1" points="6.83,12.23 7.23,12.23 7.23,12.17 6.89,12.17 6.89,10.62 6.83,10.62 "/>
   <path class="fil1" d="M3.8 8.33l-0.25 0.32 0 0.01c0.32,1.41 1.37,2.56 2.74,3l0.04 0.01 0 -1.05 -0.06 0 0 0.97c-1.33,-0.44 -2.35,-1.56 -2.66,-2.93l0.21 -0.27 2.14 0 0 -0.06 -2.17 0z"/>
   <path class="fil1" d="M5.96 8.09l-2.43 0 -0.26 0.3 0 0.01c0.26,1.72 1.51,3.11 3.2,3.54l0.04 0.01 0 -1.33 -0.06 0 0 1.25c-1.64,-0.44 -2.85,-1.79 -3.11,-3.47l0.22 -0.25 2.4 0 0 -0.06z"/>
   <path class="fil1" d="M3.29 7.84l-0.26 0.28 0 0.01c0.17,2 1.66,3.67 3.63,4.06l0.04 0.01 0 -1.59 -0.06 0 0 1.51c-1.92,-0.4 -3.37,-2.03 -3.54,-3.99l0.22 -0.24 2.65 -0 0 -0.06 -2.67 0z"/>
   <polygon class="fil1" points="6.86,3.45 7.23,3.45 7.23,3.39 6.86,3.39 "/>
   <polygon class="fil1" points="6.86,3.66 7.23,3.66 7.23,3.59 6.86,3.59 "/>
   <polygon class="fil1" points="7.23,3.79 7.23,3.73 6.86,3.73 6.86,3.79 "/>
   <polygon class="fil1" points="7.23,12.09 7.23,12.03 6.86,12.03 6.86,12.09 "/>
   <polygon class="fil1" points="7.23,11.9 7.23,11.84 6.86,11.84 6.86,11.9 "/>
   <polygon class="fil1" points="7.23,11.76 7.23,11.7 6.86,11.7 6.86,11.76 "/>
   <path class="fil1" d="M7.05 3.48l0.34 0c0.03,0 0.06,-0.03 0.06,-0.06l0 -0.11c0,-0.03 -0.03,-0.06 -0.06,-0.06l-0.34 0c-0.03,0 -0.06,0.03 -0.06,0.06l0 0.11c0,0.03 0.03,0.06 0.06,0.06z"/>
   <path class="fil1" d="M12.44 7.68l0 0.11c0,0.04 0.04,0.08 0.08,0.08l0.5 0c0.04,0 0.08,-0.04 0.08,-0.08l0 -0.11c0,-0.04 -0.04,-0.08 -0.08,-0.08l-0.5 0c-0.04,0 -0.08,0.04 -0.08,0.08z"/>
   <path class="fil1" d="M13.02 7.12l-0.5 0c-0.04,0 -0.08,0.04 -0.08,0.08l0 0.11c0,0.04 0.04,0.08 0.08,0.08l0.5 0c0.04,0 0.08,-0.04 0.08,-0.08l0 -0.11c0,-0.04 -0.04,-0.08 -0.08,-0.08z"/>
   <path class="fil1" d="M4.66 7.4l0.5 0c0.04,0 0.08,-0.04 0.08,-0.08l0 -0.11c0,-0.04 -0.04,-0.08 -0.08,-0.08l-0.5 0c-0.04,0 -0.08,0.04 -0.08,0.08l0 0.11c0,0.04 0.04,0.08 0.08,0.08z"/>
   <path class="fil1" d="M4.66 7.89l0.5 0c0.04,0 0.08,-0.04 0.08,-0.08l0 -0.11c0,-0.04 -0.04,-0.08 -0.08,-0.08l-0.5 0c-0.04,0 -0.08,0.04 -0.08,0.08l0 0.11c0,0.04 0.04,0.08 0.08,0.08z"/>
   <path class="fil1" d="M10.14 7.82l0 0.1c0,0.04 0.03,0.07 0.07,0.07l0.46 0c0.04,0 0.07,-0.03 0.07,-0.07l0 -0.1c0,-0.04 -0.03,-0.07 -0.07,-0.07l-0.46 0c-0.04,0 -0.07,0.03 -0.07,0.07z"/>
   <path class="fil1" d="M10.44 6.42l-0.11 0c-0.04,0 -0.08,0.04 -0.08,0.08l0 0.5c0,0.04 0.04,0.08 0.08,0.08l0.11 0c0.04,0 0.08,-0.04 0.08,-0.08l0 -0.5c0,-0.04 -0.04,-0.08 -0.08,-0.08z"/>
   <path class="fil1" d="M5.15 8.1l-0.5 0c-0.04,0 -0.08,0.04 -0.08,0.08l0 0.11c0,0.04 0.04,0.08 0.08,0.08l0.5 0c0.04,0 0.08,-0.04 0.08,-0.08l0 -0.11c0,-0.04 -0.04,-0.08 -0.08,-0.08z"/>
   <path class="fil1" d="M7.45 3.75l0 -0.11c0,-0.03 -0.03,-0.06 -0.06,-0.06l-0.34 0c-0.03,0 -0.06,0.03 -0.06,0.06l0 0.11c0,0.03 0.03,0.06 0.06,0.06l0.34 0c0.03,0 0.06,-0.03 0.06,-0.06z"/>
   <path class="fil1" d="M7.05 12.25l0.34 0c0.03,0 0.06,-0.03 0.06,-0.06l0 -0.11c0,-0.03 -0.03,-0.06 -0.06,-0.06l-0.34 0c-0.03,0 -0.06,0.03 -0.06,0.06l0 0.11c0,0.03 0.03,0.06 0.06,0.06z"/>
   <path class="fil1" d="M7.05 11.92l0.34 0c0.03,0 0.06,-0.03 0.06,-0.06l0 -0.11c0,-0.03 -0.03,-0.06 -0.06,-0.06l-0.34 0c-0.03,0 -0.06,0.03 -0.06,0.06l0 0.11c0,0.03 0.03,0.06 0.06,0.06z"/>
   <path class="fil1" d="M12.14 8.98l1.04 0 0 -0.99 -1.04 0 0 0.99zm0.06 -0.93l0.92 0 0 0.86 -0.92 0 0 -0.86z"/>
   <polygon class="fil1" points="12.15,8.27 12.19,8.31 12.46,8.05 12.41,8.01 "/>
   <polygon class="fil1" points="12.86,8.93 12.91,8.97 13.17,8.71 13.13,8.67 "/>
   <polygon class="fil1" points="12.59,8.93 12.63,8.97 13.17,8.43 13.13,8.39 "/>
   <polygon class="fil1" points="13.44,8.16 13.37,8.16 13.37,8.16 "/>
   <polygon class="fil1" points="12.31,8.93 12.36,8.97 13.17,8.16 13.13,8.11 "/>
   <polygon class="fil1" points="12.15,8.82 12.19,8.86 13.01,8.05 12.96,8.01 "/>
   <polygon class="fil1" points="12.15,8.55 12.19,8.59 12.73,8.05 12.69,8.01 "/>
   <g>
    <g>
     <g>
      <polygon class="fil1" points="7.44,6.66 7.51,6.66 7.51,7.07 8.29,7.07 8.29,7.13 7.44,7.13 "/>
      <path class="fil1" d="M7.69 7.01l0.34 0c0.03,0 0.06,0.02 0.06,0.06l0 0.08c0,0.03 -0.02,0.06 -0.06,0.06l-0.34 0c-0.03,0 -0.06,-0.02 -0.06,-0.06l0 -0.08c0,-0.03 0.02,-0.06 0.06,-0.06z"/>
     </g>
     <g>
      <polygon class="fil1" points="7.09,6.66 7.15,6.66 7.15,7.14 7.35,7.33 8.29,7.33 8.29,7.39 7.32,7.39 7.09,7.16 "/>
      <path class="fil1" d="M7.54 7.27l0.34 0c0.03,0 0.06,0.02 0.06,0.06l0 0.07c0,0.03 -0.02,0.06 -0.06,0.06l-0.34 0c-0.03,0 -0.06,-0.02 -0.06,-0.06l0 -0.07c0,-0.03 0.02,-0.06 0.06,-0.06z"/>
     </g>
     <g>
      <polygon class="fil1" points="8.29,7.65 7.09,7.65 6.82,7.38 6.82,6.66 6.88,6.66 6.88,7.36 7.11,7.59 8.29,7.59 "/>
      <path class="fil1" d="M7.72 7.72l-0.34 0c-0.03,0 -0.06,-0.02 -0.06,-0.06l0 -0.08c0,-0.03 0.02,-0.06 0.06,-0.06l0.34 0c0.03,0 0.06,0.02 0.06,0.06l0 0.08c0,0.03 -0.02,0.06 -0.06,0.06z"/>
     </g>
    </g>
    <g>
     <g>
      <polygon class="fil1" points="7.44,8.85 7.51,8.85 7.51,8.43 8.29,8.43 8.29,8.37 7.44,8.37 "/>
      <path class="fil1" d="M7.69 8.49l0.34 0c0.03,0 0.06,-0.02 0.06,-0.06l0 -0.08c0,-0.03 -0.02,-0.06 -0.06,-0.06l-0.34 0c-0.03,0 -0.06,0.02 -0.06,0.06l0 0.08c0,0.03 0.02,0.06 0.06,0.06z"/>
     </g>
     <g>
      <polygon class="fil1" points="7.09,8.85 7.15,8.85 7.15,8.37 7.35,8.17 8.29,8.17 8.29,8.11 7.32,8.11 7.09,8.34 "/>
      <path class="fil1" d="M7.54 8.23l0.34 0c0.03,0 0.06,-0.02 0.06,-0.06l0 -0.08c0,-0.03 -0.02,-0.06 -0.06,-0.06l-0.34 0c-0.03,0 -0.06,0.02 -0.06,0.06l0 0.08c0,0.03 0.02,0.06 0.06,0.06z"/>
     </g>
     <g>
      <polygon class="fil1" points="8.29,7.85 7.09,7.85 6.82,8.12 6.82,8.85 6.88,8.85 6.88,8.14 7.11,7.91 8.29,7.91 "/>
      <path class="fil1" d="M7.72 7.79l-0.34 0c-0.03,0 -0.06,0.02 -0.06,0.06l0 0.07c0,0.03 0.02,0.06 0.06,0.06l0.34 0c0.03,0 0.06,-0.02 0.06,-0.06l0 -0.07c0,-0.03 -0.02,-0.06 -0.06,-0.06z"/>
     </g>
    </g>
   </g>
   <path class="fil1" d="M1.65 7.75c0,3.26 2.65,5.9 5.9,5.9 3.26,0 5.9,-2.65 5.9,-5.9 0,-3.26 -2.65,-5.9 -5.9,-5.9 -3.26,0 -5.9,2.65 -5.9,5.9zm0.06 0c0,-3.22 2.62,-5.84 5.84,-5.84 3.22,0 5.84,2.62 5.84,5.84 0,3.22 -2.62,5.84 -5.84,5.84 -3.22,0 -5.84,-2.62 -5.84,-5.84z"/>
   <path class="fil1" d="M7.55 1.75c-0.22,0 -0.43,0.01 -0.65,0.04 -0.09,0.01 -0.15,0.09 -0.14,0.17 0.01,0.08 0.07,0.13 0.15,0.14 0.01,0 0.02,0 0.03,-0 0.2,-0.02 0.41,-0.03 0.62,-0.03 0.09,0 0.16,-0.07 0.16,-0.16 -0,-0.09 -0.07,-0.16 -0.16,-0.16 -0,0 -0,0 -0,0zm0.48 0.17c-0.01,0.09 0.05,0.16 0.14,0.17 0.2,0.02 0.41,0.05 0.61,0.1 0.01,0 0.02,0 0.02,0 0.08,0 0.14,-0.05 0.16,-0.12 0.02,-0.08 -0.04,-0.17 -0.12,-0.19 -0.21,-0.05 -0.43,-0.08 -0.64,-0.1 -0.01,-0 -0.01,-0 -0.02,-0 -0.08,0 -0.15,0.06 -0.16,0.14zm-1.77 -0.03c-0.21,0.05 -0.42,0.11 -0.63,0.17 -0.08,0.03 -0.13,0.12 -0.1,0.2 0.02,0.06 0.08,0.1 0.14,0.11 0.02,0 0.04,-0 0.06,-0.01 0.19,-0.07 0.39,-0.12 0.59,-0.17 0.08,-0.02 0.14,-0.1 0.12,-0.19 -0.02,-0.07 -0.08,-0.12 -0.15,-0.12 -0.01,0 -0.02,0 -0.03,0zm3.01 0.27c-0.03,0.08 0.02,0.17 0.1,0.2 0.19,0.06 0.39,0.14 0.57,0.23 0.02,0.01 0.04,0.01 0.06,0.01 0.06,0 0.12,-0.03 0.15,-0.09 0.04,-0.08 0,-0.17 -0.08,-0.21 -0.2,-0.09 -0.4,-0.17 -0.61,-0.24 -0.02,-0.01 -0.03,-0.01 -0.05,-0.01 -0.07,0 -0.13,0.04 -0.15,0.11zm-4.24 0.15c-0.2,0.09 -0.39,0.19 -0.57,0.31 -0.07,0.04 -0.1,0.14 -0.05,0.21 0.03,0.05 0.08,0.07 0.13,0.08 0.03,0 0.06,-0.01 0.09,-0.02 0.18,-0.11 0.36,-0.2 0.54,-0.29 0.08,-0.04 0.11,-0.13 0.08,-0.21 -0.03,-0.06 -0.08,-0.09 -0.14,-0.09 -0.02,0 -0.04,0 -0.07,0.01zm5.41 0.35c-0.04,0.07 -0.02,0.17 0.05,0.21 0.18,0.11 0.35,0.22 0.51,0.35 0.03,0.02 0.06,0.03 0.09,0.03 0.05,0 0.1,-0.02 0.13,-0.06 0.05,-0.07 0.04,-0.17 -0.03,-0.22 -0.17,-0.13 -0.35,-0.25 -0.54,-0.36 -0.03,-0.02 -0.05,-0.02 -0.08,-0.02 -0.05,0 -0.1,0.03 -0.13,0.08zm-6.52 0.32c-0.17,0.13 -0.34,0.27 -0.5,0.42 -0.06,0.06 -0.07,0.16 -0.01,0.22 0.03,0.03 0.07,0.05 0.1,0.05 0.04,0 0.08,-0.01 0.12,-0.04 0.15,-0.14 0.31,-0.28 0.47,-0.4 0.07,-0.05 0.08,-0.15 0.03,-0.22 -0.03,-0.04 -0.08,-0.06 -0.12,-0.06 -0.03,0 -0.07,0.01 -0.09,0.03zm7.55 0.41c-0.06,0.06 -0.06,0.16 0.01,0.22 0.15,0.14 0.29,0.29 0.42,0.45 0.03,0.03 0.07,0.05 0.11,0.05 0.04,0 0.08,-0.01 0.11,-0.04 0.07,-0.06 0.07,-0.15 0.02,-0.22 -0.14,-0.16 -0.29,-0.32 -0.45,-0.47 -0.03,-0.03 -0.07,-0.04 -0.11,-0.04 -0.04,0 -0.08,0.02 -0.11,0.05zm-8.49 0.48c-0.14,0.16 -0.27,0.34 -0.39,0.52 -0.05,0.07 -0.03,0.17 0.04,0.22 0.02,0.02 0.05,0.03 0.08,0.03 0.05,0 0.11,-0.02 0.14,-0.07 0.11,-0.17 0.24,-0.33 0.37,-0.49 0.06,-0.07 0.05,-0.16 -0.02,-0.22 -0.03,-0.02 -0.07,-0.04 -0.1,-0.04 -0.04,0 -0.09,0.02 -0.12,0.06zm9.33 0.46c-0.07,0.05 -0.09,0.15 -0.04,0.22 0.12,0.17 0.22,0.35 0.32,0.53 0.03,0.05 0.08,0.08 0.13,0.08 0.03,0 0.06,-0 0.08,-0.02 0.08,-0.04 0.1,-0.14 0.06,-0.21 -0.1,-0.19 -0.22,-0.38 -0.34,-0.56 -0.03,-0.04 -0.08,-0.07 -0.13,-0.07 -0.03,0 -0.06,0.01 -0.09,0.03zm-10.06 0.61c-0.1,0.19 -0.19,0.39 -0.27,0.59 -0.03,0.08 0.01,0.17 0.09,0.2 0.02,0.01 0.03,0.01 0.05,0.01 0.07,0 0.13,-0.03 0.15,-0.1 0.08,-0.19 0.16,-0.38 0.26,-0.56 0.04,-0.08 0.01,-0.17 -0.06,-0.21 -0.02,-0.01 -0.05,-0.02 -0.07,-0.02 -0.06,0 -0.11,0.03 -0.14,0.08zm10.69 0.49c-0.08,0.03 -0.12,0.12 -0.09,0.2 0.08,0.19 0.14,0.39 0.2,0.58 0.02,0.07 0.08,0.11 0.14,0.11 0.02,0 0.03,-0 0.05,-0.01 0.08,-0.02 0.13,-0.11 0.11,-0.19 -0.06,-0.21 -0.13,-0.42 -0.21,-0.62 -0.02,-0.06 -0.08,-0.1 -0.14,-0.1 -0.02,0 -0.04,0 -0.06,0.01zm-11.17 0.72c-0.06,0.21 -0.1,0.42 -0.14,0.64 -0.01,0.09 0.04,0.17 0.13,0.18 0.01,0 0.01,0 0.02,0 0.08,0 0.15,-0.05 0.16,-0.13 0.03,-0.2 0.08,-0.4 0.13,-0.6 0.02,-0.08 -0.03,-0.17 -0.11,-0.19 -0.01,-0 -0.03,-0.01 -0.04,-0.01 -0.07,0 -0.13,0.05 -0.15,0.11zm-0.21 1.28c-0.01,0.22 -0.01,0.43 0,0.65 0,0.08 0.07,0.14 0.15,0.15 0.01,0 0.01,0 0.02,0 0.09,-0 0.15,-0.08 0.15,-0.16 -0.01,-0.2 -0.01,-0.41 0,-0.62 0,-0.09 -0.06,-0.15 -0.15,-0.16 -0,-0 -0.01,-0 -0.01,-0 -0.08,0 -0.15,0.06 -0.16,0.15zm0.2 1.12c-0.09,0.01 -0.14,0.09 -0.13,0.18 0.04,0.21 0.08,0.43 0.14,0.64 0.02,0.07 0.08,0.11 0.14,0.11 0.02,0 0.03,-0 0.05,-0.01 0.08,-0.02 0.13,-0.11 0.11,-0.19 -0.05,-0.2 -0.1,-0.4 -0.13,-0.6 -0.01,-0.08 -0.08,-0.13 -0.15,-0.13 -0.01,0 -0.02,0 -0.03,0zm11.29 0.73c-0.05,0.2 -0.12,0.39 -0.2,0.58 -0.03,0.08 0.01,0.17 0.09,0.2 0.02,0.01 0.03,0.01 0.05,0.01 0.07,0 0.13,-0.03 0.15,-0.1 0.08,-0.2 0.15,-0.41 0.21,-0.62 0.02,-0.08 -0.03,-0.17 -0.11,-0.19 -0.01,-0 -0.03,-0.01 -0.04,-0.01 -0.07,0 -0.13,0.04 -0.15,0.11zm-10.99 0.49c-0.08,0.03 -0.12,0.12 -0.09,0.2 0.08,0.2 0.17,0.4 0.27,0.59 0.03,0.05 0.08,0.08 0.13,0.08 0.03,0 0.06,-0 0.08,-0.02 0.08,-0.04 0.1,-0.13 0.06,-0.21 -0.1,-0.18 -0.18,-0.37 -0.26,-0.56 -0.02,-0.06 -0.08,-0.1 -0.15,-0.1 -0.02,0 -0.04,0 -0.06,0.01zm10.53 0.65c-0.1,0.18 -0.2,0.36 -0.32,0.53 -0.05,0.07 -0.03,0.17 0.04,0.22 0.02,0.02 0.05,0.03 0.08,0.03 0.05,0 0.11,-0.02 0.14,-0.07 0.12,-0.18 0.24,-0.37 0.34,-0.56 0.04,-0.08 0.01,-0.17 -0.06,-0.21 -0.02,-0.01 -0.05,-0.02 -0.07,-0.02 -0.06,0 -0.11,0.03 -0.14,0.08zm-9.96 0.48c-0.07,0.05 -0.09,0.15 -0.04,0.22 0.12,0.18 0.25,0.35 0.39,0.52 0.03,0.03 0.07,0.05 0.11,0.05 0.04,0 0.08,-0.01 0.11,-0.04 0.07,-0.06 0.07,-0.15 0.02,-0.22 -0.13,-0.16 -0.26,-0.32 -0.37,-0.49 -0.03,-0.04 -0.08,-0.07 -0.13,-0.07 -0.03,0 -0.06,0.01 -0.09,0.03zm9.27 0.54c-0.13,0.16 -0.28,0.31 -0.42,0.45 -0.06,0.06 -0.07,0.16 -0.01,0.22 0.03,0.03 0.07,0.05 0.1,0.05 0.04,0 0.08,-0.01 0.12,-0.04 0.16,-0.15 0.31,-0.31 0.45,-0.47 0.06,-0.07 0.05,-0.16 -0.02,-0.22 -0.03,-0.03 -0.07,-0.04 -0.1,-0.04 -0.04,0 -0.09,0.02 -0.12,0.05zm-8.48 0.45c-0.06,0.06 -0.06,0.16 0.01,0.22 0.16,0.15 0.32,0.29 0.5,0.42 0.03,0.02 0.06,0.03 0.09,0.03 0.05,0 0.1,-0.02 0.13,-0.06 0.05,-0.07 0.04,-0.17 -0.03,-0.22 -0.16,-0.12 -0.32,-0.26 -0.47,-0.4 -0.03,-0.03 -0.07,-0.04 -0.11,-0.04 -0.04,0 -0.08,0.02 -0.11,0.05zm7.58 0.4c-0.16,0.12 -0.33,0.24 -0.51,0.35 -0.07,0.04 -0.1,0.14 -0.05,0.21 0.03,0.05 0.08,0.07 0.13,0.08 0.03,0 0.06,-0.01 0.09,-0.02 0.19,-0.11 0.37,-0.23 0.54,-0.36 0.07,-0.05 0.08,-0.15 0.03,-0.22 -0.03,-0.04 -0.08,-0.06 -0.12,-0.06 -0.03,0 -0.07,0.01 -0.09,0.03zm-6.6 0.4c-0.04,0.07 -0.02,0.17 0.05,0.21 0.19,0.11 0.38,0.21 0.57,0.31 0.02,0.01 0.04,0.01 0.06,0.01 0.06,0 0.12,-0.03 0.15,-0.09 0.04,-0.08 0,-0.17 -0.08,-0.21 -0.19,-0.09 -0.37,-0.18 -0.54,-0.29 -0.03,-0.02 -0.05,-0.02 -0.08,-0.02 -0.05,0 -0.1,0.03 -0.13,0.08zm5.54 0.24c-0.19,0.09 -0.38,0.16 -0.57,0.23 -0.08,0.03 -0.13,0.12 -0.1,0.2 0.02,0.06 0.08,0.1 0.14,0.11 0.02,0 0.04,-0 0.06,-0.01 0.2,-0.07 0.41,-0.15 0.6,-0.24 0.08,-0.04 0.11,-0.13 0.08,-0.21 -0.03,-0.06 -0.08,-0.09 -0.14,-0.09 -0.02,0 -0.04,0 -0.07,0.01zm-4.41 0.33c-0.03,0.08 0.02,0.17 0.1,0.2 0.2,0.07 0.42,0.13 0.63,0.17 0.01,0 0.02,0 0.03,0 0.08,0 0.14,-0.05 0.16,-0.12 0.02,-0.08 -0.03,-0.17 -0.12,-0.19 -0.2,-0.04 -0.4,-0.1 -0.59,-0.16 -0.02,-0.01 -0.03,-0.01 -0.05,-0.01 -0.07,0 -0.13,0.04 -0.15,0.11zm3.24 0.07c-0.2,0.04 -0.4,0.08 -0.61,0.1 -0.09,0.01 -0.15,0.09 -0.14,0.17 0.01,0.08 0.07,0.14 0.15,0.14 0.01,0 0.02,0 0.03,-0 0.22,-0.02 0.43,-0.06 0.64,-0.1 0.08,-0.02 0.14,-0.1 0.12,-0.19 -0.02,-0.07 -0.08,-0.12 -0.15,-0.12 -0.01,0 -0.02,0 -0.03,0zm-2.01 0.24c-0.01,0.09 0.05,0.16 0.14,0.17 0.11,0.01 0.21,0.02 0.32,0.03 0.11,0.01 0.22,0.01 0.33,0.01 0.09,0 0.16,-0.07 0.16,-0.16 0,-0.09 -0.07,-0.16 -0.16,-0.16 -0.21,-0 -0.41,-0.01 -0.62,-0.03 -0.01,-0 -0.01,-0 -0.02,-0 -0.08,0 -0.15,0.06 -0.16,0.14z"/>
   <g>
    <path class="fil1 str0" d="M7.19 12.15c-2.15,-0.18 -3.86,-1.89 -4.04,-4.04l0.99 0c0.17,1.61 1.45,2.88 3.05,3.05l0 0.99zm-4.04 -4.77c0.18,-2.15 1.89,-3.86 4.04,-4.04l0 0.99c-1.61,0.17 -2.88,1.45 -3.05,3.05l-0.99 0zm4.77 -4.04c2.15,0.18 3.86,1.89 4.04,4.04l-0.99 0c-0.17,-1.61 -1.45,-2.88 -3.05,-3.05l0 -0.99zm-0.28 6.96c-0.46,0 -0.88,-0.11 -1.25,-0.33 -0.37,-0.22 -0.66,-0.52 -0.87,-0.91 -0.21,-0.39 -0.32,-0.83 -0.32,-1.32 0,-0.49 0.11,-0.93 0.32,-1.32 0.21,-0.39 0.5,-0.69 0.87,-0.91 0.37,-0.22 0.79,-0.33 1.25,-0.33 0.4,0 0.77,0.08 1.09,0.24 0.32,0.16 0.59,0.39 0.81,0.69l-0.8 0.8c-0.29,-0.38 -0.63,-0.58 -1.04,-0.58 -0.24,0 -0.45,0.06 -0.64,0.18 -0.19,0.12 -0.33,0.28 -0.44,0.5 -0.1,0.21 -0.15,0.46 -0.15,0.73 0,0.28 0.05,0.52 0.15,0.73 0.1,0.21 0.25,0.38 0.44,0.5 0.19,0.12 0.4,0.18 0.64,0.18 0.41,0 0.76,-0.19 1.04,-0.58l0.8 0.8c-0.22,0.3 -0.49,0.53 -0.81,0.69 -0.32,0.16 -0.69,0.24 -1.09,0.24zm4.32 -2.19c-0.18,2.15 -1.89,3.86 -4.04,4.04l0 -0.99c1.61,-0.17 2.88,-1.45 3.05,-3.05l0.99 0z"/>
    <path class="fil0" d="M7.94 3.21c1.1,0.09 2.1,0.58 2.84,1.32 0.74,0.74 1.23,1.74 1.32,2.84 0.01,0.08 -0.05,0.14 -0.13,0.15 -0,0 -0.01,0 -0.01,0l0 0 -0.99 0c-0.07,0 -0.13,-0.06 -0.14,-0.13 -0.08,-0.77 -0.43,-1.45 -0.95,-1.97 -0.52,-0.52 -1.21,-0.87 -1.98,-0.95 -0.07,-0.01 -0.12,-0.07 -0.12,-0.14l-0 0 0 -0.99c0,-0.08 0.06,-0.14 0.14,-0.14 0.01,0 0.01,0 0.02,0zm2.64 1.51c-0.66,-0.66 -1.54,-1.11 -2.52,-1.22l0 0.71c0.79,0.11 1.49,0.48 2.02,1.01 0.53,0.53 0.9,1.24 1.01,2.02l0.71 0c-0.11,-0.98 -0.56,-1.86 -1.22,-2.52zm-3.84 3.7c0.05,0.09 0.1,0.18 0.17,0.25 0.06,0.07 0.14,0.13 0.22,0.19 0.08,0.05 0.17,0.09 0.26,0.12 0.09,0.03 0.2,0.04 0.3,0.04 0.18,0 0.35,-0.04 0.5,-0.13 0.16,-0.09 0.3,-0.22 0.43,-0.39 0.05,-0.06 0.13,-0.07 0.19,-0.03 0.01,0.01 0.02,0.01 0.02,0.02l0.79 0.79c0.05,0.05 0.05,0.12 0.01,0.18l0 0c-0.11,0.16 -0.24,0.3 -0.39,0.42 -0.14,0.12 -0.3,0.23 -0.47,0.31 -0.17,0.09 -0.36,0.15 -0.55,0.19 -0.19,0.04 -0.39,0.06 -0.61,0.06 -0.24,0 -0.47,-0.03 -0.69,-0.09 -0.22,-0.06 -0.43,-0.14 -0.62,-0.26 -0.2,-0.12 -0.37,-0.25 -0.52,-0.41 -0.15,-0.16 -0.29,-0.34 -0.4,-0.55 -0.11,-0.2 -0.19,-0.42 -0.25,-0.66 -0.06,-0.23 -0.08,-0.48 -0.08,-0.73 0,-0.26 0.03,-0.5 0.08,-0.73 0.06,-0.23 0.14,-0.45 0.25,-0.66 0.11,-0.2 0.24,-0.39 0.4,-0.55 0.15,-0.16 0.33,-0.3 0.52,-0.41 0.39,-0.23 0.83,-0.35 1.32,-0.35 0.21,0 0.41,0.02 0.61,0.06 0.19,0.04 0.38,0.11 0.55,0.19 0.17,0.08 0.33,0.19 0.47,0.31 0.14,0.12 0.27,0.26 0.39,0.42 0.04,0.06 0.03,0.14 -0.02,0.18l-0.79 0.79c-0.05,0.05 -0.14,0.05 -0.19,0 -0,-0 -0.01,-0.01 -0.01,-0.02l-0 0c-0.13,-0.18 -0.28,-0.31 -0.43,-0.39 -0.15,-0.08 -0.32,-0.13 -0.5,-0.13 -0.21,0 -0.4,0.05 -0.57,0.15 -0.08,0.05 -0.16,0.11 -0.22,0.19 -0.06,0.07 -0.12,0.16 -0.17,0.25 -0.05,0.1 -0.08,0.2 -0.11,0.31 -0.02,0.11 -0.04,0.23 -0.04,0.36 0,0.13 0.01,0.25 0.04,0.36 0.02,0.11 0.06,0.22 0.11,0.31zm-0.04 0.43c-0.08,-0.09 -0.15,-0.2 -0.21,-0.32 -0.06,-0.12 -0.1,-0.24 -0.13,-0.38 -0.03,-0.13 -0.04,-0.27 -0.04,-0.42 0,-0.15 0.01,-0.29 0.04,-0.42 0.03,-0.13 0.07,-0.26 0.13,-0.38 0.06,-0.12 0.13,-0.22 0.21,-0.32 0.08,-0.09 0.18,-0.17 0.28,-0.24 0.21,-0.13 0.45,-0.2 0.71,-0.2 0.23,0 0.44,0.05 0.63,0.16 0.15,0.08 0.29,0.2 0.42,0.35l0.6 -0.61c-0.08,-0.1 -0.17,-0.2 -0.27,-0.28 -0.13,-0.11 -0.27,-0.2 -0.42,-0.27 -0.15,-0.07 -0.31,-0.13 -0.49,-0.17 -0.17,-0.04 -0.36,-0.06 -0.55,-0.06 -0.44,0 -0.83,0.1 -1.18,0.31 -0.17,0.1 -0.33,0.23 -0.46,0.37 -0.14,0.14 -0.25,0.31 -0.35,0.49 -0.1,0.19 -0.18,0.38 -0.22,0.59 -0.05,0.21 -0.07,0.43 -0.07,0.67 0,0.24 0.03,0.46 0.07,0.67 0.05,0.21 0.12,0.4 0.22,0.59 0.1,0.18 0.22,0.35 0.35,0.49 0.14,0.14 0.29,0.26 0.46,0.37 0.17,0.1 0.36,0.18 0.55,0.23 0.2,0.05 0.4,0.08 0.63,0.08 0.19,0 0.38,-0.02 0.55,-0.06 0.17,-0.04 0.33,-0.09 0.49,-0.17 0.15,-0.07 0.29,-0.17 0.42,-0.27 0.1,-0.08 0.19,-0.18 0.27,-0.28l-0.6 -0.61c-0.13,0.15 -0.27,0.26 -0.42,0.35 -0.19,0.11 -0.41,0.16 -0.63,0.16 -0.13,0 -0.26,-0.02 -0.38,-0.05 -0.12,-0.03 -0.23,-0.08 -0.34,-0.15 -0.11,-0.07 -0.2,-0.15 -0.28,-0.24zm-3.55 -0.88l0.99 0c0.07,0 0.13,0.06 0.14,0.13 0.08,0.77 0.43,1.45 0.95,1.97 0.52,0.52 1.21,0.87 1.98,0.95 0.07,0.01 0.12,0.07 0.12,0.14l0 0 0 0.99c0,0.08 -0.06,0.14 -0.14,0.14 -0.01,0 -0.01,-0 -0.02,-0 -1.1,-0.09 -2.1,-0.58 -2.84,-1.32 -0.74,-0.74 -1.23,-1.74 -1.32,-2.84 -0.01,-0.08 0.05,-0.14 0.13,-0.15 0,-0 0.01,-0 0.01,-0l0 0zm0.86 0.28l-0.71 0c0.11,0.98 0.56,1.86 1.22,2.52 0.66,0.66 1.54,1.11 2.52,1.22l0 -0.71c-0.79,-0.11 -1.49,-0.48 -2.02,-1.01 -0.53,-0.53 -0.9,-1.24 -1.01,-2.02zm3.9 2.78c0.77,-0.08 1.45,-0.43 1.97,-0.95 0.52,-0.52 0.87,-1.21 0.95,-1.98 0.01,-0.07 0.07,-0.12 0.14,-0.12l0 -0 0.99 0c0.08,0 0.14,0.06 0.14,0.14 0,0.01 -0,0.01 -0,0.02 -0.09,1.1 -0.58,2.1 -1.32,2.84 -0.74,0.74 -1.74,1.23 -2.84,1.32 -0.08,0.01 -0.14,-0.05 -0.15,-0.13 -0,-0 -0,-0.01 -0,-0.01l-0 0 0 -0.99c0,-0.07 0.06,-0.13 0.13,-0.14zm2.17 -0.75c-0.53,0.53 -1.24,0.9 -2.02,1.01l0 0.71c0.98,-0.11 1.86,-0.56 2.52,-1.22 0.66,-0.66 1.11,-1.54 1.22,-2.52l-0.71 0c-0.11,0.79 -0.48,1.49 -1.01,2.02zm-2.76 -6.93l0 0.99c0,0.07 -0.06,0.13 -0.13,0.14 -0.77,0.08 -1.45,0.43 -1.97,0.95 -0.52,0.52 -0.87,1.21 -0.95,1.98 -0.01,0.07 -0.07,0.12 -0.14,0.12l0 0 -0.99 0c-0.08,0 -0.14,-0.06 -0.14,-0.14 0,-0.01 0,-0.01 0,-0.02 0.09,-1.1 0.58,-2.1 1.32,-2.84 0.74,-0.74 1.74,-1.23 2.84,-1.32 0.08,-0.01 0.14,0.05 0.15,0.13 0,0 0,0.01 0,0.01l0 0zm-0.28 0.86l0 -0.71c-0.98,0.11 -1.86,0.56 -2.52,1.22 -0.66,0.66 -1.11,1.54 -1.22,2.52l0.71 0c0.11,-0.79 0.48,-1.49 1.01,-2.02 0.53,-0.53 1.24,-0.9 2.02,-1.01z"/>
   </g>
   <g>
    <g>
     <path class="fil1" d="M10.04 7.63l0.31 0c0.03,0 0.05,-0.02 0.05,-0.05l0 -0.07c0,-0.03 -0.02,-0.05 -0.05,-0.05l-0.31 0c-0.03,0 -0.05,0.02 -0.05,0.05l0 0.07c0,0.03 0.02,0.05 0.05,0.05z"/>
     <path class="fil1" d="M10.28 7.27l0 -0.07c0,-0.03 -0.02,-0.05 -0.05,-0.05l-0.31 0c-0.03,0 -0.05,0.02 -0.05,0.05l0 0.07c0,0.03 0.02,0.05 0.05,0.05l0.31 0c0.03,0 0.05,-0.02 0.05,-0.05z"/>
    </g>
    <g>
     <path class="fil1" d="M10.04 8.12l0.31 0c0.03,0 0.05,0.02 0.05,0.05l0 0.07c0,0.03 -0.02,0.05 -0.05,0.05l-0.31 0c-0.03,0 -0.05,-0.02 -0.05,-0.05l0 -0.07c0,-0.03 0.02,-0.05 0.05,-0.05z"/>
     <path class="fil1" d="M10.28 8.47l0 0.07c0,0.03 -0.02,0.05 -0.05,0.05l-0.31 0c-0.03,0 -0.05,-0.02 -0.05,-0.05l0 -0.07c0,-0.03 0.02,-0.05 0.05,-0.05l0.31 0c0.03,0 0.05,0.02 0.05,0.05z"/>
    </g>
   </g>
   <g>
    <path class="fil1" d="M7.18 1.59l0.1 -0.01c0.04,-0 0.07,-0.04 0.07,-0.08l-0.02 -0.46c-0,-0.04 -0.04,-0.07 -0.08,-0.07l-0.1 0.01c-0.04,0 -0.07,0.04 -0.07,0.08l0.02 0.46c0,0.04 0.04,0.07 0.08,0.07z"/>
    <path class="fil1" d="M6.88 1.61l0.05 -0.01c0.02,-0 0.03,-0.04 0.03,-0.08l-0.05 -0.46c-0,-0.04 -0.02,-0.07 -0.05,-0.07l-0.05 0.01c-0.02,0 -0.03,0.04 -0.03,0.08l0.05 0.46c0,0.04 0.02,0.07 0.05,0.07z"/>
    <path class="fil1" d="M6.54 1.66l0.1 -0.02c0.04,-0.01 0.07,-0.04 0.06,-0.09l-0.07 -0.45c-0.01,-0.04 -0.04,-0.07 -0.09,-0.06l-0.1 0.02c-0.04,0.01 -0.07,0.04 -0.06,0.09l0.07 0.45c0.01,0.04 0.04,0.07 0.09,0.06z"/>
    <path class="fil1" d="M6.25 1.71l0.05 -0.01c0.02,-0 0.03,-0.04 0.02,-0.08l-0.1 -0.45c-0.01,-0.04 -0.03,-0.07 -0.05,-0.07l-0.05 0.01c-0.02,0 -0.03,0.04 -0.02,0.08l0.1 0.45c0.01,0.04 0.03,0.07 0.05,0.07z"/>
    <path class="fil1" d="M5.91 1.8l0.1 -0.03c0.04,-0.01 0.06,-0.05 0.05,-0.09l-0.12 -0.44c-0.01,-0.04 -0.05,-0.06 -0.09,-0.05l-0.1 0.03c-0.04,0.01 -0.06,0.05 -0.05,0.09l0.12 0.44c0.01,0.04 0.05,0.06 0.09,0.05z"/>
    <path class="fil1" d="M5.62 1.88l0.05 -0.02c0.02,-0.01 0.03,-0.04 0.01,-0.08l-0.14 -0.44c-0.01,-0.04 -0.04,-0.07 -0.06,-0.06l-0.05 0.02c-0.02,0.01 -0.03,0.04 -0.01,0.08l0.14 0.44c0.01,0.04 0.04,0.07 0.06,0.06z"/>
    <path class="fil1" d="M5.29 2l0.09 -0.04c0.04,-0.01 0.06,-0.06 0.04,-0.1l-0.16 -0.43c-0.01,-0.04 -0.06,-0.06 -0.1,-0.04l-0.09 0.04c-0.04,0.01 -0.06,0.06 -0.04,0.1l0.16 0.43c0.01,0.04 0.06,0.06 0.1,0.04z"/>
    <path class="fil1" d="M5.02 2.12l0.05 -0.02c0.02,-0.01 0.02,-0.05 0,-0.08l-0.19 -0.42c-0.02,-0.04 -0.05,-0.06 -0.07,-0.05l-0.05 0.02c-0.02,0.01 -0.02,0.05 -0,0.08l0.19 0.42c0.02,0.04 0.05,0.06 0.06,0.05z"/>
    <path class="fil1" d="M4.71 2.27l0.09 -0.05c0.04,-0.02 0.05,-0.06 0.03,-0.1l-0.21 -0.41c-0.02,-0.04 -0.06,-0.05 -0.1,-0.03l-0.09 0.05c-0.04,0.02 -0.05,0.06 -0.03,0.1l0.21 0.41c0.02,0.04 0.06,0.05 0.1,0.03z"/>
    <path class="fil1" d="M4.44 2.41l0.04 -0.03c0.02,-0.01 0.02,-0.05 -0,-0.08l-0.23 -0.4c-0.02,-0.04 -0.05,-0.06 -0.07,-0.05l-0.04 0.03c-0.02,0.01 -0.02,0.05 0,0.08l0.23 0.4c0.02,0.04 0.05,0.06 0.07,0.05z"/>
    <path class="fil1" d="M4.15 2.6l0.09 -0.06c0.03,-0.02 0.04,-0.07 0.02,-0.1l-0.25 -0.39c-0.02,-0.03 -0.07,-0.04 -0.1,-0.02l-0.09 0.06c-0.03,0.02 -0.04,0.07 -0.02,0.1l0.25 0.39c0.02,0.03 0.07,0.04 0.1,0.02z"/>
    <path class="fil1" d="M3.9 2.77l0.04 -0.03c0.02,-0.01 0.01,-0.05 -0.01,-0.08l-0.27 -0.37c-0.02,-0.03 -0.06,-0.05 -0.07,-0.04l-0.04 0.03c-0.02,0.01 -0.01,0.05 0.01,0.08l0.27 0.37c0.02,0.03 0.06,0.05 0.07,0.04z"/>
    <path class="fil1" d="M3.63 2.98l0.08 -0.06c0.03,-0.03 0.04,-0.07 0.01,-0.11l-0.29 -0.36c-0.03,-0.03 -0.07,-0.04 -0.11,-0.01l-0.08 0.06c-0.03,0.03 -0.04,0.07 -0.01,0.11l0.29 0.36c0.03,0.03 0.07,0.04 0.11,0.01z"/>
    <path class="fil1" d="M3.4 3.18l0.04 -0.03c0.02,-0.01 0.01,-0.05 -0.02,-0.08l-0.31 -0.34c-0.03,-0.03 -0.06,-0.04 -0.08,-0.03l-0.04 0.03c-0.02,0.01 -0.01,0.05 0.02,0.08l0.31 0.34c0.03,0.03 0.06,0.04 0.08,0.03z"/>
    <path class="fil1" d="M3.15 3.42l0.07 -0.07c0.03,-0.03 0.03,-0.08 0,-0.11l-0.32 -0.32c-0.03,-0.03 -0.08,-0.03 -0.11,0l-0.07 0.07c-0.03,0.03 -0.03,0.08 0,0.11l0.32 0.32c0.03,0.03 0.08,0.03 0.11,0z"/>
    <path class="fil1" d="M2.95 3.64l0.03 -0.04c0.01,-0.02 0,-0.05 -0.03,-0.08l-0.34 -0.31c-0.03,-0.03 -0.07,-0.04 -0.08,-0.02l-0.03 0.04c-0.01,0.02 -0,0.05 0.03,0.08l0.34 0.31c0.03,0.03 0.07,0.04 0.08,0.02z"/>
    <path class="fil1" d="M2.72 3.9l0.06 -0.08c0.03,-0.03 0.02,-0.08 -0.01,-0.11l-0.36 -0.29c-0.03,-0.03 -0.08,-0.02 -0.11,0.01l-0.06 0.08c-0.03,0.03 -0.02,0.08 0.01,0.11l0.36 0.29c0.03,0.03 0.08,0.02 0.11,-0.01z"/>
    <path class="fil1" d="M2.54 4.14l0.03 -0.04c0.01,-0.02 -0,-0.05 -0.04,-0.07l-0.37 -0.27c-0.03,-0.02 -0.07,-0.03 -0.08,-0.01l-0.03 0.04c-0.01,0.02 0,0.05 0.04,0.07l0.37 0.27c0.03,0.02 0.07,0.03 0.08,0.01z"/>
    <path class="fil1" d="M2.35 4.43l0.06 -0.09c0.02,-0.03 0.01,-0.08 -0.02,-0.1l-0.39 -0.25c-0.03,-0.02 -0.08,-0.01 -0.1,0.02l-0.06 0.09c-0.02,0.03 -0.01,0.08 0.02,0.1l0.39 0.25c0.03,0.02 0.08,0.01 0.1,-0.02z"/>
    <path class="fil1" d="M2.19 4.69l0.03 -0.04c0.01,-0.02 -0.01,-0.05 -0.05,-0.07l-0.4 -0.23c-0.04,-0.02 -0.07,-0.02 -0.08,-0l-0.03 0.04c-0.01,0.02 0.01,0.05 0.05,0.07l0.4 0.23c0.04,0.02 0.07,0.02 0.08,0z"/>
    <path class="fil1" d="M2.03 4.99l0.05 -0.09c0.02,-0.04 0,-0.08 -0.03,-0.1l-0.41 -0.21c-0.04,-0.02 -0.08,-0 -0.1,0.03l-0.05 0.09c-0.02,0.04 -0,0.08 0.03,0.1l0.41 0.21c0.04,0.02 0.08,0 0.1,-0.03z"/>
    <path class="fil1" d="M1.9 5.26l0.02 -0.05c0.01,-0.02 -0.02,-0.05 -0.05,-0.07l-0.42 -0.19c-0.04,-0.02 -0.08,-0.02 -0.08,0l-0.02 0.05c-0.01,0.02 0.02,0.05 0.05,0.06l0.42 0.19c0.04,0.02 0.08,0.02 0.08,-0z"/>
    <path class="fil1" d="M1.77 5.58l0.04 -0.09c0.01,-0.04 -0,-0.08 -0.04,-0.1l-0.43 -0.16c-0.04,-0.01 -0.08,0 -0.1,0.04l-0.04 0.09c-0.01,0.04 0,0.08 0.04,0.1l0.43 0.16c0.04,0.01 0.08,-0 0.1,-0.04z"/>
    <path class="fil1" d="M1.67 5.87l0.02 -0.05c0.01,-0.02 -0.02,-0.05 -0.06,-0.06l-0.44 -0.14c-0.04,-0.01 -0.08,-0.01 -0.08,0.01l-0.02 0.05c-0.01,0.02 0.02,0.05 0.06,0.06l0.44 0.14c0.04,0.01 0.08,0.01 0.08,-0.01z"/>
    <path class="fil1" d="M1.57 6.2l0.03 -0.1c0.01,-0.04 -0.01,-0.08 -0.05,-0.09l-0.44 -0.12c-0.04,-0.01 -0.08,0.01 -0.09,0.05l-0.03 0.1c-0.01,0.04 0.01,0.08 0.05,0.09l0.44 0.12c0.04,0.01 0.08,-0.01 0.09,-0.05z"/>
    <path class="fil1" d="M1.51 6.49l0.01 -0.05c0,-0.02 -0.03,-0.04 -0.07,-0.05l-0.45 -0.1c-0.04,-0.01 -0.08,0 -0.08,0.02l-0.01 0.05c-0,0.02 0.03,0.04 0.07,0.05l0.45 0.1c0.04,0.01 0.08,-0 0.08,-0.02z"/>
    <path class="fil1" d="M1.45 6.83l0.02 -0.1c0.01,-0.04 -0.02,-0.08 -0.06,-0.09l-0.45 -0.07c-0.04,-0.01 -0.08,0.02 -0.09,0.06l-0.02 0.1c-0.01,0.04 0.02,0.08 0.06,0.09l0.45 0.07c0.04,0.01 0.08,-0.02 0.09,-0.06z"/>
    <path class="fil1" d="M1.41 7.13l0.01 -0.05c0,-0.02 -0.03,-0.04 -0.07,-0.05l-0.46 -0.05c-0.04,-0 -0.08,0.01 -0.08,0.03l-0.01 0.05c-0,0.02 0.03,0.04 0.07,0.05l0.46 0.05c0.04,0 0.08,-0.01 0.08,-0.03z"/>
    <path class="fil1" d="M1.38 7.48l0.01 -0.1c0,-0.04 -0.03,-0.08 -0.07,-0.08l-0.46 -0.02c-0.04,-0 -0.08,0.03 -0.08,0.07l-0.01 0.1c-0,0.04 0.03,0.08 0.07,0.08l0.46 0.02c0.04,0 0.08,-0.03 0.08,-0.07z"/>
    <path class="fil1" d="M1.38 7.78l0 -0.05c0,-0.02 -0.03,-0.04 -0.07,-0.04l-0.46 0c-0.04,0 -0.07,0.02 -0.07,0.04l0 0.05c0,0.02 0.03,0.04 0.07,0.04l0.46 0c0.04,0 0.07,-0.02 0.07,-0.04z"/>
    <path class="fil1" d="M1.39 8.13l-0.01 -0.1c-0,-0.04 -0.04,-0.07 -0.08,-0.07l-0.46 0.02c-0.04,0 -0.07,0.04 -0.07,0.08l0.01 0.1c0,0.04 0.04,0.07 0.08,0.07l0.46 -0.02c0.04,-0 0.07,-0.04 0.07,-0.08z"/>
    <path class="fil1" d="M1.41 8.42l-0.01 -0.05c-0,-0.02 -0.04,-0.03 -0.08,-0.03l-0.46 0.05c-0.04,0 -0.07,0.02 -0.07,0.05l0.01 0.05c0,0.02 0.04,0.03 0.08,0.03l0.46 -0.05c0.04,-0 0.07,-0.02 0.07,-0.05z"/>
    <path class="fil1" d="M1.46 8.77l-0.02 -0.1c-0.01,-0.04 -0.04,-0.07 -0.09,-0.06l-0.45 0.07c-0.04,0.01 -0.07,0.04 -0.06,0.09l0.02 0.1c0.01,0.04 0.04,0.07 0.09,0.06l0.45 -0.07c0.04,-0.01 0.07,-0.04 0.06,-0.09z"/>
    <path class="fil1" d="M1.52 9.06l-0.01 -0.05c-0,-0.02 -0.04,-0.03 -0.08,-0.02l-0.45 0.1c-0.04,0.01 -0.07,0.03 -0.07,0.05l0.01 0.05c0,0.02 0.04,0.03 0.08,0.02l0.45 -0.1c0.04,-0.01 0.07,-0.03 0.07,-0.05z"/>
    <path class="fil1" d="M1.6 9.4l-0.03 -0.1c-0.01,-0.04 -0.05,-0.06 -0.09,-0.05l-0.44 0.12c-0.04,0.01 -0.06,0.05 -0.05,0.09l0.03 0.1c0.01,0.04 0.05,0.06 0.09,0.05l0.44 -0.12c0.04,-0.01 0.06,-0.05 0.05,-0.09z"/>
    <path class="fil1" d="M1.69 9.69l-0.02 -0.05c-0.01,-0.02 -0.04,-0.03 -0.08,-0.01l-0.44 0.14c-0.04,0.01 -0.07,0.04 -0.06,0.06l0.02 0.05c0.01,0.02 0.04,0.03 0.08,0.01l0.44 -0.14c0.04,-0.01 0.07,-0.04 0.06,-0.06z"/>
    <path class="fil1" d="M1.81 10.01l-0.04 -0.09c-0.01,-0.04 -0.06,-0.06 -0.1,-0.04l-0.43 0.16c-0.04,0.01 -0.06,0.06 -0.04,0.1l0.04 0.09c0.01,0.04 0.06,0.06 0.1,0.04l0.43 -0.16c0.04,-0.01 0.06,-0.06 0.04,-0.1z"/>
    <path class="fil1" d="M1.92 10.29l-0.02 -0.05c-0.01,-0.02 -0.05,-0.02 -0.08,-0l-0.42 0.19c-0.04,0.02 -0.06,0.05 -0.05,0.07l0.02 0.05c0.01,0.02 0.05,0.02 0.08,0l0.42 -0.19c0.04,-0.02 0.06,-0.05 0.05,-0.06z"/>
    <path class="fil1" d="M2.07 10.6l-0.05 -0.09c-0.02,-0.04 -0.06,-0.05 -0.1,-0.03l-0.41 0.21c-0.04,0.02 -0.05,0.06 -0.03,0.1l0.05 0.09c0.02,0.04 0.06,0.05 0.1,0.03l0.41 -0.21c0.04,-0.02 0.05,-0.06 0.03,-0.1z"/>
    <path class="fil1" d="M2.22 10.86l-0.03 -0.04c-0.01,-0.02 -0.05,-0.02 -0.08,0l-0.4 0.23c-0.04,0.02 -0.06,0.05 -0.05,0.07l0.03 0.04c0.01,0.02 0.05,0.02 0.08,-0l0.4 -0.23c0.04,-0.02 0.06,-0.05 0.05,-0.07z"/>
    <path class="fil1" d="M2.4 11.16l-0.06 -0.09c-0.02,-0.03 -0.07,-0.04 -0.1,-0.02l-0.39 0.25c-0.03,0.02 -0.04,0.07 -0.02,0.1l0.06 0.09c0.02,0.03 0.07,0.04 0.1,0.02l0.39 -0.25c0.03,-0.02 0.04,-0.07 0.02,-0.1z"/>
    <path class="fil1" d="M2.57 11.4l-0.03 -0.04c-0.01,-0.02 -0.05,-0.01 -0.08,0.01l-0.37 0.27c-0.03,0.02 -0.05,0.06 -0.04,0.07l0.03 0.04c0.01,0.02 0.05,0.01 0.08,-0.01l0.37 -0.27c0.03,-0.02 0.05,-0.06 0.04,-0.07z"/>
    <path class="fil1" d="M2.79 11.68l-0.06 -0.08c-0.03,-0.03 -0.07,-0.04 -0.11,-0.01l-0.36 0.29c-0.03,0.03 -0.04,0.07 -0.01,0.11l0.06 0.08c0.03,0.03 0.07,0.04 0.11,0.01l0.36 -0.29c0.03,-0.03 0.04,-0.07 0.01,-0.11z"/>
    <path class="fil1" d="M2.98 11.9l-0.03 -0.04c-0.01,-0.02 -0.05,-0.01 -0.08,0.02l-0.34 0.31c-0.03,0.03 -0.04,0.06 -0.03,0.08l0.03 0.04c0.01,0.02 0.05,0.01 0.08,-0.02l0.34 -0.31c0.03,-0.03 0.04,-0.06 0.03,-0.08z"/>
    <path class="fil1" d="M3.22 12.16l-0.07 -0.07c-0.03,-0.03 -0.08,-0.03 -0.11,0l-0.32 0.32c-0.03,0.03 -0.03,0.08 0,0.11l0.07 0.07c0.03,0.03 0.08,0.03 0.11,-0l0.32 -0.32c0.03,-0.03 0.03,-0.08 0,-0.11z"/>
    <path class="fil1" d="M3.44 12.36l-0.04 -0.03c-0.02,-0.01 -0.05,-0 -0.08,0.03l-0.31 0.34c-0.03,0.03 -0.04,0.07 -0.02,0.08l0.04 0.03c0.02,0.01 0.05,0 0.08,-0.03l0.31 -0.34c0.03,-0.03 0.04,-0.07 0.02,-0.08z"/>
    <path class="fil1" d="M3.71 12.58l-0.08 -0.06c-0.03,-0.03 -0.08,-0.02 -0.11,0.01l-0.29 0.36c-0.03,0.03 -0.02,0.08 0.01,0.11l0.08 0.06c0.03,0.03 0.08,0.02 0.11,-0.01l0.29 -0.36c0.03,-0.03 0.02,-0.08 -0.01,-0.11z"/>
    <path class="fil1" d="M3.95 12.76l-0.04 -0.03c-0.02,-0.01 -0.05,0 -0.07,0.04l-0.27 0.37c-0.02,0.03 -0.03,0.07 -0.01,0.08l0.04 0.03c0.02,0.01 0.05,-0 0.07,-0.04l0.27 -0.37c0.02,-0.03 0.03,-0.07 0.01,-0.08z"/>
    <path class="fil1" d="M4.23 12.96l-0.09 -0.06c-0.03,-0.02 -0.08,-0.01 -0.1,0.02l-0.25 0.39c-0.02,0.03 -0.01,0.08 0.02,0.1l0.09 0.06c0.03,0.02 0.08,0.01 0.1,-0.02l0.25 -0.39c0.02,-0.03 0.01,-0.08 -0.02,-0.1z"/>
    <path class="fil1" d="M4.49 13.12l-0.04 -0.03c-0.02,-0.01 -0.05,0.01 -0.07,0.05l-0.23 0.4c-0.02,0.04 -0.02,0.07 -0,0.08l0.04 0.03c0.02,0.01 0.05,-0.01 0.07,-0.05l0.23 -0.4c0.02,-0.04 0.02,-0.07 0,-0.08z"/>
    <path class="fil1" d="M4.8 13.28l-0.09 -0.05c-0.04,-0.02 -0.08,-0 -0.1,0.03l-0.21 0.41c-0.02,0.04 -0,0.08 0.03,0.1l0.09 0.05c0.04,0.02 0.08,0 0.1,-0.03l0.21 -0.41c0.02,-0.04 0,-0.08 -0.03,-0.1z"/>
    <path class="fil1" d="M5.07 13.41l-0.05 -0.02c-0.02,-0.01 -0.05,0.02 -0.06,0.05l-0.19 0.42c-0.02,0.04 -0.02,0.08 0,0.08l0.05 0.02c0.02,0.01 0.05,-0.02 0.07,-0.05l0.19 -0.42c0.02,-0.04 0.02,-0.08 -0,-0.08z"/>
    <path class="fil1" d="M5.39 13.54l-0.09 -0.04c-0.04,-0.01 -0.08,0 -0.1,0.04l-0.16 0.43c-0.01,0.04 0,0.08 0.04,0.1l0.09 0.04c0.04,0.01 0.08,-0 0.1,-0.04l0.16 -0.43c0.01,-0.04 -0,-0.08 -0.04,-0.1z"/>
    <path class="fil1" d="M5.67 13.64l-0.05 -0.02c-0.02,-0.01 -0.05,0.02 -0.06,0.06l-0.14 0.44c-0.01,0.04 -0.01,0.08 0.01,0.08l0.05 0.02c0.02,0.01 0.05,-0.02 0.06,-0.06l0.14 -0.44c0.01,-0.04 0.01,-0.08 -0.01,-0.08z"/>
    <path class="fil1" d="M6 13.73l-0.1 -0.03c-0.04,-0.01 -0.08,0.01 -0.09,0.05l-0.12 0.44c-0.01,0.04 0.01,0.08 0.05,0.09l0.1 0.03c0.04,0.01 0.08,-0.01 0.09,-0.05l0.12 -0.44c0.01,-0.04 -0.01,-0.08 -0.05,-0.09z"/>
    <path class="fil1" d="M6.3 13.8l-0.05 -0.01c-0.02,-0 -0.04,0.03 -0.05,0.07l-0.1 0.45c-0.01,0.04 0,0.08 0.02,0.08l0.05 0.01c0.02,0 0.04,-0.03 0.05,-0.07l0.1 -0.45c0.01,-0.04 -0,-0.08 -0.02,-0.08z"/>
    <path class="fil1" d="M6.64 13.86l-0.1 -0.02c-0.04,-0.01 -0.08,0.02 -0.09,0.06l-0.07 0.45c-0.01,0.04 0.02,0.08 0.06,0.09l0.1 0.02c0.04,0.01 0.08,-0.02 0.09,-0.06l0.07 -0.45c0.01,-0.04 -0.02,-0.08 -0.06,-0.09z"/>
    <path class="fil1" d="M6.93 13.9l-0.05 -0.01c-0.02,-0 -0.04,0.03 -0.05,0.07l-0.05 0.46c-0,0.04 0.01,0.08 0.03,0.08l0.05 0.01c0.02,0 0.04,-0.03 0.05,-0.07l0.05 -0.46c0,-0.04 -0.01,-0.08 -0.03,-0.08z"/>
    <path class="fil1" d="M7.28 13.92l-0.1 -0.01c-0.04,-0 -0.08,0.03 -0.08,0.07l-0.02 0.46c-0,0.04 0.03,0.08 0.07,0.08l0.1 0.01c0.04,0 0.08,-0.03 0.08,-0.07l0.02 -0.46c0,-0.04 -0.03,-0.08 -0.07,-0.08z"/>
    <path class="fil1" d="M7.58 13.93l-0.05 0c-0.02,0 -0.04,0.03 -0.04,0.07l0 0.46c0,0.04 0.02,0.07 0.04,0.07l0.05 0c0.02,0 0.04,-0.03 0.04,-0.07l0 -0.46c0,-0.04 -0.02,-0.07 -0.04,-0.07z"/>
    <path class="fil1" d="M7.93 13.92l-0.1 0.01c-0.04,0 -0.07,0.04 -0.07,0.08l0.02 0.46c0,0.04 0.04,0.07 0.08,0.07l0.1 -0.01c0.04,-0 0.07,-0.04 0.07,-0.08l-0.02 -0.46c-0,-0.04 -0.04,-0.07 -0.08,-0.07z"/>
    <path class="fil1" d="M8.23 13.89l-0.05 0.01c-0.02,0 -0.03,0.04 -0.03,0.08l0.05 0.46c0,0.04 0.02,0.07 0.05,0.07l0.05 -0.01c0.02,-0 0.03,-0.04 0.03,-0.08l-0.05 -0.46c-0,-0.04 -0.02,-0.07 -0.05,-0.07z"/>
    <path class="fil1" d="M8.57 13.85l-0.1 0.02c-0.04,0.01 -0.07,0.04 -0.06,0.09l0.07 0.45c0.01,0.04 0.04,0.07 0.09,0.06l0.1 -0.02c0.04,-0.01 0.07,-0.04 0.06,-0.09l-0.07 -0.45c-0.01,-0.04 -0.04,-0.07 -0.09,-0.06z"/>
    <path class="fil1" d="M8.87 13.79l-0.05 0.01c-0.02,0 -0.03,0.04 -0.02,0.08l0.1 0.45c0.01,0.04 0.03,0.07 0.05,0.07l0.05 -0.01c0.02,-0 0.03,-0.04 0.02,-0.08l-0.1 -0.45c-0.01,-0.04 -0.03,-0.07 -0.05,-0.07z"/>
    <path class="fil1" d="M9.2 13.71l-0.1 0.03c-0.04,0.01 -0.06,0.05 -0.05,0.09l0.12 0.44c0.01,0.04 0.05,0.06 0.09,0.05l0.1 -0.03c0.04,-0.01 0.06,-0.05 0.05,-0.09l-0.12 -0.44c-0.01,-0.04 -0.05,-0.06 -0.09,-0.05z"/>
    <path class="fil1" d="M9.49 13.62l-0.05 0.02c-0.02,0.01 -0.03,0.04 -0.01,0.08l0.14 0.44c0.01,0.04 0.04,0.07 0.06,0.06l0.05 -0.02c0.02,-0.01 0.03,-0.04 0.01,-0.08l-0.14 -0.44c-0.01,-0.04 -0.04,-0.07 -0.06,-0.06z"/>
    <path class="fil1" d="M9.82 13.5l-0.09 0.04c-0.04,0.01 -0.06,0.06 -0.04,0.1l0.16 0.43c0.01,0.04 0.06,0.06 0.1,0.04l0.09 -0.04c0.04,-0.01 0.06,-0.06 0.04,-0.1l-0.16 -0.43c-0.01,-0.04 -0.06,-0.06 -0.1,-0.04z"/>
    <path class="fil1" d="M10.09 13.39l-0.05 0.02c-0.02,0.01 -0.02,0.05 -0,0.08l0.19 0.42c0.02,0.04 0.05,0.06 0.06,0.05l0.05 -0.02c0.02,-0.01 0.02,-0.05 0,-0.08l-0.19 -0.42c-0.02,-0.04 -0.05,-0.06 -0.07,-0.05z"/>
    <path class="fil1" d="M10.41 13.23l-0.09 0.05c-0.04,0.02 -0.05,0.06 -0.03,0.1l0.21 0.41c0.02,0.04 0.06,0.05 0.1,0.03l0.09 -0.05c0.04,-0.02 0.05,-0.06 0.03,-0.1l-0.21 -0.41c-0.02,-0.04 -0.06,-0.05 -0.1,-0.03z"/>
    <path class="fil1" d="M10.67 13.09l-0.04 0.03c-0.02,0.01 -0.02,0.05 0,0.08l0.23 0.4c0.02,0.04 0.05,0.06 0.07,0.05l0.04 -0.03c0.02,-0.01 0.02,-0.05 -0,-0.08l-0.23 -0.4c-0.02,-0.04 -0.05,-0.06 -0.07,-0.05z"/>
    <path class="fil1" d="M10.96 12.91l-0.09 0.06c-0.03,0.02 -0.04,0.07 -0.02,0.1l0.25 0.39c0.02,0.03 0.07,0.04 0.1,0.02l0.09 -0.06c0.03,-0.02 0.04,-0.07 0.02,-0.1l-0.25 -0.39c-0.02,-0.03 -0.07,-0.04 -0.1,-0.02z"/>
    <path class="fil1" d="M11.21 12.73l-0.04 0.03c-0.02,0.01 -0.01,0.05 0.01,0.08l0.27 0.37c0.02,0.03 0.06,0.05 0.07,0.04l0.04 -0.03c0.02,-0.01 0.01,-0.05 -0.01,-0.08l-0.27 -0.37c-0.02,-0.03 -0.06,-0.05 -0.07,-0.04z"/>
    <path class="fil1" d="M11.48 12.52l-0.08 0.06c-0.03,0.03 -0.04,0.07 -0.01,0.11l0.29 0.36c0.03,0.03 0.07,0.04 0.11,0.01l0.08 -0.06c0.03,-0.03 0.04,-0.07 0.01,-0.11l-0.29 -0.36c-0.03,-0.03 -0.07,-0.04 -0.11,-0.01z"/>
    <path class="fil1" d="M11.71 12.33l-0.04 0.03c-0.02,0.01 -0.01,0.05 0.02,0.08l0.31 0.34c0.03,0.03 0.06,0.04 0.08,0.03l0.04 -0.03c0.02,-0.01 0.01,-0.05 -0.02,-0.08l-0.31 -0.34c-0.03,-0.03 -0.06,-0.04 -0.08,-0.03z"/>
    <path class="fil1" d="M11.96 12.08l-0.07 0.07c-0.03,0.03 -0.03,0.08 0,0.11l0.32 0.32c0.03,0.03 0.08,0.03 0.11,0l0.07 -0.07c0.03,-0.03 0.03,-0.08 0,-0.11l-0.33 -0.32c-0.03,-0.03 -0.08,-0.03 -0.11,-0z"/>
    <path class="fil1" d="M12.16 11.87l-0.03 0.04c-0.01,0.02 -0,0.05 0.03,0.08l0.34 0.31c0.03,0.03 0.07,0.04 0.08,0.02l0.03 -0.04c0.01,-0.02 0,-0.05 -0.03,-0.08l-0.34 -0.31c-0.03,-0.03 -0.07,-0.04 -0.08,-0.02z"/>
    <path class="fil1" d="M12.39 11.6l-0.06 0.08c-0.03,0.03 -0.02,0.08 0.01,0.11l0.36 0.29c0.03,0.03 0.08,0.02 0.11,-0.01l0.06 -0.08c0.03,-0.03 0.02,-0.08 -0.01,-0.11l-0.36 -0.29c-0.03,-0.03 -0.08,-0.02 -0.11,0.01z"/>
    <path class="fil1" d="M12.57 11.36l-0.03 0.04c-0.01,0.02 0,0.05 0.04,0.07l0.37 0.27c0.03,0.02 0.07,0.03 0.08,0.01l0.03 -0.04c0.01,-0.02 -0,-0.05 -0.04,-0.07l-0.37 -0.27c-0.03,-0.02 -0.07,-0.03 -0.08,-0.01z"/>
    <path class="fil1" d="M12.76 11.07l-0.06 0.09c-0.02,0.03 -0.01,0.08 0.02,0.1l0.39 0.25c0.03,0.02 0.08,0.01 0.1,-0.02l0.06 -0.09c0.02,-0.03 0.01,-0.08 -0.02,-0.1l-0.39 -0.25c-0.03,-0.02 -0.08,-0.01 -0.1,0.02z"/>
    <path class="fil1" d="M12.92 10.82l-0.03 0.04c-0.01,0.02 0.01,0.05 0.05,0.07l0.4 0.23c0.04,0.02 0.07,0.02 0.08,0l0.03 -0.04c0.01,-0.02 -0.01,-0.05 -0.05,-0.07l-0.4 -0.23c-0.04,-0.02 -0.07,-0.02 -0.08,-0z"/>
    <path class="fil1" d="M13.08 10.51l-0.05 0.09c-0.02,0.04 -0,0.08 0.03,0.1l0.41 0.21c0.04,0.02 0.08,0 0.1,-0.03l0.05 -0.09c0.02,-0.04 0,-0.08 -0.03,-0.1l-0.41 -0.21c-0.04,-0.02 -0.08,-0 -0.1,0.03z"/>
    <path class="fil1" d="M13.21 10.24l-0.02 0.05c-0.01,0.02 0.02,0.05 0.05,0.06l0.42 0.19c0.04,0.02 0.08,0.02 0.08,-0l0.02 -0.05c0.01,-0.02 -0.02,-0.05 -0.05,-0.06l-0.42 -0.19c-0.04,-0.02 -0.08,-0.02 -0.08,0z"/>
    <path class="fil1" d="M13.34 9.92l-0.04 0.09c-0.01,0.04 0,0.08 0.04,0.1l0.43 0.16c0.04,0.01 0.08,-0 0.1,-0.04l0.04 -0.09c0.01,-0.04 -0,-0.08 -0.04,-0.1l-0.43 -0.16c-0.04,-0.01 -0.08,0 -0.1,0.04z"/>
    <path class="fil1" d="M13.44 9.64l-0.02 0.05c-0.01,0.02 0.02,0.05 0.06,0.06l0.44 0.14c0.04,0.01 0.08,0.01 0.08,-0.01l0.02 -0.05c0.01,-0.02 -0.02,-0.05 -0.06,-0.06l-0.44 -0.14c-0.04,-0.01 -0.08,-0.01 -0.08,0.01z"/>
    <path class="fil1" d="M13.54 9.3l-0.03 0.1c-0.01,0.04 0.01,0.08 0.05,0.09l0.44 0.12c0.04,0.01 0.08,-0.01 0.09,-0.05l0.03 -0.1c0.01,-0.04 -0.01,-0.08 -0.05,-0.09l-0.44 -0.12c-0.04,-0.01 -0.08,0.01 -0.09,0.05z"/>
    <path class="fil1" d="M13.6 9.01l-0.01 0.05c-0,0.02 0.03,0.04 0.07,0.05l0.45 0.1c0.04,0.01 0.08,-0 0.08,-0.02l0.01 -0.05c0,-0.02 -0.03,-0.04 -0.07,-0.05l-0.45 -0.1c-0.04,-0.01 -0.08,0 -0.08,0.02z"/>
    <path class="fil1" d="M13.67 8.67l-0.02 0.1c-0.01,0.04 0.02,0.08 0.06,0.09l0.45 0.07c0.04,0.01 0.08,-0.02 0.09,-0.06l0.02 -0.1c0.01,-0.04 -0.02,-0.08 -0.06,-0.09l-0.45 -0.07c-0.04,-0.01 -0.08,0.02 -0.09,0.06z"/>
    <path class="fil1" d="M13.7 8.37l-0.01 0.05c-0,0.02 0.03,0.04 0.07,0.05l0.46 0.05c0.04,0 0.08,-0.01 0.08,-0.03l0.01 -0.05c0,-0.02 -0.03,-0.04 -0.07,-0.05l-0.46 -0.05c-0.04,-0 -0.08,0.01 -0.08,0.03z"/>
    <path class="fil1" d="M13.73 8.02l-0.01 0.1c-0,0.04 0.03,0.08 0.07,0.08l0.46 0.02c0.04,0 0.08,-0.03 0.08,-0.07l0.01 -0.1c0,-0.04 -0.03,-0.08 -0.07,-0.08l-0.46 -0.02c-0.04,-0 -0.08,0.03 -0.08,0.07z"/>
    <path class="fil1" d="M13.73 7.73l0 0.05c0,0.02 0.03,0.04 0.07,0.04l0.46 0c0.04,0 0.07,-0.02 0.07,-0.04l0 -0.05c0,-0.02 -0.03,-0.04 -0.07,-0.04l-0.46 0c-0.04,0 -0.07,0.02 -0.07,0.04z"/>
    <path class="fil1" d="M13.72 7.38l0.01 0.1c0,0.04 0.04,0.07 0.08,0.07l0.46 -0.02c0.04,-0 0.07,-0.04 0.07,-0.08l-0.01 -0.1c-0,-0.04 -0.04,-0.07 -0.08,-0.07l-0.46 0.02c-0.04,0 -0.07,0.04 -0.07,0.08z"/>
    <path class="fil1" d="M13.7 7.08l0.01 0.05c0,0.02 0.04,0.03 0.08,0.03l0.46 -0.05c0.04,-0 0.07,-0.02 0.07,-0.05l-0.01 -0.05c-0,-0.02 -0.04,-0.03 -0.08,-0.03l-0.46 0.05c-0.04,0 -0.07,0.02 -0.07,0.05z"/>
    <path class="fil1" d="M13.65 6.73l0.02 0.1c0.01,0.04 0.04,0.07 0.09,0.06l0.45 -0.07c0.04,-0.01 0.07,-0.04 0.06,-0.09l-0.02 -0.1c-0.01,-0.04 -0.04,-0.07 -0.09,-0.06l-0.45 0.07c-0.04,0.01 -0.07,0.04 -0.06,0.09z"/>
    <path class="fil1" d="M13.59 6.44l0.01 0.05c0,0.02 0.04,0.03 0.08,0.02l0.45 -0.1c0.04,-0.01 0.07,-0.03 0.07,-0.05l-0.01 -0.05c-0,-0.02 -0.04,-0.03 -0.08,-0.02l-0.45 0.1c-0.04,0.01 -0.07,0.03 -0.07,0.05z"/>
    <path class="fil1" d="M13.51 6.1l0.03 0.1c0.01,0.04 0.05,0.06 0.09,0.05l0.44 -0.12c0.04,-0.01 0.06,-0.05 0.05,-0.09l-0.03 -0.1c-0.01,-0.04 -0.05,-0.06 -0.09,-0.05l-0.44 0.12c-0.04,0.01 -0.06,0.05 -0.05,0.09z"/>
    <path class="fil1" d="M13.42 5.82l0.02 0.05c0.01,0.02 0.04,0.03 0.08,0.01l0.44 -0.14c0.04,-0.01 0.07,-0.04 0.06,-0.06l-0.02 -0.05c-0.01,-0.02 -0.04,-0.03 -0.08,-0.01l-0.44 0.14c-0.04,0.01 -0.07,0.04 -0.06,0.06z"/>
    <path class="fil1" d="M13.31 5.49l0.04 0.09c0.01,0.04 0.06,0.06 0.1,0.04l0.43 -0.16c0.04,-0.01 0.06,-0.06 0.04,-0.1l-0.04 -0.09c-0.01,-0.04 -0.06,-0.06 -0.1,-0.04l-0.43 0.16c-0.04,0.01 -0.06,0.06 -0.04,0.1z"/>
    <path class="fil1" d="M13.19 5.22l0.02 0.05c0.01,0.02 0.05,0.02 0.08,0l0.42 -0.19c0.04,-0.02 0.06,-0.05 0.05,-0.06l-0.02 -0.05c-0.01,-0.02 -0.05,-0.02 -0.08,-0l-0.42 0.19c-0.04,0.02 -0.06,0.05 -0.05,0.06z"/>
    <path class="fil1" d="M13.04 4.9l0.05 0.09c0.02,0.04 0.06,0.05 0.1,0.03l0.41 -0.21c0.04,-0.02 0.05,-0.06 0.03,-0.1l-0.05 -0.09c-0.02,-0.04 -0.06,-0.05 -0.1,-0.03l-0.41 0.21c-0.04,0.02 -0.05,0.06 -0.03,0.1z"/>
    <path class="fil1" d="M12.89 4.64l0.03 0.04c0.01,0.02 0.05,0.02 0.08,-0l0.4 -0.23c0.04,-0.02 0.06,-0.05 0.05,-0.07l-0.03 -0.04c-0.01,-0.02 -0.05,-0.02 -0.08,0l-0.4 0.23c-0.04,0.02 -0.06,0.05 -0.05,0.07z"/>
    <path class="fil1" d="M12.71 4.34l0.06 0.09c0.02,0.03 0.07,0.04 0.1,0.02l0.39 -0.25c0.03,-0.02 0.04,-0.07 0.02,-0.1l-0.06 -0.09c-0.02,-0.03 -0.07,-0.04 -0.1,-0.02l-0.39 0.25c-0.03,0.02 -0.04,0.07 -0.02,0.1z"/>
    <path class="fil1" d="M12.54 4.1l0.03 0.04c0.01,0.02 0.05,0.01 0.08,-0.01l0.37 -0.27c0.03,-0.02 0.05,-0.06 0.04,-0.07l-0.03 -0.04c-0.01,-0.02 -0.05,-0.01 -0.08,0.01l-0.37 0.27c-0.03,0.02 -0.05,0.06 -0.04,0.07z"/>
    <path class="fil1" d="M12.32 3.82l0.06 0.08c0.03,0.03 0.07,0.04 0.11,0.01l0.36 -0.29c0.03,-0.03 0.04,-0.07 0.01,-0.11l-0.06 -0.08c-0.03,-0.03 -0.07,-0.04 -0.11,-0.01l-0.36 0.29c-0.03,0.03 -0.04,0.07 -0.01,0.11z"/>
    <path class="fil1" d="M12.13 3.6l0.03 0.04c0.01,0.02 0.05,0.01 0.08,-0.02l0.34 -0.31c0.03,-0.03 0.04,-0.06 0.03,-0.08l-0.03 -0.04c-0.01,-0.02 -0.05,-0.01 -0.08,0.02l-0.34 0.31c-0.03,0.03 -0.04,0.06 -0.03,0.08z"/>
    <path class="fil1" d="M11.89 3.35l0.07 0.07c0.03,0.03 0.08,0.03 0.11,-0l0.33 -0.32c0.03,-0.03 0.03,-0.08 0,-0.11l-0.07 -0.07c-0.03,-0.03 -0.08,-0.03 -0.11,0l-0.32 0.32c-0.03,0.03 -0.03,0.08 -0,0.11z"/>
    <path class="fil1" d="M11.67 3.14l0.04 0.03c0.02,0.01 0.05,0 0.08,-0.03l0.31 -0.34c0.03,-0.03 0.04,-0.07 0.02,-0.08l-0.04 -0.03c-0.02,-0.01 -0.05,-0 -0.08,0.03l-0.31 0.34c-0.03,0.03 -0.04,0.07 -0.02,0.08z"/>
    <path class="fil1" d="M11.4 2.92l0.08 0.06c0.03,0.03 0.08,0.02 0.11,-0.01l0.29 -0.36c0.03,-0.03 0.02,-0.08 -0.01,-0.11l-0.08 -0.06c-0.03,-0.03 -0.08,-0.02 -0.11,0.01l-0.29 0.36c-0.03,0.03 -0.02,0.08 0.01,0.11z"/>
    <path class="fil1" d="M11.17 2.74l0.04 0.03c0.02,0.01 0.05,-0 0.07,-0.04l0.27 -0.37c0.02,-0.03 0.03,-0.07 0.01,-0.08l-0.04 -0.03c-0.02,-0.01 -0.05,0 -0.07,0.04l-0.27 0.37c-0.02,0.03 -0.03,0.07 -0.01,0.08z"/>
    <path class="fil1" d="M10.88 2.54l0.09 0.06c0.03,0.02 0.08,0.01 0.1,-0.02l0.25 -0.39c0.02,-0.03 0.01,-0.08 -0.02,-0.1l-0.09 -0.06c-0.03,-0.02 -0.08,-0.01 -0.1,0.02l-0.25 0.39c-0.02,0.03 -0.01,0.08 0.02,0.1z"/>
    <path class="fil1" d="M10.62 2.39l0.04 0.03c0.02,0.01 0.05,-0.01 0.07,-0.05l0.23 -0.4c0.02,-0.04 0.02,-0.07 0,-0.08l-0.04 -0.03c-0.02,-0.01 -0.05,0.01 -0.07,0.05l-0.23 0.4c-0.02,0.04 -0.02,0.07 -0,0.08z"/>
    <path class="fil1" d="M10.31 2.22l0.09 0.05c0.04,0.02 0.08,0 0.1,-0.03l0.21 -0.41c0.02,-0.04 0,-0.08 -0.03,-0.1l-0.09 -0.05c-0.04,-0.02 -0.08,-0 -0.1,0.03l-0.21 0.41c-0.02,0.04 -0,0.08 0.03,0.1z"/>
    <path class="fil1" d="M10.04 2.1l0.05 0.02c0.02,0.01 0.05,-0.02 0.07,-0.05l0.19 -0.42c0.02,-0.04 0.02,-0.08 -0,-0.08l-0.05 -0.02c-0.02,-0.01 -0.05,0.02 -0.06,0.05l-0.19 0.42c-0.02,0.04 -0.02,0.08 0,0.08z"/>
    <path class="fil1" d="M9.72 1.96l0.09 0.04c0.04,0.01 0.08,-0 0.1,-0.04l0.16 -0.43c0.01,-0.04 -0,-0.08 -0.04,-0.1l-0.09 -0.04c-0.04,-0.01 -0.08,0 -0.1,0.04l-0.16 0.43c-0.01,0.04 0,0.08 0.04,0.1z"/>
    <path class="fil1" d="M9.44 1.87l0.05 0.02c0.02,0.01 0.05,-0.02 0.06,-0.06l0.14 -0.44c0.01,-0.04 0.01,-0.08 -0.01,-0.08l-0.05 -0.02c-0.02,-0.01 -0.05,0.02 -0.06,0.06l-0.14 0.44c-0.01,0.04 -0.01,0.08 0.01,0.08z"/>
    <path class="fil1" d="M9.11 1.77l0.1 0.03c0.04,0.01 0.08,-0.01 0.09,-0.05l0.12 -0.44c0.01,-0.04 -0.01,-0.08 -0.05,-0.09l-0.1 -0.03c-0.04,-0.01 -0.08,0.01 -0.09,0.05l-0.12 0.44c-0.01,0.04 0.01,0.08 0.05,0.09z"/>
    <path class="fil1" d="M8.82 1.7l0.05 0.01c0.02,0 0.04,-0.03 0.05,-0.07l0.1 -0.45c0.01,-0.04 -0,-0.08 -0.02,-0.08l-0.05 -0.01c-0.02,-0 -0.04,0.03 -0.05,0.07l-0.1 0.45c-0.01,0.04 0,0.08 0.02,0.08z"/>
    <path class="fil1" d="M8.47 1.64l0.1 0.02c0.04,0.01 0.08,-0.02 0.09,-0.06l0.07 -0.45c0.01,-0.04 -0.02,-0.08 -0.06,-0.09l-0.1 -0.02c-0.04,-0.01 -0.08,0.02 -0.09,0.06l-0.07 0.45c-0.01,0.04 0.02,0.08 0.06,0.09z"/>
    <path class="fil1" d="M8.18 1.61l0.05 0.01c0.02,0 0.04,-0.03 0.05,-0.07l0.05 -0.46c0,-0.04 -0.01,-0.08 -0.03,-0.08l-0.05 -0.01c-0.02,-0 -0.04,0.03 -0.05,0.07l-0.05 0.46c-0,0.04 0.01,0.08 0.03,0.08z"/>
    <path class="fil1" d="M7.83 1.58l0.1 0.01c0.04,0 0.08,-0.03 0.08,-0.07l0.02 -0.46c0,-0.04 -0.03,-0.08 -0.07,-0.08l-0.1 -0.01c-0.04,-0 -0.08,0.03 -0.08,0.07l-0.02 0.46c-0,0.04 0.03,0.08 0.07,0.08z"/>
    <path class="fil1" d="M7.53 1.57l0.05 0c0.02,0 0.04,-0.03 0.04,-0.07l0 -0.46c0,-0.04 -0.02,-0.07 -0.04,-0.07l-0.05 0c-0.02,0 -0.04,0.03 -0.04,0.07l0 0.46c0,0.04 0.02,0.07 0.04,0.07z"/>
   </g>
  </g>
 </g>
</svg>
