<?xml version="1.0" encoding="UTF-8"?>
<!DOCTYPE svg PUBLIC "-//W3C//DTD SVG 1.1//EN" "http://www.w3.org/Graphics/SVG/1.1/DTD/svg11.dtd">
<!-- Creator: CorelDRAW 2021 (64-Bit) -->
<svg xmlns="http://www.w3.org/2000/svg" xml:space="preserve" width="2.62759in" height="0.470969in" version="1.1" style="shape-rendering:geometricPrecision; text-rendering:geometricPrecision; image-rendering:optimizeQuality; fill-rule:evenodd; clip-rule:evenodd"
viewBox="0 0 86.57 15.52"
 xmlns:xlink="http://www.w3.org/1999/xlink"
 xmlns:xodm="http://www.corel.com/coreldraw/odm/2003">
 <defs>
  <style type="text/css">
   <![CDATA[
    .str0 {stroke:black;stroke-width:0.23;stroke-linecap:round;stroke-linejoin:round;stroke-miterlimit:2.61313}
    .fil73 {fill:#1C3FAA}
    .fil3 {fill:black;fill-rule:nonzero}
    .fil199 {fill:white;fill-rule:nonzero}
    .fil8 {fill:url(#id0)}
    .fil30 {fill:url(#id1)}
    .fil23 {fill:url(#id2)}
    .fil7 {fill:url(#id3)}
    .fil18 {fill:url(#id4)}
    .fil62 {fill:url(#id5)}
    .fil68 {fill:url(#id6)}
    .fil21 {fill:url(#id7)}
    .fil24 {fill:url(#id8)}
    .fil22 {fill:url(#id9)}
    .fil60 {fill:url(#id10)}
    .fil66 {fill:url(#id11)}
    .fil28 {fill:url(#id12)}
    .fil72 {fill:url(#id13)}
    .fil16 {fill:url(#id14)}
    .fil34 {fill:url(#id15)}
    .fil64 {fill:url(#id16)}
    .fil70 {fill:url(#id17)}
    .fil6 {fill:url(#id18)}
    .fil13 {fill:url(#id19)}
    .fil5 {fill:url(#id20)}
    .fil12 {fill:url(#id21)}
    .fil32 {fill:url(#id22)}
    .fil33 {fill:url(#id23)}
    .fil99 {fill:url(#id24)}
    .fil9 {fill:url(#id25)}
    .fil10 {fill:url(#id26)}
    .fil139 {fill:url(#id27)}
    .fil15 {fill:url(#id28)}
    .fil19 {fill:url(#id29)}
    .fil4 {fill:url(#id30)}
    .fil14 {fill:url(#id31)}
    .fil136 {fill:url(#id32)}
    .fil135 {fill:url(#id33)}
    .fil195 {fill:url(#id34)}
    .fil120 {fill:url(#id35)}
    .fil53 {fill:url(#id36)}
    .fil163 {fill:url(#id37)}
    .fil0 {fill:url(#id38)}
    .fil125 {fill:url(#id39)}
    .fil171 {fill:url(#id40)}
    .fil96 {fill:url(#id41)}
    .fil39 {fill:url(#id42)}
    .fil59 {fill:url(#id43)}
    .fil20 {fill:url(#id44)}
    .fil130 {fill:url(#id45)}
    .fil44 {fill:url(#id46)}
    .fil31 {fill:url(#id47)}
    .fil185 {fill:url(#id48)}
    .fil88 {fill:url(#id49)}
    .fil113 {fill:url(#id50)}
    .fil75 {fill:url(#id51)}
    .fil77 {fill:url(#id52)}
    .fil194 {fill:url(#id53)}
    .fil132 {fill:url(#id54)}
    .fil127 {fill:url(#id55)}
    .fil197 {fill:url(#id56)}
    .fil190 {fill:url(#id57)}
    .fil146 {fill:url(#id58)}
    .fil67 {fill:url(#id59)}
    .fil61 {fill:url(#id60)}
    .fil92 {fill:url(#id61)}
    .fil56 {fill:url(#id62)}
    .fil83 {fill:url(#id63)}
    .fil129 {fill:url(#id64)}
    .fil93 {fill:url(#id65)}
    .fil186 {fill:url(#id66)}
    .fil89 {fill:url(#id67)}
    .fil79 {fill:url(#id68)}
    .fil45 {fill:url(#id69)}
    .fil158 {fill:url(#id70)}
    .fil35 {fill:url(#id71)}
    .fil176 {fill:url(#id72)}
    .fil63 {fill:url(#id73)}
    .fil69 {fill:url(#id74)}
    .fil152 {fill:url(#id75)}
    .fil192 {fill:url(#id76)}
    .fil108 {fill:url(#id77)}
    .fil161 {fill:url(#id78)}
    .fil179 {fill:url(#id79)}
    .fil87 {fill:url(#id80)}
    .fil154 {fill:url(#id81)}
    .fil177 {fill:url(#id82)}
    .fil101 {fill:url(#id83)}
    .fil126 {fill:url(#id84)}
    .fil97 {fill:url(#id85)}
    .fil55 {fill:url(#id86)}
    .fil81 {fill:url(#id87)}
    .fil191 {fill:url(#id88)}
    .fil2 {fill:url(#id89)}
    .fil54 {fill:url(#id90)}
    .fil58 {fill:url(#id91)}
    .fil27 {fill:url(#id92)}
    .fil150 {fill:url(#id93)}
    .fil118 {fill:url(#id94)}
    .fil43 {fill:url(#id95)}
    .fil141 {fill:url(#id96)}
    .fil52 {fill:url(#id97)}
    .fil71 {fill:url(#id98)}
    .fil65 {fill:url(#id99)}
    .fil182 {fill:url(#id100)}
    .fil187 {fill:url(#id101)}
    .fil140 {fill:url(#id102)}
    .fil80 {fill:url(#id103)}
    .fil173 {fill:url(#id104)}
    .fil168 {fill:url(#id105)}
    .fil142 {fill:url(#id106)}
    .fil167 {fill:url(#id107)}
    .fil175 {fill:url(#id108)}
    .fil160 {fill:url(#id109)}
    .fil117 {fill:url(#id110)}
    .fil109 {fill:url(#id111)}
    .fil29 {fill:url(#id112)}
    .fil196 {fill:url(#id113)}
    .fil198 {fill:url(#id114)}
    .fil137 {fill:url(#id115)}
    .fil145 {fill:url(#id116)}
    .fil122 {fill:url(#id117)}
    .fil50 {fill:url(#id118)}
    .fil37 {fill:url(#id119)}
    .fil95 {fill:url(#id120)}
    .fil123 {fill:url(#id121)}
    .fil103 {fill:url(#id122)}
    .fil133 {fill:url(#id123)}
    .fil36 {fill:url(#id124)}
    .fil189 {fill:url(#id125)}
    .fil105 {fill:url(#id126)}
    .fil116 {fill:url(#id127)}
    .fil193 {fill:url(#id128)}
    .fil1 {fill:url(#id129)}
    .fil183 {fill:url(#id130)}
    .fil90 {fill:url(#id131)}
    .fil156 {fill:url(#id132)}
    .fil86 {fill:url(#id133)}
    .fil85 {fill:url(#id134)}
    .fil91 {fill:url(#id135)}
    .fil98 {fill:url(#id136)}
    .fil128 {fill:url(#id137)}
    .fil26 {fill:url(#id138)}
    .fil164 {fill:url(#id139)}
    .fil84 {fill:url(#id140)}
    .fil46 {fill:url(#id141)}
    .fil165 {fill:url(#id142)}
    .fil49 {fill:url(#id143)}
    .fil57 {fill:url(#id144)}
    .fil151 {fill:url(#id145)}
    .fil180 {fill:url(#id146)}
    .fil170 {fill:url(#id147)}
    .fil124 {fill:url(#id148)}
    .fil166 {fill:url(#id149)}
    .fil78 {fill:url(#id150)}
    .fil76 {fill:url(#id151)}
    .fil143 {fill:url(#id152)}
    .fil119 {fill:url(#id153)}
    .fil162 {fill:url(#id154)}
    .fil11 {fill:url(#id155)}
    .fil155 {fill:url(#id156)}
    .fil102 {fill:url(#id157)}
    .fil184 {fill:url(#id158)}
    .fil131 {fill:url(#id159)}
    .fil47 {fill:url(#id160)}
    .fil48 {fill:url(#id161)}
    .fil106 {fill:url(#id162)}
    .fil121 {fill:url(#id163)}
    .fil100 {fill:url(#id164)}
    .fil149 {fill:url(#id165)}
    .fil134 {fill:url(#id166)}
    .fil172 {fill:url(#id167)}
    .fil104 {fill:url(#id168)}
    .fil17 {fill:url(#id169)}
    .fil159 {fill:url(#id170)}
    .fil181 {fill:url(#id171)}
    .fil174 {fill:url(#id172)}
    .fil110 {fill:url(#id173)}
    .fil153 {fill:url(#id174)}
    .fil157 {fill:url(#id175)}
    .fil178 {fill:url(#id176)}
    .fil138 {fill:url(#id177)}
    .fil114 {fill:url(#id178)}
    .fil94 {fill:url(#id179)}
    .fil40 {fill:url(#id180)}
    .fil188 {fill:url(#id181)}
    .fil41 {fill:url(#id182)}
    .fil111 {fill:url(#id183)}
    .fil38 {fill:url(#id184)}
    .fil148 {fill:url(#id185)}
    .fil107 {fill:url(#id186)}
    .fil144 {fill:url(#id187)}
    .fil25 {fill:url(#id188)}
    .fil115 {fill:url(#id189)}
    .fil112 {fill:url(#id190)}
    .fil147 {fill:url(#id191)}
    .fil169 {fill:url(#id192)}
    .fil82 {fill:url(#id193)}
    .fil51 {fill:url(#id194)}
    .fil42 {fill:url(#id195)}
    .fil74 {fill:url(#id196);fill-rule:nonzero}
   ]]>
  </style>
  <linearGradient id="id0" gradientUnits="userSpaceOnUse" x1="4.21" y1="9.64" x2="11.19" y2="9.64">
   <stop offset="0" style="stop-opacity:1; stop-color:#DB9125"/>
   <stop offset="0.0509804" style="stop-opacity:1; stop-color:#EDC44E"/>
   <stop offset="0.2" style="stop-opacity:1; stop-color:#FFF778"/>
   <stop offset="0.27451" style="stop-opacity:1; stop-color:#ECC94F"/>
   <stop offset="0.341176" style="stop-opacity:1; stop-color:#D99A26"/>
   <stop offset="0.372549" style="stop-opacity:1; stop-color:#C08622"/>
   <stop offset="0.470588" style="stop-opacity:1; stop-color:#A7711E"/>
   <stop offset="0.615686" style="stop-opacity:1; stop-color:#CE9F43"/>
   <stop offset="0.678431" style="stop-opacity:1; stop-color:#F6CE69"/>
   <stop offset="0.803922" style="stop-opacity:1; stop-color:#E8B448"/>
   <stop offset="0.870588" style="stop-opacity:1; stop-color:#D99A26"/>
   <stop offset="1" style="stop-opacity:1; stop-color:#F6CE69"/>
  </linearGradient>
  <linearGradient id="id1" gradientUnits="userSpaceOnUse" xlink:href="#id0" x1="7.9" y1="10.19" x2="12.12" y2="10.19">
  </linearGradient>
  <linearGradient id="id2" gradientUnits="userSpaceOnUse" xlink:href="#id0" x1="7.71" y1="5.13" x2="13.31" y2="5.13">
  </linearGradient>
  <linearGradient id="id3" gradientUnits="userSpaceOnUse" xlink:href="#id0" x1="4.21" y1="5.92" x2="11.19" y2="5.92">
  </linearGradient>
  <linearGradient id="id4" gradientUnits="userSpaceOnUse" xlink:href="#id0" x1="3.1" y1="5.53" x2="6.72" y2="5.53">
  </linearGradient>
  <linearGradient id="id5" gradientUnits="userSpaceOnUse" xlink:href="#id0" x1="7.1" y1="7.06" x2="8.29" y2="7.06">
  </linearGradient>
  <linearGradient id="id6" gradientUnits="userSpaceOnUse" xlink:href="#id0" x1="7.1" y1="8.49" x2="8.29" y2="8.49">
  </linearGradient>
  <linearGradient id="id7" gradientUnits="userSpaceOnUse" xlink:href="#id0" x1="8.08" y1="5.6" x2="13.36" y2="5.6">
  </linearGradient>
  <linearGradient id="id8" gradientUnits="userSpaceOnUse" xlink:href="#id0" x1="8.08" y1="9.95" x2="12.12" y2="9.95">
  </linearGradient>
  <linearGradient id="id9" gradientUnits="userSpaceOnUse" xlink:href="#id0" x1="7.89" y1="5.36" x2="13.34" y2="5.36">
  </linearGradient>
  <linearGradient id="id10" gradientUnits="userSpaceOnUse" xlink:href="#id0" x1="7.45" y1="6.93" x2="8.29" y2="6.93">
  </linearGradient>
  <linearGradient id="id11" gradientUnits="userSpaceOnUse" xlink:href="#id0" x1="7.45" y1="8.62" x2="8.29" y2="8.62">
  </linearGradient>
  <linearGradient id="id12" gradientUnits="userSpaceOnUse" xlink:href="#id0" x1="7.71" y1="10.43" x2="12.14" y2="10.43">
  </linearGradient>
  <linearGradient id="id13" gradientUnits="userSpaceOnUse" xlink:href="#id0" x1="1.73" y1="7.78" x2="13.39" y2="7.78">
  </linearGradient>
  <linearGradient id="id14" gradientUnits="userSpaceOnUse" xlink:href="#id0" x1="3.6" y1="5.55" x2="6.36" y2="5.55">
  </linearGradient>
  <linearGradient id="id15" gradientUnits="userSpaceOnUse" xlink:href="#id0" x1="3.1" y1="10.02" x2="6.72" y2="10.02">
  </linearGradient>
  <linearGradient id="id16" gradientUnits="userSpaceOnUse" xlink:href="#id0" x1="6.83" y1="7.19" x2="8.29" y2="7.19">
  </linearGradient>
  <linearGradient id="id17" gradientUnits="userSpaceOnUse" xlink:href="#id0" x1="6.83" y1="8.37" x2="8.29" y2="8.37">
  </linearGradient>
  <linearGradient id="id18" gradientUnits="userSpaceOnUse" xlink:href="#id0" x1="2.23" y1="7.78" x2="12.61" y2="7.78">
  </linearGradient>
  <linearGradient id="id19" gradientUnits="userSpaceOnUse" xlink:href="#id0" x1="3.89" y1="10" x2="6.34" y2="10">
  </linearGradient>
  <linearGradient id="id20" gradientUnits="userSpaceOnUse" xlink:href="#id0" x1="3.89" y1="5.55" x2="6.34" y2="5.55">
  </linearGradient>
  <linearGradient id="id21" gradientUnits="userSpaceOnUse" xlink:href="#id0" x1="2.87" y1="7.78" x2="13.27" y2="7.78">
  </linearGradient>
  <linearGradient id="id22" gradientUnits="userSpaceOnUse" xlink:href="#id0" x1="3.6" y1="10" x2="6.36" y2="10">
  </linearGradient>
  <linearGradient id="id23" gradientUnits="userSpaceOnUse" xlink:href="#id0" x1="3.34" y1="10.01" x2="6.54" y2="10.01">
  </linearGradient>
  <linearGradient id="id24" gradientUnits="userSpaceOnUse" xlink:href="#id0" x1="3.48" y1="5.38" x2="-1.88" y2="3.7">
  </linearGradient>
  <linearGradient id="id25" gradientUnits="userSpaceOnUse" xlink:href="#id0" x1="4.58" y1="9.66" x2="10.96" y2="9.66">
  </linearGradient>
  <linearGradient id="id26" gradientUnits="userSpaceOnUse" xlink:href="#id0" x1="4.58" y1="5.9" x2="10.96" y2="5.9">
  </linearGradient>
  <linearGradient id="id27" gradientUnits="userSpaceOnUse" xlink:href="#id0" x1="7.52" y1="12.51" x2="8.75" y2="17.99">
  </linearGradient>
  <linearGradient id="id28" gradientUnits="userSpaceOnUse" xlink:href="#id0" x1="2.66" y1="7.78" x2="13.22" y2="7.78">
  </linearGradient>
  <linearGradient id="id29" gradientUnits="userSpaceOnUse" xlink:href="#id0" x1="3.34" y1="5.54" x2="6.54" y2="5.54">
  </linearGradient>
  <linearGradient id="id30" gradientUnits="userSpaceOnUse" xlink:href="#id0" x1="8.1" y1="5.83" x2="13.37" y2="5.83">
  </linearGradient>
  <linearGradient id="id31" gradientUnits="userSpaceOnUse" xlink:href="#id0" x1="8.1" y1="9.72" x2="13.37" y2="9.72">
  </linearGradient>
  <linearGradient id="id32" gradientUnits="userSpaceOnUse" xlink:href="#id0" x1="6.92" y1="12.46" x2="6.83" y2="18.01">
  </linearGradient>
  <linearGradient id="id33" gradientUnits="userSpaceOnUse" xlink:href="#id0" x1="6.54" y1="12.4" x2="6.61" y2="18.01">
  </linearGradient>
  <linearGradient id="id34" gradientUnits="userSpaceOnUse" xlink:href="#id0" x1="8.59" y1="3.15" x2="8.51" y2="-2.46">
  </linearGradient>
  <linearGradient id="id35" gradientUnits="userSpaceOnUse" xlink:href="#id0" x1="3.65" y1="10.43" x2="-0.54" y2="14.08">
  </linearGradient>
  <linearGradient id="id36" gradientUnits="userSpaceOnUse" xlink:href="#id0" x1="11.28" y1="7.96" x2="16.03" y2="9.02">
  </linearGradient>
  <linearGradient id="id37" gradientUnits="userSpaceOnUse" xlink:href="#id0" x1="12.05" y1="9.28" x2="17.64" y2="9.79">
  </linearGradient>
  <linearGradient id="id38" gradientUnits="userSpaceOnUse" xlink:href="#id0" x1="2.84" y1="3.06" x2="13.97" y2="14.18">
  </linearGradient>
  <linearGradient id="id39" gradientUnits="userSpaceOnUse" xlink:href="#id0" x1="4.37" y1="11.27" x2="1.62" y2="16.16">
  </linearGradient>
  <linearGradient id="id40" gradientUnits="userSpaceOnUse" xlink:href="#id0" x1="12.27" y1="7.32" x2="17.59" y2="5.52">
  </linearGradient>
  <linearGradient id="id41" gradientUnits="userSpaceOnUse" xlink:href="#id0" x1="3.82" y1="4.88" x2="-0.93" y2="2.01">
  </linearGradient>
  <linearGradient id="id42" gradientUnits="userSpaceOnUse" xlink:href="#id0" x1="5.41" y1="11.8" x2="10.85" y2="11.94">
  </linearGradient>
  <linearGradient id="id43" gradientUnits="userSpaceOnUse" xlink:href="#id0" x1="11.26" y1="8.06" x2="16.01" y2="9.13">
  </linearGradient>
  <linearGradient id="id44" gradientUnits="userSpaceOnUse" xlink:href="#id0" x1="5.71" y1="4.15" x2="10.16" y2="4.09">
  </linearGradient>
  <linearGradient id="id45" gradientUnits="userSpaceOnUse" xlink:href="#id0" x1="5.51" y1="12.03" x2="3.69" y2="17.28">
  </linearGradient>
  <linearGradient id="id46" gradientUnits="userSpaceOnUse" xlink:href="#id0" x1="2.74" y1="7.55" x2="10.92" y2="6.6">
  </linearGradient>
  <linearGradient id="id47" gradientUnits="userSpaceOnUse" xlink:href="#id0" x1="5.42" y1="11.37" x2="10.87" y2="11.51">
  </linearGradient>
  <linearGradient id="id48" gradientUnits="userSpaceOnUse" xlink:href="#id0" x1="10.76" y1="4.29" x2="13.51" y2="-0.61">
  </linearGradient>
  <linearGradient id="id49" gradientUnits="userSpaceOnUse" xlink:href="#id0" x1="5.33" y1="3.61" x2="2.14" y2="-0.94">
  </linearGradient>
  <linearGradient id="id50" gradientUnits="userSpaceOnUse" xlink:href="#id0" x1="2.92" y1="8.72" x2="-2.18" y2="11.07">
  </linearGradient>
  <linearGradient id="id51" gradientUnits="userSpaceOnUse" xlink:href="#id0" x1="8.68" y1="7.82" x2="14.17" y2="6.89">
  </linearGradient>
  <linearGradient id="id52" gradientUnits="userSpaceOnUse" xlink:href="#id0" x1="8.68" y1="7.54" x2="14.17" y2="8.48">
  </linearGradient>
  <linearGradient id="id53" gradientUnits="userSpaceOnUse" xlink:href="#id0" x1="8.69" y1="3.19" x2="9.36" y2="-2.33">
  </linearGradient>
  <linearGradient id="id54" gradientUnits="userSpaceOnUse" xlink:href="#id0" x1="5.96" y1="12.23" x2="4.71" y2="17.64">
  </linearGradient>
  <linearGradient id="id55" gradientUnits="userSpaceOnUse" xlink:href="#id0" x1="4.75" y1="11.58" x2="2.52" y2="16.74">
  </linearGradient>
  <linearGradient id="id56" gradientUnits="userSpaceOnUse" xlink:href="#id0" x1="8.1" y1="3.07" x2="7.44" y2="-2.5">
  </linearGradient>
  <linearGradient id="id57" gradientUnits="userSpaceOnUse" xlink:href="#id0" x1="9.61" y1="3.52" x2="11.43" y2="-1.73">
  </linearGradient>
  <linearGradient id="id58" gradientUnits="userSpaceOnUse" xlink:href="#id0" x1="9.35" y1="12.15" x2="12.04" y2="17.01">
  </linearGradient>
  <linearGradient id="id59" gradientUnits="userSpaceOnUse" xlink:href="#id0" x1="6.64" y1="6.84" x2="10.93" y2="9.04">
  </linearGradient>
  <linearGradient id="id60" gradientUnits="userSpaceOnUse" xlink:href="#id0" x1="6.64" y1="7.76" x2="10.93" y2="5.56">
  </linearGradient>
  <linearGradient id="id61" gradientUnits="userSpaceOnUse" xlink:href="#id0" x1="4.51" y1="4.17" x2="0.45" y2="0.38">
  </linearGradient>
  <linearGradient id="id62" gradientUnits="userSpaceOnUse" xlink:href="#id0" x1="11.34" y1="7.75" x2="16.07" y2="8.77">
  </linearGradient>
  <linearGradient id="id63" gradientUnits="userSpaceOnUse" xlink:href="#id0" x1="6.61" y1="3.14" x2="4.27" y2="-1.96">
  </linearGradient>
  <linearGradient id="id64" gradientUnits="userSpaceOnUse" xlink:href="#id0" x1="5.16" y1="11.86" x2="3.49" y2="17.22">
  </linearGradient>
  <linearGradient id="id65" gradientUnits="userSpaceOnUse" xlink:href="#id0" x1="4.42" y1="4.23" x2="-0.16" y2="0.99">
  </linearGradient>
  <linearGradient id="id66" gradientUnits="userSpaceOnUse" xlink:href="#id0" x1="10.45" y1="4.04" x2="13.32" y2="-0.72">
  </linearGradient>
  <linearGradient id="id67" gradientUnits="userSpaceOnUse" xlink:href="#id0" x1="5.23" y1="3.66" x2="1.42" y2="-0.47">
  </linearGradient>
  <linearGradient id="id68" gradientUnits="userSpaceOnUse" xlink:href="#id0" x1="7.6" y1="3.04" x2="6.37" y2="-2.43">
  </linearGradient>
  <linearGradient id="id69" gradientUnits="userSpaceOnUse" xlink:href="#id0" x1="2.79" y1="8.03" x2="10.97" y2="7.08">
  </linearGradient>
  <linearGradient id="id70" gradientUnits="userSpaceOnUse" xlink:href="#id0" x1="11.58" y1="10.26" x2="16.61" y2="12.62">
  </linearGradient>
  <linearGradient id="id71" gradientUnits="userSpaceOnUse" xlink:href="#id0" x1="5.7" y1="3.52" x2="10.15" y2="3.46">
  </linearGradient>
  <linearGradient id="id72" gradientUnits="userSpaceOnUse" xlink:href="#id0" x1="11.94" y1="5.99" x2="16.8" y2="3.3">
  </linearGradient>
  <linearGradient id="id73" gradientUnits="userSpaceOnUse" xlink:href="#id0" x1="6.48" y1="8.02" x2="10.78" y2="5.82">
  </linearGradient>
  <linearGradient id="id74" gradientUnits="userSpaceOnUse" xlink:href="#id0" x1="6.48" y1="6.59" x2="10.78" y2="8.79">
  </linearGradient>
  <linearGradient id="id75" gradientUnits="userSpaceOnUse" xlink:href="#id0" x1="10.61" y1="11.38" x2="14.67" y2="15.18">
  </linearGradient>
  <linearGradient id="id76" gradientUnits="userSpaceOnUse" xlink:href="#id0" x1="9.16" y1="3.33" x2="10.41" y2="-2.08">
  </linearGradient>
  <linearGradient id="id77" gradientUnits="userSpaceOnUse" xlink:href="#id0" x1="2.84" y1="7.63" x2="-2.7" y2="8.11">
  </linearGradient>
  <linearGradient id="id78" gradientUnits="userSpaceOnUse" xlink:href="#id0" x1="11.87" y1="9.74" x2="17.38" y2="10.84">
  </linearGradient>
  <linearGradient id="id79" gradientUnits="userSpaceOnUse" xlink:href="#id0" x1="11.68" y1="5.45" x2="15.8" y2="1.63">
  </linearGradient>
  <linearGradient id="id80" gradientUnits="userSpaceOnUse" xlink:href="#id0" x1="5.67" y1="3.44" x2="2.31" y2="-1.06">
  </linearGradient>
  <linearGradient id="id81" gradientUnits="userSpaceOnUse" xlink:href="#id0" x1="10.98" y1="11.04" x2="15.41" y2="14.39">
  </linearGradient>
  <linearGradient id="id82" gradientUnits="userSpaceOnUse" xlink:href="#id0" x1="11.9" y1="5.89" x2="16.4" y2="2.53">
  </linearGradient>
  <linearGradient id="id83" gradientUnits="userSpaceOnUse" xlink:href="#id0" x1="3.25" y1="5.82" x2="-2.25" y2="4.72">
  </linearGradient>
  <linearGradient id="id84" gradientUnits="userSpaceOnUse" xlink:href="#id0" x1="4.67" y1="11.51" x2="1.8" y2="16.27">
  </linearGradient>
  <linearGradient id="id85" gradientUnits="userSpaceOnUse" xlink:href="#id0" x1="3.75" y1="4.96" x2="-1.4" y2="2.74">
  </linearGradient>
  <linearGradient id="id86" gradientUnits="userSpaceOnUse" xlink:href="#id0" x1="11.2" y1="8.33" x2="15.95" y2="9.39">
  </linearGradient>
  <linearGradient id="id87" gradientUnits="userSpaceOnUse" xlink:href="#id0" x1="7.1" y1="3.07" x2="5.31" y2="-2.25">
  </linearGradient>
  <linearGradient id="id88" gradientUnits="userSpaceOnUse" xlink:href="#id0" x1="9.52" y1="3.47" x2="10.62" y2="-2.04">
  </linearGradient>
  <linearGradient id="id89" gradientUnits="userSpaceOnUse" xlink:href="#id0" x1="2.16" y1="2.34" x2="13.22" y2="13.43">
  </linearGradient>
  <linearGradient id="id90" gradientUnits="userSpaceOnUse" xlink:href="#id0" x1="11.18" y1="8.43" x2="15.92" y2="9.5">
  </linearGradient>
  <linearGradient id="id91" gradientUnits="userSpaceOnUse" xlink:href="#id0" x1="11.24" y1="8.16" x2="15.98" y2="9.23">
  </linearGradient>
  <linearGradient id="id92" gradientUnits="userSpaceOnUse" xlink:href="#id0" x1="11.48" y1="8.04" x2="13.64" y2="8.76">
  </linearGradient>
  <linearGradient id="id93" gradientUnits="userSpaceOnUse" xlink:href="#id0" x1="10.22" y1="11.68" x2="13.86" y2="15.88">
  </linearGradient>
  <linearGradient id="id94" gradientUnits="userSpaceOnUse" xlink:href="#id0" x1="3.4" y1="10.01" x2="-1.15" y2="13.2">
  </linearGradient>
  <linearGradient id="id95" gradientUnits="userSpaceOnUse" xlink:href="#id0" x1="10.19" y1="7.34" x2="19.77" y2="7.13">
  </linearGradient>
  <linearGradient id="id96" gradientUnits="userSpaceOnUse" xlink:href="#id0" x1="8.02" y1="12.49" x2="9.81" y2="17.81">
  </linearGradient>
  <linearGradient id="id97" gradientUnits="userSpaceOnUse" xlink:href="#id0" x1="11.23" y1="8.2" x2="15.98" y2="9.26">
  </linearGradient>
  <linearGradient id="id98" gradientUnits="userSpaceOnUse" xlink:href="#id0" x1="6.32" y1="6.34" x2="10.61" y2="8.54">
  </linearGradient>
  <linearGradient id="id99" gradientUnits="userSpaceOnUse" xlink:href="#id0" x1="6.32" y1="8.29" x2="10.61" y2="6.08">
  </linearGradient>
  <linearGradient id="id100" gradientUnits="userSpaceOnUse" xlink:href="#id0" x1="11.17" y1="4.72" x2="14.96" y2="0.66">
  </linearGradient>
  <linearGradient id="id101" gradientUnits="userSpaceOnUse" xlink:href="#id0" x1="10.37" y1="3.97" x2="12.6" y2="-1.18">
  </linearGradient>
  <linearGradient id="id102" gradientUnits="userSpaceOnUse" xlink:href="#id0" x1="7.91" y1="12.49" x2="8.96" y2="17.94">
  </linearGradient>
  <linearGradient id="id103" gradientUnits="userSpaceOnUse" xlink:href="#id0" x1="7.21" y1="3.06" x2="6.16" y2="-2.39">
  </linearGradient>
  <linearGradient id="id104" gradientUnits="userSpaceOnUse" xlink:href="#id0" x1="12.2" y1="6.83" x2="17.3" y2="4.49">
  </linearGradient>
  <linearGradient id="id105" gradientUnits="userSpaceOnUse" xlink:href="#id0" x1="12.28" y1="7.92" x2="17.82" y2="7.44">
  </linearGradient>
  <linearGradient id="id106" gradientUnits="userSpaceOnUse" xlink:href="#id0" x1="8.4" y1="12.43" x2="10.02" y2="17.74">
  </linearGradient>
  <linearGradient id="id107" gradientUnits="userSpaceOnUse" xlink:href="#id0" x1="12.26" y1="8.31" x2="17.84" y2="7.65">
  </linearGradient>
  <linearGradient id="id108" gradientUnits="userSpaceOnUse" xlink:href="#id0" x1="12.08" y1="6.35" x2="16.9" y2="3.48">
  </linearGradient>
  <linearGradient id="id109" gradientUnits="userSpaceOnUse" xlink:href="#id0" x1="11.82" y1="9.83" x2="17.07" y2="11.65">
  </linearGradient>
  <linearGradient id="id110" gradientUnits="userSpaceOnUse" xlink:href="#id0" x1="3.22" y1="9.66" x2="-1.28" y2="13.02">
  </linearGradient>
  <linearGradient id="id111" gradientUnits="userSpaceOnUse" xlink:href="#id0" x1="2.83" y1="7.74" x2="-2.65" y2="8.97">
  </linearGradient>
  <linearGradient id="id112" gradientUnits="userSpaceOnUse" xlink:href="#id0" x1="11.55" y1="7.82" x2="13.71" y2="8.54">
  </linearGradient>
  <linearGradient id="id113" gradientUnits="userSpaceOnUse" xlink:href="#id0" x1="8.2" y1="3.09" x2="8.3" y2="-2.46">
  </linearGradient>
  <linearGradient id="id114" gradientUnits="userSpaceOnUse" xlink:href="#id0" x1="7.71" y1="3.05" x2="7.23" y2="-2.48">
  </linearGradient>
  <linearGradient id="id115" gradientUnits="userSpaceOnUse" xlink:href="#id0" x1="7.03" y1="12.48" x2="7.69" y2="18.05">
  </linearGradient>
  <linearGradient id="id116" gradientUnits="userSpaceOnUse" xlink:href="#id0" x1="8.99" y1="12.29" x2="11.85" y2="17.12">
  </linearGradient>
  <linearGradient id="id117" gradientUnits="userSpaceOnUse" xlink:href="#id0" x1="3.95" y1="10.83" x2="0.16" y2="14.89">
  </linearGradient>
  <linearGradient id="id118" gradientUnits="userSpaceOnUse" xlink:href="#id0" x1="4.95" y1="11.94" x2="12.87" y2="12.51">
  </linearGradient>
  <linearGradient id="id119" gradientUnits="userSpaceOnUse" xlink:href="#id0" x1="5.7" y1="3.85" x2="10.15" y2="3.79">
  </linearGradient>
  <linearGradient id="id120" gradientUnits="userSpaceOnUse" xlink:href="#id0" x1="4.07" y1="4.58" x2="-0.82" y2="1.83">
  </linearGradient>
  <linearGradient id="id121" gradientUnits="userSpaceOnUse" xlink:href="#id0" x1="4.02" y1="10.91" x2="0.77" y2="15.5">
  </linearGradient>
  <linearGradient id="id122" gradientUnits="userSpaceOnUse" xlink:href="#id0" x1="3.07" y1="6.28" x2="-2.52" y2="5.76">
  </linearGradient>
  <linearGradient id="id123" gradientUnits="userSpaceOnUse" xlink:href="#id0" x1="6.06" y1="12.27" x2="5.55" y2="17.86">
  </linearGradient>
  <linearGradient id="id124" gradientUnits="userSpaceOnUse" xlink:href="#id0" x1="5.7" y1="3.72" x2="10.15" y2="3.66">
  </linearGradient>
  <linearGradient id="id125" gradientUnits="userSpaceOnUse" xlink:href="#id0" x1="9.96" y1="3.7" x2="11.63" y2="-1.66">
  </linearGradient>
  <linearGradient id="id126" gradientUnits="userSpaceOnUse" xlink:href="#id0" x1="2.94" y1="6.75" x2="-2.67" y2="6.83">
  </linearGradient>
  <linearGradient id="id127" gradientUnits="userSpaceOnUse" xlink:href="#id0" x1="3.19" y1="9.57" x2="-1.67" y2="12.26">
  </linearGradient>
  <linearGradient id="id128" gradientUnits="userSpaceOnUse" xlink:href="#id0" x1="9.06" y1="3.29" x2="9.58" y2="-2.3">
  </linearGradient>
  <linearGradient id="id129" gradientUnits="userSpaceOnUse" xlink:href="#id0" x1="12.97" y1="2.46" x2="2.39" y2="12.82">
  </linearGradient>
  <linearGradient id="id130" gradientUnits="userSpaceOnUse" xlink:href="#id0" x1="11.1" y1="4.64" x2="14.35" y2="0.06">
  </linearGradient>
  <linearGradient id="id131" gradientUnits="userSpaceOnUse" xlink:href="#id0" x1="4.9" y1="3.87" x2="1.26" y2="-0.32">
  </linearGradient>
  <linearGradient id="id132" gradientUnits="userSpaceOnUse" xlink:href="#id0" x1="11.3" y1="10.67" x2="16.05" y2="13.54">
  </linearGradient>
  <linearGradient id="id133" gradientUnits="userSpaceOnUse" xlink:href="#id0" x1="5.77" y1="3.4" x2="3.08" y2="-1.46">
  </linearGradient>
  <linearGradient id="id134" gradientUnits="userSpaceOnUse" xlink:href="#id0" x1="6.14" y1="3.26" x2="3.27" y2="-1.56">
  </linearGradient>
  <linearGradient id="id135" gradientUnits="userSpaceOnUse" xlink:href="#id0" x1="4.81" y1="3.92" x2="0.59" y2="0.22">
  </linearGradient>
  <linearGradient id="id136" gradientUnits="userSpaceOnUse" xlink:href="#id0" x1="3.54" y1="5.29" x2="-1.49" y2="2.93">
  </linearGradient>
  <linearGradient id="id137" gradientUnits="userSpaceOnUse" xlink:href="#id0" x1="5.07" y1="11.8" x2="2.72" y2="16.83">
  </linearGradient>
  <linearGradient id="id138" gradientUnits="userSpaceOnUse" xlink:href="#id0" x1="5.42" y1="11.36" x2="10.87" y2="11.51">
  </linearGradient>
  <linearGradient id="id139" gradientUnits="userSpaceOnUse" xlink:href="#id0" x1="12.15" y1="8.9" x2="17.67" y2="9.58">
  </linearGradient>
  <linearGradient id="id140" gradientUnits="userSpaceOnUse" xlink:href="#id0" x1="6.24" y1="3.24" x2="4.07" y2="-1.88">
  </linearGradient>
  <linearGradient id="id141" gradientUnits="userSpaceOnUse" xlink:href="#id0" x1="8.75" y1="8.18" x2="14.23" y2="7.24">
  </linearGradient>
  <linearGradient id="id142" gradientUnits="userSpaceOnUse" xlink:href="#id0" x1="12.18" y1="8.8" x2="17.8" y2="8.72">
  </linearGradient>
  <linearGradient id="id143" gradientUnits="userSpaceOnUse" xlink:href="#id0" x1="5.37" y1="4.52" x2="7.96" y2="3.47">
  </linearGradient>
  <linearGradient id="id144" gradientUnits="userSpaceOnUse" xlink:href="#id0" x1="11.22" y1="8.23" x2="15.97" y2="9.29">
  </linearGradient>
  <linearGradient id="id145" gradientUnits="userSpaceOnUse" xlink:href="#id0" x1="10.31" y1="11.63" x2="14.53" y2="15.33">
  </linearGradient>
  <linearGradient id="id146" gradientUnits="userSpaceOnUse" xlink:href="#id0" x1="11.47" y1="5.12" x2="15.66" y2="1.48">
  </linearGradient>
  <linearGradient id="id147" gradientUnits="userSpaceOnUse" xlink:href="#id0" x1="12.27" y1="7.42" x2="17.73" y2="6.38">
  </linearGradient>
  <linearGradient id="id148" gradientUnits="userSpaceOnUse" xlink:href="#id0" x1="4.29" y1="11.19" x2="0.94" y2="15.62">
  </linearGradient>
  <linearGradient id="id149" gradientUnits="userSpaceOnUse" xlink:href="#id0" x1="12.24" y1="8.42" x2="17.8" y2="8.51">
  </linearGradient>
  <linearGradient id="id150" gradientUnits="userSpaceOnUse" xlink:href="#id0" x1="8.63" y1="7.82" x2="14.12" y2="8.76">
  </linearGradient>
  <linearGradient id="id151" gradientUnits="userSpaceOnUse" xlink:href="#id0" x1="8.63" y1="7.51" x2="14.12" y2="6.58">
  </linearGradient>
  <linearGradient id="id152" gradientUnits="userSpaceOnUse" xlink:href="#id0" x1="8.51" y1="12.41" x2="10.85" y2="17.52">
  </linearGradient>
  <linearGradient id="id153" gradientUnits="userSpaceOnUse" xlink:href="#id0" x1="3.44" y1="10.11" x2="-0.68" y2="13.92">
  </linearGradient>
  <linearGradient id="id154" gradientUnits="userSpaceOnUse" xlink:href="#id0" x1="12.01" y1="9.37" x2="17.42" y2="10.63">
  </linearGradient>
  <linearGradient id="id155" gradientUnits="userSpaceOnUse" xlink:href="#id0" x1="11.4" y1="8.26" x2="13.57" y2="8.99">
  </linearGradient>
  <linearGradient id="id156" gradientUnits="userSpaceOnUse" xlink:href="#id0" x1="11.05" y1="10.97" x2="15.95" y2="13.72">
  </linearGradient>
  <linearGradient id="id157" gradientUnits="userSpaceOnUse" xlink:href="#id0" x1="3.11" y1="6.18" x2="-2.3" y2="4.92">
  </linearGradient>
  <linearGradient id="id158" gradientUnits="userSpaceOnUse" xlink:href="#id0" x1="10.83" y1="4.36" x2="14.18" y2="-0.07">
  </linearGradient>
  <linearGradient id="id159" gradientUnits="userSpaceOnUse" xlink:href="#id0" x1="5.6" y1="12.09" x2="4.5" y2="17.59">
  </linearGradient>
  <linearGradient id="id160" gradientUnits="userSpaceOnUse" xlink:href="#id0" x1="9.95" y1="5.92" x2="11.47" y2="9.11">
  </linearGradient>
  <linearGradient id="id161" gradientUnits="userSpaceOnUse" xlink:href="#id0" x1="2.85" y1="8.5" x2="11.03" y2="7.55">
  </linearGradient>
  <linearGradient id="id162" gradientUnits="userSpaceOnUse" xlink:href="#id0" x1="2.88" y1="7.14" x2="-2.68" y2="7.04">
  </linearGradient>
  <linearGradient id="id163" gradientUnits="userSpaceOnUse" xlink:href="#id0" x1="3.71" y1="10.53" x2="0.01" y2="14.75">
  </linearGradient>
  <linearGradient id="id164" gradientUnits="userSpaceOnUse" xlink:href="#id0" x1="3.3" y1="5.72" x2="-1.95" y2="3.91">
  </linearGradient>
  <linearGradient id="id165" gradientUnits="userSpaceOnUse" xlink:href="#id0" x1="9.89" y1="11.9" x2="13.7" y2="16.02">
  </linearGradient>
  <linearGradient id="id166" gradientUnits="userSpaceOnUse" xlink:href="#id0" x1="6.44" y1="12.37" x2="5.76" y2="17.88">
  </linearGradient>
  <linearGradient id="id167" gradientUnits="userSpaceOnUse" xlink:href="#id0" x1="12.21" y1="6.93" x2="17.53" y2="5.32">
  </linearGradient>
  <linearGradient id="id168" gradientUnits="userSpaceOnUse" xlink:href="#id0" x1="2.97" y1="6.65" x2="-2.54" y2="5.97">
  </linearGradient>
  <linearGradient id="id169" gradientUnits="userSpaceOnUse" xlink:href="#id0" x1="5.71" y1="4.15" x2="10.16" y2="4.1">
  </linearGradient>
  <linearGradient id="id170" gradientUnits="userSpaceOnUse" xlink:href="#id0" x1="11.64" y1="10.18" x2="17" y2="11.85">
  </linearGradient>
  <linearGradient id="id171" gradientUnits="userSpaceOnUse" xlink:href="#id0" x1="11.41" y1="5.03" x2="15.12" y2="0.81">
  </linearGradient>
  <linearGradient id="id172" gradientUnits="userSpaceOnUse" xlink:href="#id0" x1="12.1" y1="6.45" x2="17.22" y2="4.29">
  </linearGradient>
  <linearGradient id="id173" gradientUnits="userSpaceOnUse" xlink:href="#id0" x1="2.85" y1="8.13" x2="-2.61" y2="9.18">
  </linearGradient>
  <linearGradient id="id174" gradientUnits="userSpaceOnUse" xlink:href="#id0" x1="10.7" y1="11.32" x2="15.28" y2="14.56">
  </linearGradient>
  <linearGradient id="id175" gradientUnits="userSpaceOnUse" xlink:href="#id0" x1="11.37" y1="10.59" x2="16.52" y2="12.81">
  </linearGradient>
  <linearGradient id="id176" gradientUnits="userSpaceOnUse" xlink:href="#id0" x1="11.73" y1="5.54" x2="16.28" y2="2.36">
  </linearGradient>
  <linearGradient id="id177" gradientUnits="userSpaceOnUse" xlink:href="#id0" x1="7.42" y1="12.5" x2="7.89" y2="18.03">
  </linearGradient>
  <linearGradient id="id178" gradientUnits="userSpaceOnUse" xlink:href="#id0" x1="3.02" y1="9.1" x2="-2.09" y2="11.26">
  </linearGradient>
  <linearGradient id="id179" gradientUnits="userSpaceOnUse" xlink:href="#id0" x1="4.15" y1="4.51" x2="-0.28" y2="1.16">
  </linearGradient>
  <linearGradient id="id180" gradientUnits="userSpaceOnUse" xlink:href="#id0" x1="5.42" y1="11.66" x2="10.86" y2="11.81">
  </linearGradient>
  <linearGradient id="id181" gradientUnits="userSpaceOnUse" xlink:href="#id0" x1="10.05" y1="3.76" x2="12.4" y2="-1.27">
  </linearGradient>
  <linearGradient id="id182" gradientUnits="userSpaceOnUse" xlink:href="#id0" x1="5.26" y1="4.24" x2="7.84" y2="3.19">
  </linearGradient>
  <linearGradient id="id183" gradientUnits="userSpaceOnUse" xlink:href="#id0" x1="2.85" y1="8.23" x2="-2.47" y2="10.03">
  </linearGradient>
  <linearGradient id="id184" gradientUnits="userSpaceOnUse" xlink:href="#id0" x1="5.41" y1="11.99" x2="10.85" y2="12.14">
  </linearGradient>
  <linearGradient id="id185" gradientUnits="userSpaceOnUse" xlink:href="#id0" x1="9.8" y1="11.94" x2="12.98" y2="16.49">
  </linearGradient>
  <linearGradient id="id186" gradientUnits="userSpaceOnUse" xlink:href="#id0" x1="2.86" y1="7.24" x2="-2.72" y2="7.9">
  </linearGradient>
  <linearGradient id="id187" gradientUnits="userSpaceOnUse" xlink:href="#id0" x1="8.88" y1="12.32" x2="11.05" y2="17.43">
  </linearGradient>
  <linearGradient id="id188" gradientUnits="userSpaceOnUse" xlink:href="#id0" x1="11.62" y1="7.6" x2="13.79" y2="8.33">
  </linearGradient>
  <linearGradient id="id189" gradientUnits="userSpaceOnUse" xlink:href="#id0" x1="3.05" y1="9.2" x2="-1.78" y2="12.07">
  </linearGradient>
  <linearGradient id="id190" gradientUnits="userSpaceOnUse" xlink:href="#id0" x1="2.91" y1="8.62" x2="-2.4" y2="10.23">
  </linearGradient>
  <linearGradient id="id191" gradientUnits="userSpaceOnUse" xlink:href="#id0" x1="9.45" y1="12.12" x2="12.81" y2="16.62">
  </linearGradient>
  <linearGradient id="id192" gradientUnits="userSpaceOnUse" xlink:href="#id0" x1="12.29" y1="7.81" x2="17.77" y2="6.58">
  </linearGradient>
  <linearGradient id="id193" gradientUnits="userSpaceOnUse" xlink:href="#id0" x1="6.72" y1="3.13" x2="5.11" y2="-2.19">
  </linearGradient>
  <linearGradient id="id194" gradientUnits="userSpaceOnUse" xlink:href="#id0" x1="4.97" y1="11.61" x2="12.89" y2="12.19">
  </linearGradient>
  <linearGradient id="id195" gradientUnits="userSpaceOnUse" xlink:href="#id0" x1="10.2" y1="7.82" x2="19.78" y2="7.61">
  </linearGradient>
  <linearGradient id="id196" gradientUnits="userSpaceOnUse" xlink:href="#id0" x1="3.08" y1="7.78" x2="12.04" y2="7.78">
  </linearGradient>
 </defs>
 <g id="Layer_x0020_1">
  <metadata id="CorelCorpID_0Corel-Layer"/>
  <g id="_1780118128080">
   <path class="fil0" d="M-0 7.78c0,4.18 3.39,7.56 7.56,7.56 4.18,0 7.56,-3.39 7.56,-7.56 0,-4.18 -3.39,-7.56 -7.56,-7.56 -4.18,0 -7.56,3.39 -7.56,7.56z"/>
   <path class="fil1" d="M0.1 7.69c-0.05,4.12 3.25,7.5 7.37,7.55 4.12,0.05 7.5,-3.25 7.55,-7.37 0.05,-4.12 -3.25,-7.5 -7.37,-7.55 -0.03,-0 -0.06,-0 -0.09,-0 -4.08,0 -7.41,3.28 -7.46,7.37z"/>
   <path class="fil2" d="M0.58 7.69c-0.05,3.85 3.04,7.01 6.89,7.06 3.85,0.05 7.01,-3.04 7.06,-6.89 0.05,-3.85 -3.04,-7.01 -6.89,-7.06 -0.03,-0 -0.06,-0 -0.09,-0 -3.81,0 -6.93,3.07 -6.98,6.89z"/>
   <path class="fil3" d="M14.45 7.78c0,3.8 -3.08,6.89 -6.89,6.89 -3.8,0 -6.89,-3.08 -6.89,-6.89 0,-3.8 3.08,-6.89 6.89,-6.89 3.8,0 6.89,3.08 6.89,6.89z"/>
   <path class="fil4" d="M11.58 7.69l1.79 0 0 -0.06 -1.76 0 -0.22 -0.2c-0.16,-1.78 -1.51,-3.2 -3.28,-3.45l-0.01 0.06c1.75,0.25 3.07,1.65 3.22,3.41l0 0.01 0.25 0.23z"/>
   <path class="fil5" d="M3.9 6.62l-0 0.01 0.24 0.33 1.86 0 0 -0.06 -1.82 0 -0.21 -0.28c0.36,-1.13 1.25,-2.04 2.38,-2.42l-0.02 -0.06c-1.15,0.39 -2.05,1.32 -2.42,2.48z"/>
   <path class="fil6" d="M2.23 7.78c0,2.94 2.39,5.33 5.33,5.33 2.23,0 4.25,-1.41 5.01,-3.51l0.02 -0.04 -0.29 0 -0.01 0.02c-0.74,1.95 -2.64,3.26 -4.72,3.26 -2.79,0 -5.05,-2.27 -5.05,-5.05 0,-2.79 2.27,-5.05 5.05,-5.05 2.12,0 4.03,1.34 4.75,3.33l0.01 0.02 0.29 0 -0.01 -0.04c-0.74,-2.14 -2.77,-3.58 -5.03,-3.58 -2.94,0 -5.33,2.39 -5.33,5.33zm0.06 0c0,-2.9 2.36,-5.27 5.27,-5.27 2.23,0 4.21,1.4 4.96,3.5l-0.16 0c-0.74,-2 -2.66,-3.35 -4.8,-3.35 -2.82,0 -5.12,2.29 -5.12,5.12 0,2.82 2.29,5.12 5.12,5.12 2.1,0 4.02,-1.32 4.77,-3.28l0.16 0c-0.76,2.05 -2.74,3.43 -4.94,3.43 -2.9,0 -5.27,-2.36 -5.27,-5.27z"/>
   <path class="fil7" d="M10.79 7.69l0.41 0 -0 -0.03c-0.06,-1.97 -1.66,-3.51 -3.63,-3.51 -1.46,0 -2.77,0.87 -3.34,2.21l-0.01 0.02 0.24 0.36 1.54 -0 0 -0.06 -1.51 0 -0.2 -0.3c0.57,-1.31 1.85,-2.16 3.28,-2.16 1.93,0 3.49,1.5 3.57,3.42l-0.32 0 -0.42 -0.42 0 -0.83 -0.06 0 0 0.86 0.46 0.46z"/>
   <path class="fil8" d="M10.26 7.87l0 0.06 0.87 0c-0.08,1.92 -1.64,3.42 -3.57,3.42 -1.43,0 -2.71,-0.85 -3.28,-2.16l0.2 -0.3 1.51 0 0 -0.06 -1.54 0 -0.24 0.36 0.01 0.02c0.57,1.34 1.88,2.21 3.34,2.21 1.97,0 3.56,-1.54 3.63,-3.51l0 -0.03 -0.94 0z"/>
   <path class="fil9" d="M7.56 11.13c-1.2,0 -2.31,-0.64 -2.91,-1.68l0.19 -0.32 1.15 0 0 -0.06 -1.19 0 -0.22 0.38 0.01 0.02c0.61,1.07 1.75,1.73 2.97,1.73 1.76,0 3.22,-1.32 3.4,-3.07l-0.06 -0.01c-0.17,1.72 -1.61,3.01 -3.34,3.01z"/>
   <path class="fil10" d="M4.59 6.09l-0.01 0.02 0.22 0.38 1.19 0 0 -0.06 -1.15 0 -0.19 -0.32c0.6,-1.04 1.71,-1.68 2.91,-1.68 1.73,0 3.17,1.3 3.34,3.01l0.06 -0.01c-0.18,-1.75 -1.64,-3.07 -3.4,-3.07 -1.23,0 -2.37,0.66 -2.97,1.73z"/>
   <polygon class="fil11" points="13.09,8.89 13.27,8.89 13.27,8.83 13.09,8.83 "/>
   <path class="fil12" d="M2.87 7.78c0,2.59 2.1,4.69 4.69,4.69 2.1,0 3.95,-1.41 4.52,-3.42l0.08 -0.06 -0.04 -0.05 -0.09 0.07 -0 0.01c-0.55,1.99 -2.39,3.38 -4.46,3.38 -2.55,0 -4.63,-2.08 -4.63,-4.63 0,-2.55 2.08,-4.63 4.63,-4.63 2.07,0 3.91,1.39 4.46,3.38l0 0.01 0.24 0.19 1 0 0 -0.06 -0.98 0 -0.21 -0.16c-0.57,-2.01 -2.42,-3.42 -4.52,-3.42 -2.59,0 -4.69,2.1 -4.69,4.69z"/>
   <path class="fil13" d="M4.14 8.59l-0.24 0.33 0 0.01c0.37,1.16 1.27,2.08 2.42,2.48l0.02 -0.06c-1.13,-0.39 -2.01,-1.29 -2.38,-2.42l0.21 -0.28 1.82 0 0 -0.06 -1.86 0z"/>
   <path class="fil14" d="M11.58 7.87l-0.25 0.23 -0 0.01c-0.15,1.76 -1.48,3.16 -3.22,3.41l0.01 0.06c1.77,-0.25 3.12,-1.67 3.28,-3.45l0.22 -0.2 1.76 -0 0 -0.06 -1.79 0z"/>
   <path class="fil15" d="M2.66 7.78c0,2.7 2.2,4.9 4.9,4.9 2.14,0 4.01,-1.37 4.67,-3.4l0.21 -0.15 0.78 0 0 -0.06 -0.8 0 -0.24 0.18 -0 0.01c-0.64,2.01 -2.5,3.37 -4.61,3.37 -2.67,0 -4.84,-2.17 -4.84,-4.84 0,-2.67 2.17,-4.84 4.84,-4.84 2.12,0 3.97,1.35 4.61,3.37l0 0.01 0.24 0.18 0.8 -0 0 -0.06 -0.78 0 -0.21 -0.15c-0.65,-2.03 -2.53,-3.4 -4.67,-3.4 -2.7,0 -4.9,2.2 -4.9,4.9z"/>
   <path class="fil16" d="M6.32 3.92c-1.36,0.44 -2.4,1.57 -2.71,2.96l-0 0.01 0.25 0.31 2.14 0 0 -0.06 -2.11 0 -0.21 -0.27c0.31,-1.35 1.31,-2.45 2.63,-2.89l-0 0.93 0.06 0 0 -1.02 -0.04 0.01z"/>
   <polygon class="fil17" points="7.24,3.35 6.84,3.35 6.84,4.92 6.9,4.92 6.9,3.41 7.24,3.41 "/>
   <path class="fil18" d="M6.72 4.92l0 -1.55 -0.04 0.01c-1.95,0.39 -3.42,2.04 -3.59,4.01l-0 0.01 0.25 0.28 2.64 0 0 -0.06 -2.61 0 -0.22 -0.24c0.17,-1.93 1.6,-3.54 3.5,-3.94l0 1.47 0.06 0z"/>
   <path class="fil19" d="M3.59 7.45l2.4 0 0 -0.06 -2.37 0 -0.22 -0.25c0.25,-1.65 1.46,-2.99 3.07,-3.42l0 1.21 0.06 0 0 -1.29 -0.04 0.01c-1.66,0.43 -2.9,1.8 -3.16,3.5l-0 0.01 0.25 0.29z"/>
   <polygon class="fil20" points="7.59,3.33 7.53,3.33 7.53,4.92 7.59,4.92 "/>
   <path class="fil21" d="M13.36 7.45l0 -0.06 -1.57 -0 -0.22 -0.19c-0.25,-1.78 -1.68,-3.2 -3.46,-3.44l-0.03 -0 0 1.17 0.06 0 0 -1.1c1.75,0.25 3.13,1.64 3.38,3.39l0 0.01 0.25 0.22 1.59 0z"/>
   <path class="fil22" d="M13.34 7.21l0 -0.06 -1.38 0 -0.21 -0.18c-0.36,-1.87 -1.93,-3.29 -3.82,-3.45l-0.03 -0 0 1.41 0.06 0 0 -1.34c1.86,0.17 3.39,1.57 3.74,3.41l0 0.01 0.25 0.21 1.4 -0z"/>
   <path class="fil23" d="M13.31 6.97l0 -0.06 -1.18 -0 -0.21 -0.17c-0.46,-1.94 -2.18,-3.36 -4.17,-3.44l-0.03 -0 0 1.62 0.06 0 -0 -1.56c1.96,0.09 3.64,1.49 4.09,3.4l0 0.01 0.25 0.19 1.2 0z"/>
   <path class="fil24" d="M12.12 8.17l0 -0.06 -0.35 0 -0.25 0.22 -0 0.01c-0.25,1.75 -1.63,3.14 -3.38,3.39l0 -1.12 -0.06 0 0 1.19 0.04 -0c1.79,-0.24 3.21,-1.66 3.46,-3.44l0.22 -0.19 0.33 0z"/>
   <polygon class="fil25" points="13.36,8.17 13.36,8.11 13.09,8.11 13.09,8.17 "/>
   <polygon class="fil26" points="7.53,12.22 7.59,12.22 7.59,10.61 7.53,10.61 "/>
   <polygon class="fil27" points="13.09,8.65 13.31,8.65 13.31,8.59 13.09,8.59 "/>
   <path class="fil28" d="M11.86 8.78l-0 0.01c-0.45,1.91 -2.13,3.31 -4.09,3.4l0 -1.58 -0.06 0 0 1.65 0.03 -0c2,-0.08 3.71,-1.49 4.17,-3.44l0.22 -0.17 -0.04 -0.05 -0.23 0.19z"/>
   <polygon class="fil29" points="13.34,8.41 13.34,8.35 13.09,8.35 13.09,8.41 "/>
   <path class="fil30" d="M12.12 8.41l0 -0.06 -0.17 0 -0.25 0.21 -0 0.01c-0.35,1.83 -1.88,3.23 -3.74,3.4l0 -1.36 -0.06 0 0 1.42 0.03 -0c1.89,-0.16 3.46,-1.58 3.82,-3.44l0.21 -0.18 0.15 0z"/>
   <polygon class="fil31" points="6.84,12.2 7.24,12.2 7.24,12.14 6.9,12.14 6.9,10.61 6.84,10.61 "/>
   <path class="fil32" d="M3.85 8.35l-0.25 0.31 0 0.01c0.31,1.39 1.35,2.53 2.71,2.96l0.04 0.01 0 -1.04 -0.06 0 0 0.96c-1.31,-0.44 -2.32,-1.54 -2.63,-2.89l0.21 -0.27 2.11 0 0 -0.06 -2.14 0z"/>
   <path class="fil33" d="M5.99 8.11l-2.4 0 -0.25 0.29 0 0.01c0.25,1.7 1.49,3.07 3.16,3.5l0.04 0.01 0 -1.31 -0.06 0 0 1.23c-1.62,-0.43 -2.82,-1.77 -3.07,-3.42l0.22 -0.25 2.37 0 0 -0.06z"/>
   <path class="fil34" d="M3.35 7.87l-0.25 0.28 0 0.01c0.17,1.98 1.64,3.63 3.59,4.01l0.04 0.01 0 -1.57 -0.06 0 0 1.49c-1.9,-0.39 -3.33,-2.01 -3.5,-3.94l0.22 -0.24 2.61 -0 0 -0.06 -2.64 0z"/>
   <polygon class="fil35" points="6.87,3.53 7.24,3.53 7.24,3.47 6.87,3.47 "/>
   <polygon class="fil36" points="6.87,3.73 7.24,3.73 7.24,3.67 6.87,3.67 "/>
   <polygon class="fil37" points="7.24,3.86 7.24,3.8 6.87,3.8 6.87,3.86 "/>
   <polygon class="fil38" points="7.24,12.06 7.24,12 6.87,12 6.87,12.06 "/>
   <polygon class="fil39" points="7.24,11.87 7.24,11.81 6.87,11.81 6.87,11.87 "/>
   <polygon class="fil40" points="7.24,11.73 7.24,11.67 6.87,11.67 6.87,11.73 "/>
   <path class="fil41" d="M7.06 3.56l0.34 0c0.03,0 0.06,-0.03 0.06,-0.06l0 -0.11c0,-0.03 -0.03,-0.06 -0.06,-0.06l-0.34 0c-0.03,0 -0.06,0.03 -0.06,0.06l0 0.11c0,0.03 0.03,0.06 0.06,0.06z"/>
   <path class="fil42" d="M12.38 7.71l0 0.11c0,0.04 0.04,0.08 0.08,0.08l0.49 0c0.04,0 0.08,-0.04 0.08,-0.08l0 -0.11c0,-0.04 -0.04,-0.08 -0.08,-0.08l-0.49 0c-0.04,0 -0.08,0.04 -0.08,0.08z"/>
   <path class="fil43" d="M12.95 7.15l-0.49 0c-0.04,0 -0.08,0.04 -0.08,0.08l0 0.11c0,0.04 0.04,0.08 0.08,0.08l0.49 0c0.04,0 0.08,-0.04 0.08,-0.08l0 -0.11c0,-0.04 -0.04,-0.08 -0.08,-0.08z"/>
   <path class="fil44" d="M4.7 7.43l0.49 0c0.04,0 0.08,-0.04 0.08,-0.08l0 -0.11c0,-0.04 -0.04,-0.08 -0.08,-0.08l-0.49 0c-0.04,0 -0.08,0.04 -0.08,0.08l0 0.11c0,0.04 0.04,0.08 0.08,0.08z"/>
   <path class="fil45" d="M4.7 7.91l0.49 0c0.04,0 0.08,-0.04 0.08,-0.08l0 -0.11c0,-0.04 -0.04,-0.08 -0.08,-0.08l-0.49 0c-0.04,0 -0.08,0.04 -0.08,0.08l0 0.11c0,0.04 0.04,0.08 0.08,0.08z"/>
   <path class="fil46" d="M10.11 7.85l0 0.1c0,0.04 0.03,0.07 0.07,0.07l0.45 0c0.04,0 0.07,-0.03 0.07,-0.07l0 -0.1c0,-0.04 -0.03,-0.07 -0.07,-0.07l-0.45 0c-0.04,0 -0.07,0.03 -0.07,0.07z"/>
   <path class="fil47" d="M10.41 6.46l-0.11 0c-0.04,0 -0.08,0.04 -0.08,0.08l0 0.49c0,0.04 0.04,0.08 0.08,0.08l0.11 0c0.04,0 0.08,-0.04 0.08,-0.08l0 -0.49c0,-0.04 -0.04,-0.08 -0.08,-0.08z"/>
   <path class="fil48" d="M5.19 8.12l-0.49 0c-0.04,0 -0.08,0.04 -0.08,0.08l0 0.11c0,0.04 0.04,0.08 0.08,0.08l0.49 0c0.04,0 0.08,-0.04 0.08,-0.08l0 -0.11c0,-0.04 -0.04,-0.08 -0.08,-0.08z"/>
   <path class="fil49" d="M7.46 3.82l0 -0.11c0,-0.03 -0.03,-0.06 -0.06,-0.06l-0.34 0c-0.03,0 -0.06,0.03 -0.06,0.06l0 0.11c0,0.03 0.03,0.06 0.06,0.06l0.34 0c0.03,0 0.06,-0.03 0.06,-0.06z"/>
   <path class="fil50" d="M7.06 12.22l0.34 0c0.03,0 0.06,-0.03 0.06,-0.06l0 -0.11c0,-0.03 -0.03,-0.06 -0.06,-0.06l-0.34 0c-0.03,0 -0.06,0.03 -0.06,0.06l0 0.11c0,0.03 0.03,0.06 0.06,0.06z"/>
   <path class="fil51" d="M7.06 11.89l0.34 0c0.03,0 0.06,-0.03 0.06,-0.06l0 -0.11c0,-0.03 -0.03,-0.06 -0.06,-0.06l-0.34 0c-0.03,0 -0.06,0.03 -0.06,0.06l0 0.11c0,0.03 0.03,0.06 0.06,0.06z"/>
   <path class="fil52" d="M12.09 8.99l1.03 0 0 -0.98 -1.03 0 0 0.98zm0.06 -0.91l0.91 0 0 0.85 -0.91 0 0 -0.85z"/>
   <polygon class="fil53" points="12.1,8.29 12.14,8.33 12.4,8.07 12.36,8.03 "/>
   <polygon class="fil54" points="12.8,8.94 12.85,8.98 13.11,8.72 13.07,8.68 "/>
   <polygon class="fil55" points="12.53,8.94 12.58,8.98 13.11,8.45 13.07,8.41 "/>
   <polygon class="fil56" points="13.37,8.18 13.31,8.18 13.31,8.18 "/>
   <polygon class="fil57" points="12.26,8.94 12.3,8.98 13.11,8.18 13.07,8.13 "/>
   <polygon class="fil58" points="12.1,8.83 12.14,8.88 12.95,8.07 12.9,8.03 "/>
   <polygon class="fil59" points="12.1,8.56 12.14,8.6 12.67,8.07 12.63,8.03 "/>
   <g>
    <g>
     <g>
      <polygon class="fil60" points="7.45,6.7 7.51,6.7 7.51,7.11 8.29,7.11 8.29,7.17 7.45,7.17 "/>
      <path class="fil61" d="M7.69 7.04l0.34 0c0.03,0 0.05,0.02 0.05,0.05l0 0.07c0,0.03 -0.02,0.05 -0.05,0.05l-0.34 0c-0.03,0 -0.05,-0.02 -0.05,-0.05l0 -0.07c0,-0.03 0.02,-0.05 0.05,-0.05z"/>
     </g>
     <g>
      <polygon class="fil62" points="7.1,6.7 7.17,6.7 7.17,7.17 7.36,7.36 8.29,7.36 8.29,7.42 7.33,7.42 7.1,7.2 "/>
      <path class="fil63" d="M7.54 7.3l0.34 0c0.03,0 0.05,0.02 0.05,0.05l0 0.07c0,0.03 -0.02,0.05 -0.05,0.05l-0.34 0c-0.03,0 -0.05,-0.02 -0.05,-0.05l0 -0.07c0,-0.03 0.02,-0.05 0.05,-0.05z"/>
     </g>
     <g>
      <polygon class="fil64" points="8.29,7.68 7.1,7.68 6.83,7.41 6.83,6.7 6.9,6.7 6.9,7.39 7.13,7.62 8.29,7.62 "/>
      <path class="fil65" d="M7.73 7.74l-0.34 0c-0.03,0 -0.05,-0.02 -0.05,-0.05l0 -0.07c0,-0.03 0.02,-0.05 0.05,-0.05l0.34 0c0.03,0 0.05,0.02 0.05,0.05l0 0.07c0,0.03 -0.02,0.05 -0.05,0.05z"/>
     </g>
    </g>
    <g>
     <g>
      <polygon class="fil66" points="7.45,8.86 7.51,8.86 7.51,8.45 8.29,8.45 8.29,8.39 7.45,8.39 "/>
      <path class="fil67" d="M7.69 8.51l0.34 0c0.03,0 0.05,-0.02 0.05,-0.05l0 -0.07c0,-0.03 -0.02,-0.05 -0.05,-0.05l-0.34 0c-0.03,0 -0.05,0.02 -0.05,0.05l0 0.07c0,0.03 0.02,0.05 0.05,0.05z"/>
     </g>
     <g>
      <polygon class="fil68" points="7.1,8.86 7.17,8.86 7.17,8.38 7.36,8.19 8.29,8.19 8.29,8.13 7.33,8.13 7.1,8.36 "/>
      <path class="fil69" d="M7.54 8.25l0.34 0c0.03,0 0.05,-0.02 0.05,-0.05l0 -0.07c0,-0.03 -0.02,-0.05 -0.05,-0.05l-0.34 0c-0.03,0 -0.05,0.02 -0.05,0.05l0 0.07c0,0.03 0.02,0.05 0.05,0.05z"/>
     </g>
     <g>
      <polygon class="fil70" points="8.29,7.87 7.1,7.87 6.83,8.14 6.83,8.86 6.9,8.86 6.9,8.16 7.13,7.93 8.29,7.93 "/>
      <path class="fil71" d="M7.73 7.81l-0.34 0c-0.03,0 -0.05,0.02 -0.05,0.05l0 0.07c0,0.03 0.02,0.05 0.05,0.05l0.34 0c0.03,0 0.05,-0.02 0.05,-0.05l0 -0.07c0,-0.03 -0.02,-0.05 -0.05,-0.05z"/>
     </g>
    </g>
   </g>
   <path class="fil72" d="M1.73 7.78c0,3.22 2.62,5.83 5.83,5.83 3.22,0 5.83,-2.62 5.83,-5.83 0,-3.22 -2.62,-5.83 -5.83,-5.83 -3.22,0 -5.83,2.62 -5.83,5.83zm0.06 0c0,-3.18 2.59,-5.77 5.77,-5.77 3.18,0 5.77,2.59 5.77,5.77 0,3.18 -2.59,5.77 -5.77,5.77 -3.18,0 -5.77,-2.59 -5.77,-5.77z"/>
   <path class="fil73" d="M7.55 1.85c-0.21,0 -0.43,0.01 -0.64,0.04 -0.08,0.01 -0.15,0.09 -0.14,0.17 0.01,0.08 0.07,0.13 0.14,0.14 0.01,0 0.02,0 0.03,-0 0.2,-0.02 0.41,-0.03 0.61,-0.03 0.09,0 0.15,-0.07 0.15,-0.15 -0,-0.09 -0.07,-0.15 -0.15,-0.15 -0,0 -0,0 -0,0zm0.47 0.17c-0.01,0.08 0.05,0.16 0.14,0.17 0.2,0.02 0.4,0.05 0.6,0.1 0.01,0 0.02,0 0.02,0 0.07,0 0.14,-0.05 0.16,-0.12 0.02,-0.08 -0.03,-0.17 -0.12,-0.18 -0.21,-0.05 -0.42,-0.08 -0.63,-0.1 -0.01,-0 -0.01,-0 -0.02,-0 -0.08,0 -0.14,0.06 -0.15,0.14zm-1.75 -0.03c-0.21,0.05 -0.42,0.1 -0.62,0.17 -0.08,0.03 -0.12,0.11 -0.1,0.2 0.02,0.06 0.08,0.1 0.14,0.1 0.02,0 0.04,-0 0.06,-0.01 0.19,-0.06 0.39,-0.12 0.59,-0.16 0.08,-0.02 0.14,-0.1 0.12,-0.18 -0.02,-0.07 -0.08,-0.12 -0.15,-0.12 -0.01,0 -0.02,0 -0.03,0zm2.97 0.26c-0.03,0.08 0.02,0.17 0.1,0.19 0.19,0.06 0.38,0.14 0.57,0.22 0.02,0.01 0.04,0.01 0.06,0.01 0.06,0 0.12,-0.03 0.15,-0.09 0.04,-0.08 0,-0.17 -0.08,-0.2 -0.19,-0.09 -0.4,-0.17 -0.6,-0.24 -0.02,-0.01 -0.03,-0.01 -0.05,-0.01 -0.06,0 -0.12,0.04 -0.15,0.11zm-4.19 0.15c-0.19,0.09 -0.38,0.19 -0.57,0.3 -0.07,0.04 -0.1,0.14 -0.05,0.21 0.03,0.05 0.07,0.07 0.12,0.07 0.03,0 0.06,-0.01 0.09,-0.02 0.17,-0.1 0.35,-0.2 0.54,-0.29 0.08,-0.04 0.11,-0.13 0.07,-0.2 -0.03,-0.06 -0.08,-0.09 -0.14,-0.09 -0.02,0 -0.04,0 -0.06,0.01zm5.34 0.34c-0.04,0.07 -0.02,0.17 0.05,0.21 0.17,0.1 0.34,0.22 0.5,0.34 0.03,0.02 0.05,0.03 0.08,0.03 0.05,0 0.1,-0.02 0.13,-0.06 0.05,-0.07 0.04,-0.16 -0.03,-0.22 -0.17,-0.13 -0.35,-0.25 -0.53,-0.36 -0.02,-0.01 -0.05,-0.02 -0.08,-0.02 -0.05,0 -0.1,0.03 -0.13,0.07zm-6.44 0.32c-0.17,0.13 -0.33,0.27 -0.49,0.42 -0.06,0.06 -0.06,0.16 -0.01,0.22 0.03,0.03 0.07,0.05 0.1,0.05 0.04,0 0.08,-0.01 0.11,-0.04 0.15,-0.14 0.3,-0.27 0.46,-0.39 0.07,-0.05 0.08,-0.15 0.03,-0.22 -0.03,-0.04 -0.08,-0.06 -0.12,-0.06 -0.03,0 -0.07,0.01 -0.09,0.03zm7.45 0.41c-0.06,0.06 -0.06,0.16 0.01,0.22 0.15,0.14 0.29,0.29 0.42,0.44 0.03,0.03 0.07,0.05 0.11,0.05 0.04,0 0.08,-0.01 0.11,-0.04 0.06,-0.06 0.07,-0.15 0.02,-0.22 -0.14,-0.16 -0.29,-0.32 -0.44,-0.47 -0.03,-0.03 -0.07,-0.04 -0.11,-0.04 -0.04,0 -0.08,0.02 -0.11,0.05zm-8.38 0.47c-0.14,0.16 -0.27,0.34 -0.39,0.51 -0.05,0.07 -0.03,0.17 0.04,0.21 0.02,0.02 0.05,0.02 0.08,0.03 0.05,0 0.1,-0.02 0.14,-0.07 0.11,-0.17 0.24,-0.33 0.37,-0.48 0.05,-0.06 0.05,-0.16 -0.02,-0.22 -0.03,-0.02 -0.06,-0.04 -0.1,-0.04 -0.04,0 -0.09,0.02 -0.12,0.05zm9.22 0.46c-0.07,0.05 -0.09,0.14 -0.04,0.21 0.11,0.17 0.22,0.34 0.32,0.52 0.03,0.05 0.08,0.08 0.13,0.08 0.03,0 0.06,-0 0.08,-0.02 0.08,-0.04 0.1,-0.13 0.06,-0.21 -0.1,-0.19 -0.21,-0.37 -0.33,-0.55 -0.03,-0.04 -0.08,-0.07 -0.13,-0.07 -0.03,0 -0.06,0.01 -0.09,0.03zm-9.94 0.61c-0.1,0.19 -0.19,0.39 -0.27,0.58 -0.03,0.08 0.01,0.17 0.09,0.2 0.02,0.01 0.03,0.01 0.05,0.01 0.06,0 0.13,-0.03 0.15,-0.1 0.07,-0.19 0.16,-0.37 0.26,-0.55 0.04,-0.08 0.01,-0.17 -0.06,-0.21 -0.02,-0.01 -0.05,-0.02 -0.07,-0.02 -0.06,0 -0.11,0.03 -0.14,0.08zm10.56 0.48c-0.08,0.03 -0.12,0.12 -0.09,0.2 0.08,0.19 0.14,0.38 0.2,0.58 0.02,0.07 0.08,0.11 0.14,0.11 0.02,0 0.03,-0 0.05,-0.01 0.08,-0.02 0.13,-0.11 0.11,-0.19 -0.06,-0.21 -0.13,-0.41 -0.21,-0.61 -0.02,-0.06 -0.08,-0.1 -0.14,-0.1 -0.02,0 -0.04,0 -0.06,0.01zm-11.03 0.71c-0.06,0.21 -0.1,0.42 -0.14,0.63 -0.01,0.08 0.04,0.16 0.13,0.18 0.01,0 0.01,0 0.02,0 0.08,0 0.15,-0.05 0.16,-0.13 0.03,-0.2 0.08,-0.4 0.13,-0.59 0.02,-0.08 -0.03,-0.17 -0.11,-0.19 -0.01,-0 -0.03,-0.01 -0.04,-0.01 -0.07,0 -0.13,0.05 -0.15,0.11zm-0.21 1.27c-0.01,0.21 -0.01,0.43 -0,0.64 0,0.08 0.07,0.14 0.15,0.15 0.01,0 0.01,0 0.02,0 0.08,-0 0.15,-0.08 0.15,-0.16 -0.01,-0.2 -0.01,-0.41 0,-0.61 0,-0.08 -0.06,-0.15 -0.15,-0.16 -0,-0 -0.01,-0 -0.01,-0 -0.08,0 -0.15,0.06 -0.15,0.15zm0.2 1.1c-0.08,0.01 -0.14,0.09 -0.13,0.18 0.03,0.21 0.08,0.42 0.14,0.63 0.02,0.07 0.08,0.11 0.14,0.11 0.02,0 0.03,-0 0.05,-0.01 0.08,-0.02 0.13,-0.11 0.11,-0.19 -0.05,-0.19 -0.1,-0.39 -0.13,-0.59 -0.01,-0.08 -0.08,-0.13 -0.15,-0.13 -0.01,0 -0.02,0 -0.02,0zm11.15 0.72c-0.05,0.2 -0.12,0.39 -0.19,0.58 -0.03,0.08 0.01,0.17 0.09,0.2 0.02,0.01 0.03,0.01 0.05,0.01 0.06,0 0.13,-0.03 0.15,-0.1 0.08,-0.2 0.15,-0.4 0.21,-0.61 0.02,-0.08 -0.03,-0.17 -0.11,-0.19 -0.01,-0 -0.03,-0.01 -0.04,-0.01 -0.07,0 -0.13,0.04 -0.15,0.11zm-10.85 0.49c-0.08,0.03 -0.12,0.12 -0.09,0.2 0.08,0.2 0.17,0.39 0.27,0.58 0.03,0.05 0.08,0.08 0.13,0.08 0.03,0 0.06,-0 0.08,-0.02 0.08,-0.04 0.1,-0.13 0.06,-0.21 -0.09,-0.18 -0.18,-0.36 -0.26,-0.55 -0.02,-0.06 -0.08,-0.1 -0.14,-0.1 -0.02,0 -0.04,0 -0.06,0.01zm10.4 0.64c-0.09,0.18 -0.2,0.35 -0.31,0.52 -0.05,0.07 -0.03,0.17 0.04,0.21 0.02,0.02 0.05,0.03 0.08,0.03 0.05,0 0.1,-0.02 0.14,-0.07 0.12,-0.18 0.23,-0.36 0.33,-0.55 0.04,-0.08 0.01,-0.17 -0.06,-0.21 -0.02,-0.01 -0.05,-0.02 -0.07,-0.02 -0.06,0 -0.11,0.03 -0.14,0.08zm-9.84 0.48c-0.07,0.05 -0.09,0.14 -0.04,0.21 0.12,0.18 0.25,0.35 0.39,0.51 0.03,0.03 0.07,0.05 0.11,0.05 0.04,0 0.08,-0.01 0.11,-0.04 0.06,-0.06 0.07,-0.15 0.02,-0.22 -0.13,-0.15 -0.26,-0.32 -0.37,-0.48 -0.03,-0.04 -0.08,-0.07 -0.13,-0.07 -0.03,0 -0.06,0.01 -0.09,0.03zm9.16 0.53c-0.13,0.15 -0.27,0.3 -0.42,0.44 -0.06,0.06 -0.06,0.16 -0.01,0.22 0.03,0.03 0.07,0.05 0.1,0.05 0.04,0 0.08,-0.01 0.11,-0.04 0.16,-0.15 0.3,-0.3 0.44,-0.47 0.06,-0.06 0.05,-0.16 -0.02,-0.22 -0.03,-0.02 -0.06,-0.04 -0.1,-0.04 -0.04,0 -0.09,0.02 -0.12,0.05zm-8.37 0.44c-0.06,0.06 -0.06,0.16 0.01,0.22 0.16,0.15 0.32,0.29 0.49,0.42 0.03,0.02 0.05,0.03 0.08,0.03 0.05,0 0.1,-0.02 0.13,-0.06 0.05,-0.07 0.04,-0.16 -0.03,-0.22 -0.16,-0.12 -0.32,-0.26 -0.46,-0.39 -0.03,-0.03 -0.07,-0.04 -0.11,-0.04 -0.04,0 -0.08,0.02 -0.11,0.05zm7.49 0.39c-0.16,0.12 -0.33,0.24 -0.5,0.34 -0.07,0.04 -0.1,0.14 -0.05,0.21 0.03,0.05 0.07,0.07 0.12,0.07 0.03,0 0.06,-0.01 0.09,-0.02 0.18,-0.11 0.36,-0.23 0.53,-0.36 0.07,-0.05 0.08,-0.15 0.03,-0.22 -0.03,-0.04 -0.08,-0.06 -0.12,-0.06 -0.03,0 -0.07,0.01 -0.09,0.03zm-6.51 0.39c-0.04,0.07 -0.02,0.17 0.05,0.21 0.18,0.11 0.37,0.21 0.57,0.3 0.02,0.01 0.04,0.01 0.06,0.01 0.06,0 0.12,-0.03 0.15,-0.09 0.04,-0.08 0,-0.17 -0.07,-0.2 -0.18,-0.08 -0.36,-0.18 -0.54,-0.29 -0.02,-0.01 -0.05,-0.02 -0.08,-0.02 -0.05,0 -0.1,0.03 -0.13,0.07zm5.47 0.23c-0.18,0.08 -0.37,0.16 -0.57,0.23 -0.08,0.03 -0.12,0.11 -0.1,0.2 0.02,0.06 0.08,0.1 0.14,0.1 0.02,0 0.04,-0 0.06,-0.01 0.2,-0.07 0.4,-0.15 0.6,-0.24 0.08,-0.04 0.11,-0.13 0.08,-0.2 -0.03,-0.06 -0.08,-0.09 -0.14,-0.09 -0.02,0 -0.04,0 -0.06,0.01zm-4.35 0.32c-0.03,0.08 0.02,0.17 0.1,0.2 0.2,0.07 0.41,0.13 0.62,0.17 0.01,0 0.02,0 0.02,0 0.07,0 0.14,-0.05 0.16,-0.12 0.02,-0.08 -0.03,-0.17 -0.12,-0.18 -0.2,-0.04 -0.4,-0.1 -0.59,-0.16 -0.02,-0.01 -0.03,-0.01 -0.05,-0.01 -0.06,0 -0.12,0.04 -0.15,0.11zm3.2 0.07c-0.2,0.04 -0.4,0.08 -0.6,0.1 -0.08,0.01 -0.15,0.08 -0.14,0.17 0.01,0.08 0.07,0.13 0.14,0.14 0.01,0 0.02,0 0.03,-0 0.21,-0.02 0.43,-0.06 0.63,-0.1 0.08,-0.02 0.14,-0.1 0.12,-0.18 -0.02,-0.07 -0.08,-0.12 -0.15,-0.12 -0.01,0 -0.02,0 -0.03,0zm-1.99 0.23c-0.01,0.08 0.05,0.16 0.14,0.17 0.1,0.01 0.21,0.02 0.31,0.03 0.11,0.01 0.22,0.01 0.33,0.01 0.08,0 0.15,-0.07 0.15,-0.15 0,-0.08 -0.07,-0.16 -0.15,-0.15 -0.2,-0 -0.41,-0.01 -0.61,-0.03 -0.01,-0 -0.01,-0 -0.02,-0 -0.08,0 -0.14,0.06 -0.15,0.14z"/>
   <g>
    <path class="fil73 str0" d="M7.2 12.12c-2.12,-0.17 -3.81,-1.87 -3.99,-3.99l0.97 0c0.17,1.59 1.43,2.84 3.01,3.01l0 0.97zm-3.99 -4.71c0.17,-2.12 1.87,-3.81 3.99,-3.99l0 0.97c-1.59,0.17 -2.84,1.43 -3.01,3.01l-0.97 0zm4.71 -3.99c2.12,0.17 3.81,1.87 3.99,3.99l-0.97 0c-0.17,-1.59 -1.43,-2.84 -3.01,-3.01l0 -0.97zm-0.28 6.87c-0.46,0 -0.87,-0.11 -1.23,-0.32 -0.36,-0.22 -0.65,-0.51 -0.86,-0.9 -0.21,-0.38 -0.31,-0.82 -0.31,-1.31 0,-0.49 0.1,-0.92 0.31,-1.31 0.21,-0.38 0.49,-0.68 0.86,-0.9 0.36,-0.22 0.78,-0.32 1.23,-0.32 0.4,0 0.76,0.08 1.08,0.24 0.32,0.16 0.59,0.38 0.8,0.68l-0.79 0.79c-0.28,-0.38 -0.63,-0.57 -1.03,-0.57 -0.24,0 -0.45,0.06 -0.63,0.17 -0.19,0.12 -0.33,0.28 -0.43,0.49 -0.1,0.21 -0.15,0.45 -0.15,0.73 0,0.27 0.05,0.51 0.15,0.73 0.1,0.21 0.25,0.37 0.43,0.49 0.19,0.12 0.4,0.17 0.63,0.17 0.4,0 0.75,-0.19 1.03,-0.57l0.79 0.79c-0.21,0.3 -0.48,0.52 -0.8,0.68 -0.32,0.16 -0.68,0.24 -1.08,0.24zm4.27 -2.17c-0.17,2.12 -1.87,3.81 -3.99,3.99l0 -0.97c1.59,-0.17 2.84,-1.43 3.01,-3.01l0.97 0z"/>
    <path class="fil74" d="M7.94 3.29c1.09,0.09 2.07,0.57 2.8,1.3 0.73,0.73 1.21,1.71 1.3,2.81 0.01,0.07 -0.05,0.14 -0.12,0.15 -0,0 -0.01,0 -0.01,0l0 0 -0.97 0c-0.07,0 -0.13,-0.06 -0.14,-0.13 -0.08,-0.76 -0.42,-1.44 -0.94,-1.95 -0.51,-0.51 -1.2,-0.86 -1.96,-0.94 -0.07,-0.01 -0.12,-0.07 -0.12,-0.13l-0 0 0 -0.97c0,-0.08 0.06,-0.14 0.14,-0.14 0.01,0 0.01,0 0.02,0zm2.61 1.49c-0.65,-0.65 -1.52,-1.1 -2.49,-1.21l0 0.7c0.78,0.11 1.47,0.47 2,1 0.53,0.53 0.89,1.22 1,2l0.7 0c-0.11,-0.97 -0.55,-1.84 -1.21,-2.49zm-3.79 3.65c0.05,0.09 0.1,0.18 0.16,0.25 0.06,0.07 0.14,0.13 0.22,0.18 0.08,0.05 0.17,0.09 0.26,0.11 0.09,0.03 0.19,0.04 0.3,0.04 0.18,0 0.34,-0.04 0.5,-0.13 0.15,-0.09 0.3,-0.21 0.43,-0.39 0.04,-0.06 0.13,-0.07 0.19,-0.03 0.01,0.01 0.02,0.01 0.02,0.02l0.78 0.79c0.05,0.05 0.05,0.12 0.01,0.17l0 0c-0.11,0.16 -0.24,0.29 -0.38,0.42 -0.14,0.12 -0.3,0.22 -0.47,0.31 -0.17,0.08 -0.35,0.15 -0.54,0.19 -0.19,0.04 -0.39,0.06 -0.6,0.06 -0.24,0 -0.47,-0.03 -0.69,-0.09 -0.22,-0.06 -0.42,-0.14 -0.62,-0.26 -0.19,-0.11 -0.37,-0.25 -0.52,-0.41 -0.15,-0.16 -0.28,-0.34 -0.39,-0.54 -0.11,-0.2 -0.19,-0.42 -0.25,-0.65 -0.05,-0.23 -0.08,-0.47 -0.08,-0.72 0,-0.25 0.03,-0.49 0.08,-0.72 0.06,-0.23 0.14,-0.45 0.25,-0.65 0.11,-0.2 0.24,-0.38 0.39,-0.54 0.15,-0.16 0.32,-0.3 0.52,-0.41 0.39,-0.23 0.82,-0.34 1.3,-0.34 0.21,0 0.41,0.02 0.6,0.06 0.19,0.04 0.37,0.1 0.54,0.19 0.17,0.08 0.33,0.19 0.47,0.31 0.14,0.12 0.27,0.26 0.38,0.42 0.04,0.06 0.03,0.14 -0.02,0.18l-0.78 0.78c-0.05,0.05 -0.14,0.05 -0.19,0 -0,-0 -0.01,-0.01 -0.01,-0.02l-0 0c-0.13,-0.17 -0.27,-0.3 -0.43,-0.39 -0.15,-0.08 -0.32,-0.13 -0.5,-0.13 -0.21,0 -0.4,0.05 -0.56,0.15 -0.08,0.05 -0.15,0.11 -0.22,0.18 -0.06,0.07 -0.12,0.16 -0.16,0.25 -0.05,0.1 -0.08,0.2 -0.1,0.31 -0.02,0.11 -0.04,0.23 -0.04,0.36 0,0.13 0.01,0.25 0.04,0.36 0.02,0.11 0.06,0.21 0.1,0.31zm-0.04 0.43c-0.08,-0.09 -0.15,-0.19 -0.2,-0.31 -0.06,-0.12 -0.1,-0.24 -0.13,-0.37 -0.03,-0.13 -0.04,-0.27 -0.04,-0.41 0,-0.15 0.01,-0.28 0.04,-0.41 0.03,-0.13 0.07,-0.26 0.13,-0.37 0.06,-0.12 0.12,-0.22 0.2,-0.31 0.08,-0.09 0.17,-0.17 0.28,-0.23 0.21,-0.13 0.44,-0.19 0.71,-0.19 0.23,0 0.43,0.05 0.63,0.16 0.15,0.08 0.29,0.2 0.42,0.34l0.6 -0.6c-0.08,-0.1 -0.17,-0.2 -0.27,-0.28 -0.12,-0.11 -0.26,-0.2 -0.41,-0.27 -0.15,-0.07 -0.31,-0.13 -0.48,-0.17 -0.17,-0.04 -0.35,-0.06 -0.54,-0.06 -0.43,0 -0.82,0.1 -1.17,0.3 -0.17,0.1 -0.32,0.22 -0.46,0.36 -0.13,0.14 -0.25,0.3 -0.35,0.48 -0.1,0.18 -0.17,0.38 -0.22,0.58 -0.05,0.21 -0.07,0.43 -0.07,0.66 0,0.23 0.02,0.45 0.07,0.66 0.05,0.2 0.12,0.4 0.22,0.58 0.1,0.18 0.22,0.34 0.35,0.48 0.13,0.14 0.29,0.26 0.46,0.36 0.17,0.1 0.35,0.18 0.55,0.23 0.19,0.05 0.4,0.08 0.62,0.08 0.19,0 0.37,-0.02 0.54,-0.06 0.17,-0.04 0.33,-0.09 0.48,-0.17 0.15,-0.07 0.29,-0.16 0.41,-0.27 0.1,-0.08 0.19,-0.17 0.27,-0.28l-0.6 -0.6c-0.13,0.15 -0.27,0.26 -0.42,0.34 -0.19,0.11 -0.4,0.16 -0.63,0.16 -0.13,0 -0.25,-0.02 -0.37,-0.05 -0.12,-0.03 -0.23,-0.08 -0.33,-0.15 -0.1,-0.07 -0.2,-0.14 -0.28,-0.23zm-3.51 -0.87l0.97 0c0.07,0 0.13,0.06 0.14,0.13 0.08,0.76 0.42,1.44 0.94,1.95 0.51,0.51 1.2,0.86 1.96,0.94 0.07,0.01 0.12,0.07 0.12,0.13l0 0 0 0.97c0,0.08 -0.06,0.14 -0.14,0.14 -0.01,0 -0.01,-0 -0.02,-0 -1.09,-0.09 -2.07,-0.57 -2.8,-1.3 -0.73,-0.73 -1.21,-1.71 -1.3,-2.81 -0.01,-0.07 0.05,-0.14 0.12,-0.15 0,-0 0.01,-0 0.01,-0l0 -0zm0.85 0.27l-0.7 0c0.11,0.97 0.55,1.84 1.21,2.49 0.65,0.65 1.52,1.1 2.49,1.21l0 -0.7c-0.78,-0.11 -1.47,-0.47 -2,-1 -0.53,-0.53 -0.89,-1.22 -1,-2zm3.85 2.74c0.76,-0.08 1.44,-0.42 1.95,-0.94 0.51,-0.51 0.86,-1.2 0.94,-1.96 0.01,-0.07 0.07,-0.12 0.13,-0.12l0 -0 0.97 0c0.08,0 0.14,0.06 0.14,0.14 0,0.01 -0,0.01 -0,0.02 -0.09,1.09 -0.57,2.07 -1.3,2.8 -0.73,0.73 -1.71,1.21 -2.81,1.3 -0.07,0.01 -0.14,-0.05 -0.15,-0.12 -0,-0 -0,-0.01 -0,-0.01l-0 0 0 -0.97c0,-0.07 0.06,-0.13 0.13,-0.14zm2.14 -0.74c-0.53,0.53 -1.22,0.89 -2,1l0 0.7c0.97,-0.11 1.84,-0.55 2.49,-1.21 0.65,-0.65 1.1,-1.52 1.21,-2.49l-0.7 0c-0.11,0.78 -0.47,1.47 -1,2zm-2.72 -6.84l0 0.97c0,0.07 -0.06,0.13 -0.13,0.14 -0.76,0.08 -1.44,0.42 -1.95,0.94 -0.51,0.51 -0.86,1.2 -0.94,1.96 -0.01,0.07 -0.07,0.12 -0.13,0.12l0 0 -0.97 0c-0.08,0 -0.14,-0.06 -0.14,-0.14 0,-0.01 0,-0.01 0,-0.02 0.09,-1.09 0.57,-2.07 1.3,-2.8 0.73,-0.73 1.71,-1.21 2.81,-1.3 0.07,-0.01 0.14,0.05 0.15,0.12 0,0 0,0.01 0,0.01l0 0zm-0.27 0.85l0 -0.7c-0.97,0.11 -1.84,0.55 -2.49,1.21 -0.65,0.65 -1.1,1.52 -1.21,2.49l0.7 0c0.11,-0.78 0.47,-1.47 1,-2 0.53,-0.53 1.22,-0.89 2,-1z"/>
   </g>
   <g>
    <g>
     <path class="fil75" d="M10.02 7.65l0.31 0c0.03,0 0.05,-0.02 0.05,-0.05l0 -0.07c0,-0.03 -0.02,-0.05 -0.05,-0.05l-0.31 0c-0.03,0 -0.05,0.02 -0.05,0.05l0 0.07c0,0.03 0.02,0.05 0.05,0.05z"/>
     <path class="fil76" d="M10.26 7.31l0 -0.07c0,-0.03 -0.02,-0.05 -0.05,-0.05l-0.31 0c-0.03,0 -0.05,0.02 -0.05,0.05l0 0.07c0,0.03 0.02,0.05 0.05,0.05l0.31 0c0.03,0 0.05,-0.02 0.05,-0.05z"/>
    </g>
    <g>
     <path class="fil77" d="M10.02 8.14l0.31 0c0.03,0 0.05,0.02 0.05,0.05l0 0.07c0,0.03 -0.02,0.05 -0.05,0.05l-0.31 0c-0.03,0 -0.05,-0.02 -0.05,-0.05l0 -0.07c0,-0.03 0.02,-0.05 0.05,-0.05z"/>
     <path class="fil78" d="M10.26 8.49l0 0.07c0,0.03 -0.02,0.05 -0.05,0.05l-0.31 0c-0.03,0 -0.05,-0.02 -0.05,-0.05l0 -0.07c0,-0.03 0.02,-0.05 0.05,-0.05l0.31 0c0.03,0 0.05,0.02 0.05,0.05z"/>
    </g>
   </g>
   <g>
    <path class="fil79" d="M7.19 1.69l0.1 -0.01c0.04,-0 0.07,-0.04 0.07,-0.08l-0.02 -0.45c-0,-0.04 -0.04,-0.07 -0.08,-0.07l-0.1 0.01c-0.04,0 -0.07,0.04 -0.07,0.08l0.02 0.45c0,0.04 0.04,0.07 0.08,0.07z"/>
    <path class="fil80" d="M6.9 1.71l0.05 -0.01c0.02,-0 0.03,-0.04 0.03,-0.08l-0.05 -0.45c-0,-0.04 -0.02,-0.07 -0.04,-0.07l-0.05 0.01c-0.02,0 -0.03,0.04 -0.03,0.08l0.05 0.45c0,0.04 0.02,0.07 0.04,0.07z"/>
    <path class="fil81" d="M6.56 1.76l0.1 -0.02c0.04,-0.01 0.07,-0.04 0.06,-0.08l-0.07 -0.45c-0.01,-0.04 -0.04,-0.07 -0.08,-0.06l-0.1 0.02c-0.04,0.01 -0.07,0.04 -0.06,0.08l0.07 0.45c0.01,0.04 0.04,0.07 0.08,0.06z"/>
    <path class="fil82" d="M6.27 1.81l0.05 -0.01c0.02,-0 0.03,-0.04 0.02,-0.08l-0.09 -0.44c-0.01,-0.04 -0.03,-0.07 -0.05,-0.06l-0.05 0.01c-0.02,0 -0.03,0.04 -0.02,0.08l0.09 0.44c0.01,0.04 0.03,0.07 0.05,0.06z"/>
    <path class="fil83" d="M5.93 1.9l0.1 -0.03c0.04,-0.01 0.06,-0.05 0.05,-0.09l-0.12 -0.44c-0.01,-0.04 -0.05,-0.06 -0.09,-0.05l-0.1 0.03c-0.04,0.01 -0.06,0.05 -0.05,0.09l0.12 0.44c0.01,0.04 0.05,0.06 0.09,0.05z"/>
    <path class="fil84" d="M5.65 1.98l0.05 -0.02c0.02,-0.01 0.03,-0.04 0.01,-0.08l-0.14 -0.43c-0.01,-0.04 -0.04,-0.07 -0.06,-0.06l-0.05 0.02c-0.02,0.01 -0.03,0.04 -0.01,0.08l0.14 0.43c0.01,0.04 0.04,0.07 0.06,0.06z"/>
    <path class="fil85" d="M5.33 2.1l0.09 -0.04c0.04,-0.01 0.06,-0.06 0.04,-0.1l-0.16 -0.42c-0.01,-0.04 -0.06,-0.06 -0.1,-0.04l-0.09 0.04c-0.04,0.01 -0.06,0.06 -0.04,0.1l0.16 0.42c0.01,0.04 0.06,0.06 0.1,0.04z"/>
    <path class="fil86" d="M5.06 2.21l0.05 -0.02c0.02,-0.01 0.02,-0.05 0,-0.08l-0.18 -0.41c-0.02,-0.04 -0.05,-0.06 -0.06,-0.05l-0.05 0.02c-0.02,0.01 -0.02,0.05 -0,0.08l0.18 0.41c0.02,0.04 0.05,0.06 0.06,0.05z"/>
    <path class="fil87" d="M4.75 2.36l0.09 -0.05c0.04,-0.02 0.05,-0.06 0.03,-0.1l-0.21 -0.4c-0.02,-0.04 -0.06,-0.05 -0.1,-0.03l-0.09 0.05c-0.04,0.02 -0.05,0.06 -0.03,0.1l0.21 0.4c0.02,0.04 0.06,0.05 0.1,0.03z"/>
    <path class="fil88" d="M4.49 2.51l0.04 -0.03c0.02,-0.01 0.02,-0.05 -0,-0.08l-0.23 -0.39c-0.02,-0.04 -0.05,-0.06 -0.07,-0.05l-0.04 0.03c-0.02,0.01 -0.02,0.05 0,0.08l0.23 0.39c0.02,0.04 0.05,0.06 0.07,0.05z"/>
    <path class="fil89" d="M4.2 2.69l0.08 -0.05c0.03,-0.02 0.04,-0.07 0.02,-0.1l-0.25 -0.38c-0.02,-0.03 -0.07,-0.04 -0.1,-0.02l-0.08 0.05c-0.03,0.02 -0.04,0.07 -0.02,0.1l0.25 0.38c0.02,0.03 0.07,0.04 0.1,0.02z"/>
    <path class="fil90" d="M3.96 2.86l0.04 -0.03c0.02,-0.01 0.01,-0.05 -0.01,-0.08l-0.27 -0.37c-0.02,-0.03 -0.06,-0.05 -0.07,-0.04l-0.04 0.03c-0.02,0.01 -0.01,0.05 0.01,0.08l0.27 0.37c0.02,0.03 0.06,0.05 0.07,0.04z"/>
    <path class="fil91" d="M3.68 3.07l0.08 -0.06c0.03,-0.03 0.04,-0.07 0.01,-0.1l-0.29 -0.35c-0.03,-0.03 -0.07,-0.04 -0.1,-0.01l-0.08 0.06c-0.03,0.03 -0.04,0.07 -0.01,0.1l0.29 0.35c0.03,0.03 0.07,0.04 0.1,0.01z"/>
    <path class="fil92" d="M3.46 3.26l0.04 -0.03c0.02,-0.01 0.01,-0.05 -0.02,-0.08l-0.3 -0.34c-0.03,-0.03 -0.06,-0.04 -0.08,-0.03l-0.04 0.03c-0.02,0.01 -0.01,0.05 0.02,0.08l0.3 0.34c0.03,0.03 0.06,0.04 0.08,0.03z"/>
    <path class="fil93" d="M3.21 3.5l0.07 -0.07c0.03,-0.03 0.03,-0.08 0,-0.1l-0.32 -0.32c-0.03,-0.03 -0.08,-0.03 -0.1,-0l-0.07 0.07c-0.03,0.03 -0.03,0.08 0,0.1l0.32 0.32c0.03,0.03 0.08,0.03 0.1,0z"/>
    <path class="fil94" d="M3.01 3.71l0.03 -0.04c0.01,-0.02 0,-0.05 -0.03,-0.08l-0.34 -0.3c-0.03,-0.03 -0.07,-0.04 -0.08,-0.02l-0.03 0.04c-0.01,0.02 -0,0.05 0.03,0.08l0.34 0.3c0.03,0.03 0.07,0.04 0.08,0.02z"/>
    <path class="fil95" d="M2.79 3.98l0.06 -0.08c0.03,-0.03 0.02,-0.08 -0.01,-0.1l-0.35 -0.29c-0.03,-0.03 -0.08,-0.02 -0.1,0.01l-0.06 0.08c-0.03,0.03 -0.02,0.08 0.01,0.1l0.35 0.29c0.03,0.03 0.08,0.02 0.1,-0.01z"/>
    <path class="fil96" d="M2.61 4.21l0.03 -0.04c0.01,-0.02 -0,-0.05 -0.04,-0.07l-0.37 -0.27c-0.03,-0.02 -0.07,-0.03 -0.08,-0.01l-0.03 0.04c-0.01,0.02 0,0.05 0.04,0.07l0.37 0.27c0.03,0.02 0.07,0.03 0.08,0.01z"/>
    <path class="fil97" d="M2.42 4.5l0.05 -0.08c0.02,-0.03 0.01,-0.08 -0.02,-0.1l-0.38 -0.25c-0.03,-0.02 -0.08,-0.01 -0.1,0.02l-0.05 0.08c-0.02,0.03 -0.01,0.08 0.02,0.1l0.38 0.25c0.03,0.02 0.08,0.01 0.1,-0.02z"/>
    <path class="fil98" d="M2.26 4.75l0.03 -0.04c0.01,-0.02 -0.01,-0.05 -0.05,-0.07l-0.39 -0.23c-0.04,-0.02 -0.07,-0.02 -0.08,-0l-0.03 0.04c-0.01,0.02 0.01,0.05 0.05,0.07l0.39 0.23c0.04,0.02 0.07,0.02 0.08,0z"/>
    <path class="fil99" d="M2.1 5.05l0.05 -0.09c0.02,-0.04 0,-0.08 -0.03,-0.1l-0.4 -0.21c-0.04,-0.02 -0.08,-0 -0.1,0.03l-0.05 0.09c-0.02,0.04 -0,0.08 0.03,0.1l0.4 0.21c0.04,0.02 0.08,0 0.1,-0.03z"/>
    <path class="fil100" d="M1.98 5.32l0.02 -0.05c0.01,-0.02 -0.02,-0.05 -0.05,-0.06l-0.41 -0.18c-0.04,-0.02 -0.07,-0.01 -0.08,0l-0.02 0.05c-0.01,0.02 0.01,0.05 0.05,0.06l0.41 0.18c0.04,0.02 0.07,0.01 0.08,-0z"/>
    <path class="fil101" d="M1.85 5.64l0.04 -0.09c0.01,-0.04 -0,-0.08 -0.04,-0.1l-0.42 -0.16c-0.04,-0.01 -0.08,0 -0.1,0.04l-0.04 0.09c-0.01,0.04 0,0.08 0.04,0.1l0.42 0.16c0.04,0.01 0.08,-0 0.1,-0.04z"/>
    <path class="fil102" d="M1.75 5.92l0.02 -0.05c0.01,-0.02 -0.02,-0.05 -0.06,-0.06l-0.43 -0.14c-0.04,-0.01 -0.08,-0.01 -0.08,0.01l-0.02 0.05c-0.01,0.02 0.02,0.05 0.06,0.06l0.43 0.14c0.04,0.01 0.08,0.01 0.08,-0.01z"/>
    <path class="fil103" d="M1.65 6.25l0.03 -0.1c0.01,-0.04 -0.01,-0.08 -0.05,-0.09l-0.44 -0.12c-0.04,-0.01 -0.08,0.01 -0.09,0.05l-0.03 0.1c-0.01,0.04 0.01,0.08 0.05,0.09l0.44 0.12c0.04,0.01 0.08,-0.01 0.09,-0.05z"/>
    <path class="fil104" d="M1.59 6.53l0.01 -0.05c0,-0.02 -0.02,-0.04 -0.06,-0.05l-0.44 -0.09c-0.04,-0.01 -0.08,0 -0.08,0.02l-0.01 0.05c-0,0.02 0.02,0.04 0.06,0.05l0.44 0.09c0.04,0.01 0.08,-0 0.08,-0.02z"/>
    <path class="fil105" d="M1.53 6.87l0.02 -0.1c0.01,-0.04 -0.02,-0.08 -0.06,-0.08l-0.45 -0.07c-0.04,-0.01 -0.08,0.02 -0.08,0.06l-0.02 0.1c-0.01,0.04 0.02,0.08 0.06,0.08l0.45 0.07c0.04,0.01 0.08,-0.02 0.08,-0.06z"/>
    <path class="fil106" d="M1.49 7.16l0.01 -0.05c0,-0.02 -0.03,-0.04 -0.07,-0.04l-0.45 -0.05c-0.04,-0 -0.08,0.01 -0.08,0.03l-0.01 0.05c-0,0.02 0.03,0.04 0.07,0.04l0.45 0.05c0.04,0 0.08,-0.01 0.08,-0.03z"/>
    <path class="fil107" d="M1.47 7.51l0.01 -0.1c0,-0.04 -0.03,-0.08 -0.07,-0.08l-0.45 -0.02c-0.04,-0 -0.08,0.03 -0.08,0.07l-0.01 0.1c-0,0.04 0.03,0.08 0.07,0.08l0.45 0.02c0.04,0 0.08,-0.03 0.08,-0.07z"/>
    <path class="fil108" d="M1.46 7.8l0 -0.05c0,-0.02 -0.03,-0.04 -0.07,-0.04l-0.45 0c-0.04,0 -0.07,0.02 -0.07,0.04l0 0.05c0,0.02 0.03,0.04 0.07,0.04l0.45 0c0.04,0 0.07,-0.02 0.07,-0.04z"/>
    <path class="fil109" d="M1.47 8.15l-0.01 -0.1c-0,-0.04 -0.04,-0.07 -0.08,-0.07l-0.45 0.02c-0.04,0 -0.07,0.04 -0.07,0.08l0.01 0.1c0,0.04 0.04,0.07 0.08,0.07l0.45 -0.02c0.04,-0 0.07,-0.04 0.07,-0.08z"/>
    <path class="fil110" d="M1.5 8.44l-0.01 -0.05c-0,-0.02 -0.04,-0.03 -0.08,-0.03l-0.45 0.05c-0.04,0 -0.07,0.02 -0.07,0.04l0.01 0.05c0,0.02 0.04,0.03 0.08,0.03l0.45 -0.05c0.04,-0 0.07,-0.02 0.07,-0.04z"/>
    <path class="fil111" d="M1.54 8.78l-0.02 -0.1c-0.01,-0.04 -0.04,-0.07 -0.08,-0.06l-0.45 0.07c-0.04,0.01 -0.07,0.04 -0.06,0.08l0.02 0.1c0.01,0.04 0.04,0.07 0.08,0.06l0.45 -0.07c0.04,-0.01 0.07,-0.04 0.06,-0.08z"/>
    <path class="fil112" d="M1.6 9.07l-0.01 -0.05c-0,-0.02 -0.04,-0.03 -0.08,-0.02l-0.44 0.09c-0.04,0.01 -0.07,0.03 -0.06,0.05l0.01 0.05c0,0.02 0.04,0.03 0.08,0.02l0.44 -0.09c0.04,-0.01 0.07,-0.03 0.06,-0.05z"/>
    <path class="fil113" d="M1.68 9.4l-0.03 -0.1c-0.01,-0.04 -0.05,-0.06 -0.09,-0.05l-0.44 0.12c-0.04,0.01 -0.06,0.05 -0.05,0.09l0.03 0.1c0.01,0.04 0.05,0.06 0.09,0.05l0.44 -0.12c0.04,-0.01 0.06,-0.05 0.05,-0.09z"/>
    <path class="fil114" d="M1.77 9.69l-0.02 -0.05c-0.01,-0.02 -0.04,-0.03 -0.08,-0.01l-0.43 0.14c-0.04,0.01 -0.07,0.04 -0.06,0.06l0.02 0.05c0.01,0.02 0.04,0.03 0.08,0.01l0.43 -0.14c0.04,-0.01 0.07,-0.04 0.06,-0.06z"/>
    <path class="fil115" d="M1.88 10.01l-0.04 -0.09c-0.01,-0.04 -0.06,-0.06 -0.1,-0.04l-0.42 0.16c-0.04,0.01 -0.06,0.06 -0.04,0.1l0.04 0.09c0.01,0.04 0.06,0.06 0.1,0.04l0.42 -0.16c0.04,-0.01 0.06,-0.06 0.04,-0.1z"/>
    <path class="fil116" d="M2 10.28l-0.02 -0.05c-0.01,-0.02 -0.05,-0.02 -0.08,-0l-0.41 0.18c-0.04,0.02 -0.06,0.05 -0.05,0.06l0.02 0.05c0.01,0.02 0.05,0.02 0.08,0l0.41 -0.18c0.04,-0.02 0.06,-0.05 0.05,-0.06z"/>
    <path class="fil117" d="M2.15 10.59l-0.05 -0.09c-0.02,-0.04 -0.06,-0.05 -0.1,-0.03l-0.4 0.21c-0.04,0.02 -0.05,0.06 -0.03,0.1l0.05 0.09c0.02,0.04 0.06,0.05 0.1,0.03l0.4 -0.21c0.04,-0.02 0.05,-0.06 0.03,-0.1z"/>
    <path class="fil118" d="M2.29 10.85l-0.03 -0.04c-0.01,-0.02 -0.05,-0.02 -0.08,0l-0.39 0.23c-0.04,0.02 -0.06,0.05 -0.05,0.07l0.03 0.04c0.01,0.02 0.05,0.02 0.08,-0l0.39 -0.23c0.04,-0.02 0.06,-0.05 0.05,-0.07z"/>
    <path class="fil119" d="M2.47 11.14l-0.05 -0.08c-0.02,-0.03 -0.07,-0.04 -0.1,-0.02l-0.38 0.25c-0.03,0.02 -0.04,0.07 -0.02,0.1l0.05 0.08c0.02,0.03 0.07,0.04 0.1,0.02l0.38 -0.25c0.03,-0.02 0.04,-0.07 0.02,-0.1z"/>
    <path class="fil120" d="M2.64 11.38l-0.03 -0.04c-0.01,-0.02 -0.05,-0.01 -0.08,0.01l-0.37 0.27c-0.03,0.02 -0.05,0.06 -0.04,0.07l0.03 0.04c0.01,0.02 0.05,0.01 0.08,-0.01l0.37 -0.27c0.03,-0.02 0.05,-0.06 0.04,-0.07z"/>
    <path class="fil121" d="M2.85 11.65l-0.06 -0.08c-0.03,-0.03 -0.07,-0.04 -0.1,-0.01l-0.35 0.29c-0.03,0.03 -0.04,0.07 -0.01,0.1l0.06 0.08c0.03,0.03 0.07,0.04 0.1,0.01l0.35 -0.29c0.03,-0.03 0.04,-0.07 0.01,-0.1z"/>
    <path class="fil122" d="M3.04 11.88l-0.03 -0.04c-0.01,-0.02 -0.05,-0.01 -0.08,0.02l-0.34 0.3c-0.03,0.03 -0.04,0.06 -0.03,0.08l0.03 0.04c0.01,0.02 0.05,0.01 0.08,-0.02l0.34 -0.3c0.03,-0.03 0.04,-0.06 0.03,-0.08z"/>
    <path class="fil123" d="M3.28 12.13l-0.07 -0.07c-0.03,-0.03 -0.08,-0.03 -0.1,0l-0.32 0.32c-0.03,0.03 -0.03,0.08 -0,0.1l0.07 0.07c0.03,0.03 0.08,0.03 0.1,-0l0.32 -0.32c0.03,-0.03 0.03,-0.08 0,-0.1z"/>
    <path class="fil124" d="M3.5 12.33l-0.04 -0.03c-0.02,-0.01 -0.05,-0 -0.08,0.03l-0.3 0.34c-0.03,0.03 -0.04,0.07 -0.02,0.08l0.04 0.03c0.02,0.01 0.05,0 0.08,-0.03l0.3 -0.34c0.03,-0.03 0.04,-0.07 0.02,-0.08z"/>
    <path class="fil125" d="M3.76 12.55l-0.08 -0.06c-0.03,-0.03 -0.08,-0.02 -0.1,0.01l-0.29 0.35c-0.03,0.03 -0.02,0.08 0.01,0.1l0.08 0.06c0.03,0.03 0.08,0.02 0.1,-0.01l0.29 -0.35c0.03,-0.03 0.02,-0.08 -0.01,-0.1z"/>
    <path class="fil126" d="M4 12.73l-0.04 -0.03c-0.02,-0.01 -0.05,0 -0.07,0.04l-0.27 0.37c-0.02,0.03 -0.03,0.07 -0.01,0.08l0.04 0.03c0.02,0.01 0.05,-0 0.07,-0.04l0.27 -0.37c0.02,-0.03 0.03,-0.07 0.01,-0.08z"/>
    <path class="fil127" d="M4.28 12.92l-0.08 -0.05c-0.03,-0.02 -0.08,-0.01 -0.1,0.02l-0.25 0.38c-0.02,0.03 -0.01,0.08 0.02,0.1l0.08 0.05c0.03,0.02 0.08,0.01 0.1,-0.02l0.25 -0.38c0.02,-0.03 0.01,-0.08 -0.02,-0.1z"/>
    <path class="fil128" d="M4.53 13.07l-0.04 -0.03c-0.02,-0.01 -0.05,0.01 -0.07,0.05l-0.23 0.39c-0.02,0.04 -0.02,0.07 -0,0.08l0.04 0.03c0.02,0.01 0.05,-0.01 0.07,-0.05l0.23 -0.39c0.02,-0.04 0.02,-0.07 0,-0.08z"/>
    <path class="fil129" d="M4.84 13.24l-0.09 -0.05c-0.04,-0.02 -0.08,-0 -0.1,0.03l-0.21 0.4c-0.02,0.04 -0,0.08 0.03,0.1l0.09 0.05c0.04,0.02 0.08,0 0.1,-0.03l0.21 -0.4c0.02,-0.04 0,-0.08 -0.03,-0.1z"/>
    <path class="fil130" d="M5.1 13.36l-0.05 -0.02c-0.02,-0.01 -0.05,0.02 -0.06,0.05l-0.18 0.41c-0.02,0.04 -0.01,0.07 0,0.08l0.05 0.02c0.02,0.01 0.05,-0.01 0.06,-0.05l0.18 -0.41c0.02,-0.04 0.01,-0.07 -0,-0.08z"/>
    <path class="fil131" d="M5.42 13.49l-0.09 -0.04c-0.04,-0.01 -0.08,0 -0.1,0.04l-0.16 0.42c-0.01,0.04 0,0.08 0.04,0.1l0.09 0.04c0.04,0.01 0.08,-0 0.1,-0.04l0.16 -0.42c0.01,-0.04 -0,-0.08 -0.04,-0.1z"/>
    <path class="fil132" d="M5.7 13.59l-0.05 -0.02c-0.02,-0.01 -0.05,0.02 -0.06,0.06l-0.14 0.43c-0.01,0.04 -0.01,0.08 0.01,0.08l0.05 0.02c0.02,0.01 0.05,-0.02 0.06,-0.06l0.14 -0.43c0.01,-0.04 0.01,-0.08 -0.01,-0.08z"/>
    <path class="fil133" d="M6.03 13.68l-0.1 -0.03c-0.04,-0.01 -0.08,0.01 -0.09,0.05l-0.12 0.44c-0.01,0.04 0.01,0.08 0.05,0.09l0.1 0.03c0.04,0.01 0.08,-0.01 0.09,-0.05l0.12 -0.44c0.01,-0.04 -0.01,-0.08 -0.05,-0.09z"/>
    <path class="fil134" d="M6.32 13.75l-0.05 -0.01c-0.02,-0 -0.04,0.02 -0.05,0.06l-0.09 0.44c-0.01,0.04 0,0.08 0.02,0.08l0.05 0.01c0.02,0 0.04,-0.02 0.05,-0.06l0.09 -0.44c0.01,-0.04 -0,-0.08 -0.02,-0.08z"/>
    <path class="fil135" d="M6.66 13.81l-0.1 -0.02c-0.04,-0.01 -0.08,0.02 -0.08,0.06l-0.07 0.45c-0.01,0.04 0.02,0.08 0.06,0.08l0.1 0.02c0.04,0.01 0.08,-0.02 0.08,-0.06l0.07 -0.45c0.01,-0.04 -0.02,-0.08 -0.06,-0.08z"/>
    <path class="fil136" d="M6.95 13.85l-0.05 -0.01c-0.02,-0 -0.04,0.03 -0.04,0.07l-0.05 0.45c-0,0.04 0.01,0.08 0.03,0.08l0.05 0.01c0.02,0 0.04,-0.03 0.04,-0.07l0.05 -0.45c0,-0.04 -0.01,-0.08 -0.03,-0.08z"/>
    <path class="fil137" d="M7.29 13.87l-0.1 -0.01c-0.04,-0 -0.08,0.03 -0.08,0.07l-0.02 0.45c-0,0.04 0.03,0.08 0.07,0.08l0.1 0.01c0.04,0 0.08,-0.03 0.08,-0.07l0.02 -0.45c0,-0.04 -0.03,-0.08 -0.07,-0.08z"/>
    <path class="fil138" d="M7.59 13.88l-0.05 0c-0.02,0 -0.04,0.03 -0.04,0.07l0 0.45c0,0.04 0.02,0.07 0.04,0.07l0.05 0c0.02,0 0.04,-0.03 0.04,-0.07l0 -0.45c0,-0.04 -0.02,-0.07 -0.04,-0.07z"/>
    <path class="fil139" d="M7.93 13.87l-0.1 0.01c-0.04,0 -0.07,0.04 -0.07,0.08l0.02 0.45c0,0.04 0.04,0.07 0.08,0.07l0.1 -0.01c0.04,-0 0.07,-0.04 0.07,-0.08l-0.02 -0.45c-0,-0.04 -0.04,-0.07 -0.08,-0.07z"/>
    <path class="fil140" d="M8.22 13.84l-0.05 0.01c-0.02,0 -0.03,0.04 -0.03,0.08l0.05 0.45c0,0.04 0.02,0.07 0.04,0.07l0.05 -0.01c0.02,-0 0.03,-0.04 0.03,-0.08l-0.05 -0.45c-0,-0.04 -0.02,-0.07 -0.04,-0.07z"/>
    <path class="fil141" d="M8.57 13.79l-0.1 0.02c-0.04,0.01 -0.07,0.04 -0.06,0.08l0.07 0.45c0.01,0.04 0.04,0.07 0.08,0.06l0.1 -0.02c0.04,-0.01 0.07,-0.04 0.06,-0.08l-0.07 -0.45c-0.01,-0.04 -0.04,-0.07 -0.08,-0.06z"/>
    <path class="fil142" d="M8.85 13.74l-0.05 0.01c-0.02,0 -0.03,0.04 -0.02,0.08l0.09 0.44c0.01,0.04 0.03,0.07 0.05,0.06l0.05 -0.01c0.02,-0 0.03,-0.04 0.02,-0.08l-0.09 -0.44c-0.01,-0.04 -0.03,-0.07 -0.05,-0.06z"/>
    <path class="fil143" d="M9.19 13.66l-0.1 0.03c-0.04,0.01 -0.06,0.05 -0.05,0.09l0.12 0.44c0.01,0.04 0.05,0.06 0.09,0.05l0.1 -0.03c0.04,-0.01 0.06,-0.05 0.05,-0.09l-0.12 -0.44c-0.01,-0.04 -0.05,-0.06 -0.09,-0.05z"/>
    <path class="fil144" d="M9.47 13.57l-0.05 0.02c-0.02,0.01 -0.03,0.04 -0.01,0.08l0.14 0.43c0.01,0.04 0.04,0.07 0.06,0.06l0.05 -0.02c0.02,-0.01 0.03,-0.04 0.01,-0.08l-0.14 -0.43c-0.01,-0.04 -0.04,-0.07 -0.06,-0.06z"/>
    <path class="fil145" d="M9.79 13.45l-0.09 0.04c-0.04,0.01 -0.06,0.06 -0.04,0.1l0.16 0.42c0.01,0.04 0.06,0.06 0.1,0.04l0.09 -0.04c0.04,-0.01 0.06,-0.06 0.04,-0.1l-0.16 -0.42c-0.01,-0.04 -0.06,-0.06 -0.1,-0.04z"/>
    <path class="fil146" d="M10.07 13.34l-0.05 0.02c-0.02,0.01 -0.02,0.05 -0,0.08l0.18 0.41c0.02,0.04 0.05,0.06 0.06,0.05l0.05 -0.02c0.02,-0.01 0.02,-0.05 0,-0.08l-0.18 -0.41c-0.02,-0.04 -0.05,-0.06 -0.06,-0.05z"/>
    <path class="fil147" d="M10.38 13.19l-0.09 0.05c-0.04,0.02 -0.05,0.06 -0.03,0.1l0.21 0.4c0.02,0.04 0.06,0.05 0.1,0.03l0.09 -0.05c0.04,-0.02 0.05,-0.06 0.03,-0.1l-0.21 -0.4c-0.02,-0.04 -0.06,-0.05 -0.1,-0.03z"/>
    <path class="fil148" d="M10.63 13.05l-0.04 0.03c-0.02,0.01 -0.02,0.05 0,0.08l0.23 0.39c0.02,0.04 0.05,0.06 0.07,0.05l0.04 -0.03c0.02,-0.01 0.02,-0.05 -0,-0.08l-0.23 -0.39c-0.02,-0.04 -0.05,-0.06 -0.07,-0.05z"/>
    <path class="fil149" d="M10.93 12.87l-0.08 0.05c-0.03,0.02 -0.04,0.07 -0.02,0.1l0.25 0.38c0.02,0.03 0.07,0.04 0.1,0.02l0.08 -0.05c0.03,-0.02 0.04,-0.07 0.02,-0.1l-0.25 -0.38c-0.02,-0.03 -0.07,-0.04 -0.1,-0.02z"/>
    <path class="fil150" d="M11.17 12.7l-0.04 0.03c-0.02,0.01 -0.01,0.05 0.01,0.08l0.27 0.37c0.02,0.03 0.06,0.05 0.07,0.04l0.04 -0.03c0.02,-0.01 0.01,-0.05 -0.01,-0.08l-0.27 -0.37c-0.02,-0.03 -0.06,-0.05 -0.07,-0.04z"/>
    <path class="fil151" d="M11.44 12.49l-0.08 0.06c-0.03,0.03 -0.04,0.07 -0.01,0.1l0.29 0.35c0.03,0.03 0.07,0.04 0.1,0.01l0.08 -0.06c0.03,-0.03 0.04,-0.07 0.01,-0.1l-0.29 -0.35c-0.03,-0.03 -0.07,-0.04 -0.1,-0.01z"/>
    <path class="fil152" d="M11.66 12.29l-0.04 0.03c-0.02,0.01 -0.01,0.05 0.02,0.08l0.3 0.34c0.03,0.03 0.06,0.04 0.08,0.03l0.04 -0.03c0.02,-0.01 0.01,-0.05 -0.02,-0.08l-0.3 -0.34c-0.03,-0.03 -0.06,-0.04 -0.08,-0.03z"/>
    <path class="fil153" d="M11.91 12.05l-0.07 0.07c-0.03,0.03 -0.03,0.08 0,0.1l0.32 0.32c0.03,0.03 0.08,0.03 0.1,0l0.07 -0.07c0.03,-0.03 0.03,-0.08 -0,-0.1l-0.32 -0.32c-0.03,-0.03 -0.08,-0.03 -0.1,-0z"/>
    <path class="fil154" d="M12.11 11.84l-0.03 0.04c-0.01,0.02 -0,0.05 0.03,0.08l0.34 0.3c0.03,0.03 0.07,0.04 0.08,0.02l0.03 -0.04c0.01,-0.02 0,-0.05 -0.03,-0.08l-0.34 -0.3c-0.03,-0.03 -0.07,-0.04 -0.08,-0.02z"/>
    <path class="fil155" d="M12.33 11.58l-0.06 0.08c-0.03,0.03 -0.02,0.08 0.01,0.1l0.35 0.29c0.03,0.03 0.08,0.02 0.1,-0.01l0.06 -0.08c0.03,-0.03 0.02,-0.08 -0.01,-0.1l-0.35 -0.29c-0.03,-0.03 -0.08,-0.02 -0.1,0.01z"/>
    <path class="fil156" d="M12.51 11.34l-0.03 0.04c-0.01,0.02 0,0.05 0.04,0.07l0.37 0.27c0.03,0.02 0.07,0.03 0.08,0.01l0.03 -0.04c0.01,-0.02 -0,-0.05 -0.04,-0.07l-0.37 -0.27c-0.03,-0.02 -0.07,-0.03 -0.08,-0.01z"/>
    <path class="fil157" d="M12.71 11.06l-0.05 0.08c-0.02,0.03 -0.01,0.08 0.02,0.1l0.38 0.25c0.03,0.02 0.08,0.01 0.1,-0.02l0.05 -0.08c0.02,-0.03 0.01,-0.08 -0.02,-0.1l-0.38 -0.25c-0.03,-0.02 -0.08,-0.01 -0.1,0.02z"/>
    <path class="fil158" d="M12.86 10.8l-0.03 0.04c-0.01,0.02 0.01,0.05 0.05,0.07l0.39 0.23c0.04,0.02 0.07,0.02 0.08,0l0.03 -0.04c0.01,-0.02 -0.01,-0.05 -0.05,-0.07l-0.39 -0.23c-0.04,-0.02 -0.07,-0.02 -0.08,-0z"/>
    <path class="fil159" d="M13.02 10.5l-0.05 0.09c-0.02,0.04 -0,0.08 0.03,0.1l0.4 0.21c0.04,0.02 0.08,0 0.1,-0.03l0.05 -0.09c0.02,-0.04 0,-0.08 -0.03,-0.1l-0.4 -0.21c-0.04,-0.02 -0.08,-0 -0.1,0.03z"/>
    <path class="fil160" d="M13.15 10.23l-0.02 0.05c-0.01,0.02 0.02,0.05 0.05,0.06l0.41 0.18c0.04,0.02 0.07,0.01 0.08,-0l0.02 -0.05c0.01,-0.02 -0.01,-0.05 -0.05,-0.06l-0.41 -0.18c-0.04,-0.02 -0.07,-0.01 -0.08,0z"/>
    <path class="fil161" d="M13.28 9.92l-0.04 0.09c-0.01,0.04 0,0.08 0.04,0.1l0.42 0.16c0.04,0.01 0.08,-0 0.1,-0.04l0.04 -0.09c0.01,-0.04 -0,-0.08 -0.04,-0.1l-0.42 -0.16c-0.04,-0.01 -0.08,0 -0.1,0.04z"/>
    <path class="fil162" d="M13.37 9.64l-0.02 0.05c-0.01,0.02 0.02,0.05 0.06,0.06l0.43 0.14c0.04,0.01 0.08,0.01 0.08,-0.01l0.02 -0.05c0.01,-0.02 -0.02,-0.05 -0.06,-0.06l-0.43 -0.14c-0.04,-0.01 -0.08,-0.01 -0.08,0.01z"/>
    <path class="fil163" d="M13.47 9.31l-0.03 0.1c-0.01,0.04 0.01,0.08 0.05,0.09l0.44 0.12c0.04,0.01 0.08,-0.01 0.09,-0.05l0.03 -0.1c0.01,-0.04 -0.01,-0.08 -0.05,-0.09l-0.44 -0.12c-0.04,-0.01 -0.08,0.01 -0.09,0.05z"/>
    <path class="fil164" d="M13.53 9.02l-0.01 0.05c-0,0.02 0.02,0.04 0.06,0.05l0.44 0.09c0.04,0.01 0.08,-0 0.08,-0.02l0.01 -0.05c0,-0.02 -0.02,-0.04 -0.06,-0.05l-0.44 -0.09c-0.04,-0.01 -0.08,0 -0.08,0.02z"/>
    <path class="fil165" d="M13.59 8.68l-0.02 0.1c-0.01,0.04 0.02,0.08 0.06,0.08l0.45 0.07c0.04,0.01 0.08,-0.02 0.08,-0.06l0.02 -0.1c0.01,-0.04 -0.02,-0.08 -0.06,-0.08l-0.45 -0.07c-0.04,-0.01 -0.08,0.02 -0.08,0.06z"/>
    <path class="fil166" d="M13.63 8.39l-0.01 0.05c-0,0.02 0.03,0.04 0.07,0.04l0.45 0.05c0.04,0 0.08,-0.01 0.08,-0.03l0.01 -0.05c0,-0.02 -0.03,-0.04 -0.07,-0.04l-0.45 -0.05c-0.04,-0 -0.08,0.01 -0.08,0.03z"/>
    <path class="fil167" d="M13.66 8.05l-0.01 0.1c-0,0.04 0.03,0.08 0.07,0.08l0.45 0.02c0.04,0 0.08,-0.03 0.08,-0.07l0.01 -0.1c0,-0.04 -0.03,-0.08 -0.07,-0.08l-0.45 -0.02c-0.04,-0 -0.08,0.03 -0.08,0.07z"/>
    <path class="fil168" d="M13.66 7.75l0 0.05c0,0.02 0.03,0.04 0.07,0.04l0.45 0c0.04,0 0.07,-0.02 0.07,-0.04l0 -0.05c0,-0.02 -0.03,-0.04 -0.07,-0.04l-0.45 0c-0.04,0 -0.07,0.02 -0.07,0.04z"/>
    <path class="fil169" d="M13.65 7.41l0.01 0.1c0,0.04 0.04,0.07 0.08,0.07l0.45 -0.02c0.04,-0 0.07,-0.04 0.07,-0.08l-0.01 -0.1c-0,-0.04 -0.04,-0.07 -0.08,-0.07l-0.45 0.02c-0.04,0 -0.07,0.04 -0.07,0.08z"/>
    <path class="fil170" d="M13.63 7.11l0.01 0.05c0,0.02 0.04,0.03 0.08,0.03l0.45 -0.05c0.04,-0 0.07,-0.02 0.07,-0.04l-0.01 -0.05c-0,-0.02 -0.04,-0.03 -0.08,-0.03l-0.45 0.05c-0.04,0 -0.07,0.02 -0.07,0.04z"/>
    <path class="fil171" d="M13.58 6.77l0.02 0.1c0.01,0.04 0.04,0.07 0.08,0.06l0.45 -0.07c0.04,-0.01 0.07,-0.04 0.06,-0.08l-0.02 -0.1c-0.01,-0.04 -0.04,-0.07 -0.08,-0.06l-0.45 0.07c-0.04,0.01 -0.07,0.04 -0.06,0.08z"/>
    <path class="fil172" d="M13.52 6.48l0.01 0.05c0,0.02 0.04,0.03 0.08,0.02l0.44 -0.09c0.04,-0.01 0.07,-0.03 0.06,-0.05l-0.01 -0.05c-0,-0.02 -0.04,-0.03 -0.08,-0.02l-0.44 0.09c-0.04,0.01 -0.07,0.03 -0.06,0.05z"/>
    <path class="fil173" d="M13.44 6.15l0.03 0.1c0.01,0.04 0.05,0.06 0.09,0.05l0.44 -0.12c0.04,-0.01 0.06,-0.05 0.05,-0.09l-0.03 -0.1c-0.01,-0.04 -0.05,-0.06 -0.09,-0.05l-0.44 0.12c-0.04,0.01 -0.06,0.05 -0.05,0.09z"/>
    <path class="fil174" d="M13.36 5.87l0.02 0.05c0.01,0.02 0.04,0.03 0.08,0.01l0.43 -0.14c0.04,-0.01 0.07,-0.04 0.06,-0.06l-0.02 -0.05c-0.01,-0.02 -0.04,-0.03 -0.08,-0.01l-0.43 0.14c-0.04,0.01 -0.07,0.04 -0.06,0.06z"/>
    <path class="fil175" d="M13.24 5.54l0.04 0.09c0.01,0.04 0.06,0.06 0.1,0.04l0.42 -0.16c0.04,-0.01 0.06,-0.06 0.04,-0.1l-0.04 -0.09c-0.01,-0.04 -0.06,-0.06 -0.1,-0.04l-0.42 0.16c-0.04,0.01 -0.06,0.06 -0.04,0.1z"/>
    <path class="fil176" d="M13.12 5.27l0.02 0.05c0.01,0.02 0.05,0.02 0.08,0l0.41 -0.18c0.04,-0.02 0.06,-0.05 0.05,-0.06l-0.02 -0.05c-0.01,-0.02 -0.05,-0.02 -0.08,-0l-0.41 0.18c-0.04,0.02 -0.06,0.05 -0.05,0.06z"/>
    <path class="fil177" d="M12.97 4.96l0.05 0.09c0.02,0.04 0.06,0.05 0.1,0.03l0.4 -0.21c0.04,-0.02 0.05,-0.06 0.03,-0.1l-0.05 -0.09c-0.02,-0.04 -0.06,-0.05 -0.1,-0.03l-0.4 0.21c-0.04,0.02 -0.05,0.06 -0.03,0.1z"/>
    <path class="fil178" d="M12.83 4.7l0.03 0.04c0.01,0.02 0.05,0.02 0.08,-0l0.39 -0.23c0.04,-0.02 0.06,-0.05 0.05,-0.07l-0.03 -0.04c-0.01,-0.02 -0.05,-0.02 -0.08,0l-0.39 0.23c-0.04,0.02 -0.06,0.05 -0.05,0.07z"/>
    <path class="fil179" d="M12.65 4.41l0.05 0.08c0.02,0.03 0.07,0.04 0.1,0.02l0.38 -0.25c0.03,-0.02 0.04,-0.07 0.02,-0.1l-0.05 -0.08c-0.02,-0.03 -0.07,-0.04 -0.1,-0.02l-0.38 0.25c-0.03,0.02 -0.04,0.07 -0.02,0.1z"/>
    <path class="fil180" d="M12.48 4.17l0.03 0.04c0.01,0.02 0.05,0.01 0.08,-0.01l0.37 -0.27c0.03,-0.02 0.05,-0.06 0.04,-0.07l-0.03 -0.04c-0.01,-0.02 -0.05,-0.01 -0.08,0.01l-0.37 0.27c-0.03,0.02 -0.05,0.06 -0.04,0.07z"/>
    <path class="fil181" d="M12.27 3.9l0.06 0.08c0.03,0.03 0.07,0.04 0.1,0.01l0.35 -0.29c0.03,-0.03 0.04,-0.07 0.01,-0.1l-0.06 -0.08c-0.03,-0.03 -0.07,-0.04 -0.1,-0.01l-0.35 0.29c-0.03,0.03 -0.04,0.07 -0.01,0.1z"/>
    <path class="fil182" d="M12.08 3.68l0.03 0.04c0.01,0.02 0.05,0.01 0.08,-0.02l0.34 -0.3c0.03,-0.03 0.04,-0.06 0.03,-0.08l-0.03 -0.04c-0.01,-0.02 -0.05,-0.01 -0.08,0.02l-0.34 0.3c-0.03,0.03 -0.04,0.06 -0.03,0.08z"/>
    <path class="fil183" d="M11.84 3.43l0.07 0.07c0.03,0.03 0.08,0.03 0.1,0l0.32 -0.32c0.03,-0.03 0.03,-0.08 0,-0.1l-0.07 -0.07c-0.03,-0.03 -0.08,-0.03 -0.1,0l-0.32 0.32c-0.03,0.03 -0.03,0.08 0,0.1z"/>
    <path class="fil184" d="M11.62 3.23l0.04 0.03c0.02,0.01 0.05,0 0.08,-0.03l0.3 -0.34c0.03,-0.03 0.04,-0.07 0.02,-0.08l-0.04 -0.03c-0.02,-0.01 -0.05,-0 -0.08,0.03l-0.3 0.34c-0.03,0.03 -0.04,0.07 -0.02,0.08z"/>
    <path class="fil185" d="M11.36 3l0.08 0.06c0.03,0.03 0.08,0.02 0.1,-0.01l0.29 -0.35c0.03,-0.03 0.02,-0.08 -0.01,-0.1l-0.08 -0.06c-0.03,-0.03 -0.08,-0.02 -0.1,0.01l-0.29 0.35c-0.03,0.03 -0.02,0.08 0.01,0.1z"/>
    <path class="fil186" d="M11.13 2.83l0.04 0.03c0.02,0.01 0.05,-0 0.07,-0.04l0.27 -0.37c0.02,-0.03 0.03,-0.07 0.01,-0.08l-0.04 -0.03c-0.02,-0.01 -0.05,0 -0.07,0.04l-0.27 0.37c-0.02,0.03 -0.03,0.07 -0.01,0.08z"/>
    <path class="fil187" d="M10.84 2.63l0.08 0.05c0.03,0.02 0.08,0.01 0.1,-0.02l0.25 -0.38c0.02,-0.03 0.01,-0.08 -0.02,-0.1l-0.08 -0.05c-0.03,-0.02 -0.08,-0.01 -0.1,0.02l-0.25 0.38c-0.02,0.03 -0.01,0.08 0.02,0.1z"/>
    <path class="fil188" d="M10.59 2.48l0.04 0.03c0.02,0.01 0.05,-0.01 0.07,-0.05l0.23 -0.39c0.02,-0.04 0.02,-0.07 0,-0.08l-0.04 -0.03c-0.02,-0.01 -0.05,0.01 -0.07,0.05l-0.23 0.39c-0.02,0.04 -0.02,0.07 -0,0.08z"/>
    <path class="fil189" d="M10.29 2.32l0.09 0.05c0.04,0.02 0.08,0 0.1,-0.03l0.21 -0.4c0.02,-0.04 0,-0.08 -0.03,-0.1l-0.09 -0.05c-0.04,-0.02 -0.08,-0 -0.1,0.03l-0.21 0.4c-0.02,0.04 -0,0.08 0.03,0.1z"/>
    <path class="fil190" d="M10.02 2.19l0.05 0.02c0.02,0.01 0.05,-0.02 0.06,-0.05l0.18 -0.41c0.02,-0.04 0.01,-0.07 -0,-0.08l-0.05 -0.02c-0.02,-0.01 -0.05,0.01 -0.06,0.05l-0.18 0.41c-0.02,0.04 -0.01,0.07 0,0.08z"/>
    <path class="fil191" d="M9.7 2.06l0.09 0.04c0.04,0.01 0.08,-0 0.1,-0.04l0.16 -0.42c0.01,-0.04 -0,-0.08 -0.04,-0.1l-0.09 -0.04c-0.04,-0.01 -0.08,0 -0.1,0.04l-0.16 0.42c-0.01,0.04 0,0.08 0.04,0.1z"/>
    <path class="fil192" d="M9.42 1.97l0.05 0.02c0.02,0.01 0.05,-0.02 0.06,-0.06l0.14 -0.43c0.01,-0.04 0.01,-0.08 -0.01,-0.08l-0.05 -0.02c-0.02,-0.01 -0.05,0.02 -0.06,0.06l-0.14 0.43c-0.01,0.04 -0.01,0.08 0.01,0.08z"/>
    <path class="fil193" d="M9.09 1.87l0.1 0.03c0.04,0.01 0.08,-0.01 0.09,-0.05l0.12 -0.44c0.01,-0.04 -0.01,-0.08 -0.05,-0.09l-0.1 -0.03c-0.04,-0.01 -0.08,0.01 -0.09,0.05l-0.12 0.44c-0.01,0.04 0.01,0.08 0.05,0.09z"/>
    <path class="fil194" d="M8.81 1.8l0.05 0.01c0.02,0 0.04,-0.02 0.05,-0.06l0.09 -0.44c0.01,-0.04 -0,-0.08 -0.02,-0.08l-0.05 -0.01c-0.02,-0 -0.04,0.02 -0.05,0.06l-0.09 0.44c-0.01,0.04 0,0.08 0.02,0.08z"/>
    <path class="fil195" d="M8.47 1.74l0.1 0.02c0.04,0.01 0.08,-0.02 0.08,-0.06l0.07 -0.45c0.01,-0.04 -0.02,-0.08 -0.06,-0.08l-0.1 -0.02c-0.04,-0.01 -0.08,0.02 -0.08,0.06l-0.07 0.45c-0.01,0.04 0.02,0.08 0.06,0.08z"/>
    <path class="fil196" d="M8.17 1.71l0.05 0.01c0.02,0 0.04,-0.03 0.04,-0.07l0.05 -0.45c0,-0.04 -0.01,-0.08 -0.03,-0.08l-0.05 -0.01c-0.02,-0 -0.04,0.03 -0.04,0.07l-0.05 0.45c-0,0.04 0.01,0.08 0.03,0.08z"/>
    <path class="fil197" d="M7.83 1.68l0.1 0.01c0.04,0 0.08,-0.03 0.08,-0.07l0.02 -0.45c0,-0.04 -0.03,-0.08 -0.07,-0.08l-0.1 -0.01c-0.04,-0 -0.08,0.03 -0.08,0.07l-0.02 0.45c-0,0.04 0.03,0.08 0.07,0.08z"/>
    <path class="fil198" d="M7.54 1.68l0.05 0c0.02,0 0.04,-0.03 0.04,-0.07l0 -0.45c0,-0.04 -0.02,-0.07 -0.04,-0.07l-0.05 0c-0.02,0 -0.04,0.03 -0.04,0.07l0 0.45c0,0.04 0.02,0.07 0.04,0.07z"/>
   </g>
  </g>
  <g id="_1780018730288">
   <path class="fil199" d="M19.5 13.91l0 -0.46 1.5 0 0 1.46c-0.23,0.2 -0.47,0.36 -0.71,0.46 -0.24,0.1 -0.5,0.15 -0.75,0.15 -0.35,0 -0.66,-0.08 -0.95,-0.25 -0.28,-0.16 -0.5,-0.4 -0.64,-0.72 -0.14,-0.31 -0.22,-0.66 -0.22,-1.05 0,-0.38 0.07,-0.74 0.22,-1.07 0.14,-0.33 0.35,-0.58 0.62,-0.74 0.27,-0.16 0.58,-0.24 0.93,-0.24 0.26,0 0.49,0.05 0.69,0.14 0.21,0.09 0.37,0.22 0.49,0.38 0.12,0.16 0.21,0.38 0.27,0.64l-0.42 0.13c-0.05,-0.2 -0.12,-0.36 -0.2,-0.47 -0.08,-0.11 -0.19,-0.21 -0.34,-0.27 -0.15,-0.07 -0.31,-0.1 -0.49,-0.1 -0.21,0 -0.4,0.04 -0.55,0.11 -0.16,0.07 -0.28,0.17 -0.38,0.29 -0.1,0.12 -0.17,0.25 -0.22,0.39 -0.09,0.24 -0.14,0.51 -0.14,0.79 0,0.35 0.05,0.64 0.16,0.88 0.11,0.24 0.27,0.41 0.47,0.53 0.21,0.11 0.43,0.17 0.66,0.17 0.2,0 0.4,-0.04 0.59,-0.13 0.19,-0.09 0.34,-0.18 0.44,-0.28l0 -0.74 -1.04 0z"/>
   <polygon id="_1" class="fil199" points="21.7,15.45 21.7,11.52 24.25,11.52 24.25,11.98 22.17,11.98 22.17,13.19 24.12,13.19 24.12,13.65 22.17,13.65 22.17,14.99 24.34,14.99 24.34,15.45 "/>
   <polygon id="_2" class="fil199" points="25.88,15.45 25.88,11.98 24.72,11.98 24.72,11.52 27.52,11.52 27.52,11.98 26.35,11.98 26.35,15.45 "/>
   <path id="_3" class="fil199" d="M30.19 15.45l0 -1.66 -1.36 -2.26 0.56 0 0.7 1.19c0.13,0.22 0.25,0.44 0.36,0.66 0.11,-0.21 0.24,-0.44 0.39,-0.69l0.68 -1.16 0.55 0 -1.41 2.26 0 1.66 -0.47 0z"/>
   <path id="_4" class="fil199" d="M32.35 13.54c0,-0.65 0.16,-1.16 0.47,-1.53 0.32,-0.37 0.72,-0.55 1.22,-0.55 0.33,0 0.62,0.09 0.88,0.26 0.26,0.17 0.46,0.41 0.6,0.72 0.14,0.31 0.21,0.66 0.21,1.05 0,0.4 -0.07,0.75 -0.22,1.07 -0.15,0.31 -0.35,0.55 -0.61,0.71 -0.27,0.16 -0.55,0.24 -0.86,0.24 -0.33,0 -0.63,-0.09 -0.89,-0.27 -0.26,-0.18 -0.46,-0.42 -0.6,-0.73 -0.14,-0.31 -0.2,-0.63 -0.2,-0.98zm0.48 0.01c0,0.47 0.11,0.85 0.34,1.12 0.23,0.27 0.52,0.41 0.86,0.41 0.35,0 0.64,-0.14 0.87,-0.41 0.23,-0.27 0.34,-0.66 0.34,-1.17 0,-0.32 -0.05,-0.6 -0.15,-0.84 -0.1,-0.24 -0.24,-0.42 -0.43,-0.55 -0.19,-0.13 -0.4,-0.2 -0.63,-0.2 -0.33,0 -0.62,0.13 -0.85,0.38 -0.24,0.25 -0.36,0.67 -0.36,1.26z"/>
   <path id="_5" class="fil199" d="M38.65 11.52l0.47 0 0 2.27c0,0.4 -0.04,0.71 -0.12,0.94 -0.08,0.23 -0.23,0.42 -0.43,0.57 -0.21,0.15 -0.48,0.22 -0.82,0.22 -0.33,0 -0.6,-0.06 -0.81,-0.19 -0.21,-0.13 -0.36,-0.31 -0.45,-0.55 -0.09,-0.24 -0.13,-0.57 -0.13,-0.99l0 -2.27 0.47 0 0 2.27c0,0.34 0.03,0.59 0.09,0.75 0.06,0.16 0.15,0.29 0.29,0.37 0.14,0.09 0.31,0.13 0.51,0.13 0.34,0 0.59,-0.09 0.73,-0.26 0.15,-0.17 0.22,-0.51 0.22,-1l0 -2.27z"/>
   <path id="_6" class="fil199" d="M39.91 15.45l0 -3.93 1.57 0c0.32,0 0.55,0.04 0.72,0.11 0.16,0.07 0.29,0.19 0.39,0.37 0.1,0.18 0.15,0.38 0.15,0.59 0,0.28 -0.08,0.51 -0.24,0.71 -0.16,0.19 -0.41,0.31 -0.75,0.36 0.12,0.07 0.22,0.13 0.28,0.2 0.14,0.14 0.27,0.31 0.39,0.52l0.61 1.07 -0.58 0 -0.47 -0.82c-0.14,-0.24 -0.25,-0.42 -0.34,-0.54 -0.09,-0.13 -0.17,-0.21 -0.24,-0.26 -0.07,-0.05 -0.14,-0.08 -0.21,-0.1 -0.05,-0.01 -0.14,-0.02 -0.26,-0.02l-0.54 0 0 1.75 -0.47 0zm0.47 -2.2l1 0c0.21,0 0.38,-0.02 0.5,-0.07 0.12,-0.05 0.21,-0.13 0.27,-0.24 0.06,-0.11 0.09,-0.23 0.09,-0.35 0,-0.19 -0.06,-0.34 -0.18,-0.46 -0.12,-0.12 -0.31,-0.18 -0.57,-0.18l-1.12 0 0 1.3z"/>
   <path id="_7" class="fil199" d="M47.36 14.07l0.47 0.13c-0.1,0.43 -0.27,0.75 -0.53,0.98 -0.25,0.22 -0.57,0.34 -0.93,0.34 -0.38,0 -0.69,-0.09 -0.93,-0.26 -0.24,-0.17 -0.42,-0.42 -0.54,-0.75 -0.12,-0.33 -0.19,-0.68 -0.19,-1.05 0,-0.41 0.07,-0.77 0.21,-1.07 0.14,-0.3 0.34,-0.54 0.6,-0.69 0.26,-0.16 0.55,-0.24 0.86,-0.24 0.35,0 0.65,0.1 0.89,0.3 0.24,0.2 0.41,0.48 0.5,0.84l-0.46 0.12c-0.08,-0.29 -0.2,-0.49 -0.36,-0.62 -0.16,-0.13 -0.35,-0.2 -0.59,-0.2 -0.27,0 -0.5,0.07 -0.68,0.22 -0.18,0.14 -0.31,0.34 -0.38,0.58 -0.07,0.24 -0.11,0.5 -0.11,0.75 0,0.33 0.04,0.63 0.13,0.87 0.09,0.25 0.22,0.44 0.41,0.56 0.18,0.12 0.38,0.18 0.6,0.18 0.26,0 0.48,-0.08 0.66,-0.25 0.18,-0.17 0.3,-0.42 0.37,-0.75z"/>
   <path id="_8" class="fil199" d="M48.26 13.54c0,-0.65 0.16,-1.16 0.47,-1.53 0.32,-0.37 0.72,-0.55 1.22,-0.55 0.33,0 0.62,0.09 0.88,0.26 0.26,0.17 0.46,0.41 0.6,0.72 0.14,0.31 0.21,0.66 0.21,1.05 0,0.4 -0.07,0.75 -0.22,1.07 -0.15,0.31 -0.35,0.55 -0.61,0.71 -0.27,0.16 -0.55,0.24 -0.86,0.24 -0.33,0 -0.63,-0.09 -0.89,-0.27 -0.26,-0.18 -0.46,-0.42 -0.6,-0.73 -0.14,-0.31 -0.2,-0.63 -0.2,-0.98zm0.48 0.01c0,0.47 0.11,0.85 0.34,1.12 0.23,0.27 0.52,0.41 0.86,0.41 0.35,0 0.64,-0.14 0.87,-0.41 0.23,-0.27 0.34,-0.66 0.34,-1.17 0,-0.32 -0.05,-0.6 -0.15,-0.84 -0.1,-0.24 -0.24,-0.42 -0.43,-0.55 -0.19,-0.13 -0.4,-0.2 -0.63,-0.2 -0.33,0 -0.62,0.13 -0.85,0.38 -0.24,0.25 -0.36,0.67 -0.36,1.26z"/>
   <polygon id="_9" class="fil199" points="52.33,15.45 52.33,11.52 52.8,11.52 52.8,15.45 "/>
   <polygon id="_10" class="fil199" points="53.62,15.45 53.62,11.52 54.1,11.52 55.95,14.61 55.95,11.52 56.4,11.52 56.4,15.45 55.92,15.45 54.07,12.37 54.07,15.45 "/>
   <path id="_11" class="fil199" d="M57.04 14.19l0.44 -0.04c0.02,0.2 0.07,0.36 0.15,0.49 0.08,0.13 0.2,0.23 0.36,0.31 0.16,0.08 0.34,0.12 0.54,0.12 0.18,0 0.34,-0.03 0.47,-0.09 0.14,-0.06 0.24,-0.14 0.3,-0.24 0.07,-0.1 0.1,-0.22 0.1,-0.34 0,-0.12 -0.03,-0.23 -0.1,-0.32 -0.06,-0.09 -0.17,-0.17 -0.32,-0.23 -0.09,-0.04 -0.3,-0.1 -0.63,-0.19 -0.33,-0.09 -0.55,-0.17 -0.68,-0.25 -0.17,-0.1 -0.29,-0.22 -0.38,-0.37 -0.08,-0.15 -0.12,-0.31 -0.12,-0.49 0,-0.2 0.05,-0.39 0.15,-0.56 0.1,-0.17 0.25,-0.3 0.44,-0.39 0.19,-0.09 0.41,-0.13 0.65,-0.13 0.26,0 0.49,0.05 0.69,0.14 0.2,0.09 0.35,0.23 0.46,0.41 0.11,0.18 0.17,0.39 0.17,0.62l-0.45 0.04c-0.02,-0.25 -0.11,-0.44 -0.24,-0.56 -0.14,-0.13 -0.34,-0.19 -0.62,-0.19 -0.28,0 -0.49,0.06 -0.62,0.17 -0.13,0.12 -0.19,0.25 -0.19,0.42 0,0.14 0.05,0.26 0.14,0.35 0.09,0.09 0.33,0.18 0.71,0.28 0.38,0.1 0.64,0.18 0.78,0.25 0.21,0.11 0.36,0.24 0.46,0.4 0.1,0.16 0.15,0.35 0.15,0.56 0,0.21 -0.05,0.41 -0.16,0.59 -0.11,0.18 -0.26,0.33 -0.46,0.43 -0.2,0.1 -0.43,0.15 -0.68,0.15 -0.32,0 -0.59,-0.05 -0.8,-0.16 -0.22,-0.1 -0.39,-0.26 -0.51,-0.47 -0.12,-0.21 -0.19,-0.44 -0.19,-0.71z"/>
   <polygon id="_12" class="fil199" points="61.94,15.45 61.94,11.52 62.41,11.52 62.41,15.45 "/>
   <polygon id="_13" class="fil199" points="63.22,15.45 63.22,11.52 63.71,11.52 65.56,14.61 65.56,11.52 66.01,11.52 66.01,15.45 65.53,15.45 63.67,12.37 63.67,15.45 "/>
   <path id="_14" class="fil199" d="M68.03 13.54c0,-0.65 0.16,-1.16 0.47,-1.53 0.32,-0.37 0.72,-0.55 1.22,-0.55 0.33,0 0.62,0.09 0.88,0.26 0.26,0.17 0.46,0.41 0.6,0.72 0.14,0.31 0.21,0.66 0.21,1.05 0,0.4 -0.07,0.75 -0.22,1.07 -0.15,0.31 -0.35,0.55 -0.61,0.71 -0.27,0.16 -0.55,0.24 -0.86,0.24 -0.33,0 -0.63,-0.09 -0.89,-0.27 -0.26,-0.18 -0.46,-0.42 -0.6,-0.73 -0.14,-0.31 -0.2,-0.63 -0.2,-0.98zm0.48 0.01c0,0.47 0.11,0.85 0.34,1.12 0.23,0.27 0.52,0.41 0.86,0.41 0.35,0 0.64,-0.14 0.87,-0.41 0.23,-0.27 0.34,-0.66 0.34,-1.17 0,-0.32 -0.05,-0.6 -0.15,-0.84 -0.1,-0.24 -0.24,-0.42 -0.43,-0.55 -0.19,-0.13 -0.4,-0.2 -0.63,-0.2 -0.33,0 -0.62,0.13 -0.85,0.38 -0.24,0.25 -0.36,0.67 -0.36,1.26z"/>
   <path id="_15" class="fil199" d="M72.02 15.45l0 -3.93 1.57 0c0.32,0 0.55,0.04 0.72,0.11 0.16,0.07 0.29,0.19 0.39,0.37 0.1,0.18 0.15,0.38 0.15,0.59 0,0.28 -0.08,0.51 -0.24,0.71 -0.16,0.19 -0.41,0.31 -0.75,0.36 0.12,0.07 0.22,0.13 0.28,0.2 0.14,0.14 0.27,0.31 0.39,0.52l0.61 1.07 -0.58 0 -0.47 -0.82c-0.14,-0.24 -0.25,-0.42 -0.34,-0.54 -0.09,-0.13 -0.17,-0.21 -0.24,-0.26 -0.07,-0.05 -0.14,-0.08 -0.21,-0.1 -0.05,-0.01 -0.14,-0.02 -0.26,-0.02l-0.54 0 0 1.75 -0.47 0zm0.47 -2.2l1 0c0.21,0 0.38,-0.02 0.5,-0.07 0.12,-0.05 0.21,-0.13 0.27,-0.24 0.06,-0.11 0.09,-0.23 0.09,-0.35 0,-0.19 -0.06,-0.34 -0.18,-0.46 -0.12,-0.12 -0.31,-0.18 -0.57,-0.18l-1.12 0 0 1.3z"/>
   <path id="_16" class="fil199" d="M75.58 15.45l0 -3.93 1.22 0c0.27,0 0.48,0.02 0.63,0.06 0.2,0.05 0.38,0.15 0.52,0.28 0.19,0.18 0.33,0.4 0.42,0.67 0.09,0.27 0.14,0.58 0.14,0.93 0,0.3 -0.03,0.56 -0.09,0.79 -0.06,0.23 -0.14,0.42 -0.24,0.57 -0.1,0.15 -0.21,0.27 -0.32,0.36 -0.12,0.09 -0.26,0.15 -0.42,0.2 -0.17,0.04 -0.35,0.07 -0.57,0.07l-1.28 0zm0.47 -0.46l0.75 0c0.23,0 0.42,-0.02 0.55,-0.07 0.13,-0.05 0.24,-0.12 0.32,-0.2 0.11,-0.12 0.2,-0.29 0.26,-0.5 0.06,-0.21 0.09,-0.46 0.09,-0.76 0,-0.41 -0.06,-0.73 -0.18,-0.95 -0.12,-0.22 -0.27,-0.37 -0.44,-0.44 -0.13,-0.05 -0.33,-0.08 -0.61,-0.08l-0.74 0 0 3.01z"/>
   <polygon id="_17" class="fil199" points="79.16,15.45 79.16,11.52 81.71,11.52 81.71,11.98 79.62,11.98 79.62,13.19 81.58,13.19 81.58,13.65 79.62,13.65 79.62,14.99 81.79,14.99 81.79,15.45 "/>
   <path id="_18" class="fil199" d="M82.45 15.45l0 -3.93 1.57 0c0.32,0 0.55,0.04 0.72,0.11 0.16,0.07 0.29,0.19 0.39,0.37 0.1,0.18 0.15,0.38 0.15,0.59 0,0.28 -0.08,0.51 -0.24,0.71 -0.16,0.19 -0.41,0.31 -0.75,0.36 0.12,0.07 0.22,0.13 0.28,0.2 0.14,0.14 0.27,0.31 0.39,0.52l0.61 1.07 -0.58 0 -0.47 -0.82c-0.14,-0.24 -0.25,-0.42 -0.34,-0.54 -0.09,-0.13 -0.17,-0.21 -0.24,-0.26 -0.07,-0.05 -0.14,-0.08 -0.21,-0.1 -0.05,-0.01 -0.14,-0.02 -0.26,-0.02l-0.54 0 0 1.75 -0.47 0zm0.47 -2.2l1 0c0.21,0 0.38,-0.02 0.5,-0.07 0.12,-0.05 0.21,-0.13 0.27,-0.24 0.06,-0.11 0.09,-0.23 0.09,-0.35 0,-0.19 -0.06,-0.34 -0.18,-0.46 -0.12,-0.12 -0.31,-0.18 -0.57,-0.18l-1.12 0 0 1.3z"/>
   <polygon id="_19" class="fil199" points="86.08,15.45 86.08,14.9 86.57,14.9 86.57,15.45 "/>
   <g>
    <path class="fil199" d="M21.58 7.99c-0.72,0 -1.37,-0.17 -1.95,-0.51 -0.58,-0.34 -1.03,-0.81 -1.36,-1.42 -0.33,-0.61 -0.49,-1.29 -0.49,-2.06 0,-0.77 0.16,-1.46 0.49,-2.06 0.33,-0.61 0.78,-1.08 1.36,-1.42 0.58,-0.34 1.23,-0.51 1.95,-0.51 0.63,0 1.2,0.12 1.71,0.37 0.51,0.25 0.93,0.61 1.26,1.08l-1.24 1.25c-0.45,-0.6 -0.99,-0.9 -1.63,-0.9 -0.38,0 -0.71,0.09 -1,0.27 -0.29,0.18 -0.52,0.44 -0.68,0.77 -0.16,0.33 -0.24,0.71 -0.24,1.15 0,0.43 0.08,0.81 0.24,1.15 0.16,0.33 0.39,0.59 0.68,0.77 0.29,0.18 0.63,0.27 1,0.27 0.64,0 1.18,-0.3 1.63,-0.9l1.24 1.25c-0.34,0.47 -0.76,0.83 -1.26,1.08 -0.51,0.25 -1.08,0.37 -1.71,0.37z"/>
    <path id="_1_0" class="fil199" d="M28.44 5.79l-1.07 0 0 2.04 -1.96 0 0 -7.68 3.16 0c0.63,0 1.17,0.12 1.63,0.35 0.46,0.23 0.82,0.56 1.07,0.99 0.25,0.43 0.38,0.93 0.38,1.51 0,0.56 -0.12,1.04 -0.35,1.45 -0.23,0.41 -0.57,0.74 -1,0.97l1.49 2.41 -2.09 0 -1.25 -2.04zm1.23 -2.8c0,-0.36 -0.1,-0.64 -0.31,-0.83 -0.2,-0.2 -0.51,-0.3 -0.91,-0.3l-1.09 0 0 2.25 1.09 0c0.4,0 0.7,-0.1 0.91,-0.29 0.2,-0.19 0.31,-0.47 0.31,-0.83z"/>
    <polygon id="_2_1" class="fil199" points="36.33,5.08 36.33,7.83 34.38,7.83 34.38,5.05 31.74,0.15 33.8,0.15 35.44,3.2 37.08,0.15 38.98,0.15 "/>
    <path id="_3_2" class="fil199" d="M42.6 0.15c0.63,0 1.17,0.12 1.63,0.35 0.46,0.23 0.82,0.56 1.07,0.99 0.25,0.43 0.38,0.93 0.38,1.51 0,0.58 -0.13,1.08 -0.38,1.5 -0.25,0.42 -0.61,0.75 -1.07,0.98 -0.46,0.23 -1,0.35 -1.63,0.35l-1.2 0 0 2.01 -1.96 0 0 -7.68 3.16 0zm-0.12 3.96c0.4,0 0.7,-0.1 0.91,-0.29 0.2,-0.19 0.31,-0.47 0.31,-0.83 0,-0.36 -0.1,-0.64 -0.31,-0.83 -0.2,-0.2 -0.51,-0.3 -0.91,-0.3l-1.09 0 0 2.25 1.09 0z"/>
    <polygon id="_4_3" class="fil199" points="47.92,1.88 45.8,1.88 45.8,0.15 51.99,0.15 51.99,1.88 49.88,1.88 49.88,7.83 47.92,7.83 "/>
    <path id="_5_4" class="fil199" d="M55.13 7.99c-0.56,0 -1.1,-0.08 -1.63,-0.23 -0.53,-0.15 -0.95,-0.36 -1.28,-0.61l0.64 -1.6c0.31,0.23 0.67,0.41 1.08,0.55 0.41,0.14 0.81,0.21 1.2,0.21 0.75,0 1.13,-0.21 1.13,-0.63 0,-0.22 -0.11,-0.38 -0.32,-0.49 -0.21,-0.11 -0.56,-0.22 -1.03,-0.33 -0.52,-0.12 -0.95,-0.26 -1.3,-0.4 -0.35,-0.14 -0.65,-0.37 -0.9,-0.69 -0.25,-0.31 -0.38,-0.74 -0.38,-1.27 0,-0.47 0.12,-0.89 0.35,-1.27 0.23,-0.38 0.57,-0.67 1.03,-0.89 0.46,-0.22 1.02,-0.33 1.68,-0.33 0.45,0 0.9,0.06 1.34,0.17 0.44,0.11 0.83,0.28 1.17,0.5l-0.6 1.61c-0.66,-0.39 -1.3,-0.59 -1.92,-0.59 -0.39,0 -0.67,0.06 -0.85,0.19 -0.18,0.13 -0.27,0.29 -0.27,0.5 0,0.2 0.11,0.36 0.32,0.46 0.21,0.1 0.55,0.21 1.02,0.32 0.53,0.12 0.96,0.26 1.31,0.4 0.35,0.14 0.65,0.37 0.9,0.68 0.25,0.31 0.38,0.73 0.38,1.27 0,0.46 -0.12,0.88 -0.35,1.25 -0.23,0.37 -0.58,0.67 -1.04,0.89 -0.46,0.22 -1.02,0.33 -1.68,0.33z"/>
    <polygon id="_6_5" class="fil199" points="64.64,6.16 64.64,7.83 59.09,7.83 59.09,0.15 64.51,0.15 64.51,1.83 61.03,1.83 61.03,3.13 64.1,3.13 64.1,4.75 61.03,4.75 61.03,6.16 "/>
    <polygon id="_7_6" class="fil199" points="72.31,0.15 72.31,7.83 70.7,7.83 67.64,3.74 67.64,7.83 65.73,7.83 65.73,0.15 67.34,0.15 70.39,4.25 70.39,0.15 "/>
    <path id="_8_7" class="fil199" d="M77.13 7.99c-0.72,0 -1.37,-0.17 -1.95,-0.51 -0.58,-0.34 -1.03,-0.81 -1.36,-1.42 -0.33,-0.61 -0.49,-1.29 -0.49,-2.06 0,-0.77 0.16,-1.46 0.49,-2.06 0.33,-0.61 0.78,-1.08 1.36,-1.42 0.58,-0.34 1.23,-0.51 1.95,-0.51 0.63,0 1.2,0.12 1.71,0.37 0.51,0.25 0.93,0.61 1.26,1.08l-1.24 1.25c-0.45,-0.6 -0.99,-0.9 -1.63,-0.9 -0.38,0 -0.71,0.09 -1,0.27 -0.29,0.18 -0.52,0.44 -0.68,0.77 -0.16,0.33 -0.24,0.71 -0.24,1.15 0,0.43 0.08,0.81 0.24,1.15 0.16,0.33 0.39,0.59 0.68,0.77 0.29,0.18 0.63,0.27 1,0.27 0.64,0 1.18,-0.3 1.63,-0.9l1.24 1.25c-0.34,0.47 -0.76,0.83 -1.26,1.08 -0.51,0.25 -1.08,0.37 -1.71,0.37z"/>
    <polygon id="_9_8" class="fil199" points="86.53,6.16 86.53,7.83 80.98,7.83 80.98,0.15 86.4,0.15 86.4,1.83 82.91,1.83 82.91,3.13 85.98,3.13 85.98,4.75 82.91,4.75 82.91,6.16 "/>
   </g>
  </g>
 </g>
</svg>
