<?xml version="1.0" encoding="UTF-8"?>
<!DOCTYPE svg PUBLIC "-//W3C//DTD SVG 1.1//EN" "http://www.w3.org/Graphics/SVG/1.1/DTD/svg11.dtd">
<!-- Creator: CorelDRAW 2021 (64-Bit) -->
<svg xmlns="http://www.w3.org/2000/svg" xml:space="preserve" width="2.5216in" height="2.52159in" version="1.1" style="shape-rendering:geometricPrecision; text-rendering:geometricPrecision; image-rendering:optimizeQuality; fill-rule:evenodd; clip-rule:evenodd"
viewBox="0 0 112.07 112.07"
 xmlns:xlink="http://www.w3.org/1999/xlink"
 xmlns:xodm="http://www.corel.com/coreldraw/odm/2003">
 <defs>
  <style type="text/css">
   <![CDATA[
    .str0 {stroke:black;stroke-width:0.31;stroke-linecap:round;stroke-linejoin:round;stroke-miterlimit:2.61313}
    .fil74 {fill:#1C3FAA}
    .fil3 {fill:black;fill-rule:nonzero}
    .fil7 {fill:url(#id0)}
    .fil28 {fill:url(#id1)}
    .fil64 {fill:url(#id2)}
    .fil70 {fill:url(#id3)}
    .fil68 {fill:url(#id4)}
    .fil62 {fill:url(#id5)}
    .fil21 {fill:url(#id6)}
    .fil72 {fill:url(#id7)}
    .fil30 {fill:url(#id8)}
    .fil32 {fill:url(#id9)}
    .fil33 {fill:url(#id10)}
    .fil19 {fill:url(#id11)}
    .fil34 {fill:url(#id12)}
    .fil66 {fill:url(#id13)}
    .fil60 {fill:url(#id14)}
    .fil18 {fill:url(#id15)}
    .fil5 {fill:url(#id16)}
    .fil13 {fill:url(#id17)}
    .fil10 {fill:url(#id18)}
    .fil9 {fill:url(#id19)}
    .fil16 {fill:url(#id20)}
    .fil15 {fill:url(#id21)}
    .fil22 {fill:url(#id22)}
    .fil23 {fill:url(#id23)}
    .fil24 {fill:url(#id24)}
    .fil6 {fill:url(#id25)}
    .fil12 {fill:url(#id26)}
    .fil4 {fill:url(#id27)}
    .fil14 {fill:url(#id28)}
    .fil8 {fill:url(#id29)}
    .fil101 {fill:url(#id30)}
    .fil44 {fill:url(#id31)}
    .fil163 {fill:url(#id32)}
    .fil132 {fill:url(#id33)}
    .fil187 {fill:url(#id34)}
    .fil129 {fill:url(#id35)}
    .fil128 {fill:url(#id36)}
    .fil103 {fill:url(#id37)}
    .fil196 {fill:url(#id38)}
    .fil2 {fill:url(#id39)}
    .fil139 {fill:url(#id40)}
    .fil191 {fill:url(#id41)}
    .fil81 {fill:url(#id42)}
    .fil37 {fill:url(#id43)}
    .fil153 {fill:url(#id44)}
    .fil137 {fill:url(#id45)}
    .fil112 {fill:url(#id46)}
    .fil126 {fill:url(#id47)}
    .fil83 {fill:url(#id48)}
    .fil154 {fill:url(#id49)}
    .fil80 {fill:url(#id50)}
    .fil54 {fill:url(#id51)}
    .fil185 {fill:url(#id52)}
    .fil144 {fill:url(#id53)}
    .fil56 {fill:url(#id54)}
    .fil50 {fill:url(#id55)}
    .fil190 {fill:url(#id56)}
    .fil193 {fill:url(#id57)}
    .fil143 {fill:url(#id58)}
    .fil109 {fill:url(#id59)}
    .fil131 {fill:url(#id60)}
    .fil110 {fill:url(#id61)}
    .fil90 {fill:url(#id62)}
    .fil133 {fill:url(#id63)}
    .fil89 {fill:url(#id64)}
    .fil180 {fill:url(#id65)}
    .fil100 {fill:url(#id66)}
    .fil47 {fill:url(#id67)}
    .fil20 {fill:url(#id68)}
    .fil145 {fill:url(#id69)}
    .fil192 {fill:url(#id70)}
    .fil36 {fill:url(#id71)}
    .fil116 {fill:url(#id72)}
    .fil120 {fill:url(#id73)}
    .fil86 {fill:url(#id74)}
    .fil195 {fill:url(#id75)}
    .fil194 {fill:url(#id76)}
    .fil53 {fill:url(#id77)}
    .fil147 {fill:url(#id78)}
    .fil150 {fill:url(#id79)}
    .fil1 {fill:url(#id80)}
    .fil152 {fill:url(#id81)}
    .fil141 {fill:url(#id82)}
    .fil134 {fill:url(#id83)}
    .fil175 {fill:url(#id84)}
    .fil108 {fill:url(#id85)}
    .fil51 {fill:url(#id86)}
    .fil84 {fill:url(#id87)}
    .fil104 {fill:url(#id88)}
    .fil82 {fill:url(#id89)}
    .fil155 {fill:url(#id90)}
    .fil130 {fill:url(#id91)}
    .fil73 {fill:url(#id92)}
    .fil148 {fill:url(#id93)}
    .fil140 {fill:url(#id94)}
    .fil188 {fill:url(#id95)}
    .fil182 {fill:url(#id96)}
    .fil25 {fill:url(#id97)}
    .fil111 {fill:url(#id98)}
    .fil151 {fill:url(#id99)}
    .fil199 {fill:url(#id100)}
    .fil11 {fill:url(#id101)}
    .fil198 {fill:url(#id102)}
    .fil52 {fill:url(#id103)}
    .fil106 {fill:url(#id104)}
    .fil156 {fill:url(#id105)}
    .fil173 {fill:url(#id106)}
    .fil85 {fill:url(#id107)}
    .fil135 {fill:url(#id108)}
    .fil136 {fill:url(#id109)}
    .fil197 {fill:url(#id110)}
    .fil119 {fill:url(#id111)}
    .fil179 {fill:url(#id112)}
    .fil138 {fill:url(#id113)}
    .fil0 {fill:url(#id114)}
    .fil87 {fill:url(#id115)}
    .fil184 {fill:url(#id116)}
    .fil178 {fill:url(#id117)}
    .fil38 {fill:url(#id118)}
    .fil42 {fill:url(#id119)}
    .fil43 {fill:url(#id120)}
    .fil48 {fill:url(#id121)}
    .fil176 {fill:url(#id122)}
    .fil170 {fill:url(#id123)}
    .fil168 {fill:url(#id124)}
    .fil166 {fill:url(#id125)}
    .fil167 {fill:url(#id126)}
    .fil58 {fill:url(#id127)}
    .fil39 {fill:url(#id128)}
    .fil63 {fill:url(#id129)}
    .fil69 {fill:url(#id130)}
    .fil171 {fill:url(#id131)}
    .fil17 {fill:url(#id132)}
    .fil40 {fill:url(#id133)}
    .fil165 {fill:url(#id134)}
    .fil61 {fill:url(#id135)}
    .fil67 {fill:url(#id136)}
    .fil45 {fill:url(#id137)}
    .fil142 {fill:url(#id138)}
    .fil160 {fill:url(#id139)}
    .fil122 {fill:url(#id140)}
    .fil162 {fill:url(#id141)}
    .fil96 {fill:url(#id142)}
    .fil146 {fill:url(#id143)}
    .fil159 {fill:url(#id144)}
    .fil177 {fill:url(#id145)}
    .fil107 {fill:url(#id146)}
    .fil41 {fill:url(#id147)}
    .fil149 {fill:url(#id148)}
    .fil127 {fill:url(#id149)}
    .fil97 {fill:url(#id150)}
    .fil125 {fill:url(#id151)}
    .fil94 {fill:url(#id152)}
    .fil31 {fill:url(#id153)}
    .fil123 {fill:url(#id154)}
    .fil88 {fill:url(#id155)}
    .fil164 {fill:url(#id156)}
    .fil46 {fill:url(#id157)}
    .fil65 {fill:url(#id158)}
    .fil71 {fill:url(#id159)}
    .fil114 {fill:url(#id160)}
    .fil183 {fill:url(#id161)}
    .fil93 {fill:url(#id162)}
    .fil95 {fill:url(#id163)}
    .fil99 {fill:url(#id164)}
    .fil172 {fill:url(#id165)}
    .fil124 {fill:url(#id166)}
    .fil121 {fill:url(#id167)}
    .fil55 {fill:url(#id168)}
    .fil115 {fill:url(#id169)}
    .fil157 {fill:url(#id170)}
    .fil91 {fill:url(#id171)}
    .fil59 {fill:url(#id172)}
    .fil186 {fill:url(#id173)}
    .fil158 {fill:url(#id174)}
    .fil49 {fill:url(#id175)}
    .fil102 {fill:url(#id176)}
    .fil118 {fill:url(#id177)}
    .fil98 {fill:url(#id178)}
    .fil117 {fill:url(#id179)}
    .fil29 {fill:url(#id180)}
    .fil181 {fill:url(#id181)}
    .fil113 {fill:url(#id182)}
    .fil105 {fill:url(#id183)}
    .fil161 {fill:url(#id184)}
    .fil92 {fill:url(#id185)}
    .fil26 {fill:url(#id186)}
    .fil189 {fill:url(#id187)}
    .fil27 {fill:url(#id188)}
    .fil174 {fill:url(#id189)}
    .fil77 {fill:url(#id190)}
    .fil79 {fill:url(#id191)}
    .fil57 {fill:url(#id192)}
    .fil35 {fill:url(#id193)}
    .fil169 {fill:url(#id194)}
    .fil78 {fill:url(#id195)}
    .fil76 {fill:url(#id196)}
    .fil75 {fill:url(#id197);fill-rule:nonzero}
   ]]>
  </style>
  <linearGradient id="id0" gradientUnits="userSpaceOnUse" x1="31.22" y1="42.25" x2="82.93" y2="42.25">
   <stop offset="0" style="stop-opacity:1; stop-color:#DB9125"/>
   <stop offset="0.0509804" style="stop-opacity:1; stop-color:#EDC44E"/>
   <stop offset="0.2" style="stop-opacity:1; stop-color:#FFF778"/>
   <stop offset="0.27451" style="stop-opacity:1; stop-color:#ECC94F"/>
   <stop offset="0.341176" style="stop-opacity:1; stop-color:#D99A26"/>
   <stop offset="0.372549" style="stop-opacity:1; stop-color:#C08622"/>
   <stop offset="0.470588" style="stop-opacity:1; stop-color:#A7711E"/>
   <stop offset="0.615686" style="stop-opacity:1; stop-color:#CE9F43"/>
   <stop offset="0.678431" style="stop-opacity:1; stop-color:#F6CE69"/>
   <stop offset="0.803922" style="stop-opacity:1; stop-color:#E8B448"/>
   <stop offset="0.870588" style="stop-opacity:1; stop-color:#D99A26"/>
   <stop offset="1" style="stop-opacity:1; stop-color:#F6CE69"/>
  </linearGradient>
  <linearGradient id="id1" gradientUnits="userSpaceOnUse" xlink:href="#id0" x1="57.15" y1="75.66" x2="89.94" y2="75.66">
  </linearGradient>
  <linearGradient id="id2" gradientUnits="userSpaceOnUse" xlink:href="#id0" x1="50.65" y1="51.67" x2="61.42" y2="51.67">
  </linearGradient>
  <linearGradient id="id3" gradientUnits="userSpaceOnUse" xlink:href="#id0" x1="50.65" y1="60.39" x2="61.42" y2="60.39">
  </linearGradient>
  <linearGradient id="id4" gradientUnits="userSpaceOnUse" xlink:href="#id0" x1="52.64" y1="61.35" x2="61.42" y2="61.35">
  </linearGradient>
  <linearGradient id="id5" gradientUnits="userSpaceOnUse" xlink:href="#id0" x1="52.64" y1="50.72" x2="61.42" y2="50.72">
  </linearGradient>
  <linearGradient id="id6" gradientUnits="userSpaceOnUse" xlink:href="#id0" x1="59.86" y1="39.91" x2="99.02" y2="39.91">
  </linearGradient>
  <linearGradient id="id7" gradientUnits="userSpaceOnUse" xlink:href="#id0" x1="12.82" y1="56.03" x2="99.24" y2="56.03">
  </linearGradient>
  <linearGradient id="id8" gradientUnits="userSpaceOnUse" xlink:href="#id0" x1="58.51" y1="73.91" x2="89.8" y2="73.91">
  </linearGradient>
  <linearGradient id="id9" gradientUnits="userSpaceOnUse" xlink:href="#id0" x1="26.7" y1="72.5" x2="47.1" y2="72.5">
  </linearGradient>
  <linearGradient id="id10" gradientUnits="userSpaceOnUse" xlink:href="#id0" x1="24.75" y1="72.61" x2="48.45" y2="72.61">
  </linearGradient>
  <linearGradient id="id11" gradientUnits="userSpaceOnUse" xlink:href="#id0" x1="24.75" y1="39.46" x2="48.45" y2="39.46">
  </linearGradient>
  <linearGradient id="id12" gradientUnits="userSpaceOnUse" xlink:href="#id0" x1="22.95" y1="72.67" x2="49.8" y2="72.67">
  </linearGradient>
  <linearGradient id="id13" gradientUnits="userSpaceOnUse" xlink:href="#id0" x1="55.21" y1="62.3" x2="61.42" y2="62.3">
  </linearGradient>
  <linearGradient id="id14" gradientUnits="userSpaceOnUse" xlink:href="#id0" x1="55.21" y1="49.77" x2="61.42" y2="49.77">
  </linearGradient>
  <linearGradient id="id15" gradientUnits="userSpaceOnUse" xlink:href="#id0" x1="22.95" y1="39.4" x2="49.8" y2="39.4">
  </linearGradient>
  <linearGradient id="id16" gradientUnits="userSpaceOnUse" xlink:href="#id0" x1="28.84" y1="39.56" x2="46.95" y2="39.56">
  </linearGradient>
  <linearGradient id="id17" gradientUnits="userSpaceOnUse" xlink:href="#id0" x1="28.84" y1="72.51" x2="46.95" y2="72.51">
  </linearGradient>
  <linearGradient id="id18" gradientUnits="userSpaceOnUse" xlink:href="#id0" x1="33.94" y1="42.09" x2="81.24" y2="42.09">
  </linearGradient>
  <linearGradient id="id19" gradientUnits="userSpaceOnUse" xlink:href="#id0" x1="33.94" y1="69.97" x2="81.24" y2="69.97">
  </linearGradient>
  <linearGradient id="id20" gradientUnits="userSpaceOnUse" xlink:href="#id0" x1="26.7" y1="39.57" x2="47.1" y2="39.57">
  </linearGradient>
  <linearGradient id="id21" gradientUnits="userSpaceOnUse" xlink:href="#id0" x1="19.7" y1="56.03" x2="97.97" y2="56.03">
  </linearGradient>
  <linearGradient id="id22" gradientUnits="userSpaceOnUse" xlink:href="#id0" x1="58.51" y1="38.13" x2="98.87" y2="38.13">
  </linearGradient>
  <linearGradient id="id23" gradientUnits="userSpaceOnUse" xlink:href="#id0" x1="57.15" y1="36.44" x2="98.65" y2="36.44">
  </linearGradient>
  <linearGradient id="id24" gradientUnits="userSpaceOnUse" xlink:href="#id0" x1="59.86" y1="72.16" x2="89.8" y2="72.16">
  </linearGradient>
  <linearGradient id="id25" gradientUnits="userSpaceOnUse" xlink:href="#id0" x1="16.55" y1="56.03" x2="93.44" y2="56.03">
  </linearGradient>
  <linearGradient id="id26" gradientUnits="userSpaceOnUse" xlink:href="#id0" x1="21.27" y1="56.03" x2="98.35" y2="56.03">
  </linearGradient>
  <linearGradient id="id27" gradientUnits="userSpaceOnUse" xlink:href="#id0" x1="60.05" y1="41.61" x2="99.08" y2="41.61">
  </linearGradient>
  <linearGradient id="id28" gradientUnits="userSpaceOnUse" xlink:href="#id0" x1="60.05" y1="70.45" x2="99.08" y2="70.45">
  </linearGradient>
  <linearGradient id="id29" gradientUnits="userSpaceOnUse" xlink:href="#id0" x1="31.22" y1="69.82" x2="82.93" y2="69.82">
  </linearGradient>
  <linearGradient id="id30" gradientUnits="userSpaceOnUse" xlink:href="#id0" x1="24.48" y1="40.82" x2="-14.42" y2="27.35">
  </linearGradient>
  <linearGradient id="id31" gradientUnits="userSpaceOnUse" xlink:href="#id0" x1="20.29" y1="54.37" x2="80.92" y2="47.33">
  </linearGradient>
  <linearGradient id="id32" gradientUnits="userSpaceOnUse" xlink:href="#id0" x1="89" y1="67.88" x2="129.1" y2="77.17">
  </linearGradient>
  <linearGradient id="id33" gradientUnits="userSpaceOnUse" xlink:href="#id0" x1="41.5" y1="87.96" x2="33.35" y2="128.76">
  </linearGradient>
  <linearGradient id="id34" gradientUnits="userSpaceOnUse" xlink:href="#id0" x1="77.47" y1="28.34" x2="98.73" y2="-6.9">
  </linearGradient>
  <linearGradient id="id35" gradientUnits="userSpaceOnUse" xlink:href="#id0" x1="37.61" y1="85.82" x2="20.14" y2="123.09">
  </linearGradient>
  <linearGradient id="id36" gradientUnits="userSpaceOnUse" xlink:href="#id0" x1="35.19" y1="84.24" x2="18.71" y2="122.44">
  </linearGradient>
  <linearGradient id="id37" gradientUnits="userSpaceOnUse" xlink:href="#id0" x1="23.06" y1="44.19" x2="-17.03" y2="34.9">
  </linearGradient>
  <linearGradient id="id38" gradientUnits="userSpaceOnUse" xlink:href="#id0" x1="63.63" y1="21.78" x2="63.06" y2="-19.81">
  </linearGradient>
  <linearGradient id="id39" gradientUnits="userSpaceOnUse" xlink:href="#id0" x1="16.03" y1="15.73" x2="97.99" y2="97.95">
  </linearGradient>
  <linearGradient id="id40" gradientUnits="userSpaceOnUse" xlink:href="#id0" x1="54.96" y1="91.04" x2="58.5" y2="132.04">
  </linearGradient>
  <linearGradient id="id41" gradientUnits="userSpaceOnUse" xlink:href="#id0" x1="71.25" y1="24.48" x2="84.71" y2="-14.42">
  </linearGradient>
  <linearGradient id="id42" gradientUnits="userSpaceOnUse" xlink:href="#id0" x1="53.43" y1="21.11" x2="45.66" y2="-19.31">
  </linearGradient>
  <linearGradient id="id43" gradientUnits="userSpaceOnUse" xlink:href="#id0" x1="42.26" y1="26.93" x2="75.25" y2="26.52">
  </linearGradient>
  <linearGradient id="id44" gradientUnits="userSpaceOnUse" xlink:href="#id0" x1="78.66" y1="82.77" x2="108.74" y2="110.86">
  </linearGradient>
  <linearGradient id="id45" gradientUnits="userSpaceOnUse" xlink:href="#id0" x1="51.29" y1="90.74" x2="50.58" y2="131.89">
  </linearGradient>
  <linearGradient id="id46" gradientUnits="userSpaceOnUse" xlink:href="#id0" x1="21.13" y1="59.43" x2="-18.3" y2="72.72">
  </linearGradient>
  <linearGradient id="id47" gradientUnits="userSpaceOnUse" xlink:href="#id0" x1="32.36" y1="81.9" x2="11.98" y2="118.17">
  </linearGradient>
  <linearGradient id="id48" gradientUnits="userSpaceOnUse" xlink:href="#id0" x1="49.79" y1="21.56" x2="37.84" y2="-17.82">
  </linearGradient>
  <linearGradient id="id49" gradientUnits="userSpaceOnUse" xlink:href="#id0" x1="79.28" y1="82.29" x2="113.24" y2="106.32">
  </linearGradient>
  <linearGradient id="id50" gradientUnits="userSpaceOnUse" xlink:href="#id0" x1="56.31" y1="20.97" x2="47.2" y2="-19.62">
  </linearGradient>
  <linearGradient id="id51" gradientUnits="userSpaceOnUse" xlink:href="#id0" x1="82.82" y1="60.9" x2="118" y2="68.77">
  </linearGradient>
  <linearGradient id="id52" gradientUnits="userSpaceOnUse" xlink:href="#id0" x1="80.25" y1="30.74" x2="105.07" y2="-2.1">
  </linearGradient>
  <linearGradient id="id53" gradientUnits="userSpaceOnUse" xlink:href="#id0" x1="63.05" y1="90.4" x2="80.41" y2="128.21">
  </linearGradient>
  <linearGradient id="id54" gradientUnits="userSpaceOnUse" xlink:href="#id0" x1="83.99" y1="55.71" x2="119.16" y2="63.56">
  </linearGradient>
  <linearGradient id="id55" gradientUnits="userSpaceOnUse" xlink:href="#id0" x1="36.67" y1="86.87" x2="95.34" y2="91.13">
  </linearGradient>
  <linearGradient id="id56" gradientUnits="userSpaceOnUse" xlink:href="#id0" x1="73.81" y1="25.8" x2="86.21" y2="-13.92">
  </linearGradient>
  <linearGradient id="id57" gradientUnits="userSpaceOnUse" xlink:href="#id0" x1="67.88" y1="23.06" x2="77.17" y2="-17.03">
  </linearGradient>
  <linearGradient id="id58" gradientUnits="userSpaceOnUse" xlink:href="#id0" x1="62.27" y1="90.5" x2="74.23" y2="129.89">
  </linearGradient>
  <linearGradient id="id59" gradientUnits="userSpaceOnUse" xlink:href="#id0" x1="21.03" y1="54.96" x2="-19.98" y2="58.5">
  </linearGradient>
  <linearGradient id="id60" gradientUnits="userSpaceOnUse" xlink:href="#id0" x1="40.82" y1="87.59" x2="27.35" y2="126.48">
  </linearGradient>
  <linearGradient id="id61" gradientUnits="userSpaceOnUse" xlink:href="#id0" x1="20.97" y1="55.75" x2="-19.62" y2="64.87">
  </linearGradient>
  <linearGradient id="id62" gradientUnits="userSpaceOnUse" xlink:href="#id0" x1="38.76" y1="25.51" x2="10.51" y2="-5.04">
  </linearGradient>
  <linearGradient id="id63" gradientUnits="userSpaceOnUse" xlink:href="#id0" x1="44.19" y1="89" x2="34.9" y2="129.1">
  </linearGradient>
  <linearGradient id="id64" gradientUnits="userSpaceOnUse" xlink:href="#id0" x1="39.47" y1="25.17" x2="15.86" y2="-8.55">
  </linearGradient>
  <linearGradient id="id65" gradientUnits="userSpaceOnUse" xlink:href="#id0" x1="86.56" y1="38.76" x2="117.11" y2="10.51">
  </linearGradient>
  <linearGradient id="id66" gradientUnits="userSpaceOnUse" xlink:href="#id0" x1="25.8" y1="38.25" x2="-13.92" y2="25.85">
  </linearGradient>
  <linearGradient id="id67" gradientUnits="userSpaceOnUse" xlink:href="#id0" x1="73.72" y1="42.29" x2="84.99" y2="65.94">
  </linearGradient>
  <linearGradient id="id68" gradientUnits="userSpaceOnUse" xlink:href="#id0" x1="42.29" y1="29.14" x2="75.28" y2="28.74">
  </linearGradient>
  <linearGradient id="id69" gradientUnits="userSpaceOnUse" xlink:href="#id0" x1="65.84" y1="89.67" x2="81.87" y2="127.58">
  </linearGradient>
  <linearGradient id="id70" gradientUnits="userSpaceOnUse" xlink:href="#id0" x1="70.56" y1="24.1" x2="78.72" y2="-16.69">
  </linearGradient>
  <linearGradient id="id71" gradientUnits="userSpaceOnUse" xlink:href="#id0" x1="42.25" y1="25.95" x2="75.24" y2="25.55">
  </linearGradient>
  <linearGradient id="id72" gradientUnits="userSpaceOnUse" xlink:href="#id0" x1="22.58" y1="66.6" x2="-13.19" y2="87.85">
  </linearGradient>
  <linearGradient id="id73" gradientUnits="userSpaceOnUse" xlink:href="#id0" x1="25.51" y1="73.31" x2="-5.04" y2="101.55">
  </linearGradient>
  <linearGradient id="id74" gradientUnits="userSpaceOnUse" xlink:href="#id0" x1="45.47" y1="22.58" x2="24.22" y2="-13.19">
  </linearGradient>
  <linearGradient id="id75" gradientUnits="userSpaceOnUse" xlink:href="#id0" x1="64.38" y1="22.01" x2="69.39" y2="-18.84">
  </linearGradient>
  <linearGradient id="id76" gradientUnits="userSpaceOnUse" xlink:href="#id0" x1="67.16" y1="22.76" x2="70.97" y2="-18.67">
  </linearGradient>
  <linearGradient id="id77" gradientUnits="userSpaceOnUse" xlink:href="#id0" x1="83.6" y1="57.41" x2="118.78" y2="65.28">
  </linearGradient>
  <linearGradient id="id78" gradientUnits="userSpaceOnUse" xlink:href="#id0" x1="69.29" y1="88.46" x2="89.22" y2="124.47">
  </linearGradient>
  <linearGradient id="id79" gradientUnits="userSpaceOnUse" xlink:href="#id0" x1="73.31" y1="86.56" x2="101.55" y2="117.11">
  </linearGradient>
  <linearGradient id="id80" gradientUnits="userSpaceOnUse" xlink:href="#id0" x1="96.11" y1="16.6" x2="17.69" y2="93.4">
  </linearGradient>
  <linearGradient id="id81" gradientUnits="userSpaceOnUse" xlink:href="#id0" x1="76.41" y1="84.58" x2="107.68" y2="112.02">
  </linearGradient>
  <linearGradient id="id82" gradientUnits="userSpaceOnUse" xlink:href="#id0" x1="58.64" y1="90.96" x2="66.4" y2="131.38">
  </linearGradient>
  <linearGradient id="id83" gradientUnits="userSpaceOnUse" xlink:href="#id0" x1="44.91" y1="89.31" x2="41.1" y2="130.73">
  </linearGradient>
  <linearGradient id="id84" gradientUnits="userSpaceOnUse" xlink:href="#id0" x1="89.67" y1="46.23" x2="127.58" y2="30.2">
  </linearGradient>
  <linearGradient id="id85" gradientUnits="userSpaceOnUse" xlink:href="#id0" x1="21.19" y1="52.07" x2="-20.13" y2="56.96">
  </linearGradient>
  <linearGradient id="id86" gradientUnits="userSpaceOnUse" xlink:href="#id0" x1="36.85" y1="84.44" x2="95.52" y2="88.7">
  </linearGradient>
  <linearGradient id="id87" gradientUnits="userSpaceOnUse" xlink:href="#id0" x1="49.02" y1="21.66" x2="31.65" y2="-16.14">
  </linearGradient>
  <linearGradient id="id88" gradientUnits="userSpaceOnUse" xlink:href="#id0" x1="22.76" y1="44.91" x2="-18.67" y2="41.1">
  </linearGradient>
  <linearGradient id="id89" gradientUnits="userSpaceOnUse" xlink:href="#id0" x1="52.64" y1="21.12" x2="39.35" y2="-18.3">
  </linearGradient>
  <linearGradient id="id90" gradientUnits="userSpaceOnUse" xlink:href="#id0" x1="81.33" y1="80.25" x2="114.17" y2="105.07">
  </linearGradient>
  <linearGradient id="id91" gradientUnits="userSpaceOnUse" xlink:href="#id0" x1="38.25" y1="86.27" x2="25.85" y2="125.98">
  </linearGradient>
  <linearGradient id="id92" gradientUnits="userSpaceOnUse" xlink:href="#id0" x1="12.08" y1="56.06" x2="98.32" y2="56.06">
  </linearGradient>
  <linearGradient id="id93" gradientUnits="userSpaceOnUse" xlink:href="#id0" x1="70.03" y1="88.2" x2="94.92" y2="121.54">
  </linearGradient>
  <linearGradient id="id94" gradientUnits="userSpaceOnUse" xlink:href="#id0" x1="55.75" y1="91.1" x2="64.87" y2="131.69">
  </linearGradient>
  <linearGradient id="id95" gradientUnits="userSpaceOnUse" xlink:href="#id0" x1="76.87" y1="27.82" x2="93.36" y2="-10.37">
  </linearGradient>
  <linearGradient id="id96" gradientUnits="userSpaceOnUse" xlink:href="#id0" x1="84.58" y1="35.66" x2="112.02" y2="4.39">
  </linearGradient>
  <linearGradient id="id97" gradientUnits="userSpaceOnUse" xlink:href="#id0" x1="86.14" y1="54.72" x2="102.18" y2="60.1">
  </linearGradient>
  <linearGradient id="id98" gradientUnits="userSpaceOnUse" xlink:href="#id0" x1="21.11" y1="58.64" x2="-19.31" y2="66.4">
  </linearGradient>
  <linearGradient id="id99" gradientUnits="userSpaceOnUse" xlink:href="#id0" x1="75.73" y1="84.99" x2="102.73" y2="116.06">
  </linearGradient>
  <linearGradient id="id100" gradientUnits="userSpaceOnUse" xlink:href="#id0" x1="57.11" y1="21.03" x2="53.56" y2="-19.98">
  </linearGradient>
  <linearGradient id="id101" gradientUnits="userSpaceOnUse" xlink:href="#id0" x1="84.49" y1="59.63" x2="100.53" y2="65.01">
  </linearGradient>
  <linearGradient id="id102" gradientUnits="userSpaceOnUse" xlink:href="#id0" x1="60" y1="21.19" x2="55.11" y2="-20.13">
  </linearGradient>
  <linearGradient id="id103" gradientUnits="userSpaceOnUse" xlink:href="#id0" x1="83.21" y1="59.16" x2="118.39" y2="67.03">
  </linearGradient>
  <linearGradient id="id104" gradientUnits="userSpaceOnUse" xlink:href="#id0" x1="21.79" y1="48.44" x2="-19.81" y2="49">
  </linearGradient>
  <linearGradient id="id105" gradientUnits="userSpaceOnUse" xlink:href="#id0" x1="81.9" y1="79.71" x2="118.17" y2="100.09">
  </linearGradient>
  <linearGradient id="id106" gradientUnits="userSpaceOnUse" xlink:href="#id0" x1="90.5" y1="49.79" x2="129.89" y2="37.84">
  </linearGradient>
  <linearGradient id="id107" gradientUnits="userSpaceOnUse" xlink:href="#id0" x1="46.23" y1="22.4" x2="30.2" y2="-15.51">
  </linearGradient>
  <linearGradient id="id108" gradientUnits="userSpaceOnUse" xlink:href="#id0" x1="47.69" y1="90.06" x2="42.67" y2="130.91">
  </linearGradient>
  <linearGradient id="id109" gradientUnits="userSpaceOnUse" xlink:href="#id0" x1="48.44" y1="90.28" x2="49" y2="131.88">
  </linearGradient>
  <linearGradient id="id110" gradientUnits="userSpaceOnUse" xlink:href="#id0" x1="60.78" y1="21.33" x2="61.49" y2="-19.82">
  </linearGradient>
  <linearGradient id="id111" gradientUnits="userSpaceOnUse" xlink:href="#id0" x1="25.17" y1="72.6" x2="-8.55" y2="96.2">
  </linearGradient>
  <linearGradient id="id112" gradientUnits="userSpaceOnUse" xlink:href="#id0" x1="86.9" y1="39.47" x2="120.62" y2="15.86">
  </linearGradient>
  <linearGradient id="id113" gradientUnits="userSpaceOnUse" xlink:href="#id0" x1="52.07" y1="90.88" x2="56.96" y2="132.19">
  </linearGradient>
  <linearGradient id="id114" gradientUnits="userSpaceOnUse" xlink:href="#id0" x1="21.05" y1="21.05" x2="103.51" y2="103.51">
  </linearGradient>
  <linearGradient id="id115" gradientUnits="userSpaceOnUse" xlink:href="#id0" x1="42.78" y1="23.6" x2="22.84" y2="-12.41">
  </linearGradient>
  <linearGradient id="id116" gradientUnits="userSpaceOnUse" xlink:href="#id0" x1="82.29" y1="32.78" x2="106.33" y2="-1.17">
  </linearGradient>
  <linearGradient id="id117" gradientUnits="userSpaceOnUse" xlink:href="#id0" x1="88.2" y1="42.04" x2="121.54" y2="17.15">
  </linearGradient>
  <linearGradient id="id118" gradientUnits="userSpaceOnUse" xlink:href="#id0" x1="40.07" y1="87.26" x2="80.41" y2="88.34">
  </linearGradient>
  <linearGradient id="id119" gradientUnits="userSpaceOnUse" xlink:href="#id0" x1="75.61" y1="56.33" x2="146.57" y2="54.81">
  </linearGradient>
  <linearGradient id="id120" gradientUnits="userSpaceOnUse" xlink:href="#id0" x1="75.53" y1="52.77" x2="146.49" y2="51.25">
  </linearGradient>
  <linearGradient id="id121" gradientUnits="userSpaceOnUse" xlink:href="#id0" x1="21.1" y1="61.4" x2="81.73" y2="54.36">
  </linearGradient>
  <linearGradient id="id122" gradientUnits="userSpaceOnUse" xlink:href="#id0" x1="89.49" y1="45.47" x2="125.25" y2="24.22">
  </linearGradient>
  <linearGradient id="id123" gradientUnits="userSpaceOnUse" xlink:href="#id0" x1="91.1" y1="56.31" x2="131.69" y2="47.2">
  </linearGradient>
  <linearGradient id="id124" gradientUnits="userSpaceOnUse" xlink:href="#id0" x1="90.88" y1="60" x2="132.19" y2="55.11">
  </linearGradient>
  <linearGradient id="id125" gradientUnits="userSpaceOnUse" xlink:href="#id0" x1="90.28" y1="63.63" x2="131.88" y2="63.06">
  </linearGradient>
  <linearGradient id="id126" gradientUnits="userSpaceOnUse" xlink:href="#id0" x1="90.74" y1="60.78" x2="131.89" y2="61.49">
  </linearGradient>
  <linearGradient id="id127" gradientUnits="userSpaceOnUse" xlink:href="#id0" x1="83.27" y1="58.91" x2="118.44" y2="66.77">
  </linearGradient>
  <linearGradient id="id128" gradientUnits="userSpaceOnUse" xlink:href="#id0" x1="40.11" y1="85.83" x2="80.44" y2="86.92">
  </linearGradient>
  <linearGradient id="id129" gradientUnits="userSpaceOnUse" xlink:href="#id0" x1="48.03" y1="57.87" x2="79.85" y2="41.53">
  </linearGradient>
  <linearGradient id="id130" gradientUnits="userSpaceOnUse" xlink:href="#id0" x1="48.03" y1="47.21" x2="79.85" y2="63.56">
  </linearGradient>
  <linearGradient id="id131" gradientUnits="userSpaceOnUse" xlink:href="#id0" x1="90.96" y1="53.43" x2="131.38" y2="45.66">
  </linearGradient>
  <linearGradient id="id132" gradientUnits="userSpaceOnUse" xlink:href="#id0" x1="42.29" y1="29.16" x2="75.28" y2="28.76">
  </linearGradient>
  <linearGradient id="id133" gradientUnits="userSpaceOnUse" xlink:href="#id0" x1="40.14" y1="84.81" x2="80.47" y2="85.89">
  </linearGradient>
  <linearGradient id="id134" gradientUnits="userSpaceOnUse" xlink:href="#id0" x1="90.06" y1="64.38" x2="130.91" y2="69.39">
  </linearGradient>
  <linearGradient id="id135" gradientUnits="userSpaceOnUse" xlink:href="#id0" x1="49.2" y1="55.93" x2="81.02" y2="39.58">
  </linearGradient>
  <linearGradient id="id136" gradientUnits="userSpaceOnUse" xlink:href="#id0" x1="49.2" y1="49.07" x2="81.02" y2="65.41">
  </linearGradient>
  <linearGradient id="id137" gradientUnits="userSpaceOnUse" xlink:href="#id0" x1="20.69" y1="57.88" x2="81.33" y2="50.85">
  </linearGradient>
  <linearGradient id="id138" gradientUnits="userSpaceOnUse" xlink:href="#id0" x1="59.43" y1="90.94" x2="72.72" y2="130.36">
  </linearGradient>
  <linearGradient id="id139" gradientUnits="userSpaceOnUse" xlink:href="#id0" x1="86.27" y1="73.81" x2="125.98" y2="86.21">
  </linearGradient>
  <linearGradient id="id140" gradientUnits="userSpaceOnUse" xlink:href="#id0" x1="27.48" y1="76.41" x2="0.05" y2="107.68">
  </linearGradient>
  <linearGradient id="id141" gradientUnits="userSpaceOnUse" xlink:href="#id0" x1="87.96" y1="70.56" x2="128.76" y2="78.72">
  </linearGradient>
  <linearGradient id="id142" gradientUnits="userSpaceOnUse" xlink:href="#id0" x1="30.16" y1="32.36" x2="-6.11" y2="11.98">
  </linearGradient>
  <linearGradient id="id143" gradientUnits="userSpaceOnUse" xlink:href="#id0" x1="66.6" y1="89.49" x2="87.85" y2="125.25">
  </linearGradient>
  <linearGradient id="id144" gradientUnits="userSpaceOnUse" xlink:href="#id0" x1="85.82" y1="74.46" x2="123.09" y2="91.93">
  </linearGradient>
  <linearGradient id="id145" gradientUnits="userSpaceOnUse" xlink:href="#id0" x1="88.46" y1="42.78" x2="124.47" y2="22.84">
  </linearGradient>
  <linearGradient id="id146" gradientUnits="userSpaceOnUse" xlink:href="#id0" x1="21.33" y1="51.29" x2="-19.82" y2="50.58">
  </linearGradient>
  <linearGradient id="id147" gradientUnits="userSpaceOnUse" xlink:href="#id0" x1="38.95" y1="29.82" x2="58.11" y2="22.04">
  </linearGradient>
  <linearGradient id="id148" gradientUnits="userSpaceOnUse" xlink:href="#id0" x1="72.6" y1="86.9" x2="96.2" y2="120.62">
  </linearGradient>
  <linearGradient id="id149" gradientUnits="userSpaceOnUse" xlink:href="#id0" x1="34.6" y1="83.73" x2="13.33" y2="118.97">
  </linearGradient>
  <linearGradient id="id150" gradientUnits="userSpaceOnUse" xlink:href="#id0" x1="28.34" y1="34.6" x2="-6.9" y2="13.33">
  </linearGradient>
  <linearGradient id="id151" gradientUnits="userSpaceOnUse" xlink:href="#id0" x1="31.82" y1="81.33" x2="7" y2="114.17">
  </linearGradient>
  <linearGradient id="id152" gradientUnits="userSpaceOnUse" xlink:href="#id0" x1="32.78" y1="29.78" x2="-1.17" y2="5.74">
  </linearGradient>
  <linearGradient id="id153" gradientUnits="userSpaceOnUse" xlink:href="#id0" x1="40.2" y1="82.64" x2="80.53" y2="83.72">
  </linearGradient>
  <linearGradient id="id154" gradientUnits="userSpaceOnUse" xlink:href="#id0" x1="29.3" y1="78.65" x2="1.21" y2="108.74">
  </linearGradient>
  <linearGradient id="id155" gradientUnits="userSpaceOnUse" xlink:href="#id0" x1="42.04" y1="23.86" x2="17.15" y2="-9.47">
  </linearGradient>
  <linearGradient id="id156" gradientUnits="userSpaceOnUse" xlink:href="#id0" x1="89.31" y1="67.16" x2="130.73" y2="70.97">
  </linearGradient>
  <linearGradient id="id157" gradientUnits="userSpaceOnUse" xlink:href="#id0" x1="64.83" y1="59.03" x2="105.49" y2="52.07">
  </linearGradient>
  <linearGradient id="id158" gradientUnits="userSpaceOnUse" xlink:href="#id0" x1="46.8" y1="59.83" x2="78.63" y2="43.49">
  </linearGradient>
  <linearGradient id="id159" gradientUnits="userSpaceOnUse" xlink:href="#id0" x1="46.8" y1="45.37" x2="78.63" y2="61.71">
  </linearGradient>
  <linearGradient id="id160" gradientUnits="userSpaceOnUse" xlink:href="#id0" x1="21.66" y1="63.05" x2="-16.14" y2="80.41">
  </linearGradient>
  <linearGradient id="id161" gradientUnits="userSpaceOnUse" xlink:href="#id0" x1="82.77" y1="33.41" x2="110.86" y2="3.33">
  </linearGradient>
  <linearGradient id="id162" gradientUnits="userSpaceOnUse" xlink:href="#id0" x1="33.41" y1="29.3" x2="3.33" y2="1.2">
  </linearGradient>
  <linearGradient id="id163" gradientUnits="userSpaceOnUse" xlink:href="#id0" x1="30.74" y1="31.82" x2="-2.1" y2="7">
  </linearGradient>
  <linearGradient id="id164" gradientUnits="userSpaceOnUse" xlink:href="#id0" x1="26.24" y1="37.61" x2="-11.03" y2="20.14">
  </linearGradient>
  <linearGradient id="id165" gradientUnits="userSpaceOnUse" xlink:href="#id0" x1="90.94" y1="52.64" x2="130.36" y2="39.35">
  </linearGradient>
  <linearGradient id="id166" gradientUnits="userSpaceOnUse" xlink:href="#id0" x1="29.78" y1="79.28" x2="5.74" y2="113.24">
  </linearGradient>
  <linearGradient id="id167" gradientUnits="userSpaceOnUse" xlink:href="#id0" x1="27.07" y1="75.73" x2="-4" y2="102.73">
  </linearGradient>
  <linearGradient id="id168" gradientUnits="userSpaceOnUse" xlink:href="#id0" x1="82.99" y1="60.16" x2="118.16" y2="68.02">
  </linearGradient>
  <linearGradient id="id169" gradientUnits="userSpaceOnUse" xlink:href="#id0" x1="22.4" y1="65.83" x2="-15.51" y2="81.87">
  </linearGradient>
  <linearGradient id="id170" gradientUnits="userSpaceOnUse" xlink:href="#id0" x1="83.73" y1="77.47" x2="118.97" y2="98.73">
  </linearGradient>
  <linearGradient id="id171" gradientUnits="userSpaceOnUse" xlink:href="#id0" x1="36.33" y1="27.07" x2="9.34" y2="-4">
  </linearGradient>
  <linearGradient id="id172" gradientUnits="userSpaceOnUse" xlink:href="#id0" x1="83.44" y1="58.17" x2="118.61" y2="66.03">
  </linearGradient>
  <linearGradient id="id173" gradientUnits="userSpaceOnUse" xlink:href="#id0" x1="79.71" y1="30.16" x2="100.09" y2="-6.11">
  </linearGradient>
  <linearGradient id="id174" gradientUnits="userSpaceOnUse" xlink:href="#id0" x1="84.24" y1="76.87" x2="122.44" y2="93.36">
  </linearGradient>
  <linearGradient id="id175" gradientUnits="userSpaceOnUse" xlink:href="#id0" x1="39.81" y1="31.93" x2="58.96" y2="24.15">
  </linearGradient>
  <linearGradient id="id176" gradientUnits="userSpaceOnUse" xlink:href="#id0" x1="24.1" y1="41.5" x2="-16.69" y2="33.35">
  </linearGradient>
  <linearGradient id="id177" gradientUnits="userSpaceOnUse" xlink:href="#id0" x1="23.86" y1="70.03" x2="-9.47" y2="94.92">
  </linearGradient>
  <linearGradient id="id178" gradientUnits="userSpaceOnUse" xlink:href="#id0" x1="27.82" y1="35.19" x2="-10.37" y2="18.71">
  </linearGradient>
  <linearGradient id="id179" gradientUnits="userSpaceOnUse" xlink:href="#id0" x1="23.6" y1="69.29" x2="-12.41" y2="89.22">
  </linearGradient>
  <linearGradient id="id180" gradientUnits="userSpaceOnUse" xlink:href="#id0" x1="85.59" y1="56.34" x2="101.63" y2="61.72">
  </linearGradient>
  <linearGradient id="id181" gradientUnits="userSpaceOnUse" xlink:href="#id0" x1="84.99" y1="36.33" x2="116.06" y2="9.34">
  </linearGradient>
  <linearGradient id="id182" gradientUnits="userSpaceOnUse" xlink:href="#id0" x1="21.56" y1="62.27" x2="-17.82" y2="74.23">
  </linearGradient>
  <linearGradient id="id183" gradientUnits="userSpaceOnUse" xlink:href="#id0" x1="22.01" y1="47.69" x2="-18.84" y2="42.67">
  </linearGradient>
  <linearGradient id="id184" gradientUnits="userSpaceOnUse" xlink:href="#id0" x1="87.59" y1="71.25" x2="126.48" y2="84.71">
  </linearGradient>
  <linearGradient id="id185" gradientUnits="userSpaceOnUse" xlink:href="#id0" x1="35.66" y1="27.48" x2="4.39" y2="0.05">
  </linearGradient>
  <linearGradient id="id186" gradientUnits="userSpaceOnUse" xlink:href="#id0" x1="40.2" y1="82.58" x2="80.53" y2="83.67">
  </linearGradient>
  <linearGradient id="id187" gradientUnits="userSpaceOnUse" xlink:href="#id0" x1="74.46" y1="26.24" x2="91.93" y2="-11.03">
  </linearGradient>
  <linearGradient id="id188" gradientUnits="userSpaceOnUse" xlink:href="#id0" x1="85.04" y1="57.98" x2="101.08" y2="63.36">
  </linearGradient>
  <linearGradient id="id189" gradientUnits="userSpaceOnUse" xlink:href="#id0" x1="90.4" y1="49.02" x2="128.21" y2="31.65">
  </linearGradient>
  <linearGradient id="id190" gradientUnits="userSpaceOnUse" xlink:href="#id0" x1="63.96" y1="54.09" x2="104.62" y2="47.13">
  </linearGradient>
  <linearGradient id="id191" gradientUnits="userSpaceOnUse" xlink:href="#id0" x1="63.96" y1="56.39" x2="104.62" y2="63.35">
  </linearGradient>
  <linearGradient id="id192" gradientUnits="userSpaceOnUse" xlink:href="#id0" x1="83.16" y1="59.41" x2="118.33" y2="67.28">
  </linearGradient>
  <linearGradient id="id193" gradientUnits="userSpaceOnUse" xlink:href="#id0" x1="42.23" y1="24.48" x2="75.22" y2="24.08">
  </linearGradient>
  <linearGradient id="id194" gradientUnits="userSpaceOnUse" xlink:href="#id0" x1="91.04" y1="57.11" x2="132.04" y2="53.56">
  </linearGradient>
  <linearGradient id="id195" gradientUnits="userSpaceOnUse" xlink:href="#id0" x1="64.36" y1="54.27" x2="105.01" y2="61.23">
  </linearGradient>
  <linearGradient id="id196" gradientUnits="userSpaceOnUse" xlink:href="#id0" x1="64.36" y1="56.38" x2="105.01" y2="49.43">
  </linearGradient>
  <linearGradient id="id197" gradientUnits="userSpaceOnUse" xlink:href="#id0" x1="22.81" y1="56.03" x2="89.26" y2="56.03">
  </linearGradient>
 </defs>
 <g id="Layer_x0020_1">
  <metadata id="CorelCorpID_0Corel-Layer"/>
  <g id="_2216057412240">
   <path class="fil0" d="M-0 56.03c0,30.95 25.09,56.03 56.03,56.03 30.95,0 56.03,-25.09 56.03,-56.03 0,-30.95 -25.09,-56.03 -56.03,-56.03 -30.95,0 -56.03,25.09 -56.03,56.03z"/>
   <path class="fil1" d="M0.75 55.36c-0.37,30.53 24.08,55.58 54.61,55.95 30.53,0.37 55.58,-24.08 55.95,-54.61 0.37,-30.53 -24.08,-55.58 -54.62,-55.95 -0.23,-0 -0.45,-0 -0.68,-0 -30.22,0 -54.9,24.32 -55.27,54.62z"/>
   <path class="fil2" d="M4.33 55.41c-0.35,28.55 22.52,51.98 51.08,52.33 28.55,0.35 51.98,-22.52 52.33,-51.08 0.35,-28.55 -22.52,-51.98 -51.08,-52.33 -0.21,-0 -0.42,-0 -0.64,-0 -28.26,0 -51.35,22.74 -51.69,51.08z"/>
   <path class="fil3" d="M107.06 56.03c0,28.18 -22.84,51.03 -51.02,51.03 -28.18,0 -51.03,-22.85 -51.03,-51.03 0,-28.18 22.84,-51.03 51.03,-51.03 28.18,0 51.02,22.85 51.02,51.03z"/>
   <path class="fil4" d="M85.83 55.37l13.25 0 0 -0.46 -13.08 0 -1.61 -1.47c-1.19,-13.2 -11.16,-23.72 -24.28,-25.6l-0.07 0.45c12.93,1.85 22.76,12.25 23.9,25.27l0.01 0.09 1.87 1.71z"/>
   <path class="fil5" d="M28.87 47.45l-0.03 0.11 1.81 2.47 13.75 0 0 -0.46 -13.51 0 -1.54 -2.1c2.69,-8.39 9.26,-15.1 17.61,-17.96l-0.15 -0.43c-8.52,2.92 -15.22,9.79 -17.93,18.36z"/>
   <path class="fil6" d="M16.55 56.03c0,21.77 17.71,39.48 39.48,39.48 16.55,0 31.47,-10.45 37.12,-26l0.11 -0.31 -2.17 0 -0.06 0.15c-5.49,14.43 -19.56,24.13 -35,24.13 -20.65,0 -37.45,-16.8 -37.45,-37.45 0,-20.65 16.8,-37.45 37.45,-37.45 15.7,0 29.85,9.91 35.21,24.67l0.05 0.15 2.14 0 -0.1 -0.3c-5.5,-15.88 -20.49,-26.55 -37.3,-26.55 -21.77,0 -39.48,17.71 -39.48,39.48zm0.46 0c0,-21.52 17.51,-39.02 39.02,-39.02 16.5,0 31.24,10.41 36.76,25.93l-1.18 0c-5.46,-14.85 -19.74,-24.82 -35.59,-24.82 -20.9,0 -37.91,17.01 -37.91,37.91 0,20.9 17.01,37.91 37.91,37.91 15.58,0 29.77,-9.75 35.37,-24.28l1.2 0c-5.67,15.2 -20.32,25.39 -36.57,25.39 -21.52,0 -39.02,-17.51 -39.02,-39.02z"/>
   <path class="fil7" d="M79.93 55.38l3 0 -0.01 -0.24c-0.48,-14.59 -12.29,-26.01 -26.89,-26.01 -10.81,0 -20.53,6.42 -24.76,16.37l-0.05 0.11 1.75 2.64 11.43 -0 0 -0.46 -11.18 0 -1.48 -2.23c4.19,-9.71 13.71,-15.98 24.29,-15.98 14.28,0 25.84,11.11 26.43,25.34l-2.34 0 -3.11 -3.11 0 -6.17 -0.46 0 0 6.36 3.38 3.38z"/>
   <path class="fil8" d="M76 56.69l0 0.46 6.46 0c-0.59,14.23 -12.15,25.33 -26.43,25.33 -10.58,0 -20.1,-6.27 -24.29,-15.97l1.47 -2.23 11.18 0 0 -0.46 -11.43 0 -1.75 2.64 0.05 0.11c4.24,9.94 13.96,16.36 24.76,16.36 14.6,0 26.42,-11.43 26.89,-26.01l0.01 -0.24 -6.94 0z"/>
   <path class="fil9" d="M56.03 80.91c-8.88,0 -17.13,-4.78 -21.57,-12.47l1.38 -2.38 8.55 0 0 -0.46 -8.81 0 -1.65 2.84 0.06 0.11c4.5,7.91 12.94,12.82 22.03,12.82 13.05,0 23.89,-9.78 25.2,-22.74l-0.45 -0.05c-1.29,12.73 -11.93,22.33 -24.75,22.33z"/>
   <path class="fil10" d="M34 43.52l-0.06 0.11 1.65 2.83 8.81 0 0 -0.46 -8.54 0 -1.39 -2.38c4.44,-7.7 12.69,-12.47 21.57,-12.47 12.82,0 23.46,9.6 24.75,22.33l0.45 -0.05c-1.32,-12.97 -12.15,-22.74 -25.2,-22.74 -9.09,0 -17.53,4.91 -22.03,12.82z"/>
   <polygon class="fil11" points="96.99,64.27 98.35,64.27 98.35,63.82 96.99,63.82 "/>
   <path class="fil12" d="M21.27 56.03c0,19.17 15.59,34.76 34.76,34.76 15.53,0 29.28,-10.42 33.47,-25.34l0.56 -0.46 -0.29 -0.35 -0.68 0.55 -0.02 0.07c-4.11,14.76 -17.7,25.07 -33.05,25.07 -18.92,0 -34.3,-15.39 -34.3,-34.3 0,-18.92 15.39,-34.3 34.3,-34.3 15.35,0 28.94,10.31 33.05,25.07l0.02 0.07 1.8 1.37 7.44 0 0 -0.46 -7.29 0 -1.56 -1.19c-4.19,-14.92 -17.94,-25.34 -33.47,-25.34 -19.17,0 -34.76,15.59 -34.76,34.76z"/>
   <path class="fil13" d="M30.65 62.04l-1.81 2.47 0.03 0.11c2.71,8.58 9.41,15.44 17.93,18.36l0.15 -0.43c-8.35,-2.86 -14.92,-9.57 -17.61,-17.96l1.54 -2.1 13.51 0 0 -0.46 -13.75 0z"/>
   <path class="fil14" d="M85.83 56.7l-1.87 1.71 -0.01 0.09c-1.14,13.02 -10.96,23.41 -23.9,25.26l0.07 0.45c13.11,-1.88 23.09,-12.4 24.28,-25.59l1.61 -1.47 13.08 -0.01 0 -0.46 -13.25 0.01z"/>
   <path class="fil15" d="M19.7 56.03c0,20.04 16.3,36.34 36.34,36.34 15.85,0 29.74,-10.12 34.59,-25.19l1.54 -1.13 5.81 0 0 -0.46 -5.95 0 -1.78 1.3 -0.02 0.07c-4.77,14.92 -18.51,24.94 -34.18,24.94 -19.78,0 -35.88,-16.1 -35.88,-35.88 0,-19.78 16.1,-35.88 35.88,-35.88 15.67,0 29.41,10.02 34.18,24.94l0.02 0.07 1.78 1.3 5.95 -0 0 -0.46 -5.81 0 -1.54 -1.13c-4.85,-15.07 -18.74,-25.19 -34.59,-25.19 -20.04,0 -36.34,16.3 -36.34,36.34z"/>
   <path class="fil16" d="M46.81 27.43c-10.06,3.24 -17.76,11.66 -20.08,21.96l-0.03 0.11 1.85 2.31 15.85 0 0 -0.46 -15.63 0 -1.57 -1.97c2.3,-10 9.73,-18.17 19.46,-21.43l-0 6.92 0.46 0 0 -7.55 -0.3 0.1z"/>
   <polygon class="fil17" points="53.65,23.23 50.7,23.23 50.7,34.88 51.15,34.88 51.15,23.69 53.65,23.69 "/>
   <path class="fil18" d="M49.8 34.88l0 -11.46 -0.27 0.05c-14.42,2.86 -25.34,15.09 -26.57,29.75l-0.01 0.1 1.88 2.05 19.56 0 0 -0.46 -19.36 0 -1.61 -1.75c1.24,-14.31 11.87,-26.27 25.92,-29.18l0 10.9 0.46 0z"/>
   <path class="fil19" d="M26.62 53.59l17.78 0 0 -0.46 -17.57 0 -1.6 -1.85c1.88,-12.26 10.79,-22.18 22.77,-25.36l0 8.97 0.46 0 0 -9.56 -0.28 0.07c-12.34,3.16 -21.52,13.33 -23.41,25.92l-0.02 0.1 1.87 2.17z"/>
   <polygon class="fil20" points="56.26,23.07 55.8,23.07 55.8,34.88 56.26,34.88 "/>
   <path class="fil21" d="M99.01 53.59l0 -0.46 -11.64 -0 -1.6 -1.39c-1.89,-13.21 -12.43,-23.69 -25.66,-25.48l-0.26 -0.03 0 8.66 0.46 0 0 -8.13c12.94,1.87 23.21,12.18 25.03,25.14l0.01 0.08 1.86 1.62 11.81 0z"/>
   <path class="fil22" d="M98.87 51.81l0 -0.46 -10.2 0 -1.59 -1.32c-2.66,-13.86 -14.3,-24.37 -28.33,-25.57l-0.25 -0.02 0 10.43 0.46 0 0 -9.93c13.75,1.28 25.12,11.64 27.69,25.26l0.02 0.08 1.84 1.53 10.36 -0z"/>
   <path class="fil23" d="M98.65 50.03l0 -0.46 -8.76 -0 -1.57 -1.25c-3.42,-14.4 -16.13,-24.87 -30.93,-25.46l-0.24 -0.01 0 12.02 0.46 0 -0 -11.55c14.52,0.69 26.96,11.01 30.29,25.17l0.02 0.08 1.82 1.45 8.91 0z"/>
   <path class="fil24" d="M89.8 58.93l0 -0.46 -2.59 0 -1.86 1.62 -0.01 0.08c-1.82,12.96 -12.09,23.26 -25.03,25.14l0 -8.3 -0.46 0 0 8.82 0.26 -0.03c13.23,-1.8 23.77,-12.27 25.66,-25.48l1.6 -1.39 2.42 0z"/>
   <polygon class="fil25" points="99.01,58.93 99.01,58.47 96.99,58.47 96.99,58.93 "/>
   <polygon class="fil26" points="55.8,89 56.26,89 56.26,77.02 55.8,77.02 "/>
   <polygon class="fil27" points="96.99,62.49 98.65,62.49 98.65,62.04 96.99,62.04 "/>
   <path class="fil28" d="M87.92 63.48l-0.02 0.08c-3.34,14.17 -15.77,24.5 -30.29,25.19l0 -11.73 -0.46 0 0 12.21 0.24 -0.01c14.8,-0.59 27.51,-11.07 30.94,-25.48l1.61 -1.28 -0.28 -0.36 -1.73 1.37z"/>
   <polygon class="fil29" points="98.87,60.71 98.87,60.25 96.99,60.25 96.99,60.71 "/>
   <path class="fil30" d="M89.8 60.71l0 -0.46 -1.29 0 -1.84 1.53 -0.01 0.08c-2.57,13.58 -13.94,23.91 -27.69,25.2l0 -10.05 -0.46 0 0 10.54 0.25 -0.02c14.04,-1.2 25.67,-11.69 28.33,-25.51l1.59 -1.32 1.12 0z"/>
   <polygon class="fil31" points="50.7,88.83 53.65,88.83 53.65,88.37 51.15,88.37 51.15,77.02 50.7,77.02 "/>
   <path class="fil32" d="M28.54 60.26l-1.85 2.31 0.02 0.11c2.32,10.3 10.02,18.72 20.08,21.96l0.3 0.1 0 -7.71 -0.46 0 0 7.08c-9.73,-3.25 -17.16,-11.43 -19.46,-21.42l1.57 -1.97 15.63 0 0 -0.46 -15.85 0z"/>
   <path class="fil33" d="M44.39 58.48l-17.78 0 -1.87 2.17 0.02 0.1c1.88,12.59 11.07,22.76 23.41,25.92l0.28 0.07 0 -9.72 -0.46 0 0 9.13c-11.98,-3.19 -20.89,-13.1 -22.77,-25.36l1.6 -1.85 17.57 0 0 -0.46z"/>
   <path class="fil34" d="M24.83 56.7l-1.88 2.05 0.01 0.1c1.23,14.65 12.16,26.88 26.57,29.74l0.27 0.05 0 -11.62 -0.46 0 0 11.06c-14.05,-2.92 -24.67,-14.87 -25.92,-29.18l1.61 -1.75 19.36 -0 0 -0.46 -19.56 0.01z"/>
   <polygon class="fil35" points="50.93,24.59 53.65,24.59 53.65,24.13 50.93,24.13 "/>
   <polygon class="fil36" points="50.93,26.06 53.65,26.06 53.65,25.6 50.93,25.6 "/>
   <polygon class="fil37" points="53.65,27.03 53.65,26.58 50.93,26.58 50.93,27.03 "/>
   <polygon class="fil38" points="53.65,87.81 53.65,87.36 50.93,87.36 50.93,87.81 "/>
   <polygon class="fil39" points="53.65,86.39 53.65,85.93 50.93,85.93 50.93,86.39 "/>
   <polygon class="fil40" points="53.65,85.36 53.65,84.91 50.93,84.91 50.93,85.36 "/>
   <path class="fil41" d="M52.33 24.75l2.5 0c0.25,0 0.46,-0.21 0.46,-0.46l0 -0.83c0,-0.25 -0.21,-0.46 -0.46,-0.46l-2.5 0c-0.25,0 -0.46,0.21 -0.46,0.46l0 0.83c0,0.25 0.21,0.46 0.46,0.46z"/>
   <path class="fil42" d="M91.77 55.53l0 0.8c0,0.33 0.27,0.59 0.59,0.59l3.64 0c0.33,0 0.59,-0.26 0.59,-0.59l0 -0.8c0,-0.33 -0.27,-0.59 -0.59,-0.59l-3.64 0c-0.33,0 -0.59,0.27 -0.59,0.59z"/>
   <path class="fil43" d="M96 51.38l-3.64 0c-0.33,0 -0.59,0.27 -0.59,0.59l0 0.8c0,0.33 0.27,0.59 0.59,0.59l3.64 0c0.33,0 0.59,-0.27 0.59,-0.59l0 -0.8c0,-0.33 -0.27,-0.59 -0.59,-0.59z"/>
   <path class="fil44" d="M34.83 53.47l3.64 0c0.33,0 0.59,-0.26 0.59,-0.59l0 -0.8c0,-0.33 -0.27,-0.59 -0.59,-0.59l-3.64 0c-0.33,0 -0.59,0.27 -0.59,0.59l0 0.8c0,0.33 0.27,0.59 0.59,0.59z"/>
   <path class="fil45" d="M34.83 57.03l3.64 0c0.33,0 0.59,-0.27 0.59,-0.59l0 -0.8c0,-0.33 -0.27,-0.59 -0.59,-0.59l-3.64 0c-0.33,0 -0.59,0.27 -0.59,0.59l0 0.8c0,0.33 0.27,0.59 0.59,0.59z"/>
   <path class="fil46" d="M74.94 56.55l0 0.74c0,0.3 0.24,0.54 0.54,0.54l3.33 0c0.3,0 0.54,-0.24 0.54,-0.54l0 -0.74c0,-0.3 -0.24,-0.54 -0.54,-0.54l-3.33 0c-0.3,0 -0.54,0.24 -0.54,0.54z"/>
   <path class="fil47" d="M77.16 46.26l-0.8 0c-0.33,0 -0.59,0.27 -0.59,0.59l0 3.64c0,0.33 0.27,0.59 0.59,0.59l0.8 0c0.33,0 0.59,-0.27 0.59,-0.59l0 -3.64c0,-0.33 -0.26,-0.59 -0.59,-0.59z"/>
   <path class="fil48" d="M38.46 58.6l-3.64 0c-0.33,0 -0.59,0.26 -0.59,0.59l0 0.8c0,0.33 0.27,0.59 0.59,0.59l3.64 0c0.33,0 0.59,-0.27 0.59,-0.59l0 -0.8c0,-0.33 -0.27,-0.59 -0.59,-0.59z"/>
   <path class="fil49" d="M55.29 26.75l0 -0.83c0,-0.25 -0.21,-0.46 -0.46,-0.46l-2.5 0c-0.25,0 -0.46,0.21 -0.46,0.46l0 0.83c0,0.25 0.21,0.46 0.46,0.46l2.5 0c0.25,0 0.46,-0.21 0.46,-0.46z"/>
   <path class="fil50" d="M52.33 88.97l2.5 0c0.25,0 0.46,-0.21 0.46,-0.46l0 -0.83c0,-0.25 -0.21,-0.46 -0.46,-0.46l-2.5 0c-0.25,0 -0.46,0.21 -0.46,0.46l0 0.83c0,0.25 0.21,0.46 0.46,0.46z"/>
   <path class="fil51" d="M52.33 86.53l2.5 0c0.25,0 0.46,-0.21 0.46,-0.46l0 -0.83c0,-0.25 -0.21,-0.46 -0.46,-0.46l-2.5 0c-0.25,0 -0.46,0.21 -0.46,0.46l0 0.83c0,0.25 0.21,0.46 0.46,0.46z"/>
   <path class="fil52" d="M89.57 65.05l7.65 0 0 -7.23 -7.65 0 0 7.23zm0.46 -6.77l6.73 0 0 6.31 -6.73 0 0 -6.31z"/>
   <polygon class="fil53" points="89.64,59.82 89.96,60.14 91.89,58.21 91.57,57.89 "/>
   <polygon class="fil54" points="94.88,64.66 95.2,64.98 97.15,63.05 96.83,62.72 "/>
   <polygon class="fil55" points="92.87,64.66 93.19,64.98 97.15,61.03 96.83,60.7 "/>
   <polygon class="fil56" points="99.06,59.02 98.6,59.02 98.6,59.03 "/>
   <polygon class="fil57" points="90.85,64.66 91.17,64.98 97.15,59.01 96.83,58.69 "/>
   <polygon class="fil58" points="89.64,63.86 89.96,64.18 95.93,58.21 95.61,57.89 "/>
   <polygon class="fil59" points="89.64,61.85 89.96,62.17 93.91,58.21 93.58,57.89 "/>
   <g>
    <g>
     <g>
      <polygon class="fil60" points="55.21,48.02 55.67,48.02 55.67,51.06 61.42,51.06 61.42,51.52 55.21,51.52 "/>
      <path class="fil61" d="M56.99 50.61l2.49 0c0.22,0 0.41,0.18 0.41,0.4l0 0.55c0,0.22 -0.18,0.4 -0.41,0.4l-2.49 0c-0.22,0 -0.4,-0.18 -0.4,-0.4l0 -0.55c0,-0.22 0.18,-0.4 0.4,-0.4z"/>
     </g>
     <g>
      <polygon class="fil62" points="52.64,48.02 53.1,48.02 53.1,51.54 54.52,52.96 61.42,52.96 61.42,53.42 54.33,53.42 52.64,51.73 "/>
      <path class="fil63" d="M55.9 52.51l2.49 0c0.22,0 0.4,0.18 0.4,0.4l0 0.55c0,0.22 -0.18,0.41 -0.4,0.41l-2.49 0c-0.22,0 -0.4,-0.18 -0.4,-0.41l0 -0.55c0,-0.22 0.18,-0.4 0.4,-0.4z"/>
     </g>
     <g>
      <polygon class="fil64" points="61.42,55.32 52.62,55.32 50.65,53.35 50.65,48.02 51.1,48.02 51.1,53.16 52.81,54.86 61.42,54.86 "/>
      <path class="fil65" d="M57.27 55.77l-2.49 0c-0.22,0 -0.41,-0.18 -0.41,-0.4l0 -0.55c0,-0.22 0.18,-0.41 0.41,-0.41l2.49 0c0.22,0 0.4,0.18 0.4,0.41l0 0.55c0,0.22 -0.18,0.4 -0.4,0.4z"/>
     </g>
    </g>
    <g>
     <g>
      <polygon class="fil66" points="55.21,64.04 55.67,64.04 55.67,61 61.42,61 61.42,60.55 55.21,60.55 "/>
      <path class="fil67" d="M56.99 61.45l2.49 0c0.22,0 0.41,-0.18 0.41,-0.4l0 -0.55c0,-0.22 -0.18,-0.4 -0.41,-0.4l-2.49 0c-0.22,0 -0.4,0.18 -0.4,0.4l0 0.55c0,0.22 0.18,0.4 0.4,0.4z"/>
     </g>
     <g>
      <polygon class="fil68" points="52.64,64.04 53.1,64.04 53.1,60.53 54.52,59.11 61.42,59.1 61.42,58.65 54.33,58.65 52.64,60.34 "/>
      <path class="fil69" d="M55.9 59.55l2.49 0c0.22,0 0.4,-0.18 0.4,-0.41l0 -0.55c0,-0.22 -0.18,-0.4 -0.4,-0.4l-2.49 0c-0.22,0 -0.4,0.18 -0.4,0.4l0 0.55c0,0.22 0.18,0.41 0.4,0.41z"/>
     </g>
     <g>
      <polygon class="fil70" points="61.42,56.75 52.62,56.75 50.65,58.72 50.65,64.04 51.1,64.04 51.1,58.91 52.81,57.21 61.42,57.21 "/>
      <path class="fil71" d="M57.27 56.3l-2.49 0c-0.22,0 -0.41,0.18 -0.41,0.41l0 0.55c0,0.22 0.18,0.4 0.41,0.4l2.49 0c0.22,0 0.4,-0.18 0.4,-0.4l0 -0.55c0,-0.22 -0.18,-0.41 -0.4,-0.41z"/>
     </g>
    </g>
   </g>
   <path class="fil72" d="M12.82 56.03c0,23.83 19.38,43.21 43.21,43.21 23.83,0 43.21,-19.38 43.21,-43.21 0,-23.83 -19.38,-43.21 -43.21,-43.21 -23.83,0 -43.21,19.38 -43.21,43.21zm0.46 0c0,-23.57 19.18,-42.75 42.75,-42.75 23.57,0 42.75,19.18 42.75,42.75 0,23.57 -19.18,42.75 -42.75,42.75 -23.57,0 -42.75,-19.18 -42.75,-42.75z"/>
   <path class="fil73" d="M55.96 12.08c-1.58,0 -3.18,0.09 -4.75,0.26 -0.63,0.07 -1.08,0.63 -1.01,1.26 0.06,0.56 0.52,0.99 1.07,1.02 0.06,0 0.12,0 0.19,-0 1.49,-0.16 3,-0.25 4.5,-0.25 0.63,0 1.14,-0.51 1.14,-1.14 -0,-0.63 -0.52,-1.14 -1.14,-1.14 -0,0 -0,0 -0,0zm3.49 1.26c-0.07,0.63 0.39,1.19 1.02,1.26 1.49,0.16 2.99,0.4 4.46,0.72 0.06,0.01 0.12,0.02 0.18,0.02 0.55,0.03 1.06,-0.34 1.18,-0.9 0.13,-0.62 -0.26,-1.22 -0.87,-1.36 -1.54,-0.33 -3.12,-0.59 -4.7,-0.76 -0.04,-0 -0.08,-0.01 -0.12,-0.01 -0.59,0 -1.07,0.43 -1.14,1.02zm-12.94 -0.23c-1.55,0.34 -3.09,0.77 -4.59,1.28 -0.6,0.2 -0.92,0.85 -0.71,1.45 0.15,0.46 0.57,0.75 1.02,0.77 0.14,0.01 0.29,-0.01 0.43,-0.06 1.42,-0.48 2.88,-0.89 4.35,-1.21 0.61,-0.14 1,-0.75 0.87,-1.36 -0.12,-0.53 -0.59,-0.9 -1.11,-0.9 -0.08,0 -0.17,0.01 -0.25,0.03zm22.04 1.95c-0.2,0.6 0.12,1.25 0.72,1.45 1.42,0.47 2.83,1.03 4.2,1.66 0.13,0.06 0.27,0.1 0.41,0.1 0.45,0.03 0.9,-0.22 1.1,-0.66 0.26,-0.57 0.01,-1.25 -0.56,-1.51 -1.44,-0.66 -2.93,-1.25 -4.43,-1.75 -0.12,-0.04 -0.24,-0.06 -0.36,-0.06 -0.48,0 -0.92,0.3 -1.08,0.78zm-31.04 1.1c-1.43,0.67 -2.85,1.42 -4.2,2.24 -0.54,0.33 -0.71,1.03 -0.39,1.57 0.2,0.34 0.55,0.53 0.92,0.55 0.22,0.01 0.45,-0.04 0.65,-0.16 1.28,-0.78 2.62,-1.49 3.98,-2.12 0.57,-0.27 0.82,-0.95 0.55,-1.52 -0.19,-0.42 -0.61,-0.66 -1.04,-0.66 -0.16,0 -0.32,0.03 -0.48,0.11zm39.56 2.55c-0.32,0.54 -0.15,1.24 0.39,1.57 1.29,0.77 2.54,1.62 3.74,2.53 0.19,0.14 0.41,0.22 0.63,0.23 0.37,0.02 0.74,-0.14 0.97,-0.45 0.38,-0.5 0.28,-1.22 -0.22,-1.6 -1.26,-0.96 -2.59,-1.85 -3.94,-2.67 -0.18,-0.11 -0.39,-0.16 -0.59,-0.16 -0.39,0 -0.77,0.2 -0.98,0.55zm-47.69 2.37c-1.26,0.96 -2.48,2 -3.62,3.09 -0.46,0.43 -0.48,1.16 -0.04,1.61 0.21,0.22 0.48,0.34 0.77,0.35 0.3,0.02 0.61,-0.09 0.85,-0.31 1.09,-1.03 2.24,-2.02 3.44,-2.93 0.5,-0.38 0.6,-1.1 0.22,-1.6 -0.22,-0.29 -0.56,-0.45 -0.91,-0.45 -0.24,0 -0.49,0.08 -0.69,0.23zm55.22 3.03c-0.43,0.46 -0.41,1.18 0.05,1.61 1.09,1.03 2.14,2.13 3.11,3.27 0.21,0.25 0.51,0.38 0.81,0.4 0.28,0.02 0.57,-0.07 0.8,-0.27 0.48,-0.41 0.54,-1.13 0.13,-1.61 -1.03,-1.2 -2.13,-2.36 -3.28,-3.45 -0.22,-0.21 -0.5,-0.31 -0.78,-0.31 -0.3,0 -0.61,0.12 -0.83,0.36zm-62.11 3.51c-1.02,1.21 -1.99,2.48 -2.88,3.79 -0.35,0.52 -0.22,1.23 0.3,1.59 0.18,0.12 0.38,0.18 0.58,0.2 0.39,0.02 0.78,-0.15 1.01,-0.5 0.84,-1.24 1.76,-2.45 2.73,-3.59 0.41,-0.48 0.35,-1.2 -0.13,-1.61 -0.22,-0.18 -0.48,-0.27 -0.74,-0.27 -0.32,0 -0.65,0.14 -0.87,0.4zm68.31 3.37c-0.52,0.36 -0.65,1.07 -0.3,1.59 0.85,1.24 1.63,2.54 2.34,3.86 0.19,0.36 0.56,0.58 0.94,0.6 0.2,0.01 0.41,-0.03 0.6,-0.13 0.56,-0.3 0.77,-0.99 0.47,-1.55 -0.74,-1.39 -1.57,-2.76 -2.47,-4.07 -0.22,-0.32 -0.58,-0.5 -0.94,-0.5 -0.22,0 -0.45,0.06 -0.64,0.2zm-73.64 4.5c-0.74,1.4 -1.41,2.85 -2,4.32 -0.23,0.59 0.05,1.25 0.64,1.48 0.12,0.05 0.24,0.07 0.36,0.08 0.48,0.03 0.94,-0.25 1.13,-0.72 0.55,-1.39 1.19,-2.77 1.89,-4.1 0.3,-0.56 0.08,-1.25 -0.47,-1.54 -0.17,-0.09 -0.35,-0.13 -0.53,-0.13 -0.41,0 -0.8,0.22 -1.01,0.61zm78.22 3.55c-0.58,0.23 -0.87,0.9 -0.63,1.49 0.56,1.39 1.05,2.83 1.45,4.27 0.14,0.48 0.56,0.81 1.04,0.83 0.12,0.01 0.25,-0.01 0.37,-0.04 0.61,-0.17 0.96,-0.8 0.79,-1.41 -0.43,-1.52 -0.94,-3.04 -1.53,-4.51 -0.18,-0.45 -0.61,-0.72 -1.06,-0.72 -0.14,0 -0.29,0.03 -0.43,0.08zm-81.73 5.29c-0.42,1.53 -0.76,3.09 -1.01,4.65 -0.1,0.62 0.32,1.21 0.94,1.31 0.04,0.01 0.08,0.01 0.12,0.01 0.58,0.03 1.09,-0.38 1.19,-0.96 0.24,-1.48 0.56,-2.96 0.96,-4.41 0.17,-0.61 -0.19,-1.24 -0.8,-1.4 -0.1,-0.03 -0.2,-0.04 -0.31,-0.04 -0.5,0 -0.96,0.33 -1.1,0.84zm-1.52 9.38c-0.09,1.58 -0.09,3.18 -0,4.76 0.03,0.59 0.5,1.05 1.08,1.08 0.04,0 0.08,0 0.13,0 0.63,-0.03 1.11,-0.57 1.08,-1.2 -0.08,-1.49 -0.08,-3.01 0,-4.51 0.03,-0.63 -0.46,-1.13 -1.08,-1.2 -0.02,-0 -0.04,-0 -0.06,-0 -0.6,0 -1.11,0.47 -1.14,1.08zm1.45 8.18c-0.62,0.1 -1.04,0.69 -0.94,1.31 0.26,1.56 0.6,3.13 1.02,4.65 0.13,0.48 0.56,0.81 1.04,0.83 0.12,0.01 0.25,-0.01 0.37,-0.04 0.61,-0.17 0.96,-0.8 0.79,-1.41 -0.4,-1.44 -0.73,-2.92 -0.97,-4.41 -0.09,-0.56 -0.58,-0.96 -1.13,-0.96 -0.06,0 -0.12,0.01 -0.18,0.02zm82.63 5.37c-0.4,1.45 -0.89,2.88 -1.44,4.28 -0.23,0.59 0.05,1.25 0.64,1.48 0.12,0.05 0.24,0.07 0.36,0.08 0.48,0.03 0.94,-0.25 1.12,-0.72 0.59,-1.47 1.1,-2.99 1.52,-4.51 0.17,-0.61 -0.19,-1.24 -0.79,-1.41 -0.1,-0.03 -0.2,-0.04 -0.3,-0.04 -0.5,0 -0.96,0.33 -1.1,0.83zm-80.39 3.61c-0.58,0.23 -0.87,0.9 -0.64,1.48 0.59,1.47 1.26,2.92 2,4.32 0.19,0.37 0.56,0.58 0.95,0.6 0.2,0.01 0.41,-0.03 0.6,-0.13 0.56,-0.3 0.77,-0.99 0.47,-1.54 -0.7,-1.32 -1.34,-2.7 -1.9,-4.09 -0.18,-0.45 -0.61,-0.72 -1.06,-0.72 -0.14,0 -0.28,0.03 -0.42,0.08zm77.05 4.76c-0.7,1.32 -1.49,2.62 -2.33,3.86 -0.35,0.52 -0.22,1.23 0.3,1.59 0.18,0.12 0.38,0.19 0.58,0.2 0.39,0.02 0.77,-0.15 1.01,-0.5 0.89,-1.31 1.72,-2.68 2.46,-4.08 0.3,-0.56 0.09,-1.25 -0.47,-1.54 -0.17,-0.09 -0.35,-0.13 -0.54,-0.13 -0.41,0 -0.8,0.22 -1.01,0.6zm-72.92 3.53c-0.52,0.35 -0.66,1.07 -0.3,1.59 0.89,1.31 1.86,2.58 2.88,3.79 0.21,0.25 0.51,0.38 0.81,0.4 0.28,0.02 0.57,-0.07 0.8,-0.27 0.48,-0.41 0.54,-1.13 0.13,-1.61 -0.97,-1.14 -1.89,-2.35 -2.73,-3.59 -0.22,-0.33 -0.58,-0.5 -0.95,-0.5 -0.22,0 -0.44,0.06 -0.64,0.2zm67.85 3.92c-0.97,1.14 -2.02,2.24 -3.11,3.27 -0.46,0.43 -0.48,1.16 -0.05,1.61 0.21,0.22 0.49,0.34 0.77,0.36 0.3,0.02 0.61,-0.09 0.85,-0.31 1.15,-1.09 2.25,-2.25 3.28,-3.45 0.41,-0.48 0.35,-1.2 -0.13,-1.61 -0.21,-0.18 -0.48,-0.27 -0.74,-0.27 -0.32,0 -0.64,0.14 -0.87,0.4zm-62.04 3.29c-0.43,0.46 -0.41,1.18 0.04,1.61 1.15,1.09 2.37,2.13 3.63,3.08 0.19,0.14 0.41,0.22 0.63,0.23 0.36,0.02 0.73,-0.14 0.97,-0.45 0.38,-0.5 0.29,-1.22 -0.22,-1.6 -1.19,-0.91 -2.35,-1.89 -3.44,-2.92 -0.22,-0.21 -0.5,-0.31 -0.79,-0.31 -0.3,0 -0.6,0.12 -0.83,0.36zm55.49 2.9c-1.19,0.91 -2.45,1.76 -3.74,2.53 -0.54,0.33 -0.71,1.03 -0.39,1.57 0.2,0.34 0.55,0.53 0.92,0.55 0.22,0.01 0.45,-0.04 0.65,-0.16 1.36,-0.82 2.68,-1.71 3.94,-2.67 0.5,-0.38 0.6,-1.1 0.22,-1.6 -0.23,-0.3 -0.57,-0.45 -0.91,-0.45 -0.24,0 -0.48,0.08 -0.69,0.23zm-48.27 2.91c-0.33,0.54 -0.15,1.24 0.39,1.57 1.36,0.82 2.77,1.57 4.21,2.23 0.14,0.06 0.28,0.1 0.42,0.1 0.45,0.03 0.9,-0.22 1.1,-0.66 0.27,-0.57 0.02,-1.25 -0.56,-1.52 -1.36,-0.63 -2.7,-1.34 -3.99,-2.12 -0.18,-0.11 -0.39,-0.16 -0.59,-0.16 -0.39,0 -0.77,0.2 -0.98,0.55zm40.55 1.74c-1.36,0.63 -2.77,1.19 -4.19,1.67 -0.6,0.2 -0.92,0.85 -0.72,1.45 0.15,0.46 0.57,0.75 1.02,0.78 0.14,0.01 0.29,-0.01 0.43,-0.06 1.5,-0.51 2.99,-1.1 4.42,-1.76 0.57,-0.27 0.82,-0.94 0.56,-1.52 -0.19,-0.42 -0.61,-0.66 -1.04,-0.66 -0.16,0 -0.32,0.03 -0.48,0.11zm-32.25 2.38c-0.2,0.6 0.12,1.25 0.72,1.45 1.5,0.5 3.04,0.93 4.59,1.27 0.06,0.01 0.12,0.02 0.18,0.03 0.55,0.03 1.06,-0.34 1.18,-0.9 0.14,-0.62 -0.26,-1.22 -0.87,-1.36 -1.47,-0.32 -2.93,-0.73 -4.35,-1.2 -0.12,-0.04 -0.24,-0.06 -0.36,-0.06 -0.48,0 -0.92,0.3 -1.08,0.78zm23.71 0.5c-1.46,0.32 -2.96,0.56 -4.45,0.72 -0.63,0.07 -1.08,0.63 -1.01,1.26 0.06,0.56 0.52,0.99 1.07,1.02 0.06,0 0.12,0 0.19,-0 1.57,-0.17 3.15,-0.43 4.7,-0.76 0.62,-0.14 1.01,-0.74 0.87,-1.36 -0.12,-0.53 -0.59,-0.9 -1.11,-0.9 -0.08,0 -0.16,0.01 -0.25,0.03zm-14.73 1.73c-0.07,0.63 0.39,1.19 1.01,1.26 0.77,0.08 1.55,0.15 2.33,0.19 0.81,0.04 1.62,0.07 2.42,0.07 0.63,0 1.14,-0.51 1.14,-1.14 0,-0.63 -0.5,-1.15 -1.14,-1.14 -1.5,-0 -3.03,-0.09 -4.51,-0.25 -0.04,-0 -0.08,-0.01 -0.12,-0.01 -0.57,0 -1.07,0.43 -1.14,1.02z"/>
   <g>
    <path class="fil74 str0" d="M53.35 88.25c-15.72,-1.29 -28.25,-13.82 -29.54,-29.54l7.21 0c1.24,11.75 10.58,21.08 22.32,22.32l0 7.21zm-29.54 -34.9c1.29,-15.72 13.82,-28.25 29.54,-29.54l0 7.21c-11.75,1.24 -21.08,10.58 -22.32,22.32l-7.21 0zm34.9 -29.54c15.72,1.29 28.25,13.82 29.54,29.54l-7.21 0c-1.24,-11.75 -10.58,-21.08 -22.32,-22.32l0 -7.21zm-2.08 50.94c-3.4,0 -6.44,-0.8 -9.15,-2.39 -2.7,-1.59 -4.82,-3.82 -6.37,-6.66 -1.54,-2.85 -2.32,-6.07 -2.32,-9.67 0,-3.6 0.77,-6.83 2.32,-9.67 1.54,-2.85 3.67,-5.07 6.37,-6.66 2.7,-1.59 5.75,-2.39 9.15,-2.39 2.96,0 5.63,0.58 8.01,1.75 2.38,1.17 4.35,2.85 5.93,5.04l-5.83 5.87c-2.1,-2.81 -4.65,-4.22 -7.64,-4.22 -1.76,0 -3.33,0.43 -4.7,1.29 -1.37,0.86 -2.44,2.07 -3.2,3.63 -0.76,1.56 -1.13,3.35 -1.13,5.38 0,2.02 0.38,3.82 1.13,5.38 0.76,1.56 1.82,2.77 3.2,3.63 1.37,0.86 2.94,1.29 4.7,1.29 2.99,0 5.54,-1.41 7.64,-4.22l5.83 5.87c-1.57,2.2 -3.55,3.88 -5.93,5.04 -2.38,1.17 -5.05,1.75 -8.01,1.75zm31.62 -16.05c-1.29,15.72 -13.82,28.25 -29.54,29.54l0 -7.21c11.75,-1.24 21.08,-10.58 22.32,-22.32l7.21 0z"/>
    <path class="fil75" d="M58.84 22.82c8.09,0.68 15.35,4.24 20.76,9.65 5.42,5.42 8.98,12.71 9.65,20.81 0.04,0.55 -0.37,1.04 -0.92,1.08 -0.03,0 -0.05,0 -0.08,0l0 0 -7.21 0c-0.54,0 -0.99,-0.43 -1.01,-0.97 -0.61,-5.61 -3.14,-10.64 -6.93,-14.43 -3.8,-3.8 -8.86,-6.34 -14.49,-6.94 -0.52,-0.05 -0.9,-0.49 -0.9,-1l-0 0 0 -7.21c0,-0.56 0.45,-1.01 1.01,-1.01 0.04,0 0.09,0 0.13,0.01zm19.33 11.07c-4.85,-4.85 -11.29,-8.12 -18.46,-8.96l0 5.21c5.75,0.81 10.9,3.49 14.81,7.4 3.91,3.91 6.59,9.06 7.4,14.81l5.21 0c-0.84,-7.17 -4.11,-13.61 -8.96,-18.46zm-28.08 27.09c0.34,0.69 0.74,1.31 1.22,1.85 0.47,0.53 1,0.99 1.6,1.36 0.61,0.38 1.25,0.66 1.94,0.85 0.69,0.19 1.43,0.28 2.23,0.28 1.33,0 2.55,-0.31 3.67,-0.93 1.14,-0.63 2.2,-1.59 3.16,-2.88 0.33,-0.45 0.96,-0.54 1.41,-0.2 0.06,0.04 0.11,0.09 0.16,0.15l5.79 5.82c0.35,0.35 0.39,0.9 0.1,1.29l0 0c-0.83,1.15 -1.77,2.18 -2.83,3.08 -1.05,0.9 -2.21,1.65 -3.47,2.27 -1.27,0.62 -2.61,1.09 -4.01,1.39 -1.41,0.31 -2.89,0.46 -4.44,0.46 -1.78,0 -3.47,-0.21 -5.08,-0.63 -1.62,-0.42 -3.14,-1.06 -4.57,-1.9 -1.43,-0.84 -2.71,-1.86 -3.83,-3.04 -1.13,-1.18 -2.1,-2.52 -2.91,-4.01 -0.81,-1.49 -1.42,-3.09 -1.83,-4.8 -0.41,-1.7 -0.61,-3.48 -0.61,-5.35 0,-1.87 0.2,-3.65 0.61,-5.35 0.41,-1.71 1.02,-3.31 1.83,-4.8 0.81,-1.5 1.78,-2.83 2.91,-4.01 1.13,-1.18 2.41,-2.19 3.83,-3.04 2.86,-1.69 6.08,-2.53 9.66,-2.53 1.55,0 3.03,0.15 4.44,0.46 1.41,0.31 2.74,0.77 4.01,1.39 1.26,0.62 2.42,1.38 3.47,2.27 1.06,0.9 2,1.93 2.83,3.08 0.3,0.43 0.23,1.01 -0.16,1.34l-5.79 5.82c-0.39,0.39 -1.03,0.4 -1.42,0 -0.04,-0.04 -0.07,-0.07 -0.1,-0.11l-0 0c-0.96,-1.29 -2.02,-2.25 -3.16,-2.88 -1.12,-0.62 -2.35,-0.93 -3.67,-0.93 -1.57,0 -2.96,0.38 -4.17,1.13 -0.6,0.38 -1.14,0.83 -1.6,1.36 -0.47,0.54 -0.88,1.16 -1.22,1.85 -0.34,0.71 -0.6,1.47 -0.77,2.28 -0.17,0.82 -0.26,1.71 -0.26,2.66 0,0.95 0.09,1.84 0.26,2.66 0.17,0.81 0.43,1.57 0.77,2.28zm-0.29 3.18c-0.59,-0.67 -1.1,-1.44 -1.52,-2.31 -0.41,-0.85 -0.72,-1.77 -0.93,-2.75 -0.2,-0.97 -0.31,-1.99 -0.31,-3.07 0,-1.07 0.1,-2.1 0.31,-3.07 0.21,-0.98 0.52,-1.89 0.93,-2.75 0.42,-0.87 0.93,-1.64 1.52,-2.31 0.6,-0.68 1.28,-1.26 2.05,-1.74 1.54,-0.96 3.28,-1.44 5.23,-1.44 1.67,0 3.21,0.39 4.64,1.18 1.11,0.61 2.14,1.46 3.08,2.54l4.43 -4.45c-0.61,-0.76 -1.27,-1.45 -1.98,-2.06 -0.92,-0.78 -1.94,-1.45 -3.06,-2 -1.11,-0.54 -2.29,-0.95 -3.56,-1.23 -1.26,-0.28 -2.6,-0.41 -4.01,-0.41 -3.21,0 -6.09,0.75 -8.63,2.25 -1.27,0.75 -2.41,1.65 -3.4,2.69 -1,1.04 -1.86,2.24 -2.59,3.59 -0.73,1.35 -1.28,2.79 -1.65,4.31 -0.36,1.52 -0.55,3.15 -0.55,4.89 0,1.73 0.18,3.36 0.55,4.89 0.36,1.52 0.91,2.95 1.65,4.31 0.73,1.35 1.6,2.55 2.59,3.59 0.99,1.04 2.13,1.94 3.4,2.69 1.27,0.75 2.62,1.31 4.05,1.69 1.43,0.38 2.96,0.56 4.58,0.56 1.41,0 2.75,-0.14 4.01,-0.41 1.26,-0.28 2.45,-0.69 3.56,-1.23 1.12,-0.55 2.13,-1.21 3.06,-2 0.71,-0.61 1.37,-1.29 1.98,-2.06l-4.43 -4.45c-0.94,1.08 -1.97,1.93 -3.08,2.54 -1.43,0.79 -2.97,1.18 -4.64,1.18 -0.96,0 -1.88,-0.12 -2.76,-0.36 -0.88,-0.24 -1.71,-0.6 -2.47,-1.08 -0.77,-0.48 -1.46,-1.06 -2.05,-1.74zm-25.99 -6.45l7.21 0c0.54,0 0.99,0.43 1.01,0.97 0.61,5.61 3.14,10.64 6.93,14.43 3.8,3.8 8.86,6.34 14.49,6.94 0.52,0.05 0.9,0.49 0.9,1l0 0 0 7.21c0,0.56 -0.45,1.01 -1.01,1.01 -0.04,0 -0.09,-0 -0.13,-0.01 -8.09,-0.68 -15.35,-4.23 -20.76,-9.65 -5.42,-5.42 -8.98,-12.71 -9.65,-20.81 -0.04,-0.55 0.37,-1.04 0.92,-1.08 0.03,-0 0.05,-0 0.08,-0l0 -0zm6.33 2.01l-5.21 0c0.84,7.17 4.11,13.61 8.96,18.46 4.85,4.85 11.29,8.12 18.46,8.96l0 -5.21c-5.75,-0.81 -10.9,-3.49 -14.81,-7.4 -3.91,-3.91 -6.59,-9.06 -7.4,-14.81zm28.53 20.31c5.61,-0.61 10.64,-3.14 14.43,-6.93 3.8,-3.8 6.34,-8.86 6.94,-14.49 0.05,-0.52 0.49,-0.9 1,-0.9l0 -0 7.21 0c0.56,0 1.01,0.45 1.01,1.01 0,0.04 -0,0.09 -0.01,0.13 -0.68,8.09 -4.23,15.35 -9.64,20.76 -5.42,5.42 -12.71,8.98 -20.81,9.65 -0.55,0.04 -1.04,-0.37 -1.08,-0.92 -0,-0.03 -0,-0.05 -0,-0.08l-0 0 0 -7.21c0,-0.54 0.43,-0.99 0.97,-1.01zm15.85 -5.5c-3.91,3.91 -9.06,6.59 -14.81,7.4l0 5.21c7.17,-0.84 13.61,-4.11 18.46,-8.96 4.85,-4.85 8.12,-11.29 8.96,-18.46l-5.21 0c-0.81,5.75 -3.49,10.9 -7.4,14.81zm-20.16 -50.71l0 7.21c0,0.54 -0.43,0.99 -0.97,1.01 -5.61,0.61 -10.64,3.14 -14.43,6.93 -3.8,3.8 -6.34,8.86 -6.94,14.49 -0.05,0.52 -0.49,0.9 -1,0.9l0 0 -7.21 0c-0.56,0 -1.01,-0.45 -1.01,-1.01 0,-0.04 0,-0.09 0.01,-0.13 0.68,-8.09 4.24,-15.35 9.65,-20.76 5.42,-5.42 12.71,-8.98 20.81,-9.65 0.55,-0.04 1.04,0.37 1.08,0.92 0,0.03 0,0.05 0,0.08l0 0zm-2.01 6.33l0 -5.21c-7.17,0.84 -13.61,4.11 -18.46,8.96 -4.85,4.85 -8.12,11.29 -8.96,18.46l5.21 0c0.81,-5.75 3.49,-10.9 7.4,-14.81 3.91,-3.91 9.06,-6.59 14.81,-7.4z"/>
   </g>
   <g>
    <g>
     <path class="fil76" d="M74.23 55.13l2.3 0c0.21,0 0.37,-0.17 0.37,-0.38l0 -0.51c0,-0.21 -0.17,-0.37 -0.37,-0.37l-2.3 0c-0.21,0 -0.37,0.17 -0.37,0.37l0 0.51c0,0.21 0.17,0.38 0.37,0.38z"/>
     <path class="fil77" d="M76 52.54l0 -0.51c0,-0.21 -0.17,-0.37 -0.37,-0.37l-2.3 0c-0.21,0 -0.37,0.17 -0.37,0.37l0 0.51c0,0.21 0.17,0.37 0.37,0.37l2.3 0c0.21,0 0.37,-0.17 0.37,-0.37z"/>
    </g>
    <g>
     <path class="fil78" d="M74.23 58.71l2.3 0c0.21,0 0.37,0.17 0.37,0.38l0 0.51c0,0.21 -0.17,0.37 -0.37,0.37l-2.3 0c-0.21,0 -0.37,-0.17 -0.37,-0.37l0 -0.51c0,-0.21 0.17,-0.38 0.37,-0.38z"/>
     <path class="fil79" d="M76 61.3l0 0.51c0,0.21 -0.17,0.37 -0.37,0.37l-2.3 0c-0.21,0 -0.37,-0.17 -0.37,-0.37l0 -0.51c0,-0.21 0.17,-0.37 0.37,-0.37l2.3 0c0.21,0 0.37,0.17 0.37,0.37z"/>
    </g>
   </g>
   <g>
    <path class="fil80" d="M53.29 10.91l0.74 -0.04c0.3,-0.02 0.53,-0.27 0.52,-0.58l-0.17 -3.36c-0.02,-0.3 -0.27,-0.53 -0.57,-0.52l-0.74 0.04c-0.3,0.02 -0.53,0.27 -0.52,0.58l0.17 3.36c0.02,0.3 0.27,0.53 0.57,0.52z"/>
    <path class="fil81" d="M51.12 11.09l0.37 -0.04c0.15,-0.02 0.25,-0.27 0.22,-0.57l-0.35 -3.34c-0.03,-0.3 -0.18,-0.53 -0.33,-0.52l-0.37 0.04c-0.15,0.02 -0.25,0.27 -0.22,0.57l0.35 3.34c0.03,0.3 0.18,0.53 0.33,0.52z"/>
    <path class="fil82" d="M48.59 11.44l0.73 -0.12c0.3,-0.05 0.5,-0.33 0.46,-0.63l-0.52 -3.32c-0.05,-0.3 -0.33,-0.5 -0.63,-0.46l-0.73 0.12c-0.3,0.05 -0.5,0.33 -0.46,0.63l0.52 3.32c0.05,0.3 0.33,0.5 0.63,0.46z"/>
    <path class="fil83" d="M46.45 11.85l0.37 -0.08c0.15,-0.03 0.22,-0.3 0.16,-0.59l-0.7 -3.29c-0.06,-0.3 -0.23,-0.51 -0.38,-0.48l-0.37 0.08c-0.15,0.03 -0.22,0.3 -0.16,0.59l0.7 3.29c0.06,0.3 0.23,0.51 0.38,0.48z"/>
    <path class="fil84" d="M43.97 12.46l0.72 -0.19c0.29,-0.08 0.47,-0.38 0.39,-0.67l-0.87 -3.25c-0.08,-0.29 -0.38,-0.47 -0.67,-0.39l-0.72 0.19c-0.29,0.08 -0.47,0.38 -0.39,0.67l0.87 3.25c0.08,0.29 0.38,0.47 0.67,0.39z"/>
    <path class="fil85" d="M41.88 13.09l0.36 -0.12c0.15,-0.05 0.19,-0.32 0.09,-0.61l-1.04 -3.2c-0.09,-0.29 -0.29,-0.48 -0.43,-0.44l-0.36 0.12c-0.15,0.05 -0.19,0.32 -0.09,0.61l1.04 3.2c0.09,0.29 0.29,0.48 0.43,0.44z"/>
    <path class="fil86" d="M39.48 13.95l0.69 -0.27c0.28,-0.11 0.42,-0.43 0.31,-0.71l-1.21 -3.14c-0.11,-0.28 -0.42,-0.42 -0.71,-0.32l-0.69 0.27c-0.28,0.11 -0.42,0.43 -0.31,0.71l1.21 3.14c0.11,0.28 0.42,0.42 0.71,0.32z"/>
    <path class="fil87" d="M37.47 14.8l0.34 -0.15c0.14,-0.06 0.15,-0.34 0.03,-0.61l-1.37 -3.07c-0.12,-0.28 -0.34,-0.45 -0.48,-0.39l-0.34 0.15c-0.14,0.06 -0.15,0.34 -0.03,0.61l1.37 3.07c0.12,0.28 0.34,0.45 0.48,0.39z"/>
    <path class="fil88" d="M35.18 15.92l0.66 -0.34c0.27,-0.14 0.38,-0.47 0.24,-0.74l-1.53 -2.99c-0.14,-0.27 -0.47,-0.38 -0.74,-0.24l-0.66 0.34c-0.27,0.14 -0.38,0.47 -0.24,0.74l1.53 3c0.14,0.27 0.47,0.38 0.74,0.24z"/>
    <path class="fil89" d="M33.27 16.97l0.32 -0.19c0.13,-0.08 0.12,-0.35 -0.03,-0.61l-1.68 -2.91c-0.15,-0.26 -0.38,-0.41 -0.51,-0.34l-0.33 0.19c-0.13,0.08 -0.12,0.35 0.03,0.61l1.68 2.91c0.15,0.26 0.38,0.41 0.51,0.34z"/>
    <path class="fil90" d="M31.1 18.32l0.62 -0.41c0.25,-0.16 0.32,-0.5 0.16,-0.76l-1.83 -2.82c-0.17,-0.25 -0.5,-0.33 -0.76,-0.16l-0.62 0.41c-0.25,0.16 -0.32,0.5 -0.16,0.76l1.83 2.82c0.16,0.25 0.5,0.33 0.76,0.16z"/>
    <path class="fil91" d="M29.31 19.57l0.3 -0.22c0.12,-0.09 0.08,-0.36 -0.1,-0.61l-1.98 -2.72c-0.18,-0.24 -0.42,-0.37 -0.55,-0.28l-0.3 0.22c-0.12,0.09 -0.08,0.36 0.1,0.61l1.98 2.72c0.18,0.24 0.42,0.37 0.55,0.28z"/>
    <path class="fil92" d="M27.3 21.14l0.58 -0.47c0.23,-0.19 0.27,-0.54 0.08,-0.77l-2.12 -2.61c-0.19,-0.24 -0.54,-0.27 -0.77,-0.08l-0.58 0.47c-0.24,0.19 -0.27,0.53 -0.08,0.77l2.12 2.61c0.19,0.23 0.53,0.27 0.77,0.08z"/>
    <path class="fil93" d="M25.65 22.57l0.28 -0.25c0.11,-0.1 0.04,-0.37 -0.16,-0.59l-2.25 -2.5c-0.2,-0.22 -0.46,-0.32 -0.57,-0.22l-0.28 0.25c-0.11,0.1 -0.04,0.37 0.16,0.59l2.25 2.5c0.2,0.22 0.46,0.32 0.57,0.22z"/>
    <path class="fil94" d="M23.81 24.33l0.53 -0.53c0.21,-0.21 0.21,-0.56 -0,-0.77l-2.38 -2.38c-0.21,-0.21 -0.56,-0.21 -0.77,-0l-0.53 0.53c-0.21,0.21 -0.21,0.56 0,0.77l2.38 2.38c0.21,0.21 0.56,0.21 0.77,0z"/>
    <path class="fil95" d="M22.31 25.93l0.25 -0.28c0.1,-0.11 0,-0.37 -0.22,-0.57l-2.5 -2.25c-0.22,-0.2 -0.49,-0.27 -0.59,-0.16l-0.25 0.28c-0.1,0.11 -0,0.37 0.22,0.57l2.5 2.25c0.22,0.2 0.49,0.27 0.59,0.16z"/>
    <path class="fil96" d="M20.67 27.88l0.47 -0.58c0.19,-0.23 0.15,-0.58 -0.08,-0.77l-2.61 -2.12c-0.24,-0.19 -0.58,-0.16 -0.77,0.08l-0.47 0.58c-0.19,0.24 -0.15,0.58 0.08,0.77l2.61 2.12c0.23,0.19 0.58,0.16 0.77,-0.08z"/>
    <path class="fil97" d="M19.35 29.62l0.22 -0.3c0.09,-0.12 -0.04,-0.37 -0.28,-0.55l-2.72 -1.98c-0.24,-0.18 -0.52,-0.22 -0.61,-0.1l-0.22 0.3c-0.09,0.12 0.04,0.37 0.28,0.55l2.72 1.98c0.24,0.18 0.52,0.22 0.61,0.1z"/>
    <path class="fil98" d="M17.91 31.72l0.41 -0.62c0.17,-0.25 0.09,-0.59 -0.16,-0.76l-2.82 -1.83c-0.25,-0.17 -0.59,-0.09 -0.76,0.16l-0.41 0.62c-0.17,0.25 -0.09,0.59 0.16,0.76l2.82 1.83c0.25,0.16 0.59,0.09 0.76,-0.16z"/>
    <path class="fil99" d="M16.78 33.59l0.19 -0.32c0.08,-0.13 -0.07,-0.36 -0.34,-0.51l-2.91 -1.68c-0.26,-0.15 -0.54,-0.17 -0.61,-0.03l-0.19 0.32c-0.08,0.13 0.07,0.36 0.34,0.51l2.91 1.68c0.26,0.15 0.54,0.17 0.61,0.03z"/>
    <path class="fil100" d="M15.58 35.84l0.34 -0.66c0.14,-0.27 0.03,-0.6 -0.24,-0.74l-3 -1.53c-0.27,-0.14 -0.6,-0.03 -0.74,0.24l-0.34 0.66c-0.14,0.27 -0.03,0.6 0.24,0.74l3 1.53c0.27,0.14 0.6,0.03 0.74,-0.24z"/>
    <path class="fil101" d="M14.65 37.82l0.15 -0.34c0.06,-0.14 -0.11,-0.35 -0.39,-0.48l-3.07 -1.37c-0.28,-0.12 -0.55,-0.11 -0.61,0.03l-0.15 0.34c-0.06,0.14 0.11,0.35 0.39,0.48l3.07 1.37c0.28,0.12 0.55,0.11 0.61,-0.03z"/>
    <path class="fil102" d="M13.69 40.18l0.27 -0.69c0.11,-0.28 -0.03,-0.6 -0.32,-0.71l-3.14 -1.21c-0.28,-0.11 -0.6,0.03 -0.71,0.31l-0.27 0.69c-0.11,0.28 0.03,0.6 0.32,0.71l3.14 1.21c0.28,0.11 0.6,-0.03 0.71,-0.31z"/>
    <path class="fil103" d="M12.97 42.24l0.12 -0.36c0.05,-0.15 -0.15,-0.34 -0.44,-0.43l-3.2 -1.04c-0.29,-0.09 -0.56,-0.05 -0.61,0.09l-0.12 0.36c-0.05,0.15 0.15,0.34 0.44,0.43l3.2 1.04c0.29,0.09 0.56,0.05 0.61,-0.09z"/>
    <path class="fil104" d="M12.26 44.69l0.19 -0.72c0.08,-0.29 -0.1,-0.59 -0.39,-0.67l-3.25 -0.87c-0.29,-0.08 -0.59,0.09 -0.67,0.39l-0.19 0.72c-0.08,0.29 0.1,0.59 0.39,0.67l3.25 0.87c0.29,0.08 0.59,-0.09 0.67,-0.39z"/>
    <path class="fil105" d="M11.77 46.81l0.08 -0.37c0.03,-0.15 -0.18,-0.32 -0.48,-0.38l-3.29 -0.7c-0.3,-0.06 -0.56,0.01 -0.59,0.16l-0.08 0.37c-0.03,0.15 0.18,0.32 0.48,0.38l3.29 0.7c0.3,0.06 0.56,-0.01 0.59,-0.16z"/>
    <path class="fil106" d="M11.32 49.32l0.12 -0.73c0.05,-0.3 -0.16,-0.58 -0.46,-0.63l-3.32 -0.52c-0.3,-0.05 -0.58,0.16 -0.63,0.46l-0.12 0.73c-0.05,0.3 0.16,0.58 0.46,0.63l3.32 0.52c0.3,0.05 0.58,-0.16 0.63,-0.46z"/>
    <path class="fil107" d="M11.06 51.49l0.04 -0.37c0.02,-0.15 -0.22,-0.3 -0.52,-0.33l-3.34 -0.35c-0.3,-0.03 -0.56,0.07 -0.57,0.22l-0.04 0.37c-0.02,0.15 0.22,0.3 0.52,0.33l3.34 0.35c0.3,0.03 0.56,-0.07 0.57,-0.22z"/>
    <path class="fil108" d="M10.87 54.04l0.04 -0.74c0.02,-0.3 -0.22,-0.56 -0.52,-0.57l-3.36 -0.17c-0.3,-0.02 -0.56,0.22 -0.58,0.52l-0.04 0.74c-0.02,0.3 0.22,0.56 0.52,0.57l3.36 0.17c0.3,0.02 0.56,-0.22 0.58,-0.52z"/>
    <path class="fil109" d="M10.83 56.22l0 -0.38c0,-0.15 -0.25,-0.28 -0.55,-0.28l-3.36 0c-0.3,0 -0.55,0.12 -0.55,0.28l0 0.38c0,0.15 0.25,0.28 0.55,0.28l3.36 0c0.3,0 0.55,-0.12 0.55,-0.28z"/>
    <path class="fil110" d="M10.91 58.77l-0.04 -0.74c-0.02,-0.3 -0.27,-0.53 -0.58,-0.52l-3.36 0.17c-0.3,0.02 -0.53,0.27 -0.52,0.57l0.04 0.74c0.02,0.3 0.27,0.53 0.58,0.52l3.36 -0.17c0.3,-0.02 0.53,-0.27 0.52,-0.57z"/>
    <path class="fil111" d="M11.09 60.95l-0.04 -0.37c-0.02,-0.15 -0.27,-0.25 -0.57,-0.22l-3.34 0.35c-0.3,0.03 -0.53,0.18 -0.52,0.33l0.04 0.37c0.02,0.15 0.27,0.25 0.57,0.22l3.34 -0.35c0.3,-0.03 0.53,-0.18 0.52,-0.33z"/>
    <path class="fil112" d="M11.44 63.48l-0.12 -0.73c-0.05,-0.3 -0.33,-0.5 -0.63,-0.46l-3.32 0.52c-0.3,0.05 -0.5,0.33 -0.46,0.63l0.12 0.73c0.05,0.3 0.33,0.5 0.63,0.46l3.32 -0.52c0.3,-0.05 0.5,-0.33 0.46,-0.63z"/>
    <path class="fil113" d="M11.85 65.62l-0.08 -0.37c-0.03,-0.15 -0.3,-0.22 -0.59,-0.16l-3.29 0.7c-0.3,0.06 -0.51,0.23 -0.48,0.38l0.08 0.37c0.03,0.15 0.3,0.22 0.59,0.16l3.29 -0.7c0.3,-0.06 0.51,-0.23 0.48,-0.38z"/>
    <path class="fil114" d="M12.46 68.1l-0.19 -0.72c-0.08,-0.29 -0.38,-0.47 -0.67,-0.39l-3.25 0.87c-0.29,0.08 -0.47,0.38 -0.39,0.67l0.19 0.72c0.08,0.29 0.38,0.47 0.67,0.39l3.25 -0.87c0.29,-0.08 0.47,-0.38 0.39,-0.67z"/>
    <path class="fil115" d="M13.09 70.18l-0.12 -0.36c-0.05,-0.15 -0.32,-0.19 -0.61,-0.09l-3.2 1.04c-0.29,0.09 -0.48,0.29 -0.44,0.43l0.12 0.36c0.05,0.15 0.32,0.19 0.61,0.09l3.2 -1.04c0.29,-0.09 0.48,-0.29 0.44,-0.43z"/>
    <path class="fil116" d="M13.95 72.58l-0.27 -0.69c-0.11,-0.28 -0.43,-0.42 -0.71,-0.31l-3.14 1.21c-0.28,0.11 -0.42,0.42 -0.32,0.71l0.27 0.69c0.11,0.28 0.42,0.42 0.71,0.31l3.14 -1.21c0.28,-0.11 0.42,-0.42 0.32,-0.71z"/>
    <path class="fil117" d="M14.8 74.59l-0.15 -0.34c-0.06,-0.14 -0.34,-0.15 -0.61,-0.03l-3.07 1.37c-0.28,0.12 -0.45,0.34 -0.39,0.48l0.15 0.34c0.06,0.14 0.34,0.15 0.61,0.03l3.07 -1.37c0.28,-0.12 0.45,-0.34 0.39,-0.48z"/>
    <path class="fil118" d="M15.92 76.89l-0.34 -0.66c-0.14,-0.27 -0.47,-0.38 -0.74,-0.24l-3 1.53c-0.27,0.14 -0.38,0.47 -0.24,0.74l0.34 0.66c0.14,0.27 0.47,0.38 0.74,0.24l3 -1.53c0.27,-0.14 0.38,-0.47 0.24,-0.74z"/>
    <path class="fil119" d="M16.97 78.8l-0.19 -0.32c-0.08,-0.13 -0.35,-0.12 -0.61,0.03l-2.91 1.68c-0.26,0.15 -0.41,0.38 -0.34,0.51l0.19 0.32c0.08,0.13 0.35,0.12 0.61,-0.03l2.91 -1.68c0.26,-0.15 0.41,-0.38 0.34,-0.51z"/>
    <path class="fil120" d="M18.32 80.96l-0.41 -0.62c-0.16,-0.25 -0.5,-0.32 -0.76,-0.16l-2.82 1.83c-0.25,0.17 -0.33,0.5 -0.16,0.76l0.41 0.62c0.16,0.25 0.5,0.32 0.76,0.16l2.82 -1.83c0.25,-0.16 0.33,-0.5 0.16,-0.76z"/>
    <path class="fil121" d="M19.57 82.75l-0.22 -0.3c-0.09,-0.12 -0.36,-0.08 -0.61,0.1l-2.72 1.98c-0.24,0.18 -0.37,0.42 -0.28,0.55l0.22 0.3c0.09,0.12 0.36,0.08 0.61,-0.1l2.72 -1.98c0.24,-0.18 0.37,-0.42 0.28,-0.55z"/>
    <path class="fil122" d="M21.14 84.77l-0.47 -0.58c-0.19,-0.24 -0.54,-0.27 -0.77,-0.08l-2.61 2.12c-0.24,0.19 -0.27,0.53 -0.08,0.77l0.47 0.58c0.19,0.23 0.53,0.27 0.77,0.08l2.61 -2.12c0.23,-0.19 0.27,-0.53 0.08,-0.77z"/>
    <path class="fil123" d="M22.57 86.42l-0.25 -0.28c-0.1,-0.11 -0.37,-0.04 -0.59,0.16l-2.5 2.25c-0.22,0.2 -0.32,0.46 -0.22,0.57l0.25 0.28c0.1,0.11 0.37,0.04 0.59,-0.16l2.5 -2.25c0.22,-0.2 0.32,-0.46 0.22,-0.57z"/>
    <path class="fil124" d="M24.33 88.26l-0.53 -0.53c-0.21,-0.21 -0.56,-0.21 -0.77,0l-2.38 2.38c-0.21,0.21 -0.21,0.56 -0,0.77l0.53 0.53c0.21,0.21 0.56,0.21 0.77,-0l2.38 -2.38c0.21,-0.21 0.21,-0.56 0,-0.77z"/>
    <path class="fil125" d="M25.93 89.75l-0.28 -0.25c-0.11,-0.1 -0.37,-0 -0.57,0.22l-2.25 2.5c-0.2,0.22 -0.27,0.49 -0.16,0.59l0.28 0.25c0.11,0.1 0.37,0 0.57,-0.22l2.25 -2.5c0.2,-0.22 0.27,-0.49 0.16,-0.59z"/>
    <path class="fil126" d="M27.88 91.4l-0.58 -0.47c-0.24,-0.19 -0.58,-0.15 -0.77,0.08l-2.12 2.61c-0.19,0.23 -0.16,0.58 0.08,0.77l0.58 0.47c0.24,0.19 0.58,0.15 0.77,-0.08l2.12 -2.61c0.19,-0.23 0.16,-0.58 -0.08,-0.77z"/>
    <path class="fil127" d="M29.62 92.72l-0.3 -0.22c-0.12,-0.09 -0.37,0.04 -0.55,0.28l-1.98 2.72c-0.18,0.24 -0.22,0.52 -0.1,0.61l0.3 0.22c0.12,0.09 0.37,-0.04 0.55,-0.28l1.98 -2.72c0.18,-0.24 0.22,-0.52 0.1,-0.61z"/>
    <path class="fil128" d="M31.73 94.15l-0.62 -0.41c-0.25,-0.16 -0.59,-0.09 -0.76,0.16l-1.83 2.82c-0.16,0.25 -0.09,0.59 0.16,0.76l0.62 0.41c0.25,0.16 0.59,0.09 0.76,-0.16l1.83 -2.82c0.16,-0.25 0.09,-0.59 -0.16,-0.76z"/>
    <path class="fil129" d="M33.59 95.28l-0.33 -0.19c-0.13,-0.08 -0.36,0.07 -0.51,0.34l-1.68 2.91c-0.15,0.26 -0.17,0.54 -0.03,0.61l0.32 0.19c0.13,0.08 0.36,-0.07 0.51,-0.34l1.68 -2.91c0.15,-0.26 0.17,-0.54 0.03,-0.61z"/>
    <path class="fil130" d="M35.84 96.49l-0.66 -0.34c-0.27,-0.14 -0.6,-0.03 -0.74,0.24l-1.53 2.99c-0.14,0.27 -0.03,0.6 0.24,0.74l0.66 0.34c0.27,0.14 0.6,0.03 0.74,-0.24l1.53 -3c0.14,-0.27 0.03,-0.6 -0.24,-0.74z"/>
    <path class="fil131" d="M37.82 97.42l-0.34 -0.15c-0.14,-0.06 -0.35,0.11 -0.48,0.39l-1.37 3.07c-0.12,0.28 -0.11,0.55 0.03,0.61l0.34 0.15c0.14,0.06 0.35,-0.11 0.48,-0.39l1.37 -3.07c0.12,-0.28 0.11,-0.55 -0.03,-0.61z"/>
    <path class="fil132" d="M40.18 98.38l-0.69 -0.27c-0.28,-0.11 -0.6,0.03 -0.71,0.32l-1.21 3.14c-0.11,0.28 0.03,0.6 0.31,0.71l0.69 0.27c0.28,0.11 0.6,-0.03 0.71,-0.32l1.21 -3.14c0.11,-0.28 -0.03,-0.6 -0.31,-0.71z"/>
    <path class="fil133" d="M42.24 99.09l-0.36 -0.12c-0.15,-0.05 -0.34,0.15 -0.43,0.44l-1.04 3.2c-0.09,0.29 -0.05,0.56 0.09,0.61l0.36 0.12c0.15,0.05 0.34,-0.15 0.43,-0.44l1.04 -3.2c0.09,-0.29 0.05,-0.56 -0.09,-0.61z"/>
    <path class="fil134" d="M44.69 99.8l-0.72 -0.19c-0.29,-0.08 -0.59,0.1 -0.67,0.39l-0.87 3.25c-0.08,0.29 0.09,0.59 0.39,0.67l0.72 0.19c0.29,0.08 0.59,-0.1 0.67,-0.39l0.87 -3.25c0.08,-0.29 -0.09,-0.59 -0.39,-0.67z"/>
    <path class="fil135" d="M46.81 100.3l-0.37 -0.08c-0.15,-0.03 -0.32,0.18 -0.38,0.48l-0.7 3.29c-0.06,0.3 0.01,0.56 0.16,0.59l0.37 0.08c0.15,0.03 0.32,-0.18 0.38,-0.48l0.7 -3.29c0.06,-0.3 -0.01,-0.56 -0.16,-0.59z"/>
    <path class="fil136" d="M49.32 100.74l-0.73 -0.12c-0.3,-0.05 -0.58,0.16 -0.63,0.46l-0.52 3.32c-0.05,0.3 0.16,0.58 0.46,0.63l0.73 0.12c0.3,0.05 0.58,-0.16 0.63,-0.46l0.52 -3.32c0.05,-0.3 -0.16,-0.58 -0.46,-0.63z"/>
    <path class="fil137" d="M51.49 101.01l-0.37 -0.04c-0.15,-0.02 -0.3,0.22 -0.33,0.52l-0.35 3.34c-0.03,0.3 0.07,0.56 0.22,0.57l0.37 0.04c0.15,0.02 0.3,-0.22 0.33,-0.52l0.35 -3.34c0.03,-0.3 -0.07,-0.56 -0.22,-0.57z"/>
    <path class="fil138" d="M54.04 101.19l-0.74 -0.04c-0.3,-0.02 -0.56,0.22 -0.57,0.52l-0.17 3.36c-0.02,0.3 0.22,0.56 0.52,0.58l0.74 0.04c0.3,0.02 0.56,-0.22 0.57,-0.52l0.17 -3.36c0.02,-0.3 -0.22,-0.56 -0.52,-0.58z"/>
    <path class="fil139" d="M56.22 101.24l-0.38 0c-0.15,0 -0.28,0.25 -0.28,0.55l0 3.36c0,0.3 0.12,0.55 0.28,0.55l0.38 0c0.15,0 0.28,-0.24 0.28,-0.55l0 -3.36c0,-0.3 -0.12,-0.55 -0.28,-0.55z"/>
    <path class="fil140" d="M58.77 101.16l-0.74 0.04c-0.3,0.02 -0.53,0.27 -0.52,0.58l0.17 3.36c0.02,0.3 0.27,0.53 0.57,0.52l0.74 -0.04c0.3,-0.02 0.53,-0.27 0.52,-0.58l-0.17 -3.36c-0.02,-0.3 -0.27,-0.53 -0.57,-0.52z"/>
    <path class="fil141" d="M60.95 100.97l-0.37 0.04c-0.15,0.02 -0.25,0.27 -0.22,0.57l0.35 3.34c0.03,0.3 0.18,0.53 0.33,0.52l0.37 -0.04c0.15,-0.02 0.25,-0.27 0.22,-0.57l-0.35 -3.34c-0.03,-0.3 -0.18,-0.53 -0.33,-0.52z"/>
    <path class="fil142" d="M63.48 100.63l-0.73 0.12c-0.3,0.05 -0.5,0.33 -0.46,0.63l0.52 3.32c0.05,0.3 0.33,0.5 0.63,0.46l0.73 -0.12c0.3,-0.05 0.5,-0.33 0.46,-0.63l-0.52 -3.32c-0.05,-0.3 -0.33,-0.5 -0.63,-0.46z"/>
    <path class="fil143" d="M65.62 100.22l-0.37 0.08c-0.15,0.03 -0.22,0.3 -0.16,0.59l0.7 3.29c0.06,0.3 0.23,0.51 0.38,0.48l0.37 -0.08c0.15,-0.03 0.22,-0.3 0.16,-0.59l-0.7 -3.29c-0.06,-0.3 -0.23,-0.51 -0.38,-0.48z"/>
    <path class="fil144" d="M68.1 99.61l-0.72 0.19c-0.29,0.08 -0.47,0.38 -0.39,0.67l0.87 3.25c0.08,0.29 0.38,0.47 0.67,0.39l0.72 -0.19c0.29,-0.08 0.47,-0.38 0.39,-0.67l-0.87 -3.25c-0.08,-0.29 -0.38,-0.47 -0.67,-0.39z"/>
    <path class="fil145" d="M70.18 98.98l-0.36 0.12c-0.15,0.05 -0.19,0.32 -0.09,0.61l1.04 3.2c0.09,0.29 0.29,0.48 0.43,0.44l0.36 -0.12c0.15,-0.05 0.19,-0.32 0.09,-0.61l-1.04 -3.2c-0.09,-0.29 -0.29,-0.48 -0.43,-0.44z"/>
    <path class="fil146" d="M72.58 98.11l-0.69 0.27c-0.28,0.11 -0.42,0.43 -0.31,0.71l1.21 3.14c0.11,0.28 0.42,0.42 0.71,0.32l0.69 -0.27c0.28,-0.11 0.42,-0.43 0.31,-0.71l-1.21 -3.14c-0.11,-0.28 -0.42,-0.42 -0.71,-0.32z"/>
    <path class="fil147" d="M74.59 97.26l-0.34 0.15c-0.14,0.06 -0.15,0.34 -0.03,0.61l1.37 3.07c0.12,0.28 0.34,0.45 0.48,0.39l0.34 -0.15c0.14,-0.06 0.15,-0.34 0.03,-0.61l-1.37 -3.07c-0.12,-0.28 -0.34,-0.45 -0.48,-0.39z"/>
    <path class="fil148" d="M76.89 96.15l-0.66 0.34c-0.27,0.14 -0.38,0.47 -0.24,0.74l1.53 3c0.14,0.27 0.47,0.38 0.74,0.24l0.66 -0.34c0.27,-0.14 0.38,-0.47 0.24,-0.74l-1.53 -2.99c-0.14,-0.27 -0.47,-0.38 -0.74,-0.24z"/>
    <path class="fil149" d="M78.8 95.09l-0.33 0.19c-0.13,0.08 -0.12,0.35 0.03,0.61l1.68 2.91c0.15,0.26 0.38,0.41 0.51,0.34l0.32 -0.19c0.13,-0.08 0.12,-0.35 -0.03,-0.61l-1.68 -2.91c-0.15,-0.26 -0.38,-0.41 -0.51,-0.34z"/>
    <path class="fil150" d="M80.96 93.75l-0.62 0.41c-0.25,0.17 -0.32,0.5 -0.16,0.76l1.83 2.82c0.16,0.25 0.5,0.33 0.76,0.16l0.62 -0.41c0.25,-0.17 0.32,-0.5 0.16,-0.76l-1.83 -2.82c-0.16,-0.25 -0.5,-0.33 -0.76,-0.16z"/>
    <path class="fil151" d="M82.75 92.5l-0.3 0.22c-0.12,0.09 -0.08,0.36 0.1,0.61l1.98 2.72c0.18,0.24 0.42,0.37 0.55,0.28l0.3 -0.22c0.12,-0.09 0.08,-0.36 -0.1,-0.61l-1.98 -2.72c-0.18,-0.24 -0.42,-0.37 -0.55,-0.28z"/>
    <path class="fil152" d="M84.77 90.93l-0.58 0.47c-0.24,0.19 -0.27,0.54 -0.08,0.77l2.12 2.61c0.19,0.24 0.53,0.27 0.77,0.08l0.58 -0.47c0.24,-0.19 0.27,-0.53 0.08,-0.77l-2.12 -2.61c-0.19,-0.23 -0.53,-0.27 -0.77,-0.08z"/>
    <path class="fil153" d="M86.42 89.5l-0.28 0.25c-0.11,0.1 -0.04,0.37 0.16,0.59l2.25 2.5c0.2,0.23 0.46,0.32 0.57,0.22l0.28 -0.25c0.11,-0.1 0.04,-0.37 -0.16,-0.59l-2.25 -2.5c-0.2,-0.22 -0.46,-0.32 -0.57,-0.22z"/>
    <path class="fil154" d="M88.26 87.73l-0.53 0.53c-0.21,0.21 -0.21,0.56 0,0.77l2.38 2.38c0.21,0.21 0.56,0.21 0.77,0l0.53 -0.53c0.21,-0.21 0.21,-0.56 -0,-0.77l-2.38 -2.38c-0.21,-0.21 -0.56,-0.21 -0.77,-0z"/>
    <path class="fil155" d="M89.75 86.14l-0.25 0.28c-0.1,0.11 -0,0.37 0.22,0.57l2.5 2.25c0.23,0.2 0.49,0.27 0.59,0.16l0.25 -0.28c0.1,-0.11 0,-0.37 -0.22,-0.57l-2.5 -2.25c-0.22,-0.2 -0.49,-0.27 -0.59,-0.16z"/>
    <path class="fil156" d="M91.4 84.19l-0.47 0.58c-0.19,0.24 -0.15,0.58 0.08,0.77l2.61 2.12c0.24,0.19 0.58,0.16 0.77,-0.08l0.47 -0.58c0.19,-0.24 0.15,-0.58 -0.08,-0.77l-2.61 -2.12c-0.23,-0.19 -0.58,-0.16 -0.77,0.08z"/>
    <path class="fil157" d="M92.72 82.45l-0.22 0.3c-0.09,0.12 0.04,0.37 0.28,0.55l2.72 1.98c0.24,0.18 0.52,0.22 0.61,0.1l0.22 -0.3c0.09,-0.12 -0.04,-0.37 -0.28,-0.55l-2.72 -1.98c-0.24,-0.18 -0.52,-0.22 -0.61,-0.1z"/>
    <path class="fil158" d="M94.15 80.34l-0.41 0.62c-0.16,0.25 -0.09,0.59 0.16,0.76l2.82 1.83c0.25,0.17 0.59,0.09 0.76,-0.16l0.41 -0.62c0.16,-0.25 0.09,-0.59 -0.16,-0.76l-2.82 -1.83c-0.25,-0.16 -0.59,-0.09 -0.76,0.16z"/>
    <path class="fil159" d="M95.28 78.47l-0.19 0.32c-0.08,0.13 0.07,0.36 0.34,0.51l2.91 1.68c0.26,0.15 0.54,0.17 0.61,0.03l0.19 -0.32c0.08,-0.13 -0.07,-0.36 -0.34,-0.51l-2.91 -1.68c-0.26,-0.15 -0.54,-0.17 -0.61,-0.03z"/>
    <path class="fil160" d="M96.49 76.23l-0.34 0.66c-0.14,0.27 -0.03,0.6 0.24,0.74l2.99 1.53c0.27,0.14 0.6,0.03 0.74,-0.24l0.34 -0.66c0.14,-0.27 0.03,-0.6 -0.24,-0.74l-3 -1.53c-0.27,-0.14 -0.6,-0.03 -0.74,0.24z"/>
    <path class="fil161" d="M97.42 74.25l-0.15 0.34c-0.06,0.14 0.11,0.35 0.39,0.48l3.07 1.37c0.28,0.12 0.55,0.11 0.61,-0.03l0.15 -0.34c0.06,-0.14 -0.11,-0.35 -0.39,-0.48l-3.07 -1.37c-0.28,-0.12 -0.55,-0.11 -0.61,0.03z"/>
    <path class="fil162" d="M98.38 71.89l-0.27 0.69c-0.11,0.28 0.03,0.6 0.32,0.71l3.14 1.21c0.28,0.11 0.6,-0.03 0.71,-0.31l0.27 -0.69c0.11,-0.28 -0.03,-0.6 -0.32,-0.71l-3.14 -1.21c-0.28,-0.11 -0.6,0.03 -0.71,0.31z"/>
    <path class="fil163" d="M99.09 69.83l-0.12 0.36c-0.05,0.15 0.15,0.34 0.44,0.43l3.2 1.04c0.29,0.09 0.56,0.05 0.61,-0.09l0.12 -0.36c0.05,-0.15 -0.15,-0.34 -0.44,-0.43l-3.2 -1.04c-0.29,-0.09 -0.56,-0.05 -0.61,0.09z"/>
    <path class="fil164" d="M99.8 67.38l-0.19 0.72c-0.08,0.29 0.1,0.59 0.39,0.67l3.25 0.87c0.29,0.08 0.59,-0.09 0.67,-0.39l0.19 -0.72c0.08,-0.29 -0.1,-0.59 -0.39,-0.67l-3.25 -0.87c-0.29,-0.08 -0.59,0.09 -0.67,0.39z"/>
    <path class="fil165" d="M100.3 65.25l-0.08 0.37c-0.03,0.15 0.18,0.32 0.48,0.38l3.29 0.7c0.3,0.06 0.56,-0.01 0.59,-0.16l0.08 -0.37c0.03,-0.15 -0.18,-0.32 -0.48,-0.38l-3.29 -0.7c-0.3,-0.06 -0.56,0.01 -0.59,0.16z"/>
    <path class="fil166" d="M100.74 62.74l-0.12 0.73c-0.05,0.3 0.16,0.58 0.46,0.63l3.32 0.52c0.3,0.05 0.58,-0.16 0.63,-0.46l0.12 -0.73c0.05,-0.3 -0.16,-0.58 -0.46,-0.63l-3.32 -0.52c-0.3,-0.05 -0.58,0.16 -0.63,0.46z"/>
    <path class="fil167" d="M101.01 60.57l-0.04 0.37c-0.02,0.15 0.22,0.3 0.52,0.33l3.34 0.35c0.3,0.03 0.56,-0.07 0.57,-0.22l0.04 -0.37c0.02,-0.15 -0.22,-0.3 -0.52,-0.33l-3.34 -0.35c-0.3,-0.03 -0.56,0.07 -0.57,0.22z"/>
    <path class="fil168" d="M101.19 58.03l-0.04 0.74c-0.02,0.3 0.22,0.56 0.52,0.57l3.36 0.17c0.3,0.02 0.56,-0.22 0.58,-0.52l0.04 -0.74c0.02,-0.3 -0.22,-0.56 -0.52,-0.57l-3.36 -0.17c-0.3,-0.02 -0.56,0.22 -0.58,0.52z"/>
    <path class="fil169" d="M101.24 55.85l0 0.38c0,0.15 0.25,0.28 0.55,0.28l3.36 0c0.3,0 0.55,-0.12 0.55,-0.28l0 -0.38c0,-0.15 -0.25,-0.28 -0.55,-0.28l-3.36 0c-0.3,0 -0.55,0.12 -0.55,0.28z"/>
    <path class="fil170" d="M101.16 53.29l0.04 0.74c0.02,0.3 0.27,0.53 0.58,0.52l3.36 -0.17c0.3,-0.02 0.53,-0.27 0.52,-0.57l-0.04 -0.74c-0.02,-0.3 -0.27,-0.53 -0.58,-0.52l-3.36 0.17c-0.3,0.02 -0.53,0.27 -0.52,0.57z"/>
    <path class="fil171" d="M100.97 51.12l0.04 0.37c0.02,0.15 0.27,0.25 0.57,0.22l3.34 -0.35c0.3,-0.03 0.53,-0.18 0.52,-0.33l-0.04 -0.37c-0.02,-0.15 -0.27,-0.25 -0.57,-0.22l-3.34 0.35c-0.3,0.03 -0.53,0.18 -0.52,0.33z"/>
    <path class="fil172" d="M100.63 48.59l0.12 0.73c0.05,0.3 0.33,0.5 0.63,0.46l3.32 -0.52c0.3,-0.05 0.5,-0.33 0.46,-0.63l-0.12 -0.73c-0.05,-0.3 -0.33,-0.5 -0.63,-0.46l-3.32 0.52c-0.3,0.05 -0.5,0.33 -0.46,0.63z"/>
    <path class="fil173" d="M100.22 46.45l0.08 0.37c0.03,0.15 0.3,0.22 0.59,0.16l3.29 -0.7c0.3,-0.06 0.51,-0.23 0.48,-0.38l-0.08 -0.37c-0.03,-0.15 -0.3,-0.22 -0.59,-0.16l-3.29 0.7c-0.3,0.06 -0.51,0.23 -0.48,0.38z"/>
    <path class="fil174" d="M99.61 43.97l0.19 0.72c0.08,0.29 0.38,0.47 0.67,0.39l3.25 -0.87c0.29,-0.08 0.47,-0.38 0.39,-0.67l-0.19 -0.72c-0.08,-0.29 -0.38,-0.47 -0.67,-0.39l-3.25 0.87c-0.29,0.08 -0.47,0.38 -0.39,0.67z"/>
    <path class="fil175" d="M98.98 41.88l0.12 0.36c0.05,0.15 0.32,0.19 0.61,0.09l3.2 -1.04c0.29,-0.09 0.48,-0.29 0.44,-0.43l-0.12 -0.36c-0.05,-0.15 -0.32,-0.19 -0.61,-0.09l-3.2 1.04c-0.29,0.09 -0.48,0.29 -0.44,0.43z"/>
    <path class="fil176" d="M98.11 39.48l0.27 0.69c0.11,0.28 0.43,0.42 0.71,0.31l3.14 -1.21c0.28,-0.11 0.42,-0.42 0.32,-0.71l-0.27 -0.69c-0.11,-0.28 -0.43,-0.42 -0.71,-0.31l-3.14 1.21c-0.28,0.11 -0.42,0.42 -0.32,0.71z"/>
    <path class="fil177" d="M97.26 37.47l0.15 0.34c0.06,0.14 0.34,0.15 0.61,0.03l3.07 -1.37c0.28,-0.12 0.45,-0.34 0.39,-0.48l-0.15 -0.34c-0.06,-0.14 -0.34,-0.15 -0.61,-0.03l-3.07 1.37c-0.28,0.12 -0.45,0.34 -0.39,0.48z"/>
    <path class="fil178" d="M96.15 35.18l0.34 0.66c0.14,0.27 0.47,0.38 0.74,0.24l3 -1.53c0.27,-0.14 0.38,-0.47 0.24,-0.74l-0.34 -0.66c-0.14,-0.27 -0.47,-0.38 -0.74,-0.24l-2.99 1.53c-0.27,0.14 -0.38,0.47 -0.24,0.74z"/>
    <path class="fil179" d="M95.09 33.27l0.19 0.32c0.08,0.13 0.35,0.12 0.61,-0.03l2.91 -1.68c0.26,-0.15 0.41,-0.38 0.34,-0.51l-0.19 -0.33c-0.08,-0.13 -0.35,-0.12 -0.61,0.03l-2.91 1.68c-0.26,0.15 -0.41,0.38 -0.34,0.51z"/>
    <path class="fil180" d="M93.75 31.1l0.41 0.62c0.17,0.25 0.5,0.32 0.76,0.16l2.82 -1.83c0.25,-0.17 0.33,-0.5 0.16,-0.76l-0.41 -0.62c-0.17,-0.25 -0.5,-0.32 -0.76,-0.16l-2.82 1.83c-0.25,0.16 -0.33,0.5 -0.16,0.76z"/>
    <path class="fil181" d="M92.5 29.31l0.22 0.3c0.09,0.12 0.36,0.08 0.61,-0.1l2.72 -1.98c0.24,-0.18 0.37,-0.42 0.28,-0.55l-0.22 -0.3c-0.09,-0.12 -0.36,-0.08 -0.61,0.1l-2.72 1.98c-0.24,0.18 -0.37,0.42 -0.28,0.55z"/>
    <path class="fil182" d="M90.93 27.3l0.47 0.58c0.19,0.24 0.54,0.27 0.77,0.08l2.61 -2.12c0.24,-0.19 0.27,-0.53 0.08,-0.77l-0.47 -0.58c-0.19,-0.24 -0.53,-0.27 -0.77,-0.08l-2.61 2.12c-0.23,0.19 -0.27,0.53 -0.08,0.77z"/>
    <path class="fil183" d="M89.5 25.65l0.25 0.28c0.1,0.11 0.37,0.04 0.59,-0.16l2.5 -2.25c0.23,-0.2 0.32,-0.46 0.22,-0.57l-0.25 -0.28c-0.1,-0.11 -0.37,-0.04 -0.59,0.16l-2.5 2.25c-0.22,0.2 -0.32,0.46 -0.22,0.57z"/>
    <path class="fil184" d="M87.73 23.81l0.53 0.53c0.21,0.21 0.56,0.21 0.77,-0l2.38 -2.38c0.21,-0.21 0.21,-0.56 0,-0.77l-0.53 -0.53c-0.21,-0.21 -0.56,-0.21 -0.77,0l-2.38 2.38c-0.21,0.21 -0.21,0.56 -0,0.77z"/>
    <path class="fil185" d="M86.14 22.31l0.28 0.25c0.11,0.1 0.37,0 0.57,-0.22l2.25 -2.5c0.2,-0.22 0.27,-0.49 0.16,-0.59l-0.28 -0.25c-0.11,-0.1 -0.37,-0 -0.57,0.22l-2.25 2.5c-0.2,0.22 -0.27,0.49 -0.16,0.59z"/>
    <path class="fil186" d="M84.19 20.67l0.58 0.47c0.24,0.19 0.58,0.15 0.77,-0.08l2.12 -2.61c0.19,-0.24 0.16,-0.58 -0.08,-0.77l-0.58 -0.47c-0.24,-0.19 -0.58,-0.15 -0.77,0.08l-2.12 2.61c-0.19,0.23 -0.16,0.58 0.08,0.77z"/>
    <path class="fil187" d="M82.45 19.35l0.3 0.22c0.12,0.09 0.37,-0.04 0.55,-0.28l1.98 -2.72c0.18,-0.24 0.22,-0.52 0.1,-0.61l-0.3 -0.22c-0.12,-0.09 -0.37,0.04 -0.55,0.28l-1.98 2.72c-0.18,0.24 -0.22,0.52 -0.1,0.61z"/>
    <path class="fil188" d="M80.34 17.91l0.62 0.41c0.25,0.17 0.59,0.09 0.76,-0.16l1.83 -2.82c0.17,-0.25 0.09,-0.59 -0.16,-0.76l-0.62 -0.41c-0.25,-0.16 -0.59,-0.09 -0.76,0.16l-1.83 2.82c-0.16,0.25 -0.09,0.59 0.16,0.76z"/>
    <path class="fil189" d="M78.47 16.78l0.32 0.19c0.13,0.08 0.36,-0.07 0.51,-0.34l1.68 -2.91c0.15,-0.26 0.17,-0.54 0.03,-0.61l-0.33 -0.19c-0.13,-0.08 -0.36,0.07 -0.51,0.34l-1.68 2.91c-0.15,0.26 -0.17,0.54 -0.03,0.61z"/>
    <path class="fil190" d="M76.23 15.58l0.66 0.34c0.27,0.14 0.6,0.03 0.74,-0.24l1.53 -3c0.14,-0.27 0.03,-0.6 -0.24,-0.74l-0.66 -0.34c-0.27,-0.14 -0.6,-0.03 -0.74,0.24l-1.53 2.99c-0.14,0.27 -0.03,0.6 0.24,0.74z"/>
    <path class="fil191" d="M74.25 14.65l0.34 0.15c0.14,0.06 0.35,-0.11 0.48,-0.39l1.37 -3.07c0.12,-0.28 0.11,-0.55 -0.03,-0.61l-0.34 -0.15c-0.14,-0.06 -0.35,0.11 -0.48,0.39l-1.37 3.07c-0.12,0.28 -0.11,0.55 0.03,0.61z"/>
    <path class="fil192" d="M71.89 13.69l0.69 0.27c0.28,0.11 0.6,-0.03 0.71,-0.32l1.21 -3.14c0.11,-0.28 -0.03,-0.6 -0.31,-0.71l-0.69 -0.27c-0.28,-0.11 -0.6,0.03 -0.71,0.32l-1.21 3.14c-0.11,0.28 0.03,0.6 0.31,0.71z"/>
    <path class="fil193" d="M69.83 12.97l0.36 0.12c0.15,0.05 0.34,-0.15 0.43,-0.44l1.04 -3.2c0.09,-0.29 0.05,-0.56 -0.09,-0.61l-0.36 -0.12c-0.15,-0.05 -0.34,0.15 -0.43,0.44l-1.04 3.2c-0.09,0.29 -0.05,0.56 0.09,0.61z"/>
    <path class="fil194" d="M67.38 12.26l0.72 0.19c0.29,0.08 0.59,-0.1 0.67,-0.39l0.87 -3.25c0.08,-0.29 -0.09,-0.59 -0.39,-0.67l-0.72 -0.19c-0.29,-0.08 -0.59,0.1 -0.67,0.39l-0.87 3.25c-0.08,0.29 0.09,0.59 0.39,0.67z"/>
    <path class="fil195" d="M65.25 11.77l0.37 0.08c0.15,0.03 0.32,-0.18 0.38,-0.48l0.7 -3.29c0.06,-0.3 -0.01,-0.56 -0.16,-0.59l-0.37 -0.08c-0.15,-0.03 -0.32,0.18 -0.38,0.48l-0.7 3.29c-0.06,0.3 0.01,0.56 0.16,0.59z"/>
    <path class="fil196" d="M62.74 11.32l0.73 0.12c0.3,0.05 0.58,-0.16 0.63,-0.46l0.52 -3.32c0.05,-0.3 -0.16,-0.58 -0.46,-0.63l-0.73 -0.12c-0.3,-0.05 -0.58,0.16 -0.63,0.46l-0.52 3.32c-0.05,0.3 0.16,0.58 0.46,0.63z"/>
    <path class="fil197" d="M60.58 11.06l0.37 0.04c0.15,0.02 0.3,-0.22 0.33,-0.52l0.35 -3.34c0.03,-0.3 -0.07,-0.56 -0.22,-0.57l-0.37 -0.04c-0.15,-0.02 -0.3,0.22 -0.33,0.52l-0.35 3.34c-0.03,0.3 0.07,0.56 0.22,0.57z"/>
    <path class="fil198" d="M58.03 10.87l0.74 0.04c0.3,0.02 0.56,-0.22 0.57,-0.52l0.17 -3.36c0.02,-0.3 -0.22,-0.56 -0.52,-0.58l-0.74 -0.04c-0.3,-0.02 -0.56,0.22 -0.57,0.52l-0.17 3.36c-0.02,0.3 0.22,0.56 0.52,0.58z"/>
    <path class="fil199" d="M55.85 10.83l0.38 0c0.15,0 0.28,-0.25 0.28,-0.55l0 -3.36c0,-0.3 -0.12,-0.55 -0.28,-0.55l-0.38 0c-0.15,0 -0.28,0.24 -0.28,0.55l0 3.36c0,0.3 0.12,0.55 0.28,0.55z"/>
   </g>
  </g>
 </g>
</svg>
