<?xml version="1.0" encoding="UTF-8"?>
<!DOCTYPE svg PUBLIC "-//W3C//DTD SVG 1.1//EN" "http://www.w3.org/Graphics/SVG/1.1/DTD/svg11.dtd">
<!-- Creator: CorelDRAW 2021 (64-Bit) -->
<svg xmlns="http://www.w3.org/2000/svg" xml:space="preserve" width="2.48806in" height="2.48806in" version="1.1" style="shape-rendering:geometricPrecision; text-rendering:geometricPrecision; image-rendering:optimizeQuality; fill-rule:evenodd; clip-rule:evenodd"
viewBox="0 0 115.62 115.62"
 xmlns:xlink="http://www.w3.org/1999/xlink"
 xmlns:xodm="http://www.corel.com/coreldraw/odm/2003">
 <defs>
  <style type="text/css">
   <![CDATA[
    .str0 {stroke:black;stroke-width:0.32;stroke-linecap:round;stroke-linejoin:round;stroke-miterlimit:2.61313}
    .fil0 {fill:white}
    .fil1 {fill:white;fill-rule:nonzero}
   ]]>
  </style>
 </defs>
 <g id="Layer_x0020_1">
  <metadata id="CorelCorpID_0Corel-Layer"/>
  <g id="_2253891447680">
   <path class="fil0" d="M0 57.11c-0.39,31.93 25.18,58.12 57.11,58.51 31.93,0.39 58.12,-25.18 58.51,-57.11 0.39,-31.93 -25.18,-58.12 -57.11,-58.51 -0.24,-0 -0.47,-0 -0.71,-0 -31.6,0 -57.41,25.43 -57.79,57.11zm111.16 0.7c0,29.47 -23.89,53.35 -53.35,53.35 -29.47,0 -53.35,-23.89 -53.35,-53.35 0,-29.47 23.89,-53.35 53.35,-53.35 29.47,0 53.35,23.89 53.35,53.35z"/>
   <path class="fil0" d="M88.96 57.12l13.86 0 0 -0.48 -13.67 0 -1.68 -1.54c-1.25,-13.8 -11.67,-24.8 -25.39,-26.77l-0.07 0.47c13.52,1.94 23.8,12.8 24.99,26.43l0.01 0.09 1.95 1.79z"/>
   <path class="fil0" d="M29.41 48.84l-0.04 0.12 1.89 2.58 14.37 0 0 -0.48 -14.13 0 -1.61 -2.19c2.81,-8.77 9.68,-15.79 18.41,-18.78l-0.16 -0.45c-8.91,3.05 -15.92,10.23 -18.75,19.2z"/>
   <path class="fil0" d="M16.53 57.81c0,22.76 18.52,41.28 41.28,41.28 17.31,0 32.9,-10.93 38.81,-27.19l0.12 -0.32 -2.27 0 -0.06 0.15c-5.75,15.09 -20.46,25.23 -36.6,25.23 -21.59,0 -39.16,-17.57 -39.16,-39.16 0,-21.59 17.57,-39.16 39.16,-39.16 16.42,0 31.22,10.37 36.82,25.8l0.06 0.16 2.24 0 -0.11 -0.32c-5.76,-16.6 -21.43,-27.76 -39,-27.76 -22.76,0 -41.28,18.52 -41.28,41.28zm0.48 0c0,-22.5 18.3,-40.8 40.8,-40.8 17.26,0 32.66,10.88 38.44,27.12l-1.23 0c-5.71,-15.53 -20.64,-25.95 -37.21,-25.95 -21.86,0 -39.64,17.78 -39.64,39.64 0,21.86 17.78,39.64 39.64,39.64 16.29,0 31.13,-10.19 36.99,-25.39l1.25 0c-5.93,15.9 -21.25,26.55 -38.24,26.55 -22.5,0 -40.8,-18.3 -40.8,-40.8z"/>
   <path class="fil0" d="M82.8 57.12l3.14 0 -0.01 -0.25c-0.5,-15.25 -12.85,-27.2 -28.12,-27.2 -11.3,0 -21.46,6.72 -25.89,17.11l-0.05 0.12 1.83 2.76 11.95 -0 0 -0.48 -11.69 0 -1.54 -2.34c4.38,-10.15 14.34,-16.7 25.4,-16.7 14.93,0 27.02,11.62 27.63,26.49l-2.45 0 -3.25 -3.25 0 -6.45 -0.48 0 0 6.65 3.53 3.53z"/>
   <path class="fil0" d="M78.69 58.5l0 0.48 6.76 0c-0.61,14.88 -12.7,26.49 -27.63,26.49 -11.06,0 -21.02,-6.55 -25.4,-16.7l1.54 -2.33 11.69 0 0 -0.48 -11.95 0 -1.83 2.76 0.05 0.12c4.43,10.39 14.59,17.11 25.89,17.11 15.27,0 27.62,-11.95 28.12,-27.2l0.01 -0.25 -7.25 0z"/>
   <path class="fil0" d="M57.81 83.82c-9.29,0 -17.91,-4.99 -22.55,-13.04l1.45 -2.49 8.94 0 0 -0.48 -9.21 0 -1.72 2.97 0.07 0.12c4.71,8.27 13.54,13.4 23.04,13.4 13.65,0 24.98,-10.22 26.35,-23.78l-0.48 -0.05c-1.35,13.31 -12.48,23.35 -25.88,23.35z"/>
   <path class="fil0" d="M34.77 44.73l-0.07 0.12 1.73 2.96 9.21 0 0 -0.48 -8.93 0 -1.45 -2.49c4.64,-8.05 13.27,-13.04 22.55,-13.04 13.4,0 24.53,10.04 25.88,23.35l0.48 -0.05c-1.38,-13.56 -12.71,-23.78 -26.35,-23.78 -9.5,0 -18.33,5.14 -23.04,13.41z"/>
   <polygon class="fil0" points="100.63,66.43 102.06,66.43 102.06,65.95 100.63,65.95 "/>
   <path class="fil0" d="M21.46 57.81c0,20.04 16.31,36.35 36.35,36.35 16.24,0 30.62,-10.89 35,-26.5l0.59 -0.48 -0.3 -0.37 -0.71 0.57 -0.02 0.07c-4.3,15.44 -18.51,26.22 -34.56,26.22 -19.78,0 -35.87,-16.09 -35.87,-35.87 0,-19.78 16.09,-35.87 35.87,-35.87 16.05,0 30.26,10.78 34.56,26.22l0.02 0.08 1.89 1.43 7.78 0 0 -0.48 -7.62 0 -1.63 -1.24c-4.38,-15.6 -18.76,-26.49 -35,-26.49 -20.04,0 -36.35,16.31 -36.35,36.35z"/>
   <path class="fil0" d="M31.26 64.09l-1.89 2.58 0.04 0.12c2.83,8.97 9.84,16.15 18.75,19.2l0.16 -0.45c-8.73,-2.99 -15.6,-10.01 -18.41,-18.78l1.61 -2.19 14.13 0 0 -0.48 -14.37 0z"/>
   <path class="fil0" d="M88.96 58.51l-1.95 1.79 -0.01 0.09c-1.19,13.62 -11.46,24.48 -24.99,26.42l0.07 0.47c13.71,-1.97 24.14,-12.96 25.39,-26.76l1.68 -1.54 13.67 -0.01 0 -0.48 -13.86 0.01z"/>
   <path class="fil0" d="M19.82 57.81c0,20.95 17.04,37.99 37.99,37.99 16.57,0 31.1,-10.58 36.17,-26.34l1.61 -1.18 6.07 0 0 -0.48 -6.23 0 -1.86 1.36 -0.02 0.07c-4.99,15.6 -19.35,26.08 -35.74,26.08 -20.69,0 -37.52,-16.83 -37.52,-37.52 0,-20.69 16.83,-37.52 37.52,-37.52 16.39,0 30.75,10.48 35.74,26.08l0.02 0.07 1.86 1.36 6.23 -0 0 -0.48 -6.07 0 -1.61 -1.18c-5.07,-15.76 -19.6,-26.34 -36.17,-26.34 -20.95,0 -37.99,17.04 -37.99,37.99z"/>
   <path class="fil0" d="M48.16 27.9c-10.52,3.39 -18.57,12.19 -21,22.97l-0.03 0.11 1.93 2.42 16.58 0 0 -0.48 -16.34 0 -1.64 -2.06c2.4,-10.45 10.17,-19 20.34,-22.4l-0 7.24 0.48 0 0 -7.9 -0.31 0.1z"/>
   <polygon class="fil0" points="55.31,23.52 52.23,23.52 52.23,35.69 52.71,35.69 52.71,23.99 55.31,23.99 "/>
   <path class="fil0" d="M51.3 35.69l0 -11.98 -0.29 0.06c-15.08,2.99 -26.5,15.78 -27.78,31.1l-0.01 0.1 1.97 2.14 20.46 0 0 -0.48 -20.25 0 -1.68 -1.83c1.3,-14.97 12.42,-27.46 27.11,-30.51l0 11.4 0.48 0z"/>
   <path class="fil0" d="M27.05 55.26l18.59 0 0 -0.48 -18.37 0 -1.67 -1.94c1.96,-12.82 11.28,-23.19 23.81,-26.52l0 9.38 0.48 0 0 -9.99 -0.3 0.08c-12.9,3.3 -22.5,13.94 -24.47,27.1l-0.02 0.11 1.95 2.27z"/>
   <polygon class="fil0" points="58.05,23.34 57.57,23.34 57.57,35.69 58.05,35.69 "/>
   <path class="fil0" d="M102.75 55.26l0 -0.48 -12.17 -0 -1.67 -1.46c-1.98,-13.82 -13,-24.77 -26.83,-26.65l-0.27 -0.04 0 9.05 0.48 0 0 -8.5c13.53,1.96 24.27,12.73 26.17,26.29l0.01 0.09 1.94 1.69 12.35 0z"/>
   <path class="fil0" d="M102.6 53.4l0 -0.48 -10.66 0 -1.66 -1.38c-2.78,-14.5 -14.95,-25.49 -29.63,-26.74l-0.26 -0.02 0 10.91 0.48 0 0 -10.39c14.37,1.34 26.26,12.17 28.95,26.41l0.02 0.08 1.92 1.6 10.83 -0z"/>
   <path class="fil0" d="M102.37 51.54l0 -0.48 -9.15 -0 -1.64 -1.3c-3.58,-15.06 -16.87,-26 -32.35,-26.62l-0.25 -0.01 0 12.57 0.48 0 -0 -12.07c15.18,0.72 28.19,11.51 31.67,26.32l0.02 0.08 1.91 1.51 9.32 0z"/>
   <path class="fil0" d="M93.12 60.84l0 -0.48 -2.71 0 -1.94 1.69 -0.01 0.09c-1.9,13.55 -12.64,24.33 -26.17,26.29l0 -8.68 -0.48 0 0 9.22 0.27 -0.04c13.84,-1.88 24.86,-12.83 26.83,-26.64l1.67 -1.46 2.53 0z"/>
   <polygon class="fil0" points="102.75,60.84 102.75,60.36 100.63,60.36 100.63,60.84 "/>
   <polygon class="fil0" points="57.57,92.28 58.05,92.28 58.05,79.76 57.57,79.76 "/>
   <polygon class="fil0" points="100.63,64.56 102.37,64.56 102.37,64.09 100.63,64.09 "/>
   <path class="fil0" d="M91.15 65.59l-0.02 0.08c-3.49,14.82 -16.49,25.62 -31.67,26.34l0 -12.26 -0.48 0 0 12.76 0.25 -0.01c15.47,-0.62 28.76,-11.57 32.35,-26.64l1.68 -1.33 -0.3 -0.37 -1.81 1.44z"/>
   <polygon class="fil0" points="102.6,62.7 102.6,62.22 100.63,62.22 100.63,62.7 "/>
   <path class="fil0" d="M93.12 62.7l0 -0.48 -1.35 0 -1.93 1.6 -0.02 0.08c-2.69,14.2 -14.57,25 -28.95,26.35l0 -10.5 -0.48 0 0 11.03 0.26 -0.02c14.68,-1.26 26.85,-12.22 29.62,-26.67l1.66 -1.38 1.17 0z"/>
   <polygon class="fil0" points="52.23,92.11 55.31,92.11 55.31,91.63 52.71,91.63 52.71,79.76 52.23,79.76 "/>
   <path class="fil0" d="M29.07 62.23l-1.93 2.42 0.03 0.11c2.43,10.77 10.48,19.57 21,22.97l0.31 0.1 0 -8.07 -0.48 0 0 7.41c-10.17,-3.4 -17.94,-11.95 -20.34,-22.4l1.64 -2.06 16.35 0 0 -0.48 -16.58 0z"/>
   <path class="fil0" d="M45.64 60.37l-18.59 0 -1.95 2.27 0.02 0.11c1.97,13.16 11.57,23.8 24.47,27.1l0.3 0.08 0 -10.16 -0.48 0 0 9.55c-12.53,-3.33 -21.84,-13.7 -23.81,-26.52l1.67 -1.94 18.37 0 0 -0.48z"/>
   <path class="fil0" d="M25.18 58.51l-1.97 2.14 0.01 0.1c1.29,15.31 12.71,28.1 27.78,31.1l0.29 0.06 0 -12.15 -0.48 0 0 11.57c-14.69,-3.05 -25.8,-15.55 -27.11,-30.51l1.68 -1.83 20.25 -0 0 -0.48 -20.46 0.01z"/>
   <polygon class="fil0" points="52.47,24.93 55.31,24.93 55.31,24.45 52.47,24.45 "/>
   <polygon class="fil0" points="52.47,26.47 55.31,26.47 55.31,25.99 52.47,25.99 "/>
   <polygon class="fil0" points="55.31,27.49 55.31,27.01 52.47,27.01 52.47,27.49 "/>
   <polygon class="fil0" points="55.31,91.04 55.31,90.56 52.47,90.56 52.47,91.04 "/>
   <polygon class="fil0" points="55.31,89.55 55.31,89.07 52.47,89.07 52.47,89.55 "/>
   <polygon class="fil0" points="55.31,88.48 55.31,88 52.47,88 52.47,88.48 "/>
   <path class="fil0" d="M53.94 25.11l2.61 0c0.27,0 0.48,-0.22 0.48,-0.48l0 -0.87c0,-0.27 -0.22,-0.48 -0.48,-0.48l-2.61 0c-0.27,0 -0.48,0.22 -0.48,0.48l0 0.87c0,0.27 0.22,0.48 0.48,0.48z"/>
   <path class="fil0" d="M95.18 57.29l0 0.84c0,0.34 0.28,0.62 0.62,0.62l3.8 0c0.34,0 0.62,-0.28 0.62,-0.62l0 -0.84c0,-0.34 -0.28,-0.62 -0.62,-0.62l-3.8 0c-0.34,0 -0.62,0.28 -0.62,0.62z"/>
   <path class="fil0" d="M99.6 52.94l-3.8 0c-0.34,0 -0.62,0.28 -0.62,0.62l0 0.84c0,0.34 0.28,0.62 0.62,0.62l3.8 0c0.34,0 0.62,-0.28 0.62,-0.62l0 -0.84c0,-0.34 -0.28,-0.62 -0.62,-0.62z"/>
   <path class="fil0" d="M35.64 55.13l3.8 0c0.34,0 0.62,-0.28 0.62,-0.62l0 -0.84c0,-0.34 -0.28,-0.62 -0.62,-0.62l-3.8 0c-0.34,0 -0.62,0.28 -0.62,0.62l0 0.84c0,0.34 0.28,0.62 0.62,0.62z"/>
   <path class="fil0" d="M35.64 58.85l3.8 0c0.34,0 0.62,-0.28 0.62,-0.62l0 -0.84c0,-0.34 -0.28,-0.62 -0.62,-0.62l-3.8 0c-0.34,0 -0.62,0.28 -0.62,0.62l0 0.84c0,0.34 0.28,0.62 0.62,0.62z"/>
   <path class="fil0" d="M77.58 58.35l0 0.77c0,0.31 0.25,0.57 0.57,0.57l3.49 0c0.31,0 0.57,-0.25 0.57,-0.57l0 -0.77c0,-0.31 -0.25,-0.57 -0.57,-0.57l-3.49 0c-0.31,0 -0.57,0.25 -0.57,0.57z"/>
   <path class="fil0" d="M79.91 47.59l-0.84 0c-0.34,0 -0.62,0.28 -0.62,0.62l0 3.8c0,0.34 0.28,0.62 0.62,0.62l0.84 0c0.34,0 0.62,-0.28 0.62,-0.62l0 -3.8c0,-0.34 -0.28,-0.62 -0.62,-0.62z"/>
   <path class="fil0" d="M39.44 60.49l-3.8 0c-0.34,0 -0.62,0.28 -0.62,0.62l0 0.84c0,0.34 0.28,0.62 0.62,0.62l3.8 0c0.34,0 0.62,-0.28 0.62,-0.62l0 -0.84c0,-0.34 -0.28,-0.62 -0.62,-0.62z"/>
   <path class="fil0" d="M57.03 27.19l0 -0.87c0,-0.27 -0.22,-0.48 -0.48,-0.48l-2.61 0c-0.27,0 -0.48,0.22 -0.48,0.48l0 0.87c0,0.27 0.22,0.48 0.48,0.48l2.61 0c0.27,0 0.48,-0.22 0.48,-0.48z"/>
   <path class="fil0" d="M53.94 92.25l2.61 0c0.27,0 0.48,-0.22 0.48,-0.48l0 -0.87c0,-0.27 -0.22,-0.48 -0.48,-0.48l-2.61 0c-0.27,0 -0.48,0.22 -0.48,0.48l0 0.87c0,0.26 0.22,0.48 0.48,0.48z"/>
   <path class="fil0" d="M53.94 89.7l2.61 0c0.27,0 0.48,-0.22 0.48,-0.48l0 -0.87c0,-0.27 -0.22,-0.48 -0.48,-0.48l-2.61 0c-0.27,0 -0.48,0.21 -0.48,0.48l0 0.87c0,0.27 0.22,0.48 0.48,0.48z"/>
   <path class="fil0" d="M92.88 67.24l8 0 0 -7.56 -8 0 0 7.56zm0.48 -7.08l7.04 0 0 6.6 -7.04 0 0 -6.6z"/>
   <polygon class="fil0" points="92.95,61.77 93.28,62.11 95.31,60.09 94.97,59.75 "/>
   <polygon class="fil0" points="98.43,66.83 98.77,67.17 100.8,65.14 100.47,64.81 "/>
   <polygon class="fil0" points="96.33,66.83 96.67,67.17 100.8,63.03 100.46,62.7 "/>
   <polygon class="fil0" points="102.8,60.93 102.32,60.93 102.32,60.94 "/>
   <polygon class="fil0" points="94.22,66.83 94.55,67.17 100.8,60.92 100.46,60.58 "/>
   <polygon class="fil0" points="92.95,65.99 93.28,66.33 99.53,60.09 99.19,59.75 "/>
   <polygon class="fil0" points="92.95,63.89 93.28,64.23 97.41,60.09 97.07,59.75 "/>
   <g>
    <g>
     <g>
      <polygon class="fil0" points="56.95,49.44 57.43,49.44 57.43,52.61 63.44,52.61 63.44,53.09 56.95,53.09 "/>
      <path class="fil0" d="M58.81 52.14l2.6 0c0.23,0 0.42,0.19 0.42,0.42l0 0.57c0,0.23 -0.19,0.42 -0.42,0.42l-2.6 0c-0.23,0 -0.42,-0.19 -0.42,-0.42l0 -0.57c0,-0.23 0.19,-0.42 0.42,-0.42z"/>
     </g>
     <g>
      <polygon class="fil0" points="54.26,49.44 54.74,49.44 54.74,53.11 56.23,54.6 63.44,54.6 63.44,55.08 56.03,55.08 54.26,53.31 "/>
      <path class="fil0" d="M57.67 54.13l2.6 0c0.23,0 0.42,0.19 0.42,0.42l0 0.57c0,0.23 -0.19,0.42 -0.42,0.42l-2.6 0c-0.23,0 -0.42,-0.19 -0.42,-0.42l0 -0.57c0,-0.23 0.19,-0.42 0.42,-0.42z"/>
     </g>
     <g>
      <polygon class="fil0" points="63.44,57.06 54.24,57.06 52.18,55 52.18,49.44 52.66,49.44 52.66,54.81 54.44,56.59 63.44,56.59 "/>
      <path class="fil0" d="M59.11 57.53l-2.6 0c-0.23,0 -0.42,-0.19 -0.42,-0.42l0 -0.57c0,-0.23 0.19,-0.42 0.42,-0.42l2.6 0c0.23,0 0.42,0.19 0.42,0.42l0 0.57c0,0.23 -0.19,0.42 -0.42,0.42z"/>
     </g>
    </g>
    <g>
     <g>
      <polygon class="fil0" points="56.95,66.19 57.43,66.19 57.43,63.01 63.44,63.01 63.44,62.53 56.95,62.53 "/>
      <path class="fil0" d="M58.81 63.48l2.6 0c0.23,0 0.42,-0.19 0.42,-0.42l0 -0.57c0,-0.23 -0.19,-0.42 -0.42,-0.42l-2.6 0c-0.23,0 -0.42,0.19 -0.42,0.42l0 0.57c0,0.23 0.19,0.42 0.42,0.42z"/>
     </g>
     <g>
      <polygon class="fil0" points="54.26,66.19 54.74,66.19 54.74,62.51 56.23,61.02 63.44,61.02 63.44,60.54 56.03,60.55 54.26,62.31 "/>
      <path class="fil0" d="M57.67 61.49l2.6 0c0.23,0 0.42,-0.19 0.42,-0.42l0 -0.57c0,-0.23 -0.19,-0.42 -0.42,-0.42l-2.6 0c-0.23,0 -0.42,0.19 -0.42,0.42l0 0.57c0,0.23 0.19,0.42 0.42,0.42z"/>
     </g>
     <g>
      <polygon class="fil0" points="63.44,58.56 54.24,58.56 52.18,60.62 52.18,66.19 52.66,66.19 52.66,60.82 54.44,59.04 63.44,59.04 "/>
      <path class="fil0" d="M59.11 58.09l-2.6 0c-0.23,0 -0.42,0.19 -0.42,0.42l0 0.57c0,0.23 0.19,0.42 0.42,0.42l2.6 0c0.23,0 0.42,-0.19 0.42,-0.42l0 -0.57c0,-0.23 -0.19,-0.42 -0.42,-0.42z"/>
     </g>
    </g>
   </g>
   <path class="fil0" d="M12.63 57.81c0,24.91 20.27,45.18 45.18,45.18 24.91,0 45.18,-20.27 45.18,-45.18 0,-24.91 -20.27,-45.18 -45.18,-45.18 -24.91,0 -45.18,20.27 -45.18,45.18zm0.48 0c0,-24.65 20.05,-44.7 44.7,-44.7 24.65,0 44.7,20.05 44.7,44.7 0,24.65 -20.05,44.7 -44.7,44.7 -24.65,0 -44.7,-20.05 -44.7,-44.7z"/>
   <path class="fil0" d="M57.73 11.85c-1.66,0 -3.33,0.09 -4.97,0.27 -0.66,0.07 -1.13,0.66 -1.06,1.32 0.06,0.59 0.55,1.03 1.12,1.06 0.06,0 0.13,0 0.2,-0 1.56,-0.17 3.14,-0.26 4.71,-0.26 0.66,0 1.19,-0.53 1.19,-1.19 -0,-0.66 -0.54,-1.19 -1.19,-1.19 -0,0 -0,0 -0,0zm3.65 1.32c-0.07,0.66 0.41,1.24 1.06,1.31 1.56,0.17 3.13,0.42 4.66,0.75 0.06,0.01 0.13,0.02 0.19,0.03 0.58,0.03 1.11,-0.36 1.23,-0.94 0.14,-0.64 -0.27,-1.28 -0.91,-1.42 -1.61,-0.35 -3.26,-0.62 -4.91,-0.79 -0.04,-0 -0.08,-0.01 -0.13,-0.01 -0.62,0 -1.12,0.45 -1.19,1.07zm-13.53 -0.24c-1.62,0.36 -3.23,0.81 -4.79,1.34 -0.62,0.21 -0.96,0.89 -0.75,1.51 0.16,0.48 0.59,0.78 1.06,0.81 0.15,0.01 0.3,-0.01 0.45,-0.06 1.48,-0.5 3.01,-0.93 4.54,-1.27 0.64,-0.14 1.05,-0.78 0.91,-1.42 -0.12,-0.56 -0.61,-0.94 -1.16,-0.94 -0.09,0 -0.17,0.01 -0.26,0.03zm23.05 2.04c-0.21,0.63 0.13,1.3 0.75,1.51 1.49,0.5 2.96,1.08 4.39,1.74 0.14,0.06 0.29,0.1 0.43,0.11 0.48,0.03 0.94,-0.23 1.15,-0.69 0.28,-0.6 0.01,-1.31 -0.58,-1.58 -1.5,-0.69 -3.06,-1.31 -4.63,-1.83 -0.13,-0.04 -0.25,-0.06 -0.38,-0.06 -0.5,0 -0.96,0.32 -1.13,0.82zm-32.46 1.15c-1.5,0.7 -2.98,1.48 -4.39,2.34 -0.56,0.34 -0.75,1.08 -0.4,1.64 0.21,0.35 0.58,0.55 0.96,0.57 0.23,0.01 0.47,-0.04 0.68,-0.17 1.34,-0.81 2.74,-1.56 4.16,-2.22 0.6,-0.28 0.86,-0.99 0.58,-1.59 -0.2,-0.43 -0.63,-0.69 -1.08,-0.69 -0.17,0 -0.34,0.04 -0.5,0.11zm41.36 2.67c-0.34,0.56 -0.16,1.3 0.41,1.64 1.34,0.81 2.66,1.7 3.91,2.64 0.2,0.15 0.42,0.23 0.66,0.24 0.38,0.02 0.77,-0.14 1.02,-0.47 0.4,-0.53 0.3,-1.27 -0.23,-1.67 -1.32,-1 -2.71,-1.94 -4.12,-2.79 -0.19,-0.11 -0.4,-0.17 -0.61,-0.17 -0.41,0 -0.8,0.21 -1.03,0.58zm-49.87 2.47c-1.31,1 -2.59,2.09 -3.79,3.23 -0.48,0.45 -0.5,1.21 -0.05,1.69 0.22,0.23 0.51,0.35 0.8,0.37 0.32,0.02 0.64,-0.09 0.89,-0.33 1.14,-1.08 2.35,-2.11 3.59,-3.06 0.53,-0.4 0.63,-1.15 0.23,-1.67 -0.23,-0.31 -0.59,-0.47 -0.95,-0.47 -0.25,0 -0.51,0.08 -0.72,0.24zm57.74 3.17c-0.45,0.48 -0.43,1.24 0.05,1.69 1.14,1.08 2.24,2.23 3.25,3.42 0.22,0.26 0.53,0.4 0.84,0.42 0.3,0.02 0.6,-0.08 0.84,-0.28 0.5,-0.43 0.56,-1.18 0.13,-1.68 -1.07,-1.26 -2.23,-2.47 -3.43,-3.61 -0.23,-0.22 -0.53,-0.33 -0.82,-0.33 -0.32,0 -0.63,0.13 -0.87,0.37zm-64.95 3.67c-1.07,1.26 -2.08,2.6 -3.01,3.96 -0.37,0.55 -0.23,1.29 0.32,1.66 0.19,0.13 0.39,0.19 0.6,0.2 0.4,0.02 0.81,-0.16 1.06,-0.52 0.88,-1.3 1.84,-2.56 2.86,-3.76 0.43,-0.5 0.36,-1.26 -0.14,-1.68 -0.22,-0.19 -0.5,-0.28 -0.77,-0.28 -0.34,0 -0.68,0.14 -0.91,0.42zm71.43 3.53c-0.54,0.37 -0.68,1.11 -0.31,1.66 0.88,1.3 1.71,2.65 2.45,4.04 0.2,0.38 0.59,0.61 0.99,0.63 0.21,0.01 0.43,-0.03 0.63,-0.14 0.58,-0.31 0.8,-1.03 0.49,-1.62 -0.78,-1.46 -1.65,-2.89 -2.58,-4.26 -0.23,-0.34 -0.61,-0.52 -0.99,-0.52 -0.23,0 -0.47,0.07 -0.67,0.21zm-77 4.7c-0.77,1.46 -1.48,2.98 -2.09,4.52 -0.24,0.61 0.06,1.31 0.67,1.55 0.12,0.05 0.25,0.08 0.37,0.08 0.5,0.03 0.98,-0.26 1.18,-0.75 0.58,-1.46 1.24,-2.9 1.98,-4.28 0.31,-0.58 0.09,-1.31 -0.5,-1.61 -0.18,-0.09 -0.37,-0.14 -0.56,-0.14 -0.43,0 -0.84,0.23 -1.06,0.64zm81.79 3.71c-0.61,0.25 -0.91,0.94 -0.66,1.55 0.58,1.45 1.1,2.96 1.52,4.47 0.14,0.51 0.59,0.84 1.08,0.87 0.13,0.01 0.26,-0.01 0.39,-0.04 0.63,-0.18 1.01,-0.84 0.83,-1.47 -0.45,-1.59 -0.99,-3.18 -1.6,-4.71 -0.19,-0.47 -0.63,-0.75 -1.11,-0.75 -0.15,0 -0.3,0.03 -0.45,0.09zm-85.46 5.53c-0.44,1.6 -0.8,3.23 -1.06,4.86 -0.11,0.65 0.34,1.26 0.99,1.37 0.04,0.01 0.08,0.01 0.13,0.01 0.6,0.03 1.14,-0.39 1.24,-1 0.25,-1.55 0.59,-3.1 1,-4.61 0.17,-0.64 -0.2,-1.29 -0.83,-1.47 -0.11,-0.03 -0.21,-0.04 -0.32,-0.04 -0.52,0 -1,0.35 -1.15,0.88zm-1.59 9.81c-0.09,1.65 -0.09,3.33 -0,4.97 0.03,0.61 0.52,1.1 1.12,1.13 0.04,0 0.09,0 0.13,0 0.66,-0.04 1.16,-0.6 1.13,-1.26 -0.08,-1.56 -0.08,-3.15 0,-4.72 0.04,-0.66 -0.48,-1.18 -1.13,-1.26 -0.02,-0 -0.04,-0 -0.07,-0 -0.63,0 -1.16,0.49 -1.19,1.13zm1.52 8.55c-0.65,0.11 -1.09,0.72 -0.99,1.37 0.27,1.64 0.63,3.27 1.07,4.86 0.14,0.51 0.59,0.85 1.08,0.87 0.13,0.01 0.26,-0.01 0.39,-0.04 0.64,-0.18 1.01,-0.84 0.83,-1.47 -0.42,-1.51 -0.76,-3.06 -1.01,-4.61 -0.1,-0.59 -0.61,-1 -1.18,-1 -0.06,0 -0.13,0.01 -0.19,0.02zm86.4 5.62c-0.42,1.51 -0.93,3.02 -1.51,4.47 -0.24,0.61 0.05,1.31 0.67,1.55 0.12,0.05 0.25,0.08 0.38,0.08 0.5,0.03 0.98,-0.26 1.18,-0.75 0.61,-1.53 1.15,-3.12 1.59,-4.72 0.18,-0.63 -0.2,-1.29 -0.83,-1.47 -0.11,-0.03 -0.21,-0.04 -0.32,-0.04 -0.53,0 -1,0.34 -1.15,0.87zm-84.06 3.78c-0.61,0.24 -0.91,0.94 -0.67,1.55 0.61,1.53 1.32,3.05 2.09,4.51 0.2,0.38 0.59,0.61 0.99,0.63 0.21,0.01 0.43,-0.03 0.63,-0.14 0.58,-0.31 0.8,-1.03 0.49,-1.61 -0.74,-1.38 -1.4,-2.82 -1.98,-4.28 -0.19,-0.47 -0.63,-0.75 -1.11,-0.75 -0.15,0 -0.3,0.03 -0.44,0.09zm80.57 4.97c-0.73,1.38 -1.56,2.74 -2.44,4.04 -0.37,0.55 -0.23,1.29 0.31,1.66 0.19,0.13 0.4,0.19 0.61,0.21 0.4,0.02 0.81,-0.16 1.05,-0.52 0.93,-1.37 1.8,-2.8 2.57,-4.26 0.31,-0.58 0.09,-1.31 -0.49,-1.62 -0.18,-0.09 -0.37,-0.14 -0.56,-0.14 -0.43,0 -0.84,0.23 -1.06,0.63zm-76.25 3.69c-0.55,0.37 -0.69,1.11 -0.32,1.66 0.93,1.37 1.94,2.7 3.01,3.96 0.22,0.26 0.53,0.4 0.84,0.42 0.29,0.02 0.6,-0.08 0.84,-0.28 0.5,-0.43 0.56,-1.18 0.14,-1.68 -1.01,-1.19 -1.98,-2.46 -2.86,-3.75 -0.23,-0.34 -0.61,-0.52 -0.99,-0.52 -0.23,0 -0.46,0.07 -0.67,0.21zm70.95 4.1c-1.02,1.19 -2.11,2.34 -3.25,3.42 -0.48,0.45 -0.5,1.21 -0.05,1.69 0.22,0.23 0.51,0.36 0.8,0.37 0.32,0.02 0.64,-0.09 0.89,-0.32 1.2,-1.14 2.35,-2.35 3.43,-3.61 0.43,-0.5 0.37,-1.26 -0.13,-1.68 -0.22,-0.19 -0.5,-0.29 -0.77,-0.29 -0.34,0 -0.67,0.14 -0.91,0.42zm-64.87 3.44c-0.45,0.48 -0.43,1.23 0.05,1.69 1.2,1.14 2.48,2.22 3.79,3.22 0.2,0.15 0.43,0.23 0.66,0.24 0.38,0.02 0.77,-0.14 1.02,-0.47 0.4,-0.53 0.3,-1.27 -0.23,-1.67 -1.25,-0.95 -2.46,-1.98 -3.6,-3.06 -0.23,-0.22 -0.53,-0.33 -0.82,-0.33 -0.32,0 -0.63,0.12 -0.87,0.37zm58.02 3.03c-1.25,0.95 -2.56,1.84 -3.91,2.65 -0.56,0.34 -0.75,1.07 -0.41,1.64 0.21,0.35 0.58,0.56 0.96,0.58 0.23,0.01 0.47,-0.04 0.68,-0.17 1.42,-0.85 2.8,-1.79 4.12,-2.79 0.53,-0.4 0.63,-1.15 0.23,-1.67 -0.24,-0.31 -0.59,-0.47 -0.95,-0.47 -0.25,0 -0.51,0.08 -0.72,0.24zm-50.48 3.04c-0.34,0.57 -0.16,1.3 0.41,1.64 1.42,0.86 2.9,1.64 4.4,2.33 0.14,0.07 0.29,0.1 0.43,0.11 0.47,0.03 0.94,-0.23 1.15,-0.69 0.28,-0.6 0.02,-1.31 -0.58,-1.58 -1.42,-0.66 -2.82,-1.4 -4.17,-2.21 -0.19,-0.12 -0.4,-0.17 -0.61,-0.17 -0.41,0 -0.8,0.21 -1.03,0.58zm42.4 1.82c-1.42,0.66 -2.9,1.25 -4.38,1.75 -0.63,0.21 -0.96,0.89 -0.75,1.51 0.16,0.48 0.59,0.78 1.07,0.81 0.15,0.01 0.3,-0.01 0.45,-0.06 1.57,-0.53 3.12,-1.15 4.62,-1.84 0.6,-0.28 0.86,-0.99 0.58,-1.59 -0.2,-0.44 -0.63,-0.69 -1.08,-0.69 -0.17,0 -0.34,0.04 -0.5,0.11zm-33.72 2.49c-0.21,0.62 0.13,1.3 0.75,1.51 1.57,0.53 3.18,0.97 4.8,1.33 0.06,0.01 0.13,0.02 0.19,0.03 0.58,0.03 1.1,-0.36 1.23,-0.94 0.14,-0.64 -0.27,-1.28 -0.91,-1.42 -1.53,-0.34 -3.06,-0.76 -4.55,-1.26 -0.13,-0.04 -0.26,-0.06 -0.38,-0.06 -0.5,0 -0.96,0.32 -1.13,0.81zm24.8 0.52c-1.53,0.34 -3.1,0.59 -4.66,0.76 -0.66,0.07 -1.13,0.66 -1.06,1.31 0.06,0.59 0.55,1.03 1.12,1.07 0.06,0 0.13,0 0.19,-0 1.64,-0.18 3.3,-0.44 4.91,-0.8 0.65,-0.14 1.05,-0.78 0.91,-1.42 -0.12,-0.56 -0.61,-0.94 -1.16,-0.94 -0.08,0 -0.17,0.01 -0.26,0.03zm-15.4 1.81c-0.07,0.66 0.4,1.24 1.06,1.32 0.81,0.09 1.62,0.15 2.43,0.2 0.84,0.05 1.69,0.07 2.53,0.07 0.66,0 1.19,-0.53 1.2,-1.19 0,-0.66 -0.52,-1.21 -1.19,-1.2 -1.57,-0 -3.16,-0.09 -4.71,-0.26 -0.04,-0 -0.09,-0.01 -0.13,-0.01 -0.6,0 -1.12,0.45 -1.19,1.07z"/>
   <g>
    <path class="fil0 str0" d="M55.01 91.5c-16.43,-1.35 -29.54,-14.45 -30.89,-30.89l7.54 0c1.3,12.28 11.06,22.04 23.34,23.34l0 7.54zm-30.89 -36.49c1.35,-16.43 14.45,-29.54 30.89,-30.89l0 7.54c-12.28,1.3 -22.04,11.06 -23.34,23.34l-7.54 0zm36.49 -30.89c16.43,1.35 29.54,14.45 30.89,30.89l-7.54 0c-1.3,-12.28 -11.06,-22.04 -23.34,-23.34l0 -7.54zm-2.18 53.27c-3.55,0 -6.74,-0.83 -9.56,-2.5 -2.82,-1.67 -5.04,-3.99 -6.66,-6.97 -1.61,-2.98 -2.42,-6.35 -2.42,-10.11 0,-3.77 0.81,-7.14 2.42,-10.11 1.61,-2.98 3.83,-5.3 6.66,-6.97 2.82,-1.67 6.01,-2.5 9.56,-2.5 3.1,0 5.89,0.61 8.38,1.83 2.49,1.22 4.55,2.98 6.2,5.27l-6.1 6.13c-2.19,-2.94 -4.86,-4.41 -7.99,-4.41 -1.84,0 -3.48,0.45 -4.91,1.34 -1.44,0.9 -2.55,2.16 -3.34,3.79 -0.79,1.63 -1.19,3.51 -1.19,5.62 0,2.12 0.4,3.99 1.19,5.62 0.79,1.63 1.9,2.9 3.34,3.79 1.44,0.9 3.07,1.35 4.91,1.35 3.13,0 5.79,-1.47 7.99,-4.41l6.1 6.13c-1.65,2.3 -3.71,4.05 -6.2,5.27 -2.49,1.22 -5.28,1.83 -8.38,1.83zm33.06 -16.78c-1.35,16.43 -14.45,29.54 -30.89,30.89l0 -7.54c12.28,-1.3 22.04,-11.06 23.34,-23.34l7.54 0z"/>
    <path class="fil1" d="M60.75 23.08c8.45,0.71 16.05,4.43 21.71,10.09 5.67,5.67 9.39,13.29 10.09,21.76 0.05,0.58 -0.39,1.09 -0.97,1.13 -0.03,0 -0.06,0 -0.08,0l0 0 -7.54 0c-0.57,0 -1.03,-0.45 -1.05,-1.01 -0.64,-5.86 -3.29,-11.13 -7.25,-15.09 -3.97,-3.97 -9.26,-6.63 -15.15,-7.25 -0.54,-0.06 -0.94,-0.51 -0.94,-1.05l-0 0 0 -7.54c0,-0.58 0.47,-1.05 1.05,-1.05 0.05,0 0.09,0 0.14,0.01zm20.22 11.57c-5.07,-5.07 -11.8,-8.49 -19.3,-9.37l0 5.45c6.01,0.85 11.39,3.65 15.48,7.74 4.09,4.09 6.89,9.47 7.74,15.48l5.45 0c-0.88,-7.5 -4.29,-14.23 -9.37,-19.3zm-29.36 28.32c0.35,0.73 0.78,1.37 1.27,1.93 0.49,0.56 1.05,1.03 1.68,1.42 0.64,0.4 1.31,0.69 2.03,0.89 0.72,0.2 1.5,0.3 2.33,0.3 1.39,0 2.67,-0.32 3.84,-0.97 1.2,-0.66 2.3,-1.67 3.31,-3.02 0.35,-0.47 1.01,-0.56 1.47,-0.21 0.06,0.05 0.12,0.1 0.17,0.15l6.05 6.08c0.37,0.37 0.4,0.94 0.11,1.35l0 0c-0.87,1.21 -1.85,2.28 -2.96,3.22 -1.1,0.94 -2.31,1.73 -3.63,2.38 -1.33,0.65 -2.73,1.14 -4.2,1.46 -1.47,0.32 -3.02,0.48 -4.64,0.48 -1.86,0 -3.63,-0.22 -5.32,-0.66 -1.69,-0.44 -3.29,-1.11 -4.78,-1.99 -1.49,-0.88 -2.83,-1.94 -4.01,-3.17 -1.18,-1.23 -2.19,-2.63 -3.04,-4.2 -0.85,-1.56 -1.48,-3.23 -1.91,-5.02 -0.43,-1.78 -0.64,-3.64 -0.64,-5.6 0,-1.95 0.21,-3.82 0.64,-5.6 0.43,-1.79 1.06,-3.46 1.91,-5.02 0.85,-1.57 1.86,-2.96 3.04,-4.2 1.18,-1.23 2.52,-2.29 4.01,-3.17 2.99,-1.77 6.36,-2.65 10.1,-2.65 1.62,0 3.17,0.16 4.64,0.48 1.47,0.32 2.87,0.81 4.2,1.46 1.32,0.65 2.53,1.44 3.63,2.38 1.11,0.94 2.1,2.02 2.96,3.22 0.32,0.44 0.24,1.05 -0.16,1.41l-6.05 6.08c-0.41,0.41 -1.07,0.41 -1.49,0 -0.04,-0.04 -0.07,-0.08 -0.1,-0.12l-0 0c-1.01,-1.35 -2.11,-2.36 -3.31,-3.02 -1.17,-0.65 -2.45,-0.97 -3.84,-0.97 -1.64,0 -3.09,0.4 -4.36,1.18 -0.63,0.39 -1.19,0.87 -1.68,1.42 -0.5,0.56 -0.92,1.21 -1.27,1.93 -0.36,0.74 -0.63,1.54 -0.81,2.39 -0.18,0.86 -0.27,1.79 -0.27,2.78 0,0.99 0.09,1.92 0.27,2.78 0.18,0.85 0.45,1.65 0.81,2.39zm-0.31 3.32c-0.62,-0.7 -1.15,-1.5 -1.58,-2.41 -0.43,-0.89 -0.76,-1.85 -0.97,-2.87 -0.21,-1.01 -0.32,-2.08 -0.32,-3.21 0,-1.12 0.11,-2.19 0.32,-3.21 0.22,-1.02 0.54,-1.98 0.97,-2.87 0.44,-0.91 0.97,-1.71 1.58,-2.41 0.62,-0.71 1.34,-1.31 2.15,-1.82 1.61,-1 3.43,-1.51 5.47,-1.51 1.74,0 3.36,0.41 4.85,1.23 1.16,0.64 2.23,1.53 3.22,2.66l4.63 -4.65c-0.64,-0.8 -1.33,-1.52 -2.07,-2.15 -0.96,-0.82 -2.03,-1.52 -3.2,-2.09 -1.16,-0.57 -2.4,-1 -3.72,-1.29 -1.32,-0.29 -2.72,-0.43 -4.2,-0.43 -3.36,0 -6.37,0.78 -9.03,2.35 -1.33,0.79 -2.52,1.72 -3.56,2.81 -1.04,1.09 -1.94,2.34 -2.71,3.75 -0.77,1.42 -1.34,2.92 -1.72,4.5 -0.38,1.59 -0.57,3.3 -0.57,5.11 0,1.81 0.19,3.52 0.57,5.11 0.38,1.58 0.95,3.09 1.72,4.5 0.77,1.41 1.67,2.66 2.71,3.75 1.04,1.09 2.23,2.03 3.56,2.81 1.33,0.79 2.74,1.37 4.24,1.77 1.5,0.39 3.1,0.59 4.79,0.59 1.48,0 2.88,-0.14 4.2,-0.43 1.32,-0.29 2.56,-0.72 3.72,-1.29 1.17,-0.57 2.23,-1.27 3.2,-2.09 0.74,-0.63 1.44,-1.35 2.07,-2.15l-4.63 -4.65c-0.99,1.13 -2.06,2.02 -3.22,2.66 -1.49,0.82 -3.11,1.23 -4.85,1.23 -1,0 -1.96,-0.13 -2.88,-0.38 -0.92,-0.25 -1.79,-0.63 -2.59,-1.13 -0.81,-0.5 -1.52,-1.11 -2.15,-1.82zm-27.18 -6.74l7.54 0c0.57,0 1.03,0.45 1.05,1.01 0.64,5.86 3.29,11.13 7.25,15.09 3.97,3.97 9.26,6.63 15.15,7.25 0.54,0.06 0.94,0.51 0.94,1.05l0 0 0 7.54c0,0.58 -0.47,1.05 -1.05,1.05 -0.05,0 -0.09,-0 -0.14,-0.01 -8.45,-0.71 -16.05,-4.43 -21.71,-10.09 -5.67,-5.67 -9.39,-13.29 -10.09,-21.76 -0.05,-0.58 0.39,-1.09 0.97,-1.13 0.03,-0 0.06,-0 0.08,-0l0 -0zm6.61 2.11l-5.45 0c0.88,7.5 4.29,14.23 9.37,19.3 5.07,5.07 11.8,8.49 19.3,9.37l0 -5.45c-6.01,-0.85 -11.39,-3.65 -15.48,-7.74 -4.09,-4.09 -6.89,-9.47 -7.74,-15.48zm29.83 21.24c5.86,-0.64 11.13,-3.29 15.09,-7.25 3.97,-3.97 6.63,-9.26 7.25,-15.15 0.06,-0.54 0.51,-0.94 1.05,-0.94l0 -0 7.54 0c0.58,0 1.05,0.47 1.05,1.05 0,0.05 -0,0.09 -0.01,0.14 -0.71,8.45 -4.43,16.05 -10.09,21.71 -5.67,5.67 -13.29,9.39 -21.76,10.09 -0.58,0.05 -1.09,-0.39 -1.13,-0.97 -0,-0.03 -0,-0.05 -0,-0.08l-0 0 0 -7.54c0,-0.57 0.45,-1.03 1.01,-1.05zm16.58 -5.76c-4.09,4.09 -9.47,6.89 -15.48,7.74l0 5.45c7.5,-0.88 14.23,-4.29 19.3,-9.37 5.07,-5.07 8.49,-11.8 9.37,-19.3l-5.45 0c-0.85,6.01 -3.65,11.39 -7.74,15.48zm-21.08 -53.02l0 7.54c0,0.57 -0.45,1.03 -1.01,1.05 -5.86,0.64 -11.13,3.29 -15.09,7.25 -3.97,3.97 -6.63,9.26 -7.25,15.15 -0.06,0.54 -0.51,0.94 -1.05,0.94l0 0 -7.54 0c-0.58,0 -1.05,-0.47 -1.05,-1.05 0,-0.05 0,-0.09 0.01,-0.14 0.71,-8.45 4.43,-16.05 10.09,-21.71 5.67,-5.67 13.29,-9.39 21.76,-10.09 0.58,-0.05 1.09,0.39 1.13,0.97 0,0.03 0,0.06 0,0.08l0 0zm-2.11 6.61l0 -5.45c-7.5,0.88 -14.23,4.29 -19.3,9.37 -5.07,5.07 -8.49,11.8 -9.37,19.3l5.45 0c0.85,-6.01 3.65,-11.39 7.74,-15.48 4.09,-4.09 9.47,-6.89 15.48,-7.74z"/>
   </g>
   <g>
    <g>
     <path class="fil0" d="M76.84 56.86l2.41 0c0.22,0 0.39,-0.18 0.39,-0.39l0 -0.53c0,-0.22 -0.18,-0.39 -0.39,-0.39l-2.41 0c-0.22,0 -0.39,0.18 -0.39,0.39l0 0.53c0,0.22 0.18,0.39 0.39,0.39z"/>
     <path class="fil0" d="M78.68 54.16l0 -0.53c0,-0.22 -0.18,-0.39 -0.39,-0.39l-2.41 0c-0.22,0 -0.39,0.18 -0.39,0.39l0 0.53c0,0.22 0.18,0.39 0.39,0.39l2.41 0c0.22,0 0.39,-0.17 0.39,-0.39z"/>
    </g>
    <g>
     <path class="fil0" d="M76.84 60.61l2.41 0c0.22,0 0.39,0.18 0.39,0.39l0 0.53c0,0.22 -0.18,0.39 -0.39,0.39l-2.41 0c-0.22,0 -0.39,-0.18 -0.39,-0.39l0 -0.53c0,-0.22 0.18,-0.39 0.39,-0.39z"/>
     <path class="fil0" d="M78.68 63.31l0 0.53c0,0.22 -0.18,0.39 -0.39,0.39l-2.41 0c-0.22,0 -0.39,-0.18 -0.39,-0.39l0 -0.53c0,-0.22 0.18,-0.39 0.39,-0.39l2.41 0c0.22,0 0.39,0.17 0.39,0.39z"/>
    </g>
   </g>
   <g>
    <path class="fil0" d="M54.95 10.63l0.78 -0.04c0.32,-0.02 0.56,-0.29 0.54,-0.6l-0.18 -3.51c-0.02,-0.32 -0.28,-0.56 -0.6,-0.54l-0.78 0.04c-0.32,0.02 -0.56,0.29 -0.54,0.6l0.18 3.51c0.02,0.32 0.28,0.56 0.6,0.54z"/>
    <path class="fil0" d="M52.67 10.82l0.39 -0.04c0.16,-0.02 0.26,-0.29 0.23,-0.6l-0.36 -3.5c-0.03,-0.31 -0.19,-0.56 -0.35,-0.54l-0.39 0.04c-0.16,0.02 -0.26,0.28 -0.23,0.6l0.36 3.5c0.03,0.31 0.19,0.56 0.35,0.54z"/>
    <path class="fil0" d="M50.03 11.18l0.77 -0.12c0.31,-0.05 0.53,-0.34 0.48,-0.65l-0.55 -3.47c-0.05,-0.31 -0.34,-0.53 -0.65,-0.48l-0.77 0.12c-0.31,0.05 -0.53,0.34 -0.48,0.65l0.55 3.47c0.05,0.31 0.34,0.53 0.65,0.48z"/>
    <path class="fil0" d="M47.79 11.61l0.38 -0.08c0.16,-0.03 0.23,-0.31 0.16,-0.62l-0.73 -3.44c-0.07,-0.31 -0.24,-0.53 -0.4,-0.5l-0.38 0.08c-0.16,0.03 -0.23,0.31 -0.16,0.62l0.73 3.44c0.07,0.31 0.24,0.53 0.4,0.5z"/>
    <path class="fil0" d="M45.2 12.25l0.75 -0.2c0.31,-0.08 0.49,-0.4 0.4,-0.7l-0.91 -3.4c-0.08,-0.31 -0.4,-0.49 -0.7,-0.41l-0.75 0.2c-0.31,0.08 -0.49,0.4 -0.4,0.7l0.91 3.4c0.08,0.3 0.39,0.49 0.7,0.41z"/>
    <path class="fil0" d="M43.01 12.91l0.37 -0.12c0.15,-0.05 0.2,-0.33 0.1,-0.63l-1.09 -3.34c-0.1,-0.3 -0.3,-0.5 -0.45,-0.46l-0.37 0.12c-0.15,0.05 -0.2,0.33 -0.1,0.63l1.09 3.34c0.1,0.3 0.3,0.5 0.45,0.46z"/>
    <path class="fil0" d="M40.51 13.81l0.73 -0.28c0.3,-0.11 0.44,-0.44 0.33,-0.74l-1.26 -3.28c-0.11,-0.3 -0.44,-0.44 -0.74,-0.33l-0.73 0.28c-0.3,0.11 -0.44,0.44 -0.33,0.74l1.26 3.28c0.11,0.29 0.44,0.44 0.74,0.33z"/>
    <path class="fil0" d="M38.4 14.7l0.36 -0.16c0.15,-0.07 0.16,-0.35 0.03,-0.64l-1.43 -3.21c-0.13,-0.29 -0.35,-0.47 -0.5,-0.41l-0.36 0.16c-0.15,0.07 -0.16,0.35 -0.03,0.64l1.43 3.21c0.13,0.29 0.35,0.47 0.5,0.41z"/>
    <path class="fil0" d="M36 15.86l0.69 -0.35c0.28,-0.14 0.39,-0.49 0.25,-0.77l-1.6 -3.13c-0.14,-0.28 -0.49,-0.39 -0.77,-0.25l-0.69 0.35c-0.28,0.14 -0.39,0.49 -0.25,0.77l1.6 3.13c0.14,0.28 0.49,0.39 0.77,0.25z"/>
    <path class="fil0" d="M34.01 16.97l0.34 -0.2c0.14,-0.08 0.12,-0.37 -0.04,-0.64l-1.76 -3.04c-0.16,-0.27 -0.4,-0.43 -0.54,-0.35l-0.34 0.2c-0.14,0.08 -0.12,0.37 0.04,0.64l1.76 3.04c0.16,0.27 0.4,0.43 0.54,0.35z"/>
    <path class="fil0" d="M31.74 18.38l0.65 -0.42c0.27,-0.17 0.34,-0.53 0.17,-0.79l-1.92 -2.95c-0.17,-0.27 -0.53,-0.34 -0.79,-0.17l-0.65 0.42c-0.27,0.17 -0.34,0.53 -0.17,0.79l1.92 2.95c0.17,0.26 0.53,0.34 0.79,0.17z"/>
    <path class="fil0" d="M29.87 19.68l0.32 -0.23c0.13,-0.09 0.08,-0.38 -0.1,-0.63l-2.07 -2.84c-0.19,-0.26 -0.44,-0.39 -0.57,-0.29l-0.32 0.23c-0.13,0.09 -0.08,0.38 0.1,0.63l2.07 2.84c0.19,0.26 0.44,0.39 0.57,0.29z"/>
    <path class="fil0" d="M27.76 21.32l0.6 -0.49c0.25,-0.2 0.28,-0.56 0.08,-0.81l-2.21 -2.73c-0.2,-0.25 -0.56,-0.28 -0.81,-0.08l-0.6 0.49c-0.25,0.2 -0.28,0.56 -0.08,0.81l2.21 2.73c0.2,0.25 0.56,0.28 0.81,0.08z"/>
    <path class="fil0" d="M26.04 22.82l0.29 -0.26c0.12,-0.11 0.04,-0.38 -0.17,-0.62l-2.35 -2.61c-0.21,-0.24 -0.48,-0.34 -0.6,-0.23l-0.29 0.26c-0.12,0.11 -0.04,0.38 0.17,0.62l2.35 2.61c0.21,0.23 0.48,0.34 0.6,0.23z"/>
    <path class="fil0" d="M24.11 24.66l0.55 -0.55c0.22,-0.22 0.22,-0.59 -0,-0.81l-2.49 -2.49c-0.22,-0.22 -0.59,-0.22 -0.81,-0l-0.55 0.55c-0.22,0.22 -0.22,0.59 0,0.81l2.49 2.49c0.22,0.22 0.59,0.22 0.81,0z"/>
    <path class="fil0" d="M22.55 26.33l0.26 -0.29c0.11,-0.12 0,-0.39 -0.23,-0.6l-2.61 -2.35c-0.24,-0.21 -0.51,-0.29 -0.62,-0.17l-0.26 0.29c-0.11,0.12 -0,0.39 0.23,0.6l2.61 2.35c0.23,0.21 0.51,0.29 0.62,0.17z"/>
    <path class="fil0" d="M20.83 28.37l0.49 -0.6c0.2,-0.25 0.16,-0.61 -0.08,-0.81l-2.73 -2.21c-0.25,-0.2 -0.61,-0.16 -0.81,0.08l-0.49 0.6c-0.2,0.25 -0.16,0.61 0.08,0.81l2.73 2.21c0.25,0.2 0.61,0.16 0.81,-0.08z"/>
    <path class="fil0" d="M19.45 30.19l0.23 -0.32c0.09,-0.13 -0.04,-0.38 -0.29,-0.57l-2.84 -2.07c-0.26,-0.19 -0.54,-0.23 -0.63,-0.1l-0.23 0.32c-0.09,0.13 0.04,0.38 0.29,0.57l2.84 2.07c0.26,0.19 0.54,0.23 0.63,0.1z"/>
    <path class="fil0" d="M17.95 32.39l0.42 -0.65c0.17,-0.27 0.1,-0.62 -0.17,-0.79l-2.95 -1.92c-0.27,-0.17 -0.62,-0.1 -0.79,0.17l-0.42 0.65c-0.17,0.27 -0.1,0.62 0.17,0.79l2.95 1.92c0.26,0.17 0.62,0.1 0.79,-0.17z"/>
    <path class="fil0" d="M16.77 34.35l0.2 -0.34c0.08,-0.14 -0.08,-0.38 -0.35,-0.54l-3.04 -1.76c-0.27,-0.16 -0.56,-0.17 -0.64,-0.04l-0.2 0.34c-0.08,0.14 0.08,0.38 0.35,0.54l3.04 1.76c0.27,0.16 0.56,0.17 0.64,0.04z"/>
    <path class="fil0" d="M15.51 36.7l0.35 -0.69c0.14,-0.28 0.03,-0.63 -0.25,-0.77l-3.13 -1.6c-0.28,-0.14 -0.63,-0.03 -0.77,0.25l-0.35 0.69c-0.14,0.28 -0.03,0.63 0.25,0.77l3.13 1.6c0.28,0.14 0.63,0.03 0.77,-0.25z"/>
    <path class="fil0" d="M14.54 38.76l0.16 -0.36c0.07,-0.15 -0.12,-0.37 -0.41,-0.5l-3.21 -1.43c-0.29,-0.13 -0.58,-0.12 -0.64,0.03l-0.16 0.36c-0.07,0.15 0.12,0.37 0.41,0.5l3.21 1.43c0.29,0.13 0.58,0.12 0.64,-0.03z"/>
    <path class="fil0" d="M13.53 41.23l0.28 -0.73c0.11,-0.3 -0.03,-0.63 -0.33,-0.74l-3.28 -1.26c-0.3,-0.11 -0.63,0.03 -0.74,0.33l-0.28 0.73c-0.11,0.3 0.03,0.63 0.33,0.74l3.28 1.26c0.29,0.11 0.63,-0.03 0.74,-0.33z"/>
    <path class="fil0" d="M12.79 43.39l0.12 -0.37c0.05,-0.15 -0.16,-0.35 -0.46,-0.45l-3.34 -1.09c-0.3,-0.1 -0.58,-0.05 -0.63,0.1l-0.12 0.37c-0.05,0.15 0.15,0.35 0.46,0.45l3.34 1.09c0.3,0.1 0.58,0.05 0.63,-0.1z"/>
    <path class="fil0" d="M12.04 45.95l0.2 -0.75c0.08,-0.31 -0.1,-0.62 -0.41,-0.7l-3.4 -0.91c-0.31,-0.08 -0.62,0.1 -0.7,0.4l-0.2 0.75c-0.08,0.31 0.1,0.62 0.41,0.7l3.4 0.91c0.31,0.08 0.62,-0.1 0.7,-0.4z"/>
    <path class="fil0" d="M11.53 48.17l0.08 -0.38c0.03,-0.16 -0.19,-0.34 -0.5,-0.4l-3.44 -0.73c-0.31,-0.07 -0.59,0.01 -0.62,0.16l-0.08 0.38c-0.03,0.16 0.19,0.34 0.5,0.4l3.44 0.73c0.31,0.07 0.59,-0.01 0.62,-0.16z"/>
    <path class="fil0" d="M11.06 50.8l0.12 -0.77c0.05,-0.31 -0.17,-0.61 -0.48,-0.65l-3.47 -0.55c-0.31,-0.05 -0.61,0.16 -0.65,0.48l-0.12 0.77c-0.05,0.31 0.16,0.61 0.48,0.65l3.47 0.55c0.31,0.05 0.61,-0.16 0.65,-0.48z"/>
    <path class="fil0" d="M10.78 53.06l0.04 -0.39c0.02,-0.16 -0.23,-0.31 -0.54,-0.35l-3.5 -0.36c-0.31,-0.03 -0.58,0.07 -0.6,0.23l-0.04 0.39c-0.02,0.16 0.23,0.31 0.54,0.35l3.5 0.36c0.31,0.03 0.58,-0.07 0.6,-0.23z"/>
    <path class="fil0" d="M10.59 55.72l0.04 -0.78c0.02,-0.32 -0.23,-0.58 -0.54,-0.6l-3.51 -0.18c-0.32,-0.02 -0.59,0.23 -0.6,0.54l-0.04 0.78c-0.02,0.32 0.23,0.58 0.54,0.6l3.51 0.18c0.32,0.02 0.59,-0.23 0.6,-0.54z"/>
    <path class="fil0" d="M10.55 58.01l0 -0.39c0,-0.16 -0.26,-0.29 -0.57,-0.29l-3.52 0c-0.32,0 -0.57,0.13 -0.57,0.29l0 0.39c0,0.16 0.26,0.29 0.57,0.29l3.52 0c0.32,0 0.57,-0.13 0.57,-0.29z"/>
    <path class="fil0" d="M10.63 60.67l-0.04 -0.78c-0.02,-0.32 -0.29,-0.56 -0.6,-0.54l-3.51 0.18c-0.32,0.02 -0.56,0.28 -0.54,0.6l0.04 0.78c0.02,0.32 0.29,0.56 0.6,0.54l3.51 -0.18c0.32,-0.02 0.56,-0.28 0.54,-0.6z"/>
    <path class="fil0" d="M10.82 62.95l-0.04 -0.39c-0.02,-0.16 -0.29,-0.26 -0.6,-0.23l-3.5 0.36c-0.31,0.03 -0.56,0.19 -0.54,0.35l0.04 0.39c0.02,0.16 0.28,0.26 0.6,0.23l3.5 -0.36c0.31,-0.03 0.56,-0.19 0.54,-0.35z"/>
    <path class="fil0" d="M11.18 65.59l-0.12 -0.77c-0.05,-0.31 -0.34,-0.53 -0.65,-0.48l-3.47 0.55c-0.31,0.05 -0.53,0.34 -0.48,0.65l0.12 0.77c0.05,0.31 0.34,0.53 0.65,0.48l3.47 -0.55c0.31,-0.05 0.53,-0.34 0.48,-0.65z"/>
    <path class="fil0" d="M11.61 67.83l-0.08 -0.38c-0.03,-0.16 -0.31,-0.23 -0.62,-0.16l-3.44 0.73c-0.31,0.07 -0.53,0.24 -0.5,0.4l0.08 0.38c0.03,0.16 0.31,0.23 0.62,0.16l3.44 -0.73c0.31,-0.07 0.53,-0.24 0.5,-0.4z"/>
    <path class="fil0" d="M12.24 70.42l-0.2 -0.75c-0.08,-0.31 -0.4,-0.49 -0.7,-0.4l-3.4 0.91c-0.31,0.08 -0.49,0.4 -0.41,0.7l0.2 0.75c0.08,0.31 0.4,0.49 0.7,0.4l3.4 -0.91c0.31,-0.08 0.49,-0.39 0.41,-0.7z"/>
    <path class="fil0" d="M12.91 72.61l-0.12 -0.37c-0.05,-0.15 -0.33,-0.2 -0.63,-0.1l-3.34 1.09c-0.3,0.1 -0.5,0.3 -0.46,0.45l0.12 0.37c0.05,0.15 0.33,0.2 0.63,0.1l3.34 -1.09c0.3,-0.1 0.5,-0.3 0.46,-0.45z"/>
    <path class="fil0" d="M13.81 75.12l-0.28 -0.73c-0.11,-0.3 -0.44,-0.44 -0.74,-0.33l-3.28 1.26c-0.3,0.11 -0.44,0.44 -0.33,0.74l0.28 0.73c0.11,0.3 0.44,0.44 0.74,0.33l3.28 -1.26c0.29,-0.11 0.44,-0.44 0.33,-0.74z"/>
    <path class="fil0" d="M14.7 77.22l-0.16 -0.36c-0.07,-0.15 -0.35,-0.16 -0.64,-0.03l-3.21 1.43c-0.29,0.13 -0.47,0.35 -0.41,0.5l0.16 0.36c0.07,0.15 0.35,0.16 0.64,0.03l3.21 -1.43c0.29,-0.13 0.47,-0.35 0.41,-0.5z"/>
    <path class="fil0" d="M15.86 79.62l-0.35 -0.69c-0.14,-0.28 -0.49,-0.39 -0.77,-0.25l-3.13 1.6c-0.28,0.14 -0.39,0.49 -0.25,0.77l0.35 0.69c0.14,0.28 0.49,0.39 0.77,0.25l3.13 -1.6c0.28,-0.14 0.39,-0.49 0.25,-0.77z"/>
    <path class="fil0" d="M16.97 81.61l-0.2 -0.34c-0.08,-0.14 -0.37,-0.12 -0.64,0.04l-3.04 1.76c-0.27,0.16 -0.43,0.4 -0.35,0.54l0.2 0.34c0.08,0.14 0.37,0.12 0.64,-0.04l3.04 -1.76c0.27,-0.16 0.43,-0.4 0.35,-0.54z"/>
    <path class="fil0" d="M18.38 83.88l-0.42 -0.65c-0.17,-0.27 -0.53,-0.34 -0.79,-0.17l-2.95 1.92c-0.27,0.17 -0.34,0.53 -0.17,0.79l0.42 0.65c0.17,0.27 0.53,0.34 0.79,0.17l2.95 -1.92c0.26,-0.17 0.34,-0.53 0.17,-0.79z"/>
    <path class="fil0" d="M19.68 85.75l-0.23 -0.32c-0.09,-0.13 -0.38,-0.08 -0.63,0.1l-2.84 2.07c-0.26,0.19 -0.39,0.44 -0.29,0.57l0.23 0.32c0.09,0.13 0.38,0.08 0.63,-0.1l2.84 -2.07c0.26,-0.19 0.39,-0.44 0.29,-0.57z"/>
    <path class="fil0" d="M21.32 87.86l-0.49 -0.6c-0.2,-0.25 -0.56,-0.28 -0.81,-0.08l-2.73 2.21c-0.25,0.2 -0.28,0.56 -0.08,0.81l0.49 0.6c0.2,0.25 0.56,0.28 0.81,0.08l2.73 -2.21c0.25,-0.2 0.28,-0.56 0.08,-0.81z"/>
    <path class="fil0" d="M22.82 89.58l-0.26 -0.29c-0.11,-0.12 -0.38,-0.04 -0.62,0.17l-2.61 2.35c-0.24,0.21 -0.34,0.48 -0.23,0.6l0.26 0.29c0.11,0.12 0.38,0.04 0.62,-0.17l2.61 -2.35c0.23,-0.21 0.34,-0.48 0.23,-0.6z"/>
    <path class="fil0" d="M24.66 91.51l-0.55 -0.55c-0.22,-0.22 -0.59,-0.22 -0.81,0l-2.49 2.49c-0.22,0.22 -0.22,0.59 -0,0.81l0.55 0.55c0.22,0.22 0.59,0.22 0.81,-0l2.49 -2.49c0.22,-0.22 0.22,-0.59 0,-0.81z"/>
    <path class="fil0" d="M26.33 93.07l-0.29 -0.26c-0.12,-0.11 -0.39,-0 -0.6,0.23l-2.35 2.61c-0.21,0.24 -0.29,0.51 -0.17,0.62l0.29 0.26c0.12,0.11 0.39,0 0.6,-0.23l2.35 -2.61c0.21,-0.23 0.29,-0.51 0.17,-0.62z"/>
    <path class="fil0" d="M28.37 94.79l-0.6 -0.49c-0.25,-0.2 -0.61,-0.16 -0.81,0.08l-2.21 2.73c-0.2,0.25 -0.16,0.61 0.08,0.81l0.6 0.49c0.25,0.2 0.61,0.16 0.81,-0.08l2.21 -2.73c0.2,-0.25 0.16,-0.61 -0.08,-0.81z"/>
    <path class="fil0" d="M30.19 96.17l-0.32 -0.23c-0.13,-0.09 -0.39,0.04 -0.57,0.29l-2.07 2.84c-0.19,0.26 -0.23,0.54 -0.1,0.63l0.32 0.23c0.13,0.09 0.38,-0.04 0.57,-0.29l2.07 -2.84c0.19,-0.26 0.23,-0.54 0.1,-0.63z"/>
    <path class="fil0" d="M32.39 97.67l-0.65 -0.42c-0.27,-0.17 -0.62,-0.1 -0.79,0.17l-1.92 2.95c-0.17,0.27 -0.1,0.62 0.17,0.79l0.65 0.42c0.27,0.17 0.62,0.1 0.79,-0.17l1.92 -2.95c0.17,-0.26 0.1,-0.62 -0.17,-0.79z"/>
    <path class="fil0" d="M34.35 98.85l-0.34 -0.2c-0.14,-0.08 -0.38,0.08 -0.54,0.35l-1.76 3.04c-0.16,0.27 -0.17,0.56 -0.04,0.64l0.34 0.2c0.14,0.08 0.38,-0.08 0.54,-0.35l1.76 -3.04c0.16,-0.27 0.18,-0.56 0.04,-0.64z"/>
    <path class="fil0" d="M36.7 100.11l-0.69 -0.35c-0.28,-0.14 -0.63,-0.03 -0.77,0.25l-1.6 3.13c-0.14,0.28 -0.03,0.63 0.25,0.77l0.69 0.35c0.28,0.14 0.63,0.03 0.77,-0.25l1.6 -3.13c0.14,-0.28 0.03,-0.63 -0.25,-0.77z"/>
    <path class="fil0" d="M38.76 101.08l-0.36 -0.16c-0.15,-0.07 -0.37,0.12 -0.5,0.41l-1.43 3.21c-0.13,0.29 -0.12,0.58 0.03,0.64l0.36 0.16c0.15,0.07 0.37,-0.12 0.5,-0.41l1.43 -3.21c0.13,-0.29 0.12,-0.58 -0.03,-0.64z"/>
    <path class="fil0" d="M41.23 102.09l-0.73 -0.28c-0.3,-0.11 -0.63,0.03 -0.74,0.33l-1.26 3.28c-0.11,0.3 0.03,0.63 0.33,0.74l0.73 0.28c0.3,0.11 0.63,-0.03 0.74,-0.33l1.26 -3.28c0.11,-0.29 -0.03,-0.63 -0.33,-0.74z"/>
    <path class="fil0" d="M43.39 102.84l-0.37 -0.12c-0.15,-0.05 -0.35,0.15 -0.45,0.46l-1.09 3.34c-0.1,0.3 -0.05,0.58 0.1,0.63l0.37 0.12c0.15,0.05 0.35,-0.15 0.45,-0.46l1.09 -3.34c0.1,-0.3 0.05,-0.58 -0.1,-0.63z"/>
    <path class="fil0" d="M45.95 103.58l-0.75 -0.2c-0.31,-0.08 -0.62,0.1 -0.7,0.41l-0.91 3.4c-0.08,0.31 0.1,0.62 0.4,0.7l0.75 0.2c0.31,0.08 0.62,-0.1 0.7,-0.41l0.91 -3.4c0.08,-0.31 -0.1,-0.62 -0.4,-0.7z"/>
    <path class="fil0" d="M48.17 104.09l-0.38 -0.08c-0.16,-0.03 -0.34,0.19 -0.4,0.5l-0.73 3.44c-0.07,0.31 0.01,0.59 0.16,0.62l0.38 0.08c0.16,0.03 0.34,-0.19 0.4,-0.5l0.73 -3.44c0.07,-0.31 -0.01,-0.59 -0.16,-0.62z"/>
    <path class="fil0" d="M50.8 104.56l-0.77 -0.12c-0.31,-0.05 -0.61,0.17 -0.65,0.48l-0.55 3.47c-0.05,0.31 0.16,0.61 0.48,0.65l0.77 0.12c0.31,0.05 0.6,-0.16 0.65,-0.48l0.55 -3.47c0.05,-0.31 -0.16,-0.61 -0.48,-0.65z"/>
    <path class="fil0" d="M53.06 104.84l-0.39 -0.04c-0.16,-0.02 -0.31,0.23 -0.35,0.54l-0.36 3.5c-0.03,0.31 0.07,0.58 0.23,0.6l0.39 0.04c0.16,0.02 0.31,-0.23 0.35,-0.54l0.36 -3.5c0.03,-0.31 -0.07,-0.58 -0.23,-0.6z"/>
    <path class="fil0" d="M55.72 105.03l-0.78 -0.04c-0.32,-0.02 -0.58,0.23 -0.6,0.54l-0.18 3.51c-0.02,0.32 0.23,0.59 0.54,0.6l0.78 0.04c0.32,0.02 0.58,-0.23 0.6,-0.54l0.18 -3.51c0.02,-0.32 -0.23,-0.59 -0.54,-0.6z"/>
    <path class="fil0" d="M58.01 105.08l-0.39 0c-0.16,0 -0.29,0.26 -0.29,0.57l0 3.52c0,0.32 0.13,0.57 0.29,0.57l0.39 0c0.16,0 0.29,-0.26 0.29,-0.57l0 -3.52c0,-0.32 -0.13,-0.57 -0.29,-0.57z"/>
    <path class="fil0" d="M60.67 104.99l-0.78 0.04c-0.32,0.02 -0.56,0.29 -0.54,0.6l0.18 3.51c0.02,0.32 0.29,0.56 0.6,0.54l0.78 -0.04c0.32,-0.02 0.56,-0.29 0.54,-0.6l-0.18 -3.51c-0.02,-0.32 -0.28,-0.56 -0.6,-0.54z"/>
    <path class="fil0" d="M62.95 104.8l-0.39 0.04c-0.16,0.02 -0.26,0.29 -0.23,0.6l0.36 3.5c0.03,0.31 0.19,0.56 0.35,0.54l0.39 -0.04c0.16,-0.02 0.26,-0.28 0.23,-0.6l-0.36 -3.5c-0.03,-0.31 -0.19,-0.56 -0.35,-0.54z"/>
    <path class="fil0" d="M65.59 104.44l-0.77 0.12c-0.31,0.05 -0.53,0.34 -0.48,0.65l0.55 3.47c0.05,0.31 0.34,0.53 0.65,0.48l0.77 -0.12c0.31,-0.05 0.53,-0.34 0.48,-0.65l-0.55 -3.47c-0.05,-0.31 -0.34,-0.53 -0.65,-0.48z"/>
    <path class="fil0" d="M67.83 104.01l-0.38 0.08c-0.16,0.03 -0.23,0.31 -0.16,0.62l0.73 3.44c0.07,0.31 0.24,0.53 0.4,0.5l0.38 -0.08c0.16,-0.03 0.23,-0.31 0.16,-0.62l-0.73 -3.44c-0.07,-0.31 -0.24,-0.53 -0.4,-0.5z"/>
    <path class="fil0" d="M70.42 103.38l-0.75 0.2c-0.31,0.08 -0.49,0.4 -0.41,0.7l0.91 3.4c0.08,0.31 0.4,0.49 0.7,0.41l0.75 -0.2c0.31,-0.08 0.49,-0.4 0.4,-0.7l-0.91 -3.4c-0.08,-0.31 -0.39,-0.49 -0.7,-0.41z"/>
    <path class="fil0" d="M72.61 102.71l-0.37 0.12c-0.15,0.05 -0.2,0.33 -0.1,0.63l1.09 3.34c0.1,0.3 0.3,0.5 0.45,0.46l0.37 -0.12c0.15,-0.05 0.2,-0.33 0.1,-0.63l-1.09 -3.34c-0.1,-0.3 -0.3,-0.5 -0.45,-0.46z"/>
    <path class="fil0" d="M75.12 101.81l-0.73 0.28c-0.3,0.11 -0.44,0.44 -0.33,0.74l1.26 3.28c0.11,0.3 0.44,0.44 0.74,0.33l0.73 -0.28c0.3,-0.11 0.44,-0.44 0.33,-0.74l-1.26 -3.28c-0.11,-0.29 -0.44,-0.44 -0.74,-0.33z"/>
    <path class="fil0" d="M77.22 100.92l-0.36 0.16c-0.15,0.07 -0.16,0.35 -0.03,0.64l1.43 3.21c0.13,0.29 0.35,0.47 0.5,0.41l0.36 -0.16c0.15,-0.07 0.16,-0.35 0.03,-0.64l-1.43 -3.21c-0.13,-0.29 -0.35,-0.47 -0.5,-0.41z"/>
    <path class="fil0" d="M79.62 99.76l-0.69 0.35c-0.28,0.14 -0.39,0.49 -0.25,0.77l1.6 3.13c0.14,0.28 0.49,0.39 0.77,0.25l0.69 -0.35c0.28,-0.14 0.39,-0.49 0.25,-0.77l-1.6 -3.13c-0.14,-0.28 -0.49,-0.39 -0.77,-0.25z"/>
    <path class="fil0" d="M81.61 98.65l-0.34 0.2c-0.14,0.08 -0.12,0.37 0.04,0.64l1.76 3.04c0.16,0.27 0.4,0.43 0.54,0.35l0.34 -0.2c0.14,-0.08 0.12,-0.37 -0.04,-0.64l-1.76 -3.04c-0.16,-0.27 -0.4,-0.43 -0.54,-0.35z"/>
    <path class="fil0" d="M83.88 97.25l-0.65 0.42c-0.27,0.17 -0.34,0.53 -0.17,0.79l1.92 2.95c0.17,0.27 0.53,0.34 0.79,0.17l0.65 -0.42c0.27,-0.17 0.34,-0.53 0.17,-0.79l-1.92 -2.95c-0.17,-0.26 -0.53,-0.34 -0.79,-0.17z"/>
    <path class="fil0" d="M85.75 95.94l-0.32 0.23c-0.13,0.09 -0.08,0.38 0.1,0.63l2.07 2.84c0.19,0.26 0.44,0.39 0.57,0.29l0.32 -0.23c0.13,-0.09 0.08,-0.38 -0.1,-0.63l-2.07 -2.84c-0.19,-0.26 -0.44,-0.39 -0.57,-0.29z"/>
    <path class="fil0" d="M87.86 94.3l-0.6 0.49c-0.25,0.2 -0.28,0.56 -0.08,0.81l2.21 2.73c0.2,0.25 0.56,0.28 0.81,0.08l0.6 -0.49c0.25,-0.2 0.28,-0.56 0.08,-0.81l-2.21 -2.73c-0.2,-0.25 -0.56,-0.28 -0.81,-0.08z"/>
    <path class="fil0" d="M89.58 92.81l-0.29 0.26c-0.12,0.11 -0.04,0.38 0.17,0.62l2.35 2.61c0.21,0.24 0.48,0.34 0.6,0.23l0.29 -0.26c0.12,-0.11 0.04,-0.38 -0.17,-0.62l-2.35 -2.61c-0.21,-0.23 -0.48,-0.34 -0.6,-0.23z"/>
    <path class="fil0" d="M91.51 90.96l-0.55 0.55c-0.22,0.22 -0.22,0.59 0,0.81l2.49 2.49c0.22,0.22 0.59,0.22 0.81,0l0.55 -0.55c0.22,-0.22 0.22,-0.59 -0,-0.81l-2.49 -2.49c-0.22,-0.22 -0.59,-0.22 -0.81,-0z"/>
    <path class="fil0" d="M93.07 89.29l-0.26 0.29c-0.11,0.12 -0,0.39 0.23,0.6l2.61 2.35c0.24,0.21 0.51,0.29 0.62,0.17l0.26 -0.29c0.11,-0.12 0,-0.39 -0.23,-0.6l-2.61 -2.35c-0.23,-0.21 -0.51,-0.29 -0.62,-0.17z"/>
    <path class="fil0" d="M94.79 87.25l-0.49 0.6c-0.2,0.25 -0.16,0.61 0.08,0.81l2.73 2.21c0.25,0.2 0.61,0.16 0.81,-0.08l0.49 -0.6c0.2,-0.25 0.16,-0.61 -0.08,-0.81l-2.73 -2.21c-0.25,-0.2 -0.61,-0.16 -0.81,0.08z"/>
    <path class="fil0" d="M96.17 85.43l-0.23 0.32c-0.09,0.13 0.04,0.39 0.29,0.57l2.84 2.07c0.26,0.19 0.54,0.23 0.63,0.1l0.23 -0.32c0.09,-0.13 -0.04,-0.38 -0.29,-0.57l-2.84 -2.07c-0.26,-0.19 -0.54,-0.23 -0.63,-0.1z"/>
    <path class="fil0" d="M97.67 83.23l-0.42 0.65c-0.17,0.27 -0.1,0.62 0.17,0.79l2.95 1.92c0.27,0.17 0.62,0.1 0.79,-0.17l0.42 -0.65c0.17,-0.27 0.1,-0.62 -0.17,-0.79l-2.95 -1.92c-0.26,-0.17 -0.62,-0.1 -0.79,0.17z"/>
    <path class="fil0" d="M98.85 81.28l-0.2 0.34c-0.08,0.14 0.08,0.38 0.35,0.54l3.04 1.76c0.27,0.16 0.56,0.17 0.64,0.04l0.2 -0.34c0.08,-0.14 -0.08,-0.38 -0.35,-0.54l-3.04 -1.76c-0.27,-0.16 -0.56,-0.18 -0.64,-0.04z"/>
    <path class="fil0" d="M100.11 78.93l-0.35 0.69c-0.14,0.28 -0.03,0.63 0.25,0.77l3.13 1.6c0.28,0.14 0.63,0.03 0.77,-0.25l0.35 -0.69c0.14,-0.28 0.03,-0.63 -0.25,-0.77l-3.13 -1.6c-0.28,-0.14 -0.63,-0.03 -0.77,0.25z"/>
    <path class="fil0" d="M101.08 76.86l-0.16 0.36c-0.07,0.15 0.12,0.37 0.41,0.5l3.21 1.43c0.29,0.13 0.58,0.12 0.64,-0.03l0.16 -0.36c0.07,-0.15 -0.12,-0.37 -0.41,-0.5l-3.21 -1.43c-0.29,-0.13 -0.58,-0.12 -0.64,0.03z"/>
    <path class="fil0" d="M102.09 74.39l-0.28 0.73c-0.11,0.3 0.03,0.63 0.33,0.74l3.28 1.26c0.3,0.11 0.63,-0.03 0.74,-0.33l0.28 -0.73c0.11,-0.3 -0.03,-0.63 -0.33,-0.74l-3.28 -1.26c-0.29,-0.11 -0.63,0.03 -0.74,0.33z"/>
    <path class="fil0" d="M102.84 72.23l-0.12 0.37c-0.05,0.15 0.15,0.35 0.46,0.45l3.34 1.09c0.3,0.1 0.58,0.05 0.63,-0.1l0.12 -0.37c0.05,-0.15 -0.15,-0.35 -0.46,-0.45l-3.34 -1.09c-0.3,-0.1 -0.58,-0.05 -0.63,0.1z"/>
    <path class="fil0" d="M103.58 69.67l-0.2 0.75c-0.08,0.31 0.1,0.62 0.41,0.7l3.4 0.91c0.31,0.08 0.62,-0.1 0.7,-0.4l0.2 -0.75c0.08,-0.31 -0.1,-0.62 -0.41,-0.7l-3.4 -0.91c-0.31,-0.08 -0.62,0.1 -0.7,0.4z"/>
    <path class="fil0" d="M104.09 67.45l-0.08 0.38c-0.03,0.16 0.19,0.34 0.5,0.4l3.44 0.73c0.31,0.07 0.59,-0.01 0.62,-0.16l0.08 -0.38c0.03,-0.16 -0.19,-0.34 -0.5,-0.4l-3.44 -0.73c-0.31,-0.07 -0.59,0.01 -0.62,0.16z"/>
    <path class="fil0" d="M104.56 64.83l-0.12 0.77c-0.05,0.31 0.17,0.61 0.48,0.65l3.47 0.55c0.31,0.05 0.61,-0.16 0.65,-0.48l0.12 -0.77c0.05,-0.31 -0.16,-0.6 -0.48,-0.65l-3.47 -0.55c-0.31,-0.05 -0.61,0.16 -0.65,0.48z"/>
    <path class="fil0" d="M104.84 62.56l-0.04 0.39c-0.02,0.16 0.23,0.31 0.54,0.35l3.5 0.36c0.31,0.03 0.58,-0.07 0.6,-0.23l0.04 -0.39c0.02,-0.16 -0.23,-0.31 -0.54,-0.35l-3.5 -0.36c-0.31,-0.03 -0.58,0.07 -0.6,0.23z"/>
    <path class="fil0" d="M105.03 59.9l-0.04 0.78c-0.02,0.32 0.23,0.58 0.54,0.6l3.51 0.18c0.32,0.02 0.59,-0.23 0.6,-0.54l0.04 -0.78c0.02,-0.32 -0.23,-0.58 -0.54,-0.6l-3.51 -0.18c-0.32,-0.02 -0.59,0.23 -0.6,0.54z"/>
    <path class="fil0" d="M105.08 57.61l0 0.39c0,0.16 0.26,0.29 0.57,0.29l3.52 0c0.32,0 0.57,-0.13 0.57,-0.29l0 -0.39c0,-0.16 -0.26,-0.29 -0.57,-0.29l-3.52 0c-0.32,0 -0.57,0.13 -0.57,0.29z"/>
    <path class="fil0" d="M104.99 54.95l0.04 0.78c0.02,0.32 0.29,0.56 0.6,0.54l3.51 -0.18c0.32,-0.02 0.56,-0.29 0.54,-0.6l-0.04 -0.78c-0.02,-0.32 -0.29,-0.56 -0.6,-0.54l-3.51 0.18c-0.32,0.02 -0.56,0.28 -0.54,0.6z"/>
    <path class="fil0" d="M104.8 52.67l0.04 0.39c0.02,0.16 0.29,0.26 0.6,0.23l3.5 -0.36c0.31,-0.03 0.56,-0.19 0.54,-0.35l-0.04 -0.39c-0.02,-0.16 -0.28,-0.26 -0.6,-0.23l-3.5 0.36c-0.31,0.03 -0.56,0.19 -0.54,0.35z"/>
    <path class="fil0" d="M104.44 50.03l0.12 0.77c0.05,0.31 0.34,0.53 0.65,0.48l3.47 -0.55c0.31,-0.05 0.53,-0.34 0.48,-0.65l-0.12 -0.77c-0.05,-0.31 -0.34,-0.53 -0.65,-0.48l-3.47 0.55c-0.31,0.05 -0.53,0.34 -0.48,0.65z"/>
    <path class="fil0" d="M104.01 47.79l0.08 0.38c0.03,0.16 0.31,0.23 0.62,0.16l3.44 -0.73c0.31,-0.07 0.53,-0.24 0.5,-0.4l-0.08 -0.38c-0.03,-0.16 -0.31,-0.23 -0.62,-0.16l-3.44 0.73c-0.31,0.07 -0.53,0.24 -0.5,0.4z"/>
    <path class="fil0" d="M103.38 45.2l0.2 0.75c0.08,0.31 0.4,0.49 0.7,0.41l3.4 -0.91c0.31,-0.08 0.49,-0.4 0.41,-0.7l-0.2 -0.75c-0.08,-0.31 -0.4,-0.49 -0.7,-0.4l-3.4 0.91c-0.3,0.08 -0.49,0.39 -0.41,0.7z"/>
    <path class="fil0" d="M102.71 43.01l0.12 0.37c0.05,0.15 0.33,0.2 0.63,0.1l3.34 -1.09c0.3,-0.1 0.5,-0.3 0.46,-0.45l-0.12 -0.37c-0.05,-0.15 -0.33,-0.2 -0.63,-0.1l-3.34 1.09c-0.3,0.1 -0.5,0.3 -0.46,0.45z"/>
    <path class="fil0" d="M101.81 40.51l0.28 0.73c0.11,0.3 0.45,0.44 0.74,0.33l3.28 -1.26c0.3,-0.11 0.44,-0.44 0.33,-0.74l-0.28 -0.73c-0.11,-0.3 -0.44,-0.44 -0.74,-0.33l-3.28 1.26c-0.29,0.11 -0.44,0.44 -0.33,0.74z"/>
    <path class="fil0" d="M100.92 38.4l0.16 0.36c0.07,0.15 0.35,0.16 0.64,0.03l3.21 -1.43c0.29,-0.13 0.47,-0.35 0.41,-0.5l-0.16 -0.36c-0.07,-0.15 -0.35,-0.16 -0.64,-0.03l-3.21 1.43c-0.29,0.13 -0.47,0.35 -0.41,0.5z"/>
    <path class="fil0" d="M99.76 36l0.35 0.69c0.14,0.28 0.49,0.39 0.77,0.25l3.13 -1.6c0.28,-0.14 0.39,-0.49 0.25,-0.77l-0.35 -0.69c-0.14,-0.28 -0.49,-0.39 -0.77,-0.25l-3.13 1.6c-0.28,0.14 -0.39,0.49 -0.25,0.77z"/>
    <path class="fil0" d="M98.65 34.01l0.2 0.34c0.08,0.14 0.37,0.12 0.64,-0.04l3.04 -1.76c0.27,-0.16 0.43,-0.4 0.35,-0.54l-0.2 -0.34c-0.08,-0.14 -0.37,-0.12 -0.64,0.04l-3.04 1.76c-0.27,0.16 -0.43,0.4 -0.35,0.54z"/>
    <path class="fil0" d="M97.25 31.74l0.42 0.65c0.17,0.27 0.53,0.34 0.79,0.17l2.95 -1.92c0.27,-0.17 0.34,-0.53 0.17,-0.79l-0.42 -0.65c-0.17,-0.27 -0.53,-0.34 -0.79,-0.17l-2.95 1.92c-0.26,0.17 -0.34,0.53 -0.17,0.79z"/>
    <path class="fil0" d="M95.94 29.87l0.23 0.32c0.09,0.13 0.38,0.08 0.63,-0.1l2.84 -2.07c0.26,-0.19 0.39,-0.44 0.29,-0.57l-0.23 -0.32c-0.09,-0.13 -0.38,-0.08 -0.63,0.1l-2.84 2.07c-0.26,0.19 -0.39,0.44 -0.29,0.57z"/>
    <path class="fil0" d="M94.3 27.76l0.49 0.6c0.2,0.25 0.56,0.28 0.81,0.08l2.73 -2.21c0.25,-0.2 0.28,-0.56 0.08,-0.81l-0.49 -0.6c-0.2,-0.25 -0.56,-0.28 -0.81,-0.08l-2.73 2.21c-0.25,0.2 -0.28,0.56 -0.08,0.81z"/>
    <path class="fil0" d="M92.81 26.04l0.26 0.29c0.11,0.12 0.38,0.04 0.62,-0.17l2.61 -2.35c0.24,-0.21 0.34,-0.48 0.23,-0.6l-0.26 -0.29c-0.11,-0.12 -0.38,-0.04 -0.62,0.17l-2.61 2.35c-0.23,0.21 -0.34,0.48 -0.23,0.6z"/>
    <path class="fil0" d="M90.96 24.11l0.55 0.55c0.22,0.22 0.59,0.22 0.81,-0l2.49 -2.49c0.22,-0.22 0.22,-0.59 0,-0.81l-0.55 -0.55c-0.22,-0.22 -0.59,-0.22 -0.81,0l-2.49 2.49c-0.22,0.22 -0.22,0.59 -0,0.81z"/>
    <path class="fil0" d="M89.29 22.55l0.29 0.26c0.12,0.11 0.39,0 0.6,-0.23l2.35 -2.61c0.21,-0.24 0.29,-0.51 0.17,-0.62l-0.29 -0.26c-0.12,-0.11 -0.39,-0 -0.6,0.23l-2.35 2.61c-0.21,0.23 -0.29,0.51 -0.17,0.62z"/>
    <path class="fil0" d="M87.25 20.83l0.6 0.49c0.25,0.2 0.61,0.16 0.81,-0.08l2.21 -2.73c0.2,-0.25 0.16,-0.61 -0.08,-0.81l-0.6 -0.49c-0.25,-0.2 -0.61,-0.16 -0.81,0.08l-2.21 2.73c-0.2,0.25 -0.16,0.61 0.08,0.81z"/>
    <path class="fil0" d="M85.43 19.45l0.32 0.23c0.13,0.09 0.38,-0.04 0.57,-0.29l2.07 -2.84c0.19,-0.26 0.23,-0.54 0.1,-0.63l-0.32 -0.23c-0.13,-0.09 -0.38,0.04 -0.57,0.29l-2.07 2.84c-0.19,0.26 -0.23,0.54 -0.1,0.63z"/>
    <path class="fil0" d="M83.23 17.95l0.65 0.42c0.27,0.17 0.62,0.1 0.79,-0.17l1.92 -2.95c0.17,-0.27 0.1,-0.62 -0.17,-0.79l-0.65 -0.42c-0.27,-0.17 -0.62,-0.1 -0.79,0.17l-1.92 2.95c-0.17,0.26 -0.1,0.62 0.17,0.79z"/>
    <path class="fil0" d="M81.28 16.77l0.34 0.2c0.14,0.08 0.38,-0.08 0.54,-0.35l1.76 -3.04c0.16,-0.27 0.17,-0.56 0.04,-0.64l-0.34 -0.2c-0.14,-0.08 -0.38,0.08 -0.54,0.35l-1.76 3.04c-0.16,0.27 -0.17,0.56 -0.04,0.64z"/>
    <path class="fil0" d="M78.93 15.51l0.69 0.35c0.28,0.14 0.63,0.03 0.77,-0.25l1.6 -3.13c0.14,-0.28 0.03,-0.63 -0.25,-0.77l-0.69 -0.35c-0.28,-0.14 -0.63,-0.03 -0.77,0.25l-1.6 3.13c-0.14,0.28 -0.03,0.63 0.25,0.77z"/>
    <path class="fil0" d="M76.86 14.54l0.36 0.16c0.15,0.07 0.37,-0.12 0.5,-0.41l1.43 -3.21c0.13,-0.29 0.12,-0.58 -0.03,-0.64l-0.36 -0.16c-0.15,-0.07 -0.37,0.12 -0.5,0.41l-1.43 3.21c-0.13,0.29 -0.12,0.58 0.03,0.64z"/>
    <path class="fil0" d="M74.39 13.53l0.73 0.28c0.3,0.11 0.63,-0.03 0.74,-0.33l1.26 -3.28c0.11,-0.3 -0.03,-0.63 -0.33,-0.74l-0.73 -0.28c-0.3,-0.11 -0.63,0.03 -0.74,0.33l-1.26 3.28c-0.11,0.29 0.03,0.63 0.33,0.74z"/>
    <path class="fil0" d="M72.23 12.79l0.37 0.12c0.15,0.05 0.35,-0.15 0.45,-0.46l1.09 -3.34c0.1,-0.3 0.05,-0.58 -0.1,-0.63l-0.37 -0.12c-0.15,-0.05 -0.35,0.15 -0.45,0.46l-1.09 3.34c-0.1,0.3 -0.05,0.58 0.1,0.63z"/>
    <path class="fil0" d="M69.67 12.04l0.75 0.2c0.31,0.08 0.62,-0.1 0.7,-0.41l0.91 -3.4c0.08,-0.31 -0.1,-0.62 -0.4,-0.7l-0.75 -0.2c-0.31,-0.08 -0.62,0.1 -0.7,0.41l-0.91 3.4c-0.08,0.31 0.1,0.62 0.4,0.7z"/>
    <path class="fil0" d="M67.45 11.53l0.38 0.08c0.16,0.03 0.34,-0.19 0.4,-0.5l0.73 -3.44c0.07,-0.31 -0.01,-0.59 -0.16,-0.62l-0.38 -0.08c-0.16,-0.03 -0.34,0.19 -0.4,0.5l-0.73 3.44c-0.07,0.31 0.01,0.59 0.16,0.62z"/>
    <path class="fil0" d="M64.83 11.06l0.77 0.12c0.31,0.05 0.61,-0.17 0.65,-0.48l0.55 -3.47c0.05,-0.31 -0.16,-0.61 -0.48,-0.65l-0.77 -0.12c-0.31,-0.05 -0.61,0.16 -0.65,0.48l-0.55 3.47c-0.05,0.31 0.16,0.61 0.48,0.65z"/>
    <path class="fil0" d="M62.56 10.78l0.39 0.04c0.16,0.02 0.31,-0.23 0.35,-0.54l0.36 -3.5c0.03,-0.31 -0.07,-0.58 -0.23,-0.6l-0.39 -0.04c-0.16,-0.02 -0.31,0.23 -0.35,0.54l-0.36 3.5c-0.03,0.31 0.07,0.58 0.23,0.6z"/>
    <path class="fil0" d="M59.9 10.59l0.78 0.04c0.32,0.02 0.58,-0.23 0.6,-0.54l0.18 -3.51c0.02,-0.32 -0.23,-0.59 -0.54,-0.6l-0.78 -0.04c-0.32,-0.02 -0.58,0.23 -0.6,0.54l-0.18 3.51c-0.02,0.32 0.23,0.59 0.54,0.6z"/>
    <path class="fil0" d="M57.61 10.55l0.39 0c0.16,0 0.29,-0.26 0.29,-0.57l0 -3.52c0,-0.32 -0.13,-0.57 -0.29,-0.57l-0.39 0c-0.16,0 -0.29,0.26 -0.29,0.57l0 3.52c0,0.32 0.13,0.57 0.29,0.57z"/>
   </g>
  </g>
 </g>
</svg>
