<?xml version="1.0" encoding="UTF-8"?>
<!DOCTYPE svg PUBLIC "-//W3C//DTD SVG 1.1//EN" "http://www.w3.org/Graphics/SVG/1.1/DTD/svg11.dtd">
<!-- Creator: CorelDRAW 2021 (64-Bit) -->
<svg xmlns="http://www.w3.org/2000/svg" xml:space="preserve" width="2.5216in" height="2.52159in" version="1.1" style="shape-rendering:geometricPrecision; text-rendering:geometricPrecision; image-rendering:optimizeQuality; fill-rule:evenodd; clip-rule:evenodd"
viewBox="0 0 111.77 111.77"
 xmlns:xlink="http://www.w3.org/1999/xlink"
 xmlns:xodm="http://www.corel.com/coreldraw/odm/2003">
 <defs>
  <style type="text/css">
   <![CDATA[
    .str0 {stroke:black;stroke-width:0.31;stroke-linecap:round;stroke-linejoin:round;stroke-miterlimit:2.61313}
    .fil73 {fill:#1C3FAA}
    .fil3 {fill:black;fill-rule:nonzero}
    .fil7 {fill:url(#id0)}
    .fil28 {fill:url(#id1)}
    .fil64 {fill:url(#id2)}
    .fil70 {fill:url(#id3)}
    .fil68 {fill:url(#id4)}
    .fil62 {fill:url(#id5)}
    .fil15 {fill:url(#id6)}
    .fil18 {fill:url(#id7)}
    .fil72 {fill:url(#id8)}
    .fil30 {fill:url(#id9)}
    .fil23 {fill:url(#id10)}
    .fil32 {fill:url(#id11)}
    .fil33 {fill:url(#id12)}
    .fil8 {fill:url(#id13)}
    .fil34 {fill:url(#id14)}
    .fil135 {fill:url(#id15)}
    .fil66 {fill:url(#id16)}
    .fil60 {fill:url(#id17)}
    .fil196 {fill:url(#id18)}
    .fil10 {fill:url(#id19)}
    .fil9 {fill:url(#id20)}
    .fil12 {fill:url(#id21)}
    .fil24 {fill:url(#id22)}
    .fil19 {fill:url(#id23)}
    .fil5 {fill:url(#id24)}
    .fil13 {fill:url(#id25)}
    .fil22 {fill:url(#id26)}
    .fil6 {fill:url(#id27)}
    .fil16 {fill:url(#id28)}
    .fil4 {fill:url(#id29)}
    .fil14 {fill:url(#id30)}
    .fil21 {fill:url(#id31)}
    .fil100 {fill:url(#id32)}
    .fil131 {fill:url(#id33)}
    .fil141 {fill:url(#id34)}
    .fil128 {fill:url(#id35)}
    .fil127 {fill:url(#id36)}
    .fil102 {fill:url(#id37)}
    .fil121 {fill:url(#id38)}
    .fil2 {fill:url(#id39)}
    .fil190 {fill:url(#id40)}
    .fil80 {fill:url(#id41)}
    .fil37 {fill:url(#id42)}
    .fil152 {fill:url(#id43)}
    .fil138 {fill:url(#id44)}
    .fil95 {fill:url(#id45)}
    .fil136 {fill:url(#id46)}
    .fil195 {fill:url(#id47)}
    .fil153 {fill:url(#id48)}
    .fil82 {fill:url(#id49)}
    .fil79 {fill:url(#id50)}
    .fil54 {fill:url(#id51)}
    .fil173 {fill:url(#id52)}
    .fil145 {fill:url(#id53)}
    .fil158 {fill:url(#id54)}
    .fil143 {fill:url(#id55)}
    .fil56 {fill:url(#id56)}
    .fil189 {fill:url(#id57)}
    .fil192 {fill:url(#id58)}
    .fil166 {fill:url(#id59)}
    .fil142 {fill:url(#id60)}
    .fil130 {fill:url(#id61)}
    .fil109 {fill:url(#id62)}
    .fil41 {fill:url(#id63)}
    .fil89 {fill:url(#id64)}
    .fil132 {fill:url(#id65)}
    .fil88 {fill:url(#id66)}
    .fil179 {fill:url(#id67)}
    .fil99 {fill:url(#id68)}
    .fil48 {fill:url(#id69)}
    .fil126 {fill:url(#id70)}
    .fil96 {fill:url(#id71)}
    .fil47 {fill:url(#id72)}
    .fil20 {fill:url(#id73)}
    .fil93 {fill:url(#id74)}
    .fil144 {fill:url(#id75)}
    .fil191 {fill:url(#id76)}
    .fil115 {fill:url(#id77)}
    .fil119 {fill:url(#id78)}
    .fil193 {fill:url(#id79)}
    .fil194 {fill:url(#id80)}
    .fil163 {fill:url(#id81)}
    .fil65 {fill:url(#id82)}
    .fil71 {fill:url(#id83)}
    .fil146 {fill:url(#id84)}
    .fil149 {fill:url(#id85)}
    .fil1 {fill:url(#id86)}
    .fil140 {fill:url(#id87)}
    .fil133 {fill:url(#id88)}
    .fil174 {fill:url(#id89)}
    .fil51 {fill:url(#id90)}
    .fil83 {fill:url(#id91)}
    .fil35 {fill:url(#id92)}
    .fil120 {fill:url(#id93)}
    .fil55 {fill:url(#id94)}
    .fil103 {fill:url(#id95)}
    .fil114 {fill:url(#id96)}
    .fil81 {fill:url(#id97)}
    .fil129 {fill:url(#id98)}
    .fil147 {fill:url(#id99)}
    .fil187 {fill:url(#id100)}
    .fil17 {fill:url(#id101)}
    .fil181 {fill:url(#id102)}
    .fil90 {fill:url(#id103)}
    .fil139 {fill:url(#id104)}
    .fil198 {fill:url(#id105)}
    .fil150 {fill:url(#id106)}
    .fil25 {fill:url(#id107)}
    .fil110 {fill:url(#id108)}
    .fil185 {fill:url(#id109)}
    .fil157 {fill:url(#id110)}
    .fil197 {fill:url(#id111)}
    .fil52 {fill:url(#id112)}
    .fil49 {fill:url(#id113)}
    .fil164 {fill:url(#id114)}
    .fil84 {fill:url(#id115)}
    .fil134 {fill:url(#id116)}
    .fil29 {fill:url(#id117)}
    .fil178 {fill:url(#id118)}
    .fil86 {fill:url(#id119)}
    .fil26 {fill:url(#id120)}
    .fil137 {fill:url(#id121)}
    .fil27 {fill:url(#id122)}
    .fil44 {fill:url(#id123)}
    .fil169 {fill:url(#id124)}
    .fil161 {fill:url(#id125)}
    .fil167 {fill:url(#id126)}
    .fil31 {fill:url(#id127)}
    .fil58 {fill:url(#id128)}
    .fil76 {fill:url(#id129)}
    .fil78 {fill:url(#id130)}
    .fil63 {fill:url(#id131)}
    .fil69 {fill:url(#id132)}
    .fil170 {fill:url(#id133)}
    .fil61 {fill:url(#id134)}
    .fil67 {fill:url(#id135)}
    .fil77 {fill:url(#id136)}
    .fil75 {fill:url(#id137)}
    .fil38 {fill:url(#id138)}
    .fil42 {fill:url(#id139)}
    .fil43 {fill:url(#id140)}
    .fil45 {fill:url(#id141)}
    .fil162 {fill:url(#id142)}
    .fil175 {fill:url(#id143)}
    .fil186 {fill:url(#id144)}
    .fil159 {fill:url(#id145)}
    .fil111 {fill:url(#id146)}
    .fil125 {fill:url(#id147)}
    .fil184 {fill:url(#id148)}
    .fil165 {fill:url(#id149)}
    .fil108 {fill:url(#id150)}
    .fil176 {fill:url(#id151)}
    .fil106 {fill:url(#id152)}
    .fil148 {fill:url(#id153)}
    .fil124 {fill:url(#id154)}
    .fil36 {fill:url(#id155)}
    .fil122 {fill:url(#id156)}
    .fil85 {fill:url(#id157)}
    .fil87 {fill:url(#id158)}
    .fil46 {fill:url(#id159)}
    .fil39 {fill:url(#id160)}
    .fil182 {fill:url(#id161)}
    .fil113 {fill:url(#id162)}
    .fil92 {fill:url(#id163)}
    .fil151 {fill:url(#id164)}
    .fil94 {fill:url(#id165)}
    .fil107 {fill:url(#id166)}
    .fil98 {fill:url(#id167)}
    .fil123 {fill:url(#id168)}
    .fil154 {fill:url(#id169)}
    .fil156 {fill:url(#id170)}
    .fil59 {fill:url(#id171)}
    .fil11 {fill:url(#id172)}
    .fil105 {fill:url(#id173)}
    .fil101 {fill:url(#id174)}
    .fil40 {fill:url(#id175)}
    .fil117 {fill:url(#id176)}
    .fil155 {fill:url(#id177)}
    .fil97 {fill:url(#id178)}
    .fil116 {fill:url(#id179)}
    .fil180 {fill:url(#id180)}
    .fil118 {fill:url(#id181)}
    .fil160 {fill:url(#id182)}
    .fil112 {fill:url(#id183)}
    .fil104 {fill:url(#id184)}
    .fil0 {fill:url(#id185)}
    .fil183 {fill:url(#id186)}
    .fil91 {fill:url(#id187)}
    .fil188 {fill:url(#id188)}
    .fil177 {fill:url(#id189)}
    .fil50 {fill:url(#id190)}
    .fil57 {fill:url(#id191)}
    .fil171 {fill:url(#id192)}
    .fil172 {fill:url(#id193)}
    .fil168 {fill:url(#id194)}
    .fil53 {fill:url(#id195)}
    .fil74 {fill:url(#id196);fill-rule:nonzero}
   ]]>
  </style>
  <linearGradient id="id0" gradientUnits="userSpaceOnUse" x1="31.14" y1="42.14" x2="82.71" y2="42.14">
   <stop offset="0" style="stop-opacity:1; stop-color:#DB9125"/>
   <stop offset="0.0509804" style="stop-opacity:1; stop-color:#EDC44E"/>
   <stop offset="0.2" style="stop-opacity:1; stop-color:#FFF778"/>
   <stop offset="0.27451" style="stop-opacity:1; stop-color:#ECC94F"/>
   <stop offset="0.341176" style="stop-opacity:1; stop-color:#D99A26"/>
   <stop offset="0.372549" style="stop-opacity:1; stop-color:#C08622"/>
   <stop offset="0.470588" style="stop-opacity:1; stop-color:#A7711E"/>
   <stop offset="0.615686" style="stop-opacity:1; stop-color:#CE9F43"/>
   <stop offset="0.678431" style="stop-opacity:1; stop-color:#F6CE69"/>
   <stop offset="0.803922" style="stop-opacity:1; stop-color:#E8B448"/>
   <stop offset="0.870588" style="stop-opacity:1; stop-color:#D99A26"/>
   <stop offset="1" style="stop-opacity:1; stop-color:#F6CE69"/>
  </linearGradient>
  <linearGradient id="id1" gradientUnits="userSpaceOnUse" xlink:href="#id0" x1="57" y1="75.46" x2="89.7" y2="75.46">
  </linearGradient>
  <linearGradient id="id2" gradientUnits="userSpaceOnUse" xlink:href="#id0" x1="50.51" y1="51.53" x2="61.26" y2="51.53">
  </linearGradient>
  <linearGradient id="id3" gradientUnits="userSpaceOnUse" xlink:href="#id0" x1="50.51" y1="60.24" x2="61.26" y2="60.24">
  </linearGradient>
  <linearGradient id="id4" gradientUnits="userSpaceOnUse" xlink:href="#id0" x1="52.5" y1="61.18" x2="61.26" y2="61.18">
  </linearGradient>
  <linearGradient id="id5" gradientUnits="userSpaceOnUse" xlink:href="#id0" x1="52.5" y1="50.59" x2="61.26" y2="50.59">
  </linearGradient>
  <linearGradient id="id6" gradientUnits="userSpaceOnUse" xlink:href="#id0" x1="19.65" y1="55.89" x2="97.72" y2="55.89">
  </linearGradient>
  <linearGradient id="id7" gradientUnits="userSpaceOnUse" xlink:href="#id0" x1="22.89" y1="39.29" x2="49.67" y2="39.29">
  </linearGradient>
  <linearGradient id="id8" gradientUnits="userSpaceOnUse" xlink:href="#id0" x1="12.79" y1="55.89" x2="98.98" y2="55.89">
  </linearGradient>
  <linearGradient id="id9" gradientUnits="userSpaceOnUse" xlink:href="#id0" x1="58.35" y1="73.71" x2="89.56" y2="73.71">
  </linearGradient>
  <linearGradient id="id10" gradientUnits="userSpaceOnUse" xlink:href="#id0" x1="57" y1="36.35" x2="98.39" y2="36.35">
  </linearGradient>
  <linearGradient id="id11" gradientUnits="userSpaceOnUse" xlink:href="#id0" x1="26.63" y1="72.3" x2="46.98" y2="72.3">
  </linearGradient>
  <linearGradient id="id12" gradientUnits="userSpaceOnUse" xlink:href="#id0" x1="24.68" y1="72.42" x2="48.33" y2="72.42">
  </linearGradient>
  <linearGradient id="id13" gradientUnits="userSpaceOnUse" xlink:href="#id0" x1="31.14" y1="69.63" x2="82.71" y2="69.63">
  </linearGradient>
  <linearGradient id="id14" gradientUnits="userSpaceOnUse" xlink:href="#id0" x1="22.89" y1="72.48" x2="49.67" y2="72.48">
  </linearGradient>
  <linearGradient id="id15" gradientUnits="userSpaceOnUse" xlink:href="#id0" x1="48.31" y1="90.04" x2="48.87" y2="131.53">
  </linearGradient>
  <linearGradient id="id16" gradientUnits="userSpaceOnUse" xlink:href="#id0" x1="55.07" y1="62.13" x2="61.26" y2="62.13">
  </linearGradient>
  <linearGradient id="id17" gradientUnits="userSpaceOnUse" xlink:href="#id0" x1="55.07" y1="49.64" x2="61.26" y2="49.64">
  </linearGradient>
  <linearGradient id="id18" gradientUnits="userSpaceOnUse" xlink:href="#id0" x1="60.62" y1="21.27" x2="61.33" y2="-19.77">
  </linearGradient>
  <linearGradient id="id19" gradientUnits="userSpaceOnUse" xlink:href="#id0" x1="33.85" y1="41.98" x2="81.02" y2="41.98">
  </linearGradient>
  <linearGradient id="id20" gradientUnits="userSpaceOnUse" xlink:href="#id0" x1="33.85" y1="69.79" x2="81.02" y2="69.79">
  </linearGradient>
  <linearGradient id="id21" gradientUnits="userSpaceOnUse" xlink:href="#id0" x1="21.21" y1="55.89" x2="98.09" y2="55.89">
  </linearGradient>
  <linearGradient id="id22" gradientUnits="userSpaceOnUse" xlink:href="#id0" x1="59.7" y1="71.97" x2="89.56" y2="71.97">
  </linearGradient>
  <linearGradient id="id23" gradientUnits="userSpaceOnUse" xlink:href="#id0" x1="24.68" y1="39.35" x2="48.33" y2="39.35">
  </linearGradient>
  <linearGradient id="id24" gradientUnits="userSpaceOnUse" xlink:href="#id0" x1="28.76" y1="39.45" x2="46.83" y2="39.45">
  </linearGradient>
  <linearGradient id="id25" gradientUnits="userSpaceOnUse" xlink:href="#id0" x1="28.76" y1="72.32" x2="46.83" y2="72.32">
  </linearGradient>
  <linearGradient id="id26" gradientUnits="userSpaceOnUse" xlink:href="#id0" x1="58.35" y1="38.03" x2="98.61" y2="38.03">
  </linearGradient>
  <linearGradient id="id27" gradientUnits="userSpaceOnUse" xlink:href="#id0" x1="16.51" y1="55.89" x2="93.19" y2="55.89">
  </linearGradient>
  <linearGradient id="id28" gradientUnits="userSpaceOnUse" xlink:href="#id0" x1="26.63" y1="39.47" x2="46.98" y2="39.47">
  </linearGradient>
  <linearGradient id="id29" gradientUnits="userSpaceOnUse" xlink:href="#id0" x1="59.9" y1="41.5" x2="98.82" y2="41.5">
  </linearGradient>
  <linearGradient id="id30" gradientUnits="userSpaceOnUse" xlink:href="#id0" x1="59.9" y1="70.27" x2="98.82" y2="70.27">
  </linearGradient>
  <linearGradient id="id31" gradientUnits="userSpaceOnUse" xlink:href="#id0" x1="59.7" y1="39.8" x2="98.75" y2="39.8">
  </linearGradient>
  <linearGradient id="id32" gradientUnits="userSpaceOnUse" xlink:href="#id0" x1="24.41" y1="40.71" x2="-14.38" y2="27.28">
  </linearGradient>
  <linearGradient id="id33" gradientUnits="userSpaceOnUse" xlink:href="#id0" x1="41.39" y1="87.73" x2="33.26" y2="128.42">
  </linearGradient>
  <linearGradient id="id34" gradientUnits="userSpaceOnUse" xlink:href="#id0" x1="59.27" y1="90.7" x2="72.53" y2="130.02">
  </linearGradient>
  <linearGradient id="id35" gradientUnits="userSpaceOnUse" xlink:href="#id0" x1="37.51" y1="85.6" x2="20.09" y2="122.77">
  </linearGradient>
  <linearGradient id="id36" gradientUnits="userSpaceOnUse" xlink:href="#id0" x1="35.1" y1="84.02" x2="18.66" y2="122.12">
  </linearGradient>
  <linearGradient id="id37" gradientUnits="userSpaceOnUse" xlink:href="#id0" x1="23" y1="44.07" x2="-16.99" y2="34.8">
  </linearGradient>
  <linearGradient id="id38" gradientUnits="userSpaceOnUse" xlink:href="#id0" x1="27.41" y1="76.2" x2="0.05" y2="107.4">
  </linearGradient>
  <linearGradient id="id39" gradientUnits="userSpaceOnUse" xlink:href="#id0" x1="15.99" y1="15.69" x2="97.73" y2="97.7">
  </linearGradient>
  <linearGradient id="id40" gradientUnits="userSpaceOnUse" xlink:href="#id0" x1="71.06" y1="24.41" x2="84.49" y2="-14.38">
  </linearGradient>
  <linearGradient id="id41" gradientUnits="userSpaceOnUse" xlink:href="#id0" x1="53.29" y1="21.05" x2="45.54" y2="-19.26">
  </linearGradient>
  <linearGradient id="id42" gradientUnits="userSpaceOnUse" xlink:href="#id0" x1="42.15" y1="26.86" x2="75.05" y2="26.45">
  </linearGradient>
  <linearGradient id="id43" gradientUnits="userSpaceOnUse" xlink:href="#id0" x1="78.45" y1="82.55" x2="108.45" y2="110.57">
  </linearGradient>
  <linearGradient id="id44" gradientUnits="userSpaceOnUse" xlink:href="#id0" x1="54.81" y1="90.8" x2="58.35" y2="131.7">
  </linearGradient>
  <linearGradient id="id45" gradientUnits="userSpaceOnUse" xlink:href="#id0" x1="30.08" y1="32.27" x2="-6.09" y2="11.95">
  </linearGradient>
  <linearGradient id="id46" gradientUnits="userSpaceOnUse" xlink:href="#id0" x1="51.15" y1="90.5" x2="50.45" y2="131.54">
  </linearGradient>
  <linearGradient id="id47" gradientUnits="userSpaceOnUse" xlink:href="#id0" x1="63.46" y1="21.73" x2="62.9" y2="-19.76">
  </linearGradient>
  <linearGradient id="id48" gradientUnits="userSpaceOnUse" xlink:href="#id0" x1="79.07" y1="82.07" x2="112.94" y2="106.04">
  </linearGradient>
  <linearGradient id="id49" gradientUnits="userSpaceOnUse" xlink:href="#id0" x1="49.66" y1="21.51" x2="37.74" y2="-17.77">
  </linearGradient>
  <linearGradient id="id50" gradientUnits="userSpaceOnUse" xlink:href="#id0" x1="56.16" y1="20.91" x2="47.07" y2="-19.57">
  </linearGradient>
  <linearGradient id="id51" gradientUnits="userSpaceOnUse" xlink:href="#id0" x1="82.6" y1="60.74" x2="117.69" y2="68.59">
  </linearGradient>
  <linearGradient id="id52" gradientUnits="userSpaceOnUse" xlink:href="#id0" x1="90.17" y1="48.89" x2="127.87" y2="31.57">
  </linearGradient>
  <linearGradient id="id53" gradientUnits="userSpaceOnUse" xlink:href="#id0" x1="66.42" y1="89.25" x2="87.61" y2="124.92">
  </linearGradient>
  <linearGradient id="id54" gradientUnits="userSpaceOnUse" xlink:href="#id0" x1="85.6" y1="74.26" x2="122.77" y2="91.68">
  </linearGradient>
  <linearGradient id="id55" gradientUnits="userSpaceOnUse" xlink:href="#id0" x1="62.88" y1="90.16" x2="80.2" y2="127.87">
  </linearGradient>
  <linearGradient id="id56" gradientUnits="userSpaceOnUse" xlink:href="#id0" x1="83.76" y1="55.57" x2="118.85" y2="63.39">
  </linearGradient>
  <linearGradient id="id57" gradientUnits="userSpaceOnUse" xlink:href="#id0" x1="73.62" y1="25.73" x2="85.98" y2="-13.88">
  </linearGradient>
  <linearGradient id="id58" gradientUnits="userSpaceOnUse" xlink:href="#id0" x1="67.7" y1="23" x2="76.97" y2="-16.99">
  </linearGradient>
  <linearGradient id="id59" gradientUnits="userSpaceOnUse" xlink:href="#id0" x1="90.5" y1="60.62" x2="131.54" y2="61.33">
  </linearGradient>
  <linearGradient id="id60" gradientUnits="userSpaceOnUse" xlink:href="#id0" x1="62.11" y1="90.26" x2="74.03" y2="129.55">
  </linearGradient>
  <linearGradient id="id61" gradientUnits="userSpaceOnUse" xlink:href="#id0" x1="40.71" y1="87.36" x2="27.28" y2="126.15">
  </linearGradient>
  <linearGradient id="id62" gradientUnits="userSpaceOnUse" xlink:href="#id0" x1="20.91" y1="55.61" x2="-19.57" y2="64.7">
  </linearGradient>
  <linearGradient id="id63" gradientUnits="userSpaceOnUse" xlink:href="#id0" x1="38.85" y1="29.74" x2="57.95" y2="21.98">
  </linearGradient>
  <linearGradient id="id64" gradientUnits="userSpaceOnUse" xlink:href="#id0" x1="38.65" y1="25.44" x2="10.49" y2="-5.03">
  </linearGradient>
  <linearGradient id="id65" gradientUnits="userSpaceOnUse" xlink:href="#id0" x1="44.07" y1="88.77" x2="34.8" y2="128.76">
  </linearGradient>
  <linearGradient id="id66" gradientUnits="userSpaceOnUse" xlink:href="#id0" x1="39.36" y1="25.1" x2="15.82" y2="-8.53">
  </linearGradient>
  <linearGradient id="id67" gradientUnits="userSpaceOnUse" xlink:href="#id0" x1="86.33" y1="38.65" x2="116.8" y2="10.49">
  </linearGradient>
  <linearGradient id="id68" gradientUnits="userSpaceOnUse" xlink:href="#id0" x1="25.73" y1="38.15" x2="-13.88" y2="25.79">
  </linearGradient>
  <linearGradient id="id69" gradientUnits="userSpaceOnUse" xlink:href="#id0" x1="21.04" y1="61.23" x2="81.52" y2="54.22">
  </linearGradient>
  <linearGradient id="id70" gradientUnits="userSpaceOnUse" xlink:href="#id0" x1="34.51" y1="83.51" x2="13.3" y2="118.66">
  </linearGradient>
  <linearGradient id="id71" gradientUnits="userSpaceOnUse" xlink:href="#id0" x1="28.26" y1="34.5" x2="-6.89" y2="13.3">
  </linearGradient>
  <linearGradient id="id72" gradientUnits="userSpaceOnUse" xlink:href="#id0" x1="73.53" y1="42.18" x2="84.77" y2="65.77">
  </linearGradient>
  <linearGradient id="id73" gradientUnits="userSpaceOnUse" xlink:href="#id0" x1="42.18" y1="29.07" x2="75.08" y2="28.66">
  </linearGradient>
  <linearGradient id="id74" gradientUnits="userSpaceOnUse" xlink:href="#id0" x1="32.7" y1="29.7" x2="-1.17" y2="5.73">
  </linearGradient>
  <linearGradient id="id75" gradientUnits="userSpaceOnUse" xlink:href="#id0" x1="65.66" y1="89.43" x2="81.65" y2="127.24">
  </linearGradient>
  <linearGradient id="id76" gradientUnits="userSpaceOnUse" xlink:href="#id0" x1="70.38" y1="24.04" x2="78.51" y2="-16.65">
  </linearGradient>
  <linearGradient id="id77" gradientUnits="userSpaceOnUse" xlink:href="#id0" x1="22.52" y1="66.42" x2="-13.15" y2="87.61">
  </linearGradient>
  <linearGradient id="id78" gradientUnits="userSpaceOnUse" xlink:href="#id0" x1="25.44" y1="73.12" x2="-5.03" y2="101.29">
  </linearGradient>
  <linearGradient id="id79" gradientUnits="userSpaceOnUse" xlink:href="#id0" x1="66.98" y1="22.7" x2="70.78" y2="-18.62">
  </linearGradient>
  <linearGradient id="id80" gradientUnits="userSpaceOnUse" xlink:href="#id0" x1="64.21" y1="21.95" x2="69.21" y2="-18.79">
  </linearGradient>
  <linearGradient id="id81" gradientUnits="userSpaceOnUse" xlink:href="#id0" x1="89.07" y1="66.98" x2="130.39" y2="70.78">
  </linearGradient>
  <linearGradient id="id82" gradientUnits="userSpaceOnUse" xlink:href="#id0" x1="46.68" y1="59.67" x2="78.42" y2="43.37">
  </linearGradient>
  <linearGradient id="id83" gradientUnits="userSpaceOnUse" xlink:href="#id0" x1="46.68" y1="45.25" x2="78.42" y2="61.55">
  </linearGradient>
  <linearGradient id="id84" gradientUnits="userSpaceOnUse" xlink:href="#id0" x1="69.11" y1="88.23" x2="88.99" y2="124.14">
  </linearGradient>
  <linearGradient id="id85" gradientUnits="userSpaceOnUse" xlink:href="#id0" x1="73.12" y1="86.33" x2="101.29" y2="116.8">
  </linearGradient>
  <linearGradient id="id86" gradientUnits="userSpaceOnUse" xlink:href="#id0" x1="95.86" y1="16.56" x2="17.64" y2="93.15">
  </linearGradient>
  <linearGradient id="id87" gradientUnits="userSpaceOnUse" xlink:href="#id0" x1="58.49" y1="90.72" x2="66.23" y2="131.03">
  </linearGradient>
  <linearGradient id="id88" gradientUnits="userSpaceOnUse" xlink:href="#id0" x1="44.79" y1="89.07" x2="40.99" y2="130.39">
  </linearGradient>
  <linearGradient id="id89" gradientUnits="userSpaceOnUse" xlink:href="#id0" x1="89.43" y1="46.11" x2="127.24" y2="30.12">
  </linearGradient>
  <linearGradient id="id90" gradientUnits="userSpaceOnUse" xlink:href="#id0" x1="36.75" y1="84.22" x2="95.27" y2="88.47">
  </linearGradient>
  <linearGradient id="id91" gradientUnits="userSpaceOnUse" xlink:href="#id0" x1="48.89" y1="21.61" x2="31.57" y2="-16.1">
  </linearGradient>
  <linearGradient id="id92" gradientUnits="userSpaceOnUse" xlink:href="#id0" x1="42.12" y1="24.42" x2="75.02" y2="24.01">
  </linearGradient>
  <linearGradient id="id93" gradientUnits="userSpaceOnUse" xlink:href="#id0" x1="27" y1="75.53" x2="-3.99" y2="102.46">
  </linearGradient>
  <linearGradient id="id94" gradientUnits="userSpaceOnUse" xlink:href="#id0" x1="82.77" y1="60" x2="117.85" y2="67.84">
  </linearGradient>
  <linearGradient id="id95" gradientUnits="userSpaceOnUse" xlink:href="#id0" x1="22.7" y1="44.79" x2="-18.62" y2="40.99">
  </linearGradient>
  <linearGradient id="id96" gradientUnits="userSpaceOnUse" xlink:href="#id0" x1="22.34" y1="65.66" x2="-15.47" y2="81.65">
  </linearGradient>
  <linearGradient id="id97" gradientUnits="userSpaceOnUse" xlink:href="#id0" x1="52.5" y1="21.07" x2="39.24" y2="-18.25">
  </linearGradient>
  <linearGradient id="id98" gradientUnits="userSpaceOnUse" xlink:href="#id0" x1="38.15" y1="86.04" x2="25.79" y2="125.65">
  </linearGradient>
  <linearGradient id="id99" gradientUnits="userSpaceOnUse" xlink:href="#id0" x1="69.84" y1="87.97" x2="94.67" y2="121.22">
  </linearGradient>
  <linearGradient id="id100" gradientUnits="userSpaceOnUse" xlink:href="#id0" x1="76.67" y1="27.75" x2="93.11" y2="-10.35">
  </linearGradient>
  <linearGradient id="id101" gradientUnits="userSpaceOnUse" xlink:href="#id0" x1="42.18" y1="29.09" x2="75.08" y2="28.68">
  </linearGradient>
  <linearGradient id="id102" gradientUnits="userSpaceOnUse" xlink:href="#id0" x1="84.36" y1="35.57" x2="111.72" y2="4.38">
  </linearGradient>
  <linearGradient id="id103" gradientUnits="userSpaceOnUse" xlink:href="#id0" x1="36.24" y1="27" x2="9.31" y2="-3.99">
  </linearGradient>
  <linearGradient id="id104" gradientUnits="userSpaceOnUse" xlink:href="#id0" x1="55.61" y1="90.86" x2="64.7" y2="131.34">
  </linearGradient>
  <linearGradient id="id105" gradientUnits="userSpaceOnUse" xlink:href="#id0" x1="56.96" y1="20.97" x2="53.42" y2="-19.93">
  </linearGradient>
  <linearGradient id="id106" gradientUnits="userSpaceOnUse" xlink:href="#id0" x1="75.53" y1="84.77" x2="102.46" y2="115.76">
  </linearGradient>
  <linearGradient id="id107" gradientUnits="userSpaceOnUse" xlink:href="#id0" x1="85.91" y1="54.58" x2="101.91" y2="59.94">
  </linearGradient>
  <linearGradient id="id108" gradientUnits="userSpaceOnUse" xlink:href="#id0" x1="21.05" y1="58.48" x2="-19.26" y2="66.23">
  </linearGradient>
  <linearGradient id="id109" gradientUnits="userSpaceOnUse" xlink:href="#id0" x1="79.5" y1="30.08" x2="99.82" y2="-6.09">
  </linearGradient>
  <linearGradient id="id110" gradientUnits="userSpaceOnUse" xlink:href="#id0" x1="84.02" y1="76.67" x2="122.12" y2="93.11">
  </linearGradient>
  <linearGradient id="id111" gradientUnits="userSpaceOnUse" xlink:href="#id0" x1="59.84" y1="21.13" x2="54.96" y2="-20.08">
  </linearGradient>
  <linearGradient id="id112" gradientUnits="userSpaceOnUse" xlink:href="#id0" x1="82.99" y1="59" x2="118.07" y2="66.85">
  </linearGradient>
  <linearGradient id="id113" gradientUnits="userSpaceOnUse" xlink:href="#id0" x1="39.71" y1="31.85" x2="58.81" y2="24.08">
  </linearGradient>
  <linearGradient id="id114" gradientUnits="userSpaceOnUse" xlink:href="#id0" x1="89.82" y1="64.21" x2="130.57" y2="69.21">
  </linearGradient>
  <linearGradient id="id115" gradientUnits="userSpaceOnUse" xlink:href="#id0" x1="46.11" y1="22.34" x2="30.12" y2="-15.47">
  </linearGradient>
  <linearGradient id="id116" gradientUnits="userSpaceOnUse" xlink:href="#id0" x1="47.56" y1="89.82" x2="42.56" y2="130.56">
  </linearGradient>
  <linearGradient id="id117" gradientUnits="userSpaceOnUse" xlink:href="#id0" x1="85.37" y1="56.19" x2="101.36" y2="61.56">
  </linearGradient>
  <linearGradient id="id118" gradientUnits="userSpaceOnUse" xlink:href="#id0" x1="86.67" y1="39.36" x2="120.3" y2="15.82">
  </linearGradient>
  <linearGradient id="id119" gradientUnits="userSpaceOnUse" xlink:href="#id0" x1="42.67" y1="23.54" x2="22.78" y2="-12.37">
  </linearGradient>
  <linearGradient id="id120" gradientUnits="userSpaceOnUse" xlink:href="#id0" x1="40.09" y1="82.37" x2="80.32" y2="83.45">
  </linearGradient>
  <linearGradient id="id121" gradientUnits="userSpaceOnUse" xlink:href="#id0" x1="51.93" y1="90.64" x2="56.81" y2="131.85">
  </linearGradient>
  <linearGradient id="id122" gradientUnits="userSpaceOnUse" xlink:href="#id0" x1="84.82" y1="57.83" x2="100.82" y2="63.19">
  </linearGradient>
  <linearGradient id="id123" gradientUnits="userSpaceOnUse" xlink:href="#id0" x1="20.23" y1="54.23" x2="80.71" y2="47.21">
  </linearGradient>
  <linearGradient id="id124" gradientUnits="userSpaceOnUse" xlink:href="#id0" x1="90.86" y1="56.16" x2="131.34" y2="47.07">
  </linearGradient>
  <linearGradient id="id125" gradientUnits="userSpaceOnUse" xlink:href="#id0" x1="87.73" y1="70.38" x2="128.42" y2="78.51">
  </linearGradient>
  <linearGradient id="id126" gradientUnits="userSpaceOnUse" xlink:href="#id0" x1="90.64" y1="59.84" x2="131.85" y2="54.96">
  </linearGradient>
  <linearGradient id="id127" gradientUnits="userSpaceOnUse" xlink:href="#id0" x1="40.09" y1="82.42" x2="80.32" y2="83.5">
  </linearGradient>
  <linearGradient id="id128" gradientUnits="userSpaceOnUse" xlink:href="#id0" x1="83.05" y1="58.75" x2="118.13" y2="66.6">
  </linearGradient>
  <linearGradient id="id129" gradientUnits="userSpaceOnUse" xlink:href="#id0" x1="63.79" y1="53.94" x2="104.34" y2="47.01">
  </linearGradient>
  <linearGradient id="id130" gradientUnits="userSpaceOnUse" xlink:href="#id0" x1="63.79" y1="56.24" x2="104.34" y2="63.18">
  </linearGradient>
  <linearGradient id="id131" gradientUnits="userSpaceOnUse" xlink:href="#id0" x1="47.9" y1="57.72" x2="79.64" y2="41.42">
  </linearGradient>
  <linearGradient id="id132" gradientUnits="userSpaceOnUse" xlink:href="#id0" x1="47.9" y1="47.09" x2="79.64" y2="63.39">
  </linearGradient>
  <linearGradient id="id133" gradientUnits="userSpaceOnUse" xlink:href="#id0" x1="90.72" y1="53.29" x2="131.03" y2="45.54">
  </linearGradient>
  <linearGradient id="id134" gradientUnits="userSpaceOnUse" xlink:href="#id0" x1="49.07" y1="55.78" x2="80.81" y2="39.48">
  </linearGradient>
  <linearGradient id="id135" gradientUnits="userSpaceOnUse" xlink:href="#id0" x1="49.07" y1="48.94" x2="80.81" y2="65.24">
  </linearGradient>
  <linearGradient id="id136" gradientUnits="userSpaceOnUse" xlink:href="#id0" x1="64.19" y1="54.13" x2="104.73" y2="61.07">
  </linearGradient>
  <linearGradient id="id137" gradientUnits="userSpaceOnUse" xlink:href="#id0" x1="64.19" y1="56.23" x2="104.73" y2="49.3">
  </linearGradient>
  <linearGradient id="id138" gradientUnits="userSpaceOnUse" xlink:href="#id0" x1="39.97" y1="87.03" x2="80.19" y2="88.11">
  </linearGradient>
  <linearGradient id="id139" gradientUnits="userSpaceOnUse" xlink:href="#id0" x1="75.41" y1="56.19" x2="146.18" y2="54.67">
  </linearGradient>
  <linearGradient id="id140" gradientUnits="userSpaceOnUse" xlink:href="#id0" x1="75.34" y1="52.63" x2="146.1" y2="51.12">
  </linearGradient>
  <linearGradient id="id141" gradientUnits="userSpaceOnUse" xlink:href="#id0" x1="20.64" y1="57.73" x2="81.11" y2="50.71">
  </linearGradient>
  <linearGradient id="id142" gradientUnits="userSpaceOnUse" xlink:href="#id0" x1="88.77" y1="67.7" x2="128.76" y2="76.97">
  </linearGradient>
  <linearGradient id="id143" gradientUnits="userSpaceOnUse" xlink:href="#id0" x1="89.25" y1="45.35" x2="124.92" y2="24.16">
  </linearGradient>
  <linearGradient id="id144" gradientUnits="userSpaceOnUse" xlink:href="#id0" x1="77.27" y1="28.26" x2="98.47" y2="-6.89">
  </linearGradient>
  <linearGradient id="id145" gradientUnits="userSpaceOnUse" xlink:href="#id0" x1="86.04" y1="73.62" x2="125.65" y2="85.98">
  </linearGradient>
  <linearGradient id="id146" gradientUnits="userSpaceOnUse" xlink:href="#id0" x1="21.07" y1="59.27" x2="-18.25" y2="72.53">
  </linearGradient>
  <linearGradient id="id147" gradientUnits="userSpaceOnUse" xlink:href="#id0" x1="32.27" y1="81.69" x2="11.95" y2="117.86">
  </linearGradient>
  <linearGradient id="id148" gradientUnits="userSpaceOnUse" xlink:href="#id0" x1="80.04" y1="30.65" x2="104.79" y2="-2.1">
  </linearGradient>
  <linearGradient id="id149" gradientUnits="userSpaceOnUse" xlink:href="#id0" x1="90.04" y1="63.46" x2="131.53" y2="62.9">
  </linearGradient>
  <linearGradient id="id150" gradientUnits="userSpaceOnUse" xlink:href="#id0" x1="20.97" y1="54.81" x2="-19.93" y2="58.35">
  </linearGradient>
  <linearGradient id="id151" gradientUnits="userSpaceOnUse" xlink:href="#id0" x1="88.23" y1="42.67" x2="124.14" y2="22.78">
  </linearGradient>
  <linearGradient id="id152" gradientUnits="userSpaceOnUse" xlink:href="#id0" x1="21.27" y1="51.15" x2="-19.77" y2="50.45">
  </linearGradient>
  <linearGradient id="id153" gradientUnits="userSpaceOnUse" xlink:href="#id0" x1="72.41" y1="86.67" x2="95.95" y2="120.3">
  </linearGradient>
  <linearGradient id="id154" gradientUnits="userSpaceOnUse" xlink:href="#id0" x1="31.73" y1="81.12" x2="6.98" y2="113.87">
  </linearGradient>
  <linearGradient id="id155" gradientUnits="userSpaceOnUse" xlink:href="#id0" x1="42.14" y1="25.88" x2="75.04" y2="25.48">
  </linearGradient>
  <linearGradient id="id156" gradientUnits="userSpaceOnUse" xlink:href="#id0" x1="29.22" y1="78.45" x2="1.2" y2="108.45">
  </linearGradient>
  <linearGradient id="id157" gradientUnits="userSpaceOnUse" xlink:href="#id0" x1="45.35" y1="22.52" x2="24.16" y2="-13.15">
  </linearGradient>
  <linearGradient id="id158" gradientUnits="userSpaceOnUse" xlink:href="#id0" x1="41.93" y1="23.8" x2="17.1" y2="-9.45">
  </linearGradient>
  <linearGradient id="id159" gradientUnits="userSpaceOnUse" xlink:href="#id0" x1="64.66" y1="58.87" x2="105.21" y2="51.94">
  </linearGradient>
  <linearGradient id="id160" gradientUnits="userSpaceOnUse" xlink:href="#id0" x1="40.01" y1="85.61" x2="80.23" y2="86.69">
  </linearGradient>
  <linearGradient id="id161" gradientUnits="userSpaceOnUse" xlink:href="#id0" x1="82.55" y1="33.32" x2="110.57" y2="3.32">
  </linearGradient>
  <linearGradient id="id162" gradientUnits="userSpaceOnUse" xlink:href="#id0" x1="21.61" y1="62.88" x2="-16.1" y2="80.2">
  </linearGradient>
  <linearGradient id="id163" gradientUnits="userSpaceOnUse" xlink:href="#id0" x1="33.32" y1="29.22" x2="3.32" y2="1.2">
  </linearGradient>
  <linearGradient id="id164" gradientUnits="userSpaceOnUse" xlink:href="#id0" x1="76.2" y1="84.36" x2="107.4" y2="111.72">
  </linearGradient>
  <linearGradient id="id165" gradientUnits="userSpaceOnUse" xlink:href="#id0" x1="30.65" y1="31.73" x2="-2.1" y2="6.98">
  </linearGradient>
  <linearGradient id="id166" gradientUnits="userSpaceOnUse" xlink:href="#id0" x1="21.13" y1="51.93" x2="-20.07" y2="56.81">
  </linearGradient>
  <linearGradient id="id167" gradientUnits="userSpaceOnUse" xlink:href="#id0" x1="26.17" y1="37.51" x2="-11" y2="20.09">
  </linearGradient>
  <linearGradient id="id168" gradientUnits="userSpaceOnUse" xlink:href="#id0" x1="29.7" y1="79.07" x2="5.73" y2="112.94">
  </linearGradient>
  <linearGradient id="id169" gradientUnits="userSpaceOnUse" xlink:href="#id0" x1="81.12" y1="80.04" x2="113.87" y2="104.79">
  </linearGradient>
  <linearGradient id="id170" gradientUnits="userSpaceOnUse" xlink:href="#id0" x1="83.51" y1="77.27" x2="118.66" y2="98.47">
  </linearGradient>
  <linearGradient id="id171" gradientUnits="userSpaceOnUse" xlink:href="#id0" x1="83.22" y1="58.01" x2="118.3" y2="65.86">
  </linearGradient>
  <linearGradient id="id172" gradientUnits="userSpaceOnUse" xlink:href="#id0" x1="84.27" y1="59.47" x2="100.27" y2="64.83">
  </linearGradient>
  <linearGradient id="id173" gradientUnits="userSpaceOnUse" xlink:href="#id0" x1="21.73" y1="48.31" x2="-19.76" y2="48.87">
  </linearGradient>
  <linearGradient id="id174" gradientUnits="userSpaceOnUse" xlink:href="#id0" x1="24.04" y1="41.39" x2="-16.65" y2="33.26">
  </linearGradient>
  <linearGradient id="id175" gradientUnits="userSpaceOnUse" xlink:href="#id0" x1="40.03" y1="84.58" x2="80.26" y2="85.66">
  </linearGradient>
  <linearGradient id="id176" gradientUnits="userSpaceOnUse" xlink:href="#id0" x1="23.8" y1="69.84" x2="-9.44" y2="94.67">
  </linearGradient>
  <linearGradient id="id177" gradientUnits="userSpaceOnUse" xlink:href="#id0" x1="81.69" y1="79.5" x2="117.86" y2="99.82">
  </linearGradient>
  <linearGradient id="id178" gradientUnits="userSpaceOnUse" xlink:href="#id0" x1="27.75" y1="35.1" x2="-10.34" y2="18.66">
  </linearGradient>
  <linearGradient id="id179" gradientUnits="userSpaceOnUse" xlink:href="#id0" x1="23.54" y1="69.11" x2="-12.37" y2="88.99">
  </linearGradient>
  <linearGradient id="id180" gradientUnits="userSpaceOnUse" xlink:href="#id0" x1="84.77" y1="36.24" x2="115.76" y2="9.31">
  </linearGradient>
  <linearGradient id="id181" gradientUnits="userSpaceOnUse" xlink:href="#id0" x1="25.1" y1="72.41" x2="-8.53" y2="95.95">
  </linearGradient>
  <linearGradient id="id182" gradientUnits="userSpaceOnUse" xlink:href="#id0" x1="87.36" y1="71.06" x2="126.15" y2="84.49">
  </linearGradient>
  <linearGradient id="id183" gradientUnits="userSpaceOnUse" xlink:href="#id0" x1="21.51" y1="62.11" x2="-17.77" y2="74.03">
  </linearGradient>
  <linearGradient id="id184" gradientUnits="userSpaceOnUse" xlink:href="#id0" x1="21.95" y1="47.56" x2="-18.79" y2="42.56">
  </linearGradient>
  <linearGradient id="id185" gradientUnits="userSpaceOnUse" xlink:href="#id0" x1="20.99" y1="20.99" x2="103.24" y2="103.24">
  </linearGradient>
  <linearGradient id="id186" gradientUnits="userSpaceOnUse" xlink:href="#id0" x1="82.07" y1="32.7" x2="106.04" y2="-1.17">
  </linearGradient>
  <linearGradient id="id187" gradientUnits="userSpaceOnUse" xlink:href="#id0" x1="35.57" y1="27.41" x2="4.38" y2="0.05">
  </linearGradient>
  <linearGradient id="id188" gradientUnits="userSpaceOnUse" xlink:href="#id0" x1="74.26" y1="26.17" x2="91.68" y2="-11">
  </linearGradient>
  <linearGradient id="id189" gradientUnits="userSpaceOnUse" xlink:href="#id0" x1="87.97" y1="41.93" x2="121.22" y2="17.1">
  </linearGradient>
  <linearGradient id="id190" gradientUnits="userSpaceOnUse" xlink:href="#id0" x1="36.57" y1="86.64" x2="95.09" y2="90.89">
  </linearGradient>
  <linearGradient id="id191" gradientUnits="userSpaceOnUse" xlink:href="#id0" x1="82.94" y1="59.25" x2="118.02" y2="67.1">
  </linearGradient>
  <linearGradient id="id192" gradientUnits="userSpaceOnUse" xlink:href="#id0" x1="90.7" y1="52.5" x2="130.02" y2="39.24">
  </linearGradient>
  <linearGradient id="id193" gradientUnits="userSpaceOnUse" xlink:href="#id0" x1="90.26" y1="49.66" x2="129.55" y2="37.74">
  </linearGradient>
  <linearGradient id="id194" gradientUnits="userSpaceOnUse" xlink:href="#id0" x1="90.8" y1="56.96" x2="131.7" y2="53.42">
  </linearGradient>
  <linearGradient id="id195" gradientUnits="userSpaceOnUse" xlink:href="#id0" x1="83.38" y1="57.26" x2="118.46" y2="65.11">
  </linearGradient>
  <linearGradient id="id196" gradientUnits="userSpaceOnUse" xlink:href="#id0" x1="22.75" y1="55.89" x2="89.02" y2="55.89">
  </linearGradient>
 </defs>
 <g id="Layer_x0020_1">
  <metadata id="CorelCorpID_0Corel-Layer"/>
  <g id="_2179859465424">
   <path class="fil0" d="M-0 55.89c0,30.87 25.02,55.89 55.89,55.89 30.86,0 55.89,-25.02 55.89,-55.89 0,-30.86 -25.02,-55.89 -55.89,-55.89 -30.86,0 -55.89,25.02 -55.89,55.89z"/>
   <path class="fil1" d="M0.75 55.22c-0.37,30.45 24.02,55.44 54.47,55.8 30.45,0.37 55.44,-24.02 55.81,-54.47 0.37,-30.45 -24.02,-55.44 -54.47,-55.81 -0.23,-0 -0.45,-0 -0.68,-0 -30.14,0 -54.76,24.25 -55.12,54.48z"/>
   <path class="fil2" d="M4.32 55.26c-0.34,28.48 22.46,51.84 50.94,52.19 28.48,0.34 51.84,-22.46 52.19,-50.94 0.34,-28.48 -22.46,-51.84 -50.94,-52.19 -0.21,-0 -0.42,-0 -0.64,-0 -28.19,0 -51.21,22.68 -51.55,50.94z"/>
   <path class="fil3" d="M106.78 55.89c0,28.11 -22.78,50.89 -50.89,50.89 -28.11,0 -50.89,-22.79 -50.89,-50.89 0,-28.11 22.78,-50.89 50.89,-50.89 28.11,0 50.89,22.79 50.89,50.89z"/>
   <path class="fil4" d="M85.6 55.23l13.22 0 0 -0.46 -13.04 0 -1.6 -1.47c-1.19,-13.16 -11.13,-23.66 -24.21,-25.53l-0.07 0.45c12.9,1.85 22.7,12.21 23.83,25.21l0.01 0.09 1.86 1.7z"/>
   <path class="fil5" d="M28.8 47.32l-0.03 0.11 1.8 2.46 13.71 0 0 -0.46 -13.48 0 -1.53 -2.09c2.68,-8.37 9.24,-15.06 17.56,-17.91l-0.15 -0.43c-8.5,2.91 -15.18,9.76 -17.88,18.32z"/>
   <path class="fil6" d="M16.51 55.89c0,21.71 17.66,39.37 39.37,39.37 16.51,0 31.38,-10.42 37.02,-25.93l0.11 -0.31 -2.16 0 -0.06 0.15c-5.48,14.4 -19.51,24.07 -34.91,24.07 -20.6,0 -37.35,-16.76 -37.35,-37.35 0,-20.6 16.76,-37.35 37.35,-37.35 15.66,0 29.77,9.89 35.12,24.61l0.05 0.15 2.13 0 -0.1 -0.3c-5.49,-15.84 -20.44,-26.48 -37.2,-26.48 -21.71,0 -39.37,17.66 -39.37,39.37zm0.46 0c0,-21.46 17.46,-38.92 38.92,-38.92 16.46,0 31.15,10.38 36.67,25.87l-1.17 0c-5.45,-14.81 -19.69,-24.75 -35.49,-24.75 -20.85,0 -37.81,16.96 -37.81,37.81 0,20.85 16.96,37.81 37.81,37.81 15.54,0 29.69,-9.72 35.28,-24.22l1.2 0c-5.65,15.16 -20.27,25.33 -36.48,25.33 -21.46,0 -38.92,-17.46 -38.92,-38.92z"/>
   <path class="fil7" d="M79.72 55.23l3 0 -0.01 -0.24c-0.48,-14.55 -12.26,-25.94 -26.82,-25.94 -10.78,0 -20.47,6.41 -24.7,16.32l-0.05 0.11 1.74 2.64 11.4 -0 0 -0.46 -11.15 0 -1.47 -2.23c4.18,-9.68 13.68,-15.93 24.23,-15.93 14.24,0 25.77,11.08 26.36,25.27l-2.34 0 -3.1 -3.1 0 -6.16 -0.45 0 0 6.34 3.37 3.37z"/>
   <path class="fil8" d="M75.8 56.54l0 0.46 6.45 0c-0.59,14.19 -12.12,25.27 -26.36,25.27 -10.55,0 -20.05,-6.25 -24.23,-15.93l1.47 -2.23 11.15 0 0 -0.46 -11.4 0 -1.74 2.64 0.05 0.11c4.23,9.91 13.92,16.32 24.7,16.32 14.56,0 26.35,-11.4 26.82,-25.94l0.01 -0.24 -6.92 0z"/>
   <path class="fil9" d="M55.89 80.7c-8.86,0 -17.09,-4.76 -21.51,-12.44l1.38 -2.38 8.52 0 0 -0.45 -8.79 0 -1.64 2.83 0.06 0.11c4.49,7.88 12.91,12.78 21.97,12.78 13.02,0 23.82,-9.75 25.14,-22.68l-0.45 -0.05c-1.29,12.7 -11.9,22.28 -24.68,22.28z"/>
   <path class="fil10" d="M33.91 43.4l-0.06 0.11 1.65 2.83 8.78 0 0 -0.45 -8.52 0 -1.38 -2.37c4.42,-7.68 12.66,-12.44 21.51,-12.44 12.78,0 23.39,9.58 24.68,22.28l0.45 -0.05c-1.31,-12.93 -12.12,-22.68 -25.14,-22.68 -9.06,0 -17.48,4.9 -21.97,12.79z"/>
   <polygon class="fil11" points="96.73,64.1 98.09,64.1 98.09,63.65 96.73,63.65 "/>
   <path class="fil12" d="M21.21 55.89c0,19.12 15.55,34.67 34.67,34.67 15.49,0 29.2,-10.39 33.38,-25.27l0.56 -0.45 -0.29 -0.35 -0.67 0.55 -0.02 0.07c-4.1,14.72 -17.66,25.01 -32.97,25.01 -18.87,0 -34.21,-15.35 -34.21,-34.21 0,-18.87 15.35,-34.21 34.21,-34.21 15.31,0 28.86,10.28 32.97,25.01l0.02 0.07 1.8 1.37 7.42 0 0 -0.46 -7.27 0 -1.55 -1.18c-4.18,-14.88 -17.9,-25.27 -33.38,-25.27 -19.12,0 -34.67,15.55 -34.67,34.67z"/>
   <path class="fil13" d="M30.56 61.87l-1.8 2.46 0.03 0.11c2.7,8.56 9.39,15.4 17.88,18.31l0.15 -0.43c-8.33,-2.85 -14.88,-9.54 -17.56,-17.91l1.53 -2.09 13.48 0 0 -0.46 -13.71 0z"/>
   <path class="fil14" d="M85.6 56.55l-1.86 1.71 -0.01 0.09c-1.13,12.99 -10.93,23.35 -23.83,25.2l0.07 0.45c13.08,-1.88 23.03,-12.36 24.21,-25.52l1.6 -1.47 13.04 -0.01 0 -0.46 -13.22 0.01z"/>
   <path class="fil15" d="M19.65 55.89c0,19.98 16.26,36.24 36.24,36.24 15.81,0 29.66,-10.09 34.5,-25.12l1.54 -1.12 5.79 0 0 -0.46 -5.94 0 -1.78 1.3 -0.02 0.07c-4.76,14.88 -18.46,24.87 -34.09,24.87 -19.73,0 -35.78,-16.05 -35.78,-35.78 0,-19.73 16.05,-35.78 35.78,-35.78 15.63,0 29.33,10 34.09,24.88l0.02 0.07 1.78 1.3 5.94 -0 0 -0.46 -5.79 0 -1.54 -1.12c-4.84,-15.03 -18.69,-25.12 -34.5,-25.12 -19.98,0 -36.24,16.26 -36.24,36.24z"/>
   <path class="fil16" d="M46.68 27.36c-10.04,3.24 -17.71,11.63 -20.03,21.91l-0.02 0.11 1.84 2.3 15.81 0 0 -0.46 -15.59 0 -1.57 -1.96c2.29,-9.97 9.7,-18.13 19.4,-21.37l-0 6.9 0.46 0 0 -7.53 -0.3 0.1z"/>
   <polygon class="fil17" points="53.5,23.17 50.56,23.17 50.56,34.79 51.02,34.79 51.02,23.63 53.5,23.63 "/>
   <path class="fil18" d="M49.67 34.79l0 -11.43 -0.27 0.05c-14.38,2.85 -25.28,15.05 -26.5,29.67l-0.01 0.1 1.88 2.04 19.51 0 0 -0.46 -19.31 0 -1.61 -1.75c1.24,-14.27 11.84,-26.2 25.86,-29.1l0 10.87 0.46 0z"/>
   <path class="fil19" d="M26.55 53.45l17.73 0 0 -0.46 -17.52 0 -1.59 -1.85c1.87,-12.23 10.76,-22.12 22.71,-25.3l0 8.94 0.46 0 0 -9.53 -0.28 0.07c-12.3,3.15 -21.47,13.3 -23.34,25.85l-0.02 0.1 1.86 2.17z"/>
   <polygon class="fil20" points="56.11,23.01 55.66,23.01 55.66,34.79 56.11,34.79 "/>
   <path class="fil21" d="M98.75 53.45l0 -0.46 -11.61 -0 -1.59 -1.39c-1.88,-13.18 -12.4,-23.63 -25.6,-25.42l-0.26 -0.03 0 8.63 0.46 0 0 -8.11c12.9,1.87 23.15,12.15 24.96,25.08l0.01 0.08 1.85 1.61 11.78 0z"/>
   <path class="fil22" d="M98.61 51.68l0 -0.46 -10.17 0 -1.58 -1.31c-2.65,-13.83 -14.26,-24.31 -28.26,-25.5l-0.25 -0.02 0 10.4 0.46 0 0 -9.91c13.71,1.28 25.05,11.61 27.62,25.19l0.02 0.08 1.84 1.52 10.33 -0z"/>
   <path class="fil23" d="M98.39 49.9l0 -0.46 -8.73 -0 -1.57 -1.24c-3.42,-14.36 -16.09,-24.8 -30.85,-25.39l-0.24 -0.01 0 11.99 0.46 0 -0 -11.52c14.48,0.69 26.88,10.98 30.21,25.11l0.02 0.08 1.82 1.44 8.89 0z"/>
   <path class="fil24" d="M89.56 58.77l0 -0.46 -2.58 0 -1.85 1.62 -0.01 0.08c-1.81,12.93 -12.06,23.2 -24.96,25.07l0 -8.28 -0.46 0 0 8.8 0.26 -0.03c13.2,-1.79 23.71,-12.24 25.6,-25.41l1.59 -1.39 2.41 0z"/>
   <polygon class="fil25" points="98.75,58.77 98.75,58.32 96.73,58.32 96.73,58.77 "/>
   <polygon class="fil26" points="55.66,88.76 56.11,88.76 56.11,76.82 55.66,76.82 "/>
   <polygon class="fil27" points="96.73,62.33 98.39,62.33 98.39,61.87 96.73,61.87 "/>
   <path class="fil28" d="M87.69 63.31l-0.02 0.08c-3.33,14.14 -15.73,24.44 -30.21,25.13l0 -11.7 -0.46 0 0 12.17 0.24 -0.01c14.76,-0.59 27.44,-11.04 30.85,-25.41l1.61 -1.27 -0.28 -0.36 -1.73 1.37z"/>
   <polygon class="fil29" points="98.61,60.55 98.61,60.1 96.73,60.1 96.73,60.55 "/>
   <path class="fil30" d="M89.56 60.55l0 -0.46 -1.28 0 -1.84 1.53 -0.01 0.08c-2.56,13.55 -13.9,23.85 -27.61,25.13l0 -10.02 -0.46 0 0 10.52 0.25 -0.02c14,-1.2 25.61,-11.65 28.25,-25.44l1.59 -1.32 1.12 0z"/>
   <polygon class="fil31" points="50.56,88.6 53.5,88.6 53.5,88.14 51.02,88.14 51.02,76.82 50.56,76.82 "/>
   <path class="fil32" d="M28.47 60.1l-1.84 2.3 0.02 0.11c2.32,10.28 9.99,18.67 20.03,21.91l0.3 0.1 0 -7.69 -0.46 0 0 7.07c-9.7,-3.24 -17.12,-11.4 -19.4,-21.37l1.57 -1.96 15.59 0 0 -0.46 -15.81 0z"/>
   <path class="fil33" d="M44.28 58.32l-17.73 0 -1.86 2.17 0.02 0.1c1.88,12.55 11.04,22.7 23.34,25.85l0.28 0.07 0 -9.69 -0.46 0 0 9.11c-11.95,-3.18 -20.84,-13.07 -22.71,-25.3l1.59 -1.85 17.52 0 0 -0.46z"/>
   <path class="fil34" d="M24.77 56.55l-1.88 2.04 0.01 0.1c1.23,14.61 12.13,26.8 26.5,29.66l0.27 0.05 0 -11.59 -0.46 0 0 11.03c-14.01,-2.91 -24.61,-14.83 -25.86,-29.1l1.6 -1.75 19.31 -0 0 -0.46 -19.51 0.01z"/>
   <polygon class="fil35" points="50.79,24.52 53.5,24.52 53.5,24.07 50.79,24.07 "/>
   <polygon class="fil36" points="50.79,25.99 53.5,25.99 53.5,25.53 50.79,25.53 "/>
   <polygon class="fil37" points="53.5,26.96 53.5,26.51 50.79,26.51 50.79,26.96 "/>
   <polygon class="fil38" points="53.5,87.58 53.5,87.13 50.79,87.13 50.79,87.58 "/>
   <polygon class="fil39" points="53.5,86.16 53.5,85.7 50.79,85.7 50.79,86.16 "/>
   <polygon class="fil40" points="53.5,85.14 53.5,84.68 50.79,84.68 50.79,85.14 "/>
   <path class="fil41" d="M52.19 24.69l2.49 0c0.25,0 0.46,-0.21 0.46,-0.46l0 -0.83c0,-0.25 -0.21,-0.46 -0.46,-0.46l-2.49 0c-0.25,0 -0.46,0.21 -0.46,0.46l0 0.83c0,0.25 0.21,0.46 0.46,0.46z"/>
   <path class="fil42" d="M91.53 55.39l0 0.8c0,0.33 0.26,0.59 0.59,0.59l3.63 0c0.33,0 0.59,-0.26 0.59,-0.59l0 -0.8c0,-0.33 -0.26,-0.59 -0.59,-0.59l-3.63 0c-0.33,0 -0.59,0.27 -0.59,0.59z"/>
   <path class="fil43" d="M95.75 51.24l-3.63 0c-0.33,0 -0.59,0.27 -0.59,0.59l0 0.8c0,0.33 0.26,0.59 0.59,0.59l3.63 0c0.33,0 0.59,-0.26 0.59,-0.59l0 -0.8c0,-0.33 -0.26,-0.59 -0.59,-0.59z"/>
   <path class="fil44" d="M34.74 53.33l3.63 0c0.33,0 0.59,-0.26 0.59,-0.59l0 -0.8c0,-0.33 -0.27,-0.59 -0.59,-0.59l-3.63 0c-0.33,0 -0.59,0.27 -0.59,0.59l0 0.8c0,0.33 0.26,0.59 0.59,0.59z"/>
   <path class="fil45" d="M34.74 56.88l3.63 0c0.33,0 0.59,-0.26 0.59,-0.59l0 -0.8c0,-0.33 -0.27,-0.59 -0.59,-0.59l-3.63 0c-0.33,0 -0.59,0.26 -0.59,0.59l0 0.8c0,0.33 0.26,0.59 0.59,0.59z"/>
   <path class="fil46" d="M74.74 56.4l0 0.73c0,0.3 0.24,0.54 0.54,0.54l3.33 0c0.3,0 0.54,-0.24 0.54,-0.54l0 -0.73c0,-0.3 -0.24,-0.54 -0.54,-0.54l-3.33 0c-0.3,0 -0.54,0.24 -0.54,0.54z"/>
   <path class="fil47" d="M76.96 46.14l-0.8 0c-0.33,0 -0.59,0.26 -0.59,0.59l0 3.63c0,0.33 0.26,0.59 0.59,0.59l0.8 0c0.33,0 0.59,-0.26 0.59,-0.59l0 -3.63c0,-0.33 -0.26,-0.59 -0.59,-0.59z"/>
   <path class="fil48" d="M38.36 58.44l-3.63 0c-0.33,0 -0.59,0.26 -0.59,0.59l0 0.8c0,0.33 0.26,0.59 0.59,0.59l3.63 0c0.33,0 0.59,-0.27 0.59,-0.59l0 -0.8c0,-0.33 -0.27,-0.59 -0.59,-0.59z"/>
   <path class="fil49" d="M55.14 26.68l0 -0.83c0,-0.25 -0.21,-0.46 -0.46,-0.46l-2.49 0c-0.25,0 -0.46,0.21 -0.46,0.46l0 0.83c0,0.25 0.21,0.46 0.46,0.46l2.49 0c0.25,0 0.46,-0.21 0.46,-0.46z"/>
   <path class="fil50" d="M52.19 88.74l2.49 0c0.25,0 0.46,-0.21 0.46,-0.46l0 -0.83c0,-0.25 -0.21,-0.46 -0.46,-0.46l-2.49 0c-0.25,0 -0.46,0.21 -0.46,0.46l0 0.83c0,0.25 0.21,0.46 0.46,0.46z"/>
   <path class="fil51" d="M52.19 86.3l2.49 0c0.25,0 0.46,-0.21 0.46,-0.46l0 -0.83c0,-0.25 -0.21,-0.46 -0.46,-0.46l-2.49 0c-0.25,0 -0.46,0.21 -0.46,0.46l0 0.83c0,0.25 0.21,0.46 0.46,0.46z"/>
   <path class="fil52" d="M89.33 64.88l7.63 0 0 -7.21 -7.63 0 0 7.21zm0.46 -6.75l6.72 0 0 6.3 -6.72 0 0 -6.3z"/>
   <polygon class="fil53" points="89.4,59.66 89.72,59.98 91.65,58.06 91.33,57.74 "/>
   <polygon class="fil54" points="94.63,64.49 94.95,64.81 96.89,62.88 96.57,62.56 "/>
   <polygon class="fil55" points="92.62,64.49 92.95,64.81 96.89,60.87 96.57,60.54 "/>
   <polygon class="fil56" points="98.8,58.86 98.34,58.86 98.34,58.87 "/>
   <polygon class="fil57" points="90.61,64.49 90.93,64.81 96.89,58.85 96.57,58.53 "/>
   <polygon class="fil58" points="89.4,63.69 89.72,64.01 95.68,58.06 95.36,57.74 "/>
   <polygon class="fil59" points="89.4,61.68 89.72,62.01 93.66,58.06 93.34,57.74 "/>
   <g>
    <g>
     <g>
      <polygon class="fil60" points="55.07,47.9 55.52,47.9 55.52,50.93 61.26,50.93 61.26,51.38 55.07,51.38 "/>
      <path class="fil61" d="M56.84 50.48l2.48 0c0.22,0 0.4,0.18 0.4,0.4l0 0.55c0,0.22 -0.18,0.4 -0.4,0.4l-2.48 0c-0.22,0 -0.4,-0.18 -0.4,-0.4l0 -0.55c0,-0.22 0.18,-0.4 0.4,-0.4z"/>
     </g>
     <g>
      <polygon class="fil62" points="52.5,47.9 52.96,47.9 52.96,51.4 54.37,52.82 61.26,52.82 61.26,53.28 54.18,53.28 52.5,51.59 "/>
      <path class="fil63" d="M55.75 52.37l2.48 0c0.22,0 0.4,0.18 0.4,0.4l0 0.55c0,0.22 -0.18,0.4 -0.4,0.4l-2.48 0c-0.22,0 -0.4,-0.18 -0.4,-0.4l0 -0.55c0,-0.22 0.18,-0.4 0.4,-0.4z"/>
     </g>
     <g>
      <polygon class="fil64" points="61.26,55.17 52.48,55.17 50.51,53.21 50.51,47.9 50.97,47.9 50.97,53.02 52.67,54.72 61.26,54.72 "/>
      <path class="fil65" d="M57.12 55.62l-2.48 0c-0.22,0 -0.4,-0.18 -0.4,-0.4l0 -0.55c0,-0.22 0.18,-0.4 0.4,-0.4l2.48 0c0.22,0 0.4,0.18 0.4,0.4l0 0.55c0,0.22 -0.18,0.4 -0.4,0.4z"/>
     </g>
    </g>
    <g>
     <g>
      <polygon class="fil66" points="55.07,63.87 55.52,63.87 55.52,60.84 61.26,60.84 61.26,60.39 55.07,60.39 "/>
      <path class="fil67" d="M56.84 61.29l2.48 0c0.22,0 0.4,-0.18 0.4,-0.4l0 -0.55c0,-0.22 -0.18,-0.4 -0.4,-0.4l-2.48 0c-0.22,0 -0.4,0.18 -0.4,0.4l0 0.55c0,0.22 0.18,0.4 0.4,0.4z"/>
     </g>
     <g>
      <polygon class="fil68" points="52.5,63.87 52.96,63.87 52.96,60.37 54.37,58.95 61.26,58.95 61.26,58.49 54.18,58.49 52.5,60.18 "/>
      <path class="fil69" d="M55.75 59.4l2.48 0c0.22,0 0.4,-0.18 0.4,-0.4l0 -0.55c0,-0.22 -0.18,-0.4 -0.4,-0.4l-2.48 0c-0.22,0 -0.4,0.18 -0.4,0.4l0 0.55c0,0.22 0.18,0.4 0.4,0.4z"/>
     </g>
     <g>
      <polygon class="fil70" points="61.26,56.6 52.48,56.6 50.51,58.56 50.51,63.87 50.97,63.87 50.97,58.75 52.67,57.05 61.26,57.05 "/>
      <path class="fil71" d="M57.12 56.15l-2.48 0c-0.22,0 -0.4,0.18 -0.4,0.4l0 0.55c0,0.22 0.18,0.4 0.4,0.4l2.48 0c0.22,0 0.4,-0.18 0.4,-0.4l0 -0.55c0,-0.22 -0.18,-0.4 -0.4,-0.4z"/>
     </g>
    </g>
   </g>
   <path class="fil72" d="M12.79 55.89c0,23.76 19.33,43.1 43.1,43.1 23.76,0 43.1,-19.33 43.1,-43.1 0,-23.76 -19.33,-43.1 -43.1,-43.1 -23.76,0 -43.1,19.33 -43.1,43.1zm0.46 0c0,-23.51 19.13,-42.64 42.64,-42.64 23.51,0 42.64,19.13 42.64,42.64 0,23.51 -19.13,42.64 -42.64,42.64 -23.51,0 -42.64,-19.13 -42.64,-42.64z"/>
   <path class="fil73" d="M55.81 12.05c-1.58,0 -3.17,0.09 -4.74,0.26 -0.63,0.07 -1.08,0.63 -1.01,1.26 0.06,0.56 0.52,0.98 1.07,1.01 0.06,0 0.12,0 0.19,-0 1.48,-0.16 3,-0.24 4.49,-0.25 0.63,0 1.14,-0.51 1.14,-1.14 -0,-0.63 -0.52,-1.14 -1.14,-1.14 -0,0 -0,0 -0,0zm3.49 1.26c-0.07,0.63 0.39,1.19 1.01,1.25 1.49,0.16 2.99,0.4 4.44,0.71 0.06,0.01 0.12,0.02 0.18,0.02 0.55,0.03 1.06,-0.34 1.18,-0.9 0.13,-0.61 -0.26,-1.22 -0.87,-1.35 -1.54,-0.33 -3.11,-0.59 -4.69,-0.75 -0.04,-0 -0.08,-0.01 -0.12,-0.01 -0.59,0 -1.07,0.43 -1.13,1.02zm-12.91 -0.23c-1.54,0.34 -3.08,0.77 -4.57,1.28 -0.6,0.2 -0.92,0.85 -0.71,1.44 0.15,0.45 0.56,0.75 1.02,0.77 0.14,0.01 0.29,-0.01 0.43,-0.06 1.41,-0.48 2.87,-0.89 4.33,-1.21 0.61,-0.14 1,-0.74 0.87,-1.36 -0.12,-0.53 -0.59,-0.89 -1.11,-0.89 -0.08,0 -0.17,0.01 -0.25,0.03zm21.98 1.95c-0.2,0.6 0.12,1.24 0.72,1.44 1.42,0.47 2.83,1.03 4.19,1.66 0.13,0.06 0.27,0.09 0.41,0.1 0.45,0.02 0.9,-0.22 1.1,-0.66 0.26,-0.57 0.01,-1.25 -0.56,-1.51 -1.43,-0.66 -2.92,-1.25 -4.42,-1.75 -0.12,-0.04 -0.24,-0.06 -0.36,-0.06 -0.48,0 -0.92,0.3 -1.08,0.78zm-30.96 1.09c-1.43,0.66 -2.84,1.42 -4.19,2.23 -0.54,0.33 -0.71,1.03 -0.39,1.56 0.2,0.33 0.55,0.53 0.91,0.55 0.22,0.01 0.45,-0.04 0.65,-0.16 1.28,-0.77 2.62,-1.49 3.97,-2.12 0.57,-0.27 0.82,-0.94 0.55,-1.51 -0.19,-0.41 -0.6,-0.66 -1.03,-0.66 -0.16,0 -0.32,0.03 -0.48,0.11zm39.45 2.54c-0.32,0.54 -0.15,1.24 0.39,1.56 1.28,0.77 2.54,1.62 3.73,2.52 0.19,0.14 0.41,0.22 0.62,0.23 0.36,0.02 0.73,-0.13 0.97,-0.45 0.38,-0.5 0.28,-1.22 -0.22,-1.6 -1.26,-0.95 -2.58,-1.85 -3.93,-2.66 -0.18,-0.11 -0.38,-0.16 -0.58,-0.16 -0.39,0 -0.76,0.2 -0.98,0.55zm-47.57 2.36c-1.25,0.96 -2.47,1.99 -3.61,3.08 -0.46,0.43 -0.48,1.15 -0.04,1.61 0.21,0.22 0.48,0.34 0.76,0.35 0.3,0.02 0.61,-0.09 0.85,-0.31 1.09,-1.03 2.24,-2.01 3.43,-2.92 0.5,-0.38 0.6,-1.1 0.21,-1.6 -0.22,-0.29 -0.56,-0.45 -0.91,-0.45 -0.24,0 -0.48,0.08 -0.69,0.23zm55.07 3.02c-0.43,0.46 -0.41,1.18 0.05,1.61 1.09,1.03 2.13,2.13 3.1,3.26 0.21,0.25 0.5,0.38 0.8,0.4 0.28,0.02 0.57,-0.07 0.8,-0.27 0.48,-0.41 0.54,-1.13 0.13,-1.61 -1.02,-1.2 -2.12,-2.36 -3.27,-3.44 -0.22,-0.21 -0.5,-0.31 -0.78,-0.31 -0.3,0 -0.61,0.12 -0.83,0.36zm-61.95 3.5c-1.02,1.2 -1.99,2.48 -2.87,3.78 -0.35,0.52 -0.22,1.23 0.3,1.58 0.18,0.12 0.38,0.18 0.58,0.19 0.39,0.02 0.77,-0.15 1.01,-0.5 0.84,-1.24 1.75,-2.44 2.72,-3.58 0.41,-0.48 0.35,-1.2 -0.13,-1.61 -0.21,-0.18 -0.48,-0.27 -0.74,-0.27 -0.32,0 -0.64,0.14 -0.87,0.4zm68.13 3.36c-0.52,0.36 -0.65,1.06 -0.3,1.58 0.84,1.24 1.63,2.53 2.33,3.85 0.19,0.36 0.56,0.58 0.94,0.6 0.2,0.01 0.41,-0.03 0.6,-0.13 0.55,-0.3 0.76,-0.99 0.47,-1.54 -0.74,-1.39 -1.57,-2.76 -2.46,-4.06 -0.22,-0.32 -0.58,-0.5 -0.94,-0.5 -0.22,0 -0.44,0.06 -0.64,0.2zm-73.45 4.49c-0.74,1.4 -1.41,2.85 -1.99,4.31 -0.23,0.59 0.05,1.25 0.64,1.48 0.12,0.05 0.24,0.07 0.36,0.08 0.48,0.03 0.94,-0.25 1.12,-0.72 0.55,-1.39 1.19,-2.76 1.89,-4.09 0.29,-0.56 0.08,-1.25 -0.47,-1.54 -0.17,-0.09 -0.35,-0.13 -0.53,-0.13 -0.41,0 -0.8,0.22 -1.01,0.61zm78.02 3.54c-0.58,0.23 -0.87,0.9 -0.63,1.48 0.56,1.39 1.05,2.82 1.45,4.26 0.13,0.48 0.56,0.8 1.03,0.83 0.12,0.01 0.25,-0.01 0.37,-0.04 0.61,-0.17 0.96,-0.8 0.79,-1.4 -0.43,-1.52 -0.94,-3.03 -1.53,-4.49 -0.18,-0.44 -0.6,-0.71 -1.06,-0.71 -0.14,0 -0.29,0.03 -0.42,0.08zm-81.52 5.27c-0.42,1.52 -0.76,3.08 -1.01,4.64 -0.1,0.62 0.32,1.21 0.94,1.31 0.04,0.01 0.08,0.01 0.12,0.01 0.57,0.03 1.09,-0.38 1.19,-0.95 0.24,-1.48 0.56,-2.96 0.96,-4.4 0.17,-0.61 -0.19,-1.23 -0.8,-1.4 -0.1,-0.03 -0.2,-0.04 -0.31,-0.04 -0.5,0 -0.96,0.33 -1.09,0.84zm-1.52 9.36c-0.08,1.58 -0.08,3.17 -0,4.74 0.03,0.59 0.5,1.04 1.07,1.08 0.04,0 0.08,0 0.13,0 0.63,-0.03 1.11,-0.57 1.08,-1.2 -0.08,-1.49 -0.08,-3 0,-4.5 0.03,-0.63 -0.46,-1.12 -1.08,-1.2 -0.02,-0 -0.04,-0 -0.06,-0 -0.6,0 -1.1,0.47 -1.14,1.08zm1.45 8.16c-0.62,0.1 -1.04,0.69 -0.94,1.31 0.26,1.56 0.6,3.12 1.02,4.64 0.13,0.48 0.56,0.81 1.03,0.83 0.12,0.01 0.25,-0.01 0.37,-0.04 0.61,-0.17 0.96,-0.8 0.79,-1.4 -0.4,-1.44 -0.73,-2.92 -0.97,-4.39 -0.09,-0.56 -0.58,-0.95 -1.12,-0.95 -0.06,0 -0.12,0.01 -0.18,0.02zm82.41 5.36c-0.4,1.44 -0.88,2.88 -1.44,4.26 -0.23,0.58 0.05,1.25 0.63,1.48 0.12,0.05 0.24,0.07 0.36,0.08 0.48,0.03 0.93,-0.25 1.12,-0.72 0.59,-1.46 1.1,-2.98 1.52,-4.5 0.17,-0.61 -0.19,-1.23 -0.79,-1.4 -0.1,-0.03 -0.2,-0.04 -0.3,-0.04 -0.5,0 -0.96,0.33 -1.1,0.83zm-80.18 3.6c-0.58,0.23 -0.87,0.9 -0.63,1.48 0.59,1.46 1.26,2.91 2,4.3 0.19,0.37 0.56,0.58 0.94,0.6 0.2,0.01 0.41,-0.03 0.6,-0.13 0.56,-0.3 0.77,-0.98 0.47,-1.54 -0.7,-1.32 -1.34,-2.69 -1.89,-4.08 -0.18,-0.44 -0.61,-0.72 -1.06,-0.72 -0.14,0 -0.28,0.03 -0.42,0.08zm76.85 4.74c-0.7,1.32 -1.48,2.61 -2.33,3.85 -0.35,0.52 -0.22,1.23 0.3,1.58 0.18,0.12 0.38,0.18 0.58,0.2 0.39,0.02 0.77,-0.15 1.01,-0.5 0.89,-1.31 1.72,-2.68 2.46,-4.06 0.3,-0.56 0.08,-1.25 -0.47,-1.54 -0.17,-0.09 -0.35,-0.13 -0.53,-0.13 -0.41,0 -0.8,0.22 -1.01,0.6zm-72.73 3.52c-0.52,0.35 -0.66,1.06 -0.3,1.58 0.89,1.31 1.86,2.58 2.87,3.78 0.21,0.25 0.5,0.38 0.8,0.4 0.28,0.02 0.57,-0.07 0.8,-0.27 0.48,-0.41 0.54,-1.13 0.13,-1.6 -0.97,-1.14 -1.88,-2.34 -2.73,-3.58 -0.22,-0.32 -0.58,-0.5 -0.94,-0.5 -0.22,0 -0.44,0.06 -0.64,0.2zm67.67 3.91c-0.97,1.14 -2.01,2.24 -3.1,3.26 -0.46,0.43 -0.48,1.15 -0.05,1.61 0.21,0.22 0.48,0.34 0.76,0.36 0.3,0.02 0.61,-0.09 0.85,-0.31 1.15,-1.08 2.25,-2.24 3.27,-3.44 0.41,-0.48 0.35,-1.2 -0.13,-1.61 -0.21,-0.18 -0.48,-0.27 -0.74,-0.27 -0.32,0 -0.64,0.14 -0.87,0.4zm-61.88 3.29c-0.43,0.46 -0.41,1.18 0.04,1.61 1.15,1.09 2.36,2.12 3.62,3.08 0.19,0.14 0.41,0.22 0.63,0.23 0.36,0.02 0.73,-0.13 0.97,-0.45 0.38,-0.5 0.28,-1.22 -0.21,-1.6 -1.19,-0.91 -2.34,-1.89 -3.43,-2.92 -0.22,-0.21 -0.5,-0.31 -0.78,-0.31 -0.3,0 -0.6,0.12 -0.83,0.35zm55.34 2.89c-1.19,0.9 -2.44,1.75 -3.73,2.53 -0.54,0.32 -0.71,1.02 -0.39,1.56 0.2,0.34 0.55,0.53 0.91,0.55 0.22,0.01 0.45,-0.04 0.65,-0.16 1.35,-0.81 2.67,-1.71 3.93,-2.66 0.5,-0.38 0.6,-1.1 0.22,-1.6 -0.22,-0.3 -0.56,-0.45 -0.91,-0.45 -0.24,0 -0.48,0.08 -0.69,0.23zm-48.15 2.9c-0.32,0.54 -0.15,1.24 0.39,1.56 1.35,0.82 2.77,1.57 4.2,2.23 0.13,0.06 0.28,0.1 0.41,0.1 0.45,0.02 0.9,-0.22 1.1,-0.66 0.26,-0.57 0.02,-1.25 -0.55,-1.51 -1.35,-0.63 -2.69,-1.34 -3.98,-2.11 -0.18,-0.11 -0.39,-0.16 -0.59,-0.16 -0.39,0 -0.76,0.2 -0.98,0.55zm40.45 1.73c-1.36,0.63 -2.76,1.19 -4.18,1.67 -0.6,0.2 -0.92,0.85 -0.72,1.44 0.15,0.45 0.56,0.75 1.02,0.77 0.14,0.01 0.29,-0.01 0.43,-0.06 1.5,-0.5 2.98,-1.1 4.41,-1.76 0.57,-0.27 0.82,-0.94 0.56,-1.51 -0.19,-0.42 -0.6,-0.66 -1.03,-0.66 -0.16,0 -0.32,0.03 -0.48,0.11zm-32.17 2.37c-0.2,0.6 0.12,1.24 0.72,1.44 1.49,0.5 3.03,0.93 4.58,1.27 0.06,0.01 0.12,0.02 0.18,0.03 0.55,0.03 1.05,-0.34 1.17,-0.89 0.13,-0.61 -0.25,-1.22 -0.87,-1.36 -1.46,-0.32 -2.92,-0.72 -4.34,-1.2 -0.12,-0.04 -0.24,-0.06 -0.36,-0.06 -0.48,0 -0.92,0.3 -1.08,0.78zm23.65 0.49c-1.46,0.32 -2.96,0.56 -4.44,0.72 -0.63,0.07 -1.08,0.63 -1.01,1.25 0.06,0.56 0.52,0.99 1.07,1.02 0.06,0 0.12,0 0.19,-0 1.57,-0.17 3.15,-0.42 4.69,-0.76 0.62,-0.13 1,-0.74 0.87,-1.36 -0.12,-0.53 -0.59,-0.9 -1.11,-0.9 -0.08,0 -0.16,0.01 -0.25,0.03zm-14.69 1.72c-0.07,0.63 0.38,1.19 1.01,1.25 0.77,0.08 1.54,0.15 2.32,0.19 0.8,0.04 1.62,0.07 2.42,0.07 0.63,0 1.14,-0.51 1.14,-1.14 0,-0.63 -0.5,-1.15 -1.14,-1.14 -1.5,-0 -3.02,-0.09 -4.5,-0.25 -0.04,-0 -0.08,-0.01 -0.12,-0.01 -0.57,0 -1.07,0.43 -1.13,1.02z"/>
   <g>
    <path class="fil73 str0" d="M53.21 88.02c-15.68,-1.29 -28.17,-13.78 -29.46,-29.46l7.19 0c1.24,11.72 10.55,21.02 22.27,22.27l0 7.19zm-29.46 -34.8c1.29,-15.68 13.78,-28.17 29.46,-29.46l0 7.19c-11.72,1.24 -21.02,10.55 -22.27,22.27l-7.19 0zm34.8 -29.46c15.68,1.29 28.17,13.78 29.46,29.46l-7.19 0c-1.24,-11.72 -10.55,-21.02 -22.27,-22.27l0 -7.19zm-2.08 50.81c-3.39,0 -6.43,-0.8 -9.12,-2.39 -2.69,-1.59 -4.81,-3.81 -6.35,-6.65 -1.54,-2.84 -2.31,-6.06 -2.31,-9.65 0,-3.59 0.77,-6.81 2.31,-9.65 1.54,-2.84 3.66,-5.05 6.35,-6.65 2.69,-1.59 5.73,-2.39 9.12,-2.39 2.96,0 5.62,0.58 7.99,1.74 2.37,1.16 4.34,2.84 5.91,5.03l-5.82 5.85c-2.09,-2.81 -4.63,-4.21 -7.62,-4.21 -1.75,0 -3.32,0.43 -4.69,1.28 -1.37,0.86 -2.43,2.06 -3.19,3.62 -0.75,1.56 -1.13,3.34 -1.13,5.36 0,2.02 0.38,3.81 1.13,5.36 0.75,1.56 1.82,2.76 3.19,3.62 1.37,0.86 2.93,1.28 4.69,1.28 2.99,0 5.53,-1.4 7.62,-4.21l5.82 5.85c-1.57,2.19 -3.54,3.87 -5.91,5.03 -2.37,1.16 -5.03,1.74 -7.99,1.74zm31.54 -16.01c-1.29,15.68 -13.78,28.17 -29.46,29.46l0 -7.19c11.72,-1.24 21.02,-10.55 22.27,-22.27l7.19 0z"/>
    <path class="fil74" d="M58.69 22.76c8.06,0.67 15.31,4.22 20.7,9.62 5.41,5.41 8.96,12.67 9.62,20.76 0.04,0.55 -0.37,1.04 -0.92,1.08 -0.03,0 -0.05,0 -0.08,0l0 0 -7.19 0c-0.54,0 -0.98,-0.43 -1,-0.97 -0.61,-5.59 -3.13,-10.61 -6.91,-14.39 -3.79,-3.79 -8.83,-6.32 -14.45,-6.92 -0.52,-0.05 -0.9,-0.49 -0.9,-1l-0 0 0 -7.19c0,-0.55 0.45,-1 1,-1 0.04,0 0.09,0 0.13,0.01zm19.28 11.04c-4.84,-4.84 -11.26,-8.1 -18.41,-8.94l0 5.2c5.73,0.81 10.87,3.48 14.77,7.38 3.9,3.9 6.57,9.03 7.38,14.77l5.2 0c-0.84,-7.15 -4.1,-13.57 -8.94,-18.41zm-28 27.01c0.34,0.69 0.74,1.31 1.21,1.84 0.47,0.53 1,0.98 1.6,1.36 0.61,0.38 1.25,0.66 1.93,0.85 0.69,0.19 1.43,0.28 2.23,0.28 1.32,0 2.54,-0.31 3.66,-0.93 1.14,-0.63 2.19,-1.59 3.15,-2.88 0.33,-0.44 0.96,-0.54 1.41,-0.2 0.06,0.04 0.11,0.09 0.16,0.15l5.77 5.8c0.35,0.35 0.38,0.9 0.1,1.29l0 0c-0.83,1.15 -1.77,2.18 -2.82,3.08 -1.05,0.89 -2.21,1.65 -3.46,2.27 -1.27,0.62 -2.6,1.08 -4,1.39 -1.4,0.31 -2.88,0.46 -4.43,0.46 -1.77,0 -3.46,-0.21 -5.07,-0.63 -1.62,-0.42 -3.14,-1.05 -4.56,-1.9 -1.42,-0.84 -2.7,-1.85 -3.82,-3.03 -1.12,-1.18 -2.09,-2.51 -2.9,-4 -0.81,-1.49 -1.41,-3.08 -1.82,-4.79 -0.41,-1.7 -0.61,-3.47 -0.61,-5.34 0,-1.86 0.2,-3.64 0.61,-5.34 0.41,-1.7 1.02,-3.3 1.82,-4.79 0.81,-1.49 1.78,-2.83 2.9,-4 1.12,-1.18 2.4,-2.19 3.82,-3.03 2.85,-1.68 6.06,-2.53 9.63,-2.53 1.55,0 3.02,0.15 4.43,0.46 1.4,0.31 2.74,0.77 4,1.39 1.26,0.62 2.41,1.37 3.46,2.27 1.06,0.9 2,1.92 2.82,3.08 0.3,0.42 0.23,1 -0.15,1.34l-5.77 5.8c-0.39,0.39 -1.02,0.39 -1.42,0 -0.04,-0.04 -0.07,-0.07 -0.1,-0.11l-0 0c-0.96,-1.29 -2.01,-2.25 -3.15,-2.88 -1.12,-0.62 -2.34,-0.93 -3.66,-0.93 -1.57,0 -2.95,0.38 -4.16,1.13 -0.6,0.37 -1.13,0.83 -1.6,1.36 -0.47,0.54 -0.88,1.15 -1.21,1.84 -0.34,0.71 -0.6,1.46 -0.77,2.28 -0.17,0.82 -0.26,1.7 -0.26,2.65 0,0.95 0.09,1.83 0.26,2.65 0.17,0.81 0.43,1.57 0.77,2.28zm-0.29 3.17c-0.59,-0.67 -1.09,-1.43 -1.51,-2.3 -0.41,-0.85 -0.72,-1.76 -0.93,-2.74 -0.2,-0.97 -0.31,-1.99 -0.31,-3.06 0,-1.07 0.1,-2.09 0.31,-3.06 0.21,-0.98 0.51,-1.89 0.93,-2.74 0.42,-0.86 0.92,-1.63 1.51,-2.3 0.59,-0.68 1.28,-1.25 2.05,-1.73 1.53,-0.96 3.27,-1.44 5.22,-1.44 1.66,0 3.21,0.39 4.63,1.18 1.11,0.61 2.13,1.46 3.07,2.53l4.41 -4.44c-0.61,-0.76 -1.27,-1.45 -1.98,-2.05 -0.92,-0.78 -1.94,-1.45 -3.05,-1.99 -1.11,-0.54 -2.29,-0.95 -3.55,-1.23 -1.26,-0.28 -2.59,-0.41 -4,-0.41 -3.21,0 -6.08,0.75 -8.61,2.24 -1.27,0.75 -2.4,1.64 -3.39,2.68 -0.99,1.04 -1.86,2.23 -2.59,3.58 -0.73,1.35 -1.28,2.78 -1.64,4.29 -0.36,1.52 -0.55,3.15 -0.55,4.87 0,1.73 0.18,3.35 0.55,4.87 0.36,1.51 0.91,2.94 1.64,4.29 0.73,1.35 1.59,2.54 2.59,3.58 0.99,1.04 2.12,1.93 3.39,2.68 1.27,0.75 2.62,1.31 4.04,1.68 1.43,0.37 2.95,0.56 4.57,0.56 1.41,0 2.74,-0.14 4,-0.41 1.26,-0.28 2.44,-0.68 3.55,-1.23 1.11,-0.55 2.13,-1.21 3.05,-1.99 0.71,-0.6 1.37,-1.29 1.98,-2.05l-4.41 -4.44c-0.94,1.08 -1.96,1.92 -3.07,2.53 -1.42,0.79 -2.96,1.18 -4.63,1.18 -0.96,0 -1.87,-0.12 -2.75,-0.36 -0.88,-0.24 -1.7,-0.6 -2.47,-1.08 -0.77,-0.48 -1.45,-1.06 -2.05,-1.73zm-25.92 -6.43l7.19 0c0.54,0 0.98,0.43 1,0.97 0.61,5.59 3.13,10.61 6.91,14.39 3.79,3.79 8.83,6.32 14.45,6.92 0.52,0.05 0.9,0.49 0.9,1l0 0 0 7.19c0,0.55 -0.45,1 -1,1 -0.04,0 -0.09,-0 -0.13,-0.01 -8.06,-0.67 -15.31,-4.22 -20.7,-9.62 -5.41,-5.41 -8.96,-12.67 -9.62,-20.76 -0.04,-0.55 0.37,-1.04 0.92,-1.08 0.03,-0 0.05,-0 0.08,-0l0 -0zm6.31 2.01l-5.2 0c0.84,7.15 4.1,13.57 8.94,18.41 4.84,4.84 11.26,8.1 18.41,8.94l0 -5.2c-5.73,-0.81 -10.87,-3.48 -14.77,-7.38 -3.9,-3.9 -6.57,-9.03 -7.38,-14.77zm28.46 20.26c5.59,-0.61 10.61,-3.13 14.39,-6.91 3.79,-3.79 6.32,-8.83 6.92,-14.45 0.05,-0.52 0.49,-0.9 1,-0.9l0 -0 7.19 0c0.55,0 1,0.45 1,1 0,0.04 -0,0.09 -0.01,0.13 -0.67,8.06 -4.22,15.31 -9.62,20.7 -5.41,5.41 -12.67,8.96 -20.76,9.62 -0.55,0.04 -1.04,-0.37 -1.08,-0.92 -0,-0.03 -0,-0.05 -0,-0.08l-0 0 0 -7.19c0,-0.54 0.43,-0.98 0.97,-1zm15.81 -5.49c-3.9,3.9 -9.03,6.57 -14.77,7.38l0 5.2c7.15,-0.84 13.57,-4.1 18.41,-8.94 4.84,-4.84 8.1,-11.26 8.94,-18.41l-5.2 0c-0.81,5.73 -3.48,10.87 -7.38,14.77zm-20.11 -50.57l0 7.19c0,0.54 -0.43,0.98 -0.97,1 -5.59,0.61 -10.61,3.13 -14.39,6.91 -3.79,3.79 -6.32,8.83 -6.92,14.45 -0.05,0.52 -0.49,0.9 -1,0.9l0 0 -7.19 0c-0.55,0 -1,-0.45 -1,-1 0,-0.04 0,-0.09 0.01,-0.13 0.67,-8.06 4.22,-15.31 9.62,-20.7 5.41,-5.41 12.67,-8.96 20.76,-9.62 0.55,-0.04 1.04,0.37 1.08,0.92 0,0.03 0,0.05 0,0.08l0 0zm-2.01 6.31l0 -5.2c-7.15,0.84 -13.57,4.1 -18.41,8.94 -4.84,4.84 -8.1,11.26 -8.94,18.41l5.2 0c0.81,-5.73 3.48,-10.87 7.38,-14.77 3.9,-3.9 9.03,-6.57 14.77,-7.38z"/>
   </g>
   <g>
    <g>
     <path class="fil75" d="M74.04 54.98l2.29 0c0.21,0 0.37,-0.17 0.37,-0.37l0 -0.51c0,-0.21 -0.17,-0.37 -0.37,-0.37l-2.29 0c-0.21,0 -0.37,0.17 -0.37,0.37l0 0.51c0,0.21 0.17,0.37 0.37,0.37z"/>
     <path class="fil76" d="M75.8 52.4l0 -0.51c0,-0.21 -0.17,-0.37 -0.37,-0.37l-2.29 0c-0.21,0 -0.37,0.17 -0.37,0.37l0 0.51c0,0.21 0.17,0.37 0.37,0.37l2.29 0c0.21,0 0.37,-0.17 0.37,-0.37z"/>
    </g>
    <g>
     <path class="fil77" d="M74.04 58.56l2.29 0c0.21,0 0.37,0.17 0.37,0.37l0 0.51c0,0.21 -0.17,0.37 -0.37,0.37l-2.29 0c-0.21,0 -0.37,-0.17 -0.37,-0.37l0 -0.51c0,-0.21 0.17,-0.37 0.37,-0.37z"/>
     <path class="fil78" d="M75.8 61.13l0 0.51c0,0.21 -0.17,0.37 -0.37,0.37l-2.29 0c-0.21,0 -0.37,-0.17 -0.37,-0.37l0 -0.51c0,-0.21 0.17,-0.37 0.37,-0.37l2.29 0c0.21,0 0.37,0.17 0.37,0.37z"/>
    </g>
   </g>
   <g>
    <path class="fil79" d="M53.15 10.88l0.74 -0.04c0.3,-0.02 0.53,-0.27 0.52,-0.57l-0.17 -3.35c-0.02,-0.3 -0.27,-0.53 -0.57,-0.52l-0.74 0.04c-0.3,0.02 -0.53,0.27 -0.52,0.57l0.17 3.35c0.02,0.3 0.27,0.53 0.57,0.52z"/>
    <path class="fil80" d="M50.98 11.06l0.37 -0.04c0.15,-0.02 0.25,-0.27 0.22,-0.57l-0.35 -3.34c-0.03,-0.3 -0.18,-0.53 -0.33,-0.51l-0.37 0.04c-0.15,0.02 -0.25,0.27 -0.22,0.57l0.35 3.34c0.03,0.3 0.18,0.53 0.33,0.51z"/>
    <path class="fil81" d="M48.46 11.41l0.73 -0.12c0.3,-0.05 0.5,-0.33 0.45,-0.62l-0.52 -3.31c-0.05,-0.3 -0.33,-0.5 -0.62,-0.45l-0.73 0.12c-0.3,0.05 -0.5,0.33 -0.45,0.62l0.52 3.31c0.05,0.3 0.33,0.5 0.62,0.45z"/>
    <path class="fil82" d="M46.32 11.82l0.37 -0.08c0.15,-0.03 0.22,-0.3 0.16,-0.59l-0.69 -3.28c-0.06,-0.3 -0.23,-0.51 -0.38,-0.48l-0.37 0.08c-0.15,0.03 -0.22,0.3 -0.16,0.59l0.69 3.28c0.06,0.29 0.23,0.51 0.38,0.48z"/>
    <path class="fil83" d="M43.85 12.42l0.72 -0.19c0.29,-0.08 0.46,-0.38 0.39,-0.67l-0.87 -3.24c-0.08,-0.29 -0.38,-0.46 -0.67,-0.39l-0.72 0.19c-0.29,0.08 -0.46,0.38 -0.39,0.67l0.87 3.24c0.08,0.29 0.38,0.46 0.67,0.39z"/>
    <path class="fil84" d="M41.77 13.05l0.36 -0.12c0.15,-0.05 0.19,-0.32 0.09,-0.6l-1.04 -3.19c-0.09,-0.29 -0.29,-0.48 -0.43,-0.43l-0.36 0.12c-0.15,0.05 -0.19,0.32 -0.09,0.6l1.04 3.19c0.09,0.29 0.29,0.48 0.43,0.43z"/>
    <path class="fil85" d="M39.38 13.92l0.69 -0.27c0.28,-0.11 0.42,-0.42 0.31,-0.71l-1.2 -3.13c-0.11,-0.28 -0.42,-0.42 -0.71,-0.31l-0.69 0.27c-0.28,0.11 -0.42,0.42 -0.31,0.71l1.2 3.13c0.11,0.28 0.42,0.42 0.71,0.31z"/>
    <path class="fil86" d="M37.37 14.76l0.34 -0.15c0.14,-0.06 0.15,-0.34 0.03,-0.61l-1.37 -3.06c-0.12,-0.28 -0.34,-0.45 -0.47,-0.39l-0.34 0.15c-0.14,0.06 -0.15,0.34 -0.03,0.61l1.37 3.06c0.12,0.28 0.34,0.45 0.47,0.39z"/>
    <path class="fil87" d="M35.09 15.87l0.66 -0.34c0.27,-0.14 0.37,-0.47 0.24,-0.73l-1.53 -2.99c-0.14,-0.27 -0.47,-0.38 -0.73,-0.24l-0.66 0.34c-0.27,0.14 -0.37,0.47 -0.24,0.73l1.53 2.99c0.14,0.27 0.47,0.38 0.73,0.24z"/>
    <path class="fil88" d="M33.18 16.93l0.32 -0.19c0.13,-0.08 0.12,-0.35 -0.03,-0.61l-1.68 -2.9c-0.15,-0.26 -0.38,-0.41 -0.51,-0.33l-0.32 0.19c-0.13,0.08 -0.12,0.35 0.03,0.61l1.68 2.9c0.15,0.26 0.38,0.41 0.51,0.33z"/>
    <path class="fil89" d="M31.02 18.27l0.62 -0.4c0.25,-0.16 0.32,-0.5 0.16,-0.76l-1.83 -2.81c-0.16,-0.25 -0.5,-0.32 -0.76,-0.16l-0.62 0.4c-0.25,0.16 -0.32,0.5 -0.16,0.76l1.83 2.81c0.16,0.25 0.5,0.32 0.76,0.16z"/>
    <path class="fil90" d="M29.23 19.52l0.3 -0.22c0.12,-0.09 0.08,-0.36 -0.1,-0.6l-1.97 -2.71c-0.18,-0.24 -0.42,-0.37 -0.54,-0.28l-0.3 0.22c-0.12,0.09 -0.08,0.36 0.1,0.6l1.97 2.71c0.18,0.24 0.42,0.37 0.54,0.28z"/>
    <path class="fil91" d="M27.23 21.08l0.58 -0.47c0.23,-0.19 0.27,-0.53 0.08,-0.77l-2.11 -2.61c-0.19,-0.23 -0.53,-0.27 -0.77,-0.08l-0.58 0.47c-0.23,0.19 -0.27,0.53 -0.08,0.77l2.11 2.61c0.19,0.23 0.53,0.27 0.77,0.08z"/>
    <path class="fil92" d="M25.58 22.51l0.28 -0.25c0.11,-0.1 0.04,-0.37 -0.16,-0.59l-2.25 -2.49c-0.2,-0.22 -0.46,-0.32 -0.57,-0.22l-0.28 0.25c-0.11,0.1 -0.04,0.37 0.16,0.59l2.25 2.49c0.2,0.22 0.46,0.32 0.57,0.22z"/>
    <path class="fil93" d="M23.74 24.27l0.52 -0.52c0.21,-0.21 0.21,-0.56 -0,-0.77l-2.37 -2.37c-0.21,-0.21 -0.56,-0.21 -0.77,-0l-0.52 0.52c-0.21,0.21 -0.21,0.56 0,0.77l2.37 2.37c0.21,0.21 0.56,0.21 0.77,0z"/>
    <path class="fil94" d="M22.26 25.86l0.25 -0.28c0.1,-0.11 0,-0.37 -0.22,-0.57l-2.49 -2.24c-0.22,-0.2 -0.49,-0.27 -0.59,-0.16l-0.25 0.28c-0.1,0.11 -0,0.37 0.22,0.57l2.49 2.25c0.22,0.2 0.49,0.27 0.59,0.16z"/>
    <path class="fil95" d="M20.61 27.8l0.47 -0.58c0.19,-0.23 0.15,-0.58 -0.08,-0.77l-2.61 -2.11c-0.23,-0.19 -0.58,-0.15 -0.77,0.08l-0.47 0.58c-0.19,0.23 -0.15,0.58 0.08,0.77l2.61 2.11c0.23,0.19 0.58,0.15 0.77,-0.08z"/>
    <path class="fil96" d="M19.3 29.54l0.22 -0.3c0.09,-0.12 -0.04,-0.37 -0.28,-0.54l-2.71 -1.97c-0.24,-0.18 -0.51,-0.22 -0.6,-0.1l-0.22 0.3c-0.09,0.12 0.04,0.37 0.28,0.54l2.71 1.97c0.24,0.18 0.51,0.22 0.6,0.1z"/>
    <path class="fil97" d="M17.87 31.64l0.4 -0.62c0.16,-0.25 0.09,-0.59 -0.16,-0.76l-2.81 -1.83c-0.25,-0.16 -0.59,-0.09 -0.76,0.16l-0.4 0.62c-0.16,0.25 -0.09,0.59 0.16,0.76l2.81 1.83c0.25,0.16 0.59,0.09 0.76,-0.16z"/>
    <path class="fil98" d="M16.74 33.5l0.19 -0.32c0.08,-0.13 -0.07,-0.36 -0.33,-0.51l-2.9 -1.68c-0.26,-0.15 -0.53,-0.17 -0.61,-0.03l-0.19 0.32c-0.08,0.13 0.07,0.36 0.33,0.51l2.9 1.68c0.26,0.15 0.53,0.17 0.61,0.03z"/>
    <path class="fil99" d="M15.54 35.75l0.34 -0.66c0.14,-0.27 0.03,-0.6 -0.24,-0.73l-2.99 -1.53c-0.27,-0.14 -0.6,-0.03 -0.73,0.24l-0.34 0.66c-0.14,0.27 -0.03,0.6 0.24,0.73l2.99 1.53c0.27,0.14 0.6,0.03 0.73,-0.24z"/>
    <path class="fil100" d="M14.61 37.72l0.15 -0.34c0.06,-0.14 -0.11,-0.35 -0.39,-0.47l-3.06 -1.37c-0.28,-0.12 -0.55,-0.11 -0.61,0.03l-0.15 0.34c-0.06,0.14 0.11,0.35 0.39,0.47l3.06 1.37c0.28,0.12 0.55,0.11 0.61,-0.03z"/>
    <path class="fil101" d="M13.65 40.07l0.27 -0.69c0.11,-0.28 -0.03,-0.6 -0.31,-0.71l-3.13 -1.2c-0.28,-0.11 -0.6,0.03 -0.71,0.31l-0.27 0.69c-0.11,0.28 0.03,0.6 0.31,0.71l3.13 1.2c0.28,0.11 0.6,-0.03 0.71,-0.31z"/>
    <path class="fil102" d="M12.94 42.13l0.12 -0.36c0.05,-0.15 -0.15,-0.34 -0.43,-0.43l-3.19 -1.04c-0.29,-0.09 -0.56,-0.05 -0.6,0.09l-0.12 0.36c-0.05,0.15 0.15,0.34 0.43,0.43l3.19 1.04c0.29,0.09 0.56,0.05 0.6,-0.09z"/>
    <path class="fil103" d="M12.23 44.57l0.19 -0.72c0.08,-0.29 -0.1,-0.59 -0.39,-0.67l-3.24 -0.87c-0.29,-0.08 -0.59,0.09 -0.67,0.39l-0.19 0.72c-0.08,0.29 0.1,0.59 0.39,0.67l3.24 0.87c0.29,0.08 0.59,-0.09 0.67,-0.39z"/>
    <path class="fil104" d="M11.74 46.69l0.08 -0.37c0.03,-0.15 -0.18,-0.32 -0.48,-0.38l-3.28 -0.69c-0.3,-0.06 -0.56,0.01 -0.59,0.16l-0.08 0.37c-0.03,0.15 0.18,0.32 0.48,0.38l3.28 0.69c0.29,0.06 0.56,-0.01 0.59,-0.16z"/>
    <path class="fil105" d="M11.29 49.19l0.12 -0.73c0.05,-0.3 -0.16,-0.58 -0.45,-0.62l-3.31 -0.52c-0.3,-0.05 -0.58,0.16 -0.62,0.45l-0.12 0.73c-0.05,0.3 0.16,0.58 0.45,0.62l3.31 0.52c0.3,0.05 0.58,-0.16 0.62,-0.45z"/>
    <path class="fil106" d="M11.03 51.36l0.04 -0.37c0.02,-0.15 -0.22,-0.3 -0.51,-0.33l-3.34 -0.35c-0.3,-0.03 -0.56,0.07 -0.57,0.22l-0.04 0.37c-0.02,0.15 0.21,0.3 0.51,0.33l3.34 0.35c0.3,0.03 0.56,-0.07 0.57,-0.22z"/>
    <path class="fil107" d="M10.84 53.89l0.04 -0.74c0.02,-0.3 -0.22,-0.56 -0.52,-0.57l-3.35 -0.17c-0.3,-0.02 -0.56,0.22 -0.57,0.52l-0.04 0.74c-0.02,0.3 0.22,0.56 0.52,0.57l3.35 0.17c0.3,0.02 0.56,-0.22 0.57,-0.52z"/>
    <path class="fil108" d="M10.8 56.07l0 -0.37c0,-0.15 -0.25,-0.28 -0.55,-0.28l-3.35 0c-0.3,0 -0.55,0.12 -0.55,0.28l0 0.37c0,0.15 0.24,0.28 0.55,0.28l3.35 0c0.3,0 0.55,-0.12 0.55,-0.28z"/>
    <path class="fil109" d="M10.88 58.62l-0.04 -0.74c-0.02,-0.3 -0.27,-0.53 -0.57,-0.52l-3.35 0.17c-0.3,0.02 -0.53,0.27 -0.52,0.57l0.04 0.74c0.02,0.3 0.27,0.53 0.57,0.52l3.35 -0.17c0.3,-0.02 0.53,-0.27 0.52,-0.57z"/>
    <path class="fil110" d="M11.06 60.79l-0.04 -0.37c-0.02,-0.15 -0.27,-0.25 -0.57,-0.22l-3.34 0.35c-0.3,0.03 -0.53,0.18 -0.51,0.33l0.04 0.37c0.02,0.15 0.27,0.25 0.57,0.22l3.34 -0.35c0.3,-0.03 0.53,-0.18 0.51,-0.33z"/>
    <path class="fil111" d="M11.41 63.31l-0.12 -0.73c-0.05,-0.3 -0.33,-0.5 -0.62,-0.45l-3.31 0.52c-0.3,0.05 -0.5,0.33 -0.45,0.62l0.12 0.73c0.05,0.3 0.33,0.5 0.62,0.45l3.31 -0.52c0.3,-0.05 0.5,-0.33 0.46,-0.62z"/>
    <path class="fil112" d="M11.82 65.45l-0.08 -0.37c-0.03,-0.15 -0.3,-0.22 -0.59,-0.16l-3.28 0.69c-0.3,0.06 -0.51,0.23 -0.48,0.38l0.08 0.37c0.03,0.15 0.3,0.22 0.59,0.16l3.28 -0.69c0.29,-0.06 0.51,-0.23 0.48,-0.38z"/>
    <path class="fil113" d="M12.42 67.92l-0.19 -0.72c-0.08,-0.29 -0.38,-0.46 -0.67,-0.39l-3.24 0.87c-0.29,0.08 -0.46,0.38 -0.39,0.67l0.19 0.72c0.08,0.29 0.38,0.46 0.67,0.39l3.24 -0.87c0.29,-0.08 0.46,-0.38 0.39,-0.67z"/>
    <path class="fil114" d="M13.05 70l-0.12 -0.36c-0.05,-0.15 -0.32,-0.19 -0.6,-0.09l-3.19 1.04c-0.29,0.09 -0.48,0.29 -0.43,0.43l0.12 0.36c0.05,0.15 0.32,0.19 0.6,0.09l3.19 -1.04c0.29,-0.09 0.48,-0.29 0.43,-0.43z"/>
    <path class="fil115" d="M13.92 72.39l-0.27 -0.69c-0.11,-0.28 -0.42,-0.42 -0.71,-0.31l-3.13 1.2c-0.28,0.11 -0.42,0.42 -0.31,0.71l0.27 0.69c0.11,0.28 0.42,0.42 0.71,0.31l3.13 -1.2c0.28,-0.11 0.42,-0.42 0.31,-0.71z"/>
    <path class="fil116" d="M14.76 74.4l-0.15 -0.34c-0.06,-0.14 -0.34,-0.15 -0.61,-0.03l-3.06 1.37c-0.28,0.12 -0.45,0.34 -0.39,0.47l0.15 0.34c0.06,0.14 0.34,0.15 0.61,0.03l3.06 -1.37c0.28,-0.12 0.45,-0.34 0.39,-0.47z"/>
    <path class="fil117" d="M15.87 76.69l-0.34 -0.66c-0.14,-0.27 -0.47,-0.37 -0.73,-0.24l-2.99 1.53c-0.27,0.14 -0.38,0.47 -0.24,0.73l0.34 0.66c0.14,0.27 0.47,0.37 0.73,0.24l2.99 -1.53c0.27,-0.14 0.38,-0.47 0.24,-0.73z"/>
    <path class="fil118" d="M16.93 78.59l-0.19 -0.32c-0.08,-0.13 -0.35,-0.12 -0.61,0.03l-2.9 1.68c-0.26,0.15 -0.41,0.38 -0.33,0.51l0.19 0.32c0.08,0.13 0.35,0.12 0.61,-0.03l2.9 -1.68c0.26,-0.15 0.41,-0.38 0.33,-0.51z"/>
    <path class="fil119" d="M18.27 80.75l-0.4 -0.62c-0.16,-0.25 -0.5,-0.32 -0.76,-0.16l-2.81 1.83c-0.25,0.16 -0.32,0.5 -0.16,0.76l0.4 0.62c0.16,0.25 0.5,0.32 0.76,0.16l2.81 -1.83c0.25,-0.16 0.32,-0.5 0.16,-0.76z"/>
    <path class="fil120" d="M19.52 82.54l-0.22 -0.3c-0.09,-0.12 -0.36,-0.08 -0.6,0.1l-2.71 1.97c-0.24,0.18 -0.37,0.42 -0.28,0.54l0.22 0.3c0.09,0.12 0.36,0.08 0.6,-0.1l2.71 -1.97c0.24,-0.18 0.37,-0.42 0.28,-0.54z"/>
    <path class="fil121" d="M21.08 84.54l-0.47 -0.58c-0.19,-0.23 -0.53,-0.27 -0.77,-0.08l-2.61 2.11c-0.23,0.19 -0.27,0.53 -0.08,0.77l0.47 0.58c0.19,0.23 0.53,0.27 0.77,0.08l2.61 -2.11c0.23,-0.19 0.27,-0.53 0.08,-0.77z"/>
    <path class="fil122" d="M22.51 86.19l-0.25 -0.28c-0.1,-0.11 -0.37,-0.04 -0.59,0.16l-2.49 2.25c-0.22,0.2 -0.32,0.46 -0.22,0.57l0.25 0.28c0.1,0.11 0.37,0.04 0.59,-0.16l2.49 -2.25c0.22,-0.2 0.32,-0.46 0.22,-0.57z"/>
    <path class="fil123" d="M24.27 88.03l-0.52 -0.52c-0.21,-0.21 -0.56,-0.21 -0.77,0l-2.37 2.37c-0.21,0.21 -0.21,0.56 -0,0.77l0.52 0.52c0.21,0.21 0.56,0.21 0.77,-0l2.37 -2.37c0.21,-0.21 0.21,-0.56 0,-0.77z"/>
    <path class="fil124" d="M25.86 89.52l-0.28 -0.25c-0.11,-0.1 -0.37,-0 -0.57,0.22l-2.25 2.49c-0.2,0.22 -0.27,0.49 -0.16,0.59l0.28 0.25c0.11,0.1 0.37,0 0.57,-0.22l2.25 -2.49c0.2,-0.22 0.27,-0.49 0.16,-0.59z"/>
    <path class="fil125" d="M27.8 91.16l-0.58 -0.47c-0.23,-0.19 -0.58,-0.15 -0.77,0.08l-2.11 2.61c-0.19,0.23 -0.15,0.58 0.08,0.77l0.58 0.47c0.23,0.19 0.58,0.15 0.77,-0.08l2.11 -2.61c0.19,-0.23 0.15,-0.58 -0.08,-0.77z"/>
    <path class="fil126" d="M29.54 92.47l-0.3 -0.22c-0.12,-0.09 -0.37,0.04 -0.54,0.28l-1.97 2.71c-0.18,0.24 -0.22,0.51 -0.1,0.6l0.3 0.22c0.12,0.09 0.37,-0.04 0.54,-0.28l1.97 -2.71c0.18,-0.24 0.22,-0.51 0.1,-0.6z"/>
    <path class="fil127" d="M31.64 93.9l-0.62 -0.4c-0.25,-0.16 -0.59,-0.09 -0.76,0.16l-1.83 2.81c-0.16,0.25 -0.09,0.59 0.16,0.76l0.62 0.4c0.25,0.16 0.59,0.09 0.76,-0.16l1.83 -2.81c0.16,-0.25 0.09,-0.59 -0.16,-0.76z"/>
    <path class="fil128" d="M33.5 95.03l-0.32 -0.19c-0.13,-0.08 -0.36,0.07 -0.51,0.33l-1.68 2.9c-0.15,0.26 -0.17,0.53 -0.03,0.61l0.32 0.19c0.13,0.08 0.36,-0.07 0.51,-0.33l1.68 -2.9c0.15,-0.26 0.17,-0.53 0.03,-0.61z"/>
    <path class="fil129" d="M35.75 96.23l-0.66 -0.34c-0.27,-0.14 -0.6,-0.03 -0.73,0.24l-1.53 2.99c-0.14,0.27 -0.03,0.6 0.24,0.73l0.66 0.34c0.27,0.14 0.6,0.03 0.73,-0.24l1.53 -2.99c0.14,-0.27 0.03,-0.6 -0.24,-0.73z"/>
    <path class="fil130" d="M37.72 97.16l-0.34 -0.15c-0.14,-0.06 -0.35,0.11 -0.47,0.39l-1.37 3.06c-0.12,0.28 -0.11,0.55 0.03,0.61l0.34 0.15c0.14,0.06 0.35,-0.11 0.47,-0.39l1.37 -3.06c0.12,-0.28 0.11,-0.55 -0.03,-0.61z"/>
    <path class="fil131" d="M40.07 98.12l-0.69 -0.27c-0.28,-0.11 -0.6,0.03 -0.71,0.31l-1.2 3.13c-0.11,0.28 0.03,0.6 0.31,0.71l0.69 0.27c0.28,0.11 0.6,-0.03 0.71,-0.31l1.2 -3.13c0.11,-0.28 -0.03,-0.6 -0.31,-0.71z"/>
    <path class="fil132" d="M42.13 98.83l-0.36 -0.12c-0.15,-0.05 -0.34,0.15 -0.43,0.43l-1.04 3.19c-0.09,0.29 -0.05,0.56 0.09,0.6l0.36 0.12c0.15,0.05 0.34,-0.15 0.43,-0.43l1.04 -3.19c0.09,-0.29 0.05,-0.56 -0.09,-0.6z"/>
    <path class="fil133" d="M44.57 99.54l-0.72 -0.19c-0.29,-0.08 -0.59,0.1 -0.67,0.39l-0.87 3.24c-0.08,0.29 0.09,0.59 0.39,0.67l0.72 0.19c0.29,0.08 0.59,-0.1 0.67,-0.39l0.87 -3.24c0.08,-0.29 -0.09,-0.59 -0.39,-0.67z"/>
    <path class="fil134" d="M46.69 100.03l-0.37 -0.08c-0.15,-0.03 -0.32,0.18 -0.38,0.48l-0.69 3.28c-0.06,0.3 0.01,0.56 0.16,0.59l0.37 0.08c0.15,0.03 0.32,-0.18 0.38,-0.48l0.69 -3.28c0.06,-0.29 -0.01,-0.56 -0.16,-0.59z"/>
    <path class="fil135" d="M49.19 100.48l-0.73 -0.12c-0.3,-0.05 -0.58,0.16 -0.62,0.45l-0.52 3.31c-0.05,0.3 0.16,0.58 0.45,0.62l0.73 0.12c0.3,0.05 0.58,-0.16 0.62,-0.46l0.52 -3.31c0.05,-0.3 -0.16,-0.58 -0.45,-0.62z"/>
    <path class="fil136" d="M51.36 100.74l-0.37 -0.04c-0.15,-0.02 -0.3,0.22 -0.33,0.51l-0.35 3.34c-0.03,0.3 0.07,0.56 0.22,0.57l0.37 0.04c0.15,0.02 0.3,-0.21 0.33,-0.51l0.35 -3.34c0.03,-0.3 -0.07,-0.56 -0.22,-0.57z"/>
    <path class="fil137" d="M53.89 100.93l-0.74 -0.04c-0.3,-0.02 -0.56,0.22 -0.57,0.52l-0.17 3.35c-0.02,0.3 0.22,0.56 0.52,0.57l0.74 0.04c0.3,0.02 0.56,-0.22 0.57,-0.52l0.17 -3.35c0.02,-0.3 -0.22,-0.56 -0.52,-0.57z"/>
    <path class="fil138" d="M56.07 100.97l-0.37 0c-0.15,0 -0.28,0.25 -0.28,0.55l0 3.35c0,0.3 0.12,0.55 0.28,0.55l0.37 0c0.15,0 0.28,-0.24 0.28,-0.55l0 -3.35c0,-0.3 -0.12,-0.55 -0.28,-0.55z"/>
    <path class="fil139" d="M58.62 100.89l-0.74 0.04c-0.3,0.02 -0.53,0.27 -0.52,0.57l0.17 3.35c0.02,0.3 0.27,0.53 0.57,0.52l0.74 -0.04c0.3,-0.02 0.53,-0.27 0.52,-0.57l-0.17 -3.35c-0.02,-0.3 -0.27,-0.53 -0.57,-0.52z"/>
    <path class="fil140" d="M60.79 100.71l-0.37 0.04c-0.15,0.02 -0.25,0.27 -0.22,0.57l0.35 3.34c0.03,0.3 0.18,0.53 0.33,0.51l0.37 -0.04c0.15,-0.02 0.25,-0.27 0.22,-0.57l-0.35 -3.34c-0.03,-0.3 -0.18,-0.53 -0.33,-0.51z"/>
    <path class="fil141" d="M63.31 100.36l-0.73 0.12c-0.3,0.05 -0.5,0.33 -0.45,0.62l0.52 3.31c0.05,0.3 0.33,0.5 0.62,0.46l0.73 -0.12c0.3,-0.05 0.5,-0.33 0.45,-0.62l-0.52 -3.31c-0.05,-0.3 -0.33,-0.5 -0.62,-0.45z"/>
    <path class="fil142" d="M65.45 99.95l-0.37 0.08c-0.15,0.03 -0.22,0.3 -0.16,0.59l0.69 3.28c0.06,0.3 0.23,0.51 0.38,0.48l0.37 -0.08c0.15,-0.03 0.22,-0.3 0.16,-0.59l-0.69 -3.28c-0.06,-0.29 -0.23,-0.51 -0.38,-0.48z"/>
    <path class="fil143" d="M67.92 99.35l-0.72 0.19c-0.29,0.08 -0.46,0.38 -0.39,0.67l0.87 3.24c0.08,0.29 0.38,0.46 0.67,0.39l0.72 -0.19c0.29,-0.08 0.46,-0.38 0.39,-0.67l-0.87 -3.24c-0.08,-0.29 -0.38,-0.46 -0.67,-0.39z"/>
    <path class="fil144" d="M70 98.72l-0.36 0.12c-0.15,0.05 -0.19,0.32 -0.09,0.6l1.04 3.19c0.09,0.29 0.29,0.48 0.43,0.43l0.36 -0.12c0.15,-0.05 0.19,-0.32 0.09,-0.6l-1.04 -3.19c-0.09,-0.29 -0.29,-0.48 -0.43,-0.43z"/>
    <path class="fil145" d="M72.39 97.85l-0.69 0.27c-0.28,0.11 -0.42,0.42 -0.31,0.71l1.2 3.13c0.11,0.28 0.42,0.42 0.71,0.31l0.69 -0.27c0.28,-0.11 0.42,-0.42 0.31,-0.71l-1.2 -3.13c-0.11,-0.28 -0.42,-0.42 -0.71,-0.31z"/>
    <path class="fil146" d="M74.4 97.01l-0.34 0.15c-0.14,0.06 -0.15,0.34 -0.03,0.61l1.37 3.06c0.12,0.28 0.34,0.45 0.47,0.39l0.34 -0.15c0.14,-0.06 0.15,-0.34 0.03,-0.61l-1.37 -3.06c-0.12,-0.28 -0.33,-0.45 -0.47,-0.39z"/>
    <path class="fil147" d="M76.69 95.9l-0.66 0.34c-0.27,0.14 -0.37,0.47 -0.24,0.73l1.53 2.99c0.14,0.27 0.47,0.38 0.73,0.24l0.66 -0.34c0.27,-0.14 0.37,-0.47 0.24,-0.73l-1.53 -2.99c-0.14,-0.27 -0.47,-0.38 -0.73,-0.24z"/>
    <path class="fil148" d="M78.59 94.84l-0.32 0.19c-0.13,0.08 -0.12,0.35 0.03,0.61l1.68 2.9c0.15,0.26 0.38,0.41 0.51,0.33l0.32 -0.19c0.13,-0.08 0.12,-0.35 -0.03,-0.61l-1.68 -2.9c-0.15,-0.26 -0.38,-0.41 -0.51,-0.33z"/>
    <path class="fil149" d="M80.75 93.5l-0.62 0.4c-0.25,0.16 -0.32,0.5 -0.16,0.76l1.83 2.81c0.16,0.25 0.5,0.32 0.76,0.16l0.62 -0.4c0.25,-0.16 0.32,-0.5 0.16,-0.76l-1.83 -2.81c-0.16,-0.25 -0.5,-0.32 -0.76,-0.16z"/>
    <path class="fil150" d="M82.54 92.25l-0.3 0.22c-0.12,0.09 -0.08,0.36 0.1,0.6l1.97 2.71c0.18,0.24 0.42,0.37 0.54,0.28l0.3 -0.22c0.12,-0.09 0.08,-0.36 -0.1,-0.6l-1.97 -2.71c-0.18,-0.24 -0.42,-0.37 -0.54,-0.28z"/>
    <path class="fil151" d="M84.54 90.69l-0.58 0.47c-0.23,0.19 -0.27,0.53 -0.08,0.77l2.11 2.61c0.19,0.23 0.53,0.27 0.77,0.08l0.58 -0.47c0.23,-0.19 0.27,-0.53 0.08,-0.77l-2.11 -2.61c-0.19,-0.23 -0.53,-0.27 -0.77,-0.08z"/>
    <path class="fil152" d="M86.19 89.26l-0.28 0.25c-0.11,0.1 -0.04,0.37 0.16,0.59l2.25 2.49c0.2,0.22 0.46,0.32 0.57,0.22l0.28 -0.25c0.11,-0.1 0.04,-0.37 -0.16,-0.59l-2.25 -2.49c-0.2,-0.22 -0.46,-0.32 -0.57,-0.22z"/>
    <path class="fil153" d="M88.03 87.5l-0.52 0.52c-0.21,0.21 -0.21,0.56 0,0.77l2.37 2.37c0.21,0.21 0.56,0.21 0.77,0l0.52 -0.52c0.21,-0.21 0.21,-0.56 -0,-0.77l-2.37 -2.37c-0.21,-0.21 -0.56,-0.21 -0.77,-0z"/>
    <path class="fil154" d="M89.52 85.91l-0.25 0.28c-0.1,0.11 -0,0.37 0.22,0.57l2.49 2.25c0.22,0.2 0.49,0.27 0.59,0.16l0.25 -0.28c0.1,-0.11 0,-0.37 -0.22,-0.57l-2.49 -2.25c-0.22,-0.2 -0.49,-0.27 -0.59,-0.16z"/>
    <path class="fil155" d="M91.16 83.97l-0.47 0.58c-0.19,0.23 -0.15,0.58 0.08,0.77l2.61 2.11c0.23,0.19 0.58,0.15 0.77,-0.08l0.47 -0.58c0.19,-0.23 0.15,-0.58 -0.08,-0.77l-2.61 -2.11c-0.23,-0.19 -0.58,-0.15 -0.77,0.08z"/>
    <path class="fil156" d="M92.47 82.23l-0.22 0.3c-0.09,0.12 0.04,0.37 0.28,0.54l2.71 1.97c0.24,0.18 0.51,0.22 0.6,0.1l0.22 -0.3c0.09,-0.12 -0.04,-0.37 -0.28,-0.54l-2.71 -1.97c-0.24,-0.18 -0.51,-0.22 -0.6,-0.1z"/>
    <path class="fil157" d="M93.9 80.13l-0.4 0.62c-0.16,0.25 -0.09,0.59 0.16,0.76l2.81 1.83c0.25,0.16 0.59,0.09 0.76,-0.16l0.4 -0.62c0.16,-0.25 0.09,-0.59 -0.16,-0.76l-2.81 -1.83c-0.25,-0.16 -0.59,-0.09 -0.76,0.16z"/>
    <path class="fil158" d="M95.03 78.27l-0.19 0.32c-0.08,0.13 0.07,0.36 0.33,0.51l2.9 1.68c0.26,0.15 0.53,0.17 0.61,0.03l0.19 -0.32c0.08,-0.13 -0.07,-0.36 -0.33,-0.51l-2.9 -1.68c-0.26,-0.15 -0.53,-0.17 -0.61,-0.03z"/>
    <path class="fil159" d="M96.23 76.03l-0.34 0.66c-0.14,0.27 -0.03,0.6 0.24,0.73l2.99 1.53c0.27,0.14 0.6,0.03 0.73,-0.24l0.34 -0.66c0.14,-0.27 0.03,-0.6 -0.24,-0.73l-2.99 -1.53c-0.27,-0.14 -0.6,-0.03 -0.73,0.24z"/>
    <path class="fil160" d="M97.16 74.05l-0.15 0.34c-0.06,0.14 0.11,0.35 0.39,0.47l3.06 1.37c0.28,0.12 0.55,0.11 0.61,-0.03l0.15 -0.34c0.06,-0.14 -0.11,-0.35 -0.39,-0.47l-3.06 -1.37c-0.28,-0.12 -0.55,-0.11 -0.61,0.03z"/>
    <path class="fil161" d="M98.12 71.7l-0.27 0.69c-0.11,0.28 0.03,0.6 0.31,0.71l3.13 1.2c0.28,0.11 0.6,-0.03 0.71,-0.31l0.27 -0.69c0.11,-0.28 -0.03,-0.6 -0.31,-0.71l-3.13 -1.2c-0.28,-0.11 -0.6,0.03 -0.71,0.31z"/>
    <path class="fil162" d="M98.83 69.64l-0.12 0.36c-0.05,0.15 0.15,0.34 0.43,0.43l3.19 1.04c0.29,0.09 0.56,0.05 0.6,-0.09l0.12 -0.36c0.05,-0.15 -0.15,-0.34 -0.43,-0.43l-3.19 -1.04c-0.29,-0.09 -0.56,-0.05 -0.6,0.09z"/>
    <path class="fil163" d="M99.54 67.2l-0.19 0.72c-0.08,0.29 0.1,0.59 0.39,0.67l3.24 0.87c0.29,0.08 0.59,-0.09 0.67,-0.39l0.19 -0.72c0.08,-0.29 -0.1,-0.59 -0.39,-0.67l-3.24 -0.87c-0.29,-0.08 -0.59,0.09 -0.67,0.39z"/>
    <path class="fil164" d="M100.03 65.08l-0.08 0.37c-0.03,0.15 0.18,0.32 0.48,0.38l3.28 0.69c0.3,0.06 0.56,-0.01 0.59,-0.16l0.08 -0.37c0.03,-0.15 -0.18,-0.32 -0.48,-0.38l-3.28 -0.69c-0.29,-0.06 -0.56,0.01 -0.59,0.16z"/>
    <path class="fil165" d="M100.48 62.58l-0.12 0.73c-0.05,0.3 0.16,0.58 0.45,0.62l3.31 0.52c0.3,0.05 0.58,-0.16 0.62,-0.45l0.12 -0.73c0.05,-0.3 -0.16,-0.58 -0.45,-0.62l-3.31 -0.52c-0.3,-0.05 -0.58,0.16 -0.62,0.45z"/>
    <path class="fil166" d="M100.74 60.42l-0.04 0.37c-0.02,0.15 0.22,0.3 0.51,0.33l3.34 0.35c0.3,0.03 0.56,-0.07 0.57,-0.22l0.04 -0.37c0.02,-0.15 -0.21,-0.3 -0.51,-0.33l-3.34 -0.35c-0.3,-0.03 -0.56,0.07 -0.57,0.22z"/>
    <path class="fil167" d="M100.93 57.88l-0.04 0.74c-0.02,0.3 0.22,0.56 0.52,0.57l3.35 0.17c0.3,0.02 0.56,-0.22 0.57,-0.52l0.04 -0.74c0.02,-0.3 -0.22,-0.56 -0.52,-0.57l-3.35 -0.17c-0.3,-0.02 -0.56,0.22 -0.57,0.52z"/>
    <path class="fil168" d="M100.97 55.7l0 0.37c0,0.15 0.25,0.28 0.55,0.28l3.35 0c0.3,0 0.55,-0.12 0.55,-0.28l0 -0.37c0,-0.15 -0.24,-0.28 -0.55,-0.28l-3.35 0c-0.3,0 -0.55,0.12 -0.55,0.28z"/>
    <path class="fil169" d="M100.89 53.15l0.04 0.74c0.02,0.3 0.27,0.53 0.57,0.52l3.35 -0.17c0.3,-0.02 0.53,-0.27 0.52,-0.57l-0.04 -0.74c-0.02,-0.3 -0.27,-0.53 -0.57,-0.52l-3.35 0.17c-0.3,0.02 -0.53,0.27 -0.52,0.57z"/>
    <path class="fil170" d="M100.71 50.98l0.04 0.37c0.02,0.15 0.27,0.25 0.57,0.22l3.34 -0.35c0.3,-0.03 0.53,-0.18 0.51,-0.33l-0.04 -0.37c-0.02,-0.15 -0.27,-0.25 -0.57,-0.22l-3.34 0.35c-0.3,0.03 -0.53,0.18 -0.51,0.33z"/>
    <path class="fil171" d="M100.36 48.46l0.12 0.73c0.05,0.3 0.33,0.5 0.62,0.45l3.31 -0.52c0.3,-0.05 0.5,-0.33 0.45,-0.62l-0.12 -0.73c-0.05,-0.3 -0.33,-0.5 -0.62,-0.45l-3.31 0.52c-0.3,0.05 -0.5,0.33 -0.45,0.62z"/>
    <path class="fil172" d="M99.95 46.32l0.08 0.37c0.03,0.15 0.3,0.22 0.59,0.16l3.28 -0.69c0.3,-0.06 0.51,-0.23 0.48,-0.38l-0.08 -0.37c-0.03,-0.15 -0.3,-0.22 -0.59,-0.16l-3.28 0.69c-0.29,0.06 -0.51,0.23 -0.48,0.38z"/>
    <path class="fil173" d="M99.35 43.85l0.19 0.72c0.08,0.29 0.38,0.46 0.67,0.39l3.24 -0.87c0.29,-0.08 0.46,-0.38 0.39,-0.67l-0.19 -0.72c-0.08,-0.29 -0.38,-0.46 -0.67,-0.39l-3.24 0.87c-0.29,0.08 -0.46,0.38 -0.39,0.67z"/>
    <path class="fil174" d="M98.72 41.77l0.12 0.36c0.05,0.15 0.32,0.19 0.6,0.09l3.19 -1.04c0.29,-0.09 0.48,-0.29 0.43,-0.43l-0.12 -0.36c-0.05,-0.15 -0.32,-0.19 -0.6,-0.09l-3.19 1.04c-0.29,0.09 -0.48,0.29 -0.43,0.43z"/>
    <path class="fil175" d="M97.85 39.38l0.27 0.69c0.11,0.28 0.42,0.42 0.71,0.31l3.13 -1.2c0.28,-0.11 0.42,-0.42 0.31,-0.71l-0.27 -0.69c-0.11,-0.28 -0.42,-0.42 -0.71,-0.31l-3.13 1.2c-0.28,0.11 -0.42,0.42 -0.31,0.71z"/>
    <path class="fil176" d="M97.01 37.37l0.15 0.34c0.06,0.14 0.34,0.15 0.61,0.03l3.06 -1.37c0.28,-0.12 0.45,-0.34 0.39,-0.47l-0.15 -0.34c-0.06,-0.14 -0.34,-0.15 -0.61,-0.03l-3.06 1.37c-0.28,0.12 -0.45,0.34 -0.39,0.47z"/>
    <path class="fil177" d="M95.9 35.09l0.34 0.66c0.14,0.27 0.47,0.37 0.73,0.24l2.99 -1.53c0.27,-0.14 0.38,-0.47 0.24,-0.73l-0.34 -0.66c-0.14,-0.27 -0.47,-0.37 -0.73,-0.24l-2.99 1.53c-0.27,0.14 -0.38,0.47 -0.24,0.73z"/>
    <path class="fil178" d="M94.84 33.18l0.19 0.32c0.08,0.13 0.35,0.12 0.61,-0.03l2.9 -1.68c0.26,-0.15 0.41,-0.38 0.33,-0.51l-0.19 -0.32c-0.08,-0.13 -0.35,-0.12 -0.61,0.03l-2.9 1.68c-0.26,0.15 -0.41,0.38 -0.33,0.51z"/>
    <path class="fil179" d="M93.5 31.02l0.4 0.62c0.16,0.25 0.5,0.32 0.76,0.16l2.81 -1.83c0.25,-0.16 0.32,-0.5 0.16,-0.76l-0.4 -0.62c-0.16,-0.25 -0.5,-0.32 -0.76,-0.16l-2.81 1.83c-0.25,0.16 -0.32,0.5 -0.16,0.76z"/>
    <path class="fil180" d="M92.25 29.23l0.22 0.3c0.09,0.12 0.36,0.08 0.6,-0.1l2.71 -1.97c0.24,-0.18 0.37,-0.42 0.28,-0.54l-0.22 -0.3c-0.09,-0.12 -0.36,-0.08 -0.6,0.1l-2.71 1.97c-0.24,0.18 -0.37,0.42 -0.28,0.54z"/>
    <path class="fil181" d="M90.69 27.23l0.47 0.58c0.19,0.23 0.53,0.27 0.77,0.08l2.61 -2.11c0.23,-0.19 0.27,-0.53 0.08,-0.77l-0.47 -0.58c-0.19,-0.23 -0.53,-0.27 -0.77,-0.08l-2.61 2.11c-0.23,0.19 -0.27,0.53 -0.08,0.77z"/>
    <path class="fil182" d="M89.26 25.58l0.25 0.28c0.1,0.11 0.37,0.04 0.59,-0.16l2.49 -2.25c0.22,-0.2 0.32,-0.46 0.22,-0.57l-0.25 -0.28c-0.1,-0.11 -0.37,-0.04 -0.59,0.16l-2.49 2.24c-0.22,0.2 -0.32,0.46 -0.22,0.57z"/>
    <path class="fil183" d="M87.5 23.74l0.52 0.52c0.21,0.21 0.56,0.21 0.77,-0l2.37 -2.37c0.21,-0.21 0.21,-0.56 0,-0.77l-0.52 -0.52c-0.21,-0.21 -0.56,-0.21 -0.77,0l-2.37 2.37c-0.21,0.21 -0.21,0.56 -0,0.77z"/>
    <path class="fil184" d="M85.91 22.26l0.28 0.25c0.11,0.1 0.37,0 0.57,-0.22l2.25 -2.49c0.2,-0.22 0.27,-0.49 0.16,-0.59l-0.28 -0.25c-0.11,-0.1 -0.37,-0 -0.57,0.22l-2.25 2.49c-0.2,0.22 -0.27,0.49 -0.16,0.59z"/>
    <path class="fil185" d="M83.97 20.61l0.58 0.47c0.23,0.19 0.58,0.15 0.77,-0.08l2.11 -2.61c0.19,-0.23 0.15,-0.58 -0.08,-0.77l-0.58 -0.47c-0.23,-0.19 -0.58,-0.15 -0.77,0.08l-2.11 2.61c-0.19,0.23 -0.15,0.58 0.08,0.77z"/>
    <path class="fil186" d="M82.23 19.3l0.3 0.22c0.12,0.09 0.37,-0.04 0.54,-0.28l1.97 -2.71c0.18,-0.24 0.22,-0.51 0.1,-0.6l-0.3 -0.22c-0.12,-0.09 -0.37,0.04 -0.54,0.28l-1.97 2.71c-0.18,0.24 -0.22,0.51 -0.1,0.6z"/>
    <path class="fil187" d="M80.13 17.87l0.62 0.4c0.25,0.16 0.59,0.09 0.76,-0.16l1.83 -2.81c0.16,-0.25 0.09,-0.59 -0.16,-0.76l-0.62 -0.4c-0.25,-0.16 -0.59,-0.09 -0.76,0.16l-1.83 2.81c-0.16,0.25 -0.09,0.59 0.16,0.76z"/>
    <path class="fil188" d="M78.27 16.74l0.32 0.19c0.13,0.08 0.36,-0.07 0.51,-0.33l1.68 -2.9c0.15,-0.26 0.17,-0.53 0.03,-0.61l-0.32 -0.19c-0.13,-0.08 -0.36,0.07 -0.51,0.33l-1.68 2.9c-0.15,0.26 -0.17,0.53 -0.03,0.61z"/>
    <path class="fil189" d="M76.03 15.54l0.66 0.34c0.27,0.14 0.6,0.03 0.73,-0.24l1.53 -2.99c0.14,-0.27 0.03,-0.6 -0.24,-0.73l-0.66 -0.34c-0.27,-0.14 -0.6,-0.03 -0.73,0.24l-1.53 2.99c-0.14,0.27 -0.03,0.6 0.24,0.73z"/>
    <path class="fil190" d="M74.05 14.61l0.34 0.15c0.14,0.06 0.35,-0.11 0.47,-0.39l1.37 -3.06c0.12,-0.28 0.11,-0.55 -0.03,-0.61l-0.34 -0.15c-0.14,-0.06 -0.35,0.11 -0.47,0.39l-1.37 3.06c-0.12,0.28 -0.11,0.55 0.03,0.61z"/>
    <path class="fil191" d="M71.7 13.65l0.69 0.27c0.28,0.11 0.6,-0.03 0.71,-0.31l1.2 -3.13c0.11,-0.28 -0.03,-0.6 -0.31,-0.71l-0.69 -0.27c-0.28,-0.11 -0.6,0.03 -0.71,0.31l-1.2 3.13c-0.11,0.28 0.03,0.6 0.31,0.71z"/>
    <path class="fil192" d="M69.64 12.94l0.36 0.12c0.15,0.05 0.34,-0.15 0.43,-0.43l1.04 -3.19c0.09,-0.29 0.05,-0.56 -0.09,-0.6l-0.36 -0.12c-0.15,-0.05 -0.34,0.15 -0.43,0.43l-1.04 3.19c-0.09,0.29 -0.05,0.56 0.09,0.6z"/>
    <path class="fil193" d="M67.2 12.23l0.72 0.19c0.29,0.08 0.59,-0.1 0.67,-0.39l0.87 -3.24c0.08,-0.29 -0.09,-0.59 -0.39,-0.67l-0.72 -0.19c-0.29,-0.08 -0.59,0.1 -0.67,0.39l-0.87 3.24c-0.08,0.29 0.09,0.59 0.39,0.67z"/>
    <path class="fil194" d="M65.08 11.74l0.37 0.08c0.15,0.03 0.32,-0.18 0.38,-0.48l0.69 -3.28c0.06,-0.3 -0.01,-0.56 -0.16,-0.59l-0.37 -0.08c-0.15,-0.03 -0.32,0.18 -0.38,0.48l-0.69 3.28c-0.06,0.29 0.01,0.56 0.16,0.59z"/>
    <path class="fil195" d="M62.58 11.29l0.73 0.12c0.3,0.05 0.58,-0.16 0.62,-0.45l0.52 -3.31c0.05,-0.3 -0.16,-0.58 -0.45,-0.62l-0.73 -0.12c-0.3,-0.05 -0.58,0.16 -0.62,0.46l-0.52 3.31c-0.05,0.3 0.16,0.58 0.45,0.62z"/>
    <path class="fil196" d="M60.42 11.03l0.37 0.04c0.15,0.02 0.3,-0.22 0.33,-0.51l0.35 -3.34c0.03,-0.3 -0.07,-0.56 -0.22,-0.57l-0.37 -0.04c-0.15,-0.02 -0.3,0.21 -0.33,0.51l-0.35 3.34c-0.03,0.3 0.07,0.56 0.22,0.57z"/>
    <path class="fil197" d="M57.88 10.84l0.74 0.04c0.3,0.02 0.56,-0.22 0.57,-0.52l0.17 -3.35c0.02,-0.3 -0.22,-0.56 -0.52,-0.57l-0.74 -0.04c-0.3,-0.02 -0.56,0.22 -0.57,0.52l-0.17 3.35c-0.02,0.3 0.22,0.56 0.52,0.57z"/>
    <path class="fil198" d="M55.7 10.8l0.37 0c0.15,0 0.28,-0.25 0.28,-0.55l0 -3.35c0,-0.3 -0.12,-0.55 -0.28,-0.55l-0.37 0c-0.15,0 -0.28,0.24 -0.28,0.55l0 3.35c0,0.3 0.12,0.55 0.28,0.55z"/>
   </g>
  </g>
 </g>
</svg>
