<?xml version="1.0" encoding="UTF-8"?>
<!DOCTYPE svg PUBLIC "-//W3C//DTD SVG 1.1//EN" "http://www.w3.org/Graphics/SVG/1.1/DTD/svg11.dtd">
<!-- Creator: CorelDRAW 2021 (64-Bit) -->
<svg xmlns="http://www.w3.org/2000/svg" xml:space="preserve" width="0.39511in" height="0.39511in" version="1.1" style="shape-rendering:geometricPrecision; text-rendering:geometricPrecision; image-rendering:optimizeQuality; fill-rule:evenodd; clip-rule:evenodd"
viewBox="0 0 2.43 2.43"
 xmlns:xlink="http://www.w3.org/1999/xlink"
 xmlns:xodm="http://www.corel.com/coreldraw/odm/2003">
 <defs>
  <style type="text/css">
   <![CDATA[
    .str0 {stroke:black;stroke-width:0.04;stroke-linecap:round;stroke-linejoin:round;stroke-miterlimit:2.61313}
    .str1 {stroke:#3160D8;stroke-width:0.1;stroke-linecap:round;stroke-linejoin:round;stroke-miterlimit:2.61313}
    .fil2 {fill:none}
    .fil0 {fill:#3160D8}
    .fil1 {fill:#3160D8;fill-rule:nonzero}
   ]]>
  </style>
 </defs>
 <g id="Layer_x0020_1">
  <metadata id="CorelCorpID_0Corel-Layer"/>
  <path class="fil0" d="M0.23 1.21c0,0.54 0.44,0.98 0.98,0.98 0.54,0 0.98,-0.44 0.98,-0.98 0,-0.54 -0.44,-0.98 -0.98,-0.98 -0.54,0 -0.98,0.44 -0.98,0.98zm0.01 0c0,-0.53 0.43,-0.97 0.97,-0.97 0.53,0 0.97,0.43 0.97,0.97 0,0.53 -0.43,0.97 -0.97,0.97 -0.53,0 -0.97,-0.43 -0.97,-0.97z"/>
  <g id="_2253904255184">
   <path class="fil0 str0" d="M1.15 1.94c-0.36,-0.03 -0.64,-0.31 -0.67,-0.67l0.16 0c0.03,0.27 0.24,0.48 0.51,0.51l0 0.16zm-0.67 -0.79c0.03,-0.36 0.31,-0.64 0.67,-0.67l0 0.16c-0.27,0.03 -0.48,0.24 -0.51,0.51l-0.16 0zm0.79 -0.67c0.36,0.03 0.64,0.31 0.67,0.67l-0.16 0c-0.03,-0.27 -0.24,-0.48 -0.51,-0.51l0 -0.16zm-0.05 1.16c-0.08,0 -0.15,-0.02 -0.21,-0.05 -0.06,-0.04 -0.11,-0.09 -0.14,-0.15 -0.03,-0.06 -0.05,-0.14 -0.05,-0.22 0,-0.08 0.02,-0.15 0.05,-0.22 0.04,-0.06 0.08,-0.11 0.14,-0.15 0.06,-0.04 0.13,-0.05 0.21,-0.05 0.07,0 0.13,0.01 0.18,0.04 0.05,0.03 0.1,0.06 0.13,0.11l-0.13 0.13c-0.05,-0.06 -0.11,-0.1 -0.17,-0.1 -0.04,0 -0.08,0.01 -0.11,0.03 -0.03,0.02 -0.06,0.05 -0.07,0.08 -0.02,0.04 -0.03,0.08 -0.03,0.12 0,0.05 0.01,0.09 0.03,0.12 0.02,0.04 0.04,0.06 0.07,0.08 0.03,0.02 0.07,0.03 0.11,0.03 0.07,0 0.13,-0.03 0.17,-0.1l0.13 0.13c-0.04,0.05 -0.08,0.09 -0.13,0.11 -0.05,0.03 -0.11,0.04 -0.18,0.04zm0.72 -0.36c-0.03,0.36 -0.31,0.64 -0.67,0.67l0 -0.16c0.27,-0.03 0.48,-0.24 0.51,-0.51l0.16 0z"/>
   <path class="fil1" d="M1.28 0.46c0.18,0.02 0.35,0.1 0.47,0.22 0.12,0.12 0.2,0.29 0.22,0.47 0,0.01 -0.01,0.02 -0.02,0.02 -0,0 -0,0 -0,0l0 0 -0.16 0c-0.01,0 -0.02,-0.01 -0.02,-0.02 -0.01,-0.13 -0.07,-0.24 -0.16,-0.33 -0.09,-0.09 -0.2,-0.14 -0.33,-0.16 -0.01,-0 -0.02,-0.01 -0.02,-0.02l-0 0 0 -0.16c0,-0.01 0.01,-0.02 0.02,-0.02 0,0 0,0 0,0zm0.44 0.25c-0.11,-0.11 -0.26,-0.18 -0.42,-0.2l0 0.12c0.13,0.02 0.25,0.08 0.34,0.17 0.09,0.09 0.15,0.21 0.17,0.34l0.12 0c-0.02,-0.16 -0.09,-0.31 -0.2,-0.42zm-0.64 0.61c0.01,0.02 0.02,0.03 0.03,0.04 0.01,0.01 0.02,0.02 0.04,0.03 0.01,0.01 0.03,0.02 0.04,0.02 0.02,0 0.03,0.01 0.05,0.01 0.03,0 0.06,-0.01 0.08,-0.02 0.03,-0.01 0.05,-0.04 0.07,-0.07 0.01,-0.01 0.02,-0.01 0.03,-0 0,0 0,0 0,0l0.13 0.13c0.01,0.01 0.01,0.02 0,0.03l0 0c-0.02,0.03 -0.04,0.05 -0.06,0.07 -0.02,0.02 -0.05,0.04 -0.08,0.05 -0.03,0.01 -0.06,0.02 -0.09,0.03 -0.03,0.01 -0.07,0.01 -0.1,0.01 -0.04,0 -0.08,-0 -0.12,-0.01 -0.04,-0.01 -0.07,-0.02 -0.1,-0.04 -0.03,-0.02 -0.06,-0.04 -0.09,-0.07 -0.03,-0.03 -0.05,-0.06 -0.07,-0.09 -0.02,-0.03 -0.03,-0.07 -0.04,-0.11 -0.01,-0.04 -0.01,-0.08 -0.01,-0.12 0,-0.04 0,-0.08 0.01,-0.12 0.01,-0.04 0.02,-0.08 0.04,-0.11 0.02,-0.03 0.04,-0.06 0.07,-0.09 0.03,-0.03 0.05,-0.05 0.09,-0.07 0.06,-0.04 0.14,-0.06 0.22,-0.06 0.04,0 0.07,0 0.1,0.01 0.03,0.01 0.06,0.02 0.09,0.03 0.03,0.01 0.05,0.03 0.08,0.05 0.02,0.02 0.05,0.04 0.06,0.07 0.01,0.01 0.01,0.02 -0,0.03l-0.13 0.13c-0.01,0.01 -0.02,0.01 -0.03,0 -0,-0 -0,-0 -0,-0l-0 0c-0.02,-0.03 -0.05,-0.05 -0.07,-0.07 -0.03,-0.01 -0.05,-0.02 -0.08,-0.02 -0.04,0 -0.07,0.01 -0.09,0.03 -0.01,0.01 -0.03,0.02 -0.04,0.03 -0.01,0.01 -0.02,0.03 -0.03,0.04 -0.01,0.02 -0.01,0.03 -0.02,0.05 -0,0.02 -0.01,0.04 -0.01,0.06 0,0.02 0,0.04 0.01,0.06 0,0.02 0.01,0.04 0.02,0.05zm-0.01 0.07c-0.01,-0.02 -0.02,-0.03 -0.03,-0.05 -0.01,-0.02 -0.02,-0.04 -0.02,-0.06 -0,-0.02 -0.01,-0.05 -0.01,-0.07 0,-0.02 0,-0.05 0.01,-0.07 0,-0.02 0.01,-0.04 0.02,-0.06 0.01,-0.02 0.02,-0.04 0.03,-0.05 0.01,-0.02 0.03,-0.03 0.05,-0.04 0.03,-0.02 0.07,-0.03 0.12,-0.03 0.04,0 0.07,0.01 0.11,0.03 0.03,0.01 0.05,0.03 0.07,0.06l0.1 -0.1c-0.01,-0.02 -0.03,-0.03 -0.04,-0.05 -0.02,-0.02 -0.04,-0.03 -0.07,-0.05 -0.03,-0.01 -0.05,-0.02 -0.08,-0.03 -0.03,-0.01 -0.06,-0.01 -0.09,-0.01 -0.07,0 -0.14,0.02 -0.2,0.05 -0.03,0.02 -0.05,0.04 -0.08,0.06 -0.02,0.02 -0.04,0.05 -0.06,0.08 -0.02,0.03 -0.03,0.06 -0.04,0.1 -0.01,0.03 -0.01,0.07 -0.01,0.11 0,0.04 0,0.08 0.01,0.11 0.01,0.03 0.02,0.07 0.04,0.1 0.02,0.03 0.04,0.06 0.06,0.08 0.02,0.02 0.05,0.04 0.08,0.06 0.03,0.02 0.06,0.03 0.09,0.04 0.03,0.01 0.07,0.01 0.1,0.01 0.03,0 0.06,-0 0.09,-0.01 0.03,-0.01 0.06,-0.02 0.08,-0.03 0.03,-0.01 0.05,-0.03 0.07,-0.05 0.02,-0.01 0.03,-0.03 0.04,-0.05l-0.1 -0.1c-0.02,0.02 -0.04,0.04 -0.07,0.06 -0.03,0.02 -0.07,0.03 -0.11,0.03 -0.02,0 -0.04,-0 -0.06,-0.01 -0.02,-0.01 -0.04,-0.01 -0.06,-0.02 -0.02,-0.01 -0.03,-0.02 -0.05,-0.04zm-0.59 -0.15l0.16 0c0.01,0 0.02,0.01 0.02,0.02 0.01,0.13 0.07,0.24 0.16,0.33 0.09,0.09 0.2,0.14 0.33,0.16 0.01,0 0.02,0.01 0.02,0.02l0 0 0 0.16c0,0.01 -0.01,0.02 -0.02,0.02 -0,0 -0,-0 -0,-0 -0.18,-0.02 -0.35,-0.1 -0.47,-0.22 -0.12,-0.12 -0.2,-0.29 -0.22,-0.47 -0,-0.01 0.01,-0.02 0.02,-0.02 0,-0 0,-0 0,-0l0 0zm0.14 0.05l-0.12 0c0.02,0.16 0.09,0.31 0.2,0.42 0.11,0.11 0.26,0.18 0.42,0.2l0 -0.12c-0.13,-0.02 -0.25,-0.08 -0.34,-0.17 -0.09,-0.09 -0.15,-0.21 -0.17,-0.34zm0.65 0.46c0.13,-0.01 0.24,-0.07 0.33,-0.16 0.09,-0.09 0.14,-0.2 0.16,-0.33 0,-0.01 0.01,-0.02 0.02,-0.02l0 -0 0.16 0c0.01,0 0.02,0.01 0.02,0.02 0,0 -0,0 -0,0 -0.02,0.18 -0.1,0.35 -0.22,0.47 -0.12,0.12 -0.29,0.2 -0.47,0.22 -0.01,0 -0.02,-0.01 -0.02,-0.02 -0,-0 -0,-0 -0,-0l-0 0 0 -0.16c0,-0.01 0.01,-0.02 0.02,-0.02zm0.36 -0.12c-0.09,0.09 -0.21,0.15 -0.34,0.17l0 0.12c0.16,-0.02 0.31,-0.09 0.42,-0.2 0.11,-0.11 0.18,-0.26 0.2,-0.42l-0.12 0c-0.02,0.13 -0.08,0.25 -0.17,0.34zm-0.46 -1.15l0 0.16c0,0.01 -0.01,0.02 -0.02,0.02 -0.13,0.01 -0.24,0.07 -0.33,0.16 -0.09,0.09 -0.14,0.2 -0.16,0.33 -0,0.01 -0.01,0.02 -0.02,0.02l0 0 -0.16 0c-0.01,0 -0.02,-0.01 -0.02,-0.02 0,-0 0,-0 0,-0 0.02,-0.18 0.1,-0.35 0.22,-0.47 0.12,-0.12 0.29,-0.2 0.47,-0.22 0.01,-0 0.02,0.01 0.02,0.02 0,0 0,0 0,0l0 0zm-0.05 0.14l0 -0.12c-0.16,0.02 -0.31,0.09 -0.42,0.2 -0.11,0.11 -0.18,0.26 -0.2,0.42l0.12 0c0.02,-0.13 0.08,-0.25 0.17,-0.34 0.09,-0.09 0.21,-0.15 0.34,-0.17z"/>
  </g>
  <g>
   <path class="fil2 str1" d="M1.21 0.05c0.64,0 1.16,0.52 1.16,1.16 0,0.64 -0.52,1.16 -1.16,1.16 -0.64,0 -1.16,-0.52 -1.16,-1.16 0,-0.64 0.52,-1.16 1.16,-1.16z"/>
  </g>
 </g>
</svg>
